<svg width="32" height="32" viewBox="0 0 32 32" fill="none" xmlns="http://www.w3.org/2000/svg">
<rect width="32" height="32" rx="16" fill="#2A3F7C"/>
<path fill-rule="evenodd" clip-rule="evenodd" d="M15.9985 22.1572C12.5972 22.1572 9.83984 19.3999 9.83984 15.9985C9.83984 12.5972 12.5972 9.83984 15.9985 9.83984C19.3999 9.83984 22.1572 12.5972 22.1572 15.9985C22.1572 19.3999 19.3999 22.1572 15.9985 22.1572ZM7.83984 15.9985C7.83984 11.4926 11.4926 7.83984 15.9985 7.83984C20.5045 7.83984 24.1572 11.4926 24.1572 15.9985C24.1572 17.8911 23.5128 19.6332 22.4314 21.0173L24.0263 22.6125C24.4168 23.0031 24.4167 23.6363 24.0262 24.0267C23.6356 24.4172 23.0024 24.4172 22.612 24.0266L21.0172 22.4315C19.6331 23.5128 17.8911 24.1572 15.9985 24.1572C11.4926 24.1572 7.83984 20.5045 7.83984 15.9985Z" fill="white"/>
</svg>
