<svg width="453" height="422" viewBox="0 0 453 422" fill="none" xmlns="http://www.w3.org/2000/svg">
  <path d="M330.116 56.2868C339.215 43.503 423.895 88.4346 417.92 102.876C411.945 117.317 348.129 166.546 320.55 218.522C292.971 270.498 287.145 354.64 279.374 363.985C271.604 373.33 188.844 328.899 191.571 317.396C194.298 305.893 261.362 253.726 288.941 201.75C316.519 149.774 321.018 69.0707 330.116 56.2868Z" fill="url(#paint0_linear)"/>
  <circle cx="375.246" cy="76.7483" r="50" transform="rotate(116.127 375.246 76.7483)" fill="black"/>
  <path d="M125.531 56.5276C115.834 43.8082 32.8627 91.6757 39.4996 106.161C46.1365 120.646 112.357 168.847 142.339 220.816C172.321 272.785 181.907 357.969 190.119 367.236C198.331 376.504 279.397 329.197 276.15 317.603C272.903 306.01 203.293 254.917 173.311 202.948C143.329 150.979 135.228 69.2471 125.531 56.5276Z" fill="url(#paint1_linear)"/>
  <circle r="50" transform="matrix(0.44036 0.897821 0.897821 -0.44036 90.9562 76.7483)" fill="black"/>
  <circle r="71" transform="matrix(0.44036 0.897821 0.897821 -0.44036 242.859 349.302)" fill="black" stroke="white" stroke-width="2"/>
  <path d="M93.2693 126.575C78.1556 124.524 78.1558 28.3816 93.2693 26.8865C108.383 25.3914 179.688 58.787 236.851 58.787C294.013 58.787 368.874 24.3954 380.432 26.8865C391.99 29.3777 391.545 123.584 380.432 126.576C369.318 129.567 294.013 94.6751 236.85 94.6751C179.688 94.6751 108.383 128.627 93.2693 126.575Z" fill="url(#paint2_linear)"/>
  <path d="M380.998 143.001C341.786 143.001 309.998 111.213 309.998 72.0007C309.998 32.7885 341.786 1.00072 380.998 1.00072C420.211 1.00073 451.998 32.7885 451.998 72.0007C451.998 111.213 420.21 143.001 380.998 143.001Z" fill="black" stroke="white" stroke-width="2"/>
  <circle r="71" transform="matrix(-1 -1.43059e-07 -1.43059e-07 1 72.9988 72.0007)" fill="black" stroke="white" stroke-width="2"/>
  <defs>
    <linearGradient id="paint0_linear" x1="265.284" y1="284.508" x2="602.802" y2="60.3937" gradientUnits="userSpaceOnUse">
      <stop stop-opacity="0"/>
      <stop offset="1"/>
    </linearGradient>
    <linearGradient id="paint1_linear" x1="115.091" y1="132.872" x2="451.069" y2="357.073" gradientUnits="userSpaceOnUse">
      <stop stop-opacity="0"/>
      <stop offset="1"/>
    </linearGradient>
    <linearGradient id="paint2_linear" x1="318.643" y1="76.7301" x2="-61.933" y2="-111.839" gradientUnits="userSpaceOnUse">
      <stop stop-opacity="0"/>
      <stop offset="1"/>
    </linearGradient>
  </defs>
</svg>
