<svg width="22" height="22" viewBox="0 0 22 22" fill="none" xmlns="http://www.w3.org/2000/svg">
  <g opacity="0.9">
    <path d="M5.83843 12.0751L0.434202 9.71045C-0.174837 9.44418 -0.13363 8.56658 0.497839 8.35883L21.048 1.58425C21.5857 1.40717 22.1096 1.88713 21.9801 2.43851L17.8735 19.8989C17.7509 20.4205 17.124 20.6333 16.7095 20.2938L11.8841 16.3455L5.83843 12.0751Z" fill="#EBF0FA"/>
    <path d="M17.0351 5.34917L5.83789 12.0696L7.20795 18.4246C7.33084 18.9948 8.00287 19.246 8.46968 18.8965L11.8836 16.3399L9.07464 14.0412L17.3889 5.80434C17.6326 5.56282 17.3294 5.17253 17.0351 5.34917Z" fill="#BEC3D2"/>
    <path d="M7.66016 18.9859C7.91187 19.0997 8.22034 19.0848 8.47012 18.8977L11.884 16.3412L10.4796 15.1919L9.07507 14.0425L7.66016 18.9859Z" fill="#AFB4C8"/>
  </g>
</svg>
