<svg width="60" height="61" viewBox="0 0 60 61" fill="none" xmlns="http://www.w3.org/2000/svg">
  <path d="M19.0298 12.95H24.1393C24.8008 12.95 25.3369 12.4139 25.3369 11.7524C25.3369 11.0909 24.8008 10.5548 24.1393 10.5548H21.5046V9.19758C21.5046 8.53608 20.9686 8 20.3071 8C19.6457 8 19.1095 8.53608 19.1095 9.19758V10.5548H19.0297C16.2563 10.5548 14 12.8112 14 15.5845C14 18.3578 16.2563 20.6141 19.0297 20.6141H20.3071C21.7598 20.6141 22.9417 21.7961 22.9417 23.2486C22.9417 24.7014 21.7598 25.8832 20.3071 25.8832H15.1976C14.5362 25.8832 14 26.4192 14 27.0807C14 27.7422 14.5362 28.2783 15.1976 28.2783H19.1095V29.6356C19.1095 30.2971 19.6457 30.8331 20.3071 30.8331C20.9686 30.8331 21.5046 30.2971 21.5046 29.6356V28.1331C23.7015 27.5943 25.3367 25.6094 25.3367 23.2486C25.3367 20.4753 23.0804 18.219 20.3071 18.219H19.0297C17.5769 18.219 16.3951 17.037 16.3951 15.5845C16.3951 14.1319 17.5771 12.95 19.0298 12.95Z" fill="black"/>
  <path d="M46.2929 36.7071C46.6834 37.0976 47.3166 37.0976 47.7071 36.7071L54.0711 30.3431C54.4616 29.9526 54.4616 29.3195 54.0711 28.9289C53.6805 28.5384 53.0474 28.5384 52.6569 28.9289L47 34.5858L41.3431 28.9289C40.9526 28.5384 40.3195 28.5384 39.9289 28.9289C39.5384 29.3195 39.5384 29.9526 39.9289 30.3431L46.2929 36.7071ZM46 7V36H48V7H46Z" fill="black"/>
  <rect x="46" y="6" width="2" height="3" rx="1" fill="black"/>
  <circle cx="20" cy="19" r="18" stroke="black" stroke-width="2"/>
</svg>
