<svg width="291" height="47" viewBox="0 0 291 47" fill="none" xmlns="http://www.w3.org/2000/svg">
<path d="M24.9805 0L26.7821 3.61804L28.6184 0H24.9805Z" fill="#1A75AE"/>
<path d="M24.2532 3.61804L22.4169 0L20.6152 3.61804H24.2532Z" fill="#1A75AE"/>
<path d="M32.949 3.61804L31.1473 0L29.3457 3.61804H32.949Z" fill="#1A75AE"/>
<path d="M20.6143 4.34131L22.4159 7.95934L24.2522 4.34131H20.6143Z" fill="#1A75AE"/>
<path d="M11.8838 4.34131L13.6854 7.95934L15.5217 4.34131H11.8838Z" fill="#1A75AE"/>
<path d="M29.3457 4.34131L31.1473 7.95934L32.949 4.34131H29.3457Z" fill="#1A75AE"/>
<path d="M38.4238 3.9624L40.2255 7.58044L42.0618 3.9624H38.4238Z" fill="#1A75AE"/>
<path d="M19.887 7.95934L18.0507 4.34131L16.249 7.95934H19.887Z" fill="#1A75AE"/>
<path d="M28.6184 7.95934L26.7821 4.34131L24.9805 7.95934H28.6184Z" fill="#1A75AE"/>
<path d="M37.3147 7.95934L35.5131 4.34131L33.6768 7.95934H37.3147Z" fill="#1A75AE"/>
<path d="M16.25 8.68359L18.0516 12.3016L19.8879 8.68359H16.25Z" fill="#1A75AE"/>
<path d="M7.51855 8.68359L9.3202 12.3016L11.1565 8.68359H7.51855Z" fill="#1A75AE"/>
<path d="M24.9814 8.68359L26.7831 12.3016L28.6194 8.68359H24.9814Z" fill="#1A75AE"/>
<path d="M33.7119 8.68359L35.5136 12.3016L37.3498 8.68359H33.7119Z" fill="#1A75AE"/>
<path d="M15.5217 12.3016L13.6854 8.68359L11.8838 12.3016H15.5217Z" fill="#1A75AE"/>
<path d="M24.2532 12.3016L22.4169 8.68359L20.6152 12.3016H24.2532Z" fill="#1A75AE"/>
<path d="M32.95 12.3016L31.1483 8.68359L29.3467 12.3016H32.95Z" fill="#1A75AE"/>
<path d="M43.5168 12.3016L41.6806 8.68359L39.8789 12.3016H43.5168Z" fill="#1A75AE"/>
<path d="M43.5168 20.2611L41.6806 16.6431L39.8789 20.2611H43.5168Z" fill="#1A75AE"/>
<path d="M49.6838 15.5052L47.8822 11.8872L46.0459 15.5052H49.6838Z" fill="#1A75AE"/>
<path d="M61.0481 9.23376L59.2118 5.61572L57.4102 9.23376H61.0481Z" fill="#1A75AE"/>
<path d="M16.25 17.3662L18.0516 20.9842L19.8879 17.3662H16.25Z" fill="#1A75AE"/>
<path d="M7.51855 17.3662L9.3202 20.9842L11.1565 17.3662H7.51855Z" fill="#1A75AE"/>
<path d="M33.6777 17.3662L35.514 20.9842L37.3157 17.3662H33.6777Z" fill="#1A75AE"/>
<path d="M24.9814 17.3662L26.7831 20.9842L28.6194 17.3662H24.9814Z" fill="#1A75AE"/>
<path d="M15.5217 20.9842L13.6854 17.3662L11.8838 20.9842H15.5217Z" fill="#1A75AE"/>
<path d="M24.2532 20.9842L22.4169 17.3662L20.6152 20.9842H24.2532Z" fill="#1A75AE"/>
<path d="M32.95 20.9842L31.1483 17.3662L29.3467 20.9842H32.95Z" fill="#1A75AE"/>
<path d="M6.79125 20.9842L4.95496 17.3662L3.15332 20.9842H6.79125Z" fill="#1A75AE"/>
<path d="M20.6152 13.0244L22.4169 16.6424L24.2532 13.0244H20.6152Z" fill="#1A75AE"/>
<path d="M11.8838 13.0244L13.6854 16.6424L15.5217 13.0244H11.8838Z" fill="#1A75AE"/>
<path d="M38.043 13.0244L39.8793 16.6424L41.6809 13.0244H38.043Z" fill="#1A75AE"/>
<path d="M53.7725 13.0244L55.5741 16.6424L57.4104 13.0244H53.7725Z" fill="#1A75AE"/>
<path d="M52.9756 25.1538L54.7772 28.7718L56.6135 25.1538H52.9756Z" fill="#1A75AE"/>
<path d="M29.3467 13.0244L31.1483 16.6424L32.9846 13.0244H29.3467Z" fill="#1A75AE"/>
<path d="M19.887 16.6424L18.0507 13.0244L16.249 16.6424H19.887Z" fill="#1A75AE"/>
<path d="M28.6184 16.6424L26.7821 13.0244L24.9805 16.6424H28.6184Z" fill="#1A75AE"/>
<path d="M37.3493 16.6424L35.5131 13.0244L33.6768 16.6424H37.3493Z" fill="#1A75AE"/>
<path d="M11.1565 16.6424L9.3202 13.0244L7.51855 16.6424H11.1565Z" fill="#1A75AE"/>
<path d="M16.25 26.0503L18.0516 29.6683L19.8879 26.0503H16.25Z" fill="#1A75AE"/>
<path d="M7.51855 26.0503L9.3202 29.6683L11.1565 26.0503H7.51855Z" fill="#1A75AE"/>
<path d="M33.6777 26.0503L35.514 29.6683L37.3157 26.0503H33.6777Z" fill="#1A75AE"/>
<path d="M48.6104 27.8428L50.412 31.4608L52.2483 27.8428H48.6104Z" fill="#1A75AE"/>
<path d="M24.9814 26.0503L26.7831 29.6683L28.6194 26.0503H24.9814Z" fill="#1A75AE"/>
<path d="M15.5217 29.6683L13.6854 26.0503L11.8838 29.6683H15.5217Z" fill="#1A75AE"/>
<path d="M24.2532 29.6683L22.4169 26.0503L20.6152 29.6683H24.2532Z" fill="#1A75AE"/>
<path d="M32.95 29.6683L31.1483 26.0503L29.3467 29.6683H32.95Z" fill="#1A75AE"/>
<path d="M41.6809 29.6683L39.8793 26.0503L38.043 29.6683H41.6809Z" fill="#1A75AE"/>
<path d="M48.6096 26.3949L46.7733 22.7769L44.9717 26.3949H48.6096Z" fill="#1A75AE"/>
<path d="M46.0461 34.0091L44.2445 30.3911L42.4082 34.0091H46.0461Z" fill="#1A75AE"/>
<path d="M6.79125 29.6683L4.95496 26.0503L3.15332 29.6683H6.79125Z" fill="#1A75AE"/>
<path d="M24.9805 34.7334L26.7821 38.317L28.6184 34.7334H24.9805Z" fill="#1A75AE"/>
<path d="M16.249 34.7334L18.0507 38.317L19.887 34.7334H16.249Z" fill="#1A75AE"/>
<path d="M42.4082 34.7334L44.2445 38.317L46.0461 34.7334H42.4082Z" fill="#1A75AE"/>
<path d="M33.6768 34.7334L35.5131 38.317L37.3147 34.7334H33.6768Z" fill="#1A75AE"/>
<path d="M24.2522 38.317L22.4159 34.7334L20.6143 38.317H24.2522Z" fill="#1A75AE"/>
<path d="M32.949 38.317L31.1473 34.7334L29.3457 38.317H32.949Z" fill="#1A75AE"/>
<path d="M41.6799 38.317L39.8783 34.7334L38.042 38.317H41.6799Z" fill="#1A75AE"/>
<path d="M15.5217 38.317L13.6854 34.7334L11.8838 38.317H15.5217Z" fill="#1A75AE"/>
<path d="M20.6152 21.708L22.4169 25.326L24.2532 21.708H20.6152Z" fill="#1A75AE"/>
<path d="M11.8838 21.708L13.6854 25.326L15.5217 21.708H11.8838Z" fill="#1A75AE"/>
<path d="M38.043 21.708L39.8793 25.326L41.6809 21.708H38.043Z" fill="#1A75AE"/>
<path d="M49.3379 19.3652L51.1395 22.9833L52.9758 19.3652H49.3379Z" fill="#1A75AE"/>
<path d="M46.7734 6.85742L48.6097 10.4755L50.4114 6.85742H46.7734Z" fill="#1A75AE"/>
<path d="M3.15332 21.708L4.95496 25.326L6.79125 21.708H3.15332Z" fill="#1A75AE"/>
<path d="M29.3467 21.708L31.1483 25.326L32.9846 21.708H29.3467Z" fill="#1A75AE"/>
<path d="M19.8879 25.326L18.0516 21.708L16.25 25.326H19.8879Z" fill="#1A75AE"/>
<path d="M28.6194 25.326L26.7831 21.708L24.9814 25.326H28.6194Z" fill="#1A75AE"/>
<path d="M37.3157 25.326L35.514 21.708L33.6777 25.326H37.3157Z" fill="#1A75AE"/>
<path d="M11.1565 25.326L9.3202 21.708L7.51855 25.326H11.1565Z" fill="#1A75AE"/>
<path d="M20.6152 30.3906L22.4169 34.0087L24.2532 30.3906H20.6152Z" fill="#1A75AE"/>
<path d="M11.8838 30.3906L13.6854 34.0087L15.5217 30.3906H11.8838Z" fill="#1A75AE"/>
<path d="M38.043 30.3906L39.8793 34.0087L41.6809 30.3906H38.043Z" fill="#1A75AE"/>
<path d="M29.3467 30.3906L31.1483 34.0087L32.95 30.3906H29.3467Z" fill="#1A75AE"/>
<path d="M19.887 34.0087L18.0507 30.3906L16.249 34.0087H19.887Z" fill="#1A75AE"/>
<path d="M28.6184 34.0087L26.7821 30.3906L24.9805 34.0087H28.6184Z" fill="#1A75AE"/>
<path d="M37.3147 34.0087L35.5131 30.3906L33.6768 34.0087H37.3147Z" fill="#1A75AE"/>
<path d="M11.1565 34.0087L9.3202 30.3906L7.51855 34.0087H11.1565Z" fill="#1A75AE"/>
<path d="M20.6152 39.041L22.4169 42.659L24.2532 39.041H20.6152Z" fill="#1A75AE"/>
<path d="M11.8838 39.041L13.6854 42.659L15.5217 39.041H11.8838Z" fill="#1A75AE"/>
<path d="M7.51855 34.7334L9.3202 38.317L11.1565 34.7334H7.51855Z" fill="#1A75AE"/>
<path d="M38.043 39.041L39.8793 42.659L41.6809 39.041H38.043Z" fill="#1A75AE"/>
<path d="M29.3467 39.041L31.1483 42.659L32.95 39.041H29.3467Z" fill="#1A75AE"/>
<path d="M19.887 42.659L18.0507 39.041L16.249 42.659H19.887Z" fill="#1A75AE"/>
<path d="M28.6184 42.659L26.7821 39.041L24.9805 42.659H28.6184Z" fill="#1A75AE"/>
<path d="M24.9805 43.3818L26.7821 46.9999L28.6184 43.3818H24.9805Z" fill="#1A75AE"/>
<path d="M24.2532 46.9999L22.4169 43.3818L20.6152 46.9999H24.2532Z" fill="#1A75AE"/>
<path d="M32.95 46.9999L31.1483 43.3818L29.3467 46.9999H32.95Z" fill="#1A75AE"/>
<path d="M37.3147 42.659L35.5131 39.041L33.6768 42.659H37.3147Z" fill="#1A75AE"/>
<path d="M230.713 28.4626H227.63V32.3908H220.077V14.5073H223.16V10.7515H212.281V14.5073H215.33V32.6664H212.281V36.1811H231.649V34.9751C230.679 34.0447 230.021 32.7698 230.021 31.0469C230.055 30.0477 230.298 29.1862 230.713 28.4626Z" fill="#1A75AE"/>
<path d="M247.032 31.9778V24.6728C247.032 20.021 244.399 17.4712 239.479 17.4712C235.044 17.4712 232.203 19.7109 232.203 19.7109L233.901 22.8466C233.901 22.8466 236.361 21.0892 239.098 21.0892C241.004 21.0892 242.494 21.9162 242.494 24.2249V24.8451H241.35C238.405 24.8451 231.025 25.4309 231.025 31.013C231.025 34.7344 233.97 36.5606 237.123 36.5606C241.316 36.5951 242.875 33.0804 242.875 33.0804H242.944C242.944 33.0804 242.84 33.425 242.84 34.0108V34.2175C242.84 35.2512 243.498 36.1471 245.161 36.1471H249.492V32.7359H247.829C247.344 32.7703 247.032 32.5291 247.032 31.9778ZM242.494 28.2564C242.494 30.5306 240.727 33.1838 238.232 33.1838C236.534 33.1838 235.564 32.0467 235.564 30.6684C235.564 27.9118 239.93 27.6361 241.731 27.6361H242.494V28.2564Z" fill="#1A75AE"/>
<path d="M260.856 17.5051C257.011 17.5051 255.348 20.2273 255.348 20.2273H255.278C255.278 20.2273 255.348 19.5726 255.348 18.6767V10.7515H247.968V14.1628H250.774V36.1811H255.105V35.0784C255.105 34.3548 255.036 33.7346 255.036 33.7346H255.105C255.105 33.7346 256.595 36.629 260.579 36.629C265.43 36.629 269.033 32.8732 269.033 27.0843C269.033 21.3988 265.811 17.5051 260.856 17.5051ZM259.782 32.7698C256.733 32.7698 255.244 29.9787 255.244 27.1532C255.244 23.1217 257.461 21.3988 259.852 21.3988C262.554 21.3988 264.425 23.6386 264.425 27.1188C264.425 30.7368 262.312 32.7698 259.782 32.7698Z" fill="#1A75AE"/>
<path d="M278.111 25.4309C276.067 24.8106 274.265 24.2249 274.265 22.7087C274.265 21.5716 275.478 21.0548 276.933 21.0548C278.561 21.0548 279.635 21.6405 279.635 22.5709V23.6046H283.55V21.2615C283.55 18.5049 279.601 17.4712 276.933 17.4712C273.572 17.4712 269.692 18.8495 269.692 22.7087C269.692 26.1889 272.775 27.4294 275.478 28.3598C277.937 29.2556 279.635 29.6347 279.635 31.1853C279.635 32.3913 278.353 33.046 276.517 33.046C274.611 33.046 272.914 32.3913 272.914 31.1508V30.0826H269.033V32.1845C269.033 35.1479 273.122 36.5951 276.482 36.5951C280.709 36.5951 284.209 34.7344 284.209 31.0474C284.209 27.4639 280.917 26.3268 278.111 25.4309Z" fill="#1A75AE"/>
<path d="M203.065 29.0142V21.3302H207.258V17.9189H203.065V12.957H198.631V17.9189H195.686V21.3302H198.492V29.4966C198.492 35.6301 203.585 36.3537 206.149 36.3537C206.98 36.3537 207.569 36.2503 207.569 36.2503V32.5289C207.569 32.5289 207.258 32.5633 206.738 32.5633C205.456 32.5633 203.065 32.1154 203.065 29.0142Z" fill="#1A75AE"/>
<path d="M85.8202 22.8116V22.7427C87.7951 21.7089 88.9385 19.676 88.9385 17.2984C88.9385 14.4729 87.3447 12.3365 85.058 11.4406C83.7414 10.8893 82.3902 10.7515 80.4846 10.7515H68.7393V14.3006H71.7882V32.6664H68.7393V36.1811H81.0736C82.4248 36.1811 83.6375 36.1122 84.8848 35.7676C87.6565 34.9406 89.9432 32.3908 89.9432 28.8761C89.9779 26.154 88.6613 23.673 85.8202 22.8116ZM76.5348 14.5073H80.4846C81.3854 14.5073 82.0784 14.6107 82.6674 14.8864C83.6721 15.4377 84.1572 16.5403 84.1572 17.7808C84.1572 19.7104 83.0485 21.1232 81.0389 21.1232H76.5348V14.5073ZM83.1178 32.1151C82.5634 32.3218 81.9051 32.3908 81.2815 32.3908H76.5348V24.879H81.4547C83.8107 24.879 85.1619 26.3952 85.1619 28.566C85.1619 30.151 84.4344 31.5982 83.1178 32.1151Z" fill="#1A75AE"/>
<path d="M166.201 17.5044C160.623 17.5044 156.119 21.467 156.119 27.0491C156.119 32.6657 160.623 36.5938 166.236 36.5938C171.814 36.5938 176.318 32.6657 176.318 27.0491C176.318 21.467 171.814 17.5044 166.201 17.5044ZM166.236 32.7346C163.256 32.7346 160.762 30.4604 160.762 27.0491C160.762 23.6723 163.256 21.3636 166.236 21.3636C169.181 21.3636 171.676 23.7067 171.676 27.0491C171.676 30.4604 169.181 32.7346 166.236 32.7346Z" fill="#1A75AE"/>
<path d="M194.647 32.0106V17.9175H187.267V21.3288H190.073V26.0494C190.073 29.3574 188.168 32.5619 185.015 32.5619C182.693 32.5619 182.139 31.0458 182.139 28.875V17.9175H174.725V21.3288H177.566V29.6675C177.566 34.6294 179.922 36.5934 183.56 36.5934C188.168 36.5934 190.039 33.1821 190.246 32.5964H190.316C190.316 32.5964 190.281 32.9754 190.281 33.4578V34.147C190.281 35.4219 191.043 36.1799 192.672 36.1799H197.21V32.8031H195.443C194.924 32.8031 194.647 32.5275 194.647 32.0106Z" fill="#1A75AE"/>
<path d="M120.121 26.1532C120.121 21.3292 117.245 17.5044 111.944 17.5044C108.306 17.5044 105.396 19.2273 103.837 22.0528V17.7456C103.837 17.7456 103.456 17.6767 103.005 17.6767C100.199 17.6767 98.0161 19.7441 97.1846 22.3629H97.1153C97.1153 22.3629 97.1846 21.915 97.1846 21.2258V20.1576C97.1846 18.607 96.353 17.9523 94.7246 17.9523H89.9434V21.3636H91.9875C92.5072 21.3636 92.7844 21.6393 92.7844 22.1562V32.838H90.1166V36.2493H99.991V32.838H97.3578V28.8064C97.3578 25.3607 99.0209 22.1562 102.728 22.1562C103.213 22.1562 103.594 22.1906 103.767 22.2251C103.04 23.6034 102.624 25.2573 102.624 27.0836C102.624 32.2867 106.401 36.6283 112.499 36.6283C117.107 36.6283 119.913 34.0784 119.913 34.0784L118.146 30.8739C118.146 30.8739 115.79 32.8035 112.81 32.8035C110.039 32.8035 107.579 31.0806 107.301 27.7383H120.017C120.017 27.7038 120.121 26.7045 120.121 26.1532ZM107.405 25.0161C107.821 22.6041 109.484 21.0191 111.84 21.0191C113.78 21.0191 115.34 22.5352 115.409 25.0161H107.405Z" fill="#1A75AE"/>
<path d="M136.959 32.7703C136.474 32.7703 136.162 32.5291 136.162 31.9778V24.6728C136.162 20.021 133.529 17.4712 128.609 17.4712C124.174 17.4712 121.333 19.7109 121.333 19.7109L123.031 22.8466C123.031 22.8466 125.491 21.0892 128.228 21.0892C130.134 21.0892 131.623 21.9162 131.623 24.2249V24.8451H130.48C127.535 24.8451 120.155 25.4309 120.155 31.013C120.155 34.7344 123.1 36.5606 126.253 36.5606C130.445 36.5951 132.005 33.0804 132.005 33.0804H132.074C132.074 33.0804 131.97 33.425 131.97 34.0108V34.2175C131.97 35.2512 132.628 36.1471 134.291 36.1471H137.34H138.033V32.7359H137.34H136.959V32.7703ZM131.623 28.2564C131.623 30.5306 129.856 33.1838 127.362 33.1838C125.664 33.1838 124.694 32.0467 124.694 30.6684C124.694 27.9118 129.06 27.6361 130.861 27.6361H131.623V28.2564Z" fill="#1A75AE"/>
<path d="M154.317 32.1151L151.719 27.6012C150.991 26.3952 150.333 26.0506 150.298 26.0506V25.9817L154.283 21.2955H156.673V17.9186H147.873V21.3299H149.986L147.007 24.8446H144.581V10.7515H137.167V14.1628H140.008V32.7698H138.934V36.1811H146.556V32.7698H144.581V28.1525H145.655C146.314 28.1525 146.868 28.1869 147.249 28.8416L150.575 34.596C151.303 35.9054 151.892 36.1811 153.451 36.1811H156.881V32.7698H155.842C154.976 32.7698 154.629 32.6664 154.317 32.1151Z" fill="#1A75AE"/>
<path d="M286.149 34.044H285.387V36.1459H284.971V34.044H284.209V33.7339H286.149V34.044ZM289.371 36.1804H288.956V34.1474L288.159 36.1804H287.916L287.119 34.1474V36.1804H286.704V33.7339H287.327L288.055 35.5946L288.782 33.7339H289.406V36.1804H289.371Z" fill="#1A75AE"/>
</svg>
