<svg width="294" height="50" viewBox="0 0 294 50" fill="none" xmlns="http://www.w3.org/2000/svg">
<g clip-path="url(#clip0)">
<path d="M60.0674 28.1228L58.4443 31.3016C58.0852 32.0472 56.7637 31.5242 57.1228 30.7237L63.1557 18.7424C63.2201 18.6256 63.3144 18.5282 63.4288 18.4605C63.5432 18.3927 63.6736 18.3569 63.8064 18.3569C63.9392 18.3569 64.0695 18.3927 64.1839 18.4605C64.2984 18.5282 64.3927 18.6256 64.4571 18.7424L70.4899 30.663C71.0128 31.5299 69.5304 32.0328 69.1483 31.241L67.5884 28.1199L60.0674 28.1228ZM63.8308 20.5168L60.6707 26.8744H66.9765L63.8308 20.5168Z" fill="#00263D"/>
<path d="M72.317 31.4985C71.7769 31.4985 71.5557 31.2356 71.5557 30.753V19.1936C71.5557 18.2486 73.038 18.2486 73.038 19.1936V30.175H80.5246C81.5473 30.175 81.5473 31.5043 80.5246 31.5043L72.317 31.4985Z" fill="#00263D"/>
<path d="M90.855 31.0044C89.9149 31.4525 88.8927 31.6994 87.8529 31.7298C84.4285 31.7298 81.346 28.9093 81.346 24.9213C81.3311 23.3774 81.8702 21.8799 82.8644 20.7036C83.8586 19.5272 85.2412 18.751 86.7584 18.5174C89.1026 18.1967 91.1423 18.7804 92.7252 20.4507C93.3256 21.1356 92.2454 21.9621 91.6852 21.3581C90.3235 19.9132 88.7406 19.6849 86.9796 19.8872C84.5176 20.2687 82.7767 22.0228 82.7767 24.9415C82.7882 28.0019 85.1295 30.3427 87.9075 30.3427C88.7148 30.3294 89.5085 30.1317 90.2287 29.7647C90.8633 29.4351 91.4221 28.9754 91.8691 28.4151C92.3316 27.7302 93.5526 28.4758 93.0326 29.2214C92.4645 29.9878 91.7163 30.6004 90.855 31.0044Z" fill="#00263D"/>
<path d="M96.4608 24.6807H103.827V19.19C103.827 18.2248 105.289 18.2248 105.289 19.19V30.9199C105.295 31.0203 105.281 31.121 105.247 31.2157C105.213 31.3104 105.16 31.3971 105.092 31.4705C105.023 31.5439 104.941 31.6023 104.849 31.6423C104.757 31.6823 104.658 31.7029 104.558 31.7029C104.458 31.7029 104.359 31.6823 104.267 31.6423C104.175 31.6023 104.092 31.5439 104.024 31.4705C103.955 31.3971 103.903 31.3104 103.869 31.2157C103.835 31.121 103.82 31.0203 103.827 30.9199V25.9494H96.4608V30.9199C96.4608 31.966 95.0244 31.8446 95.0244 30.9199V19.1813C95.0244 18.1959 96.4608 18.2566 96.4608 19.1813V24.6807Z" fill="#00263D"/>
<path d="M108.77 30.1786H116.678C117.52 30.1786 117.638 31.5079 116.678 31.5079H108.25C108.13 31.516 108.01 31.4989 107.897 31.4577C107.785 31.4165 107.682 31.352 107.595 31.2685C107.509 31.185 107.441 31.0843 107.395 30.9728C107.349 30.8612 107.327 30.7413 107.33 30.6208V19.5671C107.33 19.4482 107.354 19.3306 107.401 19.2214C107.448 19.1123 107.517 19.014 107.603 18.9327C107.689 18.8514 107.791 18.7888 107.902 18.7488C108.013 18.7088 108.132 18.6922 108.25 18.7002H116.699C117.56 18.7002 117.52 19.989 116.678 19.989H108.77V24.5203H116.299C117.098 24.5203 117.138 25.8092 116.299 25.8092H108.77V30.1786Z" fill="#00263D"/>
<path d="M130.25 19.0012C130.713 18.2787 131.632 18.5186 131.632 19.3653V30.9651C131.632 31.9303 130.173 31.9303 130.173 30.9651V21.8014L126.087 28.2256C126.025 28.3563 125.927 28.4666 125.804 28.5439C125.682 28.6211 125.541 28.662 125.397 28.662C125.252 28.662 125.111 28.6211 124.989 28.5439C124.866 28.4666 124.768 28.3563 124.706 28.2256L120.623 21.8217V30.9651C120.623 31.9303 119.161 31.9303 119.161 30.9651V19.3624C119.161 18.4955 120.121 18.2758 120.523 18.9983L125.407 26.6535L130.25 19.0012Z" fill="#00263D"/>
<path d="M134.034 18.9642C134.034 17.9556 135.537 17.9759 135.537 18.9642V31.0061C135.537 31.9309 134.034 31.9713 134.034 31.0061V18.9642Z" fill="#00263D"/>
<path d="M137.979 28.3195C138.499 29.9898 140.722 30.3424 142.322 30.3424C144.023 30.3424 146.666 29.8193 146.666 27.7848C146.666 26.0307 144.566 25.892 142.357 25.7099C139.593 25.4874 136.631 25.2273 136.631 22.2248C136.631 19.569 139.673 18.3784 142.115 18.3784C144.218 18.3784 146.841 18.8841 147.683 21.1787C147.97 21.9849 146.62 22.3346 146.321 21.6613C145.721 20.1326 143.578 19.8696 142.135 19.8696C140.794 19.8696 138.194 20.4129 138.194 22.245C138.194 23.9992 140.205 24.1783 142.518 24.3604C145.258 24.6031 148.203 24.7418 148.203 27.7646C148.203 30.8452 144.778 31.7931 142.316 31.7931C140.274 31.7931 137.145 31.0879 136.49 28.6691C136.258 27.8022 137.818 27.4988 137.979 28.3195Z" fill="#00263D"/>
<path d="M158.418 18.6787C158.513 18.6726 158.607 18.686 158.697 18.7181C158.786 18.7503 158.867 18.8005 158.936 18.8656C159.005 18.9308 159.061 19.0095 159.098 19.0968C159.136 19.1842 159.155 19.2785 159.155 19.3737C159.155 19.4689 159.136 19.5632 159.098 19.6505C159.061 19.7379 159.005 19.8166 158.936 19.8818C158.867 19.9469 158.786 19.9971 158.697 20.0293C158.607 20.0614 158.513 20.0748 158.418 20.0687H153.954C153.954 23.6926 153.974 27.3771 153.974 31.0039C153.974 31.1035 153.954 31.2021 153.916 31.2939C153.877 31.3857 153.821 31.4688 153.75 31.5383C153.679 31.6078 153.595 31.6623 153.503 31.6986C153.41 31.7349 153.312 31.7521 153.213 31.7494C153.116 31.7511 153.02 31.7328 152.93 31.6957C152.841 31.6585 152.76 31.6033 152.692 31.5335C152.624 31.4636 152.572 31.3806 152.537 31.2895C152.503 31.1984 152.487 31.1012 152.492 31.0039V20.0687H148.047C147.953 20.0748 147.858 20.0614 147.769 20.0293C147.68 19.9971 147.598 19.9469 147.529 19.8818C147.46 19.8166 147.405 19.7379 147.368 19.6505C147.33 19.5632 147.311 19.4689 147.311 19.3737C147.311 19.2785 147.33 19.1842 147.368 19.0968C147.405 19.0095 147.46 18.9308 147.529 18.8656C147.598 18.8005 147.68 18.7503 147.769 18.7181C147.858 18.686 147.953 18.6726 148.047 18.6787H158.418Z" fill="#00263D"/>
<path d="M165.474 27.9045L163.693 31.4677C163.646 31.5349 163.576 31.5824 163.496 31.6008C163.417 31.6192 163.333 31.6074 163.262 31.5675C163.19 31.5276 163.136 31.4626 163.11 31.385C163.083 31.3073 163.086 31.2225 163.118 31.1469L169.484 18.5183C169.513 18.463 169.556 18.4169 169.61 18.3852C169.663 18.3535 169.724 18.3376 169.786 18.3392C169.846 18.3347 169.907 18.3496 169.958 18.3818C170.01 18.4139 170.05 18.4618 170.073 18.5183L176.459 31.1469C176.491 31.2225 176.494 31.3073 176.468 31.385C176.441 31.4626 176.387 31.5276 176.316 31.5675C176.244 31.6074 176.161 31.6192 176.081 31.6008C176.002 31.5824 175.932 31.5349 175.885 31.4677L174.104 27.9045H165.474ZM169.783 19.3246L165.761 27.3006H173.747L169.783 19.3246Z" fill="#00263D"/>
<path d="M185.871 31.0047C184.858 31.5353 183.724 31.7877 182.583 31.7366C181.443 31.6855 180.336 31.3325 179.374 30.7134C178.413 30.0943 177.63 29.2309 177.106 28.2104C176.582 27.19 176.335 26.0485 176.39 24.9013C176.471 21.5 178.631 19.0003 181.774 18.4975C184.138 18.2085 186.02 18.5784 187.741 20.4308C188.028 20.7949 187.56 21.1561 187.261 20.8353C185.638 19.061 184.058 18.902 181.874 19.1621C179.053 19.6043 177.111 21.6589 177.031 24.9216C176.992 25.952 177.222 26.9747 177.697 27.8883C178.172 28.8019 178.877 29.5745 179.741 30.1295C180.605 30.6846 181.598 31.0026 182.622 31.0522C183.646 31.1018 184.665 30.8812 185.578 30.4123C186.31 30.0388 186.953 29.5093 187.462 28.8604C187.485 28.8206 187.516 28.7861 187.553 28.7591C187.59 28.7322 187.632 28.7133 187.677 28.7039C187.721 28.6944 187.767 28.6946 187.812 28.7043C187.857 28.714 187.899 28.7331 187.936 28.7603C187.972 28.7875 188.003 28.8222 188.026 28.8622C188.048 28.9021 188.062 28.9464 188.066 28.9921C188.071 29.0378 188.066 29.0839 188.051 29.1275C188.037 29.171 188.013 29.211 187.982 29.2448C187.435 29.9991 186.709 30.6041 185.871 31.0047Z" fill="#00263D"/>
<path d="M198.224 31.0047C197.211 31.5343 196.078 31.7861 194.937 31.7345C193.797 31.6829 192.69 31.3299 191.729 30.7109C190.768 30.092 189.985 29.2291 189.461 28.2091C188.937 27.1892 188.69 26.0482 188.744 24.9013C188.824 21.5 190.987 19.0003 194.13 18.4975C196.492 18.2085 198.373 18.5784 200.094 20.4308C200.381 20.7949 199.916 21.1561 199.614 20.8353C197.994 19.061 196.411 18.902 194.231 19.1621C191.407 19.6043 189.465 21.6589 189.384 24.9216C189.346 25.9521 189.576 26.9748 190.052 27.8882C190.527 28.8017 191.232 29.5742 192.096 30.1291C192.96 30.6841 193.954 31.0021 194.978 31.0518C196.001 31.1015 197.021 30.881 197.934 30.4123C198.666 30.0396 199.308 29.5099 199.815 28.8604C199.838 28.8206 199.869 28.7861 199.906 28.7591C199.943 28.7322 199.985 28.7133 200.03 28.7039C200.075 28.6944 200.121 28.6946 200.165 28.7043C200.21 28.714 200.252 28.7331 200.289 28.7603C200.326 28.7875 200.356 28.8222 200.379 28.8622C200.401 28.9021 200.415 28.9464 200.42 28.9921C200.424 29.0378 200.419 29.0839 200.404 29.1275C200.39 29.171 200.366 29.211 200.335 29.2448C199.789 29.9998 199.063 30.6049 198.224 31.0047Z" fill="#00263D"/>
<path d="M202.556 30.8644H211.407C211.487 30.872 211.561 30.9092 211.615 30.9688C211.669 31.0284 211.699 31.1061 211.699 31.1866C211.699 31.2672 211.669 31.3448 211.615 31.4044C211.561 31.464 211.487 31.5012 211.407 31.5088H202.439C202.367 31.5108 202.296 31.4981 202.229 31.4716C202.163 31.445 202.102 31.4051 202.051 31.3543C202.001 31.3035 201.961 31.2428 201.934 31.176C201.907 31.1092 201.894 31.0376 201.896 30.9655V19.2241C201.896 19.1536 201.91 19.0838 201.938 19.019C201.966 18.9541 202.006 18.8956 202.057 18.8468C202.108 18.798 202.167 18.7599 202.233 18.7349C202.299 18.7099 202.368 18.6984 202.439 18.7011H211.439C211.519 18.7038 211.594 18.7381 211.648 18.7967C211.703 18.8552 211.732 18.9331 211.729 19.0132C211.727 19.0933 211.692 19.169 211.634 19.2238C211.576 19.2785 211.499 19.3077 211.419 19.3051H202.556V24.8535H211.005C211.085 24.8535 211.161 24.8854 211.218 24.942C211.274 24.9986 211.305 25.0754 211.305 25.1555C211.305 25.2356 211.274 25.3124 211.218 25.3691C211.161 25.4257 211.085 25.4575 211.005 25.4575H202.556V30.8644Z" fill="#00263D"/>
<path d="M214.068 31.5001C213.809 31.5001 213.708 31.3585 213.708 31.1186V18.9437C213.704 18.8961 213.71 18.8481 213.725 18.8028C213.74 18.7575 213.764 18.7158 213.796 18.6805C213.828 18.6452 213.867 18.6169 213.911 18.5976C213.954 18.5783 214.001 18.5684 214.049 18.5684C214.096 18.5684 214.143 18.5783 214.187 18.5976C214.23 18.6169 214.269 18.6452 214.301 18.6805C214.333 18.7158 214.358 18.7575 214.373 18.8028C214.388 18.8481 214.394 18.8961 214.389 18.9437V30.8846H222.798C222.88 30.8846 222.959 30.9174 223.017 30.976C223.076 31.0345 223.108 31.1139 223.108 31.1967C223.108 31.2794 223.076 31.3588 223.017 31.4173C222.959 31.4759 222.88 31.5088 222.798 31.5088L214.068 31.5001Z" fill="#00263D"/>
<path d="M224.878 30.8624H233.726C233.806 30.87 233.88 30.9072 233.934 30.9668C233.988 31.0264 234.017 31.104 234.017 31.1846C234.017 31.2651 233.988 31.3428 233.934 31.4024C233.88 31.4619 233.806 31.4992 233.726 31.5068H224.757C224.686 31.5088 224.615 31.4961 224.548 31.4695C224.482 31.4429 224.421 31.4029 224.371 31.3521C224.32 31.3012 224.281 31.2406 224.254 31.1737C224.228 31.1069 224.215 31.0354 224.217 30.9635V19.2221C224.217 19.1518 224.232 19.0822 224.259 19.0176C224.287 18.953 224.327 18.8946 224.377 18.8458C224.428 18.797 224.487 18.7589 224.552 18.7337C224.618 18.7085 224.687 18.6967 224.757 18.699H233.746C233.826 18.7017 233.901 18.7361 233.955 18.7946C234.01 18.8532 234.039 18.931 234.036 19.0111C234.034 19.0912 233.999 19.167 233.941 19.2217C233.883 19.2764 233.806 19.3057 233.726 19.303H224.878V24.8515H233.327C233.406 24.8515 233.483 24.8833 233.539 24.9399C233.595 24.9966 233.627 25.0734 233.627 25.1535C233.627 25.2336 233.595 25.3104 233.539 25.367C233.483 25.4236 233.406 25.4555 233.327 25.4555H224.878V30.8624Z" fill="#00263D"/>
<path d="M236.667 26.773V31.2233C236.668 31.267 236.661 31.3105 236.646 31.3513C236.63 31.3921 236.607 31.4295 236.577 31.4613C236.547 31.4931 236.512 31.5187 236.472 31.5366C236.433 31.5545 236.39 31.5645 236.346 31.5658C236.303 31.5671 236.26 31.5598 236.219 31.5444C236.179 31.5289 236.142 31.5055 236.11 31.4756C236.078 31.4457 236.053 31.4098 236.035 31.37C236.017 31.3302 236.007 31.2872 236.006 31.2436V19.0196C236.004 18.9741 236.012 18.9288 236.029 18.8865C236.045 18.8441 236.071 18.8058 236.103 18.7737C236.135 18.7417 236.173 18.7167 236.215 18.7003C236.258 18.6839 236.303 18.6765 236.348 18.6785H241.393C244.762 18.6785 246.486 20.5916 246.486 22.8659C246.486 25.042 245.05 26.5736 242.122 26.7932L246.265 31.0846C246.587 31.4256 246.164 31.8678 245.845 31.547L241.352 26.773H236.667ZM236.667 26.195H241.413C244.515 26.195 245.857 24.7068 245.817 22.8717C245.797 20.8979 244.153 19.3085 241.413 19.3085H236.667V26.195Z" fill="#00263D"/>
<path d="M248.96 27.9045L247.176 31.4677C247.129 31.5349 247.059 31.5824 246.98 31.6008C246.9 31.6192 246.817 31.6074 246.745 31.5675C246.674 31.5276 246.62 31.4626 246.593 31.385C246.567 31.3073 246.57 31.2225 246.602 31.1469L252.968 18.5183C252.996 18.463 253.04 18.4169 253.093 18.3852C253.146 18.3535 253.207 18.3376 253.269 18.3392C253.33 18.3347 253.39 18.3496 253.442 18.3818C253.494 18.4139 253.534 18.4618 253.557 18.5183L259.94 31.1469C259.972 31.2225 259.975 31.3073 259.948 31.385C259.922 31.4626 259.868 31.5276 259.796 31.5675C259.725 31.6074 259.641 31.6192 259.562 31.6008C259.482 31.5824 259.412 31.5349 259.365 31.4677L257.584 27.9045H248.96ZM253.269 19.3246L249.265 27.3006H257.254L253.269 19.3246Z" fill="#00263D"/>
<path d="M268.937 18.6797C269.417 18.6797 269.417 19.2837 268.937 19.2837H263.766L263.787 31.2043C263.789 31.2535 263.782 31.3028 263.765 31.3491C263.748 31.3955 263.722 31.4379 263.689 31.4739C263.655 31.5098 263.615 31.5385 263.57 31.5582C263.525 31.578 263.476 31.5883 263.427 31.5886C263.379 31.5876 263.332 31.5767 263.288 31.5565C263.245 31.5363 263.205 31.5073 263.173 31.4712C263.141 31.4351 263.117 31.3928 263.102 31.3469C263.087 31.301 263.081 31.2524 263.086 31.2043V19.2837H257.915C257.435 19.2837 257.435 18.6797 257.915 18.6797H268.937Z" fill="#00263D"/>
<path d="M268.837 24.8824C268.938 21.7613 270.848 19.0015 274.008 18.4987C274.726 18.3976 275.454 18.3976 276.172 18.4987C279.332 19.0015 281.495 21.7613 281.575 24.8824C281.696 28.7692 278.703 31.7515 275.209 31.7515C271.716 31.7515 268.737 28.7692 268.837 24.8824ZM269.518 24.9026C269.418 28.3704 272.104 31.1273 275.204 31.1273C278.303 31.1273 281.01 28.3675 280.909 24.9026C280.829 22.085 278.898 19.5882 276.065 19.1431C275.415 19.042 274.753 19.042 274.103 19.1431C271.279 19.5882 269.599 22.085 269.518 24.9026Z" fill="#00263D"/>
<path d="M284.172 26.773V31.2234C284.174 31.3115 284.142 31.3971 284.082 31.4613C284.022 31.5255 283.939 31.5631 283.852 31.5658C283.764 31.5685 283.679 31.536 283.615 31.4756C283.551 31.4152 283.514 31.3317 283.511 31.2436V19.0196C283.509 18.9742 283.516 18.929 283.533 18.8867C283.549 18.8444 283.574 18.806 283.606 18.7739C283.638 18.7418 283.676 18.7167 283.718 18.7003C283.76 18.6839 283.805 18.6765 283.85 18.6786H288.895C292.279 18.6786 294 20.5916 294 22.8659C294 25.042 292.563 26.5736 289.636 26.7932L293.781 31.0846C294.1 31.4256 293.681 31.8678 293.362 31.547L288.857 26.773H284.172ZM284.172 26.195H288.915C292.02 26.195 293.362 24.7068 293.322 22.8717C293.302 20.898 291.658 19.3085 288.915 19.3085H284.172V26.195Z" fill="#00263D"/>
<path d="M3.53583 49.9942H6.16732C6.329 49.991 6.48712 49.946 6.62649 49.8635C6.76586 49.781 6.88178 49.6638 6.96309 49.5232L21.7207 23.8036L27.5094 33.8834H19.0806L16.699 38.0332H42.5543C42.6952 38.0354 42.8347 38.0048 42.9618 37.9436C43.0889 37.8824 43.2002 37.7924 43.2868 37.6806C43.4031 37.5465 43.4771 37.3808 43.4996 37.2043C43.5221 37.0279 43.4921 36.8487 43.4132 36.6894L22.6572 0.53751C22.5677 0.374951 22.4365 0.239413 22.2775 0.144913C22.1184 0.0504139 21.9371 0.000384668 21.7523 0C21.5696 0.00671076 21.3913 0.0587698 21.2334 0.151542C21.0756 0.244314 20.9429 0.37492 20.8474 0.53173L0.12294 36.62C0.047818 36.765 0.00562559 36.9249 -0.000590447 37.0882C-0.00437384 37.2201 0.0196827 37.3513 0.0699926 37.4731C0.120303 37.595 0.195723 37.7047 0.291278 37.7951C0.386834 37.8855 0.500354 37.9545 0.624351 37.9975C0.748348 38.0405 0.880005 38.0566 1.01064 38.0447H8.78732L2.73432 48.5782C2.65853 48.7145 2.61684 48.8672 2.61284 49.0233C2.60883 49.1793 2.64264 49.3341 2.71134 49.474C2.78466 49.6312 2.90138 49.7638 3.04758 49.856C3.19378 49.9483 3.36327 49.9962 3.53583 49.9942ZM20.7727 17.1656L11.1746 33.8891H6.45173L21.7437 7.2535L37.0356 33.8891H32.2696L22.6946 17.183C22.5985 17.0078 22.4574 16.8618 22.2861 16.7602C22.1148 16.6585 21.9196 16.6049 21.7207 16.605C21.5239 16.6005 21.3297 16.6511 21.1597 16.7511C20.9898 16.8511 20.8508 16.9966 20.7583 17.1714L20.7727 17.1656Z" fill="#58C8E6"/>
<path d="M39.8864 49.9929H37.2807C37.121 49.9905 36.9646 49.947 36.8263 49.8665C36.6881 49.7861 36.5725 49.6715 36.4907 49.5335L31.3369 40.5576H36.1029L40.6994 48.5596C40.7877 48.7038 40.8359 48.8691 40.8392 49.0384C40.8424 49.2077 40.8005 49.3748 40.7178 49.5223C40.6351 49.6698 40.5146 49.7923 40.3689 49.8771C40.2232 49.9619 40.0576 50.0059 39.8893 50.0045L39.8864 49.9929Z" fill="#58C8E6"/>
</g>
<defs>
<clipPath id="clip0">
<rect width="294" height="50" fill="white"/>
</clipPath>
</defs>
</svg>
