<svg preserveAspectRatio="xMinYMin slice" viewBox="0 0 16 16" fill="none" xmlns="http://www.w3.org/2000/svg">
  <path d="M13.8541 8.1458C13.7569 8.04854 13.6388 8 13.4999 8H9.66661V6.33336C9.66661 5.96524 9.79684 5.65105 10.0573 5.39062C10.3177 5.13024 10.6319 5.00002 11 5.00002C11.3681 5.00002 11.6823 5.13022 11.9427 5.39062C12.2031 5.65105 12.3333 5.96526 12.3333 6.33336C12.3333 6.4236 12.3663 6.50172 12.4322 6.56768C12.4983 6.63367 12.5764 6.66667 12.6666 6.66667H13.0001C13.0903 6.66667 13.1684 6.63367 13.2345 6.56768C13.3002 6.50172 13.3333 6.4236 13.3333 6.33336C13.3333 5.69092 13.105 5.14155 12.6485 4.68492C12.1919 4.22827 11.6424 4 11 4C10.3576 4 9.80815 4.22827 9.3515 4.6849C8.89493 5.14148 8.66664 5.69091 8.66664 6.33334V7.99998H8.49999C8.36115 7.99998 8.24306 8.04864 8.14583 8.14578C8.0486 8.24292 8 8.36104 8 8.49994V11.5C8 11.6389 8.04862 11.757 8.14583 11.8542C8.24306 11.9513 8.36115 12 8.49999 12H13.4999C13.6388 12 13.757 11.9513 13.8541 11.8542C13.9512 11.757 13.9999 11.6389 13.9999 11.5V8.49996C14 8.36106 13.9514 8.24306 13.8541 8.1458Z" fill="white"/>
</svg>
