<svg width="14" height="14" viewBox="0 0 14 14" fill="none" xmlns="http://www.w3.org/2000/svg">
  <path d="M5.84554 7.00254L10.3347 2.51317C10.4583 2.38986 10.5263 2.22498 10.5263 2.04917C10.5263 1.87327 10.4583 1.70849 10.3347 1.58498L9.94135 1.19181C9.81793 1.0681 9.65296 1 9.47715 1C9.30135 1 9.13657 1.0681 9.01305 1.19181L3.66798 6.53678C3.54398 6.66068 3.47608 6.82624 3.47656 7.00224C3.47608 7.17903 3.54388 7.34439 3.66798 7.46839L9.00808 12.8082C9.13159 12.9319 9.29637 13 9.47227 13C9.64808 13 9.81286 12.9319 9.93647 12.8082L10.3297 12.415C10.5856 12.1591 10.5856 11.7425 10.3297 11.4867L5.84554 7.00254Z" fill="white" fill-opacity="0.46"/>
</svg>
