<svg width="1440" height="1879" viewBox="0 0 1440 1879" fill="none" xmlns="http://www.w3.org/2000/svg">
  <g filter="url(#filter0_d)">
    <path d="M0 181.08L217.401 44.4351C262.639 16.001 317.374 6.85108 369.401 19.0255L1438 269.082V1614.94L1128.12 1829.79C1082.83 1861.2 1026.58 1872.52 972.668 1861.08L0 1654.8V181.08Z" fill="url(#paint0_linear)"/>
  </g>
  <path d="M131 1094C131 1080.19 142.193 1069 156 1069H1285C1298.81 1069 1310 1080.19 1310 1094V1727.86C1310 1741.44 1299.16 1752.54 1285.58 1752.85L764.688 1764.92C762.473 1764.97 760.262 1764.73 758.112 1764.2L150.004 1613.97C138.842 1611.21 131 1601.2 131 1589.7L131 1094Z" fill="url(#paint1_linear)" fill-opacity="0.1"/>
  <path d="M74 1308C74 1294.19 85.1929 1283 99 1283H1338C1351.81 1283 1363 1294.19 1363 1308V1750.23C1363 1763.89 1352.04 1775.02 1338.38 1775.22L765.375 1783.97C763.903 1783.99 762.433 1783.88 760.98 1783.64L94.9863 1675.32C82.8874 1673.35 74 1662.9 74 1650.64L74 1308Z" fill="url(#paint2_linear)" fill-opacity="0.1"/>
  <g opacity="0.2" filter="url(#filter1_f)">
    <ellipse rx="90.054" ry="48.2229" transform="matrix(1 0.00117563 0.00115151 1 1117.3 1456.65)" fill="#52D8E0"/>
  </g>
  <g opacity="0.2" filter="url(#filter2_f)">
    <ellipse rx="90.054" ry="48.2229" transform="matrix(1 0.00117562 0.00115149 1 862.594 1756.54)" fill="#52D8E0"/>
  </g>
  <g opacity="0.1" filter="url(#filter3_f)">
    <ellipse rx="128.498" ry="118.202" transform="matrix(1 0.00119986 0.00117474 1 846.856 1479.34)" fill="#52D8E0"/>
  </g>
  <g opacity="0.1" filter="url(#filter4_f)">
    <ellipse rx="242.939" ry="223.474" transform="matrix(1 0.00119982 0.00117471 1 981.514 1555.03)" fill="#52D8E0"/>
  </g>
  <path d="M1024.14 1503.73C1024.38 1503.73 1024.61 1503.67 1024.81 1503.56L1086.31 1468.09C1086.59 1467.9 1086.79 1467.61 1086.87 1467.28C1086.95 1466.95 1086.89 1466.6 1086.73 1466.3C1086.56 1466.01 1086.28 1465.79 1085.96 1465.68C1085.63 1465.58 1085.28 1465.61 1084.97 1465.75L1023.46 1501.22C1023.15 1501.4 1022.93 1501.69 1022.84 1502.04C1022.74 1502.38 1022.79 1502.75 1022.97 1503.06C1023.09 1503.27 1023.26 1503.44 1023.47 1503.55C1023.67 1503.67 1023.91 1503.73 1024.14 1503.73Z" fill="#0E2187" stroke="url(#paint3_linear)"/>
  <path d="M1136.76 1584.72C1137.01 1584.72 1137.26 1584.65 1137.48 1584.51L1244.01 1522.58C1244.23 1522.45 1244.42 1522.26 1244.54 1522.04C1244.67 1521.82 1244.74 1521.57 1244.74 1521.31C1244.73 1521.06 1244.66 1520.8 1244.53 1520.58C1244.39 1520.36 1244.2 1520.18 1243.98 1520.06L1146.21 1466.91C1145.88 1466.71 1145.48 1466.66 1145.1 1466.76C1144.73 1466.87 1144.41 1467.11 1144.22 1467.45C1144.02 1467.79 1143.97 1468.19 1144.08 1468.56C1144.18 1468.94 1144.43 1469.26 1144.76 1469.45L1240.37 1521.36L1136.06 1582.01C1135.78 1582.17 1135.57 1582.42 1135.45 1582.72C1135.33 1583.01 1135.31 1583.34 1135.4 1583.65C1135.48 1583.95 1135.67 1584.23 1135.92 1584.42C1136.17 1584.61 1136.48 1584.72 1136.8 1584.72L1136.76 1584.72Z" fill="#0E2187" stroke="url(#paint4_linear)"/>
  <path d="M1006.82 1399.7L891.36 1466.33C888.207 1468.14 885.646 1466.21 885.641 1461.96L885.565 1397.18C885.56 1392.96 888.113 1388.08 891.266 1386.25L1006.72 1319.67C1009.88 1317.85 1012.44 1319.79 1012.44 1324.03L1012.52 1388.78C1012.5 1392.99 1009.97 1397.88 1006.82 1399.7Z" fill="url(#paint5_linear)"/>
  <path d="M902.428 1654.1L1066.43 1558.32C1067.01 1557.98 1067.49 1557.49 1067.82 1556.9C1068.16 1556.32 1068.33 1555.65 1068.33 1554.97C1068.33 1554.29 1068.15 1553.62 1067.82 1553.03C1067.48 1552.44 1067 1551.95 1066.42 1551.61L964.375 1491.86L963.574 1491.39L791.8 1591.71C791.221 1592.05 790.74 1592.54 790.405 1593.13C790.071 1593.72 789.896 1594.38 789.896 1595.06C789.897 1595.74 790.074 1596.41 790.41 1597C790.745 1597.58 791.228 1598.07 791.808 1598.41L886.873 1654.08C889.24 1655.47 891.923 1656.2 894.653 1656.2C897.382 1656.2 900.063 1655.48 902.428 1654.1ZM1064.89 1554.41C1064.99 1554.47 1065.06 1554.55 1065.12 1554.65C1065.17 1554.74 1065.2 1554.85 1065.2 1554.96C1065.2 1555.08 1065.17 1555.18 1065.12 1555.28C1065.06 1555.38 1064.99 1555.46 1064.9 1555.52L900.754 1651.3C898.876 1652.39 896.747 1652.97 894.579 1652.97C892.41 1652.96 890.279 1652.38 888.4 1651.29L793.335 1595.61C793.242 1595.56 793.165 1595.48 793.112 1595.38C793.058 1595.28 793.03 1595.18 793.03 1595.07C793.03 1594.95 793.058 1594.85 793.111 1594.75C793.164 1594.66 793.241 1594.57 793.334 1594.52L963.508 1495.17L1064.89 1554.41Z" fill="#0E2187" stroke="url(#paint6_linear)"/>
  <path d="M967.581 1449.81L943.791 1309.24L945.695 1308.45L942.785 1306.8C942.441 1306.61 942.052 1306.53 941.664 1306.56C941.275 1306.59 940.903 1306.73 940.59 1306.96L751.511 1416.04C750.717 1416.55 750.073 1417.27 749.642 1418.11C749.212 1418.95 749.011 1419.89 749.059 1420.84L773.098 1562.52C773.126 1562.83 773.233 1563.13 773.409 1563.38C773.585 1563.64 773.824 1563.84 774.103 1563.98L776.911 1565.6L777.388 1562.98L777.228 1562.98L965.188 1454.56C965.97 1454.05 966.602 1453.34 967.023 1452.51C967.443 1451.67 967.636 1450.74 967.581 1449.81Z" fill="url(#paint7_linear)"/>
  <path d="M752.616 1420L749.494 1418.62C749.144 1419.34 749.004 1420.15 749.089 1420.96L773.178 1562.75C773.206 1563.06 773.313 1563.35 773.489 1563.61C773.666 1563.86 773.906 1564.07 774.186 1564.2L777.001 1565.82L777.479 1563.2L777.319 1563.2L786.863 1557.71L752.616 1420Z" fill="url(#paint8_linear)"/>
  <path d="M968.153 1456.39L779.032 1565.45C777.579 1566.3 776.328 1565.81 776.123 1564.3L752.099 1422.63C752.042 1421.68 752.239 1420.73 752.67 1419.89C753.101 1419.04 753.75 1418.33 754.55 1417.82L943.599 1308.67C945.052 1307.83 946.302 1308.33 946.508 1309.84L970.605 1451.51C970.672 1452.47 970.48 1453.43 970.048 1454.29C969.617 1455.15 968.963 1455.88 968.153 1456.39Z" fill="#101357"/>
  <g opacity="0.51">
    <path opacity="0.51" d="M941.137 1317.78L758.808 1422.82L781.636 1556.21L963.834 1451.24L941.137 1317.78Z" fill="#453C9E"/>
  </g>
  <path d="M1086.83 1523.61L1076.5 1528.99L972.966 1469.12C971.896 1468.63 970.727 1468.4 969.554 1468.45C968.381 1468.5 967.236 1468.82 966.211 1469.38L787.855 1572.22C786.139 1571.26 778.348 1567.52 778.348 1567.52L782.137 1577.36C782.341 1577.86 782.717 1578.28 783.199 1578.54L892.23 1641.58C893.3 1642.07 894.468 1642.3 895.641 1642.25C896.814 1642.21 897.96 1641.88 898.985 1641.32L1081.54 1536.07C1082.19 1535.71 1082.7 1535.14 1082.99 1534.45L1086.83 1523.61Z" fill="url(#paint9_linear)"/>
  <path d="M1085.24 1525.27L898.184 1633.13C897.134 1633.71 895.962 1634.04 894.762 1634.09C893.561 1634.14 892.366 1633.9 891.269 1633.41L779.488 1568.79C777.714 1567.75 777.93 1565.97 779.977 1564.79L967.032 1456.93C968.085 1456.35 969.259 1456.02 970.462 1455.97C971.665 1455.93 972.863 1456.16 973.962 1456.65L1085.73 1521.28C1087.5 1522.31 1087.29 1524.1 1085.24 1525.27Z" fill="#8874D5"/>
  <path d="M1085.17 1524.32L898.156 1632.07C897.106 1632.65 895.934 1632.98 894.733 1633.02C893.532 1633.07 892.336 1632.83 891.243 1632.33L779.495 1567.78C778.998 1567.53 778.613 1567.1 778.418 1566.58C778.278 1567.03 778.311 1567.51 778.511 1567.93C778.71 1568.36 779.062 1568.69 779.496 1568.87L891.244 1633.42C892.34 1633.92 893.536 1634.15 894.736 1634.1C895.936 1634.05 897.107 1633.72 898.157 1633.14L1085.17 1525.39C1086.62 1524.61 1087.07 1523.54 1086.75 1522.61C1086.44 1523.35 1085.88 1523.96 1085.17 1524.32Z" fill="url(#paint10_linear)"/>
  <path d="M841.693 1609.93L841.691 1607.87C841.69 1607.68 841.807 1607.59 841.952 1607.68L849.225 1611.86C849.306 1611.92 849.373 1611.99 849.421 1612.08C849.469 1612.17 849.497 1612.27 849.502 1612.37L849.504 1614.42C849.504 1614.62 849.374 1614.71 849.228 1614.62L841.955 1610.44C841.876 1610.38 841.811 1610.3 841.766 1610.22C841.72 1610.13 841.695 1610.03 841.693 1609.93Z" fill="#2842A2"/>
  <path d="M852.516 1616.2L852.514 1614.14C852.514 1613.94 852.63 1613.85 852.775 1613.94L860.048 1618.14C860.129 1618.19 860.195 1618.27 860.241 1618.35C860.286 1618.44 860.31 1618.54 860.31 1618.63L860.313 1620.7C860.313 1620.89 860.197 1620.97 860.051 1620.89L852.779 1616.7C852.699 1616.64 852.634 1616.57 852.589 1616.48C852.543 1616.39 852.519 1616.29 852.516 1616.2Z" fill="#2842A2"/>
  <path d="M808.632 1562.77L964.066 1473.15C964.574 1472.85 965.153 1472.7 965.744 1472.7C966.334 1472.7 966.914 1472.86 967.422 1473.16L1022.84 1505.27C1023.02 1505.38 1023.17 1505.53 1023.28 1505.71C1023.38 1505.89 1023.44 1506.1 1023.44 1506.31C1023.44 1506.51 1023.38 1506.72 1023.28 1506.9C1023.17 1507.08 1023.02 1507.23 1022.84 1507.34L867.496 1596.91C866.988 1597.21 866.409 1597.37 865.818 1597.37C865.228 1597.37 864.648 1597.21 864.14 1596.91L808.649 1564.88C808.456 1564.78 808.295 1564.63 808.181 1564.44C808.068 1564.26 808.007 1564.05 808.006 1563.83C808.004 1563.61 808.061 1563.4 808.171 1563.21C808.282 1563.03 808.441 1562.87 808.632 1562.77Z" fill="#101357" fill-opacity="0.55"/>
  <path d="M808.672 1564.78L809.224 1565.12L964.08 1475.86C964.591 1475.56 965.169 1475.41 965.758 1475.41C966.346 1475.41 966.925 1475.57 967.436 1475.86L1022.29 1507.63L1022.84 1507.31C1023.02 1507.21 1023.17 1507.06 1023.28 1506.88C1023.38 1506.7 1023.44 1506.49 1023.44 1506.28C1023.44 1506.08 1023.38 1505.87 1023.28 1505.69C1023.17 1505.51 1023.02 1505.36 1022.84 1505.25L967.375 1473.16C966.866 1472.86 966.286 1472.7 965.697 1472.7C965.107 1472.7 964.528 1472.86 964.019 1473.16L808.612 1562.72C808.434 1562.83 808.288 1562.98 808.188 1563.17C808.089 1563.35 808.04 1563.56 808.046 1563.77C808.052 1563.98 808.113 1564.18 808.223 1564.36C808.333 1564.54 808.488 1564.68 808.672 1564.78Z" fill="#9198DB"/>
  <path d="M971.637 1481.25L836.615 1559.11L830.611 1555.63L965.633 1477.78L971.637 1481.25Z" fill="#101357"/>
  <path d="M986.359 1489.78L859.715 1562.79L853.711 1559.31L980.355 1486.3L986.359 1489.78Z" fill="#101357"/>
  <path d="M995.957 1495.35L846.838 1581.33L840.82 1577.85L989.938 1491.87L995.957 1495.35Z" fill="#101357"/>
  <path d="M1005.54 1500.89L856.417 1586.87L850.412 1583.39L999.517 1497.41L1005.54 1500.89Z" fill="#101357"/>
  <path d="M1015.12 1506.44L866.013 1592.42L859.994 1588.94L1009.11 1502.98L1015.12 1506.44Z" fill="#101357"/>
  <path d="M828.481 1564L822.47 1567.46L816.451 1563.98L822.462 1560.53L828.481 1564Z" fill="#101357"/>
  <path d="M849.652 1568.8L837.196 1575.98L831.177 1572.5L843.648 1565.32L849.652 1568.8Z" fill="#101357"/>
  <path d="M970.103 1584.69L1012.02 1560.52C1012.37 1560.4 1012.68 1560.16 1012.9 1559.86C1013.12 1559.55 1013.23 1559.18 1013.23 1558.81C1013.23 1558.43 1013.11 1558.06 1012.9 1557.76C1012.68 1557.45 1012.37 1557.22 1012.01 1557.09L983.345 1540.51C982.429 1540.04 981.412 1539.79 980.381 1539.79C979.35 1539.79 978.334 1540.03 977.418 1540.5L935.431 1564.66C935.075 1564.78 934.767 1565.01 934.55 1565.32C934.332 1565.63 934.215 1565.99 934.216 1566.37C934.216 1566.75 934.334 1567.11 934.552 1567.42C934.771 1567.73 935.079 1567.96 935.435 1568.09L964.132 1584.68C965.057 1585.16 966.081 1585.41 967.119 1585.41C968.157 1585.41 969.18 1585.16 970.103 1584.69Z" fill="url(#paint11_linear)"/>
  <path d="M935.455 1566.03L977.402 1541.89C978.32 1541.43 979.334 1541.19 980.364 1541.19C981.394 1541.19 982.409 1541.43 983.328 1541.9L1012.02 1558.47C1012.45 1558.7 1012.81 1559.05 1013.05 1559.48C1013.48 1558.65 1013.15 1557.72 1012.01 1557.07L983.355 1540.5C982.439 1540.03 981.422 1539.78 980.392 1539.78C979.361 1539.78 978.345 1540.03 977.429 1540.5L935.453 1564.63C934.321 1565.28 934.003 1566.21 934.425 1567.03C934.664 1566.61 935.022 1566.26 935.455 1566.03Z" fill="#9198DB"/>
  <mask id="mask0" style="mask-type:alpha" maskUnits="userSpaceOnUse" x="758" y="1317" width="206" height="240">
    <path opacity="0.51" d="M941.142 1317.69L758.869 1422.86L781.626 1556.3L963.768 1451.2L941.142 1317.69Z" fill="#13155B"/>
  </mask>
  <g mask="url(#mask0)">
    <path opacity="0.11" d="M967.374 1456.64L780.325 1564.59C779.277 1565.18 778.105 1565.51 776.903 1565.56C775.702 1565.61 774.505 1565.37 773.411 1564.87L661.666 1500.25C659.893 1499.23 660.124 1497.44 662.171 1496.25L849.206 1388.3C850.256 1387.71 851.431 1387.38 852.635 1387.33C853.838 1387.28 855.038 1387.52 856.134 1388.02L967.865 1452.64C969.638 1453.66 969.421 1455.45 967.374 1456.64Z" fill="url(#paint12_linear)"/>
    <path opacity="0.11" d="M779.732 1475.83L821.646 1451.66C822.001 1451.53 822.309 1451.3 822.527 1450.99C822.744 1450.69 822.861 1450.32 822.861 1449.94C822.861 1449.56 822.743 1449.2 822.525 1448.89C822.307 1448.58 821.998 1448.35 821.643 1448.23L792.954 1431.57C792.033 1431.1 791.015 1430.86 789.983 1430.86C788.951 1430.86 787.934 1431.1 787.013 1431.56L745.1 1455.76C744.745 1455.88 744.437 1456.11 744.219 1456.42C744.001 1456.73 743.885 1457.09 743.885 1457.47C743.885 1457.85 744.003 1458.22 744.221 1458.52C744.439 1458.83 744.748 1459.06 745.103 1459.19L773.791 1475.77C774.706 1476.25 775.722 1476.51 776.756 1476.52C777.789 1476.53 778.809 1476.3 779.732 1475.83Z" fill="url(#paint13_linear)"/>
    <path opacity="0.11" d="M745.121 1457.19L787.026 1433.01C787.944 1432.54 788.962 1432.3 789.995 1432.3C791.028 1432.3 792.047 1432.55 792.966 1433.02L821.647 1449.6C822.075 1449.84 822.431 1450.19 822.679 1450.62C823.099 1449.79 822.779 1448.86 821.646 1448.21L792.965 1431.57C792.043 1431.1 791.026 1430.86 789.994 1430.86C788.962 1430.85 787.945 1431.1 787.025 1431.56L745.12 1455.73C743.988 1456.39 743.669 1457.31 744.091 1458.14C744.339 1457.73 744.695 1457.4 745.121 1457.19Z" fill="#9198DB"/>
    <path opacity="0.11" d="M726.66 1513.66L882.104 1423.95C882.612 1423.66 883.188 1423.51 883.774 1423.51C884.361 1423.51 884.937 1423.66 885.445 1423.96L940.86 1456.07C941.041 1456.18 941.191 1456.33 941.296 1456.51C941.401 1456.69 941.456 1456.9 941.456 1457.11C941.456 1457.32 941.401 1457.52 941.297 1457.7C941.193 1457.88 941.043 1458.03 940.862 1458.14L785.519 1547.81C785.012 1548.11 784.436 1548.26 783.849 1548.26C783.263 1548.26 782.686 1548.1 782.178 1547.81L726.691 1515.78C726.498 1515.68 726.336 1515.53 726.222 1515.34C726.108 1515.16 726.047 1514.95 726.043 1514.73C726.04 1514.51 726.096 1514.3 726.204 1514.11C726.313 1513.92 726.47 1513.76 726.66 1513.66Z" fill="#ADB1F2"/>
    <path opacity="0.11" d="M726.691 1515.69L727.244 1516.01L882.115 1426.65C882.622 1426.36 883.198 1426.2 883.785 1426.2C884.372 1426.2 884.949 1426.36 885.456 1426.65L940.295 1458.43L940.861 1458.11C941.042 1458.01 941.192 1457.86 941.296 1457.68C941.401 1457.5 941.455 1457.29 941.455 1457.08C941.455 1456.87 941.4 1456.67 941.295 1456.49C941.191 1456.31 941.04 1456.16 940.859 1456.05L885.453 1423.95C884.945 1423.66 884.369 1423.5 883.783 1423.5C883.196 1423.5 882.62 1423.66 882.113 1423.95L726.69 1513.61C726.509 1513.72 726.359 1513.87 726.256 1514.05C726.152 1514.23 726.097 1514.44 726.097 1514.65C726.097 1514.86 726.152 1515.07 726.257 1515.25C726.361 1515.43 726.511 1515.58 726.691 1515.69Z" fill="#9198DB"/>
    <path opacity="0.11" d="M926.333 1453.86L790.923 1532.02L796.286 1535.13L931.71 1456.98L926.333 1453.86Z" fill="#070F4B"/>
    <path opacity="0.11" d="M912.067 1445.6L783.365 1519.88L788.728 1522.99L917.444 1448.7L912.067 1445.6Z" fill="#070F4B"/>
    <path opacity="0.11" d="M773.757 1525.59L761.736 1532.52L767.099 1535.63L779.12 1528.69L773.757 1525.59Z" fill="#070F4B"/>
    <path opacity="0.11" d="M784.372 1535.95L776.009 1540.78L781.372 1543.88L789.749 1539.05L784.372 1535.95Z" fill="#070F4B"/>
    <path opacity="0.11" d="M903.129 1440.43L752.796 1527.2L758.173 1530.3L908.507 1443.55L903.129 1440.43Z" fill="#070F4B"/>
    <path opacity="0.11" d="M894.199 1435.27L743.851 1522.02L749.228 1525.14L899.561 1438.37L894.199 1435.27Z" fill="#070F4B"/>
    <path opacity="0.11" d="M885.257 1430.08L734.924 1516.85L740.286 1519.95L890.62 1433.2L885.257 1430.08Z" fill="#070F4B"/>
  </g>
  <path d="M775.859 1430.85L772.255 1433.16L771.83 1430.48L775.419 1428.19L775.859 1430.85Z" fill="#2EFFEC"/>
  <path d="M778.814 1448.93L775.205 1451.24L772.638 1435.59L776.233 1433.3L778.814 1448.93Z" fill="#2EFFEC"/>
  <path d="M780.222 1457.58L776.616 1459.89L775.605 1453.68L779.196 1451.38L780.222 1457.58Z" fill="#2EFFEC"/>
  <path d="M781.671 1466.56L778.08 1468.85L777.054 1462.65L780.66 1460.34L781.671 1466.56Z" fill="#2EFFEC"/>
  <path d="M782.628 1436.07L779.037 1438.38L778.011 1432.16L781.603 1429.87L782.628 1436.07Z" fill="#2EFFEC"/>
  <path d="M784.561 1447.95L780.969 1450.24L779.459 1441.13L783.066 1438.82L784.561 1447.95Z" fill="#2EFFEC"/>
  <path d="M786.345 1458.88L782.738 1461.18L781.463 1453.35L785.055 1451.05L786.345 1458.88Z" fill="#2EFFEC"/>
  <path d="M783.132 1475.53L779.526 1477.82L778.515 1471.61L782.106 1469.31L783.132 1475.53Z" fill="#2EFFEC"/>
  <path d="M781.218 1427.42L777.614 1429.73L777.175 1427.05L780.779 1424.76L781.218 1427.42Z" fill="#2EFFEC"/>
  <path d="M787.226 1482.5L780.95 1486.51L780.526 1483.92L786.801 1479.91L787.226 1482.5Z" fill="#2EFFEC"/>
  <path d="M1008.89 1682.5L1154.97 1598.29C1155.5 1598.01 1155.95 1597.6 1156.27 1597.09C1156.59 1596.57 1156.76 1595.99 1156.76 1595.38C1156.71 1594.68 1156.48 1594.01 1156.08 1593.43C1155.69 1592.85 1155.14 1592.38 1154.51 1592.08L1124.17 1574.58C1122.99 1573.92 1121.67 1573.55 1120.32 1573.5C1118.97 1573.46 1117.63 1573.73 1116.41 1574.31L970.265 1658.51C969.728 1658.78 969.275 1659.2 968.956 1659.71C968.636 1660.22 968.463 1660.81 968.453 1661.41C968.508 1662.11 968.747 1662.79 969.145 1663.37C969.544 1663.95 970.088 1664.41 970.723 1664.71L1001.14 1682.23C1002.47 1682.96 1003.97 1683.34 1005.5 1683.32C1006.68 1683.34 1007.85 1683.06 1008.89 1682.5ZM1122.72 1577.05L1153.07 1594.62C1153.77 1595.03 1153.92 1595.38 1153.92 1595.45C1153.92 1595.53 1153.83 1595.64 1153.54 1595.82L1007.47 1680.03C1006.68 1680.35 1005.83 1680.5 1004.98 1680.45C1004.13 1680.41 1003.3 1680.17 1002.56 1679.76L972.158 1662.19C971.475 1661.78 971.329 1661.43 971.329 1661.36C971.329 1661.29 971.416 1661.17 971.706 1661L1117.78 1576.78C1118.4 1576.46 1119.1 1576.31 1119.8 1576.34C1120.81 1576.32 1121.82 1576.57 1122.72 1577.05Z" fill="#0E2187" stroke="white"/>
  <path d="M1095.54 1525.61C1091.51 1528.02 1087.9 1531.07 1084.84 1534.64C1080.34 1520.19 1066.63 1515.71 1050.43 1525.04C1037.01 1532.78 1025.41 1548.05 1019.21 1564.13C1016.82 1564.27 1014.5 1565 1012.46 1566.25C1003.75 1571.29 996.645 1583.58 996.656 1593.68C996.657 1593.9 996.657 1594.09 996.657 1594.31C993.764 1594.59 990.973 1595.52 988.493 1597.03C977.31 1603.49 968.26 1619.19 968.276 1632.12C968.291 1645.04 977.365 1650.28 988.548 1643.77L1095.58 1582.04C1109.12 1574.32 1120.04 1555.44 1120.02 1539.77C1120 1524.09 1109.05 1517.83 1095.54 1525.61Z" fill="url(#paint14_linear)"/>
  <path d="M1095.54 1525.61C1093.25 1526.96 1091.1 1528.54 1089.12 1530.32L1077.12 1523.37C1070.53 1518.73 1061 1518.92 1050.41 1525.03C1037 1532.78 1025.39 1548.06 1019.19 1564.13C1016.8 1564.27 1014.49 1565 1012.45 1566.26C1003.74 1571.3 996.629 1583.59 996.641 1593.69C996.642 1593.91 996.642 1594.1 996.642 1594.32C993.749 1594.6 990.957 1595.53 988.477 1597.04C977.293 1603.5 968.242 1619.21 968.257 1632.13C968.265 1638.54 970.508 1643.05 974.086 1645.23L974.188 1645.23L1003.55 1662.3L1009.93 1631.47L1095.55 1582.14C1109.12 1574.33 1120.04 1555.44 1120.02 1539.77C1120 1524.09 1109.05 1517.83 1095.54 1525.61Z" fill="url(#paint15_radial)"/>
  <path d="M1142.7 1541.31L1112.94 1524C1108.49 1521.35 1102.33 1521.68 1095.51 1525.61C1093.21 1526.96 1091.06 1528.54 1089.09 1530.33L1077.09 1523.38C1070.5 1518.73 1060.97 1518.93 1050.38 1525.03C1036.99 1532.78 1025.38 1548.06 1019.18 1564.13C1016.79 1564.27 1014.48 1565 1012.44 1566.26C1003.73 1571.29 996.624 1583.58 996.635 1593.69C996.636 1593.9 996.636 1594.09 996.636 1594.31C993.743 1594.59 990.952 1595.52 988.472 1597.03C977.29 1603.49 968.24 1619.19 968.255 1632.12C968.263 1638.53 970.506 1643.04 974.083 1645.21L974.185 1645.21L1003.55 1662.28L1009.92 1631.45L1095.53 1582.13C1106.54 1575.78 1115.78 1562.15 1118.89 1548.9L1142.7 1541.31Z" fill="url(#paint16_linear)"/>
  <path d="M1124.94 1542.73C1120.91 1545.14 1117.29 1548.18 1114.24 1551.75C1109.73 1537.32 1096.02 1532.83 1079.83 1542.17C1066.44 1549.89 1054.77 1565.11 1048.6 1581.24C1046.21 1581.39 1043.9 1582.12 1041.86 1583.37C1033.15 1588.42 1026.04 1600.69 1026.05 1610.8C1026.05 1611.01 1026.05 1611.22 1026.05 1611.44C1023.16 1611.7 1020.37 1612.63 1017.9 1614.14C1006.7 1620.6 997.582 1636.3 997.598 1649.23C997.613 1662.15 1006.69 1667.41 1017.96 1660.88L1125 1599.23C1138.51 1591.45 1149.43 1572.49 1149.41 1556.88C1149.4 1541.27 1138.44 1534.94 1124.94 1542.73Z" fill="url(#paint17_linear)"/>
  <path d="M1115.23 1552.18C1118.28 1548.61 1121.9 1545.56 1125.93 1543.16C1132.52 1539.36 1138.5 1538.93 1142.91 1541.31C1138.45 1538.29 1132.05 1538.48 1124.94 1542.58C1121.14 1544.83 1117.71 1547.65 1114.78 1550.96C1114.96 1551.37 1115.1 1551.76 1115.23 1552.18Z" fill="url(#paint18_linear)"/>
  <path d="M998.695 1649.82C998.68 1636.89 1007.73 1621.17 1018.92 1614.72C1021.4 1613.21 1024.18 1612.28 1027.07 1612C1027.07 1611.78 1027.07 1611.59 1027.07 1611.37C1027.06 1601.26 1034.14 1588.97 1042.89 1583.93C1044.93 1582.68 1047.25 1581.94 1049.64 1581.8C1055.8 1565.67 1067.48 1550.44 1080.88 1542.71C1090.68 1537.06 1099.56 1536.47 1106.06 1540.09C1099.49 1535.83 1090.2 1536.17 1079.9 1542.12C1066.5 1549.84 1054.83 1565.07 1048.66 1581.21C1046.27 1581.35 1043.95 1582.08 1041.91 1583.34C1033.19 1588.39 1026.09 1600.67 1026.1 1610.78C1026.1 1610.99 1026.1 1611.2 1026.1 1611.42C1023.2 1611.68 1020.41 1612.61 1017.93 1614.12C1006.74 1620.58 997.691 1636.29 997.706 1649.22C997.714 1655.87 1000.12 1660.48 1003.97 1662.52C1000.7 1660.29 998.702 1655.91 998.695 1649.82Z" fill="#BCBEFF"/>
  <path d="M915.925 1717.04L913.322 1715.28L986.482 1671.28L987.952 1673.74L915.925 1717.04Z" fill="#0E2187" stroke="white"/>
  <path d="M808.225 1715.53C808.544 1715.53 808.853 1715.42 809.104 1715.22C809.355 1715.02 809.533 1714.75 809.612 1714.44C809.692 1714.13 809.666 1713.8 809.541 1713.51C809.416 1713.22 809.197 1712.97 808.919 1712.81L746.525 1678.89L836.797 1626.42C837.113 1626.22 838.997 1624.79 839.086 1624.43C839.174 1624.07 838.196 1624.29 838.008 1623.96C837.82 1623.64 836.973 1623.31 836.613 1623.2C836.253 1623.1 835.673 1623.73 835.341 1623.9L742.832 1677.68C742.611 1677.81 742.429 1678 742.304 1678.22C742.179 1678.44 742.116 1678.7 742.121 1678.96C742.126 1679.21 742.199 1679.46 742.332 1679.68C742.465 1679.9 742.653 1680.08 742.879 1680.21L807.541 1715.36C807.751 1715.47 807.986 1715.53 808.225 1715.53Z" fill="#0E2187" stroke="url(#paint19_linear)"/>
  <path d="M947.654 1356.39L879.788 1395.58C876.634 1397.39 874.08 1402.29 874.085 1406.5L874.161 1471.29C874.166 1475.5 876.728 1477.44 879.881 1475.66L960.042 1429.35L947.654 1356.39Z" fill="#101357"/>
  <path d="M1010.64 1319.48L1007.33 1317.11C1006.72 1316.7 1006.01 1316.5 1005.28 1316.51C1004.56 1316.53 1003.85 1316.77 1003.27 1317.2L887.826 1383.79C884.674 1385.6 882.106 1390.5 882.111 1394.71L882.187 1459.48C882.101 1460.33 882.223 1461.18 882.543 1461.97C882.864 1462.76 883.372 1463.46 884.024 1464.01L887.458 1466.47L887.644 1463.95L887.935 1463.82L1003.36 1397.24C1006.53 1395.41 1009.08 1390.52 1009.08 1386.31L1009 1321.53C1009 1320.96 1008.94 1320.39 1008.83 1319.83L1010.64 1319.48Z" fill="url(#paint20_linear)"/>
  <path d="M882.485 1392.21L913.017 1409.84L920.684 1405.49L886.081 1385.37C884.292 1387.29 883.051 1389.65 882.485 1392.21Z" fill="url(#paint21_linear)"/>
  <path d="M1006.82 1399.7L891.36 1466.33C888.207 1468.14 885.646 1466.21 885.641 1461.96L885.565 1397.18C885.56 1392.96 888.113 1388.08 891.266 1386.25L1006.72 1319.67C1009.88 1317.85 1012.44 1319.79 1012.44 1324.03L1012.52 1388.78C1012.5 1392.99 1009.97 1397.88 1006.82 1399.7Z" fill="#8E7ADB"/>
  <path d="M886.27 1462.3L886.194 1397.5C886.189 1393.3 888.742 1388.4 891.895 1386.59L1007.36 1320C1007.84 1319.69 1008.4 1319.49 1008.97 1319.42C1009.55 1319.34 1010.13 1319.4 1010.68 1319.58C1010.08 1319.22 1009.39 1319.04 1008.68 1319.06C1007.98 1319.09 1007.3 1319.33 1006.73 1319.74L891.269 1386.33C888.117 1388.16 885.564 1393.04 885.569 1397.26L885.645 1461.96C885.647 1464.51 886.595 1466.22 888.035 1466.78C887.407 1466.22 886.919 1465.53 886.613 1464.75C886.306 1463.97 886.188 1463.13 886.27 1462.3Z" fill="url(#paint22_linear)"/>
  <path d="M996.066 1358.82L901.895 1413.09C901.169 1413.51 900.545 1413.74 900.122 1413.09C900.122 1412.98 900.122 1412.82 900.122 1412.69L900.105 1398.45C900.105 1397.88 900.235 1397.33 900.487 1396.82C900.739 1396.32 901.104 1395.88 901.555 1395.54L996.437 1340.83C996.51 1340.83 996.583 1340.71 996.655 1340.73C997.367 1340.85 997.397 1341.5 997.398 1342.52L997.647 1356.22C997.615 1356.75 997.454 1357.27 997.178 1357.72C996.903 1358.17 996.521 1358.55 996.066 1358.82Z" fill="#5031B0"/>
  <path d="M996.265 1390.03L901.876 1444.35C901.15 1444.77 900.206 1445.2 900.074 1444.35C900.06 1444.22 900.06 1444.08 900.074 1443.95L900.057 1429.68C900.054 1429.12 900.184 1428.56 900.436 1428.05C900.687 1427.55 901.054 1427.11 901.507 1426.77L996.433 1372.06L996.651 1371.96C997.392 1371.68 997.582 1372.61 997.583 1373.63L997.599 1387.18C997.614 1387.73 997.501 1388.27 997.27 1388.76C997.038 1389.26 996.694 1389.69 996.265 1390.03Z" fill="#5031B0"/>
  <path d="M996.713 1340.73C996.721 1340.86 996.721 1340.99 996.714 1341.12L996.73 1355.43C996.731 1355.99 996.6 1356.55 996.349 1357.05C996.097 1357.55 995.732 1357.99 995.281 1358.33L900.369 1413.07L900.151 1413.18C900.283 1414 900.893 1414.34 901.605 1413.92L996.459 1359.16C996.912 1358.83 997.28 1358.39 997.532 1357.88C997.783 1357.38 997.913 1356.82 997.908 1356.26L997.892 1341.98C997.992 1340.96 997.44 1340.45 996.713 1340.73Z" fill="url(#paint23_linear)"/>
  <path d="M996.713 1371.96C996.722 1372.09 996.722 1372.22 996.714 1372.35L996.73 1386.65C996.731 1387.22 996.6 1387.77 996.349 1388.28C996.097 1388.78 995.732 1389.22 995.281 1389.56L900.369 1444.3C900.302 1444.34 900.228 1444.37 900.151 1444.39C900.283 1445.23 900.893 1445.56 901.605 1445.14L996.459 1390.39C996.91 1390.05 997.277 1389.61 997.528 1389.11C997.78 1388.6 997.91 1388.05 997.908 1387.48L997.892 1373.19C997.992 1372.19 997.44 1371.68 996.713 1371.96Z" fill="url(#paint24_linear)"/>
  <path d="M927.22 1391.91L928.386 1394.11L930.593 1391.33L928.905 1389.6L931.417 1387.04L930.6 1384.92L928.335 1387.71L928.637 1384.39L925.847 1385.99L926.141 1388.9L923.872 1388.75L923.033 1391.81L925.519 1391.49L923.851 1395.24L926.018 1395.47L927.22 1391.91Z" fill="url(#paint25_linear)"/>
  <path d="M938.124 1385.59L939.29 1387.8L941.497 1385.03L939.823 1383.3L942.335 1380.74L941.518 1378.61L939.253 1381.39L939.555 1378.07L936.779 1379.67L937.073 1382.58L934.805 1382.43L933.965 1385.5L936.437 1385.17L934.783 1388.86L936.921 1389.15L938.124 1385.59Z" fill="url(#paint26_linear)"/>
  <path d="M949.022 1379.29L950.188 1381.49L952.395 1378.71L950.721 1376.98L953.234 1374.42L952.402 1372.3L950.137 1375.07L950.439 1371.76L947.663 1373.35L947.957 1376.26L945.616 1376.2L944.776 1379.26L947.248 1378.94L945.624 1382.6L947.805 1382.84L949.022 1379.29Z" fill="url(#paint27_linear)"/>
  <path d="M959.927 1372.97L961.092 1375.16L963.299 1372.39L961.596 1370.65L964.109 1368.1L963.277 1365.97L961.012 1368.76L961.314 1365.43L958.538 1367.04L958.832 1369.95L956.564 1369.82L955.724 1372.87L958.21 1372.56L956.542 1376.23L958.724 1376.47L959.927 1372.97Z" fill="url(#paint28_linear)"/>
  <path d="M970.846 1366.65L972.011 1368.85L974.218 1366.09L972.53 1364.34L975.042 1361.78L974.225 1359.67L971.96 1362.45L972.262 1359.13L969.472 1360.73L969.766 1363.64L967.497 1363.49L966.658 1366.54L969.144 1366.23L967.49 1369.92L969.657 1370.16L970.846 1366.65Z" fill="url(#paint29_linear)"/>
  <path d="M927.217 1423.14L928.382 1425.34L930.589 1422.57L928.901 1420.83L931.413 1418.28L930.596 1416.15L928.331 1418.94L928.633 1415.61L925.843 1417.22L926.137 1420.13L923.868 1420L923.029 1423.05L925.515 1422.79L923.847 1426.47L926.014 1426.71L927.217 1423.14Z" fill="url(#paint30_linear)"/>
  <path d="M938.128 1416.83L939.294 1419.04L941.501 1416.27L939.826 1414.53L942.339 1411.96L941.522 1409.85L939.243 1412.61L939.544 1409.3L936.769 1410.9L937.063 1413.8L934.794 1413.66L933.955 1416.71L936.426 1416.39L934.773 1420.09L936.94 1420.32L938.128 1416.83Z" fill="url(#paint31_linear)"/>
  <path d="M949.026 1410.52L950.192 1412.72L952.399 1409.95L950.725 1408.24L953.237 1405.69L952.406 1403.56L950.141 1406.34L950.443 1403.02L947.667 1404.62L947.961 1407.53L945.693 1407.39L944.853 1410.45L947.325 1410.13L945.628 1413.84L947.809 1414.07L949.026 1410.52Z" fill="url(#paint32_linear)"/>
  <path d="M959.926 1404.21L961.092 1406.4L963.299 1403.63L961.596 1401.89L964.109 1399.34L963.277 1397.21L961.012 1400L961.314 1396.67L958.538 1398.28L958.832 1401.19L956.564 1401.06L955.724 1404.11L958.239 1403.87L956.571 1407.55L958.753 1407.78L959.926 1404.21Z" fill="url(#paint33_linear)"/>
  <path d="M970.842 1397.88L972.008 1400.08L974.214 1397.31L972.526 1395.57L975.038 1393.02L974.221 1390.89L971.956 1393.68L972.258 1390.35L969.468 1391.96L969.762 1394.87L967.494 1394.72L966.654 1397.78L969.14 1397.46L967.487 1401.15L969.653 1401.39L970.842 1397.88Z" fill="url(#paint34_linear)"/>
  <g style="mix-blend-mode:lighten" opacity="0.1">
    <path d="M926.902 1651.79L941.309 1660.12L955.697 1651.82L941.29 1643.49L926.902 1651.79Z" fill="#4846A5"/>
  </g>
  <g style="mix-blend-mode:lighten" opacity="0.1">
    <path d="M990.832 1430.62L1005.24 1438.95L1019.63 1430.66L1005.22 1422.33L990.832 1430.62Z" fill="#4846A5"/>
  </g>
  <g style="mix-blend-mode:lighten" opacity="0.1">
    <path d="M1168.21 1517.62L1182.61 1525.95L1197 1517.65L1182.59 1509.31L1168.21 1517.62Z" fill="#4846A5"/>
  </g>
  <path d="M1116.6 1485.68C1117.06 1485.68 1117.51 1485.56 1117.91 1485.33L1178.54 1450.37C1178.94 1450.14 1179.27 1449.81 1179.5 1449.41C1179.73 1449.01 1179.86 1448.56 1179.86 1448.09C1179.85 1447.63 1179.73 1447.18 1179.49 1446.78C1179.26 1446.38 1178.93 1446.04 1178.53 1445.81L1117.83 1410.71C1117.43 1410.48 1116.98 1410.36 1116.51 1410.36C1116.05 1410.36 1115.59 1410.48 1115.19 1410.71L1054.57 1445.66C1054.17 1445.89 1053.84 1446.23 1053.61 1446.63C1053.38 1447.03 1053.26 1447.48 1053.26 1447.94C1053.26 1448.41 1053.38 1448.86 1053.61 1449.26C1053.84 1449.66 1054.18 1450 1054.58 1450.23L1115.28 1485.33C1115.68 1485.56 1116.14 1485.68 1116.6 1485.68ZM1176.7 1447.97L1116.6 1482.63L1056.41 1447.83L1116.52 1413.18L1176.7 1447.97Z" fill="#0E2187" stroke="#DFF8F9"/>
  <path d="M1062.06 1436.67L1061.76 1425.66L1117.2 1454.43L1171.01 1422.97L1171.31 1433.98L1117.53 1466.84L1062.06 1436.67Z" fill="url(#paint35_linear)"/>
  <path d="M1117.26 1455.79L1171.05 1422.9L1115.55 1392.7L1061.77 1425.59L1117.26 1455.79Z" fill="url(#paint36_linear)"/>
  <path opacity="0.5" d="M1116.57 1454.91L1170.39 1423.92L1171.18 1424.37L1116.58 1455.81L1061.91 1424.25L1062.69 1423.8L1116.57 1454.91Z" fill="url(#paint37_linear)"/>
  <path d="M1116.58 1443.75L1150.34 1424.28L1116.53 1404.74L1082.76 1424.2L1116.58 1443.75Z" fill="#0F054C"/>
  <path d="M1116.57 1443.75L1150.34 1424.28L1116.53 1404.74L1082.76 1424.2L1116.57 1443.75Z" fill="url(#paint38_linear)"/>
  <path d="M1082.63 1423.16L1082.54 1343.64L1150.53 1343.01L1150.62 1422.7C1150.64 1423.11 1150.54 1423.51 1150.34 1423.87C1150.14 1424.23 1149.84 1424.52 1149.47 1424.72L1121.33 1441.02C1120.06 1441.72 1117.6 1443.58 1116.65 1444.05C1115.21 1443.1 1113.26 1441.71 1111.99 1441L1083.81 1425.31C1083.42 1425.09 1083.11 1424.78 1082.9 1424.4C1082.69 1424.02 1082.6 1423.59 1082.63 1423.16Z" fill="url(#paint39_linear)"/>
  <path opacity="0.4" d="M803.116 1747.6L802.27 1731.22L805.196 1729.39C806.31 1734.46 812.534 1737.53 817.623 1737.97L853.083 1756.26L868.4 1760.88L915.081 1733.74L913.955 1733.17C917.938 1731.04 919.923 1726.57 921.928 1722.47L925.258 1724.21L927.206 1724.67L928.066 1741.32C928.006 1742.58 927.615 1743.81 926.931 1744.88C926.247 1745.95 925.294 1746.83 924.167 1747.42L877.542 1777.53C874.463 1779.3 871.01 1780.31 867.464 1780.49C863.918 1780.68 860.38 1780.02 857.135 1778.59L807.655 1753.43C806.486 1752.98 805.455 1752.23 804.663 1751.26C803.87 1750.28 803.342 1749.13 803.131 1747.89L803.116 1747.6Z" fill="#2EFFEC"/>
  <path d="M802.349 1732.78L801.78 1721.76L804.704 1719.91C805.824 1725.08 812.049 1728.19 817.139 1728.64L852.616 1747.24L867.937 1751.95L914.598 1724.42L913.472 1723.83C917.453 1721.68 919.435 1717.14 921.436 1712.97L924.767 1714.75L926.715 1715.21L927.298 1726.5C927.24 1727.78 926.849 1729.03 926.166 1730.12C925.483 1731.2 924.531 1732.09 923.404 1732.69L876.802 1763.25C873.724 1765.04 870.273 1766.06 866.727 1766.25C863.181 1766.43 859.642 1765.77 856.396 1764.3L806.893 1738.71C805.723 1738.24 804.692 1737.48 803.898 1736.49C803.105 1735.5 802.576 1734.33 802.364 1733.07L802.349 1732.78Z" fill="url(#paint40_linear)"/>
  <path opacity="0.3" d="M817.135 1728.56L852.608 1747.21L865.946 1751.31L866.718 1766.25C863.17 1766.51 859.613 1765.84 856.389 1764.31L806.892 1738.65C805.723 1738.18 804.691 1737.42 803.898 1736.43C803.104 1735.44 802.576 1734.26 802.363 1733L802.348 1732.71L801.778 1721.66L804.442 1719.97L804.734 1719.95C805.946 1725.03 812.095 1728.1 817.135 1728.56Z" fill="#0F054C"/>
  <path d="M876.211 1751.9L922.822 1721.58C928.267 1718.06 927.994 1712.77 922.215 1709.81L872.734 1684.59C869.486 1683.16 865.949 1682.51 862.406 1682.7C858.862 1682.88 855.411 1683.89 852.328 1685.64L805.71 1715.85C800.241 1719.37 800.514 1724.66 806.318 1727.62L855.805 1752.96C859.052 1754.39 862.589 1755.03 866.133 1754.85C869.676 1754.67 873.128 1753.66 876.211 1751.9ZM859.471 1689.53C860.458 1688.97 861.564 1688.65 862.698 1688.59C863.833 1688.53 864.965 1688.74 866.005 1689.19L915.486 1714.41C915.882 1714.54 916.232 1714.78 916.487 1715.1C916.741 1715.43 916.89 1715.82 916.911 1716.24C916.932 1716.65 916.826 1717.06 916.606 1717.41C916.386 1717.76 916.063 1718.04 915.682 1718.2L869.063 1748.38C868.075 1748.94 866.97 1749.27 865.835 1749.32C864.701 1749.38 863.568 1749.18 862.528 1748.72L813.047 1723.5C812.651 1723.38 812.302 1723.14 812.047 1722.81C811.792 1722.49 811.644 1722.09 811.622 1721.68C811.601 1721.26 811.707 1720.85 811.927 1720.5C812.147 1720.15 812.47 1719.88 812.852 1719.72L859.471 1689.53Z" fill="url(#paint41_linear)"/>
  <path d="M806.346 1728L855.864 1753.6C859.113 1755.04 862.652 1755.69 866.197 1755.51C869.741 1755.33 873.194 1754.31 876.277 1752.54L922.893 1721.95C923.911 1721.4 924.79 1720.63 925.464 1719.68C926.137 1718.74 926.586 1717.65 926.777 1716.5C926.916 1717.9 926.624 1719.3 925.942 1720.52C925.259 1721.74 924.219 1722.72 922.963 1723.33L876.34 1753.77C873.261 1755.55 869.808 1756.57 866.261 1756.75C862.714 1756.94 859.174 1756.27 855.927 1754.82L806.416 1729.35C803.187 1727.7 801.677 1725.34 801.894 1722.95C802.206 1724.08 802.769 1725.12 803.54 1725.99C804.312 1726.87 805.272 1727.56 806.346 1728Z" fill="url(#paint42_linear)"/>
  <path d="M874.928 1751.3L921.464 1720.95C926.179 1717.87 925.947 1713.38 920.935 1710.7L871.519 1685.31C868.701 1684.06 865.629 1683.49 862.551 1683.65C859.473 1683.81 856.476 1684.69 853.802 1686.23L807.071 1716.59C802.357 1719.67 802.588 1724.16 807.601 1726.83L857.113 1752.22C859.945 1753.49 863.035 1754.07 866.131 1753.91C869.228 1753.75 872.242 1752.85 874.928 1751.3ZM858.162 1688.55C859.558 1687.74 861.124 1687.27 862.734 1687.19C864.344 1687.11 865.95 1687.41 867.422 1688.07L916.832 1713.36C917.402 1713.52 917.908 1713.86 918.278 1714.32C918.649 1714.78 918.864 1715.35 918.895 1715.95C918.926 1716.54 918.77 1717.13 918.449 1717.63C918.129 1718.13 917.66 1718.51 917.109 1718.73L870.476 1749.08C869.08 1749.89 867.513 1750.36 865.904 1750.44C864.294 1750.52 862.687 1750.22 861.216 1749.56L811.703 1724.18C811.133 1724.02 810.627 1723.68 810.257 1723.22C809.887 1722.75 809.671 1722.18 809.64 1721.59C809.61 1721 809.766 1720.41 810.086 1719.91C810.406 1719.41 810.875 1719.02 811.426 1718.81L858.162 1688.55Z" fill="url(#paint43_linear)"/>
  <path d="M810.331 1721.75L803.554 1590.55L909.551 1585.08L916.342 1716.55C916.407 1717.22 916.287 1717.9 915.996 1718.51C915.705 1719.11 915.254 1719.63 914.692 1719.99L871.531 1748.05C869.582 1749.31 867.341 1750.04 865.028 1750.16C862.715 1750.28 860.411 1749.78 858.343 1748.73L812.378 1725.19C811.751 1724.87 811.226 1724.38 810.864 1723.77C810.502 1723.16 810.317 1722.46 810.331 1721.75Z" fill="url(#paint44_linear)"/>
  <path d="M1084.15 1466.32L1080.63 1469.14L1080.83 1470.47L1085.81 1467.8L1084.15 1466.32Z" fill="#0E2187"/>
  <path d="M1149.9 1469.47L1146.65 1467.56L1144.61 1468.72L1150.02 1471.56L1149.9 1469.47Z" fill="#0E2187"/>
  <path d="M852.971 1703.55C852.863 1703.49 852.792 1703.38 852.785 1703.26L852.668 1701.17C852.662 1701.05 852.72 1700.93 852.821 1700.86L854.056 1700.05C854.076 1700.31 854.224 1700.51 854.43 1700.62L853.359 1701.33L853.454 1703.02L854.972 1703.79L856.396 1702.86L856.301 1701.16L855.158 1700.58C855.351 1700.45 855.477 1700.23 855.466 1699.98L856.784 1700.64C856.891 1700.7 856.963 1700.81 856.969 1700.93L857.086 1703.02C857.093 1703.14 857.035 1703.26 856.934 1703.32L855.18 1704.47C855.079 1704.54 854.947 1704.55 854.839 1704.49L852.971 1703.55Z" fill="#EAF9FF"/>
  <path d="M841.804 1688.82L842.03 1692.86C841.926 1692.81 841.808 1692.78 841.684 1692.79C841.56 1692.8 841.447 1692.84 841.348 1692.9L841.122 1688.86L841.111 1688.67C841.105 1688.54 841.163 1688.43 841.264 1688.36L841.428 1688.25L845.164 1685.81L845.328 1685.7C845.429 1685.63 845.561 1685.62 845.669 1685.68L845.843 1685.77L849.847 1687.79L849.809 1687.81L849.7 1687.88C849.599 1687.95 849.54 1688.07 849.547 1688.19L849.558 1688.38L849.559 1688.41L845.538 1686.38C845.538 1686.38 841.804 1688.82 841.804 1688.82Z" fill="#EAF9FF"/>
  <path d="M841.394 1694.12L838.274 1696.16L838.378 1698.02C838.384 1698.14 838.326 1698.26 838.225 1698.32L836.471 1699.47C836.37 1699.54 836.238 1699.55 836.13 1699.49L834.259 1698.55C834.152 1698.49 834.08 1698.38 834.074 1698.26L833.957 1696.17C833.95 1696.05 834.008 1695.93 834.109 1695.86L835.863 1694.72C835.964 1694.65 836.096 1694.64 836.204 1694.7L837.929 1695.57L841.02 1693.54C841.037 1693.8 841.184 1694.01 841.394 1694.12ZM836.071 1695.4L834.647 1696.33L834.742 1698.02L836.261 1698.79L837.684 1697.86L837.608 1696.49C837.514 1696.47 837.429 1696.42 837.373 1696.34C837.311 1696.25 837.308 1696.13 837.345 1696.04L836.071 1695.4Z" fill="#EAF9FF"/>
  <path d="M846 1701.16L842.618 1703.37L842.454 1703.48C842.296 1703.58 842.085 1703.54 841.982 1703.38C841.88 1703.22 841.925 1703.01 842.08 1702.91L842.481 1702.65L845.629 1700.59C845.643 1700.84 845.79 1701.05 846 1701.16Z" fill="#EAF9FF"/>
  <path d="M846.293 1699.82C846.183 1699.83 846.083 1699.86 845.992 1699.91C845.981 1699.92 845.968 1699.93 845.957 1699.93L845.731 1695.9L842.123 1694.08C842.316 1693.94 842.442 1693.72 842.431 1693.47L844.046 1694.28L846.039 1695.29L849.776 1692.84C849.776 1692.8 849.788 1692.76 849.805 1692.72L849.812 1692.84L849.817 1692.94L849.823 1693.04C849.827 1693.11 849.853 1693.17 849.896 1693.23C849.902 1693.24 849.908 1693.24 849.914 1693.25C849.941 1693.28 849.971 1693.31 850.009 1693.32L850.102 1693.37L850.166 1693.4L850.184 1693.42L846.45 1695.86L846.677 1699.92C846.665 1699.91 846.65 1699.9 846.639 1699.9C846.534 1699.85 846.417 1699.82 846.293 1699.82Z" fill="#EAF9FF"/>
  <path d="M850.491 1692.81L852.484 1693.81L850.491 1692.81Z" fill="#EAF9FF"/>
  <path d="M854.163 1695.43L854.338 1695.52C854.387 1695.54 854.441 1695.55 854.495 1695.55C854.509 1695.55 854.523 1695.55 854.54 1695.55C854.579 1695.54 854.618 1695.53 854.654 1695.51C854.662 1695.5 854.673 1695.5 854.682 1695.5L854.848 1695.39L855.07 1699.36C854.966 1699.31 854.848 1699.29 854.724 1699.29C854.6 1699.3 854.487 1699.34 854.388 1699.4L854.166 1695.43L854.163 1695.43Z" fill="#EAF9FF"/>
  <path d="M840.513 1720.61L840.27 1716.26L838.576 1715.41C838.469 1715.35 838.397 1715.24 838.391 1715.12L838.274 1713.03C838.267 1712.91 838.325 1712.79 838.426 1712.73L840.013 1711.69L839.771 1707.36L839.757 1707.1C839.746 1706.91 839.882 1706.76 840.062 1706.74C840.067 1706.74 840.073 1706.74 840.079 1706.74C840.084 1706.74 840.09 1706.74 840.096 1706.74C840.277 1706.74 840.428 1706.88 840.439 1707.06L840.453 1707.32L840.695 1711.65L842.389 1712.5C842.496 1712.56 842.568 1712.67 842.574 1712.79L842.691 1714.88C842.698 1715 842.64 1715.12 842.539 1715.19L840.952 1716.23L841.195 1720.57L841.017 1720.48C840.909 1720.43 840.777 1720.43 840.676 1720.5L840.513 1720.61ZM842.001 1714.72L841.906 1713.03L840.402 1712.26C840.379 1712.27 838.967 1713.19 838.967 1713.19L839.062 1714.89L840.58 1715.65L842.001 1714.72Z" fill="#EAF9FF"/>
  <path d="M853.581 1685.02L853.364 1681.14L851.67 1680.29C851.562 1680.23 851.491 1680.12 851.485 1680L851.368 1677.91C851.361 1677.79 851.419 1677.67 851.52 1677.6L853.274 1676.46C853.375 1676.39 853.507 1676.38 853.615 1676.44L855.486 1677.38C855.594 1677.44 855.665 1677.55 855.671 1677.67L855.788 1679.76C855.795 1679.88 855.737 1680 855.636 1680.07L854.048 1681.1L854.269 1685.04C854.152 1684.97 854.017 1684.94 853.873 1684.95C853.766 1684.95 853.669 1684.98 853.581 1685.02ZM855.096 1679.6L855.001 1677.91L853.482 1677.14L852.058 1678.07L852.153 1679.77L853.657 1680.53C853.685 1680.53 855.096 1679.6 855.096 1679.6Z" fill="#EAF9FF"/>
  <path d="M845.677 1685.68C845.569 1685.62 845.436 1685.63 845.336 1685.7L845.172 1685.81L844.923 1681.35L840.94 1679.34L837.207 1681.78L837.456 1686.24L841.439 1688.25L841.275 1688.36C841.174 1688.42 841.116 1688.54 841.122 1688.66L841.133 1688.86L836.973 1686.76C836.866 1686.7 836.794 1686.59 836.788 1686.47L836.516 1681.62C836.51 1681.5 836.568 1681.39 836.669 1681.32L840.732 1678.66C840.833 1678.59 840.966 1678.58 841.073 1678.64L845.408 1680.83C845.516 1680.88 845.587 1680.99 845.594 1681.11L845.854 1685.77L845.677 1685.68Z" fill="#EAF9FF"/>
  <path d="M841.809 1688.82L845.543 1686.38C845.543 1686.38 841.809 1688.82 841.809 1688.82Z" fill="#EAF9FF"/>
  <path d="M837.719 1681.85L840.793 1679.84C840.951 1679.74 841.163 1679.78 841.265 1679.94C841.299 1679.99 841.317 1680.05 841.32 1680.1C841.326 1680.22 841.271 1680.34 841.167 1680.41L838.093 1682.42C837.935 1682.52 837.723 1682.48 837.621 1682.32C837.516 1682.16 837.561 1681.95 837.719 1681.85Z" fill="#EAF9FF"/>
  <path d="M841.109 1687.65C841.007 1687.49 841.049 1687.28 841.207 1687.18L844.281 1685.16C844.44 1685.06 844.651 1685.1 844.753 1685.26C844.787 1685.31 844.805 1685.37 844.808 1685.43C844.814 1685.55 844.759 1685.67 844.652 1685.73L841.579 1687.75C841.423 1687.85 841.212 1687.81 841.109 1687.65Z" fill="#EAF9FF"/>
  <path d="M837.99 1705.69L840.07 1706.74C839.89 1706.76 839.754 1706.91 839.765 1707.09L839.78 1707.36L837.504 1706.21C837.397 1706.16 837.325 1706.05 837.319 1705.92L837.165 1703.18C837.158 1703.06 837.217 1702.94 837.318 1702.88L839.614 1701.37C839.715 1701.31 839.848 1701.3 839.955 1701.36L842.405 1702.59C842.434 1702.61 842.458 1702.62 842.482 1702.64L842.081 1702.91C841.923 1703.01 841.878 1703.22 841.983 1703.38C842.085 1703.54 842.297 1703.58 842.455 1703.48L842.618 1703.37L842.744 1705.62C842.751 1705.74 842.692 1705.86 842.592 1705.92L840.459 1707.32L840.444 1707.05C840.434 1706.87 840.282 1706.73 840.101 1706.73L842.051 1705.46L841.92 1703.11L839.822 1702.05L837.855 1703.34L837.987 1705.69L837.99 1705.69Z" fill="#EAF9FF"/>
  <path d="M857.804 1691.83C857.838 1691.88 857.856 1691.94 857.859 1692C857.865 1692.12 857.81 1692.23 857.706 1692.3L854.632 1694.31C854.474 1694.42 854.262 1694.38 854.16 1694.22C854.058 1694.06 854.1 1693.85 854.258 1693.74L857.332 1691.73C857.487 1691.63 857.699 1691.67 857.804 1691.83Z" fill="#EAF9FF"/>
  <path d="M851.175 1692.71C850.986 1692.72 850.825 1692.58 850.814 1692.39L850.609 1688.72C850.599 1688.53 850.742 1688.37 850.931 1688.36C851.12 1688.35 851.281 1688.49 851.291 1688.68L851.497 1692.35C851.507 1692.54 851.363 1692.7 851.175 1692.71Z" fill="#EAF9FF"/>
  <path d="M854.169 1695.43L850.186 1693.41L850.168 1693.4L850.104 1693.37L850.011 1693.32C849.973 1693.3 849.943 1693.28 849.916 1693.25C849.91 1693.24 849.904 1693.23 849.898 1693.22C849.88 1693.2 849.864 1693.17 849.851 1693.14C849.842 1693.12 849.84 1693.1 849.833 1693.08C849.83 1693.07 849.827 1693.06 849.826 1693.05C849.823 1693.04 849.817 1692.93 849.817 1692.93L849.812 1692.84L849.805 1692.72L849.564 1688.41L849.562 1688.38L849.551 1688.19C849.545 1688.07 849.603 1687.95 849.704 1687.88L849.813 1687.81L849.851 1687.79L853.211 1685.59C853.231 1685.34 853.375 1685.13 853.584 1685.02C853.671 1684.97 853.769 1684.95 853.873 1684.94C854.017 1684.93 854.152 1684.97 854.268 1685.03C854.423 1685.12 854.542 1685.27 854.591 1685.45L858.44 1687.4C858.548 1687.45 858.622 1687.56 858.629 1687.68L858.9 1692.53C858.907 1692.65 858.848 1692.77 858.745 1692.84L854.845 1695.39L854.678 1695.5C854.67 1695.5 854.659 1695.5 854.651 1695.51C854.615 1695.52 854.576 1695.54 854.537 1695.54C854.523 1695.54 854.509 1695.55 854.492 1695.55C854.438 1695.55 854.384 1695.54 854.335 1695.52L854.169 1695.43ZM858.213 1692.37L857.964 1687.92L854.432 1686.13C854.312 1686.26 854.147 1686.34 853.958 1686.35C853.789 1686.36 853.63 1686.31 853.503 1686.22L850.247 1688.35L850.497 1692.8L852.489 1693.81L854.482 1694.81L858.213 1692.37Z" fill="#EAF9FF"/>
  <path d="M840.878 1723.91L839.619 1723.27C839.511 1723.21 839.44 1723.11 839.433 1722.98L839.354 1721.57C839.347 1721.45 839.406 1721.34 839.507 1721.27L840.524 1720.6L840.688 1720.5C840.788 1720.43 840.921 1720.42 841.029 1720.48L841.206 1720.57L842.291 1721.11C842.399 1721.17 842.473 1721.28 842.48 1721.4L842.559 1722.81C842.566 1722.93 842.507 1723.05 842.403 1723.11L841.222 1723.89C841.116 1723.95 840.986 1723.96 840.878 1723.91ZM841.86 1722.65L841.803 1721.64L840.907 1721.18C840.884 1721.18 840.044 1721.73 840.044 1721.73L840.101 1722.75L841.009 1723.21L841.86 1722.65Z" fill="#EAF9FF"/>
  <path d="M845.631 1700.58C845.615 1700.3 845.749 1700.07 845.959 1699.94C845.97 1699.93 845.981 1699.92 845.995 1699.91C846.085 1699.86 846.185 1699.83 846.295 1699.83C846.419 1699.82 846.537 1699.85 846.642 1699.9C846.653 1699.9 846.668 1699.91 846.679 1699.91C846.883 1700.03 847.028 1700.24 847.042 1700.49C847.064 1700.89 846.766 1701.22 846.375 1701.24C846.242 1701.25 846.116 1701.22 846.005 1701.16C845.798 1701.04 845.651 1700.83 845.631 1700.58Z" fill="#EAF9FF"/>
  <path d="M842.437 1693.45C842.446 1693.72 842.32 1693.94 842.127 1694.08C842.023 1694.15 841.902 1694.19 841.769 1694.2C841.637 1694.21 841.51 1694.18 841.4 1694.12C841.193 1694.01 841.043 1693.8 841.026 1693.55C841.007 1693.27 841.144 1693.03 841.354 1692.9C841.452 1692.83 841.566 1692.79 841.69 1692.79C841.814 1692.78 841.931 1692.81 842.036 1692.86C842.26 1692.97 842.422 1693.19 842.437 1693.45Z" fill="#EAF9FF"/>
  <path d="M854.065 1700.05C854.049 1699.77 854.183 1699.53 854.393 1699.4C854.491 1699.34 854.605 1699.3 854.729 1699.29C854.853 1699.28 854.97 1699.31 855.075 1699.36C855.299 1699.47 855.461 1699.69 855.476 1699.96C855.485 1700.22 855.359 1700.45 855.166 1700.58C855.062 1700.65 854.941 1700.7 854.808 1700.71C854.676 1700.71 854.549 1700.68 854.439 1700.62C854.232 1700.51 854.084 1700.3 854.065 1700.05Z" fill="#EAF9FF"/>
  <path d="M875.034 1682.21C875.214 1682.3 875.333 1682.48 875.344 1682.67L875.534 1686.06C875.545 1686.25 875.446 1686.44 875.277 1686.55L873.202 1687.86C873.17 1687.46 872.923 1687.12 872.576 1686.94L874.377 1685.8L874.223 1683.05L871.678 1681.82L869.287 1683.33L869.441 1686.08L871.357 1687.01C871.032 1687.22 870.82 1687.59 870.838 1687.99L868.629 1686.92C868.449 1686.83 868.33 1686.66 868.319 1686.46L868.13 1683.08C868.119 1682.88 868.217 1682.69 868.386 1682.58L871.332 1680.72C871.501 1680.61 871.723 1680.59 871.904 1680.69L875.034 1682.21Z" fill="#EAF9FF"/>
  <path d="M893.718 1706L893.352 1699.47C893.528 1699.55 893.724 1699.6 893.932 1699.59C894.14 1699.57 894.331 1699.51 894.496 1699.41L894.862 1705.94L894.88 1706.26C894.891 1706.46 894.792 1706.64 894.623 1706.75L894.348 1706.93L888.074 1710.9L887.799 1711.08C887.63 1711.19 887.407 1711.2 887.227 1711.11L886.934 1710.96L880.227 1707.71L880.291 1707.67L880.474 1707.55C880.644 1707.44 880.742 1707.25 880.731 1707.06L880.714 1706.75L880.711 1706.7L887.448 1709.98C887.448 1709.97 893.718 1706 893.718 1706Z" fill="#EAF9FF"/>
  <path d="M894.42 1697.43L899.659 1694.12L899.491 1691.11C899.48 1690.91 899.578 1690.72 899.748 1690.61L902.693 1688.75C902.862 1688.64 903.084 1688.63 903.265 1688.72L906.399 1690.24C906.579 1690.33 906.698 1690.51 906.709 1690.7L906.899 1694.09C906.91 1694.29 906.811 1694.47 906.642 1694.58L903.697 1696.45C903.528 1696.56 903.305 1696.57 903.125 1696.48L900.234 1695.08L895.045 1698.36C895.018 1697.95 894.771 1697.61 894.42 1697.43ZM903.351 1695.35L905.742 1693.83L905.588 1691.09L903.043 1689.85L900.653 1691.36L900.777 1693.59C900.935 1693.61 901.077 1693.69 901.17 1693.82C901.273 1693.97 901.278 1694.16 901.216 1694.31L903.351 1695.35Z" fill="#EAF9FF"/>
  <path d="M886.719 1686.05L892.399 1682.45L892.674 1682.28C892.94 1682.11 893.294 1682.18 893.465 1682.43C893.636 1682.69 893.56 1683.03 893.299 1683.2L892.626 1683.63L887.34 1686.97C887.317 1686.56 887.071 1686.23 886.719 1686.05Z" fill="#EAF9FF"/>
  <path d="M886.229 1688.21C886.413 1688.2 886.581 1688.14 886.733 1688.07C886.751 1688.06 886.774 1688.04 886.792 1688.03L887.158 1694.56L893.203 1697.5C892.878 1697.72 892.666 1698.08 892.684 1698.49L889.978 1697.17L886.639 1695.55L880.365 1699.52C880.364 1699.59 880.344 1699.66 880.314 1699.72L880.303 1699.52L880.295 1699.37L880.285 1699.2C880.279 1699.09 880.235 1698.99 880.164 1698.9C880.154 1698.89 880.144 1698.88 880.134 1698.87C880.088 1698.82 880.038 1698.77 879.975 1698.75L879.819 1698.67L879.712 1698.61L879.682 1698.6L885.952 1694.63L885.585 1688.06C885.605 1688.07 885.629 1688.08 885.648 1688.09C885.823 1688.17 886.021 1688.22 886.229 1688.21Z" fill="#EAF9FF"/>
  <path d="M879.164 1699.59L875.824 1697.97L879.164 1699.59Z" fill="#EAF9FF"/>
  <path d="M873.009 1695.35L872.716 1695.21C872.633 1695.17 872.542 1695.16 872.452 1695.16C872.429 1695.16 872.405 1695.16 872.377 1695.17C872.311 1695.17 872.246 1695.2 872.186 1695.23C872.172 1695.23 872.153 1695.23 872.139 1695.24L871.86 1695.42L871.5 1688.99C871.675 1689.07 871.872 1689.11 872.08 1689.1C872.288 1689.09 872.479 1689.02 872.644 1688.92L873.004 1695.36L873.009 1695.35Z" fill="#EAF9FF"/>
  <path d="M895.988 1654.54L896.381 1661.58L899.218 1662.95C899.399 1663.05 899.518 1663.22 899.529 1663.42L899.718 1666.8C899.729 1667 899.63 1667.19 899.461 1667.3L896.796 1668.98L897.187 1675.99L897.211 1676.42C897.228 1676.71 897 1676.96 896.698 1676.99C896.689 1676.99 896.68 1677 896.67 1677C896.661 1677 896.651 1677 896.641 1677C896.338 1677 896.084 1676.78 896.067 1676.48L896.043 1676.05L895.652 1669.05L892.814 1667.67C892.634 1667.58 892.515 1667.4 892.504 1667.21L892.315 1663.82C892.304 1663.63 892.402 1663.44 892.572 1663.33L895.237 1661.64L894.844 1654.61L895.141 1654.75C895.321 1654.84 895.544 1654.83 895.713 1654.72L895.988 1654.54ZM893.472 1664.08L893.625 1666.82L896.146 1668.05C896.184 1668.05 898.556 1666.55 898.556 1666.55L898.402 1663.8L895.858 1662.57L893.472 1664.08Z" fill="#EAF9FF"/>
  <path d="M873.95 1712.19L874.302 1718.48L877.139 1719.85C877.319 1719.94 877.438 1720.12 877.449 1720.32L877.638 1723.7C877.649 1723.9 877.551 1724.09 877.382 1724.2L874.437 1726.06C874.267 1726.17 874.045 1726.18 873.865 1726.09L870.73 1724.57C870.55 1724.48 870.431 1724.3 870.42 1724.11L870.231 1720.72C870.22 1720.52 870.318 1720.34 870.487 1720.23L873.153 1718.54L872.797 1712.17C872.992 1712.28 873.218 1712.34 873.459 1712.32C873.639 1712.32 873.803 1712.27 873.95 1712.19ZM871.392 1720.97L871.546 1723.72L874.09 1724.95L876.481 1723.44L876.327 1720.7L873.807 1719.47C873.76 1719.48 871.392 1720.97 871.392 1720.97Z" fill="#EAF9FF"/>
  <path d="M887.224 1711.11C887.405 1711.2 887.627 1711.19 887.796 1711.08L888.071 1710.9L888.475 1718.11L895.148 1721.36L901.418 1717.39L901.014 1710.18L894.341 1706.94L894.616 1706.76C894.785 1706.65 894.884 1706.46 894.873 1706.26L894.855 1705.95L901.825 1709.33C902.006 1709.42 902.125 1709.6 902.136 1709.79L902.575 1717.65C902.586 1717.84 902.488 1718.03 902.318 1718.14L895.494 1722.46C895.325 1722.57 895.103 1722.58 894.922 1722.49L887.659 1718.96C887.478 1718.87 887.359 1718.69 887.348 1718.5L886.927 1710.97L887.224 1711.11Z" fill="#EAF9FF"/>
  <path d="M893.711 1706.01L887.44 1709.98C887.44 1709.98 893.711 1706.01 893.711 1706.01Z" fill="#EAF9FF"/>
  <path d="M900.55 1717.28L895.388 1720.55C895.122 1720.72 894.767 1720.65 894.597 1720.39C894.54 1720.31 894.511 1720.22 894.506 1720.12C894.495 1719.93 894.589 1719.74 894.763 1719.63L899.925 1716.36C900.191 1716.19 900.545 1716.26 900.716 1716.52C900.892 1716.77 900.816 1717.12 900.55 1717.28Z" fill="#EAF9FF"/>
  <path d="M894.892 1707.91C895.063 1708.16 894.992 1708.5 894.726 1708.67L889.564 1711.94C889.298 1712.1 888.943 1712.04 888.773 1711.78C888.716 1711.7 888.687 1711.6 888.682 1711.51C888.671 1711.32 888.764 1711.13 888.943 1711.02L894.105 1707.75C894.366 1707.58 894.721 1707.65 894.892 1707.91Z" fill="#EAF9FF"/>
  <path d="M900.175 1678.69L896.689 1677C896.991 1676.96 897.219 1676.72 897.202 1676.42L897.178 1675.99L900.99 1677.84C901.171 1677.93 901.29 1678.11 901.301 1678.31L901.549 1682.74C901.56 1682.94 901.461 1683.13 901.292 1683.24L897.436 1685.68C897.266 1685.79 897.044 1685.8 896.864 1685.71L892.759 1683.72C892.71 1683.69 892.671 1683.67 892.631 1683.63L893.304 1683.21C893.57 1683.04 893.646 1682.7 893.47 1682.44C893.3 1682.19 892.945 1682.11 892.679 1682.28L892.404 1682.46L892.201 1678.82C892.19 1678.62 892.288 1678.43 892.458 1678.32L896.039 1676.06L896.063 1676.49C896.08 1676.79 896.334 1677 896.637 1677.01L893.363 1679.08L893.575 1682.88L897.09 1684.59L900.392 1682.5L900.179 1678.69L900.175 1678.69Z" fill="#EAF9FF"/>
  <path d="M866.913 1701.19C866.856 1701.11 866.827 1701.01 866.822 1700.92C866.811 1700.73 866.905 1700.54 867.079 1700.43L872.241 1697.16C872.507 1696.99 872.862 1697.06 873.033 1697.31C873.203 1697.57 873.132 1697.91 872.867 1698.08L867.704 1701.35C867.444 1701.52 867.089 1701.45 866.913 1701.19Z" fill="#EAF9FF"/>
  <path d="M878.025 1699.74C878.342 1699.73 878.611 1699.96 878.628 1700.26L878.96 1706.2C878.978 1706.51 878.736 1706.77 878.419 1706.79C878.103 1706.81 877.833 1706.57 877.816 1706.27L877.484 1700.33C877.467 1700.02 877.708 1699.76 878.025 1699.74Z" fill="#EAF9FF"/>
  <path d="M873.008 1695.36L879.682 1698.61L879.711 1698.62L879.818 1698.68L879.975 1698.76C880.038 1698.78 880.088 1698.83 880.133 1698.87C880.143 1698.89 880.153 1698.9 880.163 1698.91C880.194 1698.95 880.22 1698.99 880.242 1699.04C880.258 1699.07 880.26 1699.11 880.271 1699.15C880.277 1699.16 880.283 1699.18 880.284 1699.2C880.289 1699.21 880.299 1699.38 880.299 1699.38L880.307 1699.53L880.319 1699.73L880.709 1706.71L880.711 1706.75L880.728 1707.06C880.739 1707.26 880.641 1707.45 880.472 1707.56L880.288 1707.67L880.224 1707.71L874.582 1711.28C874.547 1711.68 874.306 1712.02 873.955 1712.2C873.808 1712.28 873.644 1712.33 873.469 1712.34C873.228 1712.35 873.002 1712.29 872.807 1712.18C872.547 1712.04 872.349 1711.8 872.266 1711.51L865.817 1708.38C865.636 1708.28 865.513 1708.11 865.502 1707.91L865.063 1700.06C865.052 1699.86 865.15 1699.68 865.324 1699.57L871.874 1695.42L872.153 1695.25C872.167 1695.24 872.186 1695.24 872.2 1695.23C872.26 1695.2 872.325 1695.18 872.391 1695.17C872.414 1695.17 872.438 1695.16 872.466 1695.16C872.556 1695.16 872.647 1695.17 872.73 1695.22L873.008 1695.36ZM866.215 1700.32L866.619 1707.53L872.536 1710.41C872.738 1710.2 873.015 1710.06 873.332 1710.05C873.615 1710.03 873.881 1710.12 874.094 1710.27L879.562 1706.81L879.158 1699.59L875.819 1697.97L872.48 1696.35L866.215 1700.32Z" fill="#EAF9FF"/>
  <path d="M895.397 1649.21L897.508 1650.23C897.688 1650.32 897.807 1650.5 897.818 1650.69L897.946 1652.98C897.957 1653.17 897.858 1653.36 897.689 1653.47L895.98 1654.55L895.706 1654.73C895.536 1654.84 895.314 1654.85 895.134 1654.76L894.836 1654.61L893.018 1653.73C892.837 1653.64 892.714 1653.47 892.703 1653.27L892.575 1650.99C892.564 1650.79 892.663 1650.6 892.837 1650.49L894.82 1649.24C894.999 1649.13 895.217 1649.12 895.397 1649.21ZM893.747 1651.24L893.838 1652.89L895.34 1653.62C895.378 1653.61 896.789 1652.72 896.789 1652.72L896.697 1651.08L895.176 1650.34L893.747 1651.24Z" fill="#EAF9FF"/>
  <path d="M887.346 1686.98C887.371 1687.43 887.146 1687.82 886.793 1688.03C886.774 1688.04 886.756 1688.06 886.733 1688.07C886.581 1688.15 886.413 1688.2 886.229 1688.21C886.021 1688.22 885.824 1688.18 885.649 1688.1C885.629 1688.09 885.605 1688.08 885.585 1688.07C885.243 1687.89 885.001 1687.54 884.978 1687.13C884.943 1686.5 885.444 1685.96 886.101 1685.92C886.323 1685.91 886.535 1685.96 886.72 1686.06C887.067 1686.24 887.314 1686.58 887.346 1686.98Z" fill="#EAF9FF"/>
  <path d="M892.681 1698.51C892.667 1698.08 892.879 1697.72 893.203 1697.51C893.377 1697.39 893.582 1697.32 893.804 1697.3C894.026 1697.29 894.238 1697.34 894.423 1697.44C894.77 1697.61 895.021 1697.95 895.049 1698.36C895.079 1698.81 894.849 1699.2 894.496 1699.42C894.331 1699.52 894.14 1699.58 893.932 1699.59C893.724 1699.6 893.527 1699.56 893.352 1699.48C892.977 1699.3 892.706 1698.95 892.681 1698.51Z" fill="#EAF9FF"/>
  <path d="M873.201 1687.87C873.227 1688.33 873.002 1688.71 872.648 1688.93C872.483 1689.03 872.292 1689.09 872.084 1689.1C871.876 1689.12 871.679 1689.07 871.504 1688.99C871.129 1688.81 870.858 1688.46 870.834 1688.03C870.819 1687.6 871.031 1687.23 871.356 1687.02C871.53 1686.9 871.734 1686.83 871.956 1686.81C872.178 1686.8 872.39 1686.85 872.576 1686.95C872.922 1687.13 873.169 1687.47 873.201 1687.87Z" fill="#EAF9FF"/>
  <path d="M1119.85 1358.36C1119.66 1358.26 1119.53 1358.06 1119.51 1357.84L1119.3 1354.01C1119.29 1353.79 1119.39 1353.58 1119.58 1353.46L1121.84 1351.98C1121.87 1352.44 1122.14 1352.82 1122.52 1353.02L1120.56 1354.31L1120.74 1357.41L1123.51 1358.81L1126.12 1357.11L1125.94 1354L1123.85 1352.95C1124.2 1352.71 1124.43 1352.3 1124.41 1351.84L1126.82 1353.05C1127.02 1353.15 1127.15 1353.35 1127.16 1353.57L1127.38 1357.4C1127.39 1357.62 1127.28 1357.83 1127.1 1357.96L1123.89 1360.05C1123.71 1360.18 1123.47 1360.19 1123.27 1360.09L1119.85 1358.36Z" fill="#EAF9FF"/>
  <path d="M1099.43 1331.45L1099.85 1338.83C1099.66 1338.73 1099.44 1338.68 1099.21 1338.7C1098.99 1338.71 1098.78 1338.78 1098.6 1338.9L1098.19 1331.52L1098.17 1331.16C1098.15 1330.93 1098.26 1330.72 1098.45 1330.6L1098.74 1330.4L1105.58 1325.93L1105.87 1325.73C1106.06 1325.61 1106.3 1325.59 1106.5 1325.7L1106.82 1325.86L1114.14 1329.55L1114.07 1329.6L1113.87 1329.73C1113.68 1329.85 1113.58 1330.07 1113.59 1330.29L1113.61 1330.63L1113.61 1330.68L1106.26 1326.97C1106.26 1326.98 1099.43 1331.45 1099.43 1331.45Z" fill="#EAF9FF"/>
  <path d="M1098.68 1341.13L1092.98 1344.86L1093.17 1348.26C1093.18 1348.48 1093.08 1348.69 1092.89 1348.82L1089.68 1350.92C1089.5 1351.04 1089.26 1351.05 1089.06 1350.95L1085.64 1349.22C1085.44 1349.12 1085.31 1348.92 1085.3 1348.7L1085.09 1344.88C1085.08 1344.65 1085.18 1344.44 1085.37 1344.32L1088.57 1342.22C1088.76 1342.1 1089 1342.08 1089.2 1342.19L1092.35 1343.78L1098 1340.08C1098.03 1340.54 1098.3 1340.93 1098.68 1341.13ZM1088.95 1343.47L1086.35 1345.17L1086.52 1348.27L1089.3 1349.67L1091.9 1347.97L1091.76 1345.46C1091.59 1345.43 1091.44 1345.34 1091.33 1345.19C1091.22 1345.02 1091.21 1344.81 1091.28 1344.64L1088.95 1343.47Z" fill="#EAF9FF"/>
  <path d="M1107.1 1354L1100.92 1358.05L1100.62 1358.24C1100.33 1358.43 1099.94 1358.35 1099.76 1358.06C1099.57 1357.77 1099.65 1357.39 1099.94 1357.2L1100.67 1356.72L1106.42 1352.96C1106.45 1353.41 1106.72 1353.8 1107.1 1354Z" fill="#EAF9FF"/>
  <path d="M1107.64 1351.56C1107.44 1351.58 1107.25 1351.64 1107.09 1351.72C1107.07 1351.74 1107.04 1351.75 1107.02 1351.76L1106.61 1344.39L1100.02 1341.05C1100.37 1340.81 1100.6 1340.4 1100.58 1339.94L1103.53 1341.44L1107.17 1343.27L1114.01 1338.8C1114.01 1338.72 1114.03 1338.64 1114.06 1338.57L1114.07 1338.8L1114.08 1338.97L1114.09 1339.16C1114.1 1339.29 1114.15 1339.4 1114.23 1339.5C1114.24 1339.52 1114.25 1339.53 1114.26 1339.54C1114.31 1339.6 1114.36 1339.65 1114.43 1339.68L1114.6 1339.77L1114.72 1339.83L1114.75 1339.85L1107.93 1344.32L1108.34 1351.73C1108.32 1351.72 1108.29 1351.71 1108.27 1351.7C1108.08 1351.61 1107.86 1351.55 1107.64 1351.56Z" fill="#EAF9FF"/>
  <path d="M1115.31 1338.73L1118.95 1340.57L1115.31 1338.73Z" fill="#EAF9FF"/>
  <path d="M1122.03 1343.52L1122.35 1343.69C1122.44 1343.73 1122.54 1343.75 1122.64 1343.75C1122.67 1343.75 1122.69 1343.74 1122.72 1343.74C1122.79 1343.73 1122.86 1343.7 1122.93 1343.67C1122.95 1343.66 1122.97 1343.66 1122.98 1343.65L1123.28 1343.45L1123.69 1350.72C1123.5 1350.63 1123.29 1350.58 1123.06 1350.59C1122.83 1350.6 1122.62 1350.68 1122.44 1350.79L1122.04 1343.52L1122.03 1343.52Z" fill="#EAF9FF"/>
  <path d="M1097.08 1389.57L1096.63 1381.62L1093.54 1380.06C1093.34 1379.95 1093.21 1379.75 1093.2 1379.53L1092.98 1375.71C1092.97 1375.49 1093.08 1375.28 1093.26 1375.15L1096.17 1373.25L1095.72 1365.34L1095.7 1364.86C1095.68 1364.52 1095.92 1364.25 1096.25 1364.21C1096.26 1364.21 1096.27 1364.2 1096.28 1364.2C1096.29 1364.2 1096.3 1364.2 1096.32 1364.2C1096.65 1364.21 1096.92 1364.45 1096.94 1364.79L1096.97 1365.27L1097.41 1373.18L1100.51 1374.75C1100.7 1374.85 1100.83 1375.05 1100.85 1375.27L1101.06 1379.09C1101.07 1379.31 1100.97 1379.53 1100.78 1379.65L1097.88 1381.55L1098.32 1389.5L1098 1389.33C1097.8 1389.23 1097.56 1389.24 1097.38 1389.37L1097.08 1389.57ZM1099.8 1378.8L1099.63 1375.7L1096.88 1374.31C1096.83 1374.31 1094.25 1376 1094.25 1376L1094.42 1379.1L1097.2 1380.5L1099.8 1378.8Z" fill="#EAF9FF"/>
  <path d="M1120.97 1324.5L1120.57 1317.4L1117.48 1315.84C1117.28 1315.74 1117.15 1315.54 1117.14 1315.31L1116.92 1311.49C1116.91 1311.27 1117.02 1311.06 1117.2 1310.93L1120.41 1308.84C1120.59 1308.71 1120.84 1308.7 1121.03 1308.8L1124.45 1310.53C1124.65 1310.63 1124.78 1310.83 1124.79 1311.05L1125.01 1314.87C1125.02 1315.1 1124.91 1315.31 1124.73 1315.43L1121.82 1317.33L1122.23 1324.53C1122.01 1324.4 1121.77 1324.34 1121.5 1324.35C1121.31 1324.36 1121.13 1324.42 1120.97 1324.5ZM1123.74 1314.59L1123.57 1311.49L1120.79 1310.09L1118.19 1311.79L1118.36 1314.89L1121.11 1316.28C1121.16 1316.27 1123.74 1314.59 1123.74 1314.59Z" fill="#EAF9FF"/>
  <path d="M1106.49 1325.7C1106.3 1325.6 1106.05 1325.61 1105.87 1325.74L1105.57 1325.93L1105.11 1317.79L1097.83 1314.11L1091.01 1318.58L1091.46 1326.72L1098.74 1330.4L1098.44 1330.6C1098.26 1330.72 1098.15 1330.93 1098.17 1331.16L1098.19 1331.52L1090.58 1327.68C1090.38 1327.57 1090.25 1327.37 1090.24 1327.15L1089.74 1318.29C1089.73 1318.06 1089.84 1317.85 1090.02 1317.73L1097.45 1312.87C1097.64 1312.74 1097.88 1312.73 1098.08 1312.83L1106 1316.83C1106.2 1316.94 1106.33 1317.14 1106.34 1317.36L1106.82 1325.86L1106.49 1325.7Z" fill="#EAF9FF"/>
  <path d="M1099.43 1331.45L1106.25 1326.98C1106.25 1326.98 1099.43 1331.45 1099.43 1331.45Z" fill="#EAF9FF"/>
  <path d="M1091.95 1318.7L1097.57 1315.02C1097.86 1314.84 1098.24 1314.91 1098.43 1315.2C1098.49 1315.3 1098.53 1315.4 1098.53 1315.51C1098.54 1315.72 1098.44 1315.94 1098.25 1316.06L1092.63 1319.74C1092.34 1319.93 1091.96 1319.86 1091.77 1319.57C1091.58 1319.28 1091.66 1318.89 1091.95 1318.7Z" fill="#EAF9FF"/>
  <path d="M1098.14 1329.3C1097.95 1329.01 1098.03 1328.63 1098.32 1328.44L1103.94 1324.76C1104.22 1324.57 1104.61 1324.65 1104.8 1324.94C1104.86 1325.04 1104.89 1325.14 1104.9 1325.24C1104.91 1325.46 1104.81 1325.68 1104.61 1325.8L1098.99 1329.48C1098.71 1329.68 1098.32 1329.59 1098.14 1329.3Z" fill="#EAF9FF"/>
  <path d="M1092.45 1362.28L1096.25 1364.21C1095.92 1364.25 1095.67 1364.52 1095.69 1364.86L1095.72 1365.34L1091.56 1363.24C1091.36 1363.14 1091.23 1362.94 1091.22 1362.72L1090.94 1357.71C1090.93 1357.48 1091.04 1357.27 1091.22 1357.15L1095.42 1354.4C1095.6 1354.28 1095.84 1354.26 1096.04 1354.37L1100.52 1356.63C1100.57 1356.66 1100.62 1356.68 1100.66 1356.72L1099.93 1357.2C1099.64 1357.39 1099.56 1357.78 1099.75 1358.07C1099.93 1358.36 1100.32 1358.44 1100.61 1358.25L1100.91 1358.05L1101.14 1362.16C1101.15 1362.38 1101.05 1362.59 1100.86 1362.72L1096.96 1365.27L1096.93 1364.78C1096.92 1364.45 1096.64 1364.2 1096.31 1364.2L1099.87 1361.86L1099.63 1357.57L1095.8 1355.64L1092.2 1357.99L1092.44 1362.28L1092.45 1362.28Z" fill="#EAF9FF"/>
  <path d="M1128.65 1336.95C1128.72 1337.04 1128.75 1337.15 1128.75 1337.25C1128.77 1337.47 1128.66 1337.69 1128.48 1337.81L1122.85 1341.49C1122.57 1341.68 1122.18 1341.6 1121.99 1341.31C1121.8 1341.02 1121.88 1340.64 1122.17 1340.45L1127.79 1336.77C1128.08 1336.58 1128.46 1336.66 1128.65 1336.95Z" fill="#EAF9FF"/>
  <path d="M1116.55 1338.56C1116.2 1338.58 1115.91 1338.32 1115.89 1337.97L1115.51 1331.26C1115.5 1330.92 1115.76 1330.62 1116.1 1330.6C1116.45 1330.58 1116.74 1330.85 1116.76 1331.19L1117.14 1337.9C1117.16 1338.25 1116.89 1338.54 1116.55 1338.56Z" fill="#EAF9FF"/>
  <path d="M1122.02 1343.52L1114.74 1339.84L1114.71 1339.82L1114.59 1339.76L1114.42 1339.67C1114.35 1339.64 1114.3 1339.59 1114.25 1339.54C1114.24 1339.52 1114.23 1339.51 1114.21 1339.5C1114.18 1339.45 1114.15 1339.4 1114.13 1339.35C1114.11 1339.31 1114.11 1339.27 1114.1 1339.23C1114.09 1339.21 1114.08 1339.2 1114.08 1339.18C1114.08 1339.15 1114.07 1338.96 1114.07 1338.96L1114.06 1338.79L1114.04 1338.57L1113.6 1330.69L1113.6 1330.64L1113.58 1330.29C1113.57 1330.07 1113.68 1329.86 1113.86 1329.73L1114.06 1329.6L1114.13 1329.56L1120.27 1325.53C1120.31 1325.09 1120.57 1324.7 1120.95 1324.5C1121.11 1324.41 1121.29 1324.36 1121.48 1324.35C1121.75 1324.34 1121.99 1324.4 1122.21 1324.52C1122.49 1324.69 1122.71 1324.96 1122.8 1325.28L1129.83 1328.84C1130.03 1328.94 1130.17 1329.14 1130.18 1329.36L1130.67 1338.23C1130.69 1338.45 1130.58 1338.67 1130.39 1338.79L1123.26 1343.45L1122.96 1343.65C1122.94 1343.66 1122.92 1343.66 1122.9 1343.67C1122.84 1343.7 1122.77 1343.73 1122.7 1343.74C1122.67 1343.74 1122.65 1343.75 1122.61 1343.75C1122.52 1343.75 1122.42 1343.73 1122.33 1343.69L1122.02 1343.52ZM1129.42 1337.94L1128.96 1329.79L1122.5 1326.53C1122.28 1326.77 1121.98 1326.92 1121.64 1326.94C1121.33 1326.95 1121.04 1326.86 1120.81 1326.68L1114.85 1330.58L1115.31 1338.73L1118.95 1340.57L1122.6 1342.41L1129.42 1337.94Z" fill="#EAF9FF"/>
  <path d="M1097.73 1395.6L1095.42 1394.44C1095.23 1394.33 1095.1 1394.13 1095.08 1393.91L1094.94 1391.34C1094.93 1391.11 1095.03 1390.9 1095.22 1390.78L1097.08 1389.56L1097.38 1389.36C1097.56 1389.24 1097.8 1389.23 1098 1389.33L1098.33 1389.49L1100.31 1390.49C1100.51 1390.59 1100.64 1390.79 1100.66 1391.02L1100.8 1393.59C1100.81 1393.81 1100.7 1394.03 1100.52 1394.15L1098.36 1395.56C1098.16 1395.68 1097.92 1395.7 1097.73 1395.6ZM1099.52 1393.3L1099.42 1391.45L1097.78 1390.62C1097.74 1390.62 1096.2 1391.63 1096.2 1391.63L1096.31 1393.48L1097.97 1394.32L1099.52 1393.3Z" fill="#EAF9FF"/>
  <path d="M1106.41 1352.95C1106.38 1352.44 1106.62 1352.01 1107.01 1351.77C1107.03 1351.76 1107.05 1351.74 1107.07 1351.73C1107.24 1351.64 1107.42 1351.58 1107.62 1351.57C1107.85 1351.56 1108.06 1351.61 1108.25 1351.7C1108.27 1351.71 1108.3 1351.72 1108.32 1351.73C1108.7 1351.94 1108.96 1352.33 1108.99 1352.79C1109.03 1353.51 1108.48 1354.11 1107.77 1354.15C1107.52 1354.17 1107.29 1354.11 1107.09 1354C1106.71 1353.8 1106.44 1353.41 1106.41 1352.95Z" fill="#EAF9FF"/>
  <path d="M1100.57 1339.92C1100.59 1340.4 1100.36 1340.81 1100.01 1341.05C1099.82 1341.18 1099.59 1341.27 1099.35 1341.28C1099.11 1341.3 1098.88 1341.24 1098.68 1341.13C1098.3 1340.93 1098.02 1340.55 1097.99 1340.09C1097.96 1339.58 1098.21 1339.14 1098.59 1338.9C1098.77 1338.78 1098.98 1338.71 1099.21 1338.7C1099.43 1338.68 1099.65 1338.73 1099.84 1338.83C1100.25 1339.03 1100.54 1339.43 1100.57 1339.92Z" fill="#EAF9FF"/>
  <path d="M1121.84 1351.98C1121.81 1351.47 1122.05 1351.03 1122.44 1350.79C1122.62 1350.68 1122.82 1350.6 1123.05 1350.59C1123.28 1350.58 1123.49 1350.63 1123.68 1350.72C1124.09 1350.92 1124.39 1351.32 1124.42 1351.81C1124.43 1352.3 1124.2 1352.71 1123.85 1352.95C1123.66 1353.08 1123.44 1353.16 1123.19 1353.18C1122.95 1353.19 1122.72 1353.13 1122.52 1353.02C1122.14 1352.82 1121.87 1352.43 1121.84 1351.98Z" fill="#EAF9FF"/>
  <path d="M1131.12 1390.74L1130.65 1383.84L1130.82 1383.93C1130.96 1384 1131.13 1383.99 1131.26 1383.91L1131.52 1383.73L1132 1390.76L1137.39 1393.49L1143.41 1389.49L1143.42 1389.71C1143.43 1389.87 1143.52 1390 1143.66 1390.07L1143.91 1390.2L1137.84 1394.24L1138.18 1400.15L1144.59 1403.34L1146.97 1401.78C1147.1 1401.7 1147.27 1401.69 1147.41 1401.76L1150.15 1403.14C1150.29 1403.21 1150.38 1403.35 1150.39 1403.51L1150.56 1406.57C1150.57 1406.73 1150.49 1406.87 1150.36 1406.96L1147.79 1408.64C1147.66 1408.73 1147.5 1408.73 1147.36 1408.66L1144.62 1407.28C1144.48 1407.21 1144.39 1407.07 1144.38 1406.91L1144.22 1404.13L1137.91 1400.99L1132.84 1404.31L1133.14 1409.64L1132.79 1409.47C1132.65 1409.4 1132.48 1409.41 1132.35 1409.49L1132.25 1409.55L1131.97 1404.53L1126.39 1401.71L1122.61 1404.14L1122.7 1405.77C1122.71 1405.93 1122.63 1406.07 1122.5 1406.16L1120.84 1407.25L1120.94 1409.13L1122.22 1409.78C1122.36 1409.85 1122.45 1409.99 1122.45 1410.14L1122.55 1411.82C1122.56 1411.98 1122.48 1412.13 1122.35 1412.21L1120.94 1413.13C1120.81 1413.22 1120.64 1413.23 1120.5 1413.16L1119 1412.4C1118.86 1412.33 1118.77 1412.19 1118.76 1412.04L1118.67 1410.35C1118.66 1410.2 1118.73 1410.05 1118.87 1409.96L1120.06 1409.18L1119.96 1407.3L1118.49 1406.56L1116.46 1407.92L1116.55 1409.46C1116.56 1409.62 1116.48 1409.77 1116.35 1409.85L1114.95 1410.77C1114.82 1410.86 1114.65 1410.87 1114.51 1410.8L1113.01 1410.04C1112.87 1409.97 1112.78 1409.83 1112.77 1409.67L1112.68 1407.99C1112.67 1407.84 1112.74 1407.69 1112.87 1407.6L1114.28 1406.68C1114.41 1406.6 1114.58 1406.59 1114.72 1406.66L1115.9 1407.25L1117.93 1405.89L1117.83 1404.03L1115.6 1402.83L1114.56 1403.51C1114.43 1403.6 1114.27 1403.6 1114.13 1403.53L1112.62 1402.78C1112.48 1402.71 1112.39 1402.57 1112.39 1402.41L1112.29 1400.73C1112.28 1400.57 1112.36 1400.43 1112.49 1400.34L1113.9 1399.42C1114.03 1399.33 1114.2 1399.32 1114.33 1399.39L1115.83 1400.15C1115.97 1400.22 1116.06 1400.36 1116.07 1400.52L1116.16 1402.14L1118.23 1403.26L1119.88 1402.18C1120.01 1402.09 1120.18 1402.08 1120.32 1402.15L1122.32 1403.16C1122.35 1403.18 1122.37 1403.21 1122.4 1403.23L1125.9 1400.99L1125.58 1395.3L1119.25 1392.58L1117.89 1393.47C1117.76 1393.55 1117.59 1393.56 1117.45 1393.49L1115.45 1392.48C1115.31 1392.41 1115.22 1392.27 1115.21 1392.12L1115.09 1389.88C1115.08 1389.72 1115.15 1389.57 1115.28 1389.49L1117.16 1388.26C1117.29 1388.17 1117.46 1388.16 1117.6 1388.24L1119.6 1389.25C1119.74 1389.32 1119.83 1389.45 1119.84 1389.61L1119.96 1391.85C1119.96 1391.88 1119.95 1391.9 1119.94 1391.93L1125.63 1394.37C1125.66 1394.33 1125.69 1394.29 1125.74 1394.25L1131.12 1390.74ZM1145.24 1406.61L1147.53 1407.77L1149.68 1406.37L1149.53 1403.81L1147.25 1402.65L1145.51 1403.79L1145.1 1404.05L1145.13 1404.57L1145.24 1406.61ZM1113.64 1409.37L1114.69 1409.9L1115.68 1409.26L1115.64 1408.49L1115.61 1408.08L1115.08 1407.81L1114.56 1407.55L1113.58 1408.19L1113.64 1409.37ZM1115.23 1400.82L1114.18 1400.29L1113.19 1400.93L1113.2 1401.05L1113.22 1401.48L1113.26 1402.11L1114.31 1402.64L1114.74 1402.36L1115.29 1401.99L1115.27 1401.65L1115.23 1400.82L1115.23 1400.82ZM1118.71 1403.99L1118.74 1404.52L1118.79 1405.32L1118.8 1405.54L1118.81 1405.73L1119.34 1405.99L1119.54 1406.1L1119.91 1406.29L1120.36 1406.51L1120.79 1406.24L1121.82 1405.56L1121.77 1404.68L1121.72 1403.83L1121.59 1403.76L1120.17 1403.05L1119.13 1403.73L1118.71 1403.99ZM1120.55 1409.91L1120.13 1410.18L1119.57 1410.55L1119.63 1411.73L1120.35 1412.09L1120.59 1412.21L1120.68 1412.26L1120.77 1412.2L1121 1412.05L1121.67 1411.61L1121.6 1410.44L1121 1410.13L1120.55 1409.91ZM1119.09 1391.55L1118.99 1389.91L1117.44 1389.13L1115.99 1390.08L1116.09 1391.82L1117.64 1392.6L1118.3 1392.17L1119.1 1391.65L1119.09 1391.55L1119.09 1391.55ZM1126.44 1394.85L1126.49 1395.68L1126.76 1400.44L1126.78 1400.92L1127.25 1401.16L1131.92 1403.52L1132.22 1403.67L1132.78 1403.3L1137 1400.54L1137.31 1400.33L1137.27 1399.7L1137 1394.8L1136.97 1394.25L1136.55 1394.04L1132.06 1391.77L1131.53 1391.51L1131.18 1391.74L1126.56 1394.76L1126.44 1394.85Z" fill="#67CDF5" fill-opacity="0.5"/>
  <path d="M1132.11 1392.44L1136.01 1394.41L1136.2 1394.51C1136.33 1394.58 1136.43 1394.71 1136.43 1394.87L1136.45 1395.17L1136.69 1399.41L1136.71 1399.79C1136.72 1399.95 1136.64 1400.09 1136.51 1400.18L1136.41 1400.25L1132.75 1402.64L1132.39 1402.87C1132.26 1402.96 1132.1 1402.97 1131.96 1402.9L1131.88 1402.86L1127.81 1400.81L1127.56 1400.68C1127.42 1400.61 1127.33 1400.47 1127.32 1400.32L1127.31 1400.09L1127.08 1395.94L1127.05 1395.4C1127.04 1395.26 1127.11 1395.13 1127.21 1395.05C1127.22 1395.03 1127.23 1395.02 1127.24 1395.01L1131.23 1392.4L1131.36 1392.31C1131.49 1392.23 1131.66 1392.22 1131.8 1392.29L1132.11 1392.44ZM1127.93 1395.6L1127.98 1396.32L1128.16 1399.54L1128.18 1400.01L1128.66 1400.25L1131.83 1401.85L1132.12 1402L1132.69 1401.63L1135.5 1399.79L1135.82 1399.58L1135.78 1398.96L1135.6 1395.72L1135.57 1395.17L1135.17 1394.96L1132.18 1393.46L1131.63 1393.18L1131.3 1393.4L1128.16 1395.45L1127.93 1395.6Z" fill="#67CDF5" fill-opacity="0.5"/>
  <path d="M1145.37 1389.06C1145.44 1389.24 1145.5 1389.43 1145.51 1389.64C1145.56 1390.64 1144.8 1391.49 1143.8 1391.55C1142.8 1391.61 1141.95 1390.84 1141.89 1389.84C1141.88 1389.63 1141.91 1389.44 1141.97 1389.25C1142.03 1389.02 1142.13 1388.82 1142.27 1388.64C1142.59 1388.24 1143.06 1387.96 1143.6 1387.93C1144.15 1387.9 1144.65 1388.12 1145 1388.49C1145.15 1388.65 1145.28 1388.84 1145.37 1389.06Z" fill="#67CDF5" fill-opacity="0.5"/>
  <path d="M1132.78 1383.07C1132.85 1383.26 1132.91 1383.45 1132.92 1383.66C1132.97 1384.66 1132.21 1385.51 1131.21 1385.57C1130.21 1385.62 1129.36 1384.86 1129.3 1383.86C1129.29 1383.65 1129.32 1383.45 1129.38 1383.26C1129.44 1383.04 1129.54 1382.84 1129.68 1382.66C1130 1382.26 1130.47 1381.98 1131.01 1381.95C1131.56 1381.92 1132.06 1382.14 1132.41 1382.5C1132.56 1382.67 1132.69 1382.86 1132.78 1383.07Z" fill="#67CDF5" fill-opacity="0.5"/>
  <path d="M1134.22 1409.94C1134.26 1410.06 1134.29 1410.18 1134.29 1410.31C1134.33 1410.97 1133.91 1411.54 1133.31 1411.73C1133.2 1411.76 1133.09 1411.79 1132.97 1411.79C1132.85 1411.8 1132.73 1411.79 1132.62 1411.77C1132 1411.65 1131.52 1411.13 1131.48 1410.47C1131.44 1409.7 1132.04 1409.03 1132.81 1408.99C1133.2 1408.97 1133.57 1409.12 1133.84 1409.37C1134.02 1409.53 1134.14 1409.72 1134.22 1409.94Z" fill="#67CDF5" fill-opacity="0.5"/>
  <path d="M840.127 1623.59L834.769 1621.12L834.386 1622.83L839.789 1626.11L840.127 1623.59Z" fill="#142E8F"/>
  <path d="M991.584 1674.42L984.627 1670.02L983.274 1671.53L989.221 1675.03L991.584 1674.42Z" fill="#0E2187"/>
  <defs>
    <filter id="filter0_d" x="-4" y="13.7642" width="1446" height="1859.67" filterUnits="userSpaceOnUse" color-interpolation-filters="sRGB">
      <feFlood flood-opacity="0" result="BackgroundImageFix"/>
      <feColorMatrix in="SourceAlpha" type="matrix" values="0 0 0 0 0 0 0 0 0 0 0 0 0 0 0 0 0 0 127 0" result="hardAlpha"/>
      <feOffset dy="4"/>
      <feGaussianBlur stdDeviation="2"/>
      <feComposite in2="hardAlpha" operator="out"/>
      <feColorMatrix type="matrix" values="0 0 0 0 0 0 0 0 0 0 0 0 0 0 0 0 0 0 0.25 0"/>
      <feBlend mode="normal" in2="BackgroundImageFix" result="effect1_dropShadow"/>
      <feBlend mode="normal" in="SourceGraphic" in2="effect1_dropShadow" result="shape"/>
    </filter>
    <filter id="filter1_f" x="983.25" y="1364.43" width="268.109" height="184.446" filterUnits="userSpaceOnUse" color-interpolation-filters="sRGB">
      <feFlood flood-opacity="0" result="BackgroundImageFix"/>
      <feBlend mode="normal" in="SourceGraphic" in2="BackgroundImageFix" result="shape"/>
      <feGaussianBlur stdDeviation="22" result="effect1_foregroundBlur"/>
    </filter>
    <filter id="filter2_f" x="728.539" y="1664.31" width="268.109" height="184.446" filterUnits="userSpaceOnUse" color-interpolation-filters="sRGB">
      <feFlood flood-opacity="0" result="BackgroundImageFix"/>
      <feBlend mode="normal" in="SourceGraphic" in2="BackgroundImageFix" result="shape"/>
      <feGaussianBlur stdDeviation="22" result="effect1_foregroundBlur"/>
    </filter>
    <filter id="filter3_f" x="674.359" y="1317.14" width="344.996" height="324.405" filterUnits="userSpaceOnUse" color-interpolation-filters="sRGB">
      <feFlood flood-opacity="0" result="BackgroundImageFix"/>
      <feBlend mode="normal" in="SourceGraphic" in2="BackgroundImageFix" result="shape"/>
      <feGaussianBlur stdDeviation="22" result="effect1_foregroundBlur"/>
    </filter>
    <filter id="filter4_f" x="694.574" y="1287.56" width="573.879" height="534.948" filterUnits="userSpaceOnUse" color-interpolation-filters="sRGB">
      <feFlood flood-opacity="0" result="BackgroundImageFix"/>
      <feBlend mode="normal" in="SourceGraphic" in2="BackgroundImageFix" result="shape"/>
      <feGaussianBlur stdDeviation="22" result="effect1_foregroundBlur"/>
    </filter>
    <linearGradient id="paint0_linear" x1="747.561" y1="183.48" x2="618.781" y2="1945.74" gradientUnits="userSpaceOnUse">
      <stop stop-color="#070F4B"/>
      <stop offset="0.338897" stop-color="#161660"/>
      <stop offset="0.620267" stop-color="#322387"/>
      <stop offset="1" stop-color="#5B37C0"/>
    </linearGradient>
    <linearGradient id="paint1_linear" x1="661.597" y1="1674.95" x2="640.93" y2="1091.39" gradientUnits="userSpaceOnUse">
      <stop stop-color="white"/>
      <stop offset="1" stop-color="white" stop-opacity="0"/>
    </linearGradient>
    <linearGradient id="paint2_linear" x1="654.102" y1="1719.18" x2="644.3" y2="1298.82" gradientUnits="userSpaceOnUse">
      <stop stop-color="white"/>
      <stop offset="1" stop-color="white" stop-opacity="0"/>
    </linearGradient>
    <linearGradient id="paint3_linear" x1="1054.83" y1="1465.59" x2="1054.78" y2="1503.77" gradientUnits="userSpaceOnUse">
      <stop stop-color="#DEF8F9"/>
      <stop offset="1" stop-color="#F6FDFD"/>
    </linearGradient>
    <linearGradient id="paint4_linear" x1="1169.05" y1="1466.34" x2="1191.55" y2="1562.11" gradientUnits="userSpaceOnUse">
      <stop stop-color="#DEF8F9"/>
      <stop offset="1" stop-color="white"/>
    </linearGradient>
    <linearGradient id="paint5_linear" x1="951.551" y1="1430.27" x2="917.109" y2="1370.28" gradientUnits="userSpaceOnUse">
      <stop stop-color="#C0BFF6"/>
      <stop offset="0.29" stop-color="#C5C4F7"/>
      <stop offset="0.64" stop-color="#D3D2F9"/>
      <stop offset="1" stop-color="#E9E9FD"/>
    </linearGradient>
    <linearGradient id="paint6_linear" x1="929.017" y1="1491.35" x2="928.822" y2="1656.24" gradientUnits="userSpaceOnUse">
      <stop stop-color="#DEF8F9"/>
      <stop offset="1" stop-color="#F6FDFD"/>
    </linearGradient>
    <linearGradient id="paint7_linear" x1="46590.8" y1="24464.6" x2="79444.9" y2="24426" gradientUnits="userSpaceOnUse">
      <stop stop-color="#C0BFF6"/>
      <stop offset="0.29" stop-color="#C5C4F7"/>
      <stop offset="0.64" stop-color="#D3D2F9"/>
      <stop offset="1" stop-color="#E9E9FD"/>
    </linearGradient>
    <linearGradient id="paint8_linear" x1="749.135" y1="1492.2" x2="786.778" y2="1492.16" gradientUnits="userSpaceOnUse">
      <stop stop-color="#5761D7"/>
      <stop offset="0.18" stop-color="#5C66D9"/>
      <stop offset="0.39" stop-color="#6A73DF"/>
      <stop offset="0.61" stop-color="#8289E8"/>
      <stop offset="0.85" stop-color="#A3A7F5"/>
      <stop offset="1" stop-color="#BCBEFF"/>
    </linearGradient>
    <linearGradient id="paint9_linear" x1="-69821.9" y1="31127.6" x2="-135344" y2="31203.3" gradientUnits="userSpaceOnUse">
      <stop stop-color="#5031B0"/>
      <stop offset="0.18" stop-color="#5C66D9"/>
      <stop offset="0.39" stop-color="#6A73DF"/>
      <stop offset="0.61" stop-color="#8289E8"/>
      <stop offset="0.85" stop-color="#A3A7F5"/>
      <stop offset="1" stop-color="#BCBEFF"/>
    </linearGradient>
    <linearGradient id="paint10_linear" x1="932.563" y1="1522.43" x2="932.437" y2="1634.15" gradientUnits="userSpaceOnUse">
      <stop stop-color="#DEF8F9"/>
      <stop offset="1" stop-color="#F6FDFD"/>
    </linearGradient>
    <linearGradient id="paint11_linear" x1="27339" y1="9603.23" x2="31637.2" y2="9598.26" gradientUnits="userSpaceOnUse">
      <stop stop-color="#463E90"/>
      <stop offset="0.29" stop-color="#C5C4F7"/>
      <stop offset="0.64" stop-color="#D3D2F9"/>
      <stop offset="1" stop-color="#E9E9FD"/>
    </linearGradient>
    <linearGradient id="paint12_linear" x1="68674.9" y1="22285.3" x2="134253" y2="22226.3" gradientUnits="userSpaceOnUse">
      <stop stop-color="#C0BFF6"/>
      <stop offset="0.29" stop-color="#C5C4F7"/>
      <stop offset="0.64" stop-color="#D3D2F9"/>
      <stop offset="1" stop-color="#E9E9FD"/>
    </linearGradient>
    <linearGradient id="paint13_linear" x1="17152.2" y1="6070.58" x2="21447.3" y2="6066.71" gradientUnits="userSpaceOnUse">
      <stop stop-color="#C0BFF6"/>
      <stop offset="0.29" stop-color="#C5C4F7"/>
      <stop offset="0.64" stop-color="#D3D2F9"/>
      <stop offset="1" stop-color="#E9E9FD"/>
    </linearGradient>
    <linearGradient id="paint14_linear" x1="36407" y1="-19633.2" x2="52343.5" y2="-19651.8" gradientUnits="userSpaceOnUse">
      <stop stop-color="#5761D7"/>
      <stop offset="0.18" stop-color="#5C66D9"/>
      <stop offset="0.39" stop-color="#6A73DF"/>
      <stop offset="0.61" stop-color="#8289E8"/>
      <stop offset="0.85" stop-color="#A3A7F5"/>
      <stop offset="1" stop-color="#BCBEFF"/>
    </linearGradient>
    <radialGradient id="paint15_radial" cx="0" cy="0" r="1" gradientUnits="userSpaceOnUse" gradientTransform="translate(1003.89 1568.45) rotate(0.0687582) scale(72.4399 72.4665)">
      <stop stop-color="#2B237C"/>
      <stop offset="1" stop-color="#180D5B"/>
    </radialGradient>
    <linearGradient id="paint16_linear" x1="1113.27" y1="1524.65" x2="1000.88" y2="1682.41" gradientUnits="userSpaceOnUse">
      <stop stop-color="#070F4B"/>
      <stop offset="1" stop-color="#422B9D"/>
    </linearGradient>
    <linearGradient id="paint17_linear" x1="39490.1" y1="-18426.5" x2="55435.5" y2="-18445.2" gradientUnits="userSpaceOnUse">
      <stop stop-color="#5031B0"/>
      <stop offset="0.29" stop-color="#7159C6"/>
      <stop offset="0.64" stop-color="#9E89E9"/>
      <stop offset="1" stop-color="#D0D0FF"/>
    </linearGradient>
    <linearGradient id="paint18_linear" x1="1128.84" y1="1539.24" x2="1128.82" y2="1552.19" gradientUnits="userSpaceOnUse">
      <stop stop-color="#DEF8F9"/>
      <stop offset="1" stop-color="#F6FDFD"/>
    </linearGradient>
    <linearGradient id="paint19_linear" x1="790.573" y1="1623.14" x2="790.462" y2="1715.51" gradientUnits="userSpaceOnUse">
      <stop stop-color="#DEF8F9"/>
      <stop offset="1" stop-color="#F6FDFD"/>
    </linearGradient>
    <linearGradient id="paint20_linear" x1="-39119.2" y1="14107.8" x2="-50512.3" y2="5920.4" gradientUnits="userSpaceOnUse">
      <stop stop-color="#5031B0"/>
      <stop offset="0.18" stop-color="#5C66D9"/>
      <stop offset="0.39" stop-color="#6A73DF"/>
      <stop offset="0.61" stop-color="#8289E8"/>
      <stop offset="0.85" stop-color="#A3A7F5"/>
      <stop offset="1" stop-color="#BCBEFF"/>
    </linearGradient>
    <linearGradient id="paint21_linear" x1="12624.7" y1="3007.09" x2="12830.4" y2="2737.75" gradientUnits="userSpaceOnUse">
      <stop stop-color="#C0BFF6"/>
      <stop offset="0.29" stop-color="#C5C4F7"/>
      <stop offset="0.64" stop-color="#D3D2F9"/>
      <stop offset="1" stop-color="#E9E9FD"/>
    </linearGradient>
    <linearGradient id="paint22_linear" x1="948.08" y1="1318.99" x2="947.903" y2="1466.85" gradientUnits="userSpaceOnUse">
      <stop stop-color="#DEF8F9"/>
      <stop offset="1" stop-color="#F6FDFD"/>
    </linearGradient>
    <linearGradient id="paint23_linear" x1="948.984" y1="1340.6" x2="948.896" y2="1414.16" gradientUnits="userSpaceOnUse">
      <stop stop-color="#DEF8F9"/>
      <stop offset="1" stop-color="#F6FDFD"/>
    </linearGradient>
    <linearGradient id="paint24_linear" x1="948.984" y1="1371.82" x2="948.896" y2="1445.38" gradientUnits="userSpaceOnUse">
      <stop stop-color="#DEF8F9"/>
      <stop offset="1" stop-color="#F6FDFD"/>
    </linearGradient>
    <linearGradient id="paint25_linear" x1="927.219" y1="1384.39" x2="927.206" y2="1395.48" gradientUnits="userSpaceOnUse">
      <stop stop-color="#DEF8F9"/>
      <stop offset="1" stop-color="#F6FDFD"/>
    </linearGradient>
    <linearGradient id="paint26_linear" x1="938.144" y1="1378.07" x2="938.131" y2="1389.16" gradientUnits="userSpaceOnUse">
      <stop stop-color="#DEF8F9"/>
      <stop offset="1" stop-color="#F6FDFD"/>
    </linearGradient>
    <linearGradient id="paint27_linear" x1="948.999" y1="1371.76" x2="948.986" y2="1382.84" gradientUnits="userSpaceOnUse">
      <stop stop-color="#DEF8F9"/>
      <stop offset="1" stop-color="#F6FDFD"/>
    </linearGradient>
    <linearGradient id="paint28_linear" x1="959.91" y1="1365.43" x2="959.897" y2="1376.47" gradientUnits="userSpaceOnUse">
      <stop stop-color="#DEF8F9"/>
      <stop offset="1" stop-color="#F6FDFD"/>
    </linearGradient>
    <linearGradient id="paint29_linear" x1="970.844" y1="1359.13" x2="970.831" y2="1370.16" gradientUnits="userSpaceOnUse">
      <stop stop-color="#DEF8F9"/>
      <stop offset="1" stop-color="#F6FDFD"/>
    </linearGradient>
    <linearGradient id="paint30_linear" x1="927.215" y1="1415.61" x2="927.202" y2="1426.71" gradientUnits="userSpaceOnUse">
      <stop stop-color="#DEF8F9"/>
      <stop offset="1" stop-color="#F6FDFD"/>
    </linearGradient>
    <linearGradient id="paint31_linear" x1="938.141" y1="1409.3" x2="938.128" y2="1420.32" gradientUnits="userSpaceOnUse">
      <stop stop-color="#DEF8F9"/>
      <stop offset="1" stop-color="#F6FDFD"/>
    </linearGradient>
    <linearGradient id="paint32_linear" x1="949.039" y1="1403.02" x2="949.026" y2="1414.07" gradientUnits="userSpaceOnUse">
      <stop stop-color="#DEF8F9"/>
      <stop offset="1" stop-color="#F6FDFD"/>
    </linearGradient>
    <linearGradient id="paint33_linear" x1="959.91" y1="1396.67" x2="959.897" y2="1407.78" gradientUnits="userSpaceOnUse">
      <stop stop-color="#DEF8F9"/>
      <stop offset="1" stop-color="#F6FDFD"/>
    </linearGradient>
    <linearGradient id="paint34_linear" x1="970.84" y1="1390.35" x2="970.827" y2="1401.39" gradientUnits="userSpaceOnUse">
      <stop stop-color="#DEF8F9"/>
      <stop offset="1" stop-color="#F6FDFD"/>
    </linearGradient>
    <linearGradient id="paint35_linear" x1="1171.58" y1="1444.24" x2="1093.75" y2="1446.34" gradientUnits="userSpaceOnUse">
      <stop offset="0.25" stop-color="#5761D7"/>
      <stop offset="0.44" stop-color="#6C74DF"/>
      <stop offset="0.82" stop-color="#A2A6F5"/>
      <stop offset="1" stop-color="#BCBEFF"/>
    </linearGradient>
    <linearGradient id="paint36_linear" x1="-4223.94" y1="6636.88" x2="-12445.2" y2="6859.63" gradientUnits="userSpaceOnUse">
      <stop stop-color="#C0BFF6"/>
      <stop offset="0.29" stop-color="#C5C4F7"/>
      <stop offset="0.64" stop-color="#D3D2F9"/>
      <stop offset="1" stop-color="#E9E9FD"/>
    </linearGradient>
    <linearGradient id="paint37_linear" x1="1116.54" y1="1423.86" x2="1116.51" y2="1455.81" gradientUnits="userSpaceOnUse">
      <stop stop-color="#DEF8F9"/>
      <stop offset="1" stop-color="#F6FDFD"/>
    </linearGradient>
    <linearGradient id="paint38_linear" x1="1116.53" y1="1404.74" x2="1116.48" y2="1443.75" gradientUnits="userSpaceOnUse">
      <stop stop-color="#DEF8F9"/>
      <stop offset="1" stop-color="#F6FDFD"/>
    </linearGradient>
    <linearGradient id="paint39_linear" x1="1140.5" y1="1424.9" x2="1158.91" y2="1387.53" gradientUnits="userSpaceOnUse">
      <stop stop-color="#71E2FB" stop-opacity="0.65"/>
      <stop offset="0.243575" stop-color="#71E2FB" stop-opacity="0.467969"/>
      <stop offset="0.477954" stop-color="#71E2FB" stop-opacity="0.314343"/>
      <stop offset="0.712333" stop-color="#71E2FB" stop-opacity="0.149743"/>
      <stop offset="1" stop-color="#71E2FB" stop-opacity="0"/>
    </linearGradient>
    <linearGradient id="paint40_linear" x1="913.175" y1="1694.04" x2="816.38" y2="1756.11" gradientUnits="userSpaceOnUse">
      <stop stop-color="#BCBEFF"/>
      <stop offset="0.23" stop-color="#AAADF8"/>
      <stop offset="0.68" stop-color="#7C83E5"/>
      <stop offset="1" stop-color="#5761D7"/>
    </linearGradient>
    <linearGradient id="paint41_linear" x1="926.722" y1="1715.49" x2="801.787" y2="1721.94" gradientUnits="userSpaceOnUse">
      <stop stop-color="#E9E9FD"/>
      <stop offset="0.36" stop-color="#D3D2F9"/>
      <stop offset="0.71" stop-color="#C5C4F7"/>
      <stop offset="1" stop-color="#C0BFF6"/>
    </linearGradient>
    <linearGradient id="paint42_linear" x1="864.315" y1="1719.73" x2="866.227" y2="1756.75" gradientUnits="userSpaceOnUse">
      <stop stop-color="#DEF8F9"/>
      <stop offset="1" stop-color="#F6FDFD"/>
    </linearGradient>
    <linearGradient id="paint43_linear" x1="-28002.4" y1="19665.3" x2="-34042" y2="19977.3" gradientUnits="userSpaceOnUse">
      <stop stop-color="#E9E9FD"/>
      <stop offset="0.36" stop-color="#D3D2F9"/>
      <stop offset="0.71" stop-color="#C5C4F7"/>
      <stop offset="1" stop-color="#C0BFF6"/>
    </linearGradient>
    <linearGradient id="paint44_linear" x1="900.668" y1="1719.34" x2="928.35" y2="1657.85" gradientUnits="userSpaceOnUse">
      <stop stop-color="#71E2FB" stop-opacity="0.65"/>
      <stop offset="0.243575" stop-color="#71E2FB" stop-opacity="0.467969"/>
      <stop offset="0.477954" stop-color="#71E2FB" stop-opacity="0.314343"/>
      <stop offset="0.712333" stop-color="#71E2FB" stop-opacity="0.149743"/>
      <stop offset="1" stop-color="#71E2FB" stop-opacity="0"/>
    </linearGradient>
  </defs>
</svg>
