<svg preserveAspectRatio="xMinYMin slice" viewBox="0 0 1438 2637" fill="none" xmlns="http://www.w3.org/2000/svg">
  <path d="M0 188.578L215.504 47.5167C261.814 17.2036 318.616 7.43731 372.391 20.542L1438 280.224V2362.01L1135.61 2580.34C1086.05 2616.13 1022.85 2627.28 964.031 2610.63L0 2337.58L0 188.578Z" fill="url(#paint0_linear)"/>
  <path d="M131 1802C131 1788.19 142.193 1777 156 1777H1285C1298.81 1777 1310 1788.19 1310 1802V2438.26C1310 2450.85 1300.64 2461.47 1288.14 2463.06L777.604 2527.79C773.914 2528.26 770.167 2527.9 766.635 2526.73L148.176 2322.93C137.926 2319.56 131 2309.98 131 2299.19L131 1802Z" fill="url(#paint1_linear)" fill-opacity="0.1"/>
  <path d="M76 1997C76 1983.19 87.1929 1972 101 1972H1340C1353.81 1972 1365 1983.19 1365 1997V2440.87C1365 2453.86 1355.05 2464.69 1342.11 2465.79L775.776 2513.68C773.273 2513.89 770.752 2513.73 768.299 2513.19L95.6293 2365.22C84.1657 2362.7 76 2352.54 76 2340.81L76 1997Z" fill="url(#paint2_linear)" fill-opacity="0.1"/>
  <g opacity="0.2" filter="url(#filter0_f)">
    <ellipse rx="89.4834" ry="49.0517" transform="matrix(0.998857 0.0484438 -0.0645119 0.997956 1122.62 2077.38)" fill="#52D8E0"/>
  </g>
  <g opacity="0.2" filter="url(#filter1_f)">
    <ellipse rx="89.4834" ry="49.0516" transform="matrix(0.998857 0.0484437 -0.064512 0.997956 851.553 2362.58)" fill="#52D8E0"/>
  </g>
  <g opacity="0.1" filter="url(#filter2_f)">
    <ellipse rx="127.174" ry="119.453" transform="matrix(0.998864 0.0483466 -0.064652 0.997949 851.322 2084.94)" fill="#52D8E0"/>
  </g>
  <g opacity="0.1" filter="url(#filter3_f)">
    <ellipse rx="240.436" ry="225.839" transform="matrix(0.998864 0.0483465 -0.064652 0.997949 981.542 2168.03)" fill="#52D8E0"/>
  </g>
  <path d="M1026.96 2119.75C1027.2 2119.76 1027.43 2119.71 1027.64 2119.61L1091.01 2086.54C1091.3 2086.36 1091.52 2086.08 1091.62 2085.75C1091.72 2085.41 1091.69 2085.06 1091.54 2084.75C1091.39 2084.44 1091.14 2084.21 1090.82 2084.09C1090.51 2083.97 1090.16 2083.98 1089.84 2084.11L1026.45 2117.17C1026.14 2117.34 1025.89 2117.63 1025.78 2117.97C1025.67 2118.32 1025.69 2118.69 1025.84 2119.02C1025.95 2119.23 1026.11 2119.41 1026.3 2119.54C1026.5 2119.67 1026.73 2119.74 1026.96 2119.75Z" fill="#0E2187" stroke="url(#paint3_linear)"/>
  <path d="M1134.87 2207.34C1135.12 2207.35 1135.37 2207.29 1135.6 2207.17L1244.86 2149.76C1245.09 2149.64 1245.28 2149.46 1245.42 2149.24C1245.56 2149.02 1245.65 2148.77 1245.66 2148.52C1245.67 2148.26 1245.62 2148 1245.5 2147.77C1245.38 2147.55 1245.21 2147.36 1245 2147.22L1152.02 2089.14C1151.7 2088.93 1151.31 2088.86 1150.94 2088.94C1150.56 2089.03 1150.23 2089.26 1150.02 2089.59C1149.8 2089.92 1149.73 2090.32 1149.8 2090.71C1149.88 2091.09 1150.1 2091.42 1150.42 2091.63L1241.35 2148.37L1134.36 2204.58C1134.08 2204.73 1133.85 2204.97 1133.71 2205.26C1133.57 2205.56 1133.53 2205.88 1133.6 2206.2C1133.66 2206.51 1133.82 2206.79 1134.06 2207C1134.3 2207.21 1134.6 2207.33 1134.91 2207.34L1134.87 2207.34Z" fill="#0E2187" stroke="url(#paint4_linear)"/>
  <path d="M1014.71 2013.86L896.421 2075.55C893.191 2077.23 890.794 2075.16 891.071 2070.89L895.293 2005.69C895.568 2001.44 898.409 1996.65 901.64 1994.95L1019.92 1933.31C1023.15 1931.63 1025.55 1933.7 1025.27 1937.98L1021.05 2003.14C1020.75 2007.37 1017.94 2012.19 1014.71 2013.86Z" fill="url(#paint5_linear)"/>
  <path d="M896.345 2263.98L1065.43 2174.59C1066.03 2174.27 1066.53 2173.8 1066.91 2173.22C1067.28 2172.64 1067.49 2171.97 1067.54 2171.28C1067.58 2170.59 1067.45 2169.9 1067.16 2169.29C1066.87 2168.68 1066.42 2168.16 1065.87 2167.78L968.623 2102.44L967.86 2101.93L790.765 2195.56C790.167 2195.88 789.657 2196.35 789.286 2196.93C788.916 2197.51 788.697 2198.18 788.653 2198.86C788.608 2199.55 788.739 2200.24 789.033 2200.85C789.326 2201.46 789.772 2201.98 790.325 2202.35L880.916 2263.24C883.172 2264.75 885.785 2265.61 888.493 2265.74C891.2 2265.87 893.908 2265.27 896.345 2263.98ZM1064.17 2170.55C1064.25 2170.62 1064.33 2170.7 1064.37 2170.8C1064.42 2170.9 1064.44 2171.02 1064.43 2171.13C1064.42 2171.24 1064.39 2171.35 1064.33 2171.45C1064.27 2171.54 1064.19 2171.62 1064.09 2171.68L894.872 2261.06C892.936 2262.08 890.786 2262.57 888.635 2262.46C886.484 2262.36 884.409 2261.67 882.617 2260.47L792.027 2199.58C791.938 2199.52 791.867 2199.44 791.821 2199.34C791.774 2199.24 791.753 2199.13 791.761 2199.01C791.768 2198.9 791.803 2198.79 791.862 2198.7C791.921 2198.61 792.003 2198.53 792.099 2198.47L967.542 2105.76L1064.17 2170.55Z" fill="#0E2187" stroke="url(#paint6_linear)"/>
  <path d="M972.006 2061.28L957.871 1918.72L959.801 1918.01L957.041 1916.22C956.714 1916.02 956.336 1915.91 955.952 1915.92C955.567 1915.93 955.19 1916.05 954.866 1916.27L761.196 2017.24C760.38 2017.72 759.697 2018.41 759.217 2019.24C758.737 2020.07 758.476 2021 758.461 2021.96L772.767 2165.65C772.774 2165.96 772.86 2166.27 773.016 2166.53C773.173 2166.8 773.395 2167.01 773.662 2167.16L776.323 2168.92L776.966 2166.31L776.809 2166.3L969.331 2065.95C970.136 2065.47 970.807 2064.79 971.276 2063.97C971.746 2063.15 971.998 2062.22 972.006 2061.28Z" fill="url(#paint7_linear)"/>
  <path d="M761.727 2020.39L758.81 2018.86C758.426 2019.57 758.238 2020.38 758.268 2021.19L772.287 2164.22C772.293 2164.53 772.377 2164.83 772.531 2165.09C772.685 2165.36 772.902 2165.57 773.163 2165.72L775.771 2167.47L776.401 2164.87L776.247 2164.87L785.796 2159.81L761.727 2020.39Z" fill="url(#paint8_linear)"/>
  <path d="M972.187 2067.95L778.465 2168.9C776.976 2169.69 775.775 2169.14 775.673 2167.6L761.379 2023.92C761.386 2022.96 761.643 2022.02 762.124 2021.19C762.605 2020.36 763.293 2019.67 764.116 2019.19L957.772 1918.16C959.26 1917.38 960.461 1917.93 960.563 1919.47L974.928 2063.15C974.931 2064.12 974.678 2065.08 974.195 2065.93C973.713 2066.77 973.019 2067.47 972.187 2067.95Z" fill="#101357"/>
  <g opacity="0.51">
    <path opacity="0.51" d="M954.832 1926.79L768.364 2024.62L781.554 2160.13L967.888 2062.37L954.832 1926.79Z" fill="#453C9E"/>
  </g>
  <path d="M1087.84 2140.66L1077.24 2145.63L978.496 2080.04C977.467 2079.5 976.323 2079.21 975.156 2079.2C973.989 2079.2 972.831 2079.47 971.775 2080L787.927 2175.94C786.289 2174.88 778.808 2170.72 778.808 2170.72L781.91 2180.88C782.079 2181.4 782.425 2181.84 782.886 2182.12L886.871 2251.19C887.9 2251.73 889.044 2252.02 890.211 2252.02C891.378 2252.03 892.536 2251.76 893.592 2251.23L1081.76 2153.05C1082.44 2152.71 1082.98 2152.15 1083.31 2151.47L1087.84 2140.66Z" fill="url(#paint9_linear)"/>
  <path d="M1086.02 2142.43L893.235 2243.02C892.155 2243.56 890.97 2243.84 889.776 2243.83C888.582 2243.83 887.41 2243.54 886.355 2242.98L779.762 2172.22C778.072 2171.09 778.405 2169.28 780.515 2168.19L973.302 2067.6C974.386 2067.06 975.572 2066.78 976.769 2066.79C977.966 2066.79 979.139 2067.08 980.197 2067.64L1086.78 2138.4C1088.47 2139.54 1088.13 2141.34 1086.02 2142.43Z" fill="#8874D5"/>
  <path d="M1086.74 2140.56L893.556 2241.85C892.474 2242.4 891.286 2242.68 890.088 2242.67C888.891 2242.66 887.718 2242.36 886.663 2241.8L779.853 2170.54C779.375 2170.26 779.022 2169.8 778.863 2169.26C778.694 2169.71 778.694 2170.21 778.864 2170.65C779.034 2171.09 779.361 2171.45 779.781 2171.66L886.592 2242.91C887.649 2243.47 888.822 2243.76 890.019 2243.77C891.216 2243.78 892.403 2243.5 893.486 2242.95L1086.67 2141.66C1088.16 2140.93 1088.68 2139.86 1088.42 2138.89C1088.07 2139.64 1087.47 2140.23 1086.74 2140.56Z" fill="url(#paint10_linear)"/>
  <path d="M838.925 2215.05L839.06 2212.97C839.073 2212.78 839.193 2212.7 839.331 2212.79L846.245 2217.35C846.321 2217.41 846.383 2217.49 846.424 2217.58C846.466 2217.68 846.486 2217.78 846.485 2217.88L846.351 2219.95C846.337 2220.15 846.202 2220.23 846.064 2220.14L839.151 2215.58C839.076 2215.52 839.017 2215.44 838.978 2215.34C838.939 2215.25 838.921 2215.15 838.925 2215.05Z" fill="#2842A2"/>
  <path d="M849.381 2221.91L849.515 2219.85C849.528 2219.64 849.649 2219.56 849.787 2219.65L856.7 2224.22C856.776 2224.28 856.837 2224.36 856.876 2224.45C856.915 2224.54 856.933 2224.64 856.926 2224.74L856.791 2226.82C856.779 2227.01 856.658 2227.09 856.52 2227L849.607 2222.44C849.532 2222.38 849.473 2222.3 849.434 2222.2C849.395 2222.11 849.377 2222.01 849.381 2221.91Z" fill="#2842A2"/>
  <path d="M808.87 2167.49L969.065 2083.91C969.589 2083.63 970.174 2083.5 970.76 2083.53C971.345 2083.56 971.91 2083.74 972.394 2084.07L1025.23 2119.23C1025.41 2119.35 1025.55 2119.51 1025.64 2119.7C1025.73 2119.89 1025.77 2120.1 1025.76 2120.31C1025.74 2120.52 1025.68 2120.73 1025.56 2120.9C1025.44 2121.08 1025.29 2121.23 1025.1 2121.33L864.994 2204.86C864.47 2205.14 863.885 2205.27 863.299 2205.25C862.713 2205.22 862.149 2205.03 861.664 2204.7L808.746 2169.62C808.562 2169.51 808.412 2169.35 808.312 2169.16C808.212 2168.97 808.166 2168.75 808.178 2168.53C808.191 2168.31 808.262 2168.1 808.384 2167.91C808.506 2167.73 808.674 2167.58 808.87 2167.49Z" fill="#101357" fill-opacity="0.55"/>
  <path d="M808.427 2169.97L808.954 2170.34L968.805 2086.7C969.331 2086.43 969.916 2086.3 970.501 2086.33C971.086 2086.36 971.651 2086.54 972.139 2086.87L1024.53 2121.82L1025.1 2121.52C1025.28 2121.42 1025.44 2121.28 1025.56 2121.1C1025.67 2120.92 1025.74 2120.71 1025.75 2120.5C1025.77 2120.29 1025.73 2120.07 1025.64 2119.89C1025.54 2119.7 1025.4 2119.54 1025.23 2119.42L972.258 2084.11C971.773 2083.78 971.208 2083.6 970.621 2083.57C970.035 2083.54 969.449 2083.67 968.924 2083.95L808.505 2167.87C808.321 2167.97 808.165 2168.12 808.054 2168.31C807.944 2168.49 807.881 2168.7 807.873 2168.91C807.865 2169.12 807.912 2169.33 808.01 2169.52C808.107 2169.71 808.251 2169.86 808.427 2169.97Z" fill="#9198DB"/>
  <path d="M975.765 2092.6L836.606 2165.21L830.881 2161.4L970.04 2088.8L975.765 2092.6Z" fill="#101357"/>
  <path d="M989.987 2102.01L859.462 2170.11L853.737 2166.3L984.262 2098.2L989.987 2102.01Z" fill="#101357"/>
  <path d="M999.261 2107.91L845.572 2188.09L839.833 2184.28L993.521 2104.1L999.261 2107.91Z" fill="#101357"/>
  <path d="M1008.51 2113.98L854.822 2194.16L849.097 2190.35L1002.77 2110.17L1008.51 2113.98Z" fill="#101357"/>
  <path d="M1017.77 2120.05L864.095 2200.24L858.356 2196.43L1012.04 2116.26L1017.77 2120.05Z" fill="#101357"/>
  <path d="M828.211 2168.38L822.016 2171.61L816.277 2167.8L822.47 2164.58L828.211 2168.38Z" fill="#101357"/>
  <path d="M849.081 2174.3L836.243 2180.99L830.503 2177.18L843.356 2170.49L849.081 2174.3Z" fill="#101357"/>
  <path d="M968.275 2197.38L1011.47 2174.84C1011.84 2174.73 1012.16 2174.51 1012.39 2174.21C1012.63 2173.9 1012.77 2173.54 1012.79 2173.16C1012.82 2172.77 1012.73 2172.4 1012.53 2172.07C1012.33 2171.75 1012.04 2171.5 1011.7 2171.36L984.362 2153.2C983.484 2152.68 982.492 2152.38 981.469 2152.33C980.446 2152.28 979.422 2152.48 978.481 2152.92L935.211 2175.44C934.85 2175.55 934.529 2175.77 934.293 2176.07C934.056 2176.37 933.916 2176.74 933.891 2177.12C933.867 2177.5 933.959 2177.88 934.155 2178.2C934.351 2178.52 934.642 2178.77 934.986 2178.92L962.351 2197.09C963.237 2197.61 964.236 2197.91 965.266 2197.96C966.296 2198.01 967.327 2197.81 968.275 2197.38Z" fill="url(#paint11_linear)"/>
  <path d="M934.947 2177.08L978.284 2154.36C979.228 2153.93 980.253 2153.73 981.277 2153.78C982.301 2153.83 983.295 2154.13 984.177 2154.65L1011.6 2172.96C1012.02 2173.22 1012.35 2173.59 1012.56 2174.04C1013.05 2173.21 1012.78 2172.25 1011.7 2171.52L984.298 2153.23C983.418 2152.7 982.424 2152.4 981.398 2152.35C980.373 2152.3 979.346 2152.5 978.404 2152.94L935.039 2175.64C933.869 2176.25 933.491 2177.18 933.855 2178.05C934.122 2177.63 934.501 2177.29 934.947 2177.08Z" fill="#9198DB"/>
  <mask id="mask0" style="mask-type:alpha" maskUnits="userSpaceOnUse" x="767" y="1927" width="202" height="233">
    <path opacity="0.51" d="M954.732 1927.28L767.857 2024.38L781.654 2159.64L968.395 2062.61L954.732 1927.28Z" fill="#13155B"/>
  </mask>
  <g mask="url(#mask0)">
    <path opacity="0.11" d="M972.354 2067.68L779.567 2167.65C778.489 2168.2 777.303 2168.48 776.105 2168.47C774.908 2168.46 773.734 2168.17 772.679 2167.6L665.791 2096.84C664.094 2095.72 664.438 2093.93 666.549 2092.82L859.321 1992.84C860.402 1992.3 861.591 1992.02 862.79 1992.03C863.99 1992.04 865.166 1992.33 866.224 1992.9L973.098 2063.66C974.794 2064.78 974.465 2066.57 972.354 2067.68Z" fill="url(#paint12_linear)"/>
    <path opacity="0.11" d="M784.334 2077.98L827.532 2055.59C827.893 2055.48 828.214 2055.26 828.45 2054.96C828.686 2054.66 828.825 2054.3 828.849 2053.91C828.873 2053.53 828.78 2053.16 828.583 2052.84C828.386 2052.51 828.094 2052.26 827.749 2052.12L800.312 2033.89C799.426 2033.37 798.43 2033.08 797.405 2033.02C796.38 2032.97 795.353 2033.17 794.409 2033.59L751.21 2056C750.849 2056.11 750.528 2056.33 750.292 2056.63C750.056 2056.93 749.916 2057.29 749.892 2057.67C749.869 2058.05 749.962 2058.43 750.159 2058.75C750.356 2059.07 750.647 2059.32 750.993 2059.47L778.435 2077.63C779.312 2078.16 780.306 2078.47 781.332 2078.53C782.358 2078.59 783.387 2078.4 784.334 2077.98Z" fill="url(#paint13_linear)"/>
    <path opacity="0.11" d="M750.989 2057.63L794.26 2035.09C795.205 2034.65 796.234 2034.45 797.262 2034.51C798.291 2034.56 799.289 2034.86 800.173 2035.39L827.66 2053.67C828.071 2053.94 828.403 2054.31 828.622 2054.76C829.094 2053.94 828.835 2052.97 827.749 2052.25L800.265 2033.91C799.378 2033.39 798.381 2033.09 797.354 2033.04C796.327 2032.99 795.299 2033.18 794.353 2033.61L751.081 2056.16C749.912 2056.76 749.535 2057.69 749.902 2058.56C750.175 2058.15 750.551 2057.83 750.989 2057.63Z" fill="#9198DB"/>
    <path opacity="0.11" d="M729.684 2113.58L889.894 2030.5C890.417 2030.23 890.999 2030.1 891.582 2030.13C892.165 2030.16 892.727 2030.35 893.214 2030.67L946.215 2065.83C946.388 2065.95 946.528 2066.11 946.62 2066.29C946.713 2066.48 946.754 2066.69 946.741 2066.9C946.728 2067.12 946.66 2067.32 946.545 2067.5C946.43 2067.68 946.271 2067.82 946.084 2067.92L785.978 2150.97C785.454 2151.24 784.872 2151.37 784.289 2151.34C783.707 2151.31 783.144 2151.13 782.658 2150.81L729.579 2115.73C729.394 2115.62 729.243 2115.46 729.142 2115.26C729.04 2115.07 728.992 2114.85 729.003 2114.63C729.014 2114.41 729.083 2114.2 729.203 2114.01C729.323 2113.83 729.489 2113.68 729.684 2113.58Z" fill="#ADB1F2"/>
    <path opacity="0.11" d="M729.319 2115.99L729.847 2116.34L889.66 2033.27C890.183 2033 890.766 2032.87 891.35 2032.9C891.934 2032.93 892.497 2033.11 892.983 2033.44L945.498 2068.36L946.082 2068.07C946.268 2067.97 946.427 2067.82 946.543 2067.64C946.658 2067.47 946.726 2067.26 946.739 2067.05C946.752 2066.84 946.71 2066.63 946.618 2066.44C946.526 2066.25 946.386 2066.09 946.212 2065.97L893.154 2030.7C892.667 2030.37 892.104 2030.19 891.521 2030.16C890.938 2030.13 890.355 2030.26 889.831 2030.53L729.45 2113.88C729.264 2113.98 729.105 2114.13 728.99 2114.31C728.875 2114.48 728.807 2114.69 728.794 2114.9C728.781 2115.12 728.822 2115.33 728.914 2115.52C729.006 2115.71 729.146 2115.87 729.319 2115.99Z" fill="#9198DB"/>
    <path opacity="0.11" d="M932.125 2062.98L792.562 2135.36L797.691 2138.77L937.268 2066.39L932.125 2062.98Z" fill="#070F4B"/>
    <path opacity="0.11" d="M918.34 2053.98L785.69 2122.77L790.819 2126.18L923.484 2057.37L918.34 2053.98Z" fill="#070F4B"/>
    <path opacity="0.11" d="M775.784 2126.94L763.394 2133.37L768.524 2136.76L780.914 2130.34L775.784 2126.94Z" fill="#070F4B"/>
    <path opacity="0.11" d="M785.801 2137.9L777.181 2142.38L782.311 2145.78L790.945 2141.3L785.801 2137.9Z" fill="#070F4B"/>
    <path opacity="0.11" d="M909.707 2048.16L754.761 2128.53L759.905 2131.93L914.85 2051.57L909.707 2048.16Z" fill="#070F4B"/>
    <path opacity="0.11" d="M901.081 2042.51L746.122 2122.86L751.265 2126.27L906.21 2045.9L901.081 2042.51Z" fill="#070F4B"/>
    <path opacity="0.11" d="M892.444 2036.83L737.498 2117.2L742.628 2120.6L897.573 2040.24L892.444 2036.83Z" fill="#070F4B"/>
  </g>
  <path d="M783.116 2032.53L779.411 2034.69L779.17 2031.97L782.859 2029.83L783.116 2032.53Z" fill="#2EFFEC"/>
  <path d="M784.938 2050.76L781.282 2052.91L779.813 2037.12L783.453 2034.98L784.938 2050.76Z" fill="#2EFFEC"/>
  <path d="M785.946 2059.48L782.26 2061.63L781.679 2055.34L785.35 2053.21L785.946 2059.48Z" fill="#2EFFEC"/>
  <path d="M786.89 2068.52L783.22 2070.65L782.624 2064.39L786.309 2062.23L786.89 2068.52Z" fill="#2EFFEC"/>
  <path d="M789.552 2038.13L785.88 2040.28L785.285 2033.99L788.955 2031.86L789.552 2038.13Z" fill="#2EFFEC"/>
  <path d="M790.786 2050.1L787.127 2052.24L786.252 2043.03L789.925 2040.88L790.786 2050.1Z" fill="#2EFFEC"/>
  <path d="M791.97 2061.12L788.293 2063.25L787.561 2055.34L791.224 2053.2L791.97 2061.12Z" fill="#2EFFEC"/>
  <path d="M787.848 2077.55L784.163 2079.69L783.582 2073.41L787.252 2071.27L787.848 2077.55Z" fill="#2EFFEC"/>
  <path d="M788.659 2029.41L784.954 2031.56L784.698 2028.85L788.402 2026.71L788.659 2029.41Z" fill="#2EFFEC"/>
  <path d="M791.581 2084.72L785.115 2088.47L784.867 2085.84L791.334 2082.09L791.581 2084.72Z" fill="#2EFFEC"/>
  <path d="M1001.51 2298.14L1152.05 2219.61C1152.6 2219.36 1153.08 2218.96 1153.42 2218.46C1153.77 2217.95 1153.98 2217.36 1154.03 2216.75C1154.03 2216.04 1153.84 2215.35 1153.48 2214.74C1153.13 2214.13 1152.62 2213.64 1152.01 2213.3L1123.08 2194.14C1121.95 2193.41 1120.67 2192.97 1119.33 2192.86C1118 2192.75 1116.65 2192.97 1115.4 2193.5L964.791 2272.01C964.24 2272.26 963.763 2272.66 963.412 2273.16C963.061 2273.66 962.849 2274.25 962.799 2274.86C962.807 2275.58 962.999 2276.27 963.356 2276.88C963.713 2277.48 964.222 2277.98 964.831 2278.32L993.835 2297.5C995.111 2298.31 996.576 2298.76 998.088 2298.81C999.262 2298.89 1000.44 2298.65 1001.51 2298.14ZM1121.47 2196.57L1150.42 2215.81C1151.08 2216.26 1151.2 2216.62 1151.2 2216.69C1151.19 2216.76 1151.1 2216.88 1150.8 2217.04L1000.26 2295.56C999.463 2295.86 998.611 2295.97 997.771 2295.88C996.93 2295.79 996.123 2295.51 995.41 2295.06L966.424 2275.82C965.773 2275.38 965.652 2275.02 965.656 2274.94C965.661 2274.87 965.755 2274.76 966.055 2274.59L1116.59 2196.07C1117.23 2195.77 1117.93 2195.65 1118.62 2195.71C1119.64 2195.74 1120.62 2196.04 1121.47 2196.57Z" fill="#0E2187" stroke="white"/>
  <path d="M1097.2 2143.91C1093.05 2146.16 1089.27 2149.07 1086.01 2152.52C1082.51 2137.74 1069.24 2132.57 1052.6 2141.23C1038.81 2148.41 1026.3 2163.3 1019.1 2179.23C1016.72 2179.26 1014.38 2179.89 1012.28 2181.06C1003.33 2185.74 995.477 2197.81 994.817 2208.01C994.802 2208.23 994.79 2208.42 994.776 2208.64C991.894 2208.79 989.071 2209.6 986.516 2211.01C975.021 2217.01 965.02 2232.44 964.175 2245.48C963.33 2258.53 971.96 2264.25 983.459 2258.19L1093.48 2200.88C1107.39 2193.72 1119.45 2175.17 1120.48 2159.35C1121.5 2143.52 1111.08 2136.69 1097.2 2143.91Z" fill="url(#paint14_linear)"/>
  <path d="M1097.22 2143.9C1094.86 2145.15 1092.63 2146.65 1090.56 2148.35L1079.16 2140.79C1072.96 2135.8 1063.52 2135.54 1052.65 2141.21C1038.88 2148.4 1026.39 2163.26 1019.19 2179.18C1016.82 2179.21 1014.48 2179.84 1012.39 2181.01C1003.44 2185.68 995.594 2197.75 994.934 2207.94C994.919 2208.16 994.907 2208.35 994.893 2208.57C992.014 2208.72 989.193 2209.52 986.641 2210.93C975.156 2216.92 965.165 2232.34 964.321 2245.37C963.902 2251.84 965.82 2256.49 969.212 2258.84L969.313 2258.85L997.204 2277.43L1005.55 2246.65L1093.47 2200.9C1107.4 2193.66 1119.45 2175.12 1120.48 2159.32C1121.5 2143.51 1111.09 2136.69 1097.22 2143.9Z" fill="url(#paint15_radial)"/>
  <path d="M1143.01 2161.97L1114.72 2143.11C1110.49 2140.22 1104.37 2140.26 1097.35 2143.91C1094.99 2145.17 1092.76 2146.67 1090.69 2148.38L1079.28 2140.8C1073.06 2135.8 1063.62 2135.55 1052.73 2141.22C1038.96 2148.42 1026.46 2163.31 1019.25 2179.24C1016.88 2179.27 1014.54 2179.9 1012.44 2181.08C1003.48 2185.75 995.628 2197.83 994.967 2208.03C994.952 2208.25 994.94 2208.44 994.926 2208.66C992.044 2208.81 989.22 2209.62 986.665 2211.03C975.168 2217.03 965.165 2232.46 964.32 2245.51C963.901 2251.98 965.821 2256.64 969.217 2259L969.318 2259L997.24 2277.61L1005.6 2246.79L1093.61 2200.98C1104.93 2195.08 1114.98 2181.76 1118.94 2168.52L1143.01 2161.97Z" fill="url(#paint16_linear)"/>
  <path d="M1125.59 2162.65C1121.44 2164.89 1117.66 2167.79 1114.4 2171.25C1110.9 2156.48 1097.63 2151.3 1080.99 2159.98C1067.23 2167.14 1054.67 2181.96 1047.49 2197.96C1045.11 2197.99 1042.78 2198.62 1040.68 2199.79C1031.72 2204.48 1023.87 2216.54 1023.21 2226.74C1023.19 2226.96 1023.18 2227.17 1023.17 2227.39C1020.29 2227.52 1017.47 2228.32 1014.92 2229.74C1003.41 2235.73 993.339 2251.16 992.494 2264.21C991.649 2277.25 1000.28 2282.99 1011.86 2276.92L1121.9 2219.68C1135.78 2212.46 1147.85 2193.83 1148.87 2178.07C1149.89 2162.31 1139.47 2155.42 1125.59 2162.65Z" fill="url(#paint17_linear)"/>
  <path d="M1115.21 2172.89C1118.48 2169.4 1122.27 2166.47 1126.44 2164.22C1133.24 2160.66 1139.21 2160.51 1143.43 2163.13C1139.2 2159.86 1132.83 2159.74 1125.49 2163.58C1121.57 2165.69 1117.97 2168.4 1114.84 2171.63C1114.99 2172.05 1115.11 2172.46 1115.21 2172.89Z" fill="url(#paint18_linear)"/>
  <path d="M993.52 2264.52C994.363 2251.51 1004.34 2236.11 1015.8 2230.14C1018.34 2228.73 1021.15 2227.93 1024.02 2227.78C1024.03 2227.56 1024.05 2227.37 1024.06 2227.15C1024.72 2216.97 1032.52 2204.93 1041.48 2200.27C1043.57 2199.1 1045.91 2198.47 1048.28 2198.44C1055.43 2182.48 1067.95 2167.7 1081.69 2160.54C1091.72 2155.31 1100.52 2155.14 1106.7 2159.08C1100.49 2154.49 1091.31 2154.4 1080.75 2159.91C1067.03 2167.05 1054.51 2181.84 1047.35 2197.79C1044.98 2197.83 1042.65 2198.46 1040.56 2199.62C1031.62 2204.3 1023.8 2216.33 1023.14 2226.5C1023.12 2226.72 1023.11 2226.93 1023.1 2227.15C1020.22 2227.28 1017.41 2228.08 1014.86 2229.49C1003.4 2235.47 993.427 2250.86 992.584 2263.88C992.151 2270.57 994.216 2275.32 997.883 2277.56C994.802 2275.16 993.123 2270.66 993.52 2264.52Z" fill="#BCBEFF"/>
  <path d="M906.992 2326.77L904.528 2324.86L980.021 2283.71L981.316 2286.27L906.992 2326.77Z" fill="#0E2187" stroke="white"/>
  <path d="M798.892 2318.88C799.208 2318.89 799.521 2318.8 799.782 2318.61C800.043 2318.42 800.238 2318.16 800.336 2317.85C800.435 2317.54 800.432 2317.21 800.328 2316.91C800.223 2316.6 800.024 2316.35 799.759 2316.17L740.349 2279.07L833.055 2230.38C833.381 2230.19 835.337 2228.84 835.449 2228.48C835.561 2228.12 834.58 2228.29 834.415 2227.96C834.251 2227.62 833.435 2227.25 833.086 2227.13C832.737 2227.01 832.122 2227.61 831.783 2227.77L736.779 2277.67C736.552 2277.79 736.359 2277.97 736.221 2278.19C736.083 2278.42 736.003 2278.67 735.992 2278.93C735.979 2279.19 736.034 2279.44 736.151 2279.67C736.268 2279.9 736.442 2280.09 736.657 2280.22L798.228 2318.67C798.429 2318.8 798.656 2318.87 798.892 2318.88Z" fill="#0E2187" stroke="url(#paint19_linear)"/>
  <path d="M959.008 1967.11L889.634 2003.35C886.41 2005.03 883.573 2009.83 883.3 2014.06L879.087 2079.19C878.812 2083.43 881.205 2085.49 884.426 2083.85L966.369 2041.03L959.008 1967.11Z" fill="#101357"/>
  <path d="M1023.75 1933.3L1020.64 1930.75C1020.07 1930.32 1019.38 1930.08 1018.66 1930.06C1017.94 1930.05 1017.24 1930.26 1016.63 1930.66L898.362 1992.3C895.133 1993.98 892.276 1998.79 892.002 2003.02L887.78 2068.22C887.639 2069.07 887.703 2069.93 887.966 2070.74C888.23 2071.55 888.685 2072.28 889.292 2072.86L892.515 2075.5L892.865 2072.97L893.161 2072.86L1011.42 2011.21C1014.66 2009.52 1017.5 2004.73 1017.78 2000.48L1022 1935.28C1022.03 1934.71 1022.01 1934.13 1021.94 1933.56L1023.75 1933.3Z" fill="url(#paint20_linear)"/>
  <path d="M891.954 2000.02L921.05 2019.31L928.942 2015.26L895.975 1993.27C894.073 1995.12 892.685 1997.46 891.954 2000.02Z" fill="url(#paint21_linear)"/>
  <path d="M1014.71 2013.86L896.421 2075.55C893.191 2077.23 890.794 2075.16 891.071 2070.89L895.293 2005.69C895.568 2001.44 898.409 1996.65 901.64 1994.95L1019.92 1933.31C1023.15 1931.63 1025.55 1933.7 1025.27 1937.98L1021.05 2003.14C1020.75 2007.37 1017.94 2012.19 1014.71 2013.86Z" fill="#8E7ADB"/>
  <path d="M891.663 2071.24L895.886 2006.03C896.16 2001.8 899.002 1996.99 902.231 1995.32L1020.5 1933.68C1021 1933.39 1021.56 1933.21 1022.13 1933.17C1022.7 1933.12 1023.28 1933.21 1023.81 1933.41C1023.24 1933.02 1022.57 1932.8 1021.87 1932.8C1021.17 1932.79 1020.49 1933 1019.9 1933.39L901.632 1995.02C898.402 1996.72 895.56 2001.51 895.285 2005.76L891.069 2070.87C890.903 2073.44 891.723 2075.21 893.106 2075.83C892.524 2075.25 892.089 2074.52 891.838 2073.72C891.588 2072.93 891.528 2072.07 891.663 2071.24Z" fill="url(#paint22_linear)"/>
  <path d="M1006.85 1972.29L909.966 2022.72C909.219 2023.12 908.585 2023.32 908.21 2022.64C908.217 2022.54 908.227 2022.38 908.236 2022.24L909.168 2007.85C909.205 2007.28 909.372 2006.72 909.655 2006.22C909.937 2005.72 910.329 2005.3 910.798 2004.98L1008.41 1954.12C1008.49 1954.12 1008.57 1954.01 1008.64 1954.02C1009.33 1954.18 1009.32 1954.84 1009.25 1955.87L1008.59 1969.73C1008.52 1970.27 1008.33 1970.78 1008.02 1971.22C1007.72 1971.67 1007.32 1972.03 1006.85 1972.29Z" fill="#5031B0"/>
  <path d="M1005.3 2003.45L908.201 2053.93C907.454 2054.32 906.49 2054.72 906.416 2053.85C906.411 2053.71 906.419 2053.58 906.442 2053.45L907.376 2039.02C907.411 2038.45 907.577 2037.9 907.86 2037.4C908.143 2036.9 908.535 2036.48 909.006 2036.16L1006.66 1985.3L1006.89 1985.21C1007.64 1984.96 1007.77 1985.91 1007.7 1986.94L1006.81 2000.63C1006.79 2001.18 1006.64 2001.73 1006.38 2002.22C1006.12 2002.71 1005.75 2003.13 1005.3 2003.45Z" fill="#5031B0"/>
  <path d="M1008.7 1954.03C1008.7 1954.16 1008.69 1954.3 1008.67 1954.43L1007.73 1968.88C1007.7 1969.45 1007.53 1970.01 1007.25 1970.51C1006.97 1971 1006.57 1971.43 1006.11 1971.75L908.462 2022.63L908.24 2022.73C908.315 2023.57 908.897 2023.94 909.63 2023.55L1007.22 1972.64C1007.69 1972.33 1008.08 1971.9 1008.36 1971.4C1008.65 1970.9 1008.81 1970.35 1008.85 1969.78L1009.78 1955.35C1009.95 1954.33 1009.43 1953.79 1008.7 1954.03Z" fill="url(#paint23_linear)"/>
  <path d="M1006.95 1985.21C1006.95 1985.34 1006.94 1985.47 1006.92 1985.6L1005.99 2000.06C1005.95 2000.63 1005.79 2001.18 1005.5 2001.68C1005.22 2002.18 1004.83 2002.61 1004.36 2002.93L906.716 2053.81C906.647 2053.85 906.572 2053.88 906.494 2053.89C906.569 2054.75 907.151 2055.11 907.884 2054.72L1005.47 2003.82C1005.94 2003.5 1006.33 2003.08 1006.62 2002.58C1006.9 2002.08 1007.06 2001.52 1007.1 2000.95L1008.04 1986.51C1008.2 1985.5 1007.69 1984.96 1006.95 1985.21Z" fill="url(#paint24_linear)"/>
  <path d="M936.424 2002.14L937.426 2004.41L939.783 2001.72L938.235 1999.9L940.878 1997.44L940.215 1995.27L937.8 1997.97L938.316 1994.65L935.463 1996.13L935.56 1999.06L933.336 1998.81L932.307 2001.84L934.776 2001.64L932.885 2005.33L935.003 2005.67L936.424 2002.14Z" fill="url(#paint25_linear)"/>
  <path d="M947.663 1996.44L948.665 1998.72L951.022 1996.03L949.488 1994.21L952.131 1991.76L951.468 1989.58L949.054 1992.27L949.57 1988.95L946.731 1990.43L946.828 1993.36L944.604 1993.11L943.574 1996.16L946.03 1995.94L944.157 1999.57L946.243 1999.97L947.663 1996.44Z" fill="url(#paint26_linear)"/>
  <path d="M958.896 1990.76L959.899 1993.02L962.256 1990.34L960.722 1988.51L963.366 1986.06L962.688 1983.89L960.273 1986.57L960.79 1983.25L957.951 1984.73L958.048 1987.67L955.746 1987.5L954.717 1990.53L957.172 1990.32L955.33 1993.93L957.462 1994.27L958.896 1990.76Z" fill="url(#paint27_linear)"/>
  <path d="M970.136 1985.05L971.138 1987.32L973.496 1984.63L971.933 1982.81L974.577 1980.35L973.899 1978.18L971.483 1980.88L972.001 1977.54L969.161 1979.03L969.258 1981.97L967.033 1981.73L966.004 1984.77L968.473 1984.56L966.587 1988.18L968.719 1988.52L970.136 1985.05Z" fill="url(#paint28_linear)"/>
  <path d="M981.392 1979.36L982.395 1981.62L984.751 1978.95L983.204 1977.11L985.847 1974.66L985.183 1972.5L982.768 1975.19L983.285 1971.87L980.431 1973.34L980.528 1976.28L978.304 1976.03L977.275 1979.06L979.744 1978.85L977.871 1982.49L979.99 1982.83L981.392 1979.36Z" fill="url(#paint29_linear)"/>
  <path d="M934.677 2033.33L935.679 2035.59L938.036 2032.9L936.488 2031.08L939.131 2028.63L938.468 2026.45L936.053 2029.15L936.57 2025.82L933.716 2027.31L933.813 2030.25L931.588 2030.01L930.559 2033.04L933.024 2032.9L931.138 2036.52L933.256 2036.85L934.677 2033.33Z" fill="url(#paint30_linear)"/>
  <path d="M945.924 2027.63L946.925 2029.91L949.282 2027.22L947.749 2025.4L950.393 2022.93L949.729 2020.77L947.301 2023.44L947.817 2020.12L944.978 2021.6L945.075 2024.54L942.851 2024.29L941.822 2027.32L944.277 2027.11L942.404 2030.75L944.522 2031.09L945.924 2027.63Z" fill="url(#paint31_linear)"/>
  <path d="M957.156 2021.94L958.159 2024.21L960.516 2021.52L958.98 2019.73L961.624 2017.28L960.946 2015.1L958.531 2017.79L959.048 2014.47L956.209 2015.94L956.306 2018.88L954.081 2018.64L953.052 2021.67L955.506 2021.47L953.59 2025.12L955.722 2025.46L957.156 2021.94Z" fill="url(#paint32_linear)"/>
  <path d="M968.394 2016.24L969.397 2018.51L971.754 2015.82L970.191 2014L972.835 2011.54L972.157 2009.37L969.741 2012.07L970.259 2008.73L967.419 2010.23L967.516 2013.16L965.291 2012.92L964.262 2015.96L966.755 2015.83L964.869 2019.45L967.002 2019.79L968.394 2016.24Z" fill="url(#paint33_linear)"/>
  <path d="M979.641 2010.54L980.644 2012.81L983.001 2010.12L981.453 2008.3L984.096 2005.84L983.433 2003.67L981.017 2006.37L981.535 2003.03L978.681 2004.52L978.778 2007.46L976.553 2007.21L975.524 2010.24L977.993 2010.04L976.121 2013.67L978.239 2014.01L979.641 2010.54Z" fill="url(#paint34_linear)"/>
  <g style="mix-blend-mode:lighten" opacity="0.1">
    <path d="M921.701 2261.71L935.439 2270.83L950.267 2263.1L936.529 2253.98L921.701 2261.71Z" fill="#4846A5"/>
  </g>
  <g style="mix-blend-mode:lighten" opacity="0.1">
    <path d="M997.888 2044.46L1011.63 2053.58L1026.45 2045.85L1012.72 2036.73L997.888 2044.46Z" fill="#4846A5"/>
  </g>
  <g style="mix-blend-mode:lighten" opacity="0.1">
    <path d="M1170.12 2141.23L1183.86 2150.35L1198.69 2142.61L1184.95 2133.48L1170.12 2141.23Z" fill="#4846A5"/>
  </g>
  <path d="M1119.88 2106.9C1120.34 2106.92 1120.79 2106.82 1121.2 2106.6L1183.68 2074.02C1184.09 2073.8 1184.45 2073.48 1184.7 2073.09C1184.96 2072.69 1185.11 2072.24 1185.14 2071.77C1185.17 2071.3 1185.07 2070.83 1184.87 2070.42C1184.67 2070 1184.36 2069.65 1183.98 2069.39L1126.11 2030.97C1125.72 2030.72 1125.28 2030.58 1124.82 2030.55C1124.36 2030.53 1123.9 2030.63 1123.49 2030.84L1061.03 2063.43C1060.61 2063.65 1060.26 2063.97 1060 2064.36C1059.75 2064.76 1059.6 2065.21 1059.57 2065.68C1059.53 2066.15 1059.63 2066.62 1059.83 2067.03C1060.03 2067.45 1060.34 2067.8 1060.73 2068.06L1118.59 2106.48C1118.98 2106.73 1119.42 2106.87 1119.88 2106.9ZM1182.02 2071.5L1120.08 2103.8L1062.7 2065.71L1124.64 2033.41L1182.02 2071.5Z" fill="#0E2187" stroke="#DFF8F9"/>
  <path d="M1068.92 2054.61L1069.36 2043.34L1122.54 2075.37L1178.12 2045.75L1177.68 2057.02L1122.04 2088.07L1068.92 2054.61Z" fill="url(#paint35_linear)"/>
  <path d="M1122.27 2077.03L1177.81 2046.18L1124.79 2012.93L1069.25 2043.78L1122.27 2077.03Z" fill="url(#paint36_linear)"/>
  <path opacity="0.5" d="M1121.82 2076.03L1177.45 2046.76L1178.2 2047.26L1121.76 2076.96L1069.46 2041.95L1070.27 2041.53L1121.82 2076.03Z" fill="url(#paint37_linear)"/>
  <path d="M1122.4 2064.77L1157.19 2046.61L1124.96 2025.21L1090.15 2043.36L1122.4 2064.77Z" fill="#0F054C"/>
  <path d="M1122.39 2064.77L1157.2 2046.61L1124.95 2025.21L1090.15 2043.36L1122.39 2064.77Z" fill="url(#paint38_linear)"/>
  <path d="M1090.08 2042.51L1095.25 1962.61L1162.13 1965.14L1156.96 2045.21C1156.95 2045.62 1156.83 2046.02 1156.6 2046.37C1156.38 2046.72 1156.07 2047.01 1155.69 2047.19L1126.95 2062.25C1125.66 2062.9 1123.11 2064.65 1122.14 2065.08C1120.8 2064.06 1118.97 2062.57 1117.77 2061.81L1091.1 2044.73C1090.74 2044.49 1090.45 2044.16 1090.27 2043.77C1090.09 2043.38 1090.02 2042.94 1090.08 2042.51Z" fill="url(#paint39_linear)"/>
  <path opacity="0.4" d="M792.672 2350.33L792.742 2333.93L795.765 2332.27C796.595 2337.39 802.638 2340.8 807.694 2341.53L842.078 2361.76L857.112 2367.23L905.236 2342.74L904.144 2342.11C908.239 2340.21 910.472 2335.86 912.702 2331.87L915.929 2333.8L917.849 2334.37L917.778 2351.04C917.647 2352.3 917.188 2353.5 916.445 2354.53C915.702 2355.56 914.702 2356.38 913.544 2356.91L865.31 2384.37C862.137 2385.96 858.633 2386.78 855.083 2386.77C851.532 2386.75 848.035 2385.9 844.876 2384.29L796.879 2356.41C795.737 2355.89 794.749 2355.08 794.012 2354.07C793.275 2353.05 792.813 2351.87 792.671 2350.62L792.672 2350.33Z" fill="#2EFFEC"/>
  <path d="M792.734 2335.49L792.781 2324.46L795.804 2322.77C796.634 2328 802.676 2331.45 807.733 2332.18L842.115 2352.74L857.149 2358.29L905.275 2333.41L904.183 2332.77C908.278 2330.84 910.51 2326.42 912.741 2322.36L915.968 2324.32L917.888 2324.9L917.839 2336.2C917.709 2337.48 917.249 2338.7 916.507 2339.75C915.764 2340.8 914.764 2341.63 913.606 2342.16L865.369 2370.07C862.196 2371.68 858.692 2372.52 855.142 2372.5C851.592 2372.49 848.095 2371.62 844.936 2369.98L796.94 2341.66C795.798 2341.13 794.811 2340.31 794.074 2339.28C793.336 2338.25 792.875 2337.05 792.732 2335.78L792.734 2335.49Z" fill="url(#paint40_linear)"/>
  <path opacity="0.3" d="M807.729 2332.1L842.104 2352.7L855.192 2357.55L855.129 2372.5C851.571 2372.57 848.057 2371.7 844.924 2369.99L796.938 2341.6C795.796 2341.07 794.809 2340.25 794.072 2339.22C793.335 2338.19 792.873 2336.98 792.731 2335.71L792.733 2335.42L792.78 2324.36L795.535 2322.82L795.827 2322.82C796.753 2327.96 802.722 2331.36 807.729 2332.1Z" fill="#0F054C"/>
  <path d="M865.413 2358.71L913.646 2331.03C919.278 2327.83 919.301 2322.53 913.696 2319.25L865.701 2291.31C862.538 2289.7 859.043 2288.86 855.495 2288.84C851.947 2288.83 848.444 2289.64 845.268 2291.22L797.036 2318.78C791.379 2321.98 791.356 2327.28 796.986 2330.56L844.98 2358.62C848.143 2360.23 851.638 2361.08 855.186 2361.09C858.734 2361.11 862.237 2360.29 865.413 2358.71ZM852.183 2295.5C853.2 2295 854.322 2294.74 855.458 2294.74C856.594 2294.75 857.713 2295.02 858.726 2295.53L906.721 2323.47C907.11 2323.62 907.445 2323.87 907.681 2324.21C907.918 2324.55 908.043 2324.96 908.042 2325.37C908.04 2325.79 907.911 2326.19 907.671 2326.53C907.432 2326.87 907.095 2327.12 906.705 2327.26L858.473 2354.79C857.455 2355.3 856.334 2355.56 855.198 2355.55C854.062 2355.55 852.943 2355.28 851.929 2354.77L803.934 2326.82C803.545 2326.68 803.21 2326.42 802.974 2326.08C802.738 2325.74 802.612 2325.34 802.614 2324.92C802.615 2324.51 802.745 2324.11 802.984 2323.77C803.223 2323.43 803.56 2323.17 803.95 2323.03L852.183 2295.5Z" fill="url(#paint41_linear)"/>
  <path d="M796.99 2330.94L845 2359.26C848.164 2360.88 851.66 2361.74 855.21 2361.75C858.759 2361.77 862.263 2360.94 865.44 2359.35L913.692 2331.41C914.739 2330.92 915.66 2330.2 916.386 2329.29C917.111 2328.38 917.62 2327.32 917.875 2326.19C917.936 2327.59 917.566 2328.97 916.816 2330.15C916.066 2331.34 914.973 2332.26 913.686 2332.79L865.435 2360.58C862.261 2362.18 858.756 2363.01 855.205 2363C851.653 2362.98 848.155 2362.12 844.995 2360.49L796.984 2332.29C793.853 2330.46 792.476 2328.03 792.827 2325.65C793.075 2326.8 793.578 2327.87 794.3 2328.78C795.021 2329.7 795.941 2330.44 796.99 2330.94Z" fill="url(#paint42_linear)"/>
  <path d="M864.163 2358.03L912.322 2330.33C917.201 2327.52 917.22 2323.02 912.366 2320.07L864.446 2291.96C861.702 2290.55 858.666 2289.81 855.584 2289.8C852.502 2289.79 849.46 2290.5 846.705 2291.89L798.351 2319.58C793.472 2322.4 793.453 2326.89 798.307 2329.85L846.325 2357.96C849.081 2359.38 852.134 2360.13 855.235 2360.15C858.335 2360.16 861.395 2359.44 864.163 2358.03ZM850.928 2294.45C852.367 2293.72 853.957 2293.34 855.569 2293.35C857.181 2293.35 858.768 2293.74 860.2 2294.49L908.121 2322.5C908.681 2322.69 909.168 2323.05 909.511 2323.54C909.855 2324.02 910.039 2324.6 910.036 2325.19C910.034 2325.79 909.845 2326.37 909.497 2326.85C909.149 2327.33 908.66 2327.69 908.098 2327.87L859.842 2355.57C858.403 2356.3 856.813 2356.68 855.201 2356.67C853.589 2356.66 852.002 2356.27 850.57 2355.53L802.552 2327.42C801.992 2327.23 801.505 2326.87 801.162 2326.38C800.818 2325.9 800.634 2325.32 800.637 2324.73C800.639 2324.13 800.828 2323.55 801.176 2323.07C801.524 2322.59 802.013 2322.23 802.575 2322.05L850.928 2294.45Z" fill="url(#paint43_linear)"/>
  <path d="M801.316 2324.92L801.878 2193.55L908.016 2194.01L907.453 2325.65C907.48 2326.33 907.323 2327 906.998 2327.59C906.674 2328.18 906.195 2328.66 905.614 2329L860.952 2354.6C858.936 2355.75 856.658 2356.35 854.342 2356.34C852.026 2356.33 849.753 2355.71 847.747 2354.54L803.168 2328.48C802.56 2328.12 802.064 2327.6 801.737 2326.97C801.409 2326.34 801.264 2325.63 801.316 2324.92Z" fill="url(#paint44_linear)"/>
  <path d="M1088.98 2085.19L1085.31 2087.81L1085.44 2089.14L1090.55 2086.76L1088.98 2085.19Z" fill="#0E2187"/>
  <path d="M1154.46 2092.01L1151.31 2089.91L1149.22 2090.96L1154.46 2094.1L1154.46 2092.01Z" fill="#0E2187"/>
  <path d="M844.916 2309.13C844.812 2309.07 844.747 2308.95 844.747 2308.83L844.747 2306.74C844.747 2306.62 844.812 2306.5 844.916 2306.44L846.195 2305.7C846.201 2305.96 846.336 2306.17 846.537 2306.29L845.427 2306.94L845.427 2308.63L846.901 2309.48L848.374 2308.63L848.374 2306.94L847.265 2306.29C847.465 2306.17 847.604 2305.96 847.607 2305.7L848.885 2306.44C848.99 2306.5 849.055 2306.62 849.055 2306.74L849.055 2308.83C849.055 2308.95 848.99 2309.07 848.885 2309.13L847.07 2310.18C846.966 2310.24 846.833 2310.24 846.729 2310.18L844.916 2309.13Z" fill="#EAF9FF"/>
  <path d="M834.592 2293.81L834.592 2297.85C834.49 2297.79 834.375 2297.76 834.25 2297.76C834.126 2297.76 834.01 2297.79 833.909 2297.85L833.909 2293.81L833.909 2293.61C833.909 2293.49 833.974 2293.38 834.078 2293.31L834.247 2293.21L838.115 2290.98L838.284 2290.88C838.389 2290.82 838.521 2290.82 838.626 2290.88L838.795 2290.98L842.68 2293.22L842.64 2293.25L842.527 2293.31C842.423 2293.37 842.358 2293.49 842.358 2293.61L842.358 2293.8L842.358 2293.82L838.457 2291.57C838.457 2291.57 834.592 2293.81 834.592 2293.81Z" fill="#EAF9FF"/>
  <path d="M833.887 2299.07L830.657 2300.93L830.657 2302.8C830.657 2302.92 830.592 2303.03 830.488 2303.09L828.673 2304.14C828.568 2304.2 828.436 2304.2 828.331 2304.14L826.516 2303.09C826.411 2303.03 826.347 2302.92 826.347 2302.8L826.347 2300.7C826.347 2300.58 826.411 2300.47 826.516 2300.4L828.331 2299.36C828.436 2299.3 828.568 2299.3 828.673 2299.36L830.347 2300.32L833.545 2298.48C833.548 2298.73 833.683 2298.95 833.887 2299.07ZM828.5 2300.05L827.027 2300.9L827.027 2302.6L828.5 2303.45L829.974 2302.6L829.974 2301.22C829.881 2301.2 829.799 2301.15 829.748 2301.06C829.692 2300.97 829.695 2300.85 829.737 2300.76L828.5 2300.05Z" fill="#EAF9FF"/>
  <path d="M838.09 2306.36L834.589 2308.38L834.42 2308.48C834.256 2308.57 834.047 2308.52 833.954 2308.35C833.861 2308.19 833.917 2307.98 834.078 2307.89L834.493 2307.65L837.751 2305.77C837.751 2306.02 837.887 2306.23 838.09 2306.36Z" fill="#EAF9FF"/>
  <path d="M838.456 2305.04C838.346 2305.04 838.245 2305.07 838.151 2305.11C838.14 2305.12 838.126 2305.13 838.115 2305.13L838.115 2301.09L834.614 2299.07C834.815 2298.95 834.953 2298.73 834.956 2298.48L836.523 2299.38L838.456 2300.5L842.324 2298.27C842.327 2298.22 842.341 2298.18 842.36 2298.14L842.36 2298.27L842.36 2298.36L842.36 2298.46C842.36 2298.53 842.383 2298.6 842.423 2298.66C842.428 2298.66 842.434 2298.67 842.44 2298.68C842.465 2298.71 842.493 2298.74 842.53 2298.76L842.62 2298.81L842.682 2298.85L842.699 2298.86L838.835 2301.09L838.835 2305.15C838.823 2305.15 838.809 2305.14 838.798 2305.13C838.696 2305.08 838.581 2305.04 838.456 2305.04Z" fill="#EAF9FF"/>
  <path d="M843.043 2298.27L844.977 2299.38L843.043 2298.27Z" fill="#EAF9FF"/>
  <path d="M846.56 2301.09L846.729 2301.19C846.777 2301.22 846.831 2301.23 846.885 2301.23C846.899 2301.23 846.913 2301.23 846.93 2301.23C846.969 2301.23 847.009 2301.22 847.046 2301.2C847.054 2301.2 847.065 2301.2 847.074 2301.19L847.246 2301.09L847.246 2305.07C847.144 2305.01 847.029 2304.98 846.905 2304.98C846.78 2304.98 846.665 2305.01 846.563 2305.07L846.563 2301.09L846.56 2301.09Z" fill="#EAF9FF"/>
  <path d="M831.524 2325.47L831.524 2321.12L829.882 2320.17C829.777 2320.11 829.712 2320 829.712 2319.87L829.712 2317.78C829.712 2317.66 829.777 2317.55 829.882 2317.48L831.524 2316.53L831.524 2312.2L831.524 2311.94C831.524 2311.75 831.668 2311.61 831.849 2311.6C831.855 2311.6 831.86 2311.6 831.866 2311.6C831.872 2311.6 831.877 2311.6 831.883 2311.6C832.063 2311.61 832.207 2311.75 832.207 2311.94L832.207 2312.2L832.207 2316.53L833.85 2317.48C833.955 2317.55 834.02 2317.66 834.02 2317.78L834.02 2319.87C834.02 2320 833.955 2320.11 833.85 2320.17L832.207 2321.12L832.207 2325.47L832.035 2325.37C831.931 2325.31 831.798 2325.31 831.694 2325.37L831.524 2325.47ZM833.339 2319.68L833.339 2317.98L831.88 2317.13C831.857 2317.13 830.395 2317.98 830.395 2317.98L830.395 2319.68L831.869 2320.53L833.339 2319.68Z" fill="#EAF9FF"/>
  <path d="M846.56 2290.67L846.56 2286.78L844.917 2285.84C844.813 2285.77 844.748 2285.66 844.748 2285.54L844.748 2283.44C844.748 2283.32 844.813 2283.21 844.917 2283.15L846.732 2282.1C846.837 2282.04 846.97 2282.04 847.074 2282.1L848.889 2283.15C848.994 2283.21 849.059 2283.32 849.059 2283.44L849.059 2285.54C849.059 2285.66 848.994 2285.77 848.889 2285.84L847.246 2286.78L847.246 2290.73C847.133 2290.65 847.001 2290.61 846.857 2290.61C846.749 2290.61 846.651 2290.63 846.56 2290.67ZM848.375 2285.34L848.375 2283.65L846.902 2282.8L845.428 2283.65L845.428 2285.34L846.888 2286.19C846.916 2286.19 848.375 2285.34 848.375 2285.34Z" fill="#EAF9FF"/>
  <path d="M838.633 2290.88C838.528 2290.82 838.395 2290.82 838.291 2290.88L838.122 2290.98L838.122 2286.52L834.257 2284.29L830.393 2286.52L830.393 2290.98L834.257 2293.21L834.088 2293.31C833.984 2293.37 833.919 2293.49 833.919 2293.61L833.919 2293.8L829.882 2291.48C829.778 2291.41 829.713 2291.3 829.713 2291.18L829.713 2286.32C829.713 2286.2 829.778 2286.09 829.882 2286.03L834.088 2283.6C834.193 2283.54 834.325 2283.54 834.43 2283.6L838.635 2286.03C838.74 2286.09 838.805 2286.2 838.805 2286.32L838.805 2290.98L838.633 2290.88Z" fill="#EAF9FF"/>
  <path d="M834.596 2293.8L838.461 2291.57C838.461 2291.57 834.596 2293.8 834.596 2293.8Z" fill="#EAF9FF"/>
  <path d="M830.901 2286.62L834.083 2284.78C834.247 2284.69 834.455 2284.74 834.549 2284.9C834.58 2284.96 834.594 2285.02 834.594 2285.07C834.594 2285.19 834.532 2285.31 834.424 2285.37L831.243 2287.21C831.079 2287.3 830.87 2287.25 830.777 2287.08C830.681 2286.92 830.738 2286.71 830.901 2286.62Z" fill="#EAF9FF"/>
  <path d="M833.961 2292.6C833.868 2292.43 833.921 2292.22 834.085 2292.13L837.266 2290.29C837.43 2290.2 837.639 2290.25 837.732 2290.42C837.763 2290.47 837.777 2290.53 837.777 2290.59C837.777 2290.7 837.715 2290.82 837.605 2290.88L834.424 2292.72C834.263 2292.82 834.054 2292.76 833.961 2292.6Z" fill="#EAF9FF"/>
  <path d="M829.839 2310.43L831.857 2311.6C831.677 2311.61 831.533 2311.75 831.533 2311.94L831.533 2312.2L829.325 2310.93C829.221 2310.87 829.156 2310.75 829.156 2310.63L829.156 2307.88C829.156 2307.76 829.221 2307.65 829.325 2307.59L831.702 2306.22C831.806 2306.15 831.939 2306.15 832.044 2306.22L834.42 2307.59C834.449 2307.6 834.471 2307.62 834.494 2307.64L834.079 2307.88C833.915 2307.98 833.859 2308.19 833.955 2308.35C834.048 2308.51 834.257 2308.57 834.42 2308.47L834.59 2308.38L834.59 2310.63C834.59 2310.75 834.525 2310.86 834.42 2310.92L832.213 2312.2L832.213 2311.93C832.213 2311.75 832.069 2311.61 831.888 2311.59L833.907 2310.43L833.907 2308.08L831.871 2306.9L829.836 2308.08L829.836 2310.43L829.839 2310.43Z" fill="#EAF9FF"/>
  <path d="M850.396 2297.7C850.427 2297.76 850.441 2297.82 850.441 2297.87C850.441 2297.99 850.379 2298.11 850.272 2298.17L847.091 2300.01C846.927 2300.1 846.718 2300.05 846.625 2299.88C846.532 2299.72 846.585 2299.51 846.749 2299.42L849.93 2297.58C850.091 2297.48 850.3 2297.54 850.396 2297.7Z" fill="#EAF9FF"/>
  <path d="M843.729 2298.21C843.54 2298.21 843.387 2298.06 843.387 2297.87L843.387 2294.19C843.387 2294.01 843.54 2293.85 843.729 2293.85C843.918 2293.85 844.07 2294.01 844.07 2294.19L844.07 2297.87C844.07 2298.06 843.918 2298.21 843.729 2298.21Z" fill="#EAF9FF"/>
  <path d="M846.567 2301.09L842.703 2298.86L842.686 2298.85L842.624 2298.81L842.534 2298.76C842.497 2298.74 842.469 2298.71 842.443 2298.68C842.438 2298.67 842.432 2298.66 842.426 2298.65C842.41 2298.63 842.395 2298.6 842.384 2298.57C842.376 2298.55 842.376 2298.53 842.37 2298.5C842.367 2298.49 842.364 2298.48 842.364 2298.47C842.362 2298.46 842.362 2298.36 842.362 2298.36L842.362 2298.26L842.362 2298.14L842.362 2293.82L842.362 2293.8L842.362 2293.61C842.362 2293.49 842.426 2293.37 842.531 2293.31L842.644 2293.25L842.683 2293.22L846.161 2291.21C846.195 2290.97 846.35 2290.77 846.564 2290.67C846.655 2290.63 846.754 2290.6 846.858 2290.6C847.002 2290.6 847.135 2290.65 847.247 2290.72C847.397 2290.82 847.507 2290.97 847.547 2291.15L851.281 2293.31C851.385 2293.37 851.453 2293.49 851.453 2293.61L851.453 2298.46C851.453 2298.59 851.388 2298.7 851.281 2298.76L847.245 2301.09L847.072 2301.19C847.064 2301.19 847.053 2301.19 847.044 2301.2C847.008 2301.21 846.968 2301.22 846.929 2301.23C846.914 2301.23 846.9 2301.23 846.883 2301.23C846.83 2301.23 846.776 2301.22 846.728 2301.19L846.567 2301.09ZM850.776 2298.27L850.776 2293.8L847.349 2291.83C847.222 2291.95 847.053 2292.02 846.864 2292.02C846.694 2292.02 846.539 2291.96 846.418 2291.86L843.047 2293.8L843.047 2298.27L844.981 2299.38L846.914 2300.5L850.776 2298.27Z" fill="#EAF9FF"/>
  <path d="M831.706 2328.78L830.484 2328.08C830.38 2328.02 830.315 2327.9 830.315 2327.78L830.315 2326.37C830.315 2326.25 830.38 2326.14 830.484 2326.07L831.537 2325.47L831.706 2325.37C831.811 2325.31 831.943 2325.31 832.048 2325.37L832.22 2325.47L833.273 2326.07C833.378 2326.14 833.445 2326.25 833.445 2326.37L833.445 2327.78C833.445 2327.9 833.38 2328.02 833.273 2328.08L832.051 2328.78C831.941 2328.84 831.811 2328.84 831.706 2328.78ZM832.757 2327.58L832.757 2326.57L831.887 2326.07C831.864 2326.07 830.995 2326.57 830.995 2326.57L830.995 2327.58L831.876 2328.09L832.757 2327.58Z" fill="#EAF9FF"/>
  <path d="M837.754 2305.76C837.754 2305.48 837.9 2305.25 838.118 2305.13C838.129 2305.13 838.14 2305.12 838.155 2305.11C838.248 2305.07 838.349 2305.04 838.459 2305.04C838.584 2305.04 838.699 2305.08 838.801 2305.13C838.812 2305.14 838.826 2305.14 838.838 2305.15C839.035 2305.28 839.168 2305.5 839.168 2305.75C839.168 2306.14 838.852 2306.46 838.459 2306.46C838.327 2306.46 838.203 2306.42 838.095 2306.36C837.895 2306.23 837.759 2306.01 837.754 2305.76Z" fill="#EAF9FF"/>
  <path d="M834.961 2298.47C834.955 2298.73 834.817 2298.95 834.617 2299.07C834.509 2299.13 834.385 2299.17 834.252 2299.17C834.12 2299.17 833.995 2299.13 833.888 2299.07C833.688 2298.95 833.549 2298.73 833.547 2298.48C833.544 2298.2 833.693 2297.97 833.911 2297.85C834.012 2297.79 834.128 2297.76 834.252 2297.76C834.377 2297.76 834.492 2297.79 834.594 2297.85C834.811 2297.97 834.961 2298.2 834.961 2298.47Z" fill="#EAF9FF"/>
  <path d="M846.203 2305.7C846.203 2305.42 846.35 2305.19 846.567 2305.07C846.669 2305.01 846.784 2304.98 846.909 2304.98C847.033 2304.98 847.149 2305.01 847.25 2305.07C847.468 2305.19 847.617 2305.42 847.617 2305.69C847.612 2305.95 847.473 2306.17 847.273 2306.29C847.166 2306.36 847.041 2306.4 846.909 2306.4C846.776 2306.4 846.652 2306.36 846.544 2306.29C846.344 2306.17 846.209 2305.95 846.203 2305.7Z" fill="#EAF9FF"/>
  <path d="M868.137 2289.06C868.312 2289.16 868.421 2289.34 868.421 2289.54L868.421 2292.93C868.421 2293.12 868.312 2293.31 868.137 2293.41L865.992 2294.6C865.983 2294.19 865.755 2293.84 865.419 2293.65L867.28 2292.61L867.28 2289.86L864.808 2288.48L862.337 2289.86L862.337 2292.61L864.198 2293.65C863.861 2293.84 863.629 2294.19 863.625 2294.6L861.479 2293.41C861.304 2293.31 861.195 2293.12 861.195 2292.93L861.195 2289.54C861.195 2289.34 861.304 2289.16 861.479 2289.06L864.524 2287.36C864.699 2287.26 864.922 2287.26 865.097 2287.36L868.137 2289.06Z" fill="#EAF9FF"/>
  <path d="M885.463 2313.86L885.463 2307.32C885.634 2307.41 885.828 2307.46 886.036 2307.46C886.245 2307.46 886.439 2307.41 886.609 2307.32L886.609 2313.86L886.609 2314.18C886.609 2314.38 886.5 2314.56 886.325 2314.66L886.041 2314.82L879.554 2318.43L879.27 2318.59C879.095 2318.69 878.873 2318.69 878.697 2318.59L878.413 2318.43L871.898 2314.81L871.965 2314.77L872.154 2314.66C872.329 2314.56 872.438 2314.38 872.438 2314.18L872.438 2313.88L872.438 2313.83L878.982 2317.48C878.982 2317.47 885.463 2313.86 885.463 2313.86Z" fill="#EAF9FF"/>
  <path d="M886.645 2305.34L892.061 2302.33L892.061 2299.31C892.061 2299.11 892.17 2298.93 892.345 2298.83L895.39 2297.14C895.565 2297.03 895.787 2297.03 895.962 2297.14L899.007 2298.83C899.182 2298.93 899.291 2299.11 899.291 2299.31L899.291 2302.7C899.291 2302.9 899.182 2303.08 899.007 2303.18L895.962 2304.88C895.787 2304.98 895.565 2304.98 895.39 2304.88L892.582 2303.31L887.217 2306.3C887.213 2305.89 886.985 2305.54 886.645 2305.34ZM895.678 2303.76L898.15 2302.38L898.15 2299.63L895.678 2298.25L893.207 2299.63L893.207 2301.86C893.363 2301.89 893.5 2301.97 893.586 2302.12C893.68 2302.27 893.676 2302.45 893.605 2302.6L895.678 2303.76Z" fill="#EAF9FF"/>
  <path d="M879.59 2293.54L885.462 2290.27L885.746 2290.11C886.02 2289.96 886.371 2290.05 886.527 2290.31C886.683 2290.58 886.589 2290.92 886.319 2291.07L885.623 2291.46L880.158 2294.5C880.158 2294.09 879.931 2293.74 879.59 2293.54Z" fill="#EAF9FF"/>
  <path d="M878.98 2295.67C879.164 2295.67 879.335 2295.63 879.491 2295.56C879.51 2295.55 879.533 2295.54 879.552 2295.53L879.552 2302.07L885.423 2305.34C885.087 2305.54 884.855 2305.89 884.851 2306.3L882.223 2304.83L878.98 2303.03L872.493 2306.64C872.488 2306.71 872.465 2306.78 872.431 2306.84L872.431 2306.64L872.431 2306.49L872.431 2306.32C872.431 2306.21 872.394 2306.1 872.327 2306.01C872.318 2306 872.308 2305.99 872.299 2305.97C872.256 2305.92 872.209 2305.88 872.147 2305.85L871.996 2305.76L871.892 2305.7L871.863 2305.68L878.345 2302.07L878.345 2295.49C878.364 2295.51 878.388 2295.52 878.407 2295.52C878.577 2295.62 878.771 2295.67 878.98 2295.67Z" fill="#EAF9FF"/>
  <path d="M871.291 2306.64L868.047 2304.84L871.291 2306.64Z" fill="#EAF9FF"/>
  <path d="M865.381 2302.07L865.097 2301.91C865.017 2301.87 864.927 2301.85 864.837 2301.84C864.813 2301.84 864.789 2301.85 864.761 2301.85C864.695 2301.85 864.628 2301.87 864.567 2301.9C864.552 2301.9 864.534 2301.9 864.519 2301.91L864.23 2302.07L864.23 2295.63C864.401 2295.72 864.595 2295.77 864.803 2295.77C865.012 2295.77 865.206 2295.72 865.376 2295.63L865.376 2302.07L865.381 2302.07Z" fill="#EAF9FF"/>
  <path d="M890.603 2262.6L890.603 2269.65L893.359 2271.19C893.534 2271.29 893.643 2271.47 893.643 2271.66L893.643 2275.06C893.643 2275.25 893.534 2275.43 893.359 2275.53L890.603 2277.07L890.603 2284.08L890.603 2284.51C890.603 2284.81 890.362 2285.04 890.059 2285.06C890.049 2285.06 890.04 2285.07 890.031 2285.07C890.021 2285.07 890.012 2285.06 890.002 2285.06C889.699 2285.04 889.458 2284.81 889.458 2284.51L889.458 2284.08L889.458 2277.07L886.702 2275.53C886.527 2275.43 886.418 2275.25 886.418 2275.06L886.418 2271.66C886.418 2271.47 886.527 2271.29 886.702 2271.19L889.458 2269.65L889.458 2262.6L889.746 2262.76C889.922 2262.86 890.144 2262.86 890.319 2262.76L890.603 2262.6ZM887.559 2271.98L887.559 2274.74L890.007 2276.1C890.045 2276.1 892.497 2274.74 892.497 2274.74L892.497 2271.98L890.026 2270.61L887.559 2271.98Z" fill="#EAF9FF"/>
  <path d="M865.382 2318.94L865.382 2325.23L868.137 2326.76C868.312 2326.86 868.421 2327.05 868.421 2327.24L868.421 2330.63C868.421 2330.83 868.312 2331.01 868.137 2331.11L865.093 2332.81C864.918 2332.91 864.695 2332.91 864.52 2332.81L861.475 2331.11C861.3 2331.01 861.191 2330.83 861.191 2330.63L861.191 2327.24C861.191 2327.05 861.3 2326.86 861.475 2326.76L864.231 2325.23L864.231 2318.85C864.42 2318.97 864.643 2319.04 864.884 2319.04C865.064 2319.04 865.23 2319 865.382 2318.94ZM862.337 2327.56L862.337 2330.31L864.809 2331.68L867.28 2330.31L867.28 2327.56L864.832 2326.19C864.785 2326.2 862.337 2327.56 862.337 2327.56Z" fill="#EAF9FF"/>
  <path d="M878.695 2318.59C878.87 2318.69 879.093 2318.69 879.268 2318.59L879.552 2318.43L879.552 2325.66L886.034 2329.27L892.516 2325.66L892.516 2318.43L886.034 2314.82L886.318 2314.66C886.493 2314.56 886.602 2314.38 886.602 2314.19L886.602 2313.87L893.373 2317.63C893.548 2317.74 893.657 2317.92 893.657 2318.11L893.657 2325.98C893.657 2326.17 893.548 2326.36 893.373 2326.46L886.318 2330.39C886.143 2330.49 885.92 2330.49 885.745 2330.39L878.69 2326.46C878.515 2326.36 878.406 2326.17 878.406 2325.98L878.406 2318.43L878.695 2318.59Z" fill="#EAF9FF"/>
  <path d="M885.455 2313.87L878.973 2317.48C878.973 2317.48 885.455 2313.87 885.455 2313.87Z" fill="#EAF9FF"/>
  <path d="M891.655 2325.5L886.318 2328.48C886.043 2328.63 885.693 2328.54 885.537 2328.28C885.485 2328.19 885.461 2328.09 885.461 2328C885.461 2327.81 885.565 2327.62 885.745 2327.52L891.082 2324.55C891.356 2324.4 891.707 2324.48 891.863 2324.75C892.024 2325.01 891.929 2325.35 891.655 2325.5Z" fill="#EAF9FF"/>
  <path d="M886.531 2315.82C886.687 2316.09 886.597 2316.43 886.323 2316.58L880.986 2319.55C880.711 2319.7 880.361 2319.62 880.205 2319.35C880.153 2319.27 880.129 2319.17 880.129 2319.08C880.129 2318.89 880.233 2318.7 880.418 2318.6L885.754 2315.62C886.024 2315.47 886.375 2315.56 886.531 2315.82Z" fill="#EAF9FF"/>
  <path d="M893.433 2286.95L890.048 2285.07C890.351 2285.05 890.593 2284.81 890.593 2284.52L890.593 2284.09L894.295 2286.15C894.47 2286.25 894.579 2286.43 894.579 2286.63L894.579 2291.07C894.579 2291.27 894.47 2291.45 894.295 2291.55L890.308 2293.77C890.133 2293.87 889.911 2293.87 889.736 2293.77L885.749 2291.55C885.702 2291.53 885.664 2291.5 885.626 2291.46L886.322 2291.07C886.596 2290.92 886.691 2290.59 886.53 2290.32C886.374 2290.06 886.024 2289.96 885.749 2290.12L885.465 2290.28L885.465 2286.63C885.465 2286.44 885.574 2286.25 885.749 2286.15L889.451 2284.09L889.451 2284.52C889.451 2284.82 889.693 2285.05 889.996 2285.07L886.611 2286.96L886.611 2290.76L890.024 2292.66L893.438 2290.76L893.438 2286.95L893.433 2286.95Z" fill="#EAF9FF"/>
  <path d="M858.97 2307.56C858.918 2307.47 858.895 2307.37 858.895 2307.28C858.895 2307.09 858.999 2306.9 859.179 2306.8L864.515 2303.83C864.79 2303.68 865.14 2303.76 865.297 2304.03C865.453 2304.29 865.363 2304.63 865.088 2304.78L859.752 2307.76C859.482 2307.91 859.131 2307.82 858.97 2307.56Z" fill="#EAF9FF"/>
  <path d="M870.143 2306.73C870.461 2306.73 870.716 2306.98 870.716 2307.29L870.716 2313.24C870.716 2313.54 870.461 2313.79 870.143 2313.79C869.826 2313.79 869.57 2313.54 869.57 2313.24L869.57 2307.29C869.57 2306.98 869.826 2306.73 870.143 2306.73Z" fill="#EAF9FF"/>
  <path d="M865.379 2302.08L871.861 2305.69L871.89 2305.71L871.994 2305.77L872.145 2305.85C872.207 2305.89 872.254 2305.93 872.297 2305.98C872.306 2306 872.316 2306.01 872.325 2306.02C872.354 2306.06 872.377 2306.11 872.396 2306.16C872.41 2306.19 872.41 2306.22 872.42 2306.26C872.425 2306.28 872.429 2306.29 872.429 2306.31C872.434 2306.33 872.434 2306.5 872.434 2306.5L872.434 2306.65L872.434 2306.85L872.434 2313.84L872.434 2313.88L872.434 2314.19C872.434 2314.39 872.325 2314.57 872.15 2314.67L871.961 2314.77L871.894 2314.81L866.061 2318.06C866.004 2318.46 865.744 2318.79 865.384 2318.95C865.233 2319.01 865.067 2319.05 864.892 2319.05C864.65 2319.05 864.428 2318.98 864.238 2318.86C863.987 2318.7 863.803 2318.45 863.736 2318.16L857.472 2314.67C857.297 2314.57 857.184 2314.39 857.184 2314.19L857.184 2306.33C857.184 2306.13 857.292 2305.95 857.472 2305.85L864.243 2302.08L864.532 2301.92C864.546 2301.91 864.565 2301.91 864.579 2301.9C864.641 2301.88 864.707 2301.86 864.773 2301.85C864.797 2301.85 864.821 2301.85 864.849 2301.85C864.939 2301.85 865.029 2301.87 865.109 2301.92L865.379 2302.08ZM858.32 2306.65L858.32 2313.87L864.068 2317.07C864.281 2316.88 864.565 2316.76 864.882 2316.76C865.166 2316.76 865.427 2316.86 865.63 2317.02L871.284 2313.87L871.284 2306.65L868.04 2304.84L864.797 2303.04L858.32 2306.65Z" fill="#EAF9FF"/>
  <path d="M890.311 2257.24L892.362 2258.39C892.537 2258.49 892.646 2258.67 892.646 2258.87L892.646 2261.15C892.646 2261.35 892.537 2261.53 892.362 2261.63L890.596 2262.61L890.311 2262.77C890.136 2262.87 889.914 2262.87 889.739 2262.77L889.45 2262.61L887.683 2261.63C887.508 2261.53 887.395 2261.35 887.395 2261.15L887.395 2258.87C887.395 2258.67 887.503 2258.49 887.683 2258.39L889.734 2257.24C889.918 2257.15 890.136 2257.15 890.311 2257.24ZM888.55 2259.19L888.55 2260.83L890.008 2261.64C890.046 2261.64 891.505 2260.83 891.505 2260.83L891.505 2259.19L890.027 2258.36L888.55 2259.19Z" fill="#EAF9FF"/>
  <path d="M880.165 2294.51C880.165 2294.97 879.919 2295.34 879.555 2295.53C879.536 2295.54 879.517 2295.55 879.493 2295.56C879.337 2295.64 879.166 2295.68 878.982 2295.68C878.773 2295.68 878.579 2295.62 878.409 2295.53C878.39 2295.52 878.366 2295.51 878.347 2295.5C878.016 2295.3 877.793 2294.94 877.793 2294.53C877.793 2293.9 878.323 2293.38 878.982 2293.38C879.204 2293.38 879.412 2293.45 879.592 2293.55C879.929 2293.75 880.156 2294.11 880.165 2294.51Z" fill="#EAF9FF"/>
  <path d="M884.844 2306.32C884.853 2305.89 885.085 2305.54 885.421 2305.35C885.601 2305.24 885.81 2305.18 886.032 2305.18C886.255 2305.18 886.463 2305.24 886.643 2305.35C886.979 2305.54 887.211 2305.89 887.216 2306.3C887.221 2306.75 886.97 2307.13 886.605 2307.33C886.435 2307.42 886.241 2307.47 886.032 2307.47C885.824 2307.47 885.63 2307.42 885.459 2307.33C885.095 2307.13 884.844 2306.76 884.844 2306.32Z" fill="#EAF9FF"/>
  <path d="M865.99 2294.61C865.99 2295.07 865.743 2295.44 865.379 2295.63C865.208 2295.72 865.014 2295.78 864.806 2295.78C864.597 2295.78 864.403 2295.72 864.233 2295.63C863.868 2295.44 863.617 2295.07 863.617 2294.63C863.627 2294.2 863.859 2293.85 864.195 2293.65C864.375 2293.55 864.583 2293.48 864.806 2293.48C865.028 2293.48 865.237 2293.55 865.417 2293.65C865.753 2293.85 865.98 2294.21 865.99 2294.61Z" fill="#EAF9FF"/>
  <path d="M1130.65 1979.39C1130.46 1979.28 1130.34 1979.07 1130.34 1978.85L1130.34 1975.02C1130.34 1974.8 1130.46 1974.59 1130.65 1974.48L1132.99 1973.13C1133 1973.59 1133.25 1973.99 1133.61 1974.21L1131.59 1975.38L1131.59 1978.49L1134.28 1980.04L1136.97 1978.49L1136.97 1975.38L1134.95 1974.21C1135.31 1973.99 1135.57 1973.59 1135.57 1973.13L1137.91 1974.48C1138.1 1974.59 1138.22 1974.8 1138.22 1975.02L1138.22 1978.85C1138.22 1979.07 1138.1 1979.28 1137.91 1979.39L1134.59 1981.31C1134.4 1981.42 1134.16 1981.42 1133.97 1981.31L1130.65 1979.39Z" fill="#EAF9FF"/>
  <path d="M1111.76 1951.38L1111.76 1958.77C1111.58 1958.66 1111.37 1958.6 1111.14 1958.6C1110.91 1958.6 1110.7 1958.66 1110.52 1958.77L1110.52 1951.38L1110.52 1951.02C1110.52 1950.79 1110.63 1950.59 1110.83 1950.47L1111.14 1950.29L1118.21 1946.21L1118.52 1946.03C1118.71 1945.92 1118.95 1945.92 1119.14 1946.03L1119.45 1946.21L1126.55 1950.31L1126.48 1950.35L1126.27 1950.47C1126.08 1950.58 1125.96 1950.79 1125.96 1951.01L1125.96 1951.36L1125.96 1951.41L1118.83 1947.29C1118.83 1947.29 1111.76 1951.38 1111.76 1951.38Z" fill="#EAF9FF"/>
  <path d="M1110.48 1961L1104.57 1964.41L1104.57 1967.81C1104.57 1968.04 1104.45 1968.24 1104.26 1968.36L1100.94 1970.27C1100.75 1970.38 1100.51 1970.38 1100.32 1970.27L1097 1968.36C1096.81 1968.24 1096.69 1968.04 1096.69 1967.81L1096.69 1963.98C1096.69 1963.76 1096.81 1963.56 1097 1963.44L1100.32 1961.53C1100.51 1961.41 1100.75 1961.41 1100.94 1961.53L1104 1963.29L1109.85 1959.92C1109.86 1960.38 1110.1 1960.78 1110.48 1961ZM1100.63 1962.79L1097.94 1964.35L1097.94 1967.45L1100.63 1969.01L1103.32 1967.45L1103.32 1964.94C1103.15 1964.9 1103 1964.81 1102.91 1964.65C1102.81 1964.47 1102.81 1964.26 1102.89 1964.09L1100.63 1962.79Z" fill="#EAF9FF"/>
  <path d="M1118.17 1974.32L1111.77 1978.02L1111.46 1978.2C1111.16 1978.37 1110.78 1978.27 1110.61 1977.97C1110.44 1977.67 1110.54 1977.29 1110.83 1977.12L1111.59 1976.68L1117.55 1973.24C1117.55 1973.7 1117.8 1974.1 1118.17 1974.32Z" fill="#EAF9FF"/>
  <path d="M1118.83 1971.92C1118.63 1971.92 1118.45 1971.97 1118.28 1972.05C1118.25 1972.06 1118.23 1972.08 1118.21 1972.09L1118.21 1964.7L1111.81 1961C1112.18 1960.78 1112.43 1960.38 1112.43 1959.92L1115.3 1961.58L1118.83 1963.62L1125.9 1959.54C1125.91 1959.45 1125.93 1959.38 1125.97 1959.31L1125.97 1959.54L1125.97 1959.71L1125.97 1959.9C1125.97 1960.03 1126.01 1960.14 1126.08 1960.25C1126.09 1960.26 1126.1 1960.27 1126.12 1960.29C1126.16 1960.35 1126.21 1960.4 1126.28 1960.43L1126.45 1960.53L1126.56 1960.6L1126.59 1960.62L1119.52 1964.7L1119.52 1972.13C1119.5 1972.11 1119.48 1972.1 1119.46 1972.09C1119.27 1971.99 1119.06 1971.92 1118.83 1971.92Z" fill="#EAF9FF"/>
  <path d="M1127.21 1959.54L1130.75 1961.58L1127.21 1959.54Z" fill="#EAF9FF"/>
  <path d="M1133.66 1964.7L1133.97 1964.88C1134.05 1964.93 1134.15 1964.95 1134.25 1964.95C1134.28 1964.95 1134.3 1964.95 1134.33 1964.95C1134.4 1964.94 1134.48 1964.92 1134.54 1964.89C1134.56 1964.89 1134.58 1964.89 1134.6 1964.88L1134.91 1964.7L1134.91 1971.97C1134.72 1971.87 1134.51 1971.81 1134.29 1971.81C1134.06 1971.81 1133.85 1971.87 1133.66 1971.97L1133.66 1964.7L1133.66 1964.7Z" fill="#EAF9FF"/>
  <path d="M1106.17 2009.27L1106.17 2001.32L1103.16 1999.58C1102.97 1999.47 1102.85 1999.26 1102.85 1999.04L1102.85 1995.21C1102.85 1994.99 1102.97 1994.78 1103.16 1994.67L1106.17 1992.93L1106.17 1985.01L1106.17 1984.53C1106.17 1984.19 1106.43 1983.93 1106.76 1983.91C1106.77 1983.91 1106.78 1983.9 1106.79 1983.9C1106.8 1983.9 1106.81 1983.91 1106.82 1983.91C1107.15 1983.93 1107.42 1984.19 1107.42 1984.53L1107.42 1985.01L1107.42 1992.93L1110.42 1994.67C1110.61 1994.78 1110.73 1994.99 1110.73 1995.21L1110.73 1999.04C1110.73 1999.26 1110.61 1999.47 1110.42 1999.58L1107.42 2001.32L1107.42 2009.27L1107.1 2009.09C1106.91 2008.98 1106.67 2008.98 1106.48 2009.09L1106.17 2009.27ZM1109.49 1998.68L1109.49 1995.57L1106.82 1994.03C1106.78 1994.03 1104.1 1995.57 1104.1 1995.57L1104.1 1998.68L1106.8 2000.23L1109.49 1998.68Z" fill="#EAF9FF"/>
  <path d="M1133.66 1945.64L1133.66 1938.54L1130.65 1936.8C1130.46 1936.69 1130.34 1936.48 1130.34 1936.26L1130.34 1932.43C1130.34 1932.21 1130.46 1932 1130.65 1931.89L1133.97 1929.97C1134.16 1929.86 1134.4 1929.86 1134.59 1929.97L1137.91 1931.89C1138.1 1932 1138.22 1932.21 1138.22 1932.43L1138.22 1936.26C1138.22 1936.48 1138.1 1936.69 1137.91 1936.8L1134.91 1938.54L1134.91 1945.74C1134.7 1945.61 1134.46 1945.53 1134.2 1945.53C1134 1945.52 1133.82 1945.57 1133.66 1945.64ZM1136.97 1935.9L1136.97 1932.8L1134.28 1931.24L1131.59 1932.8L1131.59 1935.9L1134.25 1937.45C1134.31 1937.44 1136.97 1935.9 1136.97 1935.9Z" fill="#EAF9FF"/>
  <path d="M1119.14 1946.04C1118.95 1945.92 1118.71 1945.92 1118.52 1946.04L1118.21 1946.22L1118.21 1938.06L1111.14 1933.97L1104.08 1938.06L1104.08 1946.22L1111.14 1950.29L1110.83 1950.47C1110.64 1950.59 1110.52 1950.79 1110.52 1951.02L1110.52 1951.38L1103.14 1947.12C1102.95 1947.01 1102.83 1946.8 1102.83 1946.58L1102.83 1937.7C1102.83 1937.47 1102.95 1937.27 1103.14 1937.15L1110.83 1932.72C1111.02 1932.6 1111.27 1932.6 1111.46 1932.72L1119.15 1937.15C1119.34 1937.27 1119.46 1937.47 1119.46 1937.7L1119.46 1946.22L1119.14 1946.04Z" fill="#EAF9FF"/>
  <path d="M1111.77 1951.38L1118.83 1947.29C1118.83 1947.3 1111.77 1951.38 1111.77 1951.38Z" fill="#EAF9FF"/>
  <path d="M1105.01 1938.24L1110.83 1934.88C1111.13 1934.7 1111.51 1934.8 1111.68 1935.1C1111.74 1935.2 1111.77 1935.31 1111.77 1935.41C1111.77 1935.63 1111.65 1935.84 1111.46 1935.95L1105.64 1939.31C1105.34 1939.48 1104.96 1939.39 1104.79 1939.09C1104.61 1938.79 1104.71 1938.41 1105.01 1938.24Z" fill="#EAF9FF"/>
  <path d="M1110.6 1949.17C1110.43 1948.87 1110.53 1948.48 1110.83 1948.31L1116.64 1944.95C1116.94 1944.78 1117.33 1944.88 1117.5 1945.18C1117.55 1945.28 1117.58 1945.39 1117.58 1945.49C1117.58 1945.71 1117.46 1945.92 1117.26 1946.03L1111.45 1949.39C1111.15 1949.57 1110.77 1949.47 1110.6 1949.17Z" fill="#EAF9FF"/>
  <path d="M1103.08 1981.78L1106.77 1983.91C1106.44 1983.93 1106.18 1984.19 1106.18 1984.53L1106.18 1985.01L1102.14 1982.69C1101.95 1982.57 1101.83 1982.37 1101.83 1982.14L1101.83 1977.12C1101.83 1976.9 1101.95 1976.69 1102.14 1976.58L1106.49 1974.07C1106.68 1973.96 1106.92 1973.96 1107.11 1974.07L1111.46 1976.58C1111.51 1976.61 1111.55 1976.64 1111.59 1976.68L1110.83 1977.12C1110.53 1977.29 1110.43 1977.67 1110.6 1977.97C1110.77 1978.27 1111.16 1978.38 1111.46 1978.2L1111.77 1978.02L1111.77 1982.14C1111.77 1982.36 1111.65 1982.57 1111.46 1982.68L1107.42 1985.01L1107.42 1984.52C1107.42 1984.19 1107.16 1983.92 1106.83 1983.9L1110.52 1981.77L1110.52 1977.47L1106.8 1975.33L1103.07 1977.47L1103.07 1981.78L1103.08 1981.78Z" fill="#EAF9FF"/>
  <path d="M1140.64 1958.5C1140.7 1958.6 1140.73 1958.71 1140.73 1958.81C1140.73 1959.03 1140.61 1959.24 1140.42 1959.35L1134.6 1962.71C1134.3 1962.88 1133.92 1962.79 1133.75 1962.49C1133.58 1962.19 1133.68 1961.81 1133.98 1961.64L1139.79 1958.28C1140.09 1958.1 1140.47 1958.2 1140.64 1958.5Z" fill="#EAF9FF"/>
  <path d="M1128.47 1959.44C1128.12 1959.44 1127.84 1959.16 1127.84 1958.81L1127.84 1952.09C1127.84 1951.75 1128.12 1951.47 1128.47 1951.47C1128.81 1951.47 1129.09 1951.75 1129.09 1952.09L1129.09 1958.81C1129.09 1959.16 1128.81 1959.44 1128.47 1959.44Z" fill="#EAF9FF"/>
  <path d="M1133.66 1964.7L1126.59 1960.61L1126.56 1960.59L1126.45 1960.53L1126.28 1960.43C1126.21 1960.39 1126.16 1960.34 1126.12 1960.28C1126.11 1960.27 1126.1 1960.26 1126.09 1960.24C1126.05 1960.2 1126.03 1960.15 1126.01 1960.09C1125.99 1960.05 1125.99 1960.01 1125.98 1959.97C1125.98 1959.95 1125.97 1959.93 1125.97 1959.91C1125.97 1959.89 1125.97 1959.7 1125.97 1959.7L1125.97 1959.53L1125.97 1959.3L1125.97 1951.41L1125.97 1951.36L1125.97 1951.02C1125.97 1950.79 1126.09 1950.59 1126.28 1950.47L1126.48 1950.35L1126.55 1950.31L1132.91 1946.64C1132.98 1946.2 1133.26 1945.82 1133.65 1945.64C1133.82 1945.57 1134 1945.52 1134.19 1945.52C1134.45 1945.52 1134.69 1945.6 1134.9 1945.74C1135.17 1945.92 1135.37 1946.2 1135.45 1946.53L1142.28 1950.47C1142.47 1950.59 1142.59 1950.79 1142.59 1951.02L1142.59 1959.9C1142.59 1960.12 1142.47 1960.33 1142.28 1960.44L1134.89 1964.7L1134.58 1964.88C1134.56 1964.89 1134.54 1964.88 1134.53 1964.89C1134.46 1964.92 1134.39 1964.94 1134.32 1964.95C1134.29 1964.95 1134.27 1964.96 1134.23 1964.96C1134.14 1964.95 1134.04 1964.93 1133.95 1964.88L1133.66 1964.7ZM1141.35 1959.54L1141.35 1951.38L1135.09 1947.76C1134.85 1947.98 1134.54 1948.11 1134.2 1948.11C1133.89 1948.11 1133.6 1948 1133.38 1947.82L1127.22 1951.38L1127.22 1959.54L1130.76 1961.57L1134.29 1963.61L1141.35 1959.54Z" fill="#EAF9FF"/>
  <path d="M1106.49 2015.34L1104.25 2014.04C1104.06 2013.93 1103.94 2013.72 1103.94 2013.5L1103.94 2010.92C1103.94 2010.7 1104.06 2010.49 1104.25 2010.38L1106.18 2009.27L1106.49 2009.09C1106.68 2008.98 1106.92 2008.98 1107.11 2009.09L1107.43 2009.27L1109.35 2010.38C1109.54 2010.49 1109.67 2010.7 1109.67 2010.92L1109.67 2013.5C1109.67 2013.72 1109.55 2013.93 1109.35 2014.04L1107.12 2015.34C1106.92 2015.44 1106.68 2015.44 1106.49 2015.34ZM1108.41 2013.14L1108.41 2011.28L1106.82 2010.36C1106.78 2010.36 1105.19 2011.28 1105.19 2011.28L1105.19 2013.14L1106.8 2014.07L1108.41 2013.14Z" fill="#EAF9FF"/>
  <path d="M1117.54 1973.24C1117.54 1972.73 1117.8 1972.31 1118.2 1972.09C1118.22 1972.08 1118.24 1972.06 1118.27 1972.05C1118.44 1971.97 1118.62 1971.93 1118.83 1971.93C1119.05 1971.93 1119.26 1971.99 1119.45 1972.09C1119.47 1972.1 1119.5 1972.11 1119.52 1972.13C1119.88 1972.35 1120.12 1972.76 1120.12 1973.22C1120.12 1973.94 1119.54 1974.52 1118.83 1974.52C1118.58 1974.52 1118.36 1974.44 1118.16 1974.33C1117.79 1974.1 1117.55 1973.7 1117.54 1973.24Z" fill="#EAF9FF"/>
  <path d="M1112.44 1959.9C1112.43 1960.38 1112.17 1960.78 1111.81 1961C1111.61 1961.12 1111.38 1961.19 1111.14 1961.19C1110.9 1961.19 1110.67 1961.12 1110.48 1961C1110.11 1960.78 1109.86 1960.38 1109.85 1959.92C1109.85 1959.41 1110.12 1958.99 1110.52 1958.77C1110.7 1958.67 1110.91 1958.6 1111.14 1958.6C1111.37 1958.6 1111.58 1958.67 1111.77 1958.77C1112.16 1958.99 1112.44 1959.41 1112.44 1959.9Z" fill="#EAF9FF"/>
  <path d="M1132.99 1973.13C1132.99 1972.61 1133.26 1972.19 1133.66 1971.97C1133.84 1971.87 1134.06 1971.81 1134.28 1971.81C1134.51 1971.81 1134.72 1971.87 1134.91 1971.97C1135.3 1972.2 1135.58 1972.61 1135.58 1973.11C1135.57 1973.59 1135.31 1973.99 1134.95 1974.21C1134.75 1974.33 1134.53 1974.4 1134.28 1974.4C1134.04 1974.4 1133.81 1974.33 1133.62 1974.21C1133.25 1973.98 1133 1973.59 1132.99 1973.13Z" fill="#EAF9FF"/>
  <path d="M1140.1 2012.35L1140.02 2005.44L1140.18 2005.53C1140.32 2005.61 1140.48 2005.61 1140.62 2005.53L1140.89 2005.38L1140.98 2012.42L1146.21 2015.44L1152.44 2011.79L1152.44 2012.01C1152.44 2012.16 1152.52 2012.31 1152.66 2012.38L1152.9 2012.53L1146.62 2016.22L1146.62 2022.14L1152.85 2025.68L1155.31 2024.26C1155.45 2024.18 1155.61 2024.18 1155.75 2024.26L1158.41 2025.79C1158.54 2025.87 1158.63 2026.01 1158.63 2026.17L1158.63 2029.24C1158.63 2029.4 1158.54 2029.54 1158.41 2029.62L1155.75 2031.15C1155.61 2031.23 1155.45 2031.23 1155.31 2031.15L1152.65 2029.62C1152.52 2029.54 1152.43 2029.4 1152.43 2029.24L1152.43 2026.45L1146.3 2022.97L1141.06 2025.99L1141.06 2031.33L1140.72 2031.14C1140.58 2031.06 1140.41 2031.06 1140.28 2031.14L1140.18 2031.2L1140.18 2026.17L1134.77 2023.04L1130.85 2025.25L1130.85 2026.88C1130.85 2027.04 1130.77 2027.18 1130.63 2027.26L1128.91 2028.26L1128.91 2030.14L1130.15 2030.86C1130.28 2030.94 1130.36 2031.08 1130.36 2031.24L1130.36 2032.92C1130.36 2033.08 1130.28 2033.22 1130.15 2033.3L1128.69 2034.14C1128.55 2034.22 1128.38 2034.22 1128.25 2034.14L1126.79 2033.3C1126.66 2033.22 1126.57 2033.08 1126.57 2032.92L1126.57 2031.24C1126.57 2031.08 1126.66 2030.94 1126.79 2030.86L1128.03 2030.14L1128.03 2028.26L1126.61 2027.44L1124.51 2028.69L1124.51 2030.23C1124.51 2030.39 1124.43 2030.53 1124.29 2030.61L1122.84 2031.45C1122.7 2031.53 1122.53 2031.53 1122.4 2031.45L1120.94 2030.61C1120.8 2030.53 1120.72 2030.39 1120.72 2030.23L1120.72 2028.54C1120.72 2028.39 1120.8 2028.24 1120.94 2028.17L1122.4 2027.33C1122.53 2027.25 1122.7 2027.25 1122.84 2027.33L1123.98 2027.99L1126.09 2026.73L1126.09 2024.88L1123.93 2023.55L1122.86 2024.17C1122.72 2024.25 1122.55 2024.25 1122.42 2024.17L1120.96 2023.33C1120.83 2023.25 1120.74 2023.11 1120.74 2022.95L1120.74 2021.27C1120.74 2021.11 1120.83 2020.97 1120.96 2020.89L1122.42 2020.05C1122.55 2019.97 1122.72 2019.97 1122.86 2020.05L1124.31 2020.89C1124.45 2020.97 1124.53 2021.11 1124.53 2021.27L1124.53 2022.9L1126.53 2024.13L1128.24 2023.14C1128.38 2023.06 1128.55 2023.06 1128.68 2023.14L1130.62 2024.26C1130.65 2024.28 1130.67 2024.31 1130.69 2024.33L1134.31 2022.29L1134.31 2016.59L1128.14 2013.52L1126.74 2014.33C1126.6 2014.41 1126.44 2014.41 1126.3 2014.33L1124.36 2013.21C1124.22 2013.13 1124.14 2012.99 1124.14 2012.83L1124.14 2010.59C1124.14 2010.43 1124.22 2010.29 1124.36 2010.21L1126.3 2009.09C1126.44 2009.01 1126.6 2009.01 1126.74 2009.09L1128.68 2010.21C1128.82 2010.29 1128.9 2010.43 1128.9 2010.59L1128.9 2012.83C1128.9 2012.86 1128.88 2012.89 1128.88 2012.91L1134.42 2015.67C1134.45 2015.63 1134.48 2015.59 1134.53 2015.56L1140.1 2012.35ZM1153.32 2028.99L1155.54 2030.27L1157.76 2028.99L1157.76 2026.42L1155.54 2025.14L1153.74 2026.18L1153.32 2026.42L1153.32 2026.94L1153.32 2028.99ZM1121.61 2029.97L1122.63 2030.56L1123.65 2029.97L1123.65 2029.2L1123.65 2028.8L1123.13 2028.5L1122.63 2028.21L1121.61 2028.8L1121.61 2029.97ZM1123.67 2021.52L1122.65 2020.93L1121.63 2021.52L1121.63 2021.64L1121.63 2022.07L1121.63 2022.7L1122.65 2023.29L1123.09 2023.03L1123.67 2022.7L1123.67 2022.36L1123.67 2021.52L1123.67 2021.52ZM1126.97 2024.89L1126.97 2025.41L1126.97 2026.21L1126.97 2026.44L1126.97 2026.62L1127.48 2026.92L1127.68 2027.04L1128.04 2027.24L1128.48 2027.49L1128.92 2027.24L1129.99 2026.63L1129.99 2025.74L1129.99 2024.89L1129.85 2024.82L1128.48 2024.03L1127.4 2024.65L1126.97 2024.89ZM1128.48 2030.9L1128.04 2031.15L1127.46 2031.48L1127.46 2032.66L1128.15 2033.06L1128.39 2033.2L1128.48 2033.25L1128.57 2033.2L1128.8 2033.06L1129.5 2032.66L1129.5 2031.48L1128.92 2031.15L1128.48 2030.9ZM1128.04 2012.49L1128.04 2010.84L1126.54 2009.97L1125.03 2010.84L1125.03 2012.58L1126.54 2013.45L1127.22 2013.06L1128.04 2012.59L1128.04 2012.49L1128.04 2012.49ZM1135.2 2016.19L1135.2 2017.02L1135.2 2021.79L1135.2 2022.27L1135.66 2022.53L1140.18 2025.15L1140.47 2025.32L1141.06 2024.98L1145.42 2022.46L1145.75 2022.27L1145.75 2021.64L1145.75 2016.73L1145.75 2016.18L1145.34 2015.95L1140.98 2013.43L1140.47 2013.14L1140.11 2013.35L1135.33 2016.11L1135.2 2016.19Z" fill="#67CDF5" fill-opacity="0.5"/>
  <path d="M1141 2014.1L1144.78 2016.29L1144.96 2016.39C1145.09 2016.47 1145.18 2016.61 1145.18 2016.77L1145.18 2017.07L1145.18 2021.32L1145.18 2021.7C1145.18 2021.85 1145.09 2022 1144.96 2022.08L1144.85 2022.14L1141.06 2024.33L1140.7 2024.54C1140.56 2024.61 1140.39 2024.61 1140.26 2024.54L1140.19 2024.49L1136.23 2022.21L1135.99 2022.08C1135.86 2022 1135.78 2021.85 1135.78 2021.7L1135.78 2021.47L1135.78 2017.31L1135.78 2016.77C1135.78 2016.63 1135.85 2016.51 1135.96 2016.43C1135.97 2016.42 1135.98 2016.4 1135.99 2016.39L1140.12 2014.01L1140.26 2013.93C1140.39 2013.85 1140.56 2013.85 1140.7 2013.93L1141 2014.1ZM1136.65 2017.02L1136.65 2017.74L1136.65 2020.97L1136.65 2021.44L1137.12 2021.71L1140.19 2023.48L1140.47 2023.64L1141.06 2023.31L1143.96 2021.63L1144.3 2021.43L1144.3 2020.81L1144.3 2017.57L1144.3 2017.02L1143.9 2016.79L1141.01 2015.12L1140.47 2014.81L1140.13 2015.01L1136.89 2016.89L1136.65 2017.02Z" fill="#67CDF5" fill-opacity="0.5"/>
  <path d="M1154.42 2011.46C1154.48 2011.65 1154.53 2011.84 1154.53 2012.05C1154.53 2013.06 1153.71 2013.87 1152.72 2013.87C1151.71 2013.87 1150.9 2013.05 1150.9 2012.05C1150.9 2011.84 1150.95 2011.65 1151.01 2011.46C1151.09 2011.24 1151.2 2011.05 1151.35 2010.87C1151.69 2010.49 1152.17 2010.24 1152.72 2010.24C1153.27 2010.24 1153.75 2010.49 1154.08 2010.87C1154.23 2011.05 1154.34 2011.24 1154.42 2011.46Z" fill="#67CDF5" fill-opacity="0.5"/>
  <path d="M1142.18 2004.79C1142.25 2004.97 1142.29 2005.17 1142.29 2005.38C1142.29 2006.38 1141.48 2007.19 1140.48 2007.19C1139.48 2007.19 1138.67 2006.38 1138.67 2005.38C1138.67 2005.17 1138.71 2004.97 1138.78 2004.79C1138.85 2004.57 1138.97 2004.37 1139.12 2004.2C1139.45 2003.81 1139.94 2003.56 1140.49 2003.56C1141.03 2003.56 1141.52 2003.81 1141.85 2004.2C1141.99 2004.37 1142.11 2004.57 1142.18 2004.79Z" fill="#67CDF5" fill-opacity="0.5"/>
  <path d="M1142.12 2031.69C1142.15 2031.81 1142.18 2031.94 1142.18 2032.07C1142.18 2032.73 1141.72 2033.27 1141.11 2033.43C1141 2033.45 1140.89 2033.47 1140.77 2033.47C1140.65 2033.47 1140.54 2033.45 1140.43 2033.43C1139.82 2033.27 1139.36 2032.73 1139.36 2032.07C1139.36 2031.29 1139.99 2030.66 1140.77 2030.66C1141.16 2030.66 1141.52 2030.83 1141.78 2031.1C1141.94 2031.27 1142.06 2031.47 1142.12 2031.69Z" fill="#67CDF5" fill-opacity="0.5"/>
  <path d="M836.555 2228.58L831.343 2225.82L830.864 2227.51L836.076 2231.08L836.555 2228.58Z" fill="#142E8F"/>
  <path d="M984.937 2287.8L978.238 2283.01L976.802 2284.45L982.545 2288.27L984.937 2287.8Z" fill="#0E2187"/>
  <defs>
    <filter id="filter0_f" x="989.18" y="1984.24" width="266.876" height="186.292" filterUnits="userSpaceOnUse" color-interpolation-filters="sRGB">
      <feFlood flood-opacity="0" result="BackgroundImageFix"/>
      <feBlend mode="normal" in="SourceGraphic" in2="BackgroundImageFix" result="shape"/>
      <feGaussianBlur stdDeviation="22" result="effect1_foregroundBlur"/>
    </filter>
    <filter id="filter1_f" x="718.113" y="2269.43" width="266.876" height="186.292" filterUnits="userSpaceOnUse" color-interpolation-filters="sRGB">
      <feFlood flood-opacity="0" result="BackgroundImageFix"/>
      <feBlend mode="normal" in="SourceGraphic" in2="BackgroundImageFix" result="shape"/>
      <feGaussianBlur stdDeviation="22" result="effect1_foregroundBlur"/>
    </filter>
    <filter id="filter2_f" x="680.055" y="1921.57" width="342.536" height="326.739" filterUnits="userSpaceOnUse" color-interpolation-filters="sRGB">
      <feFlood flood-opacity="0" result="BackgroundImageFix"/>
      <feBlend mode="normal" in="SourceGraphic" in2="BackgroundImageFix" result="shape"/>
      <feGaussianBlur stdDeviation="22" result="effect1_foregroundBlur"/>
    </filter>
    <filter id="filter3_f" x="696.93" y="1898.35" width="569.228" height="539.362" filterUnits="userSpaceOnUse" color-interpolation-filters="sRGB">
      <feFlood flood-opacity="0" result="BackgroundImageFix"/>
      <feBlend mode="normal" in="SourceGraphic" in2="BackgroundImageFix" result="shape"/>
      <feGaussianBlur stdDeviation="22" result="effect1_foregroundBlur"/>
    </filter>
    <linearGradient id="paint0_linear" x1="747.562" y1="191.078" x2="728.848" y2="2729.26" gradientUnits="userSpaceOnUse">
      <stop stop-color="#070F4B"/>
      <stop offset="0.338897" stop-color="#161660"/>
      <stop offset="0.620267" stop-color="#322387"/>
      <stop offset="1" stop-color="#5B37C0"/>
    </linearGradient>
    <linearGradient id="paint1_linear" x1="661.597" y1="2382.95" x2="640.93" y2="1799.39" gradientUnits="userSpaceOnUse">
      <stop stop-color="white"/>
      <stop offset="1" stop-color="white" stop-opacity="0"/>
    </linearGradient>
    <linearGradient id="paint2_linear" x1="656.102" y1="2408.18" x2="646.3" y2="1987.82" gradientUnits="userSpaceOnUse">
      <stop stop-color="white"/>
      <stop offset="1" stop-color="white" stop-opacity="0"/>
    </linearGradient>
    <linearGradient id="paint3_linear" x1="1059.94" y1="2082.53" x2="1058.07" y2="2121.26" gradientUnits="userSpaceOnUse">
      <stop stop-color="#DEF8F9"/>
      <stop offset="1" stop-color="#F6FDFD"/>
    </linearGradient>
    <linearGradient id="paint4_linear" x1="1174.6" y1="2089.63" x2="1192.99" y2="2186.64" gradientUnits="userSpaceOnUse">
      <stop stop-color="#DEF8F9"/>
      <stop offset="1" stop-color="white"/>
    </linearGradient>
    <linearGradient id="paint5_linear" x1="958.174" y1="2042.06" x2="926.485" y2="1980.96" gradientUnits="userSpaceOnUse">
      <stop stop-color="#C0BFF6"/>
      <stop offset="0.29" stop-color="#C5C4F7"/>
      <stop offset="0.64" stop-color="#D3D2F9"/>
      <stop offset="1" stop-color="#E9E9FD"/>
    </linearGradient>
    <linearGradient id="paint6_linear" x1="933.582" y1="2100.27" x2="925.475" y2="2267.53" gradientUnits="userSpaceOnUse">
      <stop stop-color="#DEF8F9"/>
      <stop offset="1" stop-color="#F6FDFD"/>
    </linearGradient>
    <linearGradient id="paint7_linear" x1="44430.9" y1="27344.2" x2="76789" y2="29439.4" gradientUnits="userSpaceOnUse">
      <stop stop-color="#C0BFF6"/>
      <stop offset="0.29" stop-color="#C5C4F7"/>
      <stop offset="0.64" stop-color="#D3D2F9"/>
      <stop offset="1" stop-color="#E9E9FD"/>
    </linearGradient>
    <linearGradient id="paint8_linear" x1="753.696" y1="2092.5" x2="789.924" y2="2094.81" gradientUnits="userSpaceOnUse">
      <stop stop-color="#5761D7"/>
      <stop offset="0.18" stop-color="#5C66D9"/>
      <stop offset="0.39" stop-color="#6A73DF"/>
      <stop offset="0.61" stop-color="#8289E8"/>
      <stop offset="0.85" stop-color="#A3A7F5"/>
      <stop offset="1" stop-color="#BCBEFF"/>
    </linearGradient>
    <linearGradient id="paint9_linear" x1="-71251.5" y1="28841.4" x2="-136197" y2="24641.4" gradientUnits="userSpaceOnUse">
      <stop stop-color="#5031B0"/>
      <stop offset="0.18" stop-color="#5C66D9"/>
      <stop offset="0.39" stop-color="#6A73DF"/>
      <stop offset="0.61" stop-color="#8289E8"/>
      <stop offset="0.85" stop-color="#A3A7F5"/>
      <stop offset="1" stop-color="#BCBEFF"/>
    </linearGradient>
    <linearGradient id="paint10_linear" x1="935.106" y1="2131.42" x2="929.541" y2="2245.7" gradientUnits="userSpaceOnUse">
      <stop stop-color="#DEF8F9"/>
      <stop offset="1" stop-color="#F6FDFD"/>
    </linearGradient>
    <linearGradient id="paint11_linear" x1="26595.5" y1="11564.2" x2="30855.2" y2="11839.7" gradientUnits="userSpaceOnUse">
      <stop stop-color="#463E90"/>
      <stop offset="0.29" stop-color="#C5C4F7"/>
      <stop offset="0.64" stop-color="#D3D2F9"/>
      <stop offset="1" stop-color="#E9E9FD"/>
    </linearGradient>
    <linearGradient id="paint12_linear" x1="66913.4" y1="26421.1" x2="132020" y2="30496.3" gradientUnits="userSpaceOnUse">
      <stop stop-color="#C0BFF6"/>
      <stop offset="0.29" stop-color="#C5C4F7"/>
      <stop offset="0.64" stop-color="#D3D2F9"/>
      <stop offset="1" stop-color="#E9E9FD"/>
    </linearGradient>
    <linearGradient id="paint13_linear" x1="16757.9" y1="7520.29" x2="21022.1" y2="7787.19" gradientUnits="userSpaceOnUse">
      <stop stop-color="#C0BFF6"/>
      <stop offset="0.29" stop-color="#C5C4F7"/>
      <stop offset="0.64" stop-color="#D3D2F9"/>
      <stop offset="1" stop-color="#E9E9FD"/>
    </linearGradient>
    <linearGradient id="paint14_linear" x1="37447.1" y1="-17566.1" x2="53198.8" y2="-16545.7" gradientUnits="userSpaceOnUse">
      <stop stop-color="#5761D7"/>
      <stop offset="0.18" stop-color="#5C66D9"/>
      <stop offset="0.39" stop-color="#6A73DF"/>
      <stop offset="0.61" stop-color="#8289E8"/>
      <stop offset="0.85" stop-color="#A3A7F5"/>
      <stop offset="1" stop-color="#BCBEFF"/>
    </linearGradient>
    <radialGradient id="paint15_radial" cx="0" cy="0" r="1" gradientUnits="userSpaceOnUse" gradientTransform="translate(1003.78 2182.82) rotate(2.77106) scale(71.6836 73.2145)">
      <stop stop-color="#2B237C"/>
      <stop offset="1" stop-color="#180D5B"/>
    </radialGradient>
    <linearGradient id="paint16_linear" x1="1115" y1="2143.77" x2="991.167" y2="2296.11" gradientUnits="userSpaceOnUse">
      <stop stop-color="#070F4B"/>
      <stop offset="1" stop-color="#422B9D"/>
    </linearGradient>
    <linearGradient id="paint17_linear" x1="40418.1" y1="-16204.2" x2="56178.8" y2="-15183.2" gradientUnits="userSpaceOnUse">
      <stop stop-color="#5031B0"/>
      <stop offset="0.29" stop-color="#7159C6"/>
      <stop offset="0.64" stop-color="#9E89E9"/>
      <stop offset="1" stop-color="#D0D0FF"/>
    </linearGradient>
    <linearGradient id="paint18_linear" x1="1129.59" y1="2160.36" x2="1128.95" y2="2173.56" gradientUnits="userSpaceOnUse">
      <stop stop-color="#DEF8F9"/>
      <stop offset="1" stop-color="#F6FDFD"/>
    </linearGradient>
    <linearGradient id="paint19_linear" x1="787.588" y1="2224.91" x2="783.077" y2="2318.12" gradientUnits="userSpaceOnUse">
      <stop stop-color="#DEF8F9"/>
      <stop offset="1" stop-color="#F6FDFD"/>
    </linearGradient>
    <linearGradient id="paint20_linear" x1="-39401" y1="12935.9" x2="-50216.9" y2="4320.16" gradientUnits="userSpaceOnUse">
      <stop stop-color="#5031B0"/>
      <stop offset="0.18" stop-color="#5C66D9"/>
      <stop offset="0.39" stop-color="#6A73DF"/>
      <stop offset="0.61" stop-color="#8289E8"/>
      <stop offset="0.85" stop-color="#A3A7F5"/>
      <stop offset="1" stop-color="#BCBEFF"/>
    </linearGradient>
    <linearGradient id="paint21_linear" x1="12426.7" y1="4184.98" x2="12653" y2="3925.61" gradientUnits="userSpaceOnUse">
      <stop stop-color="#C0BFF6"/>
      <stop offset="0.29" stop-color="#C5C4F7"/>
      <stop offset="0.64" stop-color="#D3D2F9"/>
      <stop offset="1" stop-color="#E9E9FD"/>
    </linearGradient>
    <linearGradient id="paint22_linear" x1="962.117" y1="1929.9" x2="954.906" y2="2078.83" gradientUnits="userSpaceOnUse">
      <stop stop-color="#DEF8F9"/>
      <stop offset="1" stop-color="#F6FDFD"/>
    </linearGradient>
    <linearGradient id="paint23_linear" x1="961.436" y1="1951.67" x2="957.834" y2="2026.06" gradientUnits="userSpaceOnUse">
      <stop stop-color="#DEF8F9"/>
      <stop offset="1" stop-color="#F6FDFD"/>
    </linearGradient>
    <linearGradient id="paint24_linear" x1="959.69" y1="1982.84" x2="956.088" y2="2057.24" gradientUnits="userSpaceOnUse">
      <stop stop-color="#DEF8F9"/>
      <stop offset="1" stop-color="#F6FDFD"/>
    </linearGradient>
    <linearGradient id="paint25_linear" x1="936.92" y1="1994.58" x2="936.38" y2="2005.74" gradientUnits="userSpaceOnUse">
      <stop stop-color="#DEF8F9"/>
      <stop offset="1" stop-color="#F6FDFD"/>
    </linearGradient>
    <linearGradient id="paint26_linear" x1="948.181" y1="1988.88" x2="947.641" y2="2000.04" gradientUnits="userSpaceOnUse">
      <stop stop-color="#DEF8F9"/>
      <stop offset="1" stop-color="#F6FDFD"/>
    </linearGradient>
    <linearGradient id="paint27_linear" x1="959.372" y1="1983.18" x2="958.832" y2="1994.34" gradientUnits="userSpaceOnUse">
      <stop stop-color="#DEF8F9"/>
      <stop offset="1" stop-color="#F6FDFD"/>
    </linearGradient>
    <linearGradient id="paint28_linear" x1="970.619" y1="1977.48" x2="970.081" y2="1988.59" gradientUnits="userSpaceOnUse">
      <stop stop-color="#DEF8F9"/>
      <stop offset="1" stop-color="#F6FDFD"/>
    </linearGradient>
    <linearGradient id="paint29_linear" x1="981.889" y1="1971.8" x2="981.351" y2="1982.89" gradientUnits="userSpaceOnUse">
      <stop stop-color="#DEF8F9"/>
      <stop offset="1" stop-color="#F6FDFD"/>
    </linearGradient>
    <linearGradient id="paint30_linear" x1="935.174" y1="2025.75" x2="934.633" y2="2036.92" gradientUnits="userSpaceOnUse">
      <stop stop-color="#DEF8F9"/>
      <stop offset="1" stop-color="#F6FDFD"/>
    </linearGradient>
    <linearGradient id="paint31_linear" x1="946.436" y1="2020.06" x2="945.898" y2="2031.15" gradientUnits="userSpaceOnUse">
      <stop stop-color="#DEF8F9"/>
      <stop offset="1" stop-color="#F6FDFD"/>
    </linearGradient>
    <linearGradient id="paint32_linear" x1="957.666" y1="2014.4" x2="957.127" y2="2025.52" gradientUnits="userSpaceOnUse">
      <stop stop-color="#DEF8F9"/>
      <stop offset="1" stop-color="#F6FDFD"/>
    </linearGradient>
    <linearGradient id="paint33_linear" x1="968.877" y1="2008.67" x2="968.335" y2="2019.85" gradientUnits="userSpaceOnUse">
      <stop stop-color="#DEF8F9"/>
      <stop offset="1" stop-color="#F6FDFD"/>
    </linearGradient>
    <linearGradient id="paint34_linear" x1="980.139" y1="2002.97" x2="979.6" y2="2014.08" gradientUnits="userSpaceOnUse">
      <stop stop-color="#DEF8F9"/>
      <stop offset="1" stop-color="#F6FDFD"/>
    </linearGradient>
    <linearGradient id="paint35_linear" x1="1177.27" y1="2067.52" x2="1099.83" y2="2064.5" gradientUnits="userSpaceOnUse">
      <stop offset="0.25" stop-color="#5761D7"/>
      <stop offset="0.44" stop-color="#6C74DF"/>
      <stop offset="0.82" stop-color="#A2A6F5"/>
      <stop offset="1" stop-color="#BCBEFF"/>
    </linearGradient>
    <linearGradient id="paint36_linear" x1="-4520.77" y1="7084.29" x2="-12683.2" y2="6764.27" gradientUnits="userSpaceOnUse">
      <stop stop-color="#C0BFF6"/>
      <stop offset="0.29" stop-color="#C5C4F7"/>
      <stop offset="0.64" stop-color="#D3D2F9"/>
      <stop offset="1" stop-color="#E9E9FD"/>
    </linearGradient>
    <linearGradient id="paint37_linear" x1="1123.86" y1="2044.14" x2="1122.26" y2="2076.98" gradientUnits="userSpaceOnUse">
      <stop stop-color="#DEF8F9"/>
      <stop offset="1" stop-color="#F6FDFD"/>
    </linearGradient>
    <linearGradient id="paint38_linear" x1="1124.95" y1="2025.21" x2="1123.03" y2="2064.8" gradientUnits="userSpaceOnUse">
      <stop stop-color="#DEF8F9"/>
      <stop offset="1" stop-color="#F6FDFD"/>
    </linearGradient>
    <linearGradient id="paint39_linear" x1="1146.86" y1="2046.95" x2="1167.68" y2="2010.4" gradientUnits="userSpaceOnUse">
      <stop stop-color="#71E2FB" stop-opacity="0.65"/>
      <stop offset="0.243575" stop-color="#71E2FB" stop-opacity="0.467969"/>
      <stop offset="0.477954" stop-color="#71E2FB" stop-opacity="0.314343"/>
      <stop offset="0.712333" stop-color="#71E2FB" stop-opacity="0.149743"/>
      <stop offset="1" stop-color="#71E2FB" stop-opacity="0"/>
    </linearGradient>
    <linearGradient id="paint40_linear" x1="905.551" y1="2303" x2="805.44" y2="2359.57" gradientUnits="userSpaceOnUse">
      <stop stop-color="#BCBEFF"/>
      <stop offset="0.23" stop-color="#AAADF8"/>
      <stop offset="0.68" stop-color="#7C83E5"/>
      <stop offset="1" stop-color="#5761D7"/>
    </linearGradient>
    <linearGradient id="paint41_linear" x1="917.879" y1="2325.17" x2="792.778" y2="2324.64" gradientUnits="userSpaceOnUse">
      <stop stop-color="#E9E9FD"/>
      <stop offset="0.36" stop-color="#D3D2F9"/>
      <stop offset="0.71" stop-color="#C5C4F7"/>
      <stop offset="1" stop-color="#C0BFF6"/>
    </linearGradient>
    <linearGradient id="paint42_linear" x1="855.33" y1="2325.92" x2="855.171" y2="2363" gradientUnits="userSpaceOnUse">
      <stop stop-color="#DEF8F9"/>
      <stop offset="1" stop-color="#F6FDFD"/>
    </linearGradient>
    <linearGradient id="paint43_linear" x1="-28968.7" y1="18631.2" x2="-35016.3" y2="18605.3" gradientUnits="userSpaceOnUse">
      <stop stop-color="#E9E9FD"/>
      <stop offset="0.36" stop-color="#D3D2F9"/>
      <stop offset="0.71" stop-color="#C5C4F7"/>
      <stop offset="1" stop-color="#C0BFF6"/>
    </linearGradient>
    <linearGradient id="paint44_linear" x1="891.647" y1="2327.56" x2="922.721" y2="2267.71" gradientUnits="userSpaceOnUse">
      <stop stop-color="#71E2FB" stop-opacity="0.65"/>
      <stop offset="0.243575" stop-color="#71E2FB" stop-opacity="0.467969"/>
      <stop offset="0.477954" stop-color="#71E2FB" stop-opacity="0.314343"/>
      <stop offset="0.712333" stop-color="#71E2FB" stop-opacity="0.149743"/>
      <stop offset="1" stop-color="#71E2FB" stop-opacity="0"/>
    </linearGradient>
  </defs>
</svg>
