<svg width="375" height="1935" viewBox="0 0 375 1935" fill="none" xmlns="http://www.w3.org/2000/svg">
  <path d="M0 109.472L19.7929 66.1365C37.2796 27.8505 79.6665 7.57343 120.449 17.9846L377 83.4784V1826.7L290.055 1897.5C262.279 1920.12 223.48 1923.4 192.299 1905.77L0 1797.04L0 109.472Z" fill="url(#paint0_linear)"/>
  <g opacity="0.2" filter="url(#filter0_f)">
    <ellipse rx="58.6013" ry="31.416" transform="matrix(1 0.00103419 0.00130943 1 275.783 1525.96)" fill="#52D8E0"/>
  </g>
  <g opacity="0.2" filter="url(#filter1_f)">
    <ellipse rx="58.6013" ry="31.416" transform="matrix(1 0.00103417 0.00130941 1 110.021 1721.28)" fill="#52D8E0"/>
  </g>
  <g opacity="0.1" filter="url(#filter2_f)">
    <ellipse rx="83.6131" ry="76.9975" transform="matrix(1 0.00105839 0.0013327 1 99.7782 1540.74)" fill="#52D8E0"/>
  </g>
  <g opacity="0.1" filter="url(#filter3_f)">
    <ellipse rx="158.079" ry="145.572" transform="matrix(1 0.00105835 0.00133266 1 187.414 1590.04)" fill="#52D8E0"/>
  </g>
  <path d="M215.157 1556.63C215.309 1556.63 215.459 1556.59 215.592 1556.51L255.61 1533.4C255.792 1533.28 255.921 1533.09 255.971 1532.88C256.021 1532.66 255.987 1532.43 255.877 1532.24C255.767 1532.05 255.588 1531.9 255.377 1531.84C255.166 1531.77 254.938 1531.79 254.738 1531.88L214.711 1554.99C214.511 1555.11 214.366 1555.3 214.306 1555.52C214.246 1555.75 214.277 1555.99 214.391 1556.19C214.469 1556.33 214.581 1556.44 214.716 1556.51C214.851 1556.59 215.003 1556.63 215.157 1556.63Z" fill="#0E2187" stroke="url(#paint1_linear)"/>
  <path d="M288.455 1609.38C288.621 1609.38 288.784 1609.33 288.928 1609.25L358.236 1568.89C358.38 1568.81 358.499 1568.69 358.582 1568.54C358.665 1568.4 358.708 1568.23 358.707 1568.07C358.704 1567.9 358.657 1567.74 358.57 1567.59C358.484 1567.45 358.361 1567.33 358.214 1567.25L294.595 1532.64C294.376 1532.51 294.115 1532.48 293.871 1532.55C293.628 1532.61 293.42 1532.77 293.295 1532.99C293.17 1533.21 293.137 1533.47 293.204 1533.72C293.271 1533.96 293.432 1534.17 293.652 1534.3L355.87 1568.1L287.998 1607.62C287.82 1607.72 287.682 1607.88 287.605 1608.08C287.527 1608.27 287.515 1608.48 287.57 1608.68C287.625 1608.88 287.745 1609.06 287.909 1609.19C288.074 1609.31 288.276 1609.38 288.483 1609.38L288.455 1609.38Z" fill="#0E2187" stroke="url(#paint2_linear)"/>
  <path d="M203.872 1488.86L128.753 1532.27C126.702 1533.46 125.036 1532.19 125.032 1529.43L124.976 1487.23C124.972 1484.49 126.633 1481.3 128.684 1480.11L203.802 1436.73C205.854 1435.55 207.52 1436.81 207.524 1439.57L207.58 1481.75C207.565 1484.49 205.923 1487.68 203.872 1488.86Z" fill="url(#paint3_linear)"/>
  <path d="M135.954 1654.58L242.665 1592.16C243.042 1591.94 243.354 1591.62 243.572 1591.24C243.789 1590.86 243.903 1590.42 243.902 1589.98C243.901 1589.54 243.786 1589.1 243.568 1588.72C243.35 1588.33 243.037 1588.01 242.659 1587.79L176.248 1548.88L175.727 1548.57L63.9591 1613.94C63.5819 1614.16 63.2689 1614.48 63.0515 1614.86C62.8341 1615.25 62.7199 1615.68 62.7205 1616.12C62.7211 1616.56 62.8364 1617 63.0548 1617.38C63.2732 1617.77 63.5871 1618.08 63.9648 1618.31L125.832 1654.56C127.373 1655.46 129.118 1655.94 130.895 1655.94C132.671 1655.94 134.415 1655.47 135.954 1654.58ZM241.666 1589.61C241.726 1589.65 241.776 1589.71 241.81 1589.77C241.845 1589.83 241.863 1589.9 241.863 1589.98C241.864 1590.05 241.845 1590.12 241.811 1590.18C241.777 1590.25 241.727 1590.3 241.666 1590.34L134.864 1652.75C133.643 1653.46 132.257 1653.84 130.846 1653.84C129.435 1653.83 128.049 1653.46 126.825 1652.74L64.9582 1616.48C64.8977 1616.44 64.8476 1616.39 64.8127 1616.33C64.7779 1616.27 64.7596 1616.2 64.7595 1616.12C64.7594 1616.05 64.7775 1615.98 64.8122 1615.92C64.8468 1615.86 64.8968 1615.81 64.9573 1615.77L175.685 1551.03L241.666 1589.61Z" fill="#0E2187" stroke="url(#paint4_linear)"/>
  <path d="M178.337 1521.49L162.843 1429.93L164.082 1429.41L162.188 1428.34C161.964 1428.22 161.712 1428.17 161.459 1428.19C161.206 1428.2 160.964 1428.29 160.76 1428.44L37.7436 1499.52C37.2272 1499.85 36.808 1500.32 36.5282 1500.87C36.2483 1501.41 36.1175 1502.03 36.1491 1502.64L51.8052 1594.93C51.823 1595.13 51.8927 1595.33 52.0073 1595.49C52.1219 1595.66 52.2776 1595.79 52.4591 1595.88L54.2863 1596.93L54.5962 1595.23L54.4922 1595.23L176.781 1524.59C177.289 1524.26 177.701 1523.79 177.974 1523.25C178.247 1522.71 178.373 1522.1 178.337 1521.49Z" fill="url(#paint5_linear)"/>
  <path d="M38.4436 1502.09L36.4134 1501.19C36.1859 1501.66 36.0946 1502.19 36.1497 1502.71L51.832 1595.06C51.8498 1595.26 51.9196 1595.46 52.0345 1595.62C52.1494 1595.79 52.3054 1595.92 52.4874 1596.01L54.3187 1597.06L54.6295 1595.36L54.5252 1595.36L60.7316 1591.78L38.4436 1502.09Z" fill="url(#paint6_linear)"/>
  <path d="M178.705 1525.78L55.6611 1596.84C54.7159 1597.4 53.9019 1597.07 53.7682 1596.09L38.1217 1503.81C38.0845 1503.19 38.2127 1502.57 38.493 1502.02C38.7734 1501.47 39.1956 1501.01 39.7162 1500.67L162.713 1429.56C163.658 1429.01 164.472 1429.34 164.606 1430.32L180.3 1522.6C180.343 1523.23 180.219 1523.85 179.938 1524.41C179.657 1524.97 179.232 1525.45 178.705 1525.78Z" fill="#101357"/>
  <g opacity="0.51">
    <path opacity="0.51" d="M161.096 1435.48L42.492 1503.94L57.3659 1590.83L175.885 1522.42L161.096 1435.48Z" fill="#453C9E"/>
  </g>
  <path d="M255.934 1569.55L249.217 1573.06L181.836 1534.06C181.14 1533.74 180.379 1533.59 179.616 1533.63C178.853 1533.66 178.108 1533.86 177.44 1534.23L61.389 1601.25C60.2727 1600.62 55.2022 1598.18 55.2022 1598.18L57.6686 1604.59C57.8017 1604.92 58.0464 1605.19 58.3598 1605.36L129.317 1646.42C130.013 1646.74 130.773 1646.89 131.537 1646.86C132.3 1646.83 133.045 1646.62 133.713 1646.25L252.494 1577.67C252.92 1577.44 253.253 1577.06 253.438 1576.61L255.934 1569.55Z" fill="url(#paint7_linear)"/>
  <path d="M254.903 1570.63L133.192 1640.92C132.509 1641.3 131.746 1641.51 130.965 1641.54C130.184 1641.57 129.406 1641.42 128.692 1641.1L55.9458 1599.01C54.7916 1598.34 54.9318 1597.17 56.2638 1596.41L177.975 1526.13C178.66 1525.75 179.424 1525.53 180.207 1525.5C180.99 1525.47 181.769 1525.62 182.485 1525.94L255.221 1568.03C256.376 1568.7 256.235 1569.87 254.903 1570.63Z" fill="#8874D5"/>
  <path d="M254.853 1570L133.167 1640.23C132.484 1640.6 131.722 1640.82 130.94 1640.85C130.159 1640.88 129.381 1640.73 128.669 1640.4L55.9416 1598.35C55.6181 1598.19 55.3681 1597.91 55.2412 1597.57C55.1499 1597.86 55.1714 1598.17 55.3012 1598.45C55.4311 1598.73 55.6599 1598.95 55.9425 1599.06L128.669 1641.11C129.383 1641.43 130.161 1641.58 130.942 1641.55C131.723 1641.52 132.485 1641.3 133.168 1640.92L254.854 1570.7C255.798 1570.19 256.091 1569.49 255.882 1568.89C255.686 1569.37 255.32 1569.77 254.853 1570Z" fill="url(#paint8_linear)"/>
  <path d="M96.4182 1625.79L96.4165 1624.45C96.4163 1624.32 96.4919 1624.27 96.5866 1624.32L101.32 1627.05C101.373 1627.08 101.417 1627.13 101.448 1627.19C101.479 1627.25 101.497 1627.31 101.5 1627.38L101.502 1628.71C101.502 1628.85 101.417 1628.9 101.322 1628.85L96.589 1626.12C96.5373 1626.08 96.4951 1626.03 96.4655 1625.98C96.4359 1625.92 96.4198 1625.85 96.4182 1625.79Z" fill="#2842A2"/>
  <path d="M103.463 1629.87L103.461 1628.54C103.461 1628.4 103.536 1628.35 103.631 1628.4L108.365 1631.14C108.417 1631.17 108.46 1631.22 108.49 1631.28C108.52 1631.33 108.535 1631.39 108.535 1631.46L108.537 1632.8C108.537 1632.93 108.462 1632.98 108.367 1632.93L103.634 1630.2C103.582 1630.16 103.54 1630.11 103.51 1630.06C103.481 1630 103.464 1629.94 103.463 1629.87Z" fill="#2842A2"/>
  <path d="M74.9103 1595.09L176.047 1536.69C176.377 1536.5 176.754 1536.39 177.139 1536.39C177.523 1536.39 177.9 1536.5 178.231 1536.69L214.297 1557.61C214.415 1557.68 214.513 1557.78 214.581 1557.9C214.649 1558.01 214.685 1558.15 214.685 1558.28C214.685 1558.42 214.65 1558.55 214.582 1558.67C214.514 1558.79 214.416 1558.89 214.298 1558.96L113.218 1617.33C112.888 1617.52 112.511 1617.62 112.127 1617.62C111.743 1617.62 111.366 1617.52 111.035 1617.32L74.9216 1596.46C74.7963 1596.4 74.6912 1596.3 74.6174 1596.18C74.5436 1596.06 74.5041 1595.92 74.5029 1595.78C74.5018 1595.64 74.5391 1595.5 74.6109 1595.38C74.6826 1595.26 74.7862 1595.16 74.9103 1595.09Z" fill="#101357" fill-opacity="0.55"/>
  <path d="M74.9374 1596.41L75.2968 1596.62L176.06 1538.45C176.392 1538.26 176.768 1538.16 177.151 1538.16C177.534 1538.16 177.911 1538.26 178.243 1538.46L213.943 1559.15L214.302 1558.94C214.42 1558.88 214.517 1558.78 214.585 1558.66C214.653 1558.54 214.688 1558.41 214.688 1558.27C214.688 1558.14 214.652 1558 214.584 1557.89C214.516 1557.77 214.418 1557.67 214.3 1557.6L178.203 1536.7C177.872 1536.5 177.495 1536.4 177.111 1536.4C176.727 1536.4 176.35 1536.5 176.019 1536.69L74.8978 1595.06C74.782 1595.13 74.687 1595.23 74.6224 1595.35C74.5579 1595.47 74.526 1595.61 74.53 1595.74C74.534 1595.88 74.5738 1596.01 74.6453 1596.13C74.7168 1596.24 74.8175 1596.34 74.9374 1596.41Z" fill="#9198DB"/>
  <path d="M180.976 1541.97L93.1212 1592.7L89.2137 1590.44L177.068 1539.71L180.976 1541.97Z" fill="#101357"/>
  <path d="M190.558 1547.52L108.153 1595.1L104.246 1592.84L186.65 1545.26L190.558 1547.52Z" fill="#101357"/>
  <path d="M196.804 1551.15L99.776 1607.17L95.859 1604.91L192.887 1548.88L196.804 1551.15Z" fill="#101357"/>
  <path d="M203.038 1554.76L106.01 1610.78L102.103 1608.52L199.121 1552.49L203.038 1554.76Z" fill="#101357"/>
  <path d="M209.272 1558.37L112.254 1614.4L108.337 1612.13L205.365 1556.12L209.272 1558.37Z" fill="#101357"/>
  <path d="M87.8194 1595.87L83.9084 1598.13L79.9914 1595.87L83.9025 1593.62L87.8194 1595.87Z" fill="#101357"/>
  <path d="M101.597 1599L93.4911 1603.68L89.5741 1601.41L97.6891 1596.73L101.597 1599Z" fill="#101357"/>
  <path d="M179.988 1609.36L207.261 1593.61C207.492 1593.52 207.693 1593.37 207.834 1593.17C207.976 1592.97 208.052 1592.73 208.051 1592.49C208.051 1592.24 207.975 1592 207.832 1591.8C207.69 1591.6 207.49 1591.45 207.258 1591.37L188.601 1580.57C188.004 1580.26 187.343 1580.1 186.672 1580.1C186.001 1580.1 185.34 1580.26 184.744 1580.57L157.424 1596.31C157.192 1596.39 156.992 1596.54 156.851 1596.74C156.709 1596.94 156.633 1597.18 156.633 1597.42C156.634 1597.67 156.71 1597.91 156.852 1598.11C156.994 1598.31 157.195 1598.46 157.427 1598.54L176.103 1609.35C176.705 1609.66 177.371 1609.82 178.046 1609.82C178.722 1609.82 179.387 1609.66 179.988 1609.36Z" fill="url(#paint9_linear)"/>
  <path d="M157.438 1597.21L184.732 1581.47C185.33 1581.17 185.99 1581.01 186.66 1581.01C187.33 1581.01 187.991 1581.17 188.589 1581.48L207.26 1592.27C207.542 1592.42 207.775 1592.65 207.931 1592.93C208.214 1592.39 207.996 1591.78 207.258 1591.36L188.606 1580.57C188.01 1580.26 187.349 1580.1 186.678 1580.1C186.007 1580.1 185.346 1580.26 184.75 1580.56L157.436 1596.29C156.7 1596.71 156.493 1597.32 156.767 1597.86C156.923 1597.58 157.156 1597.36 157.438 1597.21Z" fill="#9198DB"/>
  <mask id="mask0" style="mask-type:alpha" maskUnits="userSpaceOnUse" x="42" y="1435" width="134" height="156">
    <path opacity="0.51" d="M161.114 1435.44L42.5259 1503.96L57.3471 1590.88L175.851 1522.4L161.114 1435.44Z" fill="#13155B"/>
  </mask>
  <g mask="url(#mask0)">
    <path opacity="0.11" d="M178.201 1525.94L56.4929 1596.28C55.8114 1596.66 55.0485 1596.88 54.2666 1596.91C53.4847 1596.94 52.7059 1596.79 51.9938 1596.46L-20.7287 1554.37C-21.8826 1553.71 -21.7326 1552.54 -20.4006 1551.77L101.298 1481.43C101.981 1481.04 102.745 1480.83 103.529 1480.79C104.312 1480.76 105.092 1480.91 105.806 1481.24L178.519 1523.33C179.673 1524 179.533 1525.16 178.201 1525.94Z" fill="url(#paint10_linear)"/>
    <path opacity="0.11" d="M56.0992 1538.46L83.371 1522.7C83.6023 1522.62 83.8026 1522.47 83.9442 1522.27C84.0859 1522.07 84.1618 1521.83 84.1616 1521.59C84.1613 1521.34 84.0848 1521.1 83.9428 1520.9C83.8007 1520.7 83.6001 1520.55 83.3687 1520.47L64.6986 1509.62C64.099 1509.32 63.4367 1509.16 62.7651 1509.16C62.0935 1509.16 61.4315 1509.31 60.8326 1509.62L33.5608 1525.38C33.3295 1525.46 33.1292 1525.61 32.9876 1525.81C32.8459 1526.01 32.77 1526.25 32.7702 1526.5C32.7705 1526.74 32.847 1526.98 32.989 1527.18C33.1311 1527.38 33.3317 1527.54 33.5631 1527.62L52.2332 1538.42C52.8284 1538.73 53.4897 1538.9 54.1621 1538.91C54.8345 1538.91 55.4986 1538.76 56.0992 1538.46Z" fill="url(#paint11_linear)"/>
    <path opacity="0.11" d="M33.5716 1526.32L60.8389 1510.56C61.4363 1510.25 62.0987 1510.09 62.771 1510.09C63.4433 1510.09 64.106 1510.26 64.7041 1510.56L83.3701 1521.37C83.6489 1521.52 83.8807 1521.75 84.0418 1522.03C84.3153 1521.49 84.1068 1520.88 83.3692 1520.46L64.7031 1509.62C64.1037 1509.31 63.4415 1509.16 62.77 1509.16C62.0986 1509.15 61.4367 1509.31 60.8379 1509.62L33.5706 1525.37C32.8339 1525.79 32.6266 1526.4 32.9013 1526.94C33.0622 1526.67 33.2944 1526.46 33.5716 1526.32Z" fill="#9198DB"/>
    <path opacity="0.11" d="M21.5671 1563.1L122.71 1504.65C123.04 1504.46 123.415 1504.36 123.797 1504.36C124.178 1504.36 124.553 1504.46 124.884 1504.65L160.948 1525.57C161.065 1525.64 161.163 1525.74 161.231 1525.85C161.3 1525.97 161.335 1526.11 161.336 1526.24C161.336 1526.38 161.3 1526.51 161.232 1526.63C161.164 1526.75 161.067 1526.85 160.949 1526.91L59.8721 1585.35C59.5418 1585.54 59.167 1585.64 58.7854 1585.64C58.4038 1585.64 58.0288 1585.54 57.6981 1585.35L21.5874 1564.49C21.4621 1564.42 21.3567 1564.32 21.2825 1564.2C21.2083 1564.08 21.1681 1563.94 21.166 1563.8C21.1639 1563.66 21.2001 1563.52 21.2707 1563.4C21.3413 1563.27 21.4437 1563.17 21.5671 1563.1Z" fill="#ADB1F2"/>
    <path opacity="0.11" d="M21.5883 1564.43L21.9477 1564.64L122.721 1506.41C123.05 1506.21 123.425 1506.11 123.807 1506.11C124.189 1506.11 124.564 1506.21 124.894 1506.41L160.584 1527.11L160.953 1526.9C161.07 1526.83 161.168 1526.73 161.236 1526.62C161.304 1526.5 161.339 1526.36 161.339 1526.23C161.339 1526.09 161.303 1525.96 161.235 1525.84C161.167 1525.72 161.069 1525.62 160.951 1525.56L124.893 1504.65C124.562 1504.46 124.187 1504.36 123.805 1504.36C123.424 1504.35 123.049 1504.46 122.719 1504.65L21.5869 1563.08C21.4694 1563.15 21.3721 1563.24 21.3045 1563.36C21.2369 1563.48 21.2014 1563.62 21.2016 1563.75C21.2017 1563.89 21.2374 1564.02 21.3053 1564.14C21.3731 1564.26 21.4707 1564.36 21.5883 1564.43Z" fill="#9198DB"/>
    <path opacity="0.11" d="M151.495 1524.13L63.388 1575.06L66.878 1577.09L154.994 1526.16L151.495 1524.13Z" fill="#070F4B"/>
    <path opacity="0.11" d="M142.214 1518.75L58.4703 1567.15L61.9603 1569.18L145.713 1520.77L142.214 1518.75Z" fill="#070F4B"/>
    <path opacity="0.11" d="M52.2073 1570.86L44.3855 1575.38L47.8756 1577.4L55.6974 1572.88L52.2073 1570.86Z" fill="#070F4B"/>
    <path opacity="0.11" d="M59.1159 1577.61L53.6747 1580.76L57.1647 1582.77L62.6154 1579.63L59.1159 1577.61Z" fill="#070F4B"/>
    <path opacity="0.11" d="M136.393 1515.38L38.575 1571.92L42.0744 1573.94L139.893 1517.41L136.393 1515.38Z" fill="#070F4B"/>
    <path opacity="0.11" d="M130.582 1512.02L32.7546 1568.55L36.2541 1570.58L134.072 1514.04L130.582 1512.02Z" fill="#070F4B"/>
    <path opacity="0.11" d="M124.762 1508.64L26.9437 1565.18L30.4337 1567.2L128.252 1510.67L124.762 1508.64Z" fill="#070F4B"/>
  </g>
  <path d="M53.5726 1509.15L51.2277 1510.66L50.9509 1508.91L53.2864 1507.42L53.5726 1509.15Z" fill="#2EFFEC"/>
  <path d="M55.4973 1520.93L53.149 1522.44L51.4777 1512.24L53.8165 1510.75L55.4973 1520.93Z" fill="#2EFFEC"/>
  <path d="M56.4115 1526.57L54.065 1528.07L53.4063 1524.02L55.7434 1522.53L56.4115 1526.57Z" fill="#2EFFEC"/>
  <path d="M57.3569 1532.41L55.0198 1533.91L54.3516 1529.87L56.6981 1528.36L57.3569 1532.41Z" fill="#2EFFEC"/>
  <path d="M57.9779 1512.55L55.6409 1514.06L54.9727 1510.01L57.3098 1508.51L57.9779 1512.55Z" fill="#2EFFEC"/>
  <path d="M59.2343 1520.29L56.8972 1521.79L55.9141 1515.85L58.2606 1514.35L59.2343 1520.29Z" fill="#2EFFEC"/>
  <path d="M60.3973 1527.41L58.0512 1528.91L57.2208 1523.81L59.5575 1522.31L60.3973 1527.41Z" fill="#2EFFEC"/>
  <path d="M58.3061 1538.25L55.9595 1539.75L55.3008 1535.7L57.6379 1534.2L58.3061 1538.25Z" fill="#2EFFEC"/>
  <path d="M57.0609 1506.92L54.716 1508.42L54.4297 1506.68L56.7747 1505.19L57.0609 1506.92Z" fill="#2EFFEC"/>
  <path d="M60.971 1542.8L56.8874 1545.41L56.6108 1543.72L60.6944 1541.11L60.971 1542.8Z" fill="#2EFFEC"/>
  <path d="M205.238 1673.07L300.283 1618.19C300.631 1618.02 300.924 1617.75 301.13 1617.41C301.337 1617.08 301.448 1616.7 301.452 1616.3C301.42 1615.85 301.267 1615.41 301.009 1615.03C300.751 1614.65 300.397 1614.35 299.984 1614.15L280.239 1602.75C279.472 1602.32 278.613 1602.08 277.734 1602.05C276.856 1602.02 275.983 1602.2 275.19 1602.58L180.099 1657.44C179.749 1657.62 179.455 1657.89 179.247 1658.23C179.039 1658.56 178.926 1658.94 178.919 1659.34C178.956 1659.79 179.111 1660.23 179.371 1660.61C179.63 1660.99 179.984 1661.29 180.397 1661.49L200.19 1672.89C201.059 1673.37 202.036 1673.62 203.027 1673.61C203.798 1673.62 204.559 1673.43 205.238 1673.07ZM279.295 1604.36L299.05 1615.81C299.504 1616.07 299.599 1616.3 299.599 1616.35C299.599 1616.4 299.543 1616.47 299.354 1616.58L204.31 1671.46C203.799 1671.67 203.246 1671.77 202.693 1671.74C202.14 1671.71 201.6 1671.55 201.114 1671.29L181.331 1659.84C180.886 1659.57 180.791 1659.35 180.791 1659.3C180.791 1659.25 180.848 1659.18 181.037 1659.06L276.081 1604.19C276.486 1603.98 276.939 1603.88 277.395 1603.9C278.057 1603.89 278.712 1604.05 279.295 1604.36Z" fill="#0E2187" stroke="white"/>
  <path d="M261.613 1570.86C258.991 1572.43 256.64 1574.42 254.651 1576.74C251.717 1567.33 242.795 1564.42 232.259 1570.5C223.528 1575.53 215.976 1585.49 211.943 1595.96C210.387 1596.05 208.88 1596.53 207.557 1597.35C201.887 1600.63 197.264 1608.63 197.273 1615.21C197.273 1615.36 197.273 1615.48 197.273 1615.62C195.391 1615.8 193.575 1616.41 191.961 1617.4C184.685 1621.6 178.798 1631.83 178.809 1640.25C178.82 1648.67 184.726 1652.09 192.002 1647.84L261.643 1607.62C270.45 1602.59 277.554 1590.29 277.54 1580.08C277.527 1569.87 270.401 1565.79 261.613 1570.86Z" fill="url(#paint12_linear)"/>
  <path d="M261.607 1570.86C260.115 1571.74 258.716 1572.77 257.431 1573.93L249.623 1569.41C245.334 1566.38 239.131 1566.51 232.241 1570.49C223.519 1575.54 215.966 1585.49 211.932 1595.96C210.377 1596.05 208.87 1596.53 207.546 1597.35C201.876 1600.63 197.252 1608.64 197.261 1615.22C197.261 1615.36 197.261 1615.49 197.262 1615.63C195.379 1615.81 193.563 1616.42 191.949 1617.4C184.672 1621.61 178.784 1631.84 178.796 1640.26C178.801 1644.44 180.261 1647.38 182.59 1648.79L182.656 1648.79L201.766 1659.91L205.91 1639.83L261.619 1607.68C270.445 1602.6 277.55 1590.29 277.537 1580.08C277.523 1569.87 270.396 1565.79 261.607 1570.86Z" fill="url(#paint13_radial)"/>
  <path d="M292.296 1581.08L272.933 1569.81C270.037 1568.09 266.028 1568.3 261.587 1570.86C260.095 1571.74 258.696 1572.77 257.411 1573.93L249.604 1569.41C245.316 1566.38 239.113 1566.51 232.225 1570.49C223.513 1575.54 215.961 1585.49 211.928 1595.96C210.372 1596.05 208.865 1596.53 207.542 1597.35C201.872 1600.63 197.249 1608.63 197.258 1615.22C197.258 1615.36 197.258 1615.48 197.259 1615.62C195.376 1615.81 193.56 1616.41 191.947 1617.4C184.671 1621.6 178.784 1631.83 178.795 1640.25C178.8 1644.43 180.261 1647.37 182.589 1648.78L182.655 1648.78L201.762 1659.9L205.905 1639.82L261.608 1607.68C268.77 1603.54 274.782 1594.66 276.803 1586.03L292.296 1581.08Z" fill="url(#paint14_linear)"/>
  <path d="M280.738 1582.01C278.114 1583.58 275.762 1585.56 273.776 1587.89C270.842 1578.49 261.92 1575.56 251.384 1581.65C242.672 1586.68 235.082 1596.6 231.068 1607.1C229.513 1607.2 228.007 1607.68 226.682 1608.49C221.012 1611.78 216.389 1619.78 216.398 1626.36C216.398 1626.5 216.398 1626.63 216.398 1626.78C214.518 1626.95 212.703 1627.55 211.096 1628.54C203.81 1632.75 197.876 1642.98 197.887 1651.4C197.898 1659.82 203.803 1663.24 211.136 1658.99L280.787 1618.81C289.575 1613.75 296.679 1601.4 296.665 1591.23C296.652 1581.06 289.526 1576.94 280.738 1582.01Z" fill="url(#paint15_linear)"/>
  <path d="M274.435 1588.18C276.419 1585.85 278.77 1583.87 281.394 1582.3C285.683 1579.83 289.577 1579.55 292.443 1581.09C289.539 1579.13 285.38 1579.25 280.751 1581.92C278.277 1583.39 276.047 1585.23 274.141 1587.38C274.255 1587.65 274.35 1587.9 274.435 1588.18Z" fill="url(#paint16_linear)"/>
  <path d="M198.602 1651.78C198.591 1643.36 204.48 1633.11 211.758 1628.92C213.369 1627.93 215.183 1627.32 217.063 1627.14C217.063 1627 217.062 1626.87 217.062 1626.73C217.053 1620.15 221.659 1612.14 227.349 1608.86C228.677 1608.04 230.188 1607.56 231.746 1607.47C235.753 1596.96 243.345 1587.04 252.07 1582C258.441 1578.32 264.22 1577.94 268.452 1580.29C264.172 1577.52 258.128 1577.74 251.426 1581.62C242.711 1586.65 235.118 1596.57 231.103 1607.08C229.548 1607.18 228.041 1607.65 226.715 1608.47C221.044 1611.76 216.419 1619.76 216.428 1626.34C216.428 1626.49 216.428 1626.62 216.428 1626.76C214.545 1626.93 212.727 1627.54 211.114 1628.53C203.836 1632.73 197.947 1642.97 197.958 1651.39C197.964 1655.72 199.529 1658.72 202.037 1660.05C199.907 1658.6 198.607 1655.75 198.602 1651.78Z" fill="#BCBEFF"/>
  <path d="M144.734 1695.56L143.04 1694.41L190.643 1665.74L191.6 1667.34L144.734 1695.56Z" fill="#0E2187" stroke="white"/>
  <path d="M74.6404 1694.57C74.8482 1694.57 75.0493 1694.5 75.2125 1694.37C75.3757 1694.24 75.492 1694.06 75.5434 1693.86C75.5948 1693.66 75.5784 1693.45 75.4968 1693.25C75.4153 1693.06 75.273 1692.9 75.0921 1692.8L34.4888 1670.71L93.2232 1636.52C93.4289 1636.39 94.6545 1635.46 94.7122 1635.22C94.7699 1634.99 94.1336 1635.13 94.0112 1634.92C93.8889 1634.71 93.3374 1634.5 93.103 1634.43C92.8687 1634.36 92.4913 1634.77 92.2753 1634.88L32.0855 1669.92C31.9416 1670 31.823 1670.13 31.7418 1670.27C31.6606 1670.42 31.6197 1670.58 31.6232 1670.75C31.6263 1670.92 31.6735 1671.08 31.7601 1671.23C31.8467 1671.37 31.9695 1671.49 32.1161 1671.57L74.1958 1694.46C74.3325 1694.53 74.4852 1694.57 74.6404 1694.57Z" fill="#0E2187" stroke="url(#paint17_linear)"/>
  <path d="M165.366 1460.65L121.213 1486.19C119.162 1487.37 117.501 1490.56 117.504 1493.3L117.56 1535.5C117.564 1538.25 119.231 1539.51 121.283 1538.35L173.434 1508.18L165.366 1460.65Z" fill="#101357"/>
  <path d="M206.354 1436.61L204.195 1435.06C203.801 1434.8 203.337 1434.66 202.865 1434.68C202.392 1434.69 201.936 1434.84 201.556 1435.13L126.447 1478.51C124.396 1479.69 122.726 1482.88 122.729 1485.62L122.786 1527.82C122.73 1528.37 122.809 1528.92 123.018 1529.44C123.226 1529.95 123.557 1530.41 123.981 1530.76L126.216 1532.37L126.337 1530.73L126.526 1530.64L201.626 1487.26C203.686 1486.07 205.347 1482.88 205.343 1480.14L205.287 1437.94C205.285 1437.57 205.247 1437.2 205.172 1436.83L206.354 1436.61Z" fill="url(#paint18_linear)"/>
  <path d="M122.968 1483.99L142.838 1495.47L147.826 1492.64L125.307 1479.53C124.143 1480.78 123.336 1482.32 122.968 1483.99Z" fill="url(#paint19_linear)"/>
  <path d="M203.872 1488.86L128.753 1532.27C126.702 1533.46 125.036 1532.19 125.032 1529.43L124.976 1487.23C124.972 1484.49 126.633 1481.3 128.684 1480.11L203.802 1436.73C205.854 1435.55 207.52 1436.81 207.524 1439.57L207.58 1481.75C207.565 1484.49 205.923 1487.68 203.872 1488.86Z" fill="#8E7ADB"/>
  <path d="M125.442 1529.65L125.386 1487.44C125.382 1484.7 127.043 1481.51 129.094 1480.33L204.213 1436.95C204.531 1436.74 204.891 1436.61 205.265 1436.57C205.64 1436.52 206.02 1436.56 206.379 1436.67C205.988 1436.44 205.534 1436.32 205.077 1436.34C204.619 1436.35 204.177 1436.51 203.806 1436.78L128.687 1480.16C126.636 1481.35 124.975 1484.53 124.979 1487.28L125.035 1529.43C125.037 1531.09 125.653 1532.21 126.59 1532.57C126.182 1532.21 125.865 1531.75 125.665 1531.24C125.465 1530.74 125.389 1530.19 125.442 1529.65Z" fill="url(#paint20_linear)"/>
  <path d="M196.876 1462.24L135.603 1497.59C135.13 1497.87 134.724 1498.02 134.449 1497.59C134.449 1497.53 134.449 1497.42 134.449 1497.34L134.436 1488.06C134.436 1487.69 134.521 1487.33 134.684 1487C134.848 1486.67 135.086 1486.39 135.379 1486.17L197.115 1450.52C197.163 1450.52 197.21 1450.44 197.257 1450.45C197.721 1450.53 197.74 1450.95 197.741 1451.61L197.904 1460.54C197.883 1460.89 197.778 1461.22 197.599 1461.52C197.42 1461.81 197.172 1462.06 196.876 1462.24Z" fill="#5031B0"/>
  <path d="M197.004 1482.56L135.589 1517.95C135.117 1518.23 134.503 1518.51 134.417 1517.95C134.407 1517.87 134.407 1517.78 134.416 1517.7L134.404 1508.4C134.402 1508.03 134.486 1507.67 134.65 1507.34C134.814 1507.01 135.053 1506.73 135.347 1506.51L197.112 1470.86L197.253 1470.79C197.735 1470.61 197.859 1471.22 197.86 1471.88L197.872 1480.7C197.882 1481.06 197.809 1481.41 197.658 1481.74C197.507 1482.06 197.284 1482.34 197.004 1482.56Z" fill="#5031B0"/>
  <path d="M197.297 1450.45C197.301 1450.54 197.302 1450.62 197.297 1450.71L197.309 1460.02C197.31 1460.39 197.225 1460.75 197.061 1461.08C196.897 1461.41 196.66 1461.7 196.366 1461.92L134.611 1497.59L134.469 1497.65C134.555 1498.19 134.952 1498.41 135.415 1498.14L197.133 1462.46C197.428 1462.24 197.667 1461.95 197.831 1461.62C197.995 1461.29 198.079 1460.93 198.076 1460.56L198.064 1451.27C198.129 1450.6 197.769 1450.27 197.297 1450.45Z" fill="url(#paint21_linear)"/>
  <path d="M197.297 1470.79C197.302 1470.87 197.302 1470.96 197.297 1471.04L197.309 1480.36C197.31 1480.73 197.225 1481.09 197.061 1481.42C196.897 1481.75 196.66 1482.03 196.366 1482.25L134.611 1517.92C134.567 1517.95 134.519 1517.97 134.469 1517.98C134.555 1518.53 134.952 1518.75 135.415 1518.47L197.133 1482.79C197.427 1482.57 197.665 1482.29 197.829 1481.96C197.993 1481.63 198.077 1481.27 198.076 1480.9L198.064 1471.59C198.129 1470.94 197.769 1470.61 197.297 1470.79Z" fill="url(#paint22_linear)"/>
  <path d="M152.081 1483.79L152.84 1485.23L154.275 1483.42L153.176 1482.29L154.811 1480.62L154.279 1479.24L152.806 1481.06L153.001 1478.9L151.186 1479.94L151.378 1481.83L149.902 1481.74L149.356 1483.73L150.973 1483.52L149.889 1485.96L151.299 1486.11L152.081 1483.79Z" fill="url(#paint23_linear)"/>
  <path d="M159.177 1479.68L159.936 1481.12L161.371 1479.31L160.282 1478.18L161.916 1476.52L161.385 1475.13L159.911 1476.94L160.107 1474.78L158.301 1475.82L158.493 1477.72L157.017 1477.62L156.471 1479.62L158.079 1479.4L157.003 1481.81L158.395 1482L159.177 1479.68Z" fill="url(#paint24_linear)"/>
  <path d="M166.267 1475.57L167.025 1477.01L168.461 1475.2L167.372 1474.07L169.006 1472.4L168.465 1471.02L166.992 1472.83L167.187 1470.67L165.382 1471.71L165.573 1473.6L164.05 1473.56L163.504 1475.55L165.112 1475.35L164.056 1477.73L165.475 1477.89L166.267 1475.57Z" fill="url(#paint25_linear)"/>
  <path d="M173.364 1471.45L174.122 1472.89L175.558 1471.08L174.45 1469.95L176.084 1468.28L175.543 1466.9L174.07 1468.72L174.265 1466.55L172.46 1467.6L172.651 1469.49L171.175 1469.41L170.629 1471.39L172.247 1471.19L171.162 1473.58L172.581 1473.74L173.364 1471.45Z" fill="url(#paint26_linear)"/>
  <path d="M180.471 1467.34L181.23 1468.77L182.666 1466.98L181.567 1465.84L183.202 1464.17L182.67 1462.8L181.196 1464.61L181.392 1462.45L179.577 1463.49L179.769 1465.38L178.293 1465.28L177.746 1467.27L179.364 1467.07L178.289 1469.47L179.699 1469.62L180.471 1467.34Z" fill="url(#paint27_linear)"/>
  <path d="M152.077 1504.14L152.836 1505.57L154.271 1503.76L153.172 1502.63L154.807 1500.97L154.275 1499.58L152.802 1501.4L152.998 1499.23L151.182 1500.28L151.374 1502.17L149.898 1502.09L149.352 1504.08L150.97 1503.91L149.885 1506.3L151.295 1506.46L152.077 1504.14Z" fill="url(#paint28_linear)"/>
  <path d="M159.177 1500.02L159.936 1501.47L161.371 1499.66L160.282 1498.53L161.916 1496.85L161.385 1495.48L159.902 1497.28L160.097 1495.12L158.292 1496.16L158.483 1498.05L157.007 1497.96L156.461 1499.95L158.069 1499.74L156.994 1502.14L158.404 1502.3L159.177 1500.02Z" fill="url(#paint29_linear)"/>
  <path d="M166.27 1495.92L167.029 1497.35L168.465 1495.54L167.376 1494.43L169.01 1492.76L168.469 1491.38L166.995 1493.19L167.191 1491.03L165.385 1492.07L165.577 1493.96L164.101 1493.88L163.555 1495.87L165.163 1495.66L164.059 1498.07L165.479 1498.23L166.27 1495.92Z" fill="url(#paint30_linear)"/>
  <path d="M173.364 1491.8L174.122 1493.23L175.558 1491.42L174.45 1490.3L176.084 1488.63L175.543 1487.25L174.07 1489.06L174.265 1486.89L172.46 1487.94L172.651 1489.84L171.175 1489.75L170.629 1491.74L172.266 1491.58L171.181 1493.98L172.6 1494.13L173.364 1491.8Z" fill="url(#paint31_linear)"/>
  <path d="M180.468 1487.68L181.226 1489.12L182.662 1487.31L181.563 1486.18L183.198 1484.51L182.666 1483.13L181.192 1484.95L181.388 1482.78L179.573 1483.83L179.765 1485.72L178.289 1485.63L177.743 1487.61L179.36 1487.41L178.285 1489.81L179.695 1489.97L180.468 1487.68Z" fill="url(#paint32_linear)"/>
  <g style="mix-blend-mode:lighten" opacity="0.1">
    <path d="M151.875 1653.05L161.251 1658.48L170.613 1653.07L161.236 1647.65L151.875 1653.05Z" fill="#4846A5"/>
  </g>
  <g style="mix-blend-mode:lighten" opacity="0.1">
    <path d="M193.476 1509.01L202.852 1514.43L212.214 1509.03L202.838 1503.6L193.476 1509.01Z" fill="#4846A5"/>
  </g>
  <g style="mix-blend-mode:lighten" opacity="0.1">
    <path d="M308.91 1565.67L318.286 1571.09L327.648 1565.69L318.272 1560.26L308.91 1565.67Z" fill="#4846A5"/>
  </g>
  <path d="M275.326 1544.87C275.625 1544.87 275.919 1544.79 276.177 1544.64L315.627 1521.86C315.888 1521.71 316.105 1521.5 316.256 1521.24C316.407 1520.98 316.486 1520.68 316.485 1520.38C316.482 1520.08 316.401 1519.78 316.25 1519.52C316.099 1519.26 315.883 1519.04 315.623 1518.89L276.122 1496.03C275.859 1495.88 275.563 1495.8 275.261 1495.8C274.96 1495.8 274.664 1495.88 274.401 1496.03L234.96 1518.81C234.699 1518.96 234.482 1519.17 234.332 1519.44C234.181 1519.7 234.102 1519.99 234.103 1520.29C234.103 1520.6 234.183 1520.89 234.334 1521.15C234.485 1521.41 234.703 1521.63 234.964 1521.78L274.465 1544.64C274.727 1544.79 275.024 1544.87 275.326 1544.87ZM314.434 1520.3L275.323 1542.88L236.153 1520.22L275.264 1497.64L314.434 1520.3Z" fill="#0E2187" stroke="#DFF8F9"/>
  <path d="M239.828 1512.95L239.633 1505.78L275.714 1524.51L310.727 1504.02L310.922 1511.19L275.933 1532.59L239.828 1512.95Z" fill="url(#paint33_linear)"/>
  <path d="M275.76 1525.39L310.755 1503.97L274.641 1484.31L239.646 1505.73L275.76 1525.39Z" fill="url(#paint34_linear)"/>
  <path opacity="0.5" d="M275.307 1524.83L310.326 1504.63L310.836 1504.92L275.307 1525.42L239.727 1504.85L240.237 1504.56L275.307 1524.83Z" fill="url(#paint35_linear)"/>
  <path d="M275.315 1517.56L297.278 1504.87L275.281 1492.15L253.308 1504.83L275.315 1517.56Z" fill="#0F054C"/>
  <path d="M275.309 1517.56L297.282 1504.87L275.276 1492.15L253.302 1504.83L275.309 1517.56Z" fill="url(#paint36_linear)"/>
  <path d="M253.225 1504.15L253.157 1452.35L297.393 1451.94L297.462 1503.84C297.474 1504.11 297.411 1504.37 297.28 1504.61C297.148 1504.84 296.953 1505.03 296.715 1505.16L278.406 1515.78C277.582 1516.23 275.981 1517.45 275.36 1517.75C274.426 1517.14 273.156 1516.23 272.331 1515.77L253.992 1505.55C253.742 1505.41 253.538 1505.2 253.402 1504.96C253.266 1504.71 253.205 1504.43 253.225 1504.15Z" fill="url(#paint37_linear)"/>
  <path opacity="0.4" d="M71.3383 1715.45L70.7875 1704.78L72.6918 1703.6C73.4168 1706.89 77.4674 1708.9 80.7794 1709.18L103.856 1721.09L113.824 1724.1L144.204 1706.43L143.471 1706.05C146.063 1704.67 147.356 1701.76 148.66 1699.08L150.827 1700.22L152.095 1700.52L152.654 1711.36C152.615 1712.19 152.361 1712.99 151.916 1713.68C151.471 1714.38 150.85 1714.95 150.117 1715.33L119.774 1734.95C117.77 1736.1 115.523 1736.76 113.216 1736.88C110.908 1737 108.605 1736.57 106.494 1735.64L74.2925 1719.25C73.5315 1718.96 72.8606 1718.47 72.3448 1717.83C71.8289 1717.2 71.4856 1716.45 71.348 1715.64L71.3383 1715.45Z" fill="#2EFFEC"/>
  <path d="M70.8389 1705.8L70.4686 1698.63L72.372 1697.42C73.1005 1700.79 77.1521 1702.81 80.4646 1703.1L103.552 1715.22L113.523 1718.29L143.89 1700.35L143.157 1699.97C145.747 1698.57 147.037 1695.62 148.34 1692.9L150.508 1694.05L151.776 1694.36L152.155 1701.71C152.117 1702.55 151.863 1703.36 151.418 1704.07C150.974 1704.78 150.354 1705.35 149.621 1705.74L119.293 1725.65C117.29 1726.81 115.043 1727.48 112.736 1727.6C110.428 1727.72 108.125 1727.28 106.012 1726.33L73.7964 1709.66C73.0351 1709.36 72.3638 1708.86 71.8474 1708.22C71.331 1707.58 70.987 1706.81 70.8488 1705.99L70.8389 1705.8Z" fill="url(#paint38_linear)"/>
  <path opacity="0.3" d="M80.4581 1703.05L103.543 1715.2L112.224 1717.87L112.726 1727.6C110.417 1727.77 108.102 1727.34 106.004 1726.34L73.792 1709.62C73.0308 1709.32 72.3596 1708.82 71.8432 1708.18C71.3268 1707.53 70.9828 1706.76 70.8445 1705.95L70.8345 1705.75L70.4634 1698.56L72.1974 1697.46L72.387 1697.45C73.1758 1700.76 77.1778 1702.75 80.4581 1703.05Z" fill="#0F054C"/>
  <path d="M118.905 1718.26L149.239 1698.5C152.783 1696.21 152.605 1692.77 148.844 1690.84L116.642 1674.42C114.529 1673.49 112.227 1673.06 109.921 1673.18C107.615 1673.3 105.369 1673.96 103.363 1675.1L73.0241 1694.78C69.4648 1697.07 69.6426 1700.51 73.4196 1702.44L105.625 1718.94C107.739 1719.87 110.041 1720.3 112.347 1720.18C114.653 1720.06 116.899 1719.4 118.905 1718.26ZM108.011 1677.63C108.654 1677.27 109.373 1677.06 110.111 1677.02C110.85 1676.98 111.587 1677.12 112.264 1677.41L144.465 1693.84C144.723 1693.92 144.95 1694.07 145.116 1694.29C145.282 1694.5 145.379 1694.76 145.392 1695.03C145.406 1695.3 145.337 1695.56 145.194 1695.79C145.051 1696.02 144.841 1696.2 144.592 1696.3L114.253 1715.96C113.61 1716.33 112.891 1716.54 112.153 1716.58C111.415 1716.61 110.678 1716.48 110.001 1716.18L77.7988 1699.76C77.5409 1699.68 77.3137 1699.52 77.1478 1699.31C76.9819 1699.1 76.8855 1698.84 76.8716 1698.57C76.8577 1698.3 76.927 1698.03 77.0701 1697.81C77.2133 1697.58 77.4232 1697.4 77.6716 1697.29L108.011 1677.63Z" fill="url(#paint39_linear)"/>
  <path d="M73.4397 1702.69L105.665 1719.36C107.78 1720.3 110.083 1720.72 112.39 1720.61C114.697 1720.49 116.943 1719.82 118.95 1718.67L149.287 1698.75C149.95 1698.39 150.522 1697.89 150.96 1697.27C151.398 1696.65 151.691 1695.95 151.815 1695.2C151.906 1696.11 151.716 1697.02 151.271 1697.82C150.827 1698.61 150.15 1699.25 149.333 1699.64L118.991 1719.47C116.987 1720.63 114.74 1721.29 112.432 1721.41C110.123 1721.53 107.819 1721.1 105.707 1720.16L73.485 1703.56C71.3839 1702.49 70.401 1700.96 70.5426 1699.4C70.7451 1700.13 71.1115 1700.81 71.6136 1701.38C72.1157 1701.95 72.7404 1702.4 73.4397 1702.69Z" fill="url(#paint40_linear)"/>
  <path d="M118.07 1717.86L148.355 1698.1C151.423 1696.09 151.272 1693.17 148.011 1691.42L115.852 1674.89C114.018 1674.07 112.018 1673.7 110.015 1673.8C108.012 1673.91 106.061 1674.48 104.321 1675.48L73.9092 1695.25C70.841 1697.26 70.9919 1700.19 74.2537 1701.93L106.476 1718.46C108.319 1719.29 110.33 1719.67 112.345 1719.56C114.36 1719.46 116.322 1718.87 118.07 1717.86ZM107.159 1676.99C108.067 1676.47 109.087 1676.16 110.134 1676.11C111.182 1676.06 112.227 1676.25 113.185 1676.68L145.341 1693.15C145.712 1693.26 146.041 1693.48 146.282 1693.78C146.523 1694.08 146.663 1694.45 146.683 1694.84C146.703 1695.22 146.602 1695.61 146.393 1695.93C146.185 1696.26 145.879 1696.51 145.521 1696.65L115.172 1716.42C114.264 1716.95 113.244 1717.25 112.197 1717.3C111.149 1717.36 110.104 1717.16 109.146 1716.73L76.9238 1700.2C76.5527 1700.09 76.2234 1699.87 75.9825 1699.57C75.7415 1699.27 75.6012 1698.9 75.5812 1698.51C75.5613 1698.13 75.6628 1697.74 75.8713 1697.42C76.0798 1697.09 76.3849 1696.84 76.7433 1696.7L107.159 1676.99Z" fill="url(#paint41_linear)"/>
  <path d="M76.0313 1698.62L71.6209 1613.17L140.603 1609.6L145.023 1695.23C145.065 1695.67 144.987 1696.11 144.798 1696.5C144.608 1696.9 144.315 1697.23 143.949 1697.47L115.86 1715.75C114.592 1716.57 113.133 1717.04 111.628 1717.12C110.123 1717.2 108.623 1716.88 107.277 1716.19L77.3635 1700.86C76.9555 1700.65 76.6142 1700.33 76.3786 1699.93C76.143 1699.53 76.0227 1699.08 76.0313 1698.62Z" fill="url(#paint42_linear)"/>
  <path d="M254.229 1532.26L251.941 1534.09L252.071 1534.96L255.307 1533.22L254.229 1532.26Z" fill="#0E2187"/>
  <path d="M297.021 1534.31L294.903 1533.06L293.579 1533.82L297.098 1535.67L297.021 1534.31Z" fill="#0E2187"/>
  <path d="M103.795 1686.76C103.725 1686.72 103.678 1686.65 103.673 1686.57L103.59 1685.2C103.585 1685.12 103.622 1685.05 103.687 1685L104.484 1684.48C104.498 1684.64 104.594 1684.78 104.728 1684.85L104.037 1685.31L104.105 1686.42L105.091 1686.93L106.009 1686.32L105.941 1685.21L105.199 1684.83C105.323 1684.74 105.404 1684.6 105.396 1684.43L106.251 1684.87C106.321 1684.91 106.368 1684.98 106.372 1685.06L106.456 1686.43C106.461 1686.51 106.424 1686.58 106.359 1686.63L105.228 1687.37C105.163 1687.42 105.077 1687.42 105.007 1687.38L103.795 1686.76Z" fill="#EAF9FF"/>
  <path d="M96.5208 1677.16L96.6826 1679.8C96.6146 1679.77 96.5383 1679.75 96.458 1679.76C96.3776 1679.76 96.3041 1679.79 96.2407 1679.83L96.0789 1677.18L96.071 1677.05C96.0661 1676.97 96.1036 1676.9 96.1687 1676.85L96.2743 1676.78L98.6865 1675.19L98.7921 1675.12C98.8572 1675.08 98.943 1675.07 99.0131 1675.11L99.1266 1675.17L101.729 1676.51L101.704 1676.52L101.634 1676.57C101.569 1676.62 101.531 1676.69 101.536 1676.77L101.544 1676.89L101.545 1676.91L98.9311 1675.57C98.9312 1675.57 96.5208 1677.16 96.5208 1677.16Z" fill="#EAF9FF"/>
  <path d="M96.2288 1680.62L94.2139 1681.95L94.2885 1683.17C94.2934 1683.25 94.2559 1683.33 94.1908 1683.37L93.0583 1684.11C92.9932 1684.16 92.9074 1684.16 92.8373 1684.13L91.621 1683.5C91.5509 1683.46 91.5044 1683.39 91.4996 1683.31L91.4157 1681.94C91.4108 1681.86 91.4483 1681.79 91.5134 1681.74L92.6459 1681C92.711 1680.95 92.7968 1680.95 92.8669 1680.98L93.9886 1681.56L95.984 1680.25C95.996 1680.41 96.0924 1680.55 96.2288 1680.62ZM92.7832 1681.44L91.8638 1682.05L91.9318 1683.16L92.9192 1683.67L93.8386 1683.06L93.7836 1682.16C93.7225 1682.15 93.6674 1682.12 93.631 1682.06C93.5906 1682 93.5879 1681.93 93.6116 1681.87L92.7832 1681.44Z" fill="#EAF9FF"/>
  <path d="M99.2375 1685.21L97.0519 1686.65L96.9462 1686.72C96.8439 1686.79 96.7065 1686.76 96.6396 1686.65C96.5727 1686.55 96.6009 1686.41 96.7014 1686.35L96.9605 1686.17L98.9946 1684.84C99.0046 1685 99.1011 1685.14 99.2375 1685.21Z" fill="#EAF9FF"/>
  <path d="M99.4473 1684.35C99.3761 1684.35 99.3115 1684.38 99.253 1684.41C99.2459 1684.41 99.2371 1684.42 99.2301 1684.42L99.0683 1681.78L96.724 1680.57C96.8488 1680.48 96.9295 1680.34 96.9213 1680.17L97.9706 1680.71L99.2656 1681.38L101.677 1679.79C101.677 1679.76 101.684 1679.73 101.696 1679.71L101.701 1679.79L101.704 1679.85L101.709 1679.92C101.711 1679.97 101.729 1680.01 101.756 1680.04C101.76 1680.05 101.764 1680.05 101.768 1680.06C101.786 1680.08 101.805 1680.09 101.83 1680.11L101.89 1680.14L101.932 1680.16L101.943 1680.17L99.5339 1681.76L99.6964 1684.41C99.6888 1684.41 99.6794 1684.4 99.6719 1684.4C99.6039 1684.37 99.5276 1684.35 99.4473 1684.35Z" fill="#EAF9FF"/>
  <path d="M102.167 1679.76L103.465 1680.43L102.167 1679.76Z" fill="#EAF9FF"/>
  <path d="M104.557 1681.47L104.668 1681.53C104.7 1681.55 104.735 1681.55 104.769 1681.55C104.778 1681.55 104.786 1681.55 104.797 1681.55C104.822 1681.55 104.847 1681.54 104.869 1681.53C104.875 1681.52 104.882 1681.52 104.887 1681.52L104.992 1681.45L105.148 1684.04C105.082 1684.01 105.007 1683.99 104.928 1683.99C104.849 1684 104.777 1684.02 104.715 1684.06L104.559 1681.47L104.557 1681.47Z" fill="#EAF9FF"/>
  <path d="M95.6975 1697.88L95.5253 1695.05L94.4374 1694.48C94.3681 1694.45 94.3221 1694.37 94.3173 1694.3L94.2345 1692.93C94.2297 1692.85 94.2667 1692.78 94.331 1692.73L95.3439 1692.06L95.1725 1689.24L95.162 1689.07C95.1548 1688.95 95.2411 1688.85 95.3562 1688.83C95.3598 1688.83 95.3633 1688.83 95.3669 1688.83C95.3705 1688.83 95.3742 1688.83 95.3778 1688.83C95.4938 1688.83 95.5915 1688.92 95.5988 1689.04L95.6093 1689.22L95.7807 1692.04L96.8686 1692.6C96.9379 1692.64 96.9839 1692.71 96.9887 1692.79L97.0715 1694.15C97.0763 1694.23 97.0393 1694.31 96.975 1694.35L95.9621 1695.02L96.1343 1697.86L96.0203 1697.8C95.951 1697.76 95.8662 1697.77 95.8019 1697.81L95.6975 1697.88ZM96.6287 1694.05L96.5615 1692.94L95.595 1692.44C95.5806 1692.44 94.6791 1693.04 94.6791 1693.04L94.7463 1694.14L95.722 1694.65L96.6287 1694.05Z" fill="#EAF9FF"/>
  <path d="M104.193 1674.7L104.038 1672.17L102.944 1671.61C102.874 1671.57 102.828 1671.5 102.823 1671.42L102.74 1670.05C102.735 1669.97 102.772 1669.9 102.837 1669.85L103.962 1669.11C104.027 1669.07 104.112 1669.06 104.182 1669.1L105.391 1669.72C105.46 1669.76 105.506 1669.83 105.511 1669.91L105.595 1671.28C105.599 1671.36 105.562 1671.43 105.497 1671.48L104.479 1672.15L104.636 1674.72C104.56 1674.67 104.473 1674.65 104.381 1674.65C104.312 1674.66 104.249 1674.68 104.193 1674.7ZM105.148 1671.17L105.08 1670.06L104.099 1669.56L103.185 1670.16L103.253 1671.27L104.225 1671.77C104.243 1671.77 105.148 1671.17 105.148 1671.17Z" fill="#EAF9FF"/>
  <path d="M99.0221 1675.15C98.9522 1675.11 98.8665 1675.11 98.8016 1675.16L98.6962 1675.23L98.5179 1672.31L95.9336 1670.98L93.5276 1672.57L93.7059 1675.48L96.2901 1676.81L96.1847 1676.88C96.1197 1676.93 96.0823 1677 96.0872 1677.08L96.0951 1677.21L93.3957 1675.82C93.3258 1675.78 93.2794 1675.71 93.2745 1675.63L93.0805 1672.46C93.0756 1672.38 93.113 1672.31 93.178 1672.26L95.7967 1670.54C95.8617 1670.49 95.9473 1670.49 96.0173 1670.53L98.8299 1671.97C98.8998 1672.01 98.9463 1672.08 98.9511 1672.16L99.1373 1675.2L99.0221 1675.15Z" fill="#EAF9FF"/>
  <path d="M96.5245 1677.17L98.9379 1675.58C98.938 1675.58 96.5245 1677.17 96.5245 1677.17Z" fill="#EAF9FF"/>
  <path d="M93.8615 1672.63L95.8475 1671.32C95.9498 1671.25 96.0872 1671.28 96.154 1671.38C96.1763 1671.42 96.1878 1671.46 96.1901 1671.49C96.1948 1671.57 96.1592 1671.65 96.0923 1671.69L94.1063 1673C94.004 1673.07 93.8666 1673.04 93.7998 1672.94C93.7311 1672.83 93.7593 1672.69 93.8615 1672.63Z" fill="#EAF9FF"/>
  <path d="M96.0693 1676.41C96.0024 1676.3 96.0288 1676.16 96.131 1676.1L98.117 1674.79C98.2193 1674.72 98.3566 1674.75 98.4235 1674.85C98.4458 1674.89 98.4573 1674.93 98.4595 1674.96C98.4643 1675.04 98.4287 1675.12 98.3599 1675.16L96.3739 1676.47C96.2736 1676.54 96.1361 1676.51 96.0693 1676.41Z" fill="#EAF9FF"/>
  <path d="M94.0448 1688.15L95.3948 1688.85C95.2786 1688.86 95.1913 1688.96 95.1987 1689.08L95.2093 1689.25L93.7328 1688.49C93.6629 1688.46 93.6164 1688.39 93.6116 1688.31L93.5019 1686.51C93.497 1686.43 93.5344 1686.36 93.5994 1686.31L95.0796 1685.34C95.1445 1685.29 95.2302 1685.29 95.3002 1685.33L96.8899 1686.14C96.9088 1686.15 96.9241 1686.16 96.9396 1686.18L96.6812 1686.35C96.5792 1686.42 96.5511 1686.55 96.6196 1686.66C96.6863 1686.76 96.8234 1686.79 96.9254 1686.72L97.0308 1686.65L97.1208 1688.12C97.1256 1688.2 97.0882 1688.28 97.0232 1688.32L95.6485 1689.23L95.6379 1689.06C95.6306 1688.94 95.5318 1688.85 95.4147 1688.84L96.6716 1688.02L96.5777 1686.48L95.2164 1685.78L93.9489 1686.61L94.0429 1688.15L94.0448 1688.15Z" fill="#EAF9FF"/>
  <path d="M106.92 1679.13C106.942 1679.17 106.953 1679.2 106.956 1679.24C106.96 1679.32 106.925 1679.4 106.858 1679.44L104.872 1680.75C104.77 1680.82 104.632 1680.79 104.565 1680.68C104.499 1680.58 104.525 1680.44 104.627 1680.38L106.613 1679.07C106.713 1679 106.851 1679.03 106.92 1679.13Z" fill="#EAF9FF"/>
  <path d="M102.62 1679.71C102.5 1679.71 102.398 1679.62 102.391 1679.5L102.247 1677.1C102.24 1676.98 102.33 1676.88 102.45 1676.87C102.569 1676.86 102.671 1676.96 102.679 1677.08L102.823 1679.47C102.83 1679.6 102.74 1679.7 102.62 1679.71Z" fill="#EAF9FF"/>
  <path d="M104.578 1681.49L101.995 1680.16L101.983 1680.15L101.942 1680.13L101.881 1680.09C101.857 1680.08 101.837 1680.07 101.82 1680.05C101.816 1680.04 101.812 1680.04 101.808 1680.03C101.796 1680.02 101.786 1680 101.777 1679.98C101.771 1679.97 101.77 1679.95 101.765 1679.94C101.763 1679.93 101.761 1679.92 101.761 1679.92C101.758 1679.91 101.754 1679.84 101.754 1679.84L101.75 1679.78L101.745 1679.7L101.573 1676.88L101.572 1676.86L101.564 1676.74C101.56 1676.66 101.597 1676.58 101.662 1676.54L101.732 1676.49L101.757 1676.48L103.922 1675.05C103.934 1674.89 104.026 1674.75 104.16 1674.68C104.217 1674.65 104.28 1674.63 104.347 1674.63C104.44 1674.62 104.528 1674.65 104.603 1674.69C104.704 1674.75 104.781 1674.85 104.814 1674.96L107.311 1676.25C107.381 1676.29 107.429 1676.36 107.434 1676.44L107.628 1679.61C107.633 1679.69 107.595 1679.76 107.528 1679.81L105.016 1681.46L104.909 1681.53C104.903 1681.54 104.896 1681.54 104.891 1681.54C104.868 1681.55 104.843 1681.56 104.817 1681.56C104.808 1681.56 104.799 1681.57 104.788 1681.57C104.753 1681.57 104.718 1681.56 104.686 1681.54L104.578 1681.49ZM107.183 1679.5L107.004 1676.59L104.713 1675.41C104.636 1675.49 104.53 1675.55 104.408 1675.55C104.298 1675.56 104.196 1675.52 104.113 1675.46L102.015 1676.84L102.193 1679.76L103.486 1680.42L104.779 1681.09L107.183 1679.5Z" fill="#EAF9FF"/>
  <path d="M95.9178 1700.03L95.1 1699.61C95.03 1699.57 94.9836 1699.5 94.9787 1699.42L94.9224 1698.5C94.9175 1698.42 94.9549 1698.34 95.0199 1698.3L95.6759 1697.87L95.7814 1697.8C95.8464 1697.75 95.9321 1697.75 96.0021 1697.78L96.1173 1697.84L96.8217 1698.21C96.8917 1698.24 96.94 1698.31 96.9448 1698.39L97.0012 1699.31C97.006 1699.39 96.9686 1699.47 96.9018 1699.51L96.1403 1700.02C96.0715 1700.06 95.9877 1700.06 95.9178 1700.03ZM96.5483 1699.21L96.5077 1698.54L95.926 1698.25C95.9114 1698.25 95.3698 1698.6 95.3698 1698.6L95.4103 1699.27L95.9996 1699.57L96.5483 1699.21Z" fill="#EAF9FF"/>
  <path d="M99.0069 1684.83C98.9957 1684.65 99.0814 1684.49 99.2172 1684.41C99.2243 1684.4 99.2312 1684.4 99.2401 1684.39C99.2986 1684.36 99.3633 1684.34 99.4345 1684.34C99.5148 1684.33 99.591 1684.35 99.6589 1684.38C99.6665 1684.39 99.6758 1684.39 99.6834 1684.4C99.8162 1684.47 99.9108 1684.61 99.9209 1684.78C99.9366 1685.03 99.7448 1685.25 99.4911 1685.26C99.4053 1685.27 99.3234 1685.24 99.2514 1685.21C99.1169 1685.13 99.0206 1684.99 99.0069 1684.83Z" fill="#EAF9FF"/>
  <path d="M96.9248 1680.19C96.9318 1680.36 96.851 1680.51 96.7263 1680.6C96.6595 1680.64 96.5808 1680.67 96.495 1680.68C96.4092 1680.68 96.3273 1680.66 96.2553 1680.62C96.1209 1680.55 96.0228 1680.41 96.0109 1680.25C95.9979 1680.06 96.0854 1679.91 96.2211 1679.82C96.2846 1679.78 96.3581 1679.76 96.4384 1679.75C96.5187 1679.75 96.5949 1679.77 96.6628 1679.8C96.8082 1679.87 96.9141 1680.02 96.9248 1680.19Z" fill="#EAF9FF"/>
  <path d="M104.495 1684.48C104.484 1684.3 104.57 1684.14 104.705 1684.06C104.769 1684.02 104.842 1683.99 104.923 1683.99C105.003 1683.98 105.079 1684 105.147 1684.04C105.293 1684.11 105.398 1684.25 105.409 1684.43C105.416 1684.6 105.335 1684.75 105.211 1684.83C105.144 1684.88 105.065 1684.91 104.979 1684.91C104.894 1684.92 104.812 1684.9 104.74 1684.86C104.605 1684.78 104.509 1684.65 104.495 1684.48Z" fill="#EAF9FF"/>
  <path d="M118.115 1672.87C118.232 1672.93 118.309 1673.04 118.317 1673.17L118.453 1675.39C118.461 1675.52 118.398 1675.64 118.289 1675.71L116.95 1676.56C116.928 1676.3 116.767 1676.07 116.542 1675.96L117.703 1675.22L117.593 1673.42L115.941 1672.6L114.399 1673.58L114.509 1675.38L115.753 1676C115.543 1676.14 115.407 1676.37 115.421 1676.64L113.987 1675.93C113.87 1675.87 113.792 1675.76 113.784 1675.63L113.649 1673.41C113.641 1673.28 113.704 1673.16 113.813 1673.09L115.712 1671.88C115.822 1671.81 115.965 1671.8 116.083 1671.86L118.115 1672.87Z" fill="#EAF9FF"/>
  <path d="M130.28 1688.39L130.018 1684.1C130.132 1684.16 130.259 1684.19 130.394 1684.18C130.529 1684.17 130.652 1684.13 130.759 1684.06L131.021 1688.35L131.034 1688.56C131.042 1688.69 130.978 1688.81 130.869 1688.88L130.692 1688.99L126.64 1691.57L126.463 1691.69C126.353 1691.76 126.209 1691.77 126.092 1691.71L125.902 1691.61L121.542 1689.45L121.583 1689.43L121.702 1689.35C121.811 1689.28 121.874 1689.16 121.866 1689.03L121.854 1688.83L121.852 1688.8L126.231 1690.97C126.231 1690.97 130.28 1688.39 130.28 1688.39Z" fill="#EAF9FF"/>
  <path d="M130.777 1682.78L134.161 1680.62L134.04 1678.65C134.032 1678.52 134.096 1678.4 134.205 1678.32L136.107 1677.11C136.216 1677.04 136.36 1677.03 136.478 1677.09L138.516 1678.1C138.633 1678.16 138.711 1678.28 138.719 1678.41L138.854 1680.63C138.862 1680.76 138.799 1680.88 138.69 1680.95L136.788 1682.16C136.678 1682.23 136.534 1682.24 136.417 1682.18L134.538 1681.25L131.186 1683.38C131.167 1683.12 131.005 1682.89 130.777 1682.78ZM136.559 1681.44L138.103 1680.46L137.993 1678.65L136.339 1677.84L134.795 1678.82L134.884 1680.28C134.986 1680.29 135.078 1680.34 135.139 1680.43C135.207 1680.53 135.211 1680.65 135.171 1680.75L136.559 1681.44Z" fill="#EAF9FF"/>
  <path d="M125.75 1675.36L129.42 1673.02L129.598 1672.91C129.77 1672.8 130 1672.84 130.112 1673.01C130.223 1673.18 130.176 1673.41 130.007 1673.51L129.572 1673.79L126.156 1675.97C126.14 1675.7 125.978 1675.48 125.75 1675.36Z" fill="#EAF9FF"/>
  <path d="M125.395 1676.75C125.514 1676.75 125.622 1676.71 125.721 1676.66C125.733 1676.65 125.747 1676.64 125.759 1676.64L126.021 1680.92L129.949 1682.86C129.739 1683 129.603 1683.24 129.617 1683.51L127.858 1682.63L125.689 1681.56L121.639 1684.14C121.638 1684.19 121.626 1684.23 121.607 1684.27L121.599 1684.14L121.593 1684.04L121.586 1683.93C121.581 1683.86 121.553 1683.79 121.506 1683.73C121.499 1683.72 121.493 1683.72 121.486 1683.71C121.457 1683.68 121.424 1683.65 121.383 1683.63L121.282 1683.58L121.212 1683.54L121.193 1683.53L125.24 1680.95L124.977 1676.65C124.99 1676.66 125.005 1676.67 125.018 1676.67C125.132 1676.73 125.26 1676.76 125.395 1676.75Z" fill="#EAF9FF"/>
  <path d="M120.822 1684.19L118.648 1683.12L120.822 1684.19Z" fill="#EAF9FF"/>
  <path d="M116.818 1681.43L116.632 1681.34C116.579 1681.31 116.521 1681.3 116.464 1681.3C116.449 1681.3 116.434 1681.3 116.416 1681.3C116.374 1681.31 116.333 1681.32 116.295 1681.34C116.286 1681.35 116.274 1681.35 116.265 1681.35L116.089 1681.47L115.836 1677.27C115.948 1677.33 116.073 1677.36 116.205 1677.35C116.337 1677.34 116.458 1677.3 116.562 1677.24L116.815 1681.43L116.818 1681.43Z" fill="#EAF9FF"/>
  <path d="M131.724 1654.83L132.003 1659.42L133.827 1660.33C133.943 1660.39 134.02 1660.51 134.028 1660.64L134.162 1662.84C134.17 1662.97 134.107 1663.09 133.999 1663.17L132.297 1664.26L132.575 1668.82L132.592 1669.1C132.603 1669.3 132.458 1669.46 132.265 1669.48C132.259 1669.48 132.253 1669.48 132.247 1669.48C132.241 1669.48 132.235 1669.48 132.229 1669.48C132.034 1669.48 131.87 1669.34 131.859 1669.14L131.842 1668.86L131.564 1664.29L129.74 1663.38C129.624 1663.32 129.548 1663.21 129.54 1663.08L129.406 1660.87C129.398 1660.75 129.46 1660.62 129.568 1660.55L131.27 1659.46L130.991 1654.87L131.182 1654.97C131.299 1655.03 131.441 1655.02 131.549 1654.95L131.724 1654.83ZM130.148 1661.04L130.257 1662.84L131.877 1663.64C131.901 1663.64 133.416 1662.67 133.416 1662.67L133.307 1660.88L131.672 1660.07L130.148 1661.04Z" fill="#EAF9FF"/>
  <path d="M117.401 1692.38L117.652 1696.49L119.485 1697.4C119.601 1697.46 119.679 1697.57 119.687 1697.7L119.821 1699.91C119.829 1700.04 119.767 1700.16 119.658 1700.23L117.768 1701.44C117.659 1701.51 117.516 1701.52 117.399 1701.46L115.374 1700.45C115.257 1700.39 115.18 1700.28 115.172 1700.15L115.037 1697.94C115.029 1697.81 115.092 1697.69 115.201 1697.62L116.912 1696.52L116.658 1692.36C116.784 1692.44 116.93 1692.47 117.086 1692.46C117.201 1692.46 117.306 1692.43 117.401 1692.38ZM115.787 1698.11L115.896 1699.9L117.54 1700.71L119.075 1699.74L118.965 1697.94L117.337 1697.13C117.307 1697.14 115.787 1698.11 115.787 1698.11Z" fill="#EAF9FF"/>
  <path d="M126.083 1691.65C126.2 1691.71 126.343 1691.7 126.453 1691.63L126.63 1691.52L126.918 1696.24L131.249 1698.39L135.291 1695.81L135.002 1691.09L130.672 1688.95L130.849 1688.83C130.958 1688.76 131.021 1688.64 131.013 1688.51L131 1688.3L135.524 1690.54C135.641 1690.6 135.718 1690.72 135.726 1690.84L136.04 1695.98C136.048 1696.11 135.985 1696.23 135.876 1696.3L131.477 1699.1C131.368 1699.18 131.224 1699.18 131.107 1699.12L126.394 1696.79C126.277 1696.73 126.199 1696.61 126.191 1696.49L125.89 1691.56L126.083 1691.65Z" fill="#EAF9FF"/>
  <path d="M130.277 1688.37L126.223 1690.95C126.223 1690.95 130.277 1688.37 130.277 1688.37Z" fill="#EAF9FF"/>
  <path d="M134.731 1695.71L131.395 1697.84C131.223 1697.95 130.993 1697.9 130.881 1697.73C130.844 1697.68 130.825 1697.62 130.821 1697.56C130.813 1697.43 130.873 1697.3 130.986 1697.23L134.322 1695.11C134.494 1695 134.724 1695.04 134.836 1695.21C134.951 1695.38 134.903 1695.6 134.731 1695.71Z" fill="#EAF9FF"/>
  <path d="M131.043 1689.6C131.155 1689.77 131.11 1689.99 130.938 1690.1L127.602 1692.23C127.43 1692.34 127.2 1692.29 127.088 1692.12C127.051 1692.07 127.032 1692.01 127.028 1691.95C127.02 1691.82 127.08 1691.69 127.196 1691.62L130.532 1689.5C130.701 1689.38 130.931 1689.43 131.043 1689.6Z" fill="#EAF9FF"/>
  <path d="M134.476 1670.58L132.214 1669.46C132.409 1669.44 132.556 1669.28 132.544 1669.08L132.527 1668.8L135.001 1670.03C135.118 1670.09 135.195 1670.2 135.203 1670.33L135.381 1673.23C135.389 1673.36 135.326 1673.49 135.217 1673.56L132.73 1675.14C132.621 1675.21 132.478 1675.22 132.36 1675.16L129.697 1673.84C129.665 1673.82 129.639 1673.81 129.614 1673.78L130.048 1673.51C130.219 1673.4 130.267 1673.18 130.152 1673.01C130.04 1672.84 129.811 1672.79 129.639 1672.9L129.462 1673.02L129.317 1670.63C129.309 1670.51 129.372 1670.38 129.481 1670.31L131.79 1668.84L131.807 1669.12C131.819 1669.32 131.984 1669.46 132.181 1669.46L130.07 1670.81L130.222 1673.3L132.503 1674.42L134.632 1673.07L134.479 1670.58L134.476 1670.58Z" fill="#EAF9FF"/>
  <path d="M112.862 1685.23C112.824 1685.17 112.805 1685.11 112.801 1685.05C112.794 1684.92 112.854 1684.8 112.966 1684.72L116.302 1682.6C116.474 1682.49 116.704 1682.54 116.816 1682.7C116.928 1682.87 116.883 1683.1 116.711 1683.2L113.375 1685.33C113.207 1685.44 112.976 1685.39 112.862 1685.23Z" fill="#EAF9FF"/>
  <path d="M120.07 1684.28C120.27 1684.27 120.442 1684.42 120.454 1684.62L120.686 1688.5C120.698 1688.69 120.546 1688.86 120.346 1688.87C120.145 1688.88 119.974 1688.73 119.962 1688.53L119.729 1684.66C119.717 1684.46 119.869 1684.29 120.07 1684.28Z" fill="#EAF9FF"/>
  <path d="M116.782 1681.41L121.111 1683.55L121.131 1683.56L121.2 1683.6L121.301 1683.65C121.343 1683.67 121.375 1683.7 121.404 1683.73C121.411 1683.74 121.418 1683.74 121.424 1683.75C121.444 1683.78 121.461 1683.81 121.476 1683.84C121.486 1683.86 121.487 1683.88 121.495 1683.91C121.499 1683.92 121.502 1683.93 121.503 1683.94C121.507 1683.95 121.514 1684.06 121.514 1684.06L121.52 1684.16L121.528 1684.29L121.807 1688.86L121.809 1688.89L121.821 1689.09C121.829 1689.21 121.766 1689.34 121.657 1689.41L121.539 1689.48L121.497 1689.51L117.861 1691.83C117.84 1692.09 117.685 1692.31 117.459 1692.43C117.364 1692.48 117.258 1692.51 117.145 1692.51C116.989 1692.52 116.843 1692.48 116.716 1692.41C116.547 1692.31 116.418 1692.16 116.363 1691.97L112.179 1689.89C112.062 1689.83 111.981 1689.72 111.973 1689.59L111.659 1684.45C111.652 1684.33 111.715 1684.2 111.827 1684.13L116.048 1681.44L116.228 1681.33C116.237 1681.32 116.249 1681.33 116.258 1681.32C116.297 1681.3 116.339 1681.29 116.381 1681.28C116.397 1681.28 116.412 1681.28 116.43 1681.28C116.488 1681.28 116.547 1681.28 116.601 1681.31L116.782 1681.41ZM112.406 1684.62L112.694 1689.34L116.534 1691.25C116.664 1691.11 116.842 1691.02 117.047 1691.01C117.231 1691 117.403 1691.06 117.541 1691.16L121.065 1688.92L120.777 1684.2L118.61 1683.12L116.444 1682.05L112.406 1684.62Z" fill="#EAF9FF"/>
  <path d="M131.375 1651.36L132.745 1652.04C132.862 1652.1 132.94 1652.22 132.948 1652.34L133.039 1653.84C133.047 1653.97 132.984 1654.09 132.875 1654.16L131.773 1654.86L131.596 1654.97C131.487 1655.05 131.343 1655.05 131.226 1654.99L131.033 1654.9L129.853 1654.31C129.736 1654.25 129.655 1654.14 129.647 1654.01L129.556 1652.52C129.548 1652.39 129.611 1652.27 129.723 1652.19L131.002 1651.38C131.117 1651.31 131.258 1651.3 131.375 1651.36ZM130.315 1652.69L130.381 1653.76L131.355 1654.25C131.38 1654.25 132.289 1653.67 132.289 1653.67L132.223 1652.59L131.236 1652.1L130.315 1652.69Z" fill="#EAF9FF"/>
  <path d="M126.145 1675.98C126.163 1676.27 126.019 1676.53 125.791 1676.66C125.779 1676.67 125.767 1676.68 125.753 1676.69C125.654 1676.74 125.546 1676.77 125.426 1676.78C125.292 1676.78 125.164 1676.75 125.05 1676.7C125.038 1676.7 125.022 1676.69 125.009 1676.68C124.787 1676.56 124.629 1676.34 124.612 1676.07C124.587 1675.65 124.909 1675.3 125.335 1675.28C125.479 1675.27 125.616 1675.31 125.736 1675.37C125.962 1675.49 126.123 1675.71 126.145 1675.98Z" fill="#EAF9FF"/>
  <path d="M129.624 1683.48C129.613 1683.2 129.749 1682.96 129.958 1682.82C130.071 1682.75 130.203 1682.7 130.347 1682.69C130.49 1682.68 130.628 1682.72 130.748 1682.78C130.973 1682.9 131.137 1683.12 131.157 1683.39C131.178 1683.68 131.031 1683.93 130.803 1684.08C130.696 1684.14 130.573 1684.18 130.438 1684.19C130.304 1684.2 130.176 1684.17 130.062 1684.11C129.818 1684 129.641 1683.76 129.624 1683.48Z" fill="#EAF9FF"/>
  <path d="M116.938 1676.56C116.956 1676.85 116.812 1677.11 116.584 1677.24C116.477 1677.31 116.354 1677.35 116.219 1677.36C116.085 1677.37 115.957 1677.34 115.843 1677.28C115.6 1677.17 115.423 1676.93 115.405 1676.65C115.394 1676.37 115.53 1676.13 115.74 1675.99C115.852 1675.92 115.984 1675.87 116.128 1675.86C116.272 1675.85 116.409 1675.89 116.529 1675.95C116.755 1676.07 116.916 1676.29 116.938 1676.56Z" fill="#EAF9FF"/>
  <path d="M277.485 1461.94C277.357 1461.87 277.272 1461.74 277.263 1461.59L277.11 1459.09C277.101 1458.94 277.17 1458.81 277.289 1458.73L278.745 1457.77C278.77 1458.07 278.946 1458.32 279.192 1458.45L277.928 1459.28L278.052 1461.32L279.855 1462.24L281.534 1461.14L281.409 1459.11L280.052 1458.41C280.28 1458.25 280.427 1457.98 280.412 1457.68L281.977 1458.49C282.105 1458.55 282.19 1458.68 282.198 1458.83L282.352 1461.33C282.36 1461.48 282.292 1461.62 282.173 1461.7L280.106 1463.06C279.987 1463.14 279.83 1463.15 279.702 1463.08L277.485 1461.94Z" fill="#EAF9FF"/>
  <path d="M264.191 1444.39L264.487 1449.22C264.362 1449.16 264.223 1449.13 264.076 1449.13C263.929 1449.14 263.795 1449.19 263.679 1449.26L263.383 1444.43L263.368 1444.19C263.36 1444.05 263.428 1443.91 263.547 1443.83L263.74 1443.7L268.15 1440.79L268.343 1440.66C268.462 1440.58 268.619 1440.57 268.747 1440.64L268.955 1440.75L273.712 1443.2L273.667 1443.23L273.538 1443.31C273.419 1443.39 273.351 1443.53 273.36 1443.68L273.374 1443.9L273.376 1443.94L268.597 1441.48C268.598 1441.48 264.191 1444.39 264.191 1444.39Z" fill="#EAF9FF"/>
  <path d="M263.653 1450.72L259.969 1453.15L260.106 1455.38C260.115 1455.52 260.046 1455.66 259.927 1455.74L257.857 1457.11C257.738 1457.19 257.581 1457.19 257.453 1457.13L255.229 1455.98C255.101 1455.91 255.016 1455.78 255.007 1455.64L254.854 1453.13C254.845 1452.99 254.913 1452.85 255.032 1452.77L257.103 1451.4C257.222 1451.32 257.379 1451.31 257.507 1451.38L259.557 1452.44L263.205 1450.03C263.227 1450.34 263.404 1450.59 263.653 1450.72ZM257.354 1452.22L255.673 1453.33L255.797 1455.36L257.602 1456.29L259.283 1455.18L259.183 1453.54C259.071 1453.52 258.97 1453.46 258.904 1453.36C258.83 1453.25 258.825 1453.11 258.868 1453L257.354 1452.22Z" fill="#EAF9FF"/>
  <path d="M269.15 1459.1L265.155 1461.74L264.962 1461.87C264.775 1461.99 264.523 1461.94 264.401 1461.75C264.279 1461.56 264.33 1461.3 264.514 1461.18L264.988 1460.87L268.706 1458.42C268.724 1458.72 268.901 1458.97 269.15 1459.1Z" fill="#EAF9FF"/>
  <path d="M269.539 1457.54C269.408 1457.54 269.29 1457.58 269.183 1457.64C269.17 1457.65 269.154 1457.66 269.141 1457.67L268.846 1452.83L264.56 1450.63C264.788 1450.47 264.936 1450.2 264.921 1449.9L266.839 1450.89L269.206 1452.11L273.615 1449.2C273.615 1449.15 273.628 1449.1 273.649 1449.05L273.658 1449.2L273.665 1449.31L273.673 1449.44C273.678 1449.52 273.709 1449.6 273.76 1449.66C273.767 1449.67 273.775 1449.68 273.782 1449.69C273.814 1449.72 273.85 1449.75 273.894 1449.78L274.005 1449.83L274.081 1449.87L274.102 1449.89L269.697 1452.79L269.994 1457.65C269.98 1457.64 269.963 1457.63 269.949 1457.63C269.825 1457.57 269.685 1457.53 269.539 1457.54Z" fill="#EAF9FF"/>
  <path d="M274.507 1449.15L276.879 1450.36L274.507 1449.15Z" fill="#EAF9FF"/>
  <path d="M278.881 1452.27L279.085 1452.38C279.142 1452.41 279.205 1452.42 279.267 1452.42C279.284 1452.42 279.3 1452.42 279.32 1452.42C279.365 1452.41 279.41 1452.39 279.451 1452.37C279.461 1452.37 279.474 1452.37 279.483 1452.36L279.676 1452.23L279.961 1456.97C279.839 1456.91 279.703 1456.87 279.559 1456.88C279.415 1456.89 279.283 1456.94 279.17 1457.01L278.885 1452.27L278.881 1452.27Z" fill="#EAF9FF"/>
  <path d="M262.688 1482.28L262.373 1477.09L260.384 1476.06C260.258 1475.99 260.173 1475.86 260.165 1475.72L260.013 1473.23C260.004 1473.08 260.072 1472.94 260.19 1472.86L262.042 1471.63L261.728 1466.47L261.709 1466.16C261.696 1465.94 261.854 1465.76 262.064 1465.73C262.071 1465.73 262.077 1465.73 262.084 1465.73C262.09 1465.73 262.097 1465.73 262.104 1465.73C262.316 1465.74 262.494 1465.9 262.508 1466.12L262.527 1466.43L262.84 1471.59L264.83 1472.62C264.956 1472.69 265.04 1472.82 265.049 1472.97L265.201 1475.46C265.209 1475.6 265.142 1475.74 265.024 1475.82L263.172 1477.05L263.487 1482.24L263.278 1482.13C263.152 1482.06 262.997 1482.07 262.879 1482.15L262.688 1482.28ZM264.391 1475.27L264.268 1473.24L262.501 1472.33C262.474 1472.33 260.826 1473.42 260.826 1473.42L260.949 1475.44L262.733 1476.37L264.391 1475.27Z" fill="#EAF9FF"/>
  <path d="M278.22 1439.9L277.937 1435.26L275.937 1434.23C275.81 1434.16 275.725 1434.03 275.717 1433.89L275.564 1431.39C275.556 1431.25 275.624 1431.11 275.742 1431.03L277.799 1429.67C277.917 1429.59 278.073 1429.58 278.201 1429.65L280.41 1430.79C280.537 1430.86 280.622 1430.99 280.631 1431.13L280.783 1433.63C280.792 1433.77 280.724 1433.91 280.606 1433.99L278.744 1435.22L279.03 1439.92C278.892 1439.84 278.733 1439.8 278.564 1439.8C278.438 1439.81 278.323 1439.84 278.22 1439.9ZM279.966 1433.44L279.842 1431.41L278.049 1430.49L276.379 1431.59L276.502 1433.62L278.279 1434.53C278.312 1434.53 279.966 1433.44 279.966 1433.44Z" fill="#EAF9FF"/>
  <path d="M268.755 1440.71C268.627 1440.64 268.471 1440.65 268.352 1440.73L268.159 1440.86L267.833 1435.53L263.108 1433.09L258.709 1435.99L259.035 1441.32L263.76 1443.75L263.567 1443.88C263.448 1443.96 263.38 1444.1 263.389 1444.25L263.403 1444.48L258.468 1441.94C258.34 1441.88 258.255 1441.75 258.246 1441.6L257.891 1435.8C257.882 1435.65 257.951 1435.52 258.07 1435.43L262.858 1432.28C262.977 1432.2 263.133 1432.19 263.261 1432.26L268.404 1434.91C268.532 1434.97 268.617 1435.1 268.625 1435.25L268.966 1440.82L268.755 1440.71Z" fill="#EAF9FF"/>
  <path d="M264.185 1444.41L268.598 1441.5C268.598 1441.5 264.185 1444.41 264.185 1444.41Z" fill="#EAF9FF"/>
  <path d="M259.321 1436.11L262.952 1433.71C263.139 1433.59 263.391 1433.64 263.513 1433.83C263.553 1433.9 263.575 1433.97 263.579 1434.03C263.587 1434.18 263.522 1434.32 263.4 1434.4L259.769 1436.79C259.582 1436.91 259.33 1436.86 259.208 1436.67C259.083 1436.48 259.134 1436.23 259.321 1436.11Z" fill="#EAF9FF"/>
  <path d="M263.349 1443.01C263.227 1442.82 263.275 1442.57 263.462 1442.45L267.093 1440.05C267.28 1439.93 267.531 1439.98 267.653 1440.18C267.694 1440.24 267.715 1440.31 267.719 1440.38C267.728 1440.52 267.663 1440.66 267.537 1440.74L263.906 1443.14C263.722 1443.26 263.471 1443.21 263.349 1443.01Z" fill="#EAF9FF"/>
  <path d="M259.656 1464.49L262.124 1465.76C261.912 1465.79 261.752 1465.97 261.766 1466.19L261.785 1466.5L259.086 1465.12C258.958 1465.05 258.873 1464.92 258.864 1464.77L258.664 1461.49C258.655 1461.35 258.723 1461.21 258.842 1461.13L261.548 1459.34C261.667 1459.26 261.823 1459.26 261.951 1459.32L264.858 1460.82C264.892 1460.84 264.92 1460.86 264.948 1460.88L264.476 1461.19C264.29 1461.31 264.238 1461.57 264.363 1461.76C264.485 1461.95 264.736 1462 264.922 1461.88L265.115 1461.75L265.28 1464.44C265.289 1464.58 265.22 1464.72 265.101 1464.8L262.588 1466.46L262.569 1466.14C262.555 1465.92 262.375 1465.76 262.161 1465.76L264.459 1464.24L264.287 1461.43L261.798 1460.15L259.481 1461.68L259.653 1464.49L259.656 1464.49Z" fill="#EAF9FF"/>
  <path d="M283.181 1448C283.221 1448.06 283.243 1448.13 283.247 1448.2C283.255 1448.34 283.19 1448.48 283.068 1448.56L279.437 1450.96C279.25 1451.08 278.998 1451.03 278.876 1450.84C278.754 1450.65 278.802 1450.39 278.989 1450.27L282.62 1447.88C282.804 1447.75 283.055 1447.81 283.181 1448Z" fill="#EAF9FF"/>
  <path d="M275.328 1449.05C275.109 1449.06 274.922 1448.89 274.909 1448.66L274.646 1444.29C274.632 1444.06 274.798 1443.87 275.016 1443.86C275.235 1443.85 275.422 1444.02 275.435 1444.25L275.698 1448.62C275.712 1448.85 275.546 1449.04 275.328 1449.05Z" fill="#EAF9FF"/>
  <path d="M278.918 1452.3L274.193 1449.87L274.173 1449.86L274.097 1449.82L273.986 1449.76C273.941 1449.74 273.906 1449.7 273.874 1449.67C273.866 1449.66 273.859 1449.65 273.852 1449.64C273.83 1449.61 273.811 1449.58 273.796 1449.54C273.784 1449.52 273.783 1449.49 273.774 1449.47C273.77 1449.45 273.766 1449.44 273.766 1449.43C273.761 1449.42 273.754 1449.29 273.754 1449.29L273.747 1449.18L273.738 1449.03L273.423 1443.88L273.421 1443.85L273.407 1443.62C273.398 1443.47 273.466 1443.34 273.585 1443.26L273.714 1443.17L273.759 1443.14L277.717 1440.53C277.739 1440.24 277.907 1439.99 278.153 1439.86C278.257 1439.8 278.372 1439.77 278.495 1439.76C278.665 1439.75 278.825 1439.8 278.963 1439.88C279.147 1439.98 279.288 1440.16 279.348 1440.38L283.914 1442.73C284.042 1442.79 284.13 1442.93 284.139 1443.07L284.493 1448.87C284.502 1449.02 284.434 1449.16 284.312 1449.24L279.717 1452.26L279.521 1452.39C279.512 1452.4 279.498 1452.39 279.489 1452.4C279.446 1452.42 279.401 1452.44 279.354 1452.44C279.338 1452.45 279.321 1452.45 279.301 1452.45C279.238 1452.45 279.173 1452.44 279.115 1452.41L278.918 1452.3ZM283.679 1448.68L283.353 1443.35L279.164 1441.19C279.023 1441.34 278.828 1441.44 278.605 1441.45C278.405 1441.46 278.218 1441.4 278.067 1441.28L274.231 1443.81L274.557 1449.14L276.92 1450.36L279.284 1451.57L283.679 1448.68Z" fill="#EAF9FF"/>
  <path d="M263.08 1486.2L261.586 1485.43C261.458 1485.37 261.373 1485.23 261.364 1485.09L261.261 1483.4C261.252 1483.26 261.32 1483.12 261.439 1483.04L262.638 1482.25L262.831 1482.12C262.95 1482.04 263.106 1482.03 263.234 1482.1L263.445 1482.21L264.732 1482.87C264.86 1482.94 264.948 1483.07 264.957 1483.21L265.06 1484.9C265.069 1485.05 265.001 1485.18 264.879 1485.26L263.487 1486.18C263.361 1486.26 263.208 1486.27 263.08 1486.2ZM264.233 1484.71L264.158 1483.49L263.095 1482.94C263.068 1482.95 262.078 1483.6 262.078 1483.6L262.153 1484.81L263.23 1485.37L264.233 1484.71Z" fill="#EAF9FF"/>
  <path d="M268.719 1458.42C268.698 1458.08 268.855 1457.8 269.103 1457.64C269.116 1457.63 269.129 1457.62 269.145 1457.62C269.252 1457.56 269.37 1457.52 269.5 1457.51C269.647 1457.51 269.786 1457.54 269.911 1457.6C269.924 1457.61 269.942 1457.61 269.956 1457.62C270.198 1457.76 270.371 1458.01 270.39 1458.32C270.418 1458.79 270.068 1459.18 269.604 1459.21C269.447 1459.21 269.297 1459.17 269.166 1459.1C268.92 1458.97 268.744 1458.72 268.719 1458.42Z" fill="#EAF9FF"/>
  <path d="M264.913 1449.93C264.926 1450.25 264.778 1450.52 264.55 1450.68C264.428 1450.76 264.284 1450.81 264.127 1450.82C263.97 1450.83 263.821 1450.79 263.689 1450.72C263.443 1450.59 263.264 1450.34 263.242 1450.04C263.219 1449.7 263.379 1449.42 263.627 1449.26C263.743 1449.18 263.877 1449.14 264.024 1449.13C264.171 1449.12 264.31 1449.16 264.434 1449.22C264.7 1449.35 264.893 1449.61 264.913 1449.93Z" fill="#EAF9FF"/>
  <path d="M278.762 1457.78C278.741 1457.44 278.898 1457.16 279.146 1457C279.262 1456.93 279.397 1456.88 279.543 1456.88C279.69 1456.87 279.829 1456.9 279.954 1456.96C280.219 1457.1 280.413 1457.36 280.433 1457.68C280.445 1458 280.298 1458.26 280.07 1458.42C279.948 1458.51 279.804 1458.56 279.647 1458.57C279.49 1458.58 279.34 1458.54 279.209 1458.47C278.963 1458.33 278.787 1458.08 278.762 1457.78Z" fill="#EAF9FF"/>
  <path d="M284.758 1483L284.426 1478.48L284.536 1478.54C284.627 1478.58 284.736 1478.58 284.82 1478.52L284.988 1478.41L285.327 1483.02L288.834 1484.82L292.717 1482.22L292.725 1482.37C292.732 1482.47 292.791 1482.56 292.881 1482.61L293.047 1482.69L289.129 1485.32L289.367 1489.19L293.54 1491.3L295.075 1490.29C295.159 1490.24 295.268 1490.23 295.358 1490.28L297.14 1491.19C297.23 1491.24 297.289 1491.33 297.296 1491.43L297.418 1493.44C297.425 1493.55 297.377 1493.64 297.293 1493.7L295.635 1494.79C295.55 1494.85 295.441 1494.85 295.351 1494.8L293.569 1493.89C293.479 1493.84 293.42 1493.75 293.414 1493.65L293.302 1491.82L289.196 1489.74L285.924 1491.9L286.138 1495.4L285.909 1495.28C285.819 1495.23 285.71 1495.24 285.625 1495.29L285.565 1495.33L285.363 1492.04L281.735 1490.17L279.291 1491.75L279.356 1492.82C279.363 1492.92 279.315 1493.02 279.231 1493.07L278.155 1493.78L278.23 1495.02L279.06 1495.45C279.15 1495.49 279.209 1495.58 279.216 1495.69L279.283 1496.79C279.289 1496.89 279.242 1496.99 279.157 1497.04L278.248 1497.64C278.163 1497.7 278.054 1497.7 277.964 1497.66L276.986 1497.15C276.896 1497.11 276.837 1497.02 276.831 1496.91L276.763 1495.81C276.757 1495.71 276.804 1495.61 276.889 1495.56L277.66 1495.05L277.585 1493.81L276.635 1493.32L275.324 1494.21L275.386 1495.22C275.392 1495.32 275.345 1495.42 275.261 1495.47L274.353 1496.07C274.269 1496.13 274.16 1496.13 274.069 1496.09L273.092 1495.59C273.001 1495.54 272.942 1495.45 272.936 1495.34L272.869 1494.24C272.862 1494.14 272.91 1494.04 272.994 1493.99L273.904 1493.39C273.988 1493.33 274.097 1493.33 274.188 1493.37L274.954 1493.77L276.267 1492.88L276.193 1491.66L274.745 1490.87L274.076 1491.31C273.992 1491.37 273.883 1491.37 273.792 1491.32L272.815 1490.82C272.725 1490.78 272.665 1490.68 272.659 1490.58L272.592 1489.48C272.585 1489.38 272.633 1489.28 272.717 1489.22L273.627 1488.63C273.711 1488.57 273.821 1488.57 273.911 1488.61L274.886 1489.11C274.976 1489.16 275.035 1489.25 275.042 1489.35L275.107 1490.42L276.449 1491.16L277.518 1490.45C277.602 1490.4 277.711 1490.39 277.802 1490.44L279.103 1491.11C279.123 1491.12 279.134 1491.14 279.152 1491.15L281.411 1489.7L281.183 1485.97L277.07 1484.16L276.193 1484.74C276.108 1484.8 275.999 1484.8 275.909 1484.76L274.607 1484.09C274.517 1484.04 274.458 1483.95 274.451 1483.84L274.362 1482.38C274.355 1482.27 274.403 1482.18 274.487 1482.12L275.699 1481.32C275.783 1481.27 275.892 1481.26 275.983 1481.31L277.284 1481.98C277.374 1482.03 277.434 1482.12 277.44 1482.22L277.53 1483.69C277.531 1483.7 277.522 1483.72 277.518 1483.74L281.214 1485.36C281.234 1485.33 281.252 1485.3 281.282 1485.28L284.758 1483ZM293.974 1493.45L295.461 1494.22L296.846 1493.31L296.743 1491.63L295.255 1490.86L294.133 1491.6L293.871 1491.77L293.892 1492.12L293.974 1493.45ZM273.501 1495.15L274.184 1495.5L274.82 1495.08L274.79 1494.58L274.773 1494.31L274.424 1494.13L274.09 1493.96L273.454 1494.38L273.501 1495.15ZM274.496 1489.55L273.813 1489.2L273.177 1489.61L273.181 1489.69L273.199 1489.97L273.224 1490.39L273.907 1490.74L274.183 1490.56L274.541 1490.32L274.527 1490.09L274.494 1489.55L274.496 1489.55ZM276.766 1491.64L276.787 1491.99L276.819 1492.51L276.828 1492.66L276.835 1492.78L277.18 1492.96L277.313 1493.03L277.552 1493.15L277.845 1493.3L278.119 1493.12L278.786 1492.68L278.75 1492.1L278.716 1491.55L278.628 1491.5L277.709 1491.03L277.033 1491.47L276.766 1491.64ZM277.982 1495.52L277.708 1495.7L277.346 1495.94L277.393 1496.71L277.858 1496.95L278.016 1497.04L278.076 1497.07L278.132 1497.03L278.28 1496.93L278.712 1496.65L278.665 1495.88L278.276 1495.67L277.982 1495.52ZM276.96 1483.49L276.894 1482.41L275.887 1481.89L274.949 1482.51L275.019 1483.65L276.026 1484.17L276.454 1483.89L276.967 1483.55L276.963 1483.49L276.96 1483.49ZM281.742 1485.67L281.775 1486.22L281.966 1489.34L281.986 1489.66L282.29 1489.81L285.325 1491.38L285.518 1491.48L285.883 1491.24L288.606 1489.44L288.807 1489.31L288.781 1488.89L288.585 1485.68L288.563 1485.32L288.292 1485.18L285.372 1483.68L285.028 1483.5L284.801 1483.65L281.819 1485.62L281.742 1485.67Z" fill="#67CDF5" fill-opacity="0.5"/>
  <path d="M285.415 1484.13L287.942 1485.43L288.063 1485.49C288.153 1485.54 288.212 1485.63 288.218 1485.73L288.23 1485.92L288.4 1488.7L288.415 1488.95C288.422 1489.05 288.374 1489.15 288.29 1489.2L288.222 1489.25L285.865 1490.8L285.636 1490.95C285.552 1491.01 285.443 1491.01 285.353 1490.96L285.305 1490.94L282.662 1489.58L282.502 1489.5C282.412 1489.45 282.353 1489.36 282.346 1489.26L282.337 1489.11L282.171 1486.39L282.15 1486.04C282.144 1485.95 282.187 1485.87 282.254 1485.81C282.261 1485.8 282.265 1485.79 282.275 1485.79L284.845 1484.09L284.929 1484.04C285.013 1483.98 285.122 1483.98 285.212 1484.02L285.415 1484.13ZM282.724 1486.17L282.752 1486.64L282.881 1488.75L282.9 1489.06L283.214 1489.22L285.265 1490.28L285.458 1490.37L285.822 1490.13L287.631 1488.94L287.838 1488.81L287.814 1488.4L287.684 1486.28L287.662 1485.92L287.399 1485.79L285.46 1484.79L285.104 1484.61L284.892 1484.75L282.871 1486.08L282.724 1486.17Z" fill="#67CDF5" fill-opacity="0.5"/>
  <path d="M294.056 1481.93C294.105 1482.05 294.141 1482.18 294.149 1482.32C294.188 1482.97 293.692 1483.53 293.045 1483.56C292.397 1483.6 291.841 1483.09 291.803 1482.44C291.794 1482.31 291.814 1482.18 291.85 1482.05C291.891 1481.91 291.958 1481.77 292.049 1481.66C292.25 1481.4 292.554 1481.22 292.909 1481.2C293.264 1481.18 293.587 1481.32 293.818 1481.56C293.917 1481.67 293.999 1481.8 294.056 1481.93Z" fill="#67CDF5" fill-opacity="0.5"/>
  <path d="M285.865 1478.04C285.913 1478.16 285.95 1478.28 285.958 1478.42C285.996 1479.07 285.5 1479.63 284.854 1479.66C284.205 1479.7 283.649 1479.2 283.611 1478.55C283.603 1478.41 283.622 1478.28 283.659 1478.16C283.699 1478.01 283.767 1477.88 283.857 1477.76C284.059 1477.5 284.363 1477.32 284.718 1477.3C285.072 1477.28 285.395 1477.43 285.626 1477.67C285.723 1477.77 285.806 1477.9 285.865 1478.04Z" fill="#67CDF5" fill-opacity="0.5"/>
  <path d="M286.802 1495.54C286.828 1495.62 286.848 1495.7 286.853 1495.78C286.878 1496.21 286.605 1496.58 286.214 1496.7C286.145 1496.72 286.073 1496.74 285.995 1496.74C285.919 1496.75 285.843 1496.74 285.772 1496.73C285.37 1496.65 285.055 1496.31 285.03 1495.88C285 1495.37 285.384 1494.94 285.885 1494.91C286.143 1494.9 286.382 1495 286.558 1495.16C286.671 1495.27 286.752 1495.39 286.802 1495.54Z" fill="#67CDF5" fill-opacity="0.5"/>
  <path d="M95.4208 1634.69L91.9339 1633.08L91.6844 1634.19L95.2007 1636.33L95.4208 1634.69Z" fill="#142E8F"/>
  <path d="M193.986 1667.79L189.459 1664.93L188.579 1665.91L192.449 1668.19L193.986 1667.79Z" fill="#0E2187"/>
  <defs>
    <filter id="filter0_f" x="173.184" y="1450.54" width="205.203" height="150.832" filterUnits="userSpaceOnUse" color-interpolation-filters="sRGB">
      <feFlood flood-opacity="0" result="BackgroundImageFix"/>
      <feBlend mode="normal" in="SourceGraphic" in2="BackgroundImageFix" result="shape"/>
      <feGaussianBlur stdDeviation="22" result="effect1_foregroundBlur"/>
    </filter>
    <filter id="filter1_f" x="7.42188" y="1645.86" width="205.203" height="150.832" filterUnits="userSpaceOnUse" color-interpolation-filters="sRGB">
      <feFlood flood-opacity="0" result="BackgroundImageFix"/>
      <feBlend mode="normal" in="SourceGraphic" in2="BackgroundImageFix" result="shape"/>
      <feGaussianBlur stdDeviation="22" result="effect1_foregroundBlur"/>
    </filter>
    <filter id="filter2_f" x="-27.8359" y="1419.74" width="255.226" height="241.995" filterUnits="userSpaceOnUse" color-interpolation-filters="sRGB">
      <feFlood flood-opacity="0" result="BackgroundImageFix"/>
      <feBlend mode="normal" in="SourceGraphic" in2="BackgroundImageFix" result="shape"/>
      <feGaussianBlur stdDeviation="22" result="effect1_foregroundBlur"/>
    </filter>
    <filter id="filter3_f" x="-14.6641" y="1400.46" width="404.159" height="379.144" filterUnits="userSpaceOnUse" color-interpolation-filters="sRGB">
      <feFlood flood-opacity="0" result="BackgroundImageFix"/>
      <feBlend mode="normal" in="SourceGraphic" in2="BackgroundImageFix" result="shape"/>
      <feGaussianBlur stdDeviation="22" result="effect1_foregroundBlur"/>
    </filter>
    <linearGradient id="paint0_linear" x1="592.561" y1="195.658" x2="573.536" y2="2754.83" gradientUnits="userSpaceOnUse">
      <stop stop-color="#070F4B"/>
      <stop offset="0.338897" stop-color="#161660"/>
      <stop offset="0.620267" stop-color="#322387"/>
      <stop offset="1" stop-color="#5B37C0"/>
    </linearGradient>
    <linearGradient id="paint1_linear" x1="235.118" y1="1531.78" x2="235.092" y2="1556.65" gradientUnits="userSpaceOnUse">
      <stop stop-color="#DEF8F9"/>
      <stop offset="1" stop-color="#F6FDFD"/>
    </linearGradient>
    <linearGradient id="paint2_linear" x1="309.454" y1="1532.27" x2="324.133" y2="1594.64" gradientUnits="userSpaceOnUse">
      <stop stop-color="#DEF8F9"/>
      <stop offset="1" stop-color="white"/>
    </linearGradient>
    <linearGradient id="paint3_linear" x1="167.914" y1="1508.78" x2="145.461" y2="1469.72" gradientUnits="userSpaceOnUse">
      <stop stop-color="#C0BFF6"/>
      <stop offset="0.29" stop-color="#C5C4F7"/>
      <stop offset="0.64" stop-color="#D3D2F9"/>
      <stop offset="1" stop-color="#E9E9FD"/>
    </linearGradient>
    <linearGradient id="paint4_linear" x1="153.24" y1="1548.55" x2="153.128" y2="1655.96" gradientUnits="userSpaceOnUse">
      <stop stop-color="#DEF8F9"/>
      <stop offset="1" stop-color="#F6FDFD"/>
    </linearGradient>
    <linearGradient id="paint5_linear" x1="29866.3" y1="16508.7" x2="51243.4" y2="16480.2" gradientUnits="userSpaceOnUse">
      <stop stop-color="#C0BFF6"/>
      <stop offset="0.29" stop-color="#C5C4F7"/>
      <stop offset="0.64" stop-color="#D3D2F9"/>
      <stop offset="1" stop-color="#E9E9FD"/>
    </linearGradient>
    <linearGradient id="paint6_linear" x1="36.1874" y1="1549.12" x2="60.67" y2="1549.09" gradientUnits="userSpaceOnUse">
      <stop stop-color="#5761D7"/>
      <stop offset="0.18" stop-color="#5C66D9"/>
      <stop offset="0.39" stop-color="#6A73DF"/>
      <stop offset="0.61" stop-color="#8289E8"/>
      <stop offset="0.85" stop-color="#A3A7F5"/>
      <stop offset="1" stop-color="#BCBEFF"/>
    </linearGradient>
    <linearGradient id="paint7_linear" x1="-45883.6" y1="20862.1" x2="-88520.9" y2="20918.1" gradientUnits="userSpaceOnUse">
      <stop stop-color="#5031B0"/>
      <stop offset="0.18" stop-color="#5C66D9"/>
      <stop offset="0.39" stop-color="#6A73DF"/>
      <stop offset="0.61" stop-color="#8289E8"/>
      <stop offset="0.85" stop-color="#A3A7F5"/>
      <stop offset="1" stop-color="#BCBEFF"/>
    </linearGradient>
    <linearGradient id="paint8_linear" x1="155.547" y1="1568.79" x2="155.475" y2="1641.58" gradientUnits="userSpaceOnUse">
      <stop stop-color="#DEF8F9"/>
      <stop offset="1" stop-color="#F6FDFD"/>
    </linearGradient>
    <linearGradient id="paint9_linear" x1="17339.9" y1="6830.66" x2="20136.8" y2="6826.98" gradientUnits="userSpaceOnUse">
      <stop stop-color="#463E90"/>
      <stop offset="0.29" stop-color="#C5C4F7"/>
      <stop offset="0.64" stop-color="#D3D2F9"/>
      <stop offset="1" stop-color="#E9E9FD"/>
    </linearGradient>
    <linearGradient id="paint10_linear" x1="44239.8" y1="15088.7" x2="86913.3" y2="15043.6" gradientUnits="userSpaceOnUse">
      <stop stop-color="#C0BFF6"/>
      <stop offset="0.29" stop-color="#C5C4F7"/>
      <stop offset="0.64" stop-color="#D3D2F9"/>
      <stop offset="1" stop-color="#E9E9FD"/>
    </linearGradient>
    <linearGradient id="paint11_linear" x1="10710.6" y1="4530.25" x2="13505.6" y2="4527.29" gradientUnits="userSpaceOnUse">
      <stop stop-color="#C0BFF6"/>
      <stop offset="0.29" stop-color="#C5C4F7"/>
      <stop offset="0.64" stop-color="#D3D2F9"/>
      <stop offset="1" stop-color="#E9E9FD"/>
    </linearGradient>
    <linearGradient id="paint12_linear" x1="23236.9" y1="-12215.4" x2="33607" y2="-12229.2" gradientUnits="userSpaceOnUse">
      <stop stop-color="#5761D7"/>
      <stop offset="0.18" stop-color="#5C66D9"/>
      <stop offset="0.39" stop-color="#6A73DF"/>
      <stop offset="0.61" stop-color="#8289E8"/>
      <stop offset="0.85" stop-color="#A3A7F5"/>
      <stop offset="1" stop-color="#BCBEFF"/>
    </linearGradient>
    <radialGradient id="paint13_radial" cx="0" cy="0" r="1" gradientUnits="userSpaceOnUse" gradientTransform="translate(201.977 1598.77) rotate(0.0606524) scale(47.1362 47.2048)">
      <stop stop-color="#2B237C"/>
      <stop offset="1" stop-color="#180D5B"/>
    </radialGradient>
    <linearGradient id="paint14_linear" x1="273.148" y1="1570.23" x2="199.925" y2="1672.93" gradientUnits="userSpaceOnUse">
      <stop stop-color="#070F4B"/>
      <stop offset="1" stop-color="#422B9D"/>
    </linearGradient>
    <linearGradient id="paint15_linear" x1="25243.2" y1="-11429.7" x2="35619.1" y2="-11443.5" gradientUnits="userSpaceOnUse">
      <stop stop-color="#5031B0"/>
      <stop offset="0.29" stop-color="#7159C6"/>
      <stop offset="0.64" stop-color="#9E89E9"/>
      <stop offset="1" stop-color="#D0D0FF"/>
    </linearGradient>
    <linearGradient id="paint16_linear" x1="283.286" y1="1579.75" x2="283.278" y2="1588.19" gradientUnits="userSpaceOnUse">
      <stop stop-color="#DEF8F9"/>
      <stop offset="1" stop-color="#F6FDFD"/>
    </linearGradient>
    <linearGradient id="paint17_linear" x1="63.1447" y1="1634.39" x2="63.081" y2="1694.56" gradientUnits="userSpaceOnUse">
      <stop stop-color="#DEF8F9"/>
      <stop offset="1" stop-color="#F6FDFD"/>
    </linearGradient>
    <linearGradient id="paint18_linear" x1="-25903.6" y1="9770.44" x2="-33323.2" y2="4446.09" gradientUnits="userSpaceOnUse">
      <stop stop-color="#5031B0"/>
      <stop offset="0.18" stop-color="#5C66D9"/>
      <stop offset="0.39" stop-color="#6A73DF"/>
      <stop offset="0.61" stop-color="#8289E8"/>
      <stop offset="0.85" stop-color="#A3A7F5"/>
      <stop offset="1" stop-color="#BCBEFF"/>
    </linearGradient>
    <linearGradient id="paint19_linear" x1="7764.05" y1="2534.9" x2="7898.12" y2="2359.57" gradientUnits="userSpaceOnUse">
      <stop stop-color="#C0BFF6"/>
      <stop offset="0.29" stop-color="#C5C4F7"/>
      <stop offset="0.64" stop-color="#D3D2F9"/>
      <stop offset="1" stop-color="#E9E9FD"/>
    </linearGradient>
    <linearGradient id="paint20_linear" x1="165.645" y1="1436.29" x2="165.543" y2="1532.61" gradientUnits="userSpaceOnUse">
      <stop stop-color="#DEF8F9"/>
      <stop offset="1" stop-color="#F6FDFD"/>
    </linearGradient>
    <linearGradient id="paint21_linear" x1="166.238" y1="1450.37" x2="166.188" y2="1498.29" gradientUnits="userSpaceOnUse">
      <stop stop-color="#DEF8F9"/>
      <stop offset="1" stop-color="#F6FDFD"/>
    </linearGradient>
    <linearGradient id="paint22_linear" x1="166.238" y1="1470.71" x2="166.188" y2="1518.62" gradientUnits="userSpaceOnUse">
      <stop stop-color="#DEF8F9"/>
      <stop offset="1" stop-color="#F6FDFD"/>
    </linearGradient>
    <linearGradient id="paint23_linear" x1="152.079" y1="1478.9" x2="152.071" y2="1486.12" gradientUnits="userSpaceOnUse">
      <stop stop-color="#DEF8F9"/>
      <stop offset="1" stop-color="#F6FDFD"/>
    </linearGradient>
    <linearGradient id="paint24_linear" x1="159.189" y1="1474.78" x2="159.182" y2="1482" gradientUnits="userSpaceOnUse">
      <stop stop-color="#DEF8F9"/>
      <stop offset="1" stop-color="#F6FDFD"/>
    </linearGradient>
    <linearGradient id="paint25_linear" x1="166.251" y1="1470.67" x2="166.243" y2="1477.89" gradientUnits="userSpaceOnUse">
      <stop stop-color="#DEF8F9"/>
      <stop offset="1" stop-color="#F6FDFD"/>
    </linearGradient>
    <linearGradient id="paint26_linear" x1="173.352" y1="1466.55" x2="173.345" y2="1473.74" gradientUnits="userSpaceOnUse">
      <stop stop-color="#DEF8F9"/>
      <stop offset="1" stop-color="#F6FDFD"/>
    </linearGradient>
    <linearGradient id="paint27_linear" x1="180.47" y1="1462.44" x2="180.462" y2="1469.63" gradientUnits="userSpaceOnUse">
      <stop stop-color="#DEF8F9"/>
      <stop offset="1" stop-color="#F6FDFD"/>
    </linearGradient>
    <linearGradient id="paint28_linear" x1="152.075" y1="1499.23" x2="152.067" y2="1506.46" gradientUnits="userSpaceOnUse">
      <stop stop-color="#DEF8F9"/>
      <stop offset="1" stop-color="#F6FDFD"/>
    </linearGradient>
    <linearGradient id="paint29_linear" x1="159.184" y1="1495.12" x2="159.177" y2="1502.3" gradientUnits="userSpaceOnUse">
      <stop stop-color="#DEF8F9"/>
      <stop offset="1" stop-color="#F6FDFD"/>
    </linearGradient>
    <linearGradient id="paint30_linear" x1="166.278" y1="1491.03" x2="166.271" y2="1498.23" gradientUnits="userSpaceOnUse">
      <stop stop-color="#DEF8F9"/>
      <stop offset="1" stop-color="#F6FDFD"/>
    </linearGradient>
    <linearGradient id="paint31_linear" x1="173.352" y1="1486.89" x2="173.345" y2="1494.13" gradientUnits="userSpaceOnUse">
      <stop stop-color="#DEF8F9"/>
      <stop offset="1" stop-color="#F6FDFD"/>
    </linearGradient>
    <linearGradient id="paint32_linear" x1="180.466" y1="1482.78" x2="180.458" y2="1489.97" gradientUnits="userSpaceOnUse">
      <stop stop-color="#DEF8F9"/>
      <stop offset="1" stop-color="#F6FDFD"/>
    </linearGradient>
    <linearGradient id="paint33_linear" x1="311.103" y1="1517.87" x2="260.451" y2="1519.25" gradientUnits="userSpaceOnUse">
      <stop offset="0.25" stop-color="#5761D7"/>
      <stop offset="0.44" stop-color="#6C74DF"/>
      <stop offset="0.82" stop-color="#A2A6F5"/>
      <stop offset="1" stop-color="#BCBEFF"/>
    </linearGradient>
    <linearGradient id="paint34_linear" x1="-3199.43" y1="4899.61" x2="-8549.3" y2="5045.33" gradientUnits="userSpaceOnUse">
      <stop stop-color="#C0BFF6"/>
      <stop offset="0.29" stop-color="#C5C4F7"/>
      <stop offset="0.64" stop-color="#D3D2F9"/>
      <stop offset="1" stop-color="#E9E9FD"/>
    </linearGradient>
    <linearGradient id="paint35_linear" x1="275.282" y1="1504.6" x2="275.261" y2="1525.42" gradientUnits="userSpaceOnUse">
      <stop stop-color="#DEF8F9"/>
      <stop offset="1" stop-color="#F6FDFD"/>
    </linearGradient>
    <linearGradient id="paint36_linear" x1="275.276" y1="1492.15" x2="275.249" y2="1517.56" gradientUnits="userSpaceOnUse">
      <stop stop-color="#DEF8F9"/>
      <stop offset="1" stop-color="#F6FDFD"/>
    </linearGradient>
    <linearGradient id="paint37_linear" x1="290.88" y1="1505.28" x2="302.875" y2="1480.94" gradientUnits="userSpaceOnUse">
      <stop stop-color="#71E2FB" stop-opacity="0.65"/>
      <stop offset="0.243575" stop-color="#71E2FB" stop-opacity="0.467969"/>
      <stop offset="0.477954" stop-color="#71E2FB" stop-opacity="0.314343"/>
      <stop offset="0.712333" stop-color="#71E2FB" stop-opacity="0.149743"/>
      <stop offset="1" stop-color="#71E2FB" stop-opacity="0"/>
    </linearGradient>
    <linearGradient id="paint38_linear" x1="142.964" y1="1680.57" x2="79.9416" y2="1720.95" gradientUnits="userSpaceOnUse">
      <stop stop-color="#BCBEFF"/>
      <stop offset="0.23" stop-color="#AAADF8"/>
      <stop offset="0.68" stop-color="#7C83E5"/>
      <stop offset="1" stop-color="#5761D7"/>
    </linearGradient>
    <linearGradient id="paint39_linear" x1="151.777" y1="1694.54" x2="70.4703" y2="1698.74" gradientUnits="userSpaceOnUse">
      <stop stop-color="#E9E9FD"/>
      <stop offset="0.36" stop-color="#D3D2F9"/>
      <stop offset="0.71" stop-color="#C5C4F7"/>
      <stop offset="1" stop-color="#C0BFF6"/>
    </linearGradient>
    <linearGradient id="paint40_linear" x1="111.165" y1="1697.3" x2="112.412" y2="1721.42" gradientUnits="userSpaceOnUse">
      <stop stop-color="#DEF8F9"/>
      <stop offset="1" stop-color="#F6FDFD"/>
    </linearGradient>
    <linearGradient id="paint41_linear" x1="-18675.1" y1="13385.3" x2="-22605.6" y2="13588.2" gradientUnits="userSpaceOnUse">
      <stop stop-color="#E9E9FD"/>
      <stop offset="0.36" stop-color="#D3D2F9"/>
      <stop offset="0.71" stop-color="#C5C4F7"/>
      <stop offset="1" stop-color="#C0BFF6"/>
    </linearGradient>
    <linearGradient id="paint42_linear" x1="134.822" y1="1697.05" x2="152.861" y2="1657.01" gradientUnits="userSpaceOnUse">
      <stop stop-color="#71E2FB" stop-opacity="0.65"/>
      <stop offset="0.243575" stop-color="#71E2FB" stop-opacity="0.467969"/>
      <stop offset="0.477954" stop-color="#71E2FB" stop-opacity="0.314343"/>
      <stop offset="0.712333" stop-color="#71E2FB" stop-opacity="0.149743"/>
      <stop offset="1" stop-color="#71E2FB" stop-opacity="0"/>
    </linearGradient>
  </defs>
</svg>
