<svg width="375" height="1780" viewBox="0 0 375 1780" fill="none" xmlns="http://www.w3.org/2000/svg">
  <path d="M0 100.703L19.3288 61.7734C37.2959 25.5867 77.8105 6.53092 117.142 15.7674L377 76.7915V1680.37L287.778 1747.21C261.017 1767.25 225.137 1770.19 195.474 1754.76L0 1653.09L0 100.703Z" fill="url(#paint0_linear)"/>
  <g opacity="0.2" filter="url(#filter0_f)">
    <ellipse rx="58.6013" ry="31.416" transform="matrix(1 0.00103419 0.00130943 1 275.76 1364.96)" fill="#52D8E0"/>
  </g>
  <g opacity="0.2" filter="url(#filter1_f)">
    <ellipse rx="58.6013" ry="31.416" transform="matrix(1 0.00103417 0.00130941 1 109.998 1560.28)" fill="#52D8E0"/>
  </g>
  <g opacity="0.1" filter="url(#filter2_f)">
    <ellipse rx="83.6131" ry="76.9975" transform="matrix(1 0.00105839 0.0013327 1 99.7548 1379.74)" fill="#52D8E0"/>
  </g>
  <g opacity="0.1" filter="url(#filter3_f)">
    <ellipse rx="158.079" ry="145.572" transform="matrix(1 0.00105835 0.00133266 1 187.391 1429.04)" fill="#52D8E0"/>
  </g>
  <path d="M215.134 1395.63C215.286 1395.63 215.435 1395.59 215.569 1395.51L255.586 1372.4C255.769 1372.28 255.898 1372.09 255.948 1371.88C255.997 1371.66 255.964 1371.43 255.853 1371.24C255.743 1371.05 255.565 1370.9 255.354 1370.84C255.143 1370.77 254.914 1370.79 254.714 1370.88L214.687 1393.99C214.488 1394.11 214.342 1394.3 214.283 1394.52C214.223 1394.75 214.253 1394.99 214.368 1395.19C214.446 1395.33 214.558 1395.44 214.693 1395.51C214.827 1395.59 214.979 1395.63 215.134 1395.63Z" fill="#0E2187" stroke="url(#paint1_linear)"/>
  <path d="M288.431 1448.38C288.598 1448.38 288.761 1448.33 288.904 1448.25L358.212 1407.89C358.356 1407.81 358.476 1407.69 358.559 1407.54C358.642 1407.4 358.685 1407.23 358.684 1407.07C358.681 1406.9 358.634 1406.74 358.547 1406.59C358.46 1406.45 358.338 1406.33 358.191 1406.25L294.572 1371.64C294.352 1371.51 294.092 1371.48 293.848 1371.55C293.604 1371.61 293.397 1371.77 293.272 1371.99C293.147 1372.21 293.114 1372.47 293.181 1372.72C293.248 1372.96 293.409 1373.17 293.628 1373.3L355.846 1407.1L287.975 1446.62C287.797 1446.72 287.659 1446.88 287.581 1447.08C287.504 1447.27 287.492 1447.48 287.547 1447.68C287.602 1447.88 287.721 1448.06 287.886 1448.19C288.051 1448.31 288.252 1448.38 288.46 1448.38L288.431 1448.38Z" fill="#0E2187" stroke="url(#paint2_linear)"/>
  <path d="M203.848 1327.86L128.73 1371.27C126.679 1372.46 125.012 1371.19 125.009 1368.43L124.952 1326.23C124.949 1323.49 126.609 1320.3 128.661 1319.11L203.779 1275.73C205.83 1274.55 207.497 1275.81 207.5 1278.57L207.557 1320.75C207.541 1323.49 205.9 1326.68 203.848 1327.86Z" fill="url(#paint3_linear)"/>
  <path d="M135.93 1493.58L242.641 1431.16C243.018 1430.94 243.331 1430.62 243.548 1430.24C243.765 1429.86 243.879 1429.42 243.879 1428.98C243.878 1428.54 243.763 1428.1 243.545 1427.72C243.327 1427.33 243.013 1427.01 242.635 1426.79L176.225 1387.88L175.704 1387.57L63.9357 1452.94C63.5585 1453.16 63.2454 1453.48 63.028 1453.86C62.8106 1454.25 62.6965 1454.68 62.6971 1455.12C62.6976 1455.56 62.8129 1456 63.0314 1456.38C63.2498 1456.77 63.5636 1457.08 63.9414 1457.31L125.808 1493.56C127.349 1494.46 129.095 1494.94 130.871 1494.94C132.647 1494.94 134.392 1494.47 135.93 1493.58ZM241.642 1428.61C241.703 1428.65 241.752 1428.71 241.787 1428.77C241.822 1428.83 241.84 1428.9 241.84 1428.98C241.84 1429.05 241.822 1429.12 241.788 1429.18C241.753 1429.25 241.703 1429.3 241.643 1429.34L134.841 1491.75C133.619 1492.46 132.234 1492.84 130.823 1492.84C129.412 1492.83 128.025 1492.46 126.802 1491.74L64.9348 1455.48C64.8742 1455.44 64.8241 1455.39 64.7893 1455.33C64.7545 1455.27 64.7361 1455.2 64.736 1455.12C64.7359 1455.05 64.7541 1454.98 64.7888 1454.92C64.8234 1454.86 64.8734 1454.81 64.9338 1454.77L175.661 1390.03L241.642 1428.61Z" fill="#0E2187" stroke="url(#paint4_linear)"/>
  <path d="M178.314 1360.49L162.82 1268.93L164.058 1268.41L162.165 1267.34C161.941 1267.22 161.688 1267.17 161.435 1267.19C161.183 1267.2 160.94 1267.29 160.737 1267.44L37.7202 1338.52C37.2038 1338.85 36.7846 1339.32 36.5047 1339.87C36.2248 1340.41 36.0941 1341.03 36.1256 1341.64L51.7817 1433.93C51.7996 1434.13 51.8692 1434.33 51.9839 1434.49C52.0985 1434.66 52.2542 1434.79 52.4357 1434.88L54.2629 1435.93L54.5728 1434.23L54.4687 1434.23L176.757 1363.59C177.266 1363.26 177.677 1362.79 177.951 1362.25C178.224 1361.71 178.349 1361.1 178.314 1360.49Z" fill="url(#paint5_linear)"/>
  <path d="M38.4202 1341.09L36.3899 1340.19C36.1624 1340.66 36.0712 1341.19 36.1263 1341.71L51.8085 1434.06C51.8264 1434.26 51.8962 1434.46 52.0111 1434.62C52.126 1434.79 52.282 1434.92 52.4639 1435.01L54.2953 1436.06L54.6061 1434.36L54.5018 1434.36L60.7082 1430.78L38.4202 1341.09Z" fill="url(#paint6_linear)"/>
  <path d="M178.682 1364.78L55.6377 1435.84C54.6925 1436.4 53.8785 1436.07 53.7447 1435.09L38.0983 1342.81C38.0611 1342.19 38.1893 1341.57 38.4696 1341.02C38.7499 1340.47 39.1722 1340.01 39.6928 1339.67L162.689 1268.56C163.635 1268.01 164.449 1268.34 164.582 1269.32L180.276 1361.6C180.32 1362.23 180.195 1362.85 179.915 1363.41C179.634 1363.97 179.208 1364.45 178.682 1364.78Z" fill="#101357"/>
  <g opacity="0.51">
    <path opacity="0.51" d="M161.073 1274.48L42.4685 1342.94L57.3425 1429.83L175.862 1361.42L161.073 1274.48Z" fill="#453C9E"/>
  </g>
  <path d="M255.91 1408.55L249.193 1412.06L181.813 1373.06C181.116 1372.74 180.356 1372.59 179.593 1372.63C178.829 1372.66 178.084 1372.86 177.417 1373.23L61.3656 1440.25C60.2492 1439.62 55.1788 1437.18 55.1788 1437.18L57.6452 1443.59C57.7782 1443.92 58.023 1444.19 58.3363 1444.36L129.293 1485.42C129.99 1485.74 130.75 1485.89 131.513 1485.86C132.276 1485.83 133.022 1485.62 133.689 1485.25L252.47 1416.67C252.897 1416.44 253.23 1416.06 253.414 1415.61L255.91 1408.55Z" fill="url(#paint7_linear)"/>
  <path d="M254.88 1409.63L133.168 1479.92C132.485 1480.3 131.723 1480.51 130.942 1480.54C130.16 1480.57 129.382 1480.42 128.669 1480.1L55.9224 1438.01C54.7681 1437.34 54.9084 1436.17 56.2404 1435.41L177.952 1365.13C178.637 1364.75 179.401 1364.53 180.183 1364.5C180.966 1364.47 181.746 1364.62 182.461 1364.94L255.198 1407.03C256.352 1407.7 256.212 1408.87 254.88 1409.63Z" fill="#8874D5"/>
  <path d="M254.83 1409L133.144 1479.23C132.461 1479.6 131.698 1479.82 130.917 1479.85C130.135 1479.88 129.357 1479.73 128.645 1479.4L55.9181 1437.35C55.5946 1437.19 55.3447 1436.91 55.2177 1436.57C55.1265 1436.86 55.1479 1437.17 55.2778 1437.45C55.4077 1437.73 55.6365 1437.95 55.919 1438.06L128.646 1480.11C129.359 1480.43 130.138 1480.58 130.918 1480.55C131.699 1480.52 132.462 1480.3 133.145 1479.92L254.831 1409.7C255.775 1409.19 256.067 1408.49 255.858 1407.89C255.662 1408.37 255.297 1408.77 254.83 1409Z" fill="url(#paint8_linear)"/>
  <path d="M96.3948 1464.79L96.393 1463.45C96.3928 1463.32 96.4684 1463.27 96.5631 1463.32L101.297 1466.05C101.349 1466.08 101.393 1466.13 101.424 1466.19C101.456 1466.25 101.473 1466.31 101.477 1466.38L101.479 1467.71C101.479 1467.85 101.394 1467.9 101.299 1467.85L96.5655 1465.12C96.5139 1465.08 96.4717 1465.03 96.4421 1464.98C96.4125 1464.92 96.3963 1464.85 96.3948 1464.79Z" fill="#2842A2"/>
  <path d="M103.439 1468.87L103.438 1467.54C103.437 1467.4 103.513 1467.35 103.608 1467.4L108.341 1470.14C108.394 1470.17 108.437 1470.22 108.467 1470.28C108.496 1470.33 108.512 1470.39 108.512 1470.46L108.514 1471.8C108.514 1471.93 108.438 1471.98 108.344 1471.93L103.61 1469.2C103.558 1469.16 103.516 1469.11 103.487 1469.06C103.457 1469 103.441 1468.94 103.439 1468.87Z" fill="#2842A2"/>
  <path d="M74.8869 1434.09L176.024 1375.69C176.354 1375.5 176.731 1375.39 177.115 1375.39C177.499 1375.39 177.877 1375.5 178.207 1375.69L214.273 1396.61C214.391 1396.68 214.489 1396.78 214.557 1396.9C214.625 1397.01 214.661 1397.15 214.662 1397.28C214.662 1397.42 214.626 1397.55 214.558 1397.67C214.49 1397.79 214.393 1397.89 214.275 1397.96L113.195 1456.33C112.865 1456.52 112.488 1456.62 112.103 1456.62C111.719 1456.62 111.342 1456.52 111.011 1456.32L74.8981 1435.46C74.7729 1435.4 74.6678 1435.3 74.594 1435.18C74.5202 1435.06 74.4806 1434.92 74.4795 1434.78C74.4783 1434.64 74.5156 1434.5 74.5874 1434.38C74.6592 1434.26 74.7628 1434.16 74.8869 1434.09Z" fill="#101357" fill-opacity="0.55"/>
  <path d="M74.9139 1435.41L75.2734 1435.62L176.036 1377.45C176.368 1377.26 176.744 1377.16 177.127 1377.16C177.511 1377.16 177.887 1377.26 178.22 1377.46L213.919 1398.15L214.278 1397.94C214.396 1397.88 214.494 1397.78 214.562 1397.66C214.629 1397.54 214.665 1397.41 214.665 1397.27C214.665 1397.14 214.629 1397 214.561 1396.89C214.492 1396.77 214.395 1396.67 214.277 1396.6L178.18 1375.7C177.848 1375.5 177.471 1375.4 177.087 1375.4C176.704 1375.4 176.327 1375.5 175.996 1375.69L74.8744 1434.06C74.7586 1434.13 74.6636 1434.23 74.599 1434.35C74.5344 1434.47 74.5026 1434.61 74.5066 1434.74C74.5106 1434.88 74.5503 1435.01 74.6218 1435.13C74.6933 1435.24 74.7941 1435.34 74.9139 1435.41Z" fill="#9198DB"/>
  <path d="M180.952 1380.97L93.0977 1431.7L89.1903 1429.44L177.045 1378.71L180.952 1380.97Z" fill="#101357"/>
  <path d="M190.534 1386.52L108.13 1434.1L104.222 1431.84L186.627 1384.26L190.534 1386.52Z" fill="#101357"/>
  <path d="M196.78 1390.15L99.7525 1446.17L95.8356 1443.91L192.863 1387.88L196.78 1390.15Z" fill="#101357"/>
  <path d="M203.015 1393.76L105.987 1449.78L102.079 1447.52L199.098 1391.49L203.015 1393.76Z" fill="#101357"/>
  <path d="M209.249 1397.37L112.231 1453.4L108.314 1451.13L205.342 1395.12L209.249 1397.37Z" fill="#101357"/>
  <path d="M87.7959 1434.87L83.885 1437.13L79.968 1434.87L83.879 1432.62L87.7959 1434.87Z" fill="#101357"/>
  <path d="M101.573 1438L93.4677 1442.68L89.5506 1440.41L97.6657 1435.73L101.573 1438Z" fill="#101357"/>
  <path d="M179.965 1448.36L207.238 1432.61C207.469 1432.52 207.669 1432.37 207.811 1432.17C207.952 1431.97 208.028 1431.73 208.028 1431.49C208.028 1431.24 207.951 1431 207.809 1430.8C207.667 1430.6 207.466 1430.45 207.235 1430.37L188.577 1419.57C187.981 1419.26 187.319 1419.1 186.648 1419.1C185.977 1419.1 185.316 1419.26 184.72 1419.57L157.4 1435.31C157.169 1435.39 156.969 1435.54 156.827 1435.74C156.686 1435.94 156.61 1436.18 156.61 1436.42C156.61 1436.67 156.687 1436.91 156.829 1437.11C156.971 1437.31 157.172 1437.46 157.403 1437.54L176.079 1448.35C176.681 1448.66 177.347 1448.82 178.023 1448.82C178.698 1448.82 179.364 1448.66 179.965 1448.36Z" fill="url(#paint9_linear)"/>
  <path d="M157.414 1436.21L184.709 1420.47C185.306 1420.17 185.967 1420.01 186.637 1420.01C187.307 1420.01 187.967 1420.17 188.565 1420.48L207.236 1431.27C207.518 1431.42 207.751 1431.65 207.908 1431.93C208.191 1431.39 207.973 1430.78 207.235 1430.36L188.583 1419.57C187.986 1419.26 187.325 1419.1 186.654 1419.1C185.983 1419.1 185.323 1419.26 184.727 1419.56L157.413 1435.29C156.676 1435.71 156.469 1436.32 156.744 1436.86C156.9 1436.58 157.133 1436.36 157.414 1436.21Z" fill="#9198DB"/>
  <mask id="mask0" style="mask-type:alpha" maskUnits="userSpaceOnUse" x="42" y="1274" width="134" height="156">
    <path opacity="0.51" d="M161.091 1274.44L42.5025 1342.96L57.3237 1429.88L175.827 1361.4L161.091 1274.44Z" fill="#13155B"/>
  </mask>
  <g mask="url(#mask0)">
    <path opacity="0.11" d="M178.177 1364.94L56.4694 1435.28C55.7879 1435.66 55.0251 1435.88 54.2431 1435.91C53.4612 1435.94 52.6824 1435.79 51.9704 1435.46L-20.7521 1393.37C-21.906 1392.71 -21.756 1391.54 -20.4241 1390.77L101.274 1320.43C101.957 1320.04 102.722 1319.83 103.505 1319.79C104.289 1319.76 105.069 1319.91 105.783 1320.24L178.496 1362.33C179.65 1363 179.509 1364.16 178.177 1364.94Z" fill="url(#paint10_linear)"/>
    <path opacity="0.11" d="M56.0758 1377.46L83.3476 1361.7C83.5789 1361.62 83.7792 1361.47 83.9208 1361.27C84.0624 1361.07 84.1384 1360.83 84.1381 1360.59C84.1379 1360.34 84.0614 1360.1 83.9194 1359.9C83.7773 1359.7 83.5767 1359.55 83.3452 1359.47L64.6751 1348.62C64.0756 1348.32 63.4132 1348.16 62.7417 1348.16C62.0701 1348.16 61.4081 1348.31 60.8092 1348.62L33.5373 1364.38C33.3061 1364.46 33.1058 1364.61 32.9641 1364.81C32.8225 1365.01 32.7465 1365.25 32.7468 1365.5C32.7471 1365.74 32.8235 1365.98 32.9656 1366.18C33.1076 1366.38 33.3083 1366.54 33.5397 1366.62L52.2098 1377.42C52.805 1377.73 53.4663 1377.9 54.1387 1377.91C54.8111 1377.91 55.4752 1377.76 56.0758 1377.46Z" fill="url(#paint11_linear)"/>
    <path opacity="0.11" d="M33.5482 1365.32L60.8154 1349.56C61.4129 1349.25 62.0753 1349.09 62.7476 1349.09C63.4198 1349.09 64.0825 1349.26 64.6806 1349.56L83.3467 1360.37C83.6254 1360.52 83.8573 1360.75 84.0184 1361.03C84.2919 1360.49 84.0833 1359.88 83.3458 1359.46L64.6797 1348.62C64.0802 1348.31 63.418 1348.16 62.7466 1348.16C62.0752 1348.15 61.4133 1348.31 60.8145 1348.62L33.5472 1364.37C32.8105 1364.79 32.6032 1365.4 32.8778 1365.94C33.0388 1365.67 33.271 1365.46 33.5482 1365.32Z" fill="#9198DB"/>
    <path opacity="0.11" d="M21.5436 1402.1L122.687 1343.65C123.017 1343.46 123.392 1343.36 123.773 1343.36C124.155 1343.36 124.53 1343.46 124.861 1343.65L160.924 1364.57C161.042 1364.64 161.14 1364.74 161.208 1364.85C161.276 1364.97 161.312 1365.11 161.312 1365.24C161.312 1365.38 161.277 1365.51 161.209 1365.63C161.141 1365.75 161.043 1365.85 160.926 1365.91L59.8487 1424.35C59.5184 1424.54 59.1436 1424.64 58.762 1424.64C58.3803 1424.64 58.0053 1424.54 57.6747 1424.35L21.564 1403.49C21.4386 1403.42 21.3333 1403.32 21.2591 1403.2C21.1849 1403.08 21.1446 1402.94 21.1425 1402.8C21.1405 1402.66 21.1766 1402.52 21.2472 1402.4C21.3178 1402.27 21.4202 1402.17 21.5436 1402.1Z" fill="#ADB1F2"/>
    <path opacity="0.11" d="M21.5649 1403.43L21.9242 1403.64L122.697 1345.41C123.027 1345.21 123.402 1345.11 123.784 1345.11C124.166 1345.11 124.541 1345.21 124.871 1345.41L160.561 1366.11L160.929 1365.9C161.047 1365.83 161.144 1365.73 161.212 1365.62C161.28 1365.5 161.316 1365.36 161.316 1365.23C161.316 1365.09 161.28 1364.96 161.211 1364.84C161.143 1364.72 161.046 1364.62 160.928 1364.56L124.869 1343.65C124.538 1343.46 124.163 1343.36 123.782 1343.36C123.4 1343.35 123.026 1343.46 122.695 1343.65L21.5635 1402.08C21.446 1402.15 21.3486 1402.24 21.281 1402.36C21.2134 1402.48 21.178 1402.62 21.1781 1402.75C21.1783 1402.89 21.214 1403.02 21.2818 1403.14C21.3497 1403.26 21.4472 1403.36 21.5649 1403.43Z" fill="#9198DB"/>
    <path opacity="0.11" d="M151.471 1363.13L63.3646 1414.06L66.8546 1416.09L154.971 1365.16L151.471 1363.13Z" fill="#070F4B"/>
    <path opacity="0.11" d="M142.19 1357.75L58.4469 1406.15L61.9369 1408.18L145.69 1359.77L142.19 1357.75Z" fill="#070F4B"/>
    <path opacity="0.11" d="M52.1839 1409.86L44.362 1414.38L47.8521 1416.4L55.674 1411.88L52.1839 1409.86Z" fill="#070F4B"/>
    <path opacity="0.11" d="M59.0925 1416.61L53.6512 1419.76L57.1413 1421.77L62.592 1418.63L59.0925 1416.61Z" fill="#070F4B"/>
    <path opacity="0.11" d="M136.37 1354.38L38.5515 1410.92L42.051 1412.94L139.869 1356.41L136.37 1354.38Z" fill="#070F4B"/>
    <path opacity="0.11" d="M130.559 1351.02L32.7312 1407.55L36.2307 1409.58L134.049 1353.04L130.559 1351.02Z" fill="#070F4B"/>
    <path opacity="0.11" d="M124.739 1347.64L26.9203 1404.18L30.4103 1406.2L128.229 1349.67L124.739 1347.64Z" fill="#070F4B"/>
  </g>
  <path d="M53.5492 1348.15L51.2043 1349.66L50.9275 1347.91L53.263 1346.42L53.5492 1348.15Z" fill="#2EFFEC"/>
  <path d="M55.4738 1359.93L53.1255 1361.44L51.4542 1351.24L53.7931 1349.75L55.4738 1359.93Z" fill="#2EFFEC"/>
  <path d="M56.3881 1365.57L54.0416 1367.07L53.3828 1363.02L55.7199 1361.53L56.3881 1365.57Z" fill="#2EFFEC"/>
  <path d="M57.3334 1371.41L54.9963 1372.91L54.3282 1368.87L56.6747 1367.36L57.3334 1371.41Z" fill="#2EFFEC"/>
  <path d="M57.9545 1351.55L55.6174 1353.06L54.9492 1349.01L57.2863 1347.51L57.9545 1351.55Z" fill="#2EFFEC"/>
  <path d="M59.2108 1359.29L56.8737 1360.79L55.8906 1354.85L58.2372 1353.35L59.2108 1359.29Z" fill="#2EFFEC"/>
  <path d="M60.3738 1366.41L58.0277 1367.91L57.1974 1362.81L59.534 1361.31L60.3738 1366.41Z" fill="#2EFFEC"/>
  <path d="M58.2826 1377.25L55.9361 1378.75L55.2774 1374.7L57.6144 1373.2L58.2826 1377.25Z" fill="#2EFFEC"/>
  <path d="M57.0375 1345.92L54.6926 1347.42L54.4063 1345.68L56.7513 1344.19L57.0375 1345.92Z" fill="#2EFFEC"/>
  <path d="M60.9476 1381.8L56.864 1384.41L56.5874 1382.72L60.6709 1380.11L60.9476 1381.8Z" fill="#2EFFEC"/>
  <path d="M205.215 1512.07L300.259 1457.19C300.608 1457.02 300.901 1456.75 301.107 1456.41C301.313 1456.08 301.424 1455.7 301.429 1455.3C301.397 1454.85 301.244 1454.41 300.986 1454.03C300.728 1453.65 300.374 1453.35 299.961 1453.15L280.215 1441.75C279.448 1441.32 278.589 1441.08 277.711 1441.05C276.832 1441.02 275.96 1441.2 275.167 1441.58L180.075 1496.44C179.726 1496.62 179.431 1496.89 179.223 1497.23C179.016 1497.56 178.902 1497.94 178.896 1498.34C178.932 1498.79 179.088 1499.23 179.347 1499.61C179.607 1499.99 179.961 1500.29 180.374 1500.49L200.166 1511.89C201.035 1512.37 202.013 1512.62 203.003 1512.61C203.775 1512.62 204.536 1512.43 205.215 1512.07ZM279.272 1443.36L299.027 1454.81C299.481 1455.07 299.576 1455.3 299.576 1455.35C299.576 1455.4 299.519 1455.47 299.33 1455.58L204.286 1510.46C203.776 1510.67 203.223 1510.77 202.67 1510.74C202.116 1510.71 201.577 1510.55 201.091 1510.29L181.307 1498.84C180.863 1498.57 180.768 1498.35 180.768 1498.3C180.768 1498.25 180.824 1498.18 181.013 1498.06L276.057 1443.19C276.463 1442.98 276.915 1442.88 277.371 1442.9C278.034 1442.89 278.688 1443.05 279.272 1443.36Z" fill="#0E2187" stroke="white"/>
  <path d="M261.589 1409.86C258.967 1411.43 256.616 1413.42 254.628 1415.74C251.693 1406.33 242.772 1403.42 232.236 1409.5C223.505 1414.53 215.953 1424.49 211.919 1434.96C210.364 1435.05 208.857 1435.53 207.533 1436.35C201.864 1439.63 197.24 1447.63 197.249 1454.21C197.249 1454.36 197.25 1454.48 197.25 1454.62C195.367 1454.8 193.551 1455.41 191.938 1456.4C184.662 1460.6 178.774 1470.83 178.786 1479.25C178.797 1487.67 184.702 1491.09 191.978 1486.84L261.619 1446.62C270.426 1441.59 277.531 1429.29 277.517 1419.08C277.503 1408.87 270.377 1404.79 261.589 1409.86Z" fill="url(#paint12_linear)"/>
  <path d="M261.584 1409.86C260.092 1410.74 258.693 1411.77 257.408 1412.93L249.599 1408.41C245.311 1405.38 239.107 1405.51 232.218 1409.49C223.495 1414.54 215.943 1424.49 211.909 1434.96C210.354 1435.05 208.846 1435.53 207.522 1436.35C201.852 1439.63 197.229 1447.64 197.238 1454.22C197.238 1454.36 197.238 1454.49 197.238 1454.63C195.355 1454.81 193.539 1455.42 191.925 1456.4C184.649 1460.61 178.761 1470.84 178.772 1479.26C178.778 1483.44 180.238 1486.38 182.566 1487.79L182.633 1487.79L201.742 1498.91L205.886 1478.83L261.595 1446.68C270.422 1441.6 277.527 1429.29 277.513 1419.08C277.499 1408.87 270.373 1404.79 261.584 1409.86Z" fill="url(#paint13_radial)"/>
  <path d="M292.272 1420.08L272.91 1408.81C270.014 1407.09 266.005 1407.3 261.563 1409.86C260.072 1410.74 258.673 1411.77 257.388 1412.93L249.58 1408.41C245.293 1405.38 239.09 1405.51 232.201 1409.49C223.489 1414.54 215.937 1424.49 211.904 1434.96C210.349 1435.05 208.842 1435.53 207.518 1436.35C201.849 1439.63 197.226 1447.63 197.235 1454.22C197.235 1454.36 197.235 1454.48 197.235 1454.62C195.353 1454.81 193.537 1455.41 191.923 1456.4C184.647 1460.6 178.76 1470.83 178.771 1479.25C178.777 1483.43 180.237 1486.37 182.565 1487.78L182.632 1487.78L201.739 1498.9L205.882 1478.82L261.584 1446.68C268.746 1442.54 274.758 1433.66 276.78 1425.03L292.272 1420.08Z" fill="url(#paint14_linear)"/>
  <path d="M280.714 1421.01C278.09 1422.58 275.739 1424.56 273.753 1426.89C270.818 1417.49 261.897 1414.56 251.361 1420.65C242.648 1425.68 235.059 1435.6 231.044 1446.1C229.49 1446.2 227.984 1446.68 226.658 1447.49C220.989 1450.78 216.366 1458.78 216.374 1465.36C216.374 1465.5 216.375 1465.63 216.375 1465.78C214.494 1465.95 212.68 1466.55 211.072 1467.54C203.787 1471.75 197.852 1481.98 197.863 1490.4C197.875 1498.82 203.78 1502.24 211.113 1497.99L280.763 1457.81C289.551 1452.75 296.655 1440.4 296.642 1430.23C296.628 1420.06 289.502 1415.94 280.714 1421.01Z" fill="url(#paint15_linear)"/>
  <path d="M274.412 1427.18C276.396 1424.85 278.746 1422.87 281.371 1421.3C285.659 1418.83 289.554 1418.55 292.42 1420.09C289.515 1418.13 285.356 1418.25 280.728 1420.92C278.254 1422.39 276.024 1424.23 274.118 1426.38C274.232 1426.65 274.326 1426.9 274.412 1427.18Z" fill="url(#paint16_linear)"/>
  <path d="M198.578 1490.78C198.567 1482.36 204.456 1472.11 211.735 1467.92C213.346 1466.93 215.159 1466.32 217.039 1466.14C217.039 1466 217.039 1465.87 217.039 1465.73C217.03 1459.15 221.636 1451.14 227.326 1447.86C228.654 1447.04 230.165 1446.56 231.723 1446.47C235.729 1435.96 243.322 1426.04 252.046 1421C258.417 1417.32 264.197 1416.94 268.428 1419.29C264.149 1416.52 258.104 1416.74 251.403 1420.62C242.687 1425.65 235.095 1435.57 231.079 1446.08C229.524 1446.18 228.018 1446.65 226.692 1447.47C221.02 1450.76 216.396 1458.76 216.404 1465.34C216.405 1465.49 216.405 1465.62 216.405 1465.76C214.521 1465.93 212.704 1466.54 211.091 1467.53C203.813 1471.73 197.923 1481.97 197.935 1490.39C197.94 1494.72 199.505 1497.72 202.014 1499.05C199.883 1497.6 198.584 1494.75 198.578 1490.78Z" fill="#BCBEFF"/>
  <path d="M144.71 1534.56L143.016 1533.41L190.619 1504.74L191.576 1506.34L144.71 1534.56Z" fill="#0E2187" stroke="white"/>
  <path d="M74.617 1533.57C74.8248 1533.57 75.0259 1533.5 75.1891 1533.37C75.3523 1533.24 75.4685 1533.06 75.5199 1532.86C75.5713 1532.66 75.555 1532.45 75.4734 1532.25C75.3918 1532.06 75.2496 1531.9 75.0686 1531.8L34.4654 1509.71L93.1998 1475.52C93.4055 1475.39 94.631 1474.46 94.6887 1474.22C94.7465 1473.99 94.1101 1474.13 93.9878 1473.92C93.8654 1473.71 93.314 1473.5 93.0796 1473.43C92.8452 1473.36 92.4678 1473.77 92.2518 1473.88L32.0621 1508.92C31.9182 1509 31.7996 1509.13 31.7184 1509.27C31.6371 1509.42 31.5962 1509.58 31.5997 1509.75C31.6029 1509.92 31.6501 1510.08 31.7367 1510.23C31.8232 1510.37 31.9461 1510.49 32.0926 1510.57L74.1723 1533.46C74.3091 1533.53 74.4618 1533.57 74.617 1533.57Z" fill="#0E2187" stroke="url(#paint17_linear)"/>
  <path d="M165.343 1299.65L121.19 1325.19C119.138 1326.37 117.477 1329.56 117.481 1332.3L117.537 1374.5C117.54 1377.25 119.207 1378.51 121.259 1377.35L173.411 1347.18L165.343 1299.65Z" fill="#101357"/>
  <path d="M206.331 1275.61L204.172 1274.06C203.778 1273.8 203.313 1273.66 202.841 1273.68C202.369 1273.69 201.912 1273.84 201.533 1274.13L126.424 1317.51C124.372 1318.69 122.702 1321.88 122.706 1324.62L122.762 1366.82C122.706 1367.37 122.786 1367.92 122.994 1368.44C123.203 1368.95 123.534 1369.41 123.958 1369.76L126.193 1371.37L126.313 1369.73L126.502 1369.64L201.602 1326.26C203.663 1325.07 205.323 1321.88 205.32 1319.14L205.264 1276.94C205.262 1276.57 205.223 1276.2 205.149 1275.83L206.331 1275.61Z" fill="url(#paint18_linear)"/>
  <path d="M122.945 1322.99L142.814 1334.47L147.802 1331.64L125.283 1318.53C124.12 1319.78 123.312 1321.32 122.945 1322.99Z" fill="url(#paint19_linear)"/>
  <path d="M203.848 1327.86L128.73 1371.27C126.679 1372.46 125.012 1371.19 125.009 1368.43L124.952 1326.23C124.949 1323.49 126.609 1320.3 128.661 1319.11L203.779 1275.73C205.83 1274.55 207.497 1275.81 207.5 1278.57L207.557 1320.75C207.541 1323.49 205.9 1326.68 203.848 1327.86Z" fill="#8E7ADB"/>
  <path d="M125.418 1368.65L125.362 1326.44C125.359 1323.7 127.019 1320.51 129.07 1319.33L204.19 1275.95C204.508 1275.74 204.867 1275.61 205.242 1275.57C205.616 1275.52 205.997 1275.56 206.356 1275.67C205.964 1275.44 205.511 1275.32 205.053 1275.34C204.596 1275.35 204.154 1275.51 203.783 1275.78L128.663 1319.16C126.612 1320.35 124.952 1323.53 124.955 1326.28L125.011 1368.43C125.014 1370.09 125.63 1371.21 126.567 1371.57C126.158 1371.21 125.841 1370.75 125.642 1370.24C125.442 1369.74 125.365 1369.19 125.418 1368.65Z" fill="url(#paint20_linear)"/>
  <path d="M196.852 1301.24L135.579 1336.59C135.107 1336.87 134.7 1337.02 134.425 1336.59C134.425 1336.53 134.425 1336.42 134.425 1336.34L134.413 1327.06C134.412 1326.69 134.497 1326.33 134.661 1326C134.825 1325.67 135.063 1325.39 135.356 1325.17L197.092 1289.52C197.139 1289.52 197.186 1289.44 197.234 1289.45C197.697 1289.53 197.717 1289.95 197.717 1290.61L197.881 1299.54C197.859 1299.89 197.755 1300.22 197.576 1300.52C197.396 1300.81 197.148 1301.06 196.852 1301.24Z" fill="#5031B0"/>
  <path d="M196.981 1321.56L135.566 1356.95C135.093 1357.23 134.479 1357.51 134.393 1356.95C134.384 1356.87 134.384 1356.78 134.393 1356.7L134.381 1347.4C134.379 1347.03 134.463 1346.67 134.627 1346.34C134.791 1346.01 135.029 1345.73 135.324 1345.51L197.088 1309.86L197.23 1309.79C197.712 1309.61 197.836 1310.22 197.837 1310.88L197.848 1319.7C197.858 1320.06 197.785 1320.41 197.635 1320.74C197.484 1321.06 197.26 1321.34 196.981 1321.56Z" fill="#5031B0"/>
  <path d="M197.273 1289.45C197.278 1289.54 197.278 1289.62 197.273 1289.71L197.286 1299.02C197.286 1299.39 197.201 1299.75 197.038 1300.08C196.874 1300.41 196.636 1300.7 196.343 1300.92L134.588 1336.59L134.446 1336.65C134.532 1337.19 134.929 1337.41 135.392 1337.14L197.109 1301.46C197.404 1301.24 197.644 1300.95 197.807 1300.62C197.971 1300.29 198.055 1299.93 198.052 1299.56L198.04 1290.27C198.105 1289.6 197.746 1289.27 197.273 1289.45Z" fill="url(#paint21_linear)"/>
  <path d="M197.273 1309.79C197.279 1309.87 197.279 1309.96 197.273 1310.04L197.286 1319.36C197.286 1319.73 197.201 1320.09 197.038 1320.42C196.874 1320.75 196.636 1321.03 196.343 1321.25L134.588 1356.92C134.544 1356.95 134.496 1356.97 134.446 1356.98C134.532 1357.53 134.929 1357.75 135.392 1357.47L197.109 1321.79C197.403 1321.57 197.642 1321.29 197.805 1320.96C197.969 1320.63 198.054 1320.27 198.052 1319.9L198.04 1310.59C198.105 1309.94 197.746 1309.61 197.273 1309.79Z" fill="url(#paint22_linear)"/>
  <path d="M152.057 1322.79L152.816 1324.23L154.252 1322.42L153.153 1321.29L154.787 1319.62L154.256 1318.24L152.782 1320.06L152.978 1317.9L151.163 1318.94L151.355 1320.83L149.878 1320.74L149.332 1322.73L150.95 1322.52L149.865 1324.96L151.275 1325.11L152.057 1322.79Z" fill="url(#paint23_linear)"/>
  <path d="M159.153 1318.68L159.912 1320.12L161.348 1318.31L160.258 1317.18L161.893 1315.52L161.361 1314.13L159.888 1315.94L160.084 1313.78L158.278 1314.82L158.469 1316.72L156.993 1316.62L156.447 1318.62L158.055 1318.4L156.98 1320.81L158.371 1321L159.153 1318.68Z" fill="url(#paint24_linear)"/>
  <path d="M166.243 1314.57L167.002 1316.01L168.438 1314.2L167.348 1313.07L168.983 1311.4L168.442 1310.02L166.968 1311.83L167.164 1309.67L165.358 1310.71L165.55 1312.6L164.027 1312.56L163.48 1314.55L165.089 1314.35L164.032 1316.73L165.452 1316.89L166.243 1314.57Z" fill="url(#paint25_linear)"/>
  <path d="M173.34 1310.45L174.099 1311.89L175.535 1310.08L174.426 1308.95L176.061 1307.28L175.52 1305.9L174.046 1307.72L174.242 1305.55L172.436 1306.6L172.628 1308.49L171.152 1308.41L170.606 1310.39L172.223 1310.19L171.139 1312.58L172.558 1312.74L173.34 1310.45Z" fill="url(#paint26_linear)"/>
  <path d="M180.448 1306.34L181.207 1307.77L182.643 1305.98L181.543 1304.84L183.178 1303.17L182.646 1301.8L181.173 1303.61L181.369 1301.45L179.553 1302.49L179.745 1304.38L178.269 1304.28L177.723 1306.27L179.341 1306.07L178.265 1308.47L179.675 1308.62L180.448 1306.34Z" fill="url(#paint27_linear)"/>
  <path d="M152.053 1343.14L152.812 1344.57L154.248 1342.76L153.149 1341.63L154.784 1339.97L154.252 1338.58L152.778 1340.4L152.974 1338.23L151.159 1339.28L151.351 1341.17L149.875 1341.09L149.328 1343.08L150.946 1342.91L149.861 1345.3L151.271 1345.46L152.053 1343.14Z" fill="url(#paint28_linear)"/>
  <path d="M159.153 1339.02L159.912 1340.47L161.348 1338.66L160.258 1337.53L161.893 1335.85L161.361 1334.48L159.878 1336.28L160.074 1334.12L158.268 1335.16L158.46 1337.05L156.984 1336.96L156.438 1338.95L158.046 1338.74L156.971 1341.14L158.381 1341.3L159.153 1339.02Z" fill="url(#paint29_linear)"/>
  <path d="M166.247 1334.92L167.006 1336.35L168.442 1334.54L167.352 1333.43L168.987 1331.76L168.446 1330.38L166.972 1332.19L167.168 1330.03L165.362 1331.07L165.554 1332.96L164.078 1332.88L163.532 1334.87L165.14 1334.66L164.036 1337.07L165.455 1337.23L166.247 1334.92Z" fill="url(#paint30_linear)"/>
  <path d="M173.34 1330.8L174.099 1332.23L175.535 1330.42L174.426 1329.3L176.061 1327.63L175.52 1326.25L174.046 1328.06L174.242 1325.89L172.436 1326.94L172.628 1328.84L171.152 1328.75L170.606 1330.74L172.242 1330.58L171.158 1332.98L172.577 1333.13L173.34 1330.8Z" fill="url(#paint31_linear)"/>
  <path d="M180.444 1326.68L181.203 1328.12L182.639 1326.31L181.54 1325.18L183.174 1323.51L182.643 1322.13L181.169 1323.95L181.365 1321.78L179.55 1322.83L179.741 1324.72L178.265 1324.63L177.719 1326.61L179.337 1326.41L178.261 1328.81L179.671 1328.97L180.444 1326.68Z" fill="url(#paint32_linear)"/>
  <g style="mix-blend-mode:lighten" opacity="0.1">
    <path d="M151.851 1492.05L161.227 1497.48L170.589 1492.07L161.213 1486.65L151.851 1492.05Z" fill="#4846A5"/>
  </g>
  <g style="mix-blend-mode:lighten" opacity="0.1">
    <path d="M193.453 1348.01L202.829 1353.43L212.191 1348.03L202.815 1342.6L193.453 1348.01Z" fill="#4846A5"/>
  </g>
  <g style="mix-blend-mode:lighten" opacity="0.1">
    <path d="M308.886 1404.67L318.262 1410.09L327.624 1404.69L318.248 1399.26L308.886 1404.67Z" fill="#4846A5"/>
  </g>
  <path d="M275.303 1383.87C275.601 1383.87 275.895 1383.79 276.153 1383.64L315.604 1360.86C315.865 1360.71 316.082 1360.5 316.232 1360.24C316.383 1359.98 316.462 1359.68 316.462 1359.38C316.459 1359.08 316.378 1358.78 316.226 1358.52C316.075 1358.26 315.859 1358.04 315.6 1357.89L276.099 1335.03C275.836 1334.88 275.539 1334.8 275.238 1334.8C274.936 1334.8 274.64 1334.88 274.378 1335.03L234.937 1357.81C234.676 1357.96 234.459 1358.17 234.308 1358.44C234.158 1358.7 234.079 1358.99 234.079 1359.29C234.08 1359.6 234.159 1359.89 234.311 1360.15C234.462 1360.41 234.679 1360.63 234.941 1360.78L274.442 1383.64C274.704 1383.79 275.001 1383.87 275.303 1383.87ZM314.41 1359.3L275.3 1381.88L236.13 1359.22L275.24 1336.64L314.41 1359.3Z" fill="#0E2187" stroke="#DFF8F9"/>
  <path d="M239.805 1351.95L239.61 1344.78L275.69 1363.51L310.703 1343.02L310.898 1350.19L275.91 1371.59L239.805 1351.95Z" fill="url(#paint33_linear)"/>
  <path d="M275.736 1364.39L310.731 1342.97L274.617 1323.31L239.622 1344.73L275.736 1364.39Z" fill="url(#paint34_linear)"/>
  <path opacity="0.5" d="M275.283 1363.83L310.302 1343.63L310.813 1343.92L275.284 1364.42L239.704 1343.85L240.214 1343.56L275.283 1363.83Z" fill="url(#paint35_linear)"/>
  <path d="M275.291 1356.56L297.255 1343.87L275.258 1331.15L253.284 1343.83L275.291 1356.56Z" fill="#0F054C"/>
  <path d="M275.286 1356.56L297.259 1343.87L275.252 1331.15L253.279 1343.83L275.286 1356.56Z" fill="url(#paint36_linear)"/>
  <path d="M253.202 1343.15L253.133 1291.35L297.37 1290.94L297.438 1342.84C297.451 1343.11 297.388 1343.37 297.256 1343.61C297.125 1343.84 296.929 1344.03 296.692 1344.16L278.382 1354.78C277.558 1355.23 275.958 1356.45 275.336 1356.75C274.403 1356.14 273.133 1355.23 272.307 1354.77L253.969 1344.55C253.719 1344.41 253.514 1344.2 253.379 1343.96C253.243 1343.71 253.182 1343.43 253.202 1343.15Z" fill="url(#paint37_linear)"/>
  <path opacity="0.4" d="M71.3383 1554.45L70.7875 1543.78L72.6918 1542.6C73.4168 1545.89 77.4674 1547.9 80.7794 1548.18L103.856 1560.09L113.824 1563.1L144.204 1545.43L143.471 1545.05C146.063 1543.67 147.356 1540.76 148.66 1538.08L150.827 1539.22L152.095 1539.52L152.654 1550.36C152.615 1551.19 152.361 1551.99 151.916 1552.68C151.471 1553.38 150.85 1553.95 150.117 1554.33L119.774 1573.95C117.77 1575.1 115.523 1575.76 113.216 1575.88C110.908 1576 108.605 1575.57 106.494 1574.64L74.2925 1558.25C73.5315 1557.96 72.8606 1557.47 72.3448 1556.83C71.8289 1556.2 71.4856 1555.45 71.348 1554.64L71.3383 1554.45Z" fill="#2EFFEC"/>
  <path d="M70.8389 1544.8L70.4686 1537.63L72.372 1536.42C73.1005 1539.79 77.1521 1541.81 80.4646 1542.1L103.552 1554.22L113.523 1557.29L143.89 1539.35L143.157 1538.97C145.747 1537.57 147.037 1534.62 148.34 1531.9L150.508 1533.05L151.776 1533.36L152.155 1540.71C152.117 1541.55 151.863 1542.36 151.418 1543.07C150.974 1543.78 150.354 1544.35 149.621 1544.74L119.293 1564.65C117.29 1565.81 115.043 1566.48 112.736 1566.6C110.428 1566.72 108.125 1566.28 106.012 1565.33L73.7964 1548.66C73.0351 1548.36 72.3638 1547.86 71.8474 1547.22C71.331 1546.58 70.987 1545.81 70.8488 1544.99L70.8389 1544.8Z" fill="url(#paint38_linear)"/>
  <path opacity="0.3" d="M80.4581 1542.05L103.543 1554.2L112.224 1556.87L112.726 1566.6C110.417 1566.77 108.102 1566.34 106.004 1565.34L73.792 1548.62C73.0308 1548.32 72.3596 1547.82 71.8432 1547.18C71.3268 1546.53 70.9828 1545.76 70.8445 1544.95L70.8345 1544.75L70.4634 1537.56L72.1974 1536.46L72.387 1536.45C73.1758 1539.76 77.1778 1541.75 80.4581 1542.05Z" fill="#0F054C"/>
  <path d="M118.905 1557.26L149.239 1537.5C152.783 1535.21 152.605 1531.77 148.844 1529.84L116.642 1513.42C114.529 1512.49 112.227 1512.06 109.921 1512.18C107.615 1512.3 105.369 1512.96 103.363 1514.1L73.0241 1533.78C69.4648 1536.07 69.6426 1539.51 73.4196 1541.44L105.625 1557.94C107.739 1558.87 110.041 1559.3 112.347 1559.18C114.653 1559.06 116.899 1558.4 118.905 1557.26ZM108.011 1516.63C108.654 1516.27 109.373 1516.06 110.111 1516.02C110.85 1515.98 111.587 1516.12 112.264 1516.41L144.465 1532.84C144.723 1532.92 144.95 1533.07 145.116 1533.29C145.282 1533.5 145.379 1533.76 145.392 1534.03C145.406 1534.3 145.337 1534.56 145.194 1534.79C145.051 1535.02 144.841 1535.2 144.592 1535.3L114.253 1554.96C113.61 1555.33 112.891 1555.54 112.153 1555.58C111.415 1555.61 110.678 1555.48 110.001 1555.18L77.7988 1538.76C77.5409 1538.68 77.3137 1538.52 77.1478 1538.31C76.9819 1538.1 76.8855 1537.84 76.8716 1537.57C76.8577 1537.3 76.927 1537.03 77.0701 1536.81C77.2133 1536.58 77.4232 1536.4 77.6716 1536.29L108.011 1516.63Z" fill="url(#paint39_linear)"/>
  <path d="M73.4397 1541.69L105.665 1558.36C107.78 1559.3 110.083 1559.72 112.39 1559.61C114.697 1559.49 116.943 1558.82 118.95 1557.67L149.287 1537.75C149.95 1537.39 150.522 1536.89 150.96 1536.27C151.398 1535.65 151.691 1534.95 151.815 1534.2C151.906 1535.11 151.716 1536.02 151.271 1536.82C150.827 1537.61 150.15 1538.25 149.333 1538.64L118.991 1558.47C116.987 1559.63 114.74 1560.29 112.432 1560.41C110.123 1560.53 107.819 1560.1 105.707 1559.16L73.485 1542.56C71.3839 1541.49 70.401 1539.96 70.5426 1538.4C70.7451 1539.13 71.1115 1539.81 71.6136 1540.38C72.1157 1540.95 72.7404 1541.4 73.4397 1541.69Z" fill="url(#paint40_linear)"/>
  <path d="M118.07 1556.86L148.355 1537.1C151.423 1535.09 151.272 1532.17 148.011 1530.42L115.852 1513.89C114.018 1513.07 112.018 1512.7 110.015 1512.8C108.012 1512.91 106.061 1513.48 104.321 1514.48L73.9092 1534.25C70.841 1536.26 70.9919 1539.19 74.2537 1540.93L106.476 1557.46C108.319 1558.29 110.33 1558.67 112.345 1558.56C114.36 1558.46 116.322 1557.87 118.07 1556.86ZM107.159 1515.99C108.067 1515.47 109.087 1515.16 110.134 1515.11C111.182 1515.06 112.227 1515.25 113.185 1515.68L145.341 1532.15C145.712 1532.26 146.041 1532.48 146.282 1532.78C146.523 1533.08 146.663 1533.45 146.683 1533.84C146.703 1534.22 146.602 1534.61 146.393 1534.93C146.185 1535.26 145.879 1535.51 145.521 1535.65L115.172 1555.42C114.264 1555.95 113.244 1556.25 112.197 1556.3C111.149 1556.36 110.104 1556.16 109.146 1555.73L76.9238 1539.2C76.5527 1539.09 76.2234 1538.87 75.9825 1538.57C75.7415 1538.27 75.6012 1537.9 75.5812 1537.51C75.5613 1537.13 75.6628 1536.74 75.8713 1536.42C76.0798 1536.09 76.3849 1535.84 76.7433 1535.7L107.159 1515.99Z" fill="url(#paint41_linear)"/>
  <path d="M76.0313 1537.62L71.6209 1452.17L140.603 1448.6L145.023 1534.23C145.065 1534.67 144.987 1535.11 144.798 1535.5C144.608 1535.9 144.315 1536.23 143.949 1536.47L115.86 1554.75C114.592 1555.57 113.133 1556.04 111.628 1556.12C110.123 1556.2 108.623 1555.88 107.277 1555.19L77.3635 1539.86C76.9555 1539.65 76.6142 1539.33 76.3786 1538.93C76.143 1538.53 76.0227 1538.08 76.0313 1537.62Z" fill="url(#paint42_linear)"/>
  <path d="M254.229 1371.25L251.941 1373.09L252.071 1373.95L255.307 1372.22L254.229 1371.25Z" fill="#0E2187"/>
  <path d="M297.021 1373.31L294.903 1372.06L293.579 1372.82L297.098 1374.67L297.021 1373.31Z" fill="#0E2187"/>
  <path d="M103.795 1525.76C103.725 1525.72 103.678 1525.65 103.673 1525.57L103.59 1524.2C103.585 1524.12 103.622 1524.04 103.687 1524L104.484 1523.48C104.498 1523.64 104.594 1523.78 104.728 1523.85L104.037 1524.31L104.105 1525.42L105.091 1525.92L106.009 1525.32L105.941 1524.21L105.199 1523.83C105.323 1523.74 105.404 1523.59 105.396 1523.43L106.251 1523.87C106.321 1523.91 106.368 1523.98 106.372 1524.06L106.456 1525.43C106.461 1525.51 106.424 1525.58 106.359 1525.63L105.228 1526.37C105.163 1526.41 105.077 1526.42 105.007 1526.38L103.795 1525.76Z" fill="#EAF9FF"/>
  <path d="M96.5208 1516.16L96.6826 1518.8C96.6146 1518.77 96.5383 1518.75 96.458 1518.76C96.3776 1518.76 96.3041 1518.79 96.2407 1518.83L96.0789 1516.18L96.071 1516.05C96.0661 1515.97 96.1036 1515.9 96.1687 1515.85L96.2743 1515.78L98.6865 1514.19L98.7921 1514.12C98.8572 1514.08 98.943 1514.07 99.0131 1514.11L99.1266 1514.17L101.729 1515.51L101.704 1515.52L101.634 1515.57C101.569 1515.61 101.531 1515.69 101.536 1515.77L101.544 1515.89L101.545 1515.91L98.9311 1514.57C98.9312 1514.57 96.5208 1516.16 96.5208 1516.16Z" fill="#EAF9FF"/>
  <path d="M96.2288 1519.62L94.2139 1520.95L94.2885 1522.17C94.2934 1522.25 94.2559 1522.32 94.1908 1522.37L93.0583 1523.11C92.9932 1523.16 92.9074 1523.16 92.8373 1523.12L91.621 1522.5C91.5509 1522.46 91.5044 1522.39 91.4996 1522.31L91.4157 1520.94C91.4108 1520.86 91.4483 1520.78 91.5134 1520.74L92.6459 1519.99C92.711 1519.95 92.7968 1519.95 92.8669 1519.98L93.9886 1520.56L95.984 1519.25C95.996 1519.41 96.0924 1519.55 96.2288 1519.62ZM92.7832 1520.44L91.8638 1521.05L91.9318 1522.16L92.9192 1522.67L93.8386 1522.06L93.7836 1521.16C93.7225 1521.15 93.6674 1521.12 93.631 1521.06C93.5906 1521 93.5879 1520.93 93.6116 1520.87L92.7832 1520.44Z" fill="#EAF9FF"/>
  <path d="M99.2375 1524.21L97.0519 1525.65L96.9462 1525.72C96.8439 1525.79 96.7065 1525.76 96.6396 1525.65C96.5727 1525.55 96.6009 1525.41 96.7014 1525.34L96.9605 1525.17L98.9946 1523.83C99.0046 1524 99.1011 1524.14 99.2375 1524.21Z" fill="#EAF9FF"/>
  <path d="M99.4473 1523.35C99.3761 1523.35 99.3115 1523.37 99.253 1523.41C99.2459 1523.41 99.2371 1523.42 99.2301 1523.42L99.0683 1520.78L96.724 1519.57C96.8488 1519.48 96.9295 1519.34 96.9213 1519.17L97.9706 1519.71L99.2656 1520.38L101.677 1518.79C101.677 1518.76 101.684 1518.73 101.696 1518.71L101.701 1518.79L101.704 1518.85L101.709 1518.92C101.711 1518.96 101.729 1519.01 101.756 1519.04C101.76 1519.05 101.764 1519.05 101.768 1519.06C101.786 1519.08 101.805 1519.09 101.83 1519.1L101.89 1519.14L101.932 1519.16L101.943 1519.17L99.5339 1520.75L99.6964 1523.41C99.6888 1523.41 99.6794 1523.4 99.6719 1523.4C99.6039 1523.37 99.5276 1523.35 99.4473 1523.35Z" fill="#EAF9FF"/>
  <path d="M102.167 1518.76L103.465 1519.43L102.167 1518.76Z" fill="#EAF9FF"/>
  <path d="M104.557 1520.47L104.668 1520.53C104.7 1520.55 104.735 1520.55 104.769 1520.55C104.778 1520.55 104.786 1520.55 104.797 1520.55C104.822 1520.55 104.847 1520.54 104.869 1520.53C104.875 1520.52 104.882 1520.52 104.887 1520.52L104.992 1520.45L105.148 1523.04C105.082 1523.01 105.007 1522.99 104.928 1522.99C104.849 1523 104.777 1523.02 104.715 1523.06L104.559 1520.47L104.557 1520.47Z" fill="#EAF9FF"/>
  <path d="M95.6975 1536.88L95.5253 1534.05L94.4374 1533.48C94.3681 1533.44 94.3221 1533.37 94.3173 1533.29L94.2345 1531.93C94.2297 1531.85 94.2667 1531.78 94.331 1531.73L95.3439 1531.06L95.1725 1528.24L95.162 1528.06C95.1548 1527.95 95.2411 1527.85 95.3562 1527.83C95.3598 1527.83 95.3633 1527.83 95.3669 1527.83C95.3705 1527.83 95.3742 1527.83 95.3778 1527.83C95.4938 1527.83 95.5915 1527.92 95.5988 1528.04L95.6093 1528.21L95.7807 1531.04L96.8686 1531.6C96.9379 1531.64 96.9839 1531.71 96.9887 1531.79L97.0715 1533.15C97.0763 1533.23 97.0393 1533.31 96.975 1533.35L95.9621 1534.02L96.1343 1536.86L96.0203 1536.8C95.951 1536.76 95.8662 1536.77 95.8019 1536.81L95.6975 1536.88ZM96.6287 1533.05L96.5615 1531.94L95.595 1531.44C95.5806 1531.44 94.6791 1532.04 94.6791 1532.04L94.7463 1533.14L95.722 1533.65L96.6287 1533.05Z" fill="#EAF9FF"/>
  <path d="M104.193 1513.7L104.038 1511.17L102.944 1510.6C102.874 1510.57 102.828 1510.5 102.823 1510.42L102.74 1509.05C102.735 1508.97 102.772 1508.9 102.837 1508.85L103.962 1508.11C104.027 1508.07 104.112 1508.06 104.182 1508.1L105.391 1508.72C105.46 1508.76 105.506 1508.83 105.511 1508.91L105.595 1510.27C105.599 1510.35 105.562 1510.43 105.497 1510.47L104.479 1511.15L104.636 1513.72C104.56 1513.67 104.473 1513.65 104.381 1513.65C104.312 1513.65 104.249 1513.67 104.193 1513.7ZM105.148 1510.17L105.08 1509.06L104.099 1508.56L103.185 1509.16L103.253 1510.27L104.225 1510.77C104.243 1510.77 105.148 1510.17 105.148 1510.17Z" fill="#EAF9FF"/>
  <path d="M99.0221 1514.14C98.9522 1514.11 98.8665 1514.11 98.8016 1514.16L98.6962 1514.23L98.5179 1511.31L95.9336 1509.98L93.5276 1511.57L93.7059 1514.48L96.2901 1515.81L96.1847 1515.88C96.1197 1515.92 96.0823 1516 96.0872 1516.08L96.0951 1516.21L93.3957 1514.82C93.3258 1514.78 93.2794 1514.71 93.2745 1514.63L93.0805 1511.46C93.0756 1511.38 93.113 1511.3 93.178 1511.26L95.7967 1509.53C95.8617 1509.49 95.9473 1509.49 96.0173 1509.52L98.8299 1510.97C98.8998 1511.01 98.9463 1511.08 98.9511 1511.16L99.1373 1514.2L99.0221 1514.14Z" fill="#EAF9FF"/>
  <path d="M96.5245 1516.17L98.9379 1514.58C98.938 1514.58 96.5245 1516.17 96.5245 1516.17Z" fill="#EAF9FF"/>
  <path d="M93.8615 1511.63L95.8475 1510.32C95.9498 1510.25 96.0872 1510.28 96.154 1510.38C96.1763 1510.42 96.1878 1510.46 96.1901 1510.49C96.1948 1510.57 96.1592 1510.65 96.0923 1510.69L94.1063 1512C94.004 1512.07 93.8666 1512.04 93.7998 1511.94C93.7311 1511.83 93.7593 1511.69 93.8615 1511.63Z" fill="#EAF9FF"/>
  <path d="M96.0693 1515.41C96.0024 1515.3 96.0288 1515.16 96.131 1515.1L98.117 1513.79C98.2193 1513.72 98.3566 1513.75 98.4235 1513.85C98.4458 1513.89 98.4573 1513.92 98.4595 1513.96C98.4643 1514.04 98.4287 1514.12 98.3599 1514.16L96.3739 1515.47C96.2736 1515.54 96.1361 1515.51 96.0693 1515.41Z" fill="#EAF9FF"/>
  <path d="M94.0448 1527.15L95.3948 1527.85C95.2786 1527.86 95.1913 1527.96 95.1987 1528.08L95.2093 1528.25L93.7328 1527.49C93.6629 1527.46 93.6164 1527.38 93.6116 1527.3L93.5019 1525.51C93.497 1525.43 93.5344 1525.35 93.5994 1525.31L95.0796 1524.34C95.1445 1524.29 95.2302 1524.29 95.3002 1524.32L96.8899 1525.14C96.9088 1525.15 96.9241 1525.16 96.9396 1525.18L96.6812 1525.35C96.5792 1525.41 96.5511 1525.55 96.6196 1525.66C96.6863 1525.76 96.8234 1525.79 96.9254 1525.72L97.0308 1525.65L97.1208 1527.12C97.1256 1527.2 97.0882 1527.28 97.0232 1527.32L95.6485 1528.23L95.6379 1528.05C95.6306 1527.93 95.5318 1527.84 95.4147 1527.84L96.6716 1527.01L96.5777 1525.48L95.2164 1524.78L93.9489 1525.61L94.0429 1527.15L94.0448 1527.15Z" fill="#EAF9FF"/>
  <path d="M106.92 1518.13C106.942 1518.16 106.953 1518.2 106.956 1518.24C106.96 1518.32 106.925 1518.4 106.858 1518.44L104.872 1519.75C104.77 1519.82 104.632 1519.79 104.565 1519.68C104.499 1519.58 104.525 1519.44 104.627 1519.37L106.613 1518.06C106.713 1518 106.851 1518.03 106.92 1518.13Z" fill="#EAF9FF"/>
  <path d="M102.62 1518.7C102.5 1518.71 102.398 1518.62 102.391 1518.49L102.247 1516.1C102.24 1515.98 102.33 1515.87 102.45 1515.87C102.569 1515.86 102.671 1515.96 102.679 1516.08L102.823 1518.47C102.83 1518.59 102.74 1518.7 102.62 1518.7Z" fill="#EAF9FF"/>
  <path d="M104.578 1520.48L101.995 1519.15L101.983 1519.15L101.942 1519.13L101.881 1519.09C101.857 1519.08 101.837 1519.06 101.82 1519.04C101.816 1519.04 101.812 1519.04 101.808 1519.03C101.796 1519.01 101.786 1519 101.777 1518.98C101.771 1518.96 101.77 1518.95 101.765 1518.93C101.763 1518.93 101.761 1518.92 101.761 1518.91C101.758 1518.91 101.754 1518.84 101.754 1518.84L101.75 1518.78L101.745 1518.7L101.573 1515.88L101.572 1515.86L101.564 1515.74C101.56 1515.66 101.597 1515.58 101.662 1515.54L101.732 1515.49L101.757 1515.47L103.922 1514.05C103.934 1513.89 104.026 1513.75 104.16 1513.68C104.217 1513.65 104.28 1513.63 104.347 1513.63C104.44 1513.62 104.528 1513.64 104.603 1513.69C104.704 1513.75 104.781 1513.85 104.814 1513.96L107.311 1515.25C107.381 1515.28 107.429 1515.36 107.434 1515.44L107.628 1518.61C107.633 1518.69 107.595 1518.76 107.528 1518.81L105.016 1520.46L104.909 1520.53C104.903 1520.54 104.896 1520.53 104.891 1520.54C104.868 1520.55 104.843 1520.56 104.817 1520.56C104.808 1520.56 104.799 1520.57 104.788 1520.57C104.753 1520.57 104.718 1520.56 104.686 1520.54L104.578 1520.48ZM107.183 1518.5L107.004 1515.59L104.713 1514.41C104.636 1514.49 104.53 1514.54 104.408 1514.55C104.298 1514.56 104.196 1514.52 104.113 1514.46L102.015 1515.84L102.193 1518.76L103.486 1519.42L104.779 1520.09L107.183 1518.5Z" fill="#EAF9FF"/>
  <path d="M95.9178 1539.03L95.1 1538.61C95.03 1538.57 94.9836 1538.5 94.9787 1538.42L94.9224 1537.5C94.9175 1537.42 94.9549 1537.34 95.0199 1537.3L95.6759 1536.86L95.7814 1536.79C95.8464 1536.75 95.9321 1536.75 96.0021 1536.78L96.1173 1536.84L96.8217 1537.2C96.8917 1537.24 96.94 1537.31 96.9448 1537.39L97.0012 1538.31C97.006 1538.39 96.9686 1538.47 96.9018 1538.51L96.1403 1539.01C96.0715 1539.06 95.9877 1539.06 95.9178 1539.03ZM96.5483 1538.21L96.5077 1537.54L95.926 1537.24C95.9114 1537.24 95.3698 1537.6 95.3698 1537.6L95.4103 1538.27L95.9996 1538.57L96.5483 1538.21Z" fill="#EAF9FF"/>
  <path d="M99.0069 1523.83C98.9957 1523.65 99.0814 1523.49 99.2172 1523.41C99.2243 1523.4 99.2312 1523.4 99.2401 1523.39C99.2986 1523.36 99.3633 1523.34 99.4345 1523.34C99.5148 1523.33 99.591 1523.35 99.6589 1523.38C99.6665 1523.39 99.6758 1523.39 99.6834 1523.39C99.8162 1523.47 99.9108 1523.61 99.9209 1523.77C99.9366 1524.03 99.7448 1524.25 99.4911 1524.26C99.4053 1524.27 99.3234 1524.24 99.2514 1524.2C99.1169 1524.13 99.0206 1523.99 99.0069 1523.83Z" fill="#EAF9FF"/>
  <path d="M96.9248 1519.19C96.9318 1519.36 96.851 1519.51 96.7263 1519.6C96.6595 1519.64 96.5808 1519.67 96.495 1519.68C96.4092 1519.68 96.3273 1519.66 96.2553 1519.62C96.1209 1519.55 96.0228 1519.41 96.0109 1519.25C95.9979 1519.06 96.0854 1518.91 96.2211 1518.82C96.2846 1518.78 96.3581 1518.75 96.4384 1518.75C96.5187 1518.75 96.5949 1518.76 96.6628 1518.8C96.8082 1518.87 96.9141 1519.01 96.9248 1519.19Z" fill="#EAF9FF"/>
  <path d="M104.495 1523.48C104.484 1523.3 104.57 1523.14 104.705 1523.06C104.769 1523.02 104.842 1522.99 104.923 1522.99C105.003 1522.98 105.079 1523 105.147 1523.03C105.293 1523.11 105.398 1523.25 105.409 1523.43C105.416 1523.6 105.335 1523.75 105.211 1523.83C105.144 1523.88 105.065 1523.91 104.979 1523.91C104.894 1523.92 104.812 1523.89 104.74 1523.86C104.605 1523.78 104.509 1523.64 104.495 1523.48Z" fill="#EAF9FF"/>
  <path d="M118.115 1511.87C118.232 1511.93 118.309 1512.04 118.317 1512.17L118.453 1514.39C118.461 1514.52 118.398 1514.64 118.289 1514.71L116.95 1515.56C116.928 1515.3 116.767 1515.07 116.542 1514.96L117.703 1514.22L117.593 1512.42L115.941 1511.6L114.399 1512.58L114.509 1514.38L115.753 1515C115.543 1515.14 115.407 1515.37 115.421 1515.64L113.987 1514.93C113.87 1514.87 113.792 1514.75 113.784 1514.63L113.649 1512.41C113.641 1512.28 113.704 1512.16 113.813 1512.09L115.712 1510.88C115.822 1510.81 115.965 1510.8 116.083 1510.86L118.115 1511.87Z" fill="#EAF9FF"/>
  <path d="M130.28 1527.38L130.018 1523.1C130.132 1523.16 130.259 1523.18 130.394 1523.18C130.529 1523.17 130.652 1523.13 130.759 1523.06L131.021 1527.35L131.034 1527.56C131.042 1527.68 130.978 1527.81 130.869 1527.88L130.692 1527.99L126.64 1530.57L126.463 1530.69C126.353 1530.76 126.209 1530.77 126.092 1530.71L125.902 1530.61L121.542 1528.45L121.583 1528.43L121.702 1528.35C121.811 1528.28 121.874 1528.16 121.866 1528.03L121.854 1527.83L121.852 1527.8L126.231 1529.97C126.231 1529.96 130.28 1527.38 130.28 1527.38Z" fill="#EAF9FF"/>
  <path d="M130.777 1521.77L134.161 1519.62L134.04 1517.65C134.032 1517.52 134.096 1517.39 134.205 1517.32L136.107 1516.11C136.216 1516.04 136.36 1516.03 136.478 1516.09L138.516 1517.1C138.633 1517.16 138.711 1517.28 138.719 1517.41L138.854 1519.63C138.862 1519.75 138.799 1519.88 138.69 1519.95L136.788 1521.16C136.678 1521.23 136.534 1521.24 136.417 1521.18L134.538 1520.25L131.186 1522.38C131.167 1522.11 131.005 1521.89 130.777 1521.77ZM136.559 1520.44L138.103 1519.45L137.993 1517.65L136.339 1516.83L134.795 1517.82L134.884 1519.27C134.986 1519.29 135.078 1519.34 135.139 1519.43C135.207 1519.53 135.211 1519.65 135.171 1519.75L136.559 1520.44Z" fill="#EAF9FF"/>
  <path d="M125.75 1514.36L129.42 1512.02L129.598 1511.9C129.77 1511.8 130 1511.84 130.112 1512.01C130.223 1512.18 130.176 1512.4 130.007 1512.51L129.572 1512.79L126.156 1514.96C126.14 1514.7 125.978 1514.48 125.75 1514.36Z" fill="#EAF9FF"/>
  <path d="M125.395 1515.75C125.514 1515.74 125.622 1515.71 125.721 1515.66C125.733 1515.65 125.747 1515.64 125.759 1515.64L126.021 1519.92L129.949 1521.86C129.739 1522 129.603 1522.24 129.617 1522.51L127.858 1521.63L125.689 1520.56L121.639 1523.14C121.638 1523.19 121.626 1523.23 121.607 1523.27L121.599 1523.14L121.593 1523.04L121.586 1522.93C121.581 1522.86 121.553 1522.79 121.506 1522.73C121.499 1522.72 121.493 1522.72 121.486 1522.71C121.457 1522.68 121.424 1522.65 121.383 1522.63L121.282 1522.58L121.212 1522.54L121.193 1522.53L125.24 1519.95L124.977 1515.65C124.99 1515.66 125.005 1515.66 125.018 1515.67C125.132 1515.72 125.26 1515.76 125.395 1515.75Z" fill="#EAF9FF"/>
  <path d="M120.822 1523.19L118.648 1522.11L120.822 1523.19Z" fill="#EAF9FF"/>
  <path d="M116.818 1520.43L116.632 1520.33C116.579 1520.31 116.521 1520.3 116.464 1520.3C116.449 1520.3 116.434 1520.3 116.416 1520.3C116.374 1520.31 116.333 1520.32 116.295 1520.34C116.286 1520.35 116.274 1520.35 116.265 1520.35L116.089 1520.47L115.836 1516.27C115.948 1516.33 116.073 1516.36 116.205 1516.35C116.337 1516.34 116.458 1516.3 116.562 1516.23L116.815 1520.43L116.818 1520.43Z" fill="#EAF9FF"/>
  <path d="M131.724 1493.83L132.003 1498.42L133.827 1499.33C133.943 1499.39 134.02 1499.51 134.028 1499.63L134.162 1501.84C134.17 1501.97 134.107 1502.09 133.999 1502.16L132.297 1503.25L132.575 1507.82L132.592 1508.1C132.603 1508.3 132.458 1508.46 132.265 1508.48C132.259 1508.48 132.253 1508.48 132.247 1508.48C132.241 1508.48 132.235 1508.48 132.229 1508.48C132.034 1508.48 131.87 1508.33 131.859 1508.14L131.842 1507.86L131.564 1503.29L129.74 1502.38C129.624 1502.32 129.548 1502.21 129.54 1502.08L129.406 1499.87C129.398 1499.74 129.46 1499.62 129.568 1499.55L131.27 1498.46L130.991 1493.87L131.182 1493.96C131.299 1494.02 131.441 1494.02 131.549 1493.95L131.724 1493.83ZM130.148 1500.04L130.257 1501.83L131.877 1502.64C131.901 1502.64 133.416 1501.67 133.416 1501.67L133.307 1499.88L131.672 1499.07L130.148 1500.04Z" fill="#EAF9FF"/>
  <path d="M117.401 1531.38L117.652 1535.48L119.485 1536.39C119.601 1536.45 119.679 1536.57 119.687 1536.7L119.821 1538.91C119.829 1539.04 119.767 1539.16 119.658 1539.23L117.768 1540.44C117.659 1540.51 117.516 1540.51 117.399 1540.45L115.374 1539.45C115.257 1539.39 115.18 1539.27 115.172 1539.15L115.037 1536.94C115.029 1536.81 115.092 1536.68 115.201 1536.61L116.912 1535.52L116.658 1531.36C116.784 1531.43 116.93 1531.47 117.086 1531.46C117.201 1531.46 117.306 1531.43 117.401 1531.38ZM115.787 1537.1L115.896 1538.9L117.54 1539.71L119.075 1538.73L118.965 1536.94L117.337 1536.13C117.307 1536.14 115.787 1537.1 115.787 1537.1Z" fill="#EAF9FF"/>
  <path d="M126.083 1530.65C126.2 1530.71 126.343 1530.7 126.453 1530.63L126.63 1530.52L126.918 1535.24L131.249 1537.38L135.291 1534.81L135.002 1530.09L130.672 1527.94L130.849 1527.83C130.958 1527.76 131.021 1527.64 131.013 1527.51L131 1527.3L135.524 1529.54C135.641 1529.6 135.718 1529.71 135.726 1529.84L136.04 1534.98C136.048 1535.11 135.985 1535.23 135.876 1535.3L131.477 1538.1C131.368 1538.17 131.224 1538.18 131.107 1538.12L126.394 1535.79C126.277 1535.73 126.199 1535.61 126.191 1535.48L125.89 1530.56L126.083 1530.65Z" fill="#EAF9FF"/>
  <path d="M130.277 1527.36L126.223 1529.95C126.223 1529.95 130.277 1527.36 130.277 1527.36Z" fill="#EAF9FF"/>
  <path d="M134.731 1534.71L131.395 1536.84C131.223 1536.95 130.993 1536.9 130.881 1536.73C130.844 1536.68 130.825 1536.61 130.821 1536.55C130.813 1536.43 130.873 1536.3 130.986 1536.23L134.322 1534.1C134.494 1534 134.724 1534.04 134.836 1534.21C134.951 1534.38 134.903 1534.6 134.731 1534.71Z" fill="#EAF9FF"/>
  <path d="M131.043 1528.6C131.155 1528.77 131.11 1528.99 130.938 1529.1L127.602 1531.23C127.43 1531.34 127.2 1531.29 127.088 1531.12C127.051 1531.07 127.032 1531 127.028 1530.94C127.02 1530.82 127.08 1530.69 127.196 1530.62L130.532 1528.49C130.701 1528.38 130.931 1528.43 131.043 1528.6Z" fill="#EAF9FF"/>
  <path d="M134.476 1509.58L132.214 1508.46C132.409 1508.44 132.556 1508.27 132.544 1508.08L132.527 1507.8L135.001 1509.02C135.118 1509.08 135.195 1509.2 135.203 1509.33L135.381 1512.23C135.389 1512.36 135.326 1512.48 135.217 1512.56L132.73 1514.14C132.621 1514.21 132.478 1514.22 132.36 1514.16L129.697 1512.84C129.665 1512.82 129.639 1512.81 129.614 1512.78L130.048 1512.51C130.219 1512.4 130.267 1512.17 130.152 1512.01C130.04 1511.84 129.811 1511.79 129.639 1511.9L129.462 1512.02L129.317 1509.63C129.309 1509.5 129.372 1509.38 129.481 1509.31L131.79 1507.84L131.807 1508.12C131.819 1508.32 131.984 1508.46 132.181 1508.46L130.07 1509.81L130.222 1512.29L132.503 1513.42L134.632 1512.07L134.479 1509.58L134.476 1509.58Z" fill="#EAF9FF"/>
  <path d="M112.862 1524.22C112.824 1524.17 112.805 1524.11 112.801 1524.05C112.794 1523.92 112.854 1523.79 112.966 1523.72L116.302 1521.6C116.474 1521.49 116.704 1521.53 116.816 1521.7C116.928 1521.87 116.883 1522.1 116.711 1522.2L113.375 1524.33C113.207 1524.44 112.976 1524.39 112.862 1524.22Z" fill="#EAF9FF"/>
  <path d="M120.07 1523.28C120.27 1523.27 120.442 1523.42 120.454 1523.62L120.686 1527.49C120.698 1527.69 120.546 1527.86 120.346 1527.87C120.145 1527.88 119.974 1527.73 119.962 1527.53L119.729 1523.66C119.717 1523.46 119.869 1523.29 120.07 1523.28Z" fill="#EAF9FF"/>
  <path d="M116.782 1520.41L121.111 1522.55L121.131 1522.56L121.2 1522.6L121.301 1522.65C121.343 1522.67 121.375 1522.7 121.404 1522.73C121.411 1522.74 121.418 1522.74 121.424 1522.75C121.444 1522.78 121.461 1522.81 121.476 1522.84C121.486 1522.86 121.487 1522.88 121.495 1522.91C121.499 1522.92 121.502 1522.93 121.503 1522.94C121.507 1522.95 121.514 1523.06 121.514 1523.06L121.52 1523.16L121.528 1523.29L121.807 1527.85L121.809 1527.88L121.821 1528.08C121.829 1528.21 121.766 1528.34 121.657 1528.41L121.539 1528.48L121.497 1528.51L117.861 1530.83C117.84 1531.08 117.685 1531.31 117.459 1531.42C117.364 1531.47 117.258 1531.5 117.145 1531.51C116.989 1531.52 116.843 1531.48 116.716 1531.41C116.547 1531.31 116.418 1531.15 116.363 1530.97L112.179 1528.89C112.062 1528.83 111.981 1528.72 111.973 1528.59L111.659 1523.45C111.652 1523.32 111.715 1523.2 111.827 1523.13L116.048 1520.44L116.228 1520.33C116.237 1520.32 116.249 1520.32 116.258 1520.32C116.297 1520.3 116.339 1520.28 116.381 1520.28C116.397 1520.28 116.412 1520.27 116.43 1520.27C116.488 1520.27 116.547 1520.28 116.601 1520.31L116.782 1520.41ZM112.406 1523.62L112.694 1528.34L116.534 1530.24C116.664 1530.11 116.842 1530.02 117.047 1530.01C117.231 1530 117.403 1530.06 117.541 1530.16L121.065 1527.91L120.777 1523.19L118.61 1522.12L116.444 1521.05L112.406 1523.62Z" fill="#EAF9FF"/>
  <path d="M131.375 1490.36L132.745 1491.04C132.862 1491.1 132.94 1491.21 132.948 1491.34L133.039 1492.84C133.047 1492.96 132.984 1493.09 132.875 1493.16L131.773 1493.86L131.596 1493.97C131.487 1494.04 131.343 1494.05 131.226 1493.99L131.033 1493.9L129.853 1493.31C129.736 1493.25 129.655 1493.14 129.647 1493.01L129.556 1491.52C129.548 1491.39 129.611 1491.26 129.723 1491.19L131.002 1490.38C131.117 1490.31 131.258 1490.3 131.375 1490.36ZM130.315 1491.69L130.381 1492.76L131.355 1493.24C131.38 1493.24 132.289 1492.66 132.289 1492.66L132.223 1491.59L131.236 1491.1L130.315 1491.69Z" fill="#EAF9FF"/>
  <path d="M126.145 1514.98C126.163 1515.27 126.019 1515.52 125.791 1515.66C125.779 1515.67 125.767 1515.68 125.753 1515.68C125.654 1515.74 125.546 1515.77 125.426 1515.78C125.292 1515.78 125.164 1515.75 125.05 1515.7C125.038 1515.69 125.022 1515.69 125.009 1515.68C124.787 1515.56 124.629 1515.33 124.612 1515.07C124.587 1514.65 124.909 1514.3 125.335 1514.28C125.479 1514.27 125.616 1514.3 125.736 1514.37C125.962 1514.49 126.123 1514.71 126.145 1514.98Z" fill="#EAF9FF"/>
  <path d="M129.624 1522.48C129.613 1522.2 129.749 1521.96 129.958 1521.82C130.071 1521.75 130.203 1521.7 130.347 1521.69C130.49 1521.68 130.628 1521.72 130.748 1521.78C130.973 1521.9 131.137 1522.12 131.157 1522.38C131.178 1522.68 131.031 1522.93 130.803 1523.07C130.696 1523.14 130.573 1523.18 130.438 1523.19C130.304 1523.2 130.176 1523.17 130.062 1523.11C129.818 1523 129.641 1522.76 129.624 1522.48Z" fill="#EAF9FF"/>
  <path d="M116.938 1515.56C116.956 1515.85 116.812 1516.11 116.584 1516.24C116.477 1516.31 116.354 1516.35 116.219 1516.36C116.085 1516.36 115.957 1516.33 115.843 1516.28C115.6 1516.16 115.423 1515.93 115.405 1515.65C115.394 1515.37 115.53 1515.13 115.74 1514.99C115.852 1514.91 115.984 1514.87 116.128 1514.86C116.272 1514.85 116.409 1514.89 116.529 1514.95C116.755 1515.07 116.916 1515.29 116.938 1515.56Z" fill="#EAF9FF"/>
  <path d="M277.485 1300.93C277.357 1300.87 277.272 1300.74 277.263 1300.59L277.11 1298.09C277.101 1297.94 277.17 1297.8 277.289 1297.72L278.745 1296.77C278.77 1297.07 278.946 1297.32 279.192 1297.45L277.928 1298.28L278.052 1300.31L279.855 1301.24L281.534 1300.14L281.409 1298.11L280.052 1297.41C280.28 1297.25 280.427 1296.98 280.412 1296.68L281.977 1297.48C282.105 1297.55 282.19 1297.68 282.198 1297.83L282.352 1300.33C282.36 1300.48 282.292 1300.61 282.173 1300.69L280.106 1302.06C279.987 1302.14 279.83 1302.14 279.702 1302.08L277.485 1300.93Z" fill="#EAF9FF"/>
  <path d="M264.191 1283.38L264.487 1288.22C264.362 1288.16 264.223 1288.13 264.076 1288.13C263.929 1288.14 263.795 1288.19 263.679 1288.26L263.383 1283.43L263.368 1283.19C263.36 1283.04 263.428 1282.9 263.547 1282.82L263.74 1282.7L268.15 1279.79L268.343 1279.66C268.462 1279.58 268.619 1279.57 268.747 1279.64L268.955 1279.75L273.712 1282.2L273.667 1282.23L273.538 1282.31C273.419 1282.39 273.351 1282.53 273.36 1282.67L273.374 1282.9L273.376 1282.93L268.597 1280.48C268.598 1280.48 264.191 1283.38 264.191 1283.38Z" fill="#EAF9FF"/>
  <path d="M263.653 1289.72L259.969 1292.15L260.106 1294.38C260.115 1294.52 260.046 1294.66 259.927 1294.74L257.857 1296.1C257.738 1296.18 257.581 1296.19 257.453 1296.12L255.229 1294.98C255.101 1294.91 255.016 1294.78 255.007 1294.64L254.854 1292.13C254.845 1291.98 254.913 1291.85 255.032 1291.76L257.103 1290.4C257.222 1290.32 257.379 1290.31 257.507 1290.38L259.557 1291.43L263.205 1289.03C263.227 1289.34 263.404 1289.59 263.653 1289.72ZM257.354 1291.22L255.673 1292.32L255.797 1294.36L257.602 1295.29L259.283 1294.18L259.183 1292.54C259.071 1292.52 258.97 1292.46 258.904 1292.36C258.83 1292.24 258.825 1292.11 258.868 1292L257.354 1291.22Z" fill="#EAF9FF"/>
  <path d="M269.15 1298.1L265.155 1300.74L264.962 1300.87C264.775 1300.99 264.523 1300.94 264.401 1300.74C264.279 1300.55 264.33 1300.3 264.514 1300.18L264.988 1299.87L268.706 1297.42C268.724 1297.72 268.901 1297.97 269.15 1298.1Z" fill="#EAF9FF"/>
  <path d="M269.539 1296.54C269.408 1296.54 269.29 1296.58 269.183 1296.64C269.17 1296.65 269.154 1296.66 269.141 1296.66L268.846 1291.83L264.56 1289.62C264.788 1289.47 264.936 1289.2 264.921 1288.9L266.839 1289.89L269.206 1291.1L273.615 1288.2C273.615 1288.15 273.628 1288.09 273.649 1288.05L273.658 1288.2L273.665 1288.31L273.673 1288.43C273.678 1288.52 273.709 1288.59 273.76 1288.66C273.767 1288.67 273.775 1288.68 273.782 1288.69C273.814 1288.72 273.85 1288.75 273.894 1288.77L274.005 1288.83L274.081 1288.87L274.102 1288.89L269.697 1291.79L269.994 1296.65C269.98 1296.64 269.963 1296.63 269.949 1296.63C269.825 1296.56 269.685 1296.53 269.539 1296.54Z" fill="#EAF9FF"/>
  <path d="M274.507 1288.14L276.879 1289.36L274.507 1288.14Z" fill="#EAF9FF"/>
  <path d="M278.881 1291.27L279.085 1291.38C279.142 1291.41 279.205 1291.42 279.267 1291.42C279.284 1291.42 279.3 1291.41 279.32 1291.41C279.365 1291.41 279.41 1291.39 279.451 1291.37C279.461 1291.37 279.474 1291.37 279.483 1291.36L279.676 1291.23L279.961 1295.97C279.839 1295.91 279.703 1295.87 279.559 1295.88C279.415 1295.89 279.283 1295.94 279.17 1296.01L278.885 1291.27L278.881 1291.27Z" fill="#EAF9FF"/>
  <path d="M262.688 1321.28L262.373 1316.09L260.384 1315.06C260.258 1314.99 260.173 1314.86 260.165 1314.72L260.013 1312.22C260.004 1312.08 260.072 1311.94 260.19 1311.86L262.042 1310.63L261.728 1305.47L261.709 1305.16C261.696 1304.94 261.854 1304.76 262.064 1304.73C262.071 1304.73 262.077 1304.73 262.084 1304.73C262.09 1304.73 262.097 1304.73 262.104 1304.73C262.316 1304.73 262.494 1304.9 262.508 1305.12L262.527 1305.43L262.84 1310.59L264.83 1311.62C264.956 1311.69 265.04 1311.82 265.049 1311.96L265.201 1314.46C265.209 1314.6 265.142 1314.74 265.024 1314.82L263.172 1316.05L263.487 1321.23L263.278 1321.13C263.152 1321.06 262.997 1321.07 262.879 1321.15L262.688 1321.28ZM264.391 1314.26L264.268 1312.24L262.501 1311.32C262.474 1311.33 260.826 1312.42 260.826 1312.42L260.949 1314.44L262.733 1315.37L264.391 1314.26Z" fill="#EAF9FF"/>
  <path d="M278.22 1278.9L277.937 1274.26L275.937 1273.23C275.81 1273.16 275.725 1273.03 275.717 1272.89L275.564 1270.39C275.556 1270.25 275.624 1270.11 275.742 1270.03L277.799 1268.67C277.917 1268.59 278.073 1268.58 278.201 1268.65L280.41 1269.79C280.537 1269.86 280.622 1269.99 280.631 1270.13L280.783 1272.63C280.792 1272.77 280.724 1272.91 280.606 1272.99L278.744 1274.22L279.03 1278.92C278.892 1278.84 278.733 1278.79 278.564 1278.8C278.438 1278.81 278.323 1278.84 278.22 1278.9ZM279.966 1272.44L279.842 1270.41L278.049 1269.49L276.379 1270.59L276.502 1272.61L278.279 1273.53C278.312 1273.53 279.966 1272.44 279.966 1272.44Z" fill="#EAF9FF"/>
  <path d="M268.755 1279.71C268.627 1279.64 268.471 1279.65 268.352 1279.73L268.159 1279.86L267.833 1274.53L263.108 1272.09L258.709 1274.99L259.035 1280.32L263.76 1282.75L263.567 1282.88C263.448 1282.96 263.38 1283.1 263.389 1283.24L263.403 1283.48L258.468 1280.94C258.34 1280.88 258.255 1280.74 258.246 1280.6L257.891 1274.8C257.882 1274.65 257.951 1274.51 258.07 1274.43L262.858 1271.28C262.977 1271.2 263.133 1271.19 263.261 1271.26L268.404 1273.9C268.532 1273.97 268.617 1274.1 268.625 1274.25L268.966 1279.81L268.755 1279.71Z" fill="#EAF9FF"/>
  <path d="M264.185 1283.41L268.598 1280.5C268.598 1280.5 264.185 1283.41 264.185 1283.41Z" fill="#EAF9FF"/>
  <path d="M259.321 1275.11L262.952 1272.71C263.139 1272.59 263.391 1272.64 263.513 1272.83C263.553 1272.89 263.575 1272.96 263.579 1273.03C263.587 1273.17 263.522 1273.32 263.4 1273.4L259.769 1275.79C259.582 1275.91 259.33 1275.86 259.208 1275.67C259.083 1275.48 259.134 1275.23 259.321 1275.11Z" fill="#EAF9FF"/>
  <path d="M263.349 1282.01C263.227 1281.82 263.275 1281.57 263.462 1281.45L267.093 1279.05C267.28 1278.93 267.531 1278.98 267.653 1279.17C267.694 1279.24 267.715 1279.31 267.719 1279.37C267.728 1279.52 267.663 1279.66 267.537 1279.74L263.906 1282.13C263.722 1282.26 263.471 1282.2 263.349 1282.01Z" fill="#EAF9FF"/>
  <path d="M259.656 1303.49L262.124 1304.76C261.912 1304.78 261.752 1304.97 261.766 1305.18L261.785 1305.5L259.086 1304.11C258.958 1304.05 258.873 1303.92 258.864 1303.77L258.664 1300.49C258.655 1300.34 258.723 1300.21 258.842 1300.13L261.548 1298.34C261.667 1298.26 261.823 1298.25 261.951 1298.32L264.858 1299.82C264.892 1299.84 264.92 1299.85 264.948 1299.88L264.476 1300.19C264.29 1300.31 264.238 1300.57 264.363 1300.76C264.485 1300.95 264.736 1301 264.922 1300.88L265.115 1300.75L265.28 1303.44C265.289 1303.58 265.22 1303.72 265.101 1303.8L262.588 1305.46L262.569 1305.14C262.555 1304.92 262.375 1304.76 262.161 1304.75L264.459 1303.24L264.287 1300.43L261.798 1299.15L259.481 1300.68L259.653 1303.49L259.656 1303.49Z" fill="#EAF9FF"/>
  <path d="M283.181 1287C283.221 1287.06 283.243 1287.13 283.247 1287.2C283.255 1287.34 283.19 1287.48 283.068 1287.56L279.437 1289.96C279.25 1290.08 278.998 1290.03 278.876 1289.83C278.754 1289.64 278.802 1289.39 278.989 1289.27L282.62 1286.87C282.804 1286.75 283.055 1286.8 283.181 1287Z" fill="#EAF9FF"/>
  <path d="M275.328 1288.05C275.109 1288.06 274.922 1287.89 274.909 1287.66L274.646 1283.29C274.632 1283.06 274.798 1282.87 275.016 1282.86C275.235 1282.85 275.422 1283.02 275.435 1283.25L275.698 1287.62C275.712 1287.84 275.546 1288.04 275.328 1288.05Z" fill="#EAF9FF"/>
  <path d="M278.918 1291.3L274.193 1288.87L274.173 1288.85L274.097 1288.81L273.986 1288.76C273.941 1288.73 273.906 1288.7 273.874 1288.67C273.866 1288.66 273.859 1288.65 273.852 1288.64C273.83 1288.61 273.811 1288.58 273.796 1288.54C273.784 1288.52 273.783 1288.49 273.774 1288.47C273.77 1288.45 273.766 1288.44 273.766 1288.43C273.761 1288.42 273.754 1288.29 273.754 1288.29L273.747 1288.18L273.738 1288.03L273.423 1282.88L273.421 1282.84L273.407 1282.62C273.398 1282.47 273.466 1282.33 273.585 1282.25L273.714 1282.17L273.759 1282.14L277.717 1279.53C277.739 1279.24 277.907 1278.99 278.153 1278.86C278.257 1278.8 278.372 1278.77 278.495 1278.76C278.665 1278.75 278.825 1278.79 278.963 1278.87C279.147 1278.98 279.288 1279.16 279.348 1279.38L283.914 1281.73C284.042 1281.79 284.13 1281.92 284.139 1282.07L284.493 1287.87C284.502 1288.01 284.434 1288.15 284.312 1288.23L279.717 1291.26L279.521 1291.39C279.512 1291.39 279.498 1291.39 279.489 1291.4C279.446 1291.42 279.401 1291.44 279.354 1291.44C279.338 1291.44 279.321 1291.45 279.301 1291.45C279.238 1291.45 279.173 1291.44 279.115 1291.41L278.918 1291.3ZM283.679 1287.67L283.353 1282.35L279.164 1280.19C279.023 1280.34 278.828 1280.44 278.605 1280.45C278.405 1280.46 278.218 1280.4 278.067 1280.28L274.231 1282.81L274.557 1288.14L276.92 1289.36L279.284 1290.57L283.679 1287.67Z" fill="#EAF9FF"/>
  <path d="M263.08 1325.2L261.586 1324.43C261.458 1324.36 261.373 1324.23 261.364 1324.09L261.261 1322.4C261.252 1322.26 261.32 1322.12 261.439 1322.04L262.638 1321.25L262.831 1321.12C262.95 1321.04 263.106 1321.03 263.234 1321.1L263.445 1321.21L264.732 1321.87C264.86 1321.94 264.948 1322.07 264.957 1322.21L265.06 1323.9C265.069 1324.04 265.001 1324.18 264.879 1324.26L263.487 1325.18C263.361 1325.26 263.208 1325.27 263.08 1325.2ZM264.233 1323.7L264.158 1322.49L263.095 1321.94C263.068 1321.94 262.078 1322.6 262.078 1322.6L262.153 1323.81L263.23 1324.36L264.233 1323.7Z" fill="#EAF9FF"/>
  <path d="M268.719 1297.41C268.698 1297.08 268.855 1296.8 269.103 1296.64C269.116 1296.63 269.129 1296.62 269.145 1296.61C269.252 1296.55 269.37 1296.52 269.5 1296.51C269.647 1296.5 269.786 1296.54 269.911 1296.6C269.924 1296.61 269.942 1296.61 269.956 1296.62C270.198 1296.76 270.371 1297.01 270.39 1297.32C270.418 1297.78 270.068 1298.18 269.604 1298.2C269.447 1298.21 269.297 1298.17 269.166 1298.1C268.92 1297.97 268.744 1297.71 268.719 1297.41Z" fill="#EAF9FF"/>
  <path d="M264.913 1288.93C264.926 1289.25 264.778 1289.52 264.55 1289.67C264.428 1289.76 264.284 1289.81 264.127 1289.82C263.97 1289.83 263.821 1289.79 263.689 1289.72C263.443 1289.59 263.264 1289.33 263.242 1289.03C263.219 1288.7 263.379 1288.42 263.627 1288.26C263.743 1288.18 263.877 1288.14 264.024 1288.13C264.171 1288.12 264.31 1288.15 264.434 1288.22C264.7 1288.35 264.893 1288.61 264.913 1288.93Z" fill="#EAF9FF"/>
  <path d="M278.762 1296.78C278.741 1296.44 278.898 1296.16 279.146 1296C279.262 1295.93 279.397 1295.88 279.543 1295.87C279.69 1295.87 279.829 1295.9 279.954 1295.96C280.219 1296.09 280.413 1296.36 280.433 1296.68C280.445 1297 280.298 1297.26 280.07 1297.42C279.948 1297.5 279.804 1297.56 279.647 1297.57C279.49 1297.58 279.34 1297.54 279.209 1297.46C278.963 1297.33 278.787 1297.08 278.762 1296.78Z" fill="#EAF9FF"/>
  <path d="M284.747 1322L284.414 1317.48L284.525 1317.53C284.615 1317.58 284.724 1317.58 284.808 1317.52L284.977 1317.41L285.315 1322.02L288.822 1323.82L292.705 1321.22L292.714 1321.36C292.72 1321.47 292.779 1321.56 292.87 1321.61L293.035 1321.69L289.118 1324.31L289.355 1328.19L293.528 1330.3L295.063 1329.29C295.147 1329.24 295.256 1329.23 295.347 1329.28L297.128 1330.19C297.218 1330.24 297.278 1330.33 297.284 1330.43L297.407 1332.44C297.413 1332.54 297.365 1332.64 297.281 1332.7L295.623 1333.79C295.539 1333.84 295.429 1333.85 295.339 1333.8L293.558 1332.89C293.467 1332.84 293.408 1332.75 293.402 1332.65L293.29 1330.82L289.184 1328.74L285.912 1330.9L286.126 1334.39L285.897 1334.28C285.807 1334.23 285.698 1334.24 285.614 1334.29L285.553 1334.33L285.351 1331.04L281.723 1329.17L279.279 1330.75L279.345 1331.82C279.351 1331.92 279.303 1332.02 279.219 1332.07L278.143 1332.78L278.219 1334.02L279.048 1334.44C279.138 1334.49 279.198 1334.58 279.204 1334.68L279.271 1335.79C279.278 1335.89 279.23 1335.99 279.146 1336.04L278.236 1336.64C278.152 1336.7 278.042 1336.7 277.952 1336.65L276.975 1336.15C276.884 1336.11 276.825 1336.01 276.819 1335.91L276.751 1334.81C276.745 1334.71 276.793 1334.61 276.877 1334.55L277.649 1334.04L277.573 1332.81L276.623 1332.32L275.313 1333.21L275.374 1334.22C275.381 1334.32 275.333 1334.42 275.249 1334.47L274.341 1335.07C274.257 1335.13 274.148 1335.13 274.057 1335.09L273.08 1334.58C272.99 1334.54 272.931 1334.45 272.924 1334.34L272.857 1333.24C272.851 1333.14 272.898 1333.04 272.982 1332.99L273.892 1332.39C273.977 1332.33 274.086 1332.33 274.176 1332.37L274.943 1332.77L276.256 1331.88L276.181 1330.66L274.733 1329.87L274.064 1330.31C273.98 1330.36 273.871 1330.37 273.781 1330.32L272.803 1329.82C272.713 1329.77 272.654 1329.68 272.647 1329.58L272.58 1328.48C272.574 1328.38 272.621 1328.28 272.706 1328.22L273.615 1327.63C273.7 1327.57 273.809 1327.56 273.899 1327.61L274.874 1328.11C274.965 1328.16 275.024 1328.25 275.03 1328.35L275.095 1329.42L276.437 1330.16L277.506 1329.45C277.591 1329.4 277.7 1329.39 277.79 1329.44L279.092 1330.11C279.112 1330.12 279.123 1330.14 279.141 1330.15L281.4 1328.69L281.171 1324.97L277.058 1323.16L276.181 1323.74C276.097 1323.8 275.988 1323.8 275.897 1323.75L274.596 1323.08C274.505 1323.04 274.446 1322.95 274.44 1322.84L274.35 1321.38C274.344 1321.27 274.391 1321.18 274.475 1321.12L275.687 1320.32C275.771 1320.27 275.88 1320.26 275.971 1320.31L277.272 1320.98C277.363 1321.02 277.422 1321.11 277.428 1321.22L277.518 1322.69C277.519 1322.7 277.51 1322.72 277.507 1322.74L281.202 1324.36C281.222 1324.33 281.24 1324.3 281.271 1324.28L284.747 1322ZM293.962 1332.45L295.449 1333.22L296.834 1332.31L296.731 1330.63L295.244 1329.86L294.121 1330.6L293.859 1330.77L293.88 1331.11L293.962 1332.45ZM273.489 1334.15L274.172 1334.5L274.809 1334.08L274.778 1333.58L274.761 1333.31L274.412 1333.13L274.078 1332.96L273.442 1333.38L273.489 1334.15ZM274.485 1328.55L273.801 1328.19L273.165 1328.61L273.17 1328.69L273.187 1328.97L273.212 1329.38L273.896 1329.74L274.172 1329.55L274.529 1329.32L274.516 1329.09L274.482 1328.55L274.485 1328.55ZM276.754 1330.64L276.775 1330.98L276.807 1331.51L276.816 1331.65L276.824 1331.78L277.168 1331.95L277.301 1332.02L277.54 1332.15L277.834 1332.3L278.107 1332.12L278.774 1331.68L278.739 1331.1L278.705 1330.54L278.617 1330.5L277.697 1330.03L277.021 1330.47L276.754 1330.64ZM277.97 1334.52L277.696 1334.7L277.334 1334.94L277.381 1335.71L277.846 1335.95L278.004 1336.04L278.065 1336.07L278.121 1336.03L278.268 1335.93L278.701 1335.65L278.653 1334.87L278.264 1334.67L277.97 1334.52ZM276.949 1322.49L276.883 1321.41L275.875 1320.89L274.937 1321.51L275.007 1322.65L276.015 1323.17L276.443 1322.89L276.955 1322.55L276.951 1322.49L276.949 1322.49ZM281.73 1324.67L281.764 1325.22L281.954 1328.34L281.974 1328.66L282.278 1328.81L285.313 1330.38L285.506 1330.47L285.871 1330.23L288.594 1328.44L288.795 1328.31L288.77 1327.89L288.573 1324.68L288.551 1324.32L288.28 1324.18L285.36 1322.68L285.016 1322.5L284.789 1322.65L281.807 1324.62L281.73 1324.67Z" fill="#67CDF5" fill-opacity="0.5"/>
  <path d="M285.403 1323.12L287.931 1324.42L288.051 1324.49C288.141 1324.53 288.2 1324.62 288.207 1324.73L288.219 1324.92L288.389 1327.7L288.404 1327.95C288.41 1328.05 288.362 1328.14 288.278 1328.2L288.211 1328.25L285.853 1329.8L285.624 1329.95C285.54 1330 285.431 1330.01 285.341 1329.96L285.293 1329.94L282.651 1328.58L282.49 1328.5C282.4 1328.45 282.341 1328.36 282.335 1328.26L282.326 1328.11L282.159 1325.39L282.138 1325.04C282.132 1324.95 282.176 1324.87 282.243 1324.81C282.249 1324.8 282.254 1324.79 282.263 1324.79L284.833 1323.09L284.917 1323.04C285.001 1322.98 285.11 1322.97 285.2 1323.02L285.403 1323.12ZM282.712 1325.17L282.741 1325.64L282.87 1327.75L282.888 1328.06L283.202 1328.22L285.253 1329.27L285.446 1329.37L285.81 1329.13L287.619 1327.94L287.827 1327.8L287.802 1327.4L287.672 1325.28L287.65 1324.92L287.387 1324.78L285.449 1323.79L285.093 1323.6L284.88 1323.75L282.859 1325.08L282.712 1325.17Z" fill="#67CDF5" fill-opacity="0.5"/>
  <path d="M294.045 1320.93C294.093 1321.05 294.13 1321.18 294.138 1321.32C294.176 1321.97 293.68 1322.53 293.034 1322.56C292.385 1322.59 291.829 1322.09 291.791 1321.44C291.783 1321.3 291.802 1321.18 291.839 1321.05C291.879 1320.91 291.947 1320.77 292.037 1320.66C292.239 1320.39 292.543 1320.21 292.897 1320.19C293.252 1320.18 293.575 1320.32 293.806 1320.56C293.905 1320.67 293.988 1320.79 294.045 1320.93Z" fill="#67CDF5" fill-opacity="0.5"/>
  <path d="M285.853 1317.04C285.902 1317.16 285.938 1317.28 285.946 1317.42C285.985 1318.07 285.488 1318.63 284.842 1318.66C284.193 1318.7 283.638 1318.2 283.599 1317.54C283.591 1317.41 283.611 1317.28 283.647 1317.15C283.687 1317.01 283.755 1316.88 283.846 1316.76C284.047 1316.5 284.351 1316.32 284.706 1316.3C285.061 1316.28 285.383 1316.42 285.614 1316.66C285.711 1316.77 285.794 1316.9 285.853 1317.04Z" fill="#67CDF5" fill-opacity="0.5"/>
  <path d="M286.79 1334.54C286.817 1334.61 286.836 1334.69 286.841 1334.78C286.866 1335.21 286.593 1335.58 286.203 1335.7C286.133 1335.72 286.061 1335.74 285.983 1335.74C285.908 1335.75 285.832 1335.74 285.76 1335.73C285.358 1335.65 285.043 1335.31 285.018 1334.88C284.988 1334.37 285.373 1333.94 285.873 1333.91C286.131 1333.9 286.371 1334 286.546 1334.16C286.66 1334.26 286.74 1334.39 286.79 1334.54Z" fill="#67CDF5" fill-opacity="0.5"/>
  <path d="M95.4208 1473.68L91.9339 1472.08L91.6844 1473.19L95.2007 1475.33L95.4208 1473.68Z" fill="#142E8F"/>
  <path d="M193.986 1506.79L189.459 1503.92L188.579 1504.91L192.449 1507.19L193.986 1506.79Z" fill="#0E2187"/>
  <defs>
    <filter id="filter0_f" x="173.16" y="1289.54" width="205.199" height="150.832" filterUnits="userSpaceOnUse" color-interpolation-filters="sRGB">
      <feFlood flood-opacity="0" result="BackgroundImageFix"/>
      <feBlend mode="normal" in="SourceGraphic" in2="BackgroundImageFix" result="shape"/>
      <feGaussianBlur stdDeviation="22" result="effect1_foregroundBlur"/>
    </filter>
    <filter id="filter1_f" x="7.39844" y="1484.86" width="205.199" height="150.832" filterUnits="userSpaceOnUse" color-interpolation-filters="sRGB">
      <feFlood flood-opacity="0" result="BackgroundImageFix"/>
      <feBlend mode="normal" in="SourceGraphic" in2="BackgroundImageFix" result="shape"/>
      <feGaussianBlur stdDeviation="22" result="effect1_foregroundBlur"/>
    </filter>
    <filter id="filter2_f" x="-27.8594" y="1258.74" width="255.227" height="241.995" filterUnits="userSpaceOnUse" color-interpolation-filters="sRGB">
      <feFlood flood-opacity="0" result="BackgroundImageFix"/>
      <feBlend mode="normal" in="SourceGraphic" in2="BackgroundImageFix" result="shape"/>
      <feGaussianBlur stdDeviation="22" result="effect1_foregroundBlur"/>
    </filter>
    <filter id="filter3_f" x="-14.6875" y="1239.46" width="404.156" height="379.144" filterUnits="userSpaceOnUse" color-interpolation-filters="sRGB">
      <feFlood flood-opacity="0" result="BackgroundImageFix"/>
      <feBlend mode="normal" in="SourceGraphic" in2="BackgroundImageFix" result="shape"/>
      <feGaussianBlur stdDeviation="22" result="effect1_foregroundBlur"/>
    </filter>
    <linearGradient id="paint0_linear" x1="592.561" y1="179.985" x2="576.462" y2="2534.18" gradientUnits="userSpaceOnUse">
      <stop stop-color="#070F4B"/>
      <stop offset="0.338897" stop-color="#161660"/>
      <stop offset="0.620267" stop-color="#322387"/>
      <stop offset="1" stop-color="#5B37C0"/>
    </linearGradient>
    <linearGradient id="paint1_linear" x1="235.095" y1="1370.78" x2="235.069" y2="1395.65" gradientUnits="userSpaceOnUse">
      <stop stop-color="#DEF8F9"/>
      <stop offset="1" stop-color="#F6FDFD"/>
    </linearGradient>
    <linearGradient id="paint2_linear" x1="309.431" y1="1371.27" x2="324.109" y2="1433.64" gradientUnits="userSpaceOnUse">
      <stop stop-color="#DEF8F9"/>
      <stop offset="1" stop-color="white"/>
    </linearGradient>
    <linearGradient id="paint3_linear" x1="167.891" y1="1347.78" x2="145.438" y2="1308.72" gradientUnits="userSpaceOnUse">
      <stop stop-color="#C0BFF6"/>
      <stop offset="0.29" stop-color="#C5C4F7"/>
      <stop offset="0.64" stop-color="#D3D2F9"/>
      <stop offset="1" stop-color="#E9E9FD"/>
    </linearGradient>
    <linearGradient id="paint4_linear" x1="153.216" y1="1387.55" x2="153.104" y2="1494.96" gradientUnits="userSpaceOnUse">
      <stop stop-color="#DEF8F9"/>
      <stop offset="1" stop-color="#F6FDFD"/>
    </linearGradient>
    <linearGradient id="paint5_linear" x1="29866.2" y1="16347.7" x2="51243.4" y2="16319.2" gradientUnits="userSpaceOnUse">
      <stop stop-color="#C0BFF6"/>
      <stop offset="0.29" stop-color="#C5C4F7"/>
      <stop offset="0.64" stop-color="#D3D2F9"/>
      <stop offset="1" stop-color="#E9E9FD"/>
    </linearGradient>
    <linearGradient id="paint6_linear" x1="36.1639" y1="1388.12" x2="60.6466" y2="1388.09" gradientUnits="userSpaceOnUse">
      <stop stop-color="#5761D7"/>
      <stop offset="0.18" stop-color="#5C66D9"/>
      <stop offset="0.39" stop-color="#6A73DF"/>
      <stop offset="0.61" stop-color="#8289E8"/>
      <stop offset="0.85" stop-color="#A3A7F5"/>
      <stop offset="1" stop-color="#BCBEFF"/>
    </linearGradient>
    <linearGradient id="paint7_linear" x1="-45883.6" y1="20701.1" x2="-88520.9" y2="20757.1" gradientUnits="userSpaceOnUse">
      <stop stop-color="#5031B0"/>
      <stop offset="0.18" stop-color="#5C66D9"/>
      <stop offset="0.39" stop-color="#6A73DF"/>
      <stop offset="0.61" stop-color="#8289E8"/>
      <stop offset="0.85" stop-color="#A3A7F5"/>
      <stop offset="1" stop-color="#BCBEFF"/>
    </linearGradient>
    <linearGradient id="paint8_linear" x1="155.523" y1="1407.79" x2="155.451" y2="1480.58" gradientUnits="userSpaceOnUse">
      <stop stop-color="#DEF8F9"/>
      <stop offset="1" stop-color="#F6FDFD"/>
    </linearGradient>
    <linearGradient id="paint9_linear" x1="17339.8" y1="6669.66" x2="20136.8" y2="6665.98" gradientUnits="userSpaceOnUse">
      <stop stop-color="#463E90"/>
      <stop offset="0.29" stop-color="#C5C4F7"/>
      <stop offset="0.64" stop-color="#D3D2F9"/>
      <stop offset="1" stop-color="#E9E9FD"/>
    </linearGradient>
    <linearGradient id="paint10_linear" x1="44239.7" y1="14927.7" x2="86913.3" y2="14882.6" gradientUnits="userSpaceOnUse">
      <stop stop-color="#C0BFF6"/>
      <stop offset="0.29" stop-color="#C5C4F7"/>
      <stop offset="0.64" stop-color="#D3D2F9"/>
      <stop offset="1" stop-color="#E9E9FD"/>
    </linearGradient>
    <linearGradient id="paint11_linear" x1="10710.6" y1="4369.25" x2="13505.6" y2="4366.29" gradientUnits="userSpaceOnUse">
      <stop stop-color="#C0BFF6"/>
      <stop offset="0.29" stop-color="#C5C4F7"/>
      <stop offset="0.64" stop-color="#D3D2F9"/>
      <stop offset="1" stop-color="#E9E9FD"/>
    </linearGradient>
    <linearGradient id="paint12_linear" x1="23236.9" y1="-12376.4" x2="33607" y2="-12390.2" gradientUnits="userSpaceOnUse">
      <stop stop-color="#5761D7"/>
      <stop offset="0.18" stop-color="#5C66D9"/>
      <stop offset="0.39" stop-color="#6A73DF"/>
      <stop offset="0.61" stop-color="#8289E8"/>
      <stop offset="0.85" stop-color="#A3A7F5"/>
      <stop offset="1" stop-color="#BCBEFF"/>
    </linearGradient>
    <radialGradient id="paint13_radial" cx="0" cy="0" r="1" gradientUnits="userSpaceOnUse" gradientTransform="translate(201.954 1437.77) rotate(0.0606524) scale(47.1362 47.2048)">
      <stop stop-color="#2B237C"/>
      <stop offset="1" stop-color="#180D5B"/>
    </radialGradient>
    <linearGradient id="paint14_linear" x1="273.125" y1="1409.23" x2="199.902" y2="1511.93" gradientUnits="userSpaceOnUse">
      <stop stop-color="#070F4B"/>
      <stop offset="1" stop-color="#422B9D"/>
    </linearGradient>
    <linearGradient id="paint15_linear" x1="25243.2" y1="-11590.7" x2="35619.1" y2="-11604.5" gradientUnits="userSpaceOnUse">
      <stop stop-color="#5031B0"/>
      <stop offset="0.29" stop-color="#7159C6"/>
      <stop offset="0.64" stop-color="#9E89E9"/>
      <stop offset="1" stop-color="#D0D0FF"/>
    </linearGradient>
    <linearGradient id="paint16_linear" x1="283.263" y1="1418.75" x2="283.254" y2="1427.19" gradientUnits="userSpaceOnUse">
      <stop stop-color="#DEF8F9"/>
      <stop offset="1" stop-color="#F6FDFD"/>
    </linearGradient>
    <linearGradient id="paint17_linear" x1="63.1212" y1="1473.39" x2="63.0575" y2="1533.56" gradientUnits="userSpaceOnUse">
      <stop stop-color="#DEF8F9"/>
      <stop offset="1" stop-color="#F6FDFD"/>
    </linearGradient>
    <linearGradient id="paint18_linear" x1="-25903.6" y1="9609.44" x2="-33323.2" y2="4285.09" gradientUnits="userSpaceOnUse">
      <stop stop-color="#5031B0"/>
      <stop offset="0.18" stop-color="#5C66D9"/>
      <stop offset="0.39" stop-color="#6A73DF"/>
      <stop offset="0.61" stop-color="#8289E8"/>
      <stop offset="0.85" stop-color="#A3A7F5"/>
      <stop offset="1" stop-color="#BCBEFF"/>
    </linearGradient>
    <linearGradient id="paint19_linear" x1="7764.03" y1="2373.9" x2="7898.1" y2="2198.57" gradientUnits="userSpaceOnUse">
      <stop stop-color="#C0BFF6"/>
      <stop offset="0.29" stop-color="#C5C4F7"/>
      <stop offset="0.64" stop-color="#D3D2F9"/>
      <stop offset="1" stop-color="#E9E9FD"/>
    </linearGradient>
    <linearGradient id="paint20_linear" x1="165.621" y1="1275.29" x2="165.52" y2="1371.61" gradientUnits="userSpaceOnUse">
      <stop stop-color="#DEF8F9"/>
      <stop offset="1" stop-color="#F6FDFD"/>
    </linearGradient>
    <linearGradient id="paint21_linear" x1="166.215" y1="1289.37" x2="166.164" y2="1337.29" gradientUnits="userSpaceOnUse">
      <stop stop-color="#DEF8F9"/>
      <stop offset="1" stop-color="#F6FDFD"/>
    </linearGradient>
    <linearGradient id="paint22_linear" x1="166.215" y1="1309.71" x2="166.164" y2="1357.62" gradientUnits="userSpaceOnUse">
      <stop stop-color="#DEF8F9"/>
      <stop offset="1" stop-color="#F6FDFD"/>
    </linearGradient>
    <linearGradient id="paint23_linear" x1="152.056" y1="1317.9" x2="152.048" y2="1325.12" gradientUnits="userSpaceOnUse">
      <stop stop-color="#DEF8F9"/>
      <stop offset="1" stop-color="#F6FDFD"/>
    </linearGradient>
    <linearGradient id="paint24_linear" x1="159.166" y1="1313.78" x2="159.158" y2="1321" gradientUnits="userSpaceOnUse">
      <stop stop-color="#DEF8F9"/>
      <stop offset="1" stop-color="#F6FDFD"/>
    </linearGradient>
    <linearGradient id="paint25_linear" x1="166.227" y1="1309.67" x2="166.22" y2="1316.89" gradientUnits="userSpaceOnUse">
      <stop stop-color="#DEF8F9"/>
      <stop offset="1" stop-color="#F6FDFD"/>
    </linearGradient>
    <linearGradient id="paint26_linear" x1="173.329" y1="1305.55" x2="173.321" y2="1312.74" gradientUnits="userSpaceOnUse">
      <stop stop-color="#DEF8F9"/>
      <stop offset="1" stop-color="#F6FDFD"/>
    </linearGradient>
    <linearGradient id="paint27_linear" x1="180.446" y1="1301.44" x2="180.439" y2="1308.63" gradientUnits="userSpaceOnUse">
      <stop stop-color="#DEF8F9"/>
      <stop offset="1" stop-color="#F6FDFD"/>
    </linearGradient>
    <linearGradient id="paint28_linear" x1="152.052" y1="1338.23" x2="152.044" y2="1345.46" gradientUnits="userSpaceOnUse">
      <stop stop-color="#DEF8F9"/>
      <stop offset="1" stop-color="#F6FDFD"/>
    </linearGradient>
    <linearGradient id="paint29_linear" x1="159.161" y1="1334.12" x2="159.153" y2="1341.3" gradientUnits="userSpaceOnUse">
      <stop stop-color="#DEF8F9"/>
      <stop offset="1" stop-color="#F6FDFD"/>
    </linearGradient>
    <linearGradient id="paint30_linear" x1="166.255" y1="1330.03" x2="166.247" y2="1337.23" gradientUnits="userSpaceOnUse">
      <stop stop-color="#DEF8F9"/>
      <stop offset="1" stop-color="#F6FDFD"/>
    </linearGradient>
    <linearGradient id="paint31_linear" x1="173.329" y1="1325.89" x2="173.321" y2="1333.13" gradientUnits="userSpaceOnUse">
      <stop stop-color="#DEF8F9"/>
      <stop offset="1" stop-color="#F6FDFD"/>
    </linearGradient>
    <linearGradient id="paint32_linear" x1="180.442" y1="1321.78" x2="180.435" y2="1328.97" gradientUnits="userSpaceOnUse">
      <stop stop-color="#DEF8F9"/>
      <stop offset="1" stop-color="#F6FDFD"/>
    </linearGradient>
    <linearGradient id="paint33_linear" x1="311.08" y1="1356.87" x2="260.428" y2="1358.25" gradientUnits="userSpaceOnUse">
      <stop offset="0.25" stop-color="#5761D7"/>
      <stop offset="0.44" stop-color="#6C74DF"/>
      <stop offset="0.82" stop-color="#A2A6F5"/>
      <stop offset="1" stop-color="#BCBEFF"/>
    </linearGradient>
    <linearGradient id="paint34_linear" x1="-3199.45" y1="4738.61" x2="-8549.32" y2="4884.33" gradientUnits="userSpaceOnUse">
      <stop stop-color="#C0BFF6"/>
      <stop offset="0.29" stop-color="#C5C4F7"/>
      <stop offset="0.64" stop-color="#D3D2F9"/>
      <stop offset="1" stop-color="#E9E9FD"/>
    </linearGradient>
    <linearGradient id="paint35_linear" x1="275.258" y1="1343.6" x2="275.238" y2="1364.42" gradientUnits="userSpaceOnUse">
      <stop stop-color="#DEF8F9"/>
      <stop offset="1" stop-color="#F6FDFD"/>
    </linearGradient>
    <linearGradient id="paint36_linear" x1="275.252" y1="1331.15" x2="275.226" y2="1356.56" gradientUnits="userSpaceOnUse">
      <stop stop-color="#DEF8F9"/>
      <stop offset="1" stop-color="#F6FDFD"/>
    </linearGradient>
    <linearGradient id="paint37_linear" x1="290.856" y1="1344.28" x2="302.852" y2="1319.94" gradientUnits="userSpaceOnUse">
      <stop stop-color="#71E2FB" stop-opacity="0.65"/>
      <stop offset="0.243575" stop-color="#71E2FB" stop-opacity="0.467969"/>
      <stop offset="0.477954" stop-color="#71E2FB" stop-opacity="0.314343"/>
      <stop offset="0.712333" stop-color="#71E2FB" stop-opacity="0.149743"/>
      <stop offset="1" stop-color="#71E2FB" stop-opacity="0"/>
    </linearGradient>
    <linearGradient id="paint38_linear" x1="142.964" y1="1519.57" x2="79.9416" y2="1559.95" gradientUnits="userSpaceOnUse">
      <stop stop-color="#BCBEFF"/>
      <stop offset="0.23" stop-color="#AAADF8"/>
      <stop offset="0.68" stop-color="#7C83E5"/>
      <stop offset="1" stop-color="#5761D7"/>
    </linearGradient>
    <linearGradient id="paint39_linear" x1="151.777" y1="1533.54" x2="70.4703" y2="1537.74" gradientUnits="userSpaceOnUse">
      <stop stop-color="#E9E9FD"/>
      <stop offset="0.36" stop-color="#D3D2F9"/>
      <stop offset="0.71" stop-color="#C5C4F7"/>
      <stop offset="1" stop-color="#C0BFF6"/>
    </linearGradient>
    <linearGradient id="paint40_linear" x1="111.165" y1="1536.3" x2="112.412" y2="1560.42" gradientUnits="userSpaceOnUse">
      <stop stop-color="#DEF8F9"/>
      <stop offset="1" stop-color="#F6FDFD"/>
    </linearGradient>
    <linearGradient id="paint41_linear" x1="-18675.1" y1="13224.3" x2="-22605.6" y2="13427.2" gradientUnits="userSpaceOnUse">
      <stop stop-color="#E9E9FD"/>
      <stop offset="0.36" stop-color="#D3D2F9"/>
      <stop offset="0.71" stop-color="#C5C4F7"/>
      <stop offset="1" stop-color="#C0BFF6"/>
    </linearGradient>
    <linearGradient id="paint42_linear" x1="134.822" y1="1536.05" x2="152.861" y2="1496.01" gradientUnits="userSpaceOnUse">
      <stop stop-color="#71E2FB" stop-opacity="0.65"/>
      <stop offset="0.243575" stop-color="#71E2FB" stop-opacity="0.467969"/>
      <stop offset="0.477954" stop-color="#71E2FB" stop-opacity="0.314343"/>
      <stop offset="0.712333" stop-color="#71E2FB" stop-opacity="0.149743"/>
      <stop offset="1" stop-color="#71E2FB" stop-opacity="0"/>
    </linearGradient>
  </defs>
</svg>
