<svg preserveAspectRatio="xMinYMin slice" viewBox="0 0 375 2454" fill="none" xmlns="http://www.w3.org/2000/svg">
  <path d="M0 138.834L21.466 79.2297C37.373 35.0611 85.4537 11.4784 130.117 25.9385L377 105.869V2316.65L296.208 2400.08C266.212 2431.06 218.051 2435.39 183.01 2410.26L0 2279.03L0 138.834Z" fill="url(#paint0_linear)"/>
  <g opacity="0.2" filter="url(#filter0_f)">
    <ellipse rx="58.6013" ry="31.416" transform="matrix(1 0.00103419 0.00130943 1 275.76 2019.96)" fill="#52D8E0"/>
  </g>
  <g opacity="0.2" filter="url(#filter1_f)">
    <ellipse rx="58.6013" ry="31.416" transform="matrix(1 0.00103417 0.00130941 1 109.998 2215.28)" fill="#52D8E0"/>
  </g>
  <g opacity="0.1" filter="url(#filter2_f)">
    <ellipse rx="83.6131" ry="76.9975" transform="matrix(1 0.00105839 0.0013327 1 99.7548 2034.74)" fill="#52D8E0"/>
  </g>
  <g opacity="0.1" filter="url(#filter3_f)">
    <ellipse rx="158.079" ry="145.572" transform="matrix(1 0.00105835 0.00133266 1 187.391 2084.04)" fill="#52D8E0"/>
  </g>
  <path d="M215.134 2050.63C215.286 2050.63 215.435 2050.59 215.569 2050.51L255.586 2027.4C255.769 2027.28 255.898 2027.09 255.948 2026.88C255.997 2026.66 255.964 2026.43 255.853 2026.24C255.743 2026.05 255.565 2025.9 255.354 2025.84C255.143 2025.77 254.914 2025.79 254.714 2025.88L214.687 2048.99C214.488 2049.11 214.342 2049.3 214.283 2049.52C214.223 2049.75 214.253 2049.99 214.368 2050.19C214.446 2050.33 214.558 2050.44 214.693 2050.51C214.827 2050.59 214.979 2050.63 215.134 2050.63Z" fill="#0E2187" stroke="url(#paint1_linear)"/>
  <path d="M288.431 2103.38C288.598 2103.38 288.761 2103.33 288.904 2103.25L358.212 2062.89C358.356 2062.81 358.476 2062.69 358.559 2062.54C358.642 2062.4 358.685 2062.23 358.684 2062.07C358.681 2061.9 358.634 2061.74 358.547 2061.59C358.46 2061.45 358.338 2061.33 358.191 2061.25L294.572 2026.64C294.352 2026.51 294.092 2026.48 293.848 2026.55C293.604 2026.61 293.397 2026.77 293.272 2026.99C293.147 2027.21 293.114 2027.47 293.181 2027.72C293.248 2027.96 293.409 2028.17 293.628 2028.3L355.846 2062.1L287.975 2101.62C287.797 2101.72 287.659 2101.88 287.581 2102.08C287.504 2102.27 287.492 2102.48 287.547 2102.68C287.602 2102.88 287.721 2103.06 287.886 2103.19C288.051 2103.31 288.252 2103.38 288.46 2103.38L288.431 2103.38Z" fill="#0E2187" stroke="url(#paint2_linear)"/>
  <path d="M203.848 1982.86L128.73 2026.27C126.679 2027.46 125.012 2026.19 125.009 2023.43L124.952 1981.23C124.949 1978.49 126.609 1975.3 128.661 1974.11L203.779 1930.73C205.83 1929.55 207.497 1930.81 207.5 1933.57L207.557 1975.75C207.541 1978.49 205.9 1981.68 203.848 1982.86Z" fill="url(#paint3_linear)"/>
  <path d="M135.93 2148.58L242.641 2086.16C243.018 2085.94 243.331 2085.62 243.548 2085.24C243.765 2084.86 243.879 2084.42 243.879 2083.98C243.878 2083.54 243.763 2083.1 243.545 2082.72C243.327 2082.33 243.013 2082.01 242.635 2081.79L176.225 2042.88L175.704 2042.57L63.9357 2107.94C63.5585 2108.16 63.2454 2108.48 63.028 2108.86C62.8106 2109.25 62.6965 2109.68 62.6971 2110.12C62.6976 2110.56 62.8129 2111 63.0314 2111.38C63.2498 2111.77 63.5636 2112.08 63.9414 2112.31L125.808 2148.56C127.349 2149.46 129.095 2149.94 130.871 2149.94C132.647 2149.94 134.392 2149.47 135.93 2148.58ZM241.642 2083.61C241.703 2083.65 241.752 2083.71 241.787 2083.77C241.822 2083.83 241.84 2083.9 241.84 2083.98C241.84 2084.05 241.822 2084.12 241.788 2084.18C241.753 2084.25 241.703 2084.3 241.643 2084.34L134.841 2146.75C133.619 2147.46 132.234 2147.84 130.823 2147.84C129.412 2147.83 128.025 2147.46 126.802 2146.74L64.9348 2110.48C64.8742 2110.44 64.8241 2110.39 64.7893 2110.33C64.7545 2110.27 64.7361 2110.2 64.736 2110.12C64.7359 2110.05 64.7541 2109.98 64.7888 2109.92C64.8234 2109.86 64.8734 2109.81 64.9338 2109.77L175.661 2045.03L241.642 2083.61Z" fill="#0E2187" stroke="url(#paint4_linear)"/>
  <path d="M178.314 2015.49L162.82 1923.93L164.058 1923.41L162.165 1922.34C161.941 1922.22 161.688 1922.17 161.435 1922.19C161.183 1922.2 160.94 1922.29 160.737 1922.44L37.7202 1993.52C37.2038 1993.85 36.7846 1994.32 36.5047 1994.87C36.2248 1995.41 36.0941 1996.03 36.1256 1996.64L51.7817 2088.93C51.7996 2089.13 51.8692 2089.33 51.9839 2089.49C52.0985 2089.66 52.2542 2089.79 52.4357 2089.88L54.2629 2090.93L54.5728 2089.23L54.4687 2089.23L176.757 2018.59C177.266 2018.26 177.677 2017.79 177.951 2017.25C178.224 2016.71 178.349 2016.1 178.314 2015.49Z" fill="url(#paint5_linear)"/>
  <path d="M38.4202 1996.09L36.3899 1995.19C36.1624 1995.66 36.0712 1996.19 36.1263 1996.71L51.8085 2089.06C51.8264 2089.26 51.8962 2089.46 52.0111 2089.62C52.126 2089.79 52.282 2089.92 52.4639 2090.01L54.2953 2091.06L54.6061 2089.36L54.5018 2089.36L60.7082 2085.78L38.4202 1996.09Z" fill="url(#paint6_linear)"/>
  <path d="M178.682 2019.78L55.6377 2090.84C54.6925 2091.4 53.8785 2091.07 53.7447 2090.09L38.0983 1997.81C38.0611 1997.19 38.1893 1996.57 38.4696 1996.02C38.7499 1995.47 39.1722 1995.01 39.6928 1994.67L162.689 1923.56C163.635 1923.01 164.449 1923.34 164.582 1924.32L180.276 2016.6C180.32 2017.23 180.195 2017.85 179.915 2018.41C179.634 2018.97 179.208 2019.45 178.682 2019.78Z" fill="#101357"/>
  <g opacity="0.51">
    <path opacity="0.51" d="M161.073 1929.48L42.4685 1997.94L57.3425 2084.83L175.862 2016.42L161.073 1929.48Z" fill="#453C9E"/>
  </g>
  <path d="M255.91 2063.55L249.193 2067.06L181.813 2028.06C181.116 2027.74 180.356 2027.59 179.593 2027.63C178.829 2027.66 178.084 2027.86 177.417 2028.23L61.3656 2095.25C60.2492 2094.62 55.1788 2092.18 55.1788 2092.18L57.6452 2098.59C57.7782 2098.92 58.023 2099.19 58.3363 2099.36L129.293 2140.42C129.99 2140.74 130.75 2140.89 131.513 2140.86C132.276 2140.83 133.022 2140.62 133.689 2140.25L252.47 2071.67C252.897 2071.44 253.23 2071.06 253.414 2070.61L255.91 2063.55Z" fill="url(#paint7_linear)"/>
  <path d="M254.88 2064.63L133.168 2134.92C132.485 2135.3 131.723 2135.51 130.942 2135.54C130.16 2135.57 129.382 2135.42 128.669 2135.1L55.9224 2093.01C54.7681 2092.34 54.9084 2091.17 56.2404 2090.41L177.952 2020.13C178.637 2019.75 179.401 2019.53 180.183 2019.5C180.966 2019.47 181.746 2019.62 182.461 2019.94L255.198 2062.03C256.352 2062.7 256.212 2063.87 254.88 2064.63Z" fill="#8874D5"/>
  <path d="M254.83 2064L133.144 2134.23C132.461 2134.6 131.698 2134.82 130.917 2134.85C130.135 2134.88 129.357 2134.73 128.645 2134.4L55.9181 2092.35C55.5946 2092.19 55.3447 2091.91 55.2177 2091.57C55.1265 2091.86 55.1479 2092.17 55.2778 2092.45C55.4077 2092.73 55.6365 2092.95 55.919 2093.06L128.646 2135.11C129.359 2135.43 130.138 2135.58 130.918 2135.55C131.699 2135.52 132.462 2135.3 133.145 2134.92L254.831 2064.7C255.775 2064.19 256.067 2063.49 255.858 2062.89C255.662 2063.37 255.297 2063.77 254.83 2064Z" fill="url(#paint8_linear)"/>
  <path d="M96.3948 2119.79L96.393 2118.45C96.3928 2118.32 96.4684 2118.27 96.5631 2118.32L101.297 2121.05C101.349 2121.08 101.393 2121.13 101.424 2121.19C101.456 2121.25 101.473 2121.31 101.477 2121.38L101.479 2122.71C101.479 2122.85 101.394 2122.9 101.299 2122.85L96.5655 2120.12C96.5139 2120.08 96.4717 2120.03 96.4421 2119.98C96.4125 2119.92 96.3963 2119.85 96.3948 2119.79Z" fill="#2842A2"/>
  <path d="M103.439 2123.87L103.438 2122.54C103.437 2122.4 103.513 2122.35 103.608 2122.4L108.341 2125.14C108.394 2125.17 108.437 2125.22 108.467 2125.28C108.496 2125.33 108.512 2125.39 108.512 2125.46L108.514 2126.8C108.514 2126.93 108.438 2126.98 108.344 2126.93L103.61 2124.2C103.558 2124.16 103.516 2124.11 103.487 2124.06C103.457 2124 103.441 2123.94 103.439 2123.87Z" fill="#2842A2"/>
  <path d="M74.8869 2089.09L176.024 2030.69C176.354 2030.5 176.731 2030.39 177.115 2030.39C177.499 2030.39 177.877 2030.5 178.207 2030.69L214.273 2051.61C214.391 2051.68 214.489 2051.78 214.557 2051.9C214.625 2052.01 214.661 2052.15 214.662 2052.28C214.662 2052.42 214.626 2052.55 214.558 2052.67C214.49 2052.79 214.393 2052.89 214.275 2052.96L113.195 2111.33C112.865 2111.52 112.488 2111.62 112.103 2111.62C111.719 2111.62 111.342 2111.52 111.011 2111.32L74.8981 2090.46C74.7729 2090.4 74.6678 2090.3 74.594 2090.18C74.5202 2090.06 74.4806 2089.92 74.4795 2089.78C74.4783 2089.64 74.5156 2089.5 74.5874 2089.38C74.6592 2089.26 74.7628 2089.16 74.8869 2089.09Z" fill="#101357" fill-opacity="0.55"/>
  <path d="M74.9139 2090.41L75.2734 2090.62L176.036 2032.45C176.368 2032.26 176.744 2032.16 177.127 2032.16C177.511 2032.16 177.887 2032.26 178.22 2032.46L213.919 2053.15L214.278 2052.94C214.396 2052.88 214.494 2052.78 214.562 2052.66C214.629 2052.54 214.665 2052.41 214.665 2052.27C214.665 2052.14 214.629 2052 214.561 2051.89C214.492 2051.77 214.395 2051.67 214.277 2051.6L178.18 2030.7C177.848 2030.5 177.471 2030.4 177.087 2030.4C176.704 2030.4 176.327 2030.5 175.996 2030.69L74.8744 2089.06C74.7586 2089.13 74.6636 2089.23 74.599 2089.35C74.5344 2089.47 74.5026 2089.61 74.5066 2089.74C74.5106 2089.88 74.5503 2090.01 74.6218 2090.13C74.6933 2090.24 74.7941 2090.34 74.9139 2090.41Z" fill="#9198DB"/>
  <path d="M180.952 2035.97L93.0977 2086.7L89.1903 2084.44L177.045 2033.71L180.952 2035.97Z" fill="#101357"/>
  <path d="M190.534 2041.52L108.13 2089.1L104.222 2086.84L186.627 2039.26L190.534 2041.52Z" fill="#101357"/>
  <path d="M196.78 2045.15L99.7525 2101.17L95.8356 2098.91L192.863 2042.88L196.78 2045.15Z" fill="#101357"/>
  <path d="M203.015 2048.76L105.987 2104.78L102.079 2102.52L199.098 2046.49L203.015 2048.76Z" fill="#101357"/>
  <path d="M209.249 2052.37L112.231 2108.4L108.314 2106.13L205.342 2050.12L209.249 2052.37Z" fill="#101357"/>
  <path d="M87.7959 2089.87L83.885 2092.13L79.968 2089.87L83.879 2087.62L87.7959 2089.87Z" fill="#101357"/>
  <path d="M101.573 2093L93.4677 2097.68L89.5506 2095.41L97.6657 2090.73L101.573 2093Z" fill="#101357"/>
  <path d="M179.965 2103.36L207.238 2087.61C207.469 2087.52 207.669 2087.37 207.811 2087.17C207.952 2086.97 208.028 2086.73 208.028 2086.49C208.028 2086.24 207.951 2086 207.809 2085.8C207.667 2085.6 207.466 2085.45 207.235 2085.37L188.577 2074.57C187.981 2074.26 187.319 2074.1 186.648 2074.1C185.977 2074.1 185.316 2074.26 184.72 2074.57L157.4 2090.31C157.169 2090.39 156.969 2090.54 156.827 2090.74C156.686 2090.94 156.61 2091.18 156.61 2091.42C156.61 2091.67 156.687 2091.91 156.829 2092.11C156.971 2092.31 157.172 2092.46 157.403 2092.54L176.079 2103.35C176.681 2103.66 177.347 2103.82 178.023 2103.82C178.698 2103.82 179.364 2103.66 179.965 2103.36Z" fill="url(#paint9_linear)"/>
  <path d="M157.414 2091.21L184.709 2075.47C185.306 2075.17 185.967 2075.01 186.637 2075.01C187.307 2075.01 187.967 2075.17 188.565 2075.48L207.236 2086.27C207.518 2086.42 207.751 2086.65 207.908 2086.93C208.191 2086.39 207.973 2085.78 207.235 2085.36L188.583 2074.57C187.986 2074.26 187.325 2074.1 186.654 2074.1C185.983 2074.1 185.323 2074.26 184.727 2074.56L157.413 2090.29C156.676 2090.71 156.469 2091.32 156.744 2091.86C156.9 2091.58 157.133 2091.36 157.414 2091.21Z" fill="#9198DB"/>
  <mask id="mask0" style="mask-type:alpha" maskUnits="userSpaceOnUse" x="42" y="1929" width="134" height="156">
    <path opacity="0.51" d="M161.091 1929.44L42.5025 1997.96L57.3237 2084.88L175.827 2016.4L161.091 1929.44Z" fill="#13155B"/>
  </mask>
  <g mask="url(#mask0)">
    <path opacity="0.11" d="M178.177 2019.94L56.4694 2090.28C55.7879 2090.66 55.0251 2090.88 54.2431 2090.91C53.4612 2090.94 52.6824 2090.79 51.9704 2090.46L-20.7521 2048.37C-21.906 2047.71 -21.756 2046.54 -20.4241 2045.77L101.274 1975.43C101.957 1975.04 102.722 1974.83 103.505 1974.79C104.289 1974.76 105.069 1974.91 105.783 1975.24L178.496 2017.33C179.65 2018 179.509 2019.16 178.177 2019.94Z" fill="url(#paint10_linear)"/>
    <path opacity="0.11" d="M56.0758 2032.46L83.3476 2016.7C83.5789 2016.62 83.7792 2016.47 83.9208 2016.27C84.0624 2016.07 84.1384 2015.83 84.1381 2015.59C84.1379 2015.34 84.0614 2015.1 83.9194 2014.9C83.7773 2014.7 83.5767 2014.55 83.3452 2014.47L64.6751 2003.62C64.0756 2003.32 63.4132 2003.16 62.7417 2003.16C62.0701 2003.16 61.4081 2003.31 60.8092 2003.62L33.5373 2019.38C33.3061 2019.46 33.1058 2019.61 32.9641 2019.81C32.8225 2020.01 32.7465 2020.25 32.7468 2020.5C32.7471 2020.74 32.8235 2020.98 32.9656 2021.18C33.1076 2021.38 33.3083 2021.54 33.5397 2021.62L52.2098 2032.42C52.805 2032.73 53.4663 2032.9 54.1387 2032.91C54.8111 2032.91 55.4752 2032.76 56.0758 2032.46Z" fill="url(#paint11_linear)"/>
    <path opacity="0.11" d="M33.5482 2020.32L60.8154 2004.56C61.4129 2004.25 62.0753 2004.09 62.7476 2004.09C63.4198 2004.09 64.0825 2004.26 64.6806 2004.56L83.3467 2015.37C83.6254 2015.52 83.8573 2015.75 84.0184 2016.03C84.2919 2015.49 84.0833 2014.88 83.3458 2014.46L64.6797 2003.62C64.0802 2003.31 63.418 2003.16 62.7466 2003.16C62.0752 2003.15 61.4133 2003.31 60.8145 2003.62L33.5472 2019.37C32.8105 2019.79 32.6032 2020.4 32.8778 2020.94C33.0388 2020.67 33.271 2020.46 33.5482 2020.32Z" fill="#9198DB"/>
    <path opacity="0.11" d="M21.5436 2057.1L122.687 1998.65C123.017 1998.46 123.392 1998.36 123.773 1998.36C124.155 1998.36 124.53 1998.46 124.861 1998.65L160.924 2019.57C161.042 2019.64 161.14 2019.74 161.208 2019.85C161.276 2019.97 161.312 2020.11 161.312 2020.24C161.312 2020.38 161.277 2020.51 161.209 2020.63C161.141 2020.75 161.043 2020.85 160.926 2020.91L59.8487 2079.35C59.5184 2079.54 59.1436 2079.64 58.762 2079.64C58.3803 2079.64 58.0053 2079.54 57.6747 2079.35L21.564 2058.49C21.4386 2058.42 21.3333 2058.32 21.2591 2058.2C21.1849 2058.08 21.1446 2057.94 21.1425 2057.8C21.1405 2057.66 21.1766 2057.52 21.2472 2057.4C21.3178 2057.27 21.4202 2057.17 21.5436 2057.1Z" fill="#ADB1F2"/>
    <path opacity="0.11" d="M21.5649 2058.43L21.9242 2058.64L122.697 2000.41C123.027 2000.21 123.402 2000.11 123.784 2000.11C124.166 2000.11 124.541 2000.21 124.871 2000.41L160.561 2021.11L160.929 2020.9C161.047 2020.83 161.144 2020.73 161.212 2020.62C161.28 2020.5 161.316 2020.36 161.316 2020.23C161.316 2020.09 161.28 2019.96 161.211 2019.84C161.143 2019.72 161.046 2019.62 160.928 2019.56L124.869 1998.65C124.538 1998.46 124.163 1998.36 123.782 1998.36C123.4 1998.35 123.026 1998.46 122.695 1998.65L21.5635 2057.08C21.446 2057.15 21.3486 2057.24 21.281 2057.36C21.2134 2057.48 21.178 2057.62 21.1781 2057.75C21.1783 2057.89 21.214 2058.02 21.2818 2058.14C21.3497 2058.26 21.4472 2058.36 21.5649 2058.43Z" fill="#9198DB"/>
    <path opacity="0.11" d="M151.471 2018.13L63.3646 2069.06L66.8546 2071.09L154.971 2020.16L151.471 2018.13Z" fill="#070F4B"/>
    <path opacity="0.11" d="M142.19 2012.75L58.4469 2061.15L61.9369 2063.18L145.69 2014.77L142.19 2012.75Z" fill="#070F4B"/>
    <path opacity="0.11" d="M52.1839 2064.86L44.362 2069.38L47.8521 2071.4L55.674 2066.88L52.1839 2064.86Z" fill="#070F4B"/>
    <path opacity="0.11" d="M59.0925 2071.61L53.6512 2074.76L57.1413 2076.77L62.592 2073.63L59.0925 2071.61Z" fill="#070F4B"/>
    <path opacity="0.11" d="M136.37 2009.38L38.5515 2065.92L42.051 2067.94L139.869 2011.41L136.37 2009.38Z" fill="#070F4B"/>
    <path opacity="0.11" d="M130.559 2006.02L32.7312 2062.55L36.2307 2064.58L134.049 2008.04L130.559 2006.02Z" fill="#070F4B"/>
    <path opacity="0.11" d="M124.739 2002.64L26.9203 2059.18L30.4103 2061.2L128.229 2004.67L124.739 2002.64Z" fill="#070F4B"/>
  </g>
  <path d="M53.5492 2003.15L51.2043 2004.66L50.9275 2002.91L53.263 2001.42L53.5492 2003.15Z" fill="#2EFFEC"/>
  <path d="M55.4738 2014.93L53.1255 2016.44L51.4542 2006.24L53.7931 2004.75L55.4738 2014.93Z" fill="#2EFFEC"/>
  <path d="M56.3881 2020.57L54.0416 2022.07L53.3828 2018.02L55.7199 2016.53L56.3881 2020.57Z" fill="#2EFFEC"/>
  <path d="M57.3334 2026.41L54.9963 2027.91L54.3282 2023.87L56.6747 2022.36L57.3334 2026.41Z" fill="#2EFFEC"/>
  <path d="M57.9545 2006.55L55.6174 2008.06L54.9492 2004.01L57.2863 2002.51L57.9545 2006.55Z" fill="#2EFFEC"/>
  <path d="M59.2108 2014.29L56.8737 2015.79L55.8906 2009.85L58.2372 2008.35L59.2108 2014.29Z" fill="#2EFFEC"/>
  <path d="M60.3738 2021.41L58.0277 2022.91L57.1974 2017.81L59.534 2016.31L60.3738 2021.41Z" fill="#2EFFEC"/>
  <path d="M58.2826 2032.25L55.9361 2033.75L55.2774 2029.7L57.6144 2028.2L58.2826 2032.25Z" fill="#2EFFEC"/>
  <path d="M57.0375 2000.92L54.6926 2002.42L54.4063 2000.68L56.7513 1999.19L57.0375 2000.92Z" fill="#2EFFEC"/>
  <path d="M60.9476 2036.8L56.864 2039.41L56.5874 2037.72L60.6709 2035.11L60.9476 2036.8Z" fill="#2EFFEC"/>
  <path d="M205.215 2167.07L300.259 2112.19C300.608 2112.02 300.901 2111.75 301.107 2111.41C301.313 2111.08 301.424 2110.7 301.429 2110.3C301.397 2109.85 301.244 2109.41 300.986 2109.03C300.728 2108.65 300.374 2108.35 299.961 2108.15L280.215 2096.75C279.448 2096.32 278.589 2096.08 277.711 2096.05C276.832 2096.02 275.96 2096.2 275.167 2096.58L180.075 2151.44C179.726 2151.62 179.431 2151.89 179.223 2152.23C179.016 2152.56 178.902 2152.94 178.896 2153.34C178.932 2153.79 179.088 2154.23 179.347 2154.61C179.607 2154.99 179.961 2155.29 180.374 2155.49L200.166 2166.89C201.035 2167.37 202.013 2167.62 203.003 2167.61C203.775 2167.62 204.536 2167.43 205.215 2167.07ZM279.272 2098.36L299.027 2109.81C299.481 2110.07 299.576 2110.3 299.576 2110.35C299.576 2110.4 299.519 2110.47 299.33 2110.58L204.286 2165.46C203.776 2165.67 203.223 2165.77 202.67 2165.74C202.116 2165.71 201.577 2165.55 201.091 2165.29L181.307 2153.84C180.863 2153.57 180.768 2153.35 180.768 2153.3C180.768 2153.25 180.824 2153.18 181.013 2153.06L276.057 2098.19C276.463 2097.98 276.915 2097.88 277.371 2097.9C278.034 2097.89 278.688 2098.05 279.272 2098.36Z" fill="#0E2187" stroke="white"/>
  <path d="M261.589 2064.86C258.967 2066.43 256.616 2068.42 254.628 2070.74C251.693 2061.33 242.772 2058.42 232.236 2064.5C223.505 2069.53 215.953 2079.49 211.919 2089.96C210.364 2090.05 208.857 2090.53 207.533 2091.35C201.864 2094.63 197.24 2102.63 197.249 2109.21C197.249 2109.36 197.25 2109.48 197.25 2109.62C195.367 2109.8 193.551 2110.41 191.938 2111.4C184.662 2115.6 178.774 2125.83 178.786 2134.25C178.797 2142.67 184.702 2146.09 191.978 2141.84L261.619 2101.62C270.426 2096.59 277.531 2084.29 277.517 2074.08C277.503 2063.87 270.377 2059.79 261.589 2064.86Z" fill="url(#paint12_linear)"/>
  <path d="M261.584 2064.86C260.092 2065.74 258.693 2066.77 257.408 2067.93L249.599 2063.41C245.311 2060.38 239.107 2060.51 232.218 2064.49C223.495 2069.54 215.943 2079.49 211.909 2089.96C210.354 2090.05 208.846 2090.53 207.522 2091.35C201.852 2094.63 197.229 2102.64 197.238 2109.22C197.238 2109.36 197.238 2109.49 197.238 2109.63C195.355 2109.81 193.539 2110.42 191.925 2111.4C184.649 2115.61 178.761 2125.84 178.772 2134.26C178.778 2138.44 180.238 2141.38 182.566 2142.79L182.633 2142.79L201.742 2153.91L205.886 2133.83L261.595 2101.68C270.422 2096.6 277.527 2084.29 277.513 2074.08C277.499 2063.87 270.373 2059.79 261.584 2064.86Z" fill="url(#paint13_radial)"/>
  <path d="M292.272 2075.08L272.91 2063.81C270.014 2062.09 266.005 2062.3 261.563 2064.86C260.072 2065.74 258.673 2066.77 257.388 2067.93L249.58 2063.41C245.293 2060.38 239.09 2060.51 232.201 2064.49C223.489 2069.54 215.937 2079.49 211.904 2089.96C210.349 2090.05 208.842 2090.53 207.518 2091.35C201.849 2094.63 197.226 2102.63 197.235 2109.22C197.235 2109.36 197.235 2109.48 197.235 2109.62C195.353 2109.81 193.537 2110.41 191.923 2111.4C184.647 2115.6 178.76 2125.83 178.771 2134.25C178.777 2138.43 180.237 2141.37 182.565 2142.78L182.632 2142.78L201.739 2153.9L205.882 2133.82L261.584 2101.68C268.746 2097.54 274.758 2088.66 276.78 2080.03L292.272 2075.08Z" fill="url(#paint14_linear)"/>
  <path d="M280.714 2076.01C278.09 2077.58 275.739 2079.56 273.753 2081.89C270.818 2072.49 261.897 2069.56 251.361 2075.65C242.648 2080.68 235.059 2090.6 231.044 2101.1C229.49 2101.2 227.984 2101.68 226.658 2102.49C220.989 2105.78 216.366 2113.78 216.374 2120.36C216.374 2120.5 216.375 2120.63 216.375 2120.78C214.494 2120.95 212.68 2121.55 211.072 2122.54C203.787 2126.75 197.852 2136.98 197.863 2145.4C197.875 2153.82 203.78 2157.24 211.113 2152.99L280.763 2112.81C289.551 2107.75 296.655 2095.4 296.642 2085.23C296.628 2075.06 289.502 2070.94 280.714 2076.01Z" fill="url(#paint15_linear)"/>
  <path d="M274.412 2082.18C276.396 2079.85 278.746 2077.87 281.371 2076.3C285.659 2073.83 289.554 2073.55 292.42 2075.09C289.515 2073.13 285.356 2073.25 280.728 2075.92C278.254 2077.39 276.024 2079.23 274.118 2081.38C274.232 2081.65 274.326 2081.9 274.412 2082.18Z" fill="url(#paint16_linear)"/>
  <path d="M198.578 2145.78C198.567 2137.36 204.456 2127.11 211.735 2122.92C213.346 2121.93 215.159 2121.32 217.039 2121.14C217.039 2121 217.039 2120.87 217.039 2120.73C217.03 2114.15 221.636 2106.14 227.326 2102.86C228.654 2102.04 230.165 2101.56 231.723 2101.47C235.729 2090.96 243.322 2081.04 252.046 2076C258.417 2072.32 264.197 2071.94 268.428 2074.29C264.149 2071.52 258.104 2071.74 251.403 2075.62C242.687 2080.65 235.095 2090.57 231.079 2101.08C229.524 2101.18 228.018 2101.65 226.692 2102.47C221.02 2105.76 216.396 2113.76 216.404 2120.34C216.405 2120.49 216.405 2120.62 216.405 2120.76C214.521 2120.93 212.704 2121.54 211.091 2122.53C203.813 2126.73 197.923 2136.97 197.935 2145.39C197.94 2149.72 199.505 2152.72 202.014 2154.05C199.883 2152.6 198.584 2149.75 198.578 2145.78Z" fill="#BCBEFF"/>
  <path d="M144.71 2189.56L143.016 2188.41L190.619 2159.74L191.576 2161.34L144.71 2189.56Z" fill="#0E2187" stroke="white"/>
  <path d="M74.617 2188.57C74.8248 2188.57 75.0259 2188.5 75.1891 2188.37C75.3523 2188.24 75.4685 2188.06 75.5199 2187.86C75.5713 2187.66 75.555 2187.45 75.4734 2187.25C75.3918 2187.06 75.2496 2186.9 75.0686 2186.8L34.4654 2164.71L93.1998 2130.52C93.4055 2130.39 94.631 2129.46 94.6887 2129.22C94.7465 2128.99 94.1101 2129.13 93.9878 2128.92C93.8654 2128.71 93.314 2128.5 93.0796 2128.43C92.8452 2128.36 92.4678 2128.77 92.2518 2128.88L32.0621 2163.92C31.9182 2164 31.7996 2164.13 31.7184 2164.27C31.6371 2164.42 31.5962 2164.58 31.5997 2164.75C31.6029 2164.92 31.6501 2165.08 31.7367 2165.23C31.8232 2165.37 31.9461 2165.49 32.0926 2165.57L74.1723 2188.46C74.3091 2188.53 74.4618 2188.57 74.617 2188.57Z" fill="#0E2187" stroke="url(#paint17_linear)"/>
  <path d="M165.343 1954.65L121.19 1980.19C119.138 1981.37 117.477 1984.56 117.481 1987.3L117.537 2029.5C117.54 2032.25 119.207 2033.51 121.259 2032.35L173.411 2002.18L165.343 1954.65Z" fill="#101357"/>
  <path d="M206.331 1930.61L204.172 1929.06C203.778 1928.8 203.313 1928.66 202.841 1928.68C202.369 1928.69 201.912 1928.84 201.533 1929.13L126.424 1972.51C124.372 1973.69 122.702 1976.88 122.706 1979.62L122.762 2021.82C122.706 2022.37 122.786 2022.92 122.994 2023.44C123.203 2023.95 123.534 2024.41 123.958 2024.76L126.193 2026.37L126.313 2024.73L126.502 2024.64L201.602 1981.26C203.663 1980.07 205.323 1976.88 205.32 1974.14L205.264 1931.94C205.262 1931.57 205.223 1931.2 205.149 1930.83L206.331 1930.61Z" fill="url(#paint18_linear)"/>
  <path d="M122.945 1977.99L142.814 1989.47L147.802 1986.64L125.283 1973.53C124.12 1974.78 123.312 1976.32 122.945 1977.99Z" fill="url(#paint19_linear)"/>
  <path d="M203.848 1982.86L128.73 2026.27C126.679 2027.46 125.012 2026.19 125.009 2023.43L124.952 1981.23C124.949 1978.49 126.609 1975.3 128.661 1974.11L203.779 1930.73C205.83 1929.55 207.497 1930.81 207.5 1933.57L207.557 1975.75C207.541 1978.49 205.9 1981.68 203.848 1982.86Z" fill="#8E7ADB"/>
  <path d="M125.418 2023.65L125.362 1981.44C125.359 1978.7 127.019 1975.51 129.07 1974.33L204.19 1930.95C204.508 1930.74 204.867 1930.61 205.242 1930.57C205.616 1930.52 205.997 1930.56 206.356 1930.67C205.964 1930.44 205.511 1930.32 205.053 1930.34C204.596 1930.35 204.154 1930.51 203.783 1930.78L128.663 1974.16C126.612 1975.35 124.952 1978.53 124.955 1981.28L125.011 2023.43C125.014 2025.09 125.63 2026.21 126.567 2026.57C126.158 2026.21 125.841 2025.75 125.642 2025.24C125.442 2024.74 125.365 2024.19 125.418 2023.65Z" fill="url(#paint20_linear)"/>
  <path d="M196.852 1956.24L135.579 1991.59C135.107 1991.87 134.7 1992.02 134.425 1991.59C134.425 1991.53 134.425 1991.42 134.425 1991.34L134.413 1982.06C134.412 1981.69 134.497 1981.33 134.661 1981C134.825 1980.67 135.063 1980.39 135.356 1980.17L197.092 1944.52C197.139 1944.52 197.186 1944.44 197.234 1944.45C197.697 1944.53 197.717 1944.95 197.717 1945.61L197.881 1954.54C197.859 1954.89 197.755 1955.22 197.576 1955.52C197.396 1955.81 197.148 1956.06 196.852 1956.24Z" fill="#5031B0"/>
  <path d="M196.981 1976.56L135.566 2011.95C135.093 2012.23 134.479 2012.51 134.393 2011.95C134.384 2011.87 134.384 2011.78 134.393 2011.7L134.381 2002.4C134.379 2002.03 134.463 2001.67 134.627 2001.34C134.791 2001.01 135.029 2000.73 135.324 2000.51L197.088 1964.86L197.23 1964.79C197.712 1964.61 197.836 1965.22 197.837 1965.88L197.848 1974.7C197.858 1975.06 197.785 1975.41 197.635 1975.74C197.484 1976.06 197.26 1976.34 196.981 1976.56Z" fill="#5031B0"/>
  <path d="M197.273 1944.45C197.278 1944.54 197.278 1944.62 197.273 1944.71L197.286 1954.02C197.286 1954.39 197.201 1954.75 197.038 1955.08C196.874 1955.41 196.636 1955.7 196.343 1955.92L134.588 1991.59L134.446 1991.65C134.532 1992.19 134.929 1992.41 135.392 1992.14L197.109 1956.46C197.404 1956.24 197.644 1955.95 197.807 1955.62C197.971 1955.29 198.055 1954.93 198.052 1954.56L198.04 1945.27C198.105 1944.6 197.746 1944.27 197.273 1944.45Z" fill="url(#paint21_linear)"/>
  <path d="M197.273 1964.79C197.279 1964.87 197.279 1964.96 197.273 1965.04L197.286 1974.36C197.286 1974.73 197.201 1975.09 197.038 1975.42C196.874 1975.75 196.636 1976.03 196.343 1976.25L134.588 2011.92C134.544 2011.95 134.496 2011.97 134.446 2011.98C134.532 2012.53 134.929 2012.75 135.392 2012.47L197.109 1976.79C197.403 1976.57 197.642 1976.29 197.805 1975.96C197.969 1975.63 198.054 1975.27 198.052 1974.9L198.04 1965.59C198.105 1964.94 197.746 1964.61 197.273 1964.79Z" fill="url(#paint22_linear)"/>
  <path d="M152.057 1977.79L152.816 1979.23L154.252 1977.42L153.153 1976.29L154.787 1974.62L154.256 1973.24L152.782 1975.06L152.978 1972.9L151.163 1973.94L151.355 1975.83L149.878 1975.74L149.332 1977.73L150.95 1977.52L149.865 1979.96L151.275 1980.11L152.057 1977.79Z" fill="url(#paint23_linear)"/>
  <path d="M159.153 1973.68L159.912 1975.12L161.348 1973.31L160.258 1972.18L161.893 1970.52L161.361 1969.13L159.888 1970.94L160.084 1968.78L158.278 1969.82L158.469 1971.72L156.993 1971.62L156.447 1973.62L158.055 1973.4L156.98 1975.81L158.371 1976L159.153 1973.68Z" fill="url(#paint24_linear)"/>
  <path d="M166.243 1969.57L167.002 1971.01L168.438 1969.2L167.348 1968.07L168.983 1966.4L168.442 1965.02L166.968 1966.83L167.164 1964.67L165.358 1965.71L165.55 1967.6L164.027 1967.56L163.48 1969.55L165.089 1969.35L164.032 1971.73L165.452 1971.89L166.243 1969.57Z" fill="url(#paint25_linear)"/>
  <path d="M173.34 1965.45L174.099 1966.89L175.535 1965.08L174.426 1963.95L176.061 1962.28L175.52 1960.9L174.046 1962.72L174.242 1960.55L172.436 1961.6L172.628 1963.49L171.152 1963.41L170.606 1965.39L172.223 1965.19L171.139 1967.58L172.558 1967.74L173.34 1965.45Z" fill="url(#paint26_linear)"/>
  <path d="M180.448 1961.34L181.207 1962.77L182.643 1960.98L181.543 1959.84L183.178 1958.17L182.646 1956.8L181.173 1958.61L181.369 1956.45L179.553 1957.49L179.745 1959.38L178.269 1959.28L177.723 1961.27L179.341 1961.07L178.265 1963.47L179.675 1963.62L180.448 1961.34Z" fill="url(#paint27_linear)"/>
  <path d="M152.053 1998.14L152.812 1999.57L154.248 1997.76L153.149 1996.63L154.784 1994.97L154.252 1993.58L152.778 1995.4L152.974 1993.23L151.159 1994.28L151.351 1996.17L149.875 1996.09L149.328 1998.08L150.946 1997.91L149.861 2000.3L151.271 2000.46L152.053 1998.14Z" fill="url(#paint28_linear)"/>
  <path d="M159.153 1994.02L159.912 1995.47L161.348 1993.66L160.258 1992.53L161.893 1990.85L161.361 1989.48L159.878 1991.28L160.074 1989.12L158.268 1990.16L158.46 1992.05L156.984 1991.96L156.438 1993.95L158.046 1993.74L156.971 1996.14L158.381 1996.3L159.153 1994.02Z" fill="url(#paint29_linear)"/>
  <path d="M166.247 1989.92L167.006 1991.35L168.442 1989.54L167.352 1988.43L168.987 1986.76L168.446 1985.38L166.972 1987.19L167.168 1985.03L165.362 1986.07L165.554 1987.96L164.078 1987.88L163.532 1989.87L165.14 1989.66L164.036 1992.07L165.455 1992.23L166.247 1989.92Z" fill="url(#paint30_linear)"/>
  <path d="M173.34 1985.8L174.099 1987.23L175.535 1985.42L174.426 1984.3L176.061 1982.63L175.52 1981.25L174.046 1983.06L174.242 1980.89L172.436 1981.94L172.628 1983.84L171.152 1983.75L170.606 1985.74L172.242 1985.58L171.158 1987.98L172.577 1988.13L173.34 1985.8Z" fill="url(#paint31_linear)"/>
  <path d="M180.444 1981.68L181.203 1983.12L182.639 1981.31L181.54 1980.18L183.174 1978.51L182.643 1977.13L181.169 1978.95L181.365 1976.78L179.55 1977.83L179.741 1979.72L178.265 1979.63L177.719 1981.61L179.337 1981.41L178.261 1983.81L179.671 1983.97L180.444 1981.68Z" fill="url(#paint32_linear)"/>
  <g style="mix-blend-mode:lighten" opacity="0.1">
    <path d="M151.851 2147.05L161.227 2152.48L170.589 2147.07L161.213 2141.65L151.851 2147.05Z" fill="#4846A5"/>
  </g>
  <g style="mix-blend-mode:lighten" opacity="0.1">
    <path d="M193.453 2003.01L202.829 2008.43L212.191 2003.03L202.815 1997.6L193.453 2003.01Z" fill="#4846A5"/>
  </g>
  <g style="mix-blend-mode:lighten" opacity="0.1">
    <path d="M308.886 2059.67L318.262 2065.09L327.624 2059.69L318.248 2054.26L308.886 2059.67Z" fill="#4846A5"/>
  </g>
  <path d="M275.303 2038.87C275.601 2038.87 275.895 2038.79 276.153 2038.64L315.604 2015.86C315.865 2015.71 316.082 2015.5 316.232 2015.24C316.383 2014.98 316.462 2014.68 316.462 2014.38C316.459 2014.08 316.378 2013.78 316.226 2013.52C316.075 2013.26 315.859 2013.04 315.6 2012.89L276.099 1990.03C275.836 1989.88 275.539 1989.8 275.238 1989.8C274.936 1989.8 274.64 1989.88 274.378 1990.03L234.937 2012.81C234.676 2012.96 234.459 2013.17 234.308 2013.44C234.158 2013.7 234.079 2013.99 234.079 2014.29C234.08 2014.6 234.159 2014.89 234.311 2015.15C234.462 2015.41 234.679 2015.63 234.941 2015.78L274.442 2038.64C274.704 2038.79 275.001 2038.87 275.303 2038.87ZM314.41 2014.3L275.3 2036.88L236.13 2014.22L275.24 1991.64L314.41 2014.3Z" fill="#0E2187" stroke="#DFF8F9"/>
  <path d="M239.805 2006.95L239.61 1999.78L275.69 2018.51L310.703 1998.02L310.898 2005.19L275.91 2026.59L239.805 2006.95Z" fill="url(#paint33_linear)"/>
  <path d="M275.736 2019.39L310.731 1997.97L274.617 1978.31L239.622 1999.73L275.736 2019.39Z" fill="url(#paint34_linear)"/>
  <path opacity="0.5" d="M275.283 2018.83L310.302 1998.63L310.813 1998.92L275.284 2019.42L239.704 1998.85L240.214 1998.56L275.283 2018.83Z" fill="url(#paint35_linear)"/>
  <path d="M275.291 2011.56L297.255 1998.87L275.258 1986.15L253.284 1998.83L275.291 2011.56Z" fill="#0F054C"/>
  <path d="M275.286 2011.56L297.259 1998.87L275.252 1986.15L253.279 1998.83L275.286 2011.56Z" fill="url(#paint36_linear)"/>
  <path d="M253.202 1998.15L253.133 1946.35L297.37 1945.94L297.438 1997.84C297.451 1998.11 297.388 1998.37 297.256 1998.61C297.125 1998.84 296.929 1999.03 296.692 1999.16L278.382 2009.78C277.558 2010.23 275.958 2011.45 275.336 2011.75C274.403 2011.14 273.133 2010.23 272.307 2009.77L253.969 1999.55C253.719 1999.41 253.514 1999.2 253.379 1998.96C253.243 1998.71 253.182 1998.43 253.202 1998.15Z" fill="url(#paint37_linear)"/>
  <path opacity="0.4" d="M71.3383 2209.45L70.7875 2198.78L72.6918 2197.6C73.4168 2200.89 77.4674 2202.9 80.7794 2203.18L103.856 2215.09L113.824 2218.1L144.204 2200.43L143.471 2200.05C146.063 2198.67 147.356 2195.76 148.66 2193.08L150.827 2194.22L152.095 2194.52L152.654 2205.36C152.615 2206.19 152.361 2206.99 151.916 2207.68C151.471 2208.38 150.85 2208.95 150.117 2209.33L119.774 2228.95C117.77 2230.1 115.523 2230.76 113.216 2230.88C110.908 2231 108.605 2230.57 106.494 2229.64L74.2925 2213.25C73.5315 2212.96 72.8606 2212.47 72.3448 2211.83C71.8289 2211.2 71.4856 2210.45 71.348 2209.64L71.3383 2209.45Z" fill="#2EFFEC"/>
  <path d="M70.8389 2199.8L70.4686 2192.63L72.372 2191.42C73.1005 2194.79 77.1521 2196.81 80.4646 2197.1L103.552 2209.22L113.523 2212.29L143.89 2194.35L143.157 2193.97C145.747 2192.57 147.037 2189.62 148.34 2186.9L150.508 2188.05L151.776 2188.36L152.155 2195.71C152.117 2196.55 151.863 2197.36 151.418 2198.07C150.974 2198.78 150.354 2199.35 149.621 2199.74L119.293 2219.65C117.29 2220.81 115.043 2221.48 112.736 2221.6C110.428 2221.72 108.125 2221.28 106.012 2220.33L73.7964 2203.66C73.0351 2203.36 72.3638 2202.86 71.8474 2202.22C71.331 2201.58 70.987 2200.81 70.8488 2199.99L70.8389 2199.8Z" fill="url(#paint38_linear)"/>
  <path opacity="0.3" d="M80.4581 2197.05L103.543 2209.2L112.224 2211.87L112.726 2221.6C110.417 2221.77 108.102 2221.34 106.004 2220.34L73.792 2203.62C73.0308 2203.32 72.3596 2202.82 71.8432 2202.18C71.3268 2201.53 70.9828 2200.76 70.8445 2199.95L70.8345 2199.75L70.4634 2192.56L72.1974 2191.46L72.387 2191.45C73.1758 2194.76 77.1778 2196.75 80.4581 2197.05Z" fill="#0F054C"/>
  <path d="M118.905 2212.26L149.239 2192.5C152.783 2190.21 152.605 2186.77 148.844 2184.84L116.642 2168.42C114.529 2167.49 112.227 2167.06 109.921 2167.18C107.615 2167.3 105.369 2167.96 103.363 2169.1L73.0241 2188.78C69.4648 2191.07 69.6426 2194.51 73.4196 2196.44L105.625 2212.94C107.739 2213.87 110.041 2214.3 112.347 2214.18C114.653 2214.06 116.899 2213.4 118.905 2212.26ZM108.011 2171.63C108.654 2171.27 109.373 2171.06 110.111 2171.02C110.85 2170.98 111.587 2171.12 112.264 2171.41L144.465 2187.84C144.723 2187.92 144.95 2188.07 145.116 2188.29C145.282 2188.5 145.379 2188.76 145.392 2189.03C145.406 2189.3 145.337 2189.56 145.194 2189.79C145.051 2190.02 144.841 2190.2 144.592 2190.3L114.253 2209.96C113.61 2210.33 112.891 2210.54 112.153 2210.58C111.415 2210.61 110.678 2210.48 110.001 2210.18L77.7988 2193.76C77.5409 2193.68 77.3137 2193.52 77.1478 2193.31C76.9819 2193.1 76.8855 2192.84 76.8716 2192.57C76.8577 2192.3 76.927 2192.03 77.0701 2191.81C77.2133 2191.58 77.4232 2191.4 77.6716 2191.29L108.011 2171.63Z" fill="url(#paint39_linear)"/>
  <path d="M73.4397 2196.69L105.665 2213.36C107.78 2214.3 110.083 2214.72 112.39 2214.61C114.697 2214.49 116.943 2213.82 118.95 2212.67L149.287 2192.75C149.95 2192.39 150.522 2191.89 150.96 2191.27C151.398 2190.65 151.691 2189.95 151.815 2189.2C151.906 2190.11 151.716 2191.02 151.271 2191.82C150.827 2192.61 150.15 2193.25 149.333 2193.64L118.991 2213.47C116.987 2214.63 114.74 2215.29 112.432 2215.41C110.123 2215.53 107.819 2215.1 105.707 2214.16L73.485 2197.56C71.3839 2196.49 70.401 2194.96 70.5426 2193.4C70.7451 2194.13 71.1115 2194.81 71.6136 2195.38C72.1157 2195.95 72.7404 2196.4 73.4397 2196.69Z" fill="url(#paint40_linear)"/>
  <path d="M118.07 2211.86L148.355 2192.1C151.423 2190.09 151.272 2187.17 148.011 2185.42L115.852 2168.89C114.018 2168.07 112.018 2167.7 110.015 2167.8C108.012 2167.91 106.061 2168.48 104.321 2169.48L73.9092 2189.25C70.841 2191.26 70.9919 2194.19 74.2537 2195.93L106.476 2212.46C108.319 2213.29 110.33 2213.67 112.345 2213.56C114.36 2213.46 116.322 2212.87 118.07 2211.86ZM107.159 2170.99C108.067 2170.47 109.087 2170.16 110.134 2170.11C111.182 2170.06 112.227 2170.25 113.185 2170.68L145.341 2187.15C145.712 2187.26 146.041 2187.48 146.282 2187.78C146.523 2188.08 146.663 2188.45 146.683 2188.84C146.703 2189.22 146.602 2189.61 146.393 2189.93C146.185 2190.26 145.879 2190.51 145.521 2190.65L115.172 2210.42C114.264 2210.95 113.244 2211.25 112.197 2211.3C111.149 2211.36 110.104 2211.16 109.146 2210.73L76.9238 2194.2C76.5527 2194.09 76.2234 2193.87 75.9825 2193.57C75.7415 2193.27 75.6012 2192.9 75.5812 2192.51C75.5613 2192.13 75.6628 2191.74 75.8713 2191.42C76.0798 2191.09 76.3849 2190.84 76.7433 2190.7L107.159 2170.99Z" fill="url(#paint41_linear)"/>
  <path d="M76.0313 2192.62L71.6209 2107.17L140.603 2103.6L145.023 2189.23C145.065 2189.67 144.987 2190.11 144.798 2190.5C144.608 2190.9 144.315 2191.23 143.949 2191.47L115.86 2209.75C114.592 2210.57 113.133 2211.04 111.628 2211.12C110.123 2211.2 108.623 2210.88 107.277 2210.19L77.3635 2194.86C76.9555 2194.65 76.6142 2194.33 76.3786 2193.93C76.143 2193.53 76.0227 2193.08 76.0313 2192.62Z" fill="url(#paint42_linear)"/>
  <path d="M254.229 2026.25L251.941 2028.09L252.071 2028.95L255.307 2027.22L254.229 2026.25Z" fill="#0E2187"/>
  <path d="M297.021 2028.31L294.903 2027.06L293.579 2027.82L297.098 2029.67L297.021 2028.31Z" fill="#0E2187"/>
  <path d="M103.795 2180.76C103.725 2180.72 103.678 2180.65 103.673 2180.57L103.59 2179.2C103.585 2179.12 103.622 2179.04 103.687 2179L104.484 2178.48C104.498 2178.64 104.594 2178.78 104.728 2178.85L104.037 2179.31L104.105 2180.42L105.091 2180.92L106.009 2180.32L105.941 2179.21L105.199 2178.83C105.323 2178.74 105.404 2178.59 105.396 2178.43L106.251 2178.87C106.321 2178.91 106.368 2178.98 106.372 2179.06L106.456 2180.43C106.461 2180.51 106.424 2180.58 106.359 2180.63L105.228 2181.37C105.163 2181.41 105.077 2181.42 105.007 2181.38L103.795 2180.76Z" fill="#EAF9FF"/>
  <path d="M96.5208 2171.16L96.6826 2173.8C96.6146 2173.77 96.5383 2173.75 96.458 2173.76C96.3776 2173.76 96.3041 2173.79 96.2407 2173.83L96.0789 2171.18L96.071 2171.05C96.0661 2170.97 96.1036 2170.9 96.1687 2170.85L96.2743 2170.78L98.6865 2169.19L98.7921 2169.12C98.8572 2169.08 98.943 2169.07 99.0131 2169.11L99.1266 2169.17L101.729 2170.51L101.704 2170.52L101.634 2170.57C101.569 2170.61 101.531 2170.69 101.536 2170.77L101.544 2170.89L101.545 2170.91L98.9311 2169.57C98.9312 2169.57 96.5208 2171.16 96.5208 2171.16Z" fill="#EAF9FF"/>
  <path d="M96.2288 2174.62L94.2139 2175.95L94.2885 2177.17C94.2934 2177.25 94.2559 2177.32 94.1908 2177.37L93.0583 2178.11C92.9932 2178.16 92.9074 2178.16 92.8373 2178.12L91.621 2177.5C91.5509 2177.46 91.5044 2177.39 91.4996 2177.31L91.4157 2175.94C91.4108 2175.86 91.4483 2175.78 91.5134 2175.74L92.6459 2174.99C92.711 2174.95 92.7968 2174.95 92.8669 2174.98L93.9886 2175.56L95.984 2174.25C95.996 2174.41 96.0924 2174.55 96.2288 2174.62ZM92.7832 2175.44L91.8638 2176.05L91.9318 2177.16L92.9192 2177.67L93.8386 2177.06L93.7836 2176.16C93.7225 2176.15 93.6674 2176.12 93.631 2176.06C93.5906 2176 93.5879 2175.93 93.6116 2175.87L92.7832 2175.44Z" fill="#EAF9FF"/>
  <path d="M99.2375 2179.21L97.0519 2180.65L96.9462 2180.72C96.8439 2180.79 96.7065 2180.76 96.6396 2180.65C96.5727 2180.55 96.6009 2180.41 96.7014 2180.34L96.9605 2180.17L98.9946 2178.83C99.0046 2179 99.1011 2179.14 99.2375 2179.21Z" fill="#EAF9FF"/>
  <path d="M99.4473 2178.35C99.3761 2178.35 99.3115 2178.37 99.253 2178.41C99.2459 2178.41 99.2371 2178.42 99.2301 2178.42L99.0683 2175.78L96.724 2174.57C96.8488 2174.48 96.9295 2174.34 96.9213 2174.17L97.9706 2174.71L99.2656 2175.38L101.677 2173.79C101.677 2173.76 101.684 2173.73 101.696 2173.71L101.701 2173.79L101.704 2173.85L101.709 2173.92C101.711 2173.96 101.729 2174.01 101.756 2174.04C101.76 2174.05 101.764 2174.05 101.768 2174.06C101.786 2174.08 101.805 2174.09 101.83 2174.1L101.89 2174.14L101.932 2174.16L101.943 2174.17L99.5339 2175.75L99.6964 2178.41C99.6888 2178.41 99.6794 2178.4 99.6719 2178.4C99.6039 2178.37 99.5276 2178.35 99.4473 2178.35Z" fill="#EAF9FF"/>
  <path d="M102.167 2173.76L103.465 2174.43L102.167 2173.76Z" fill="#EAF9FF"/>
  <path d="M104.557 2175.47L104.668 2175.53C104.7 2175.55 104.735 2175.55 104.769 2175.55C104.778 2175.55 104.786 2175.55 104.797 2175.55C104.822 2175.55 104.847 2175.54 104.869 2175.53C104.875 2175.52 104.882 2175.52 104.887 2175.52L104.992 2175.45L105.148 2178.04C105.082 2178.01 105.007 2177.99 104.928 2177.99C104.849 2178 104.777 2178.02 104.715 2178.06L104.559 2175.47L104.557 2175.47Z" fill="#EAF9FF"/>
  <path d="M95.6975 2191.88L95.5253 2189.05L94.4374 2188.48C94.3681 2188.44 94.3221 2188.37 94.3173 2188.29L94.2345 2186.93C94.2297 2186.85 94.2667 2186.78 94.331 2186.73L95.3439 2186.06L95.1725 2183.24L95.162 2183.06C95.1548 2182.95 95.2411 2182.85 95.3562 2182.83C95.3598 2182.83 95.3633 2182.83 95.3669 2182.83C95.3705 2182.83 95.3742 2182.83 95.3778 2182.83C95.4938 2182.83 95.5915 2182.92 95.5988 2183.04L95.6093 2183.21L95.7807 2186.04L96.8686 2186.6C96.9379 2186.64 96.9839 2186.71 96.9887 2186.79L97.0715 2188.15C97.0763 2188.23 97.0393 2188.31 96.975 2188.35L95.9621 2189.02L96.1343 2191.86L96.0203 2191.8C95.951 2191.76 95.8662 2191.77 95.8019 2191.81L95.6975 2191.88ZM96.6287 2188.05L96.5615 2186.94L95.595 2186.44C95.5806 2186.44 94.6791 2187.04 94.6791 2187.04L94.7463 2188.14L95.722 2188.65L96.6287 2188.05Z" fill="#EAF9FF"/>
  <path d="M104.193 2168.7L104.038 2166.17L102.944 2165.6C102.874 2165.57 102.828 2165.5 102.823 2165.42L102.74 2164.05C102.735 2163.97 102.772 2163.9 102.837 2163.85L103.962 2163.11C104.027 2163.07 104.112 2163.06 104.182 2163.1L105.391 2163.72C105.46 2163.76 105.506 2163.83 105.511 2163.91L105.595 2165.27C105.599 2165.35 105.562 2165.43 105.497 2165.47L104.479 2166.15L104.636 2168.72C104.56 2168.67 104.473 2168.65 104.381 2168.65C104.312 2168.65 104.249 2168.67 104.193 2168.7ZM105.148 2165.17L105.08 2164.06L104.099 2163.56L103.185 2164.16L103.253 2165.27L104.225 2165.77C104.243 2165.77 105.148 2165.17 105.148 2165.17Z" fill="#EAF9FF"/>
  <path d="M99.0221 2169.14C98.9522 2169.11 98.8665 2169.11 98.8016 2169.16L98.6962 2169.23L98.5179 2166.31L95.9336 2164.98L93.5276 2166.57L93.7059 2169.48L96.2901 2170.81L96.1847 2170.88C96.1197 2170.92 96.0823 2171 96.0872 2171.08L96.0951 2171.21L93.3957 2169.82C93.3258 2169.78 93.2794 2169.71 93.2745 2169.63L93.0805 2166.46C93.0756 2166.38 93.113 2166.3 93.178 2166.26L95.7967 2164.53C95.8617 2164.49 95.9473 2164.49 96.0173 2164.52L98.8299 2165.97C98.8998 2166.01 98.9463 2166.08 98.9511 2166.16L99.1373 2169.2L99.0221 2169.14Z" fill="#EAF9FF"/>
  <path d="M96.5245 2171.17L98.9379 2169.58C98.938 2169.58 96.5245 2171.17 96.5245 2171.17Z" fill="#EAF9FF"/>
  <path d="M93.8615 2166.63L95.8475 2165.32C95.9498 2165.25 96.0872 2165.28 96.154 2165.38C96.1763 2165.42 96.1878 2165.46 96.1901 2165.49C96.1948 2165.57 96.1592 2165.65 96.0923 2165.69L94.1063 2167C94.004 2167.07 93.8666 2167.04 93.7998 2166.94C93.7311 2166.83 93.7593 2166.69 93.8615 2166.63Z" fill="#EAF9FF"/>
  <path d="M96.0693 2170.41C96.0024 2170.3 96.0288 2170.16 96.131 2170.1L98.117 2168.79C98.2193 2168.72 98.3566 2168.75 98.4235 2168.85C98.4458 2168.89 98.4573 2168.92 98.4595 2168.96C98.4643 2169.04 98.4287 2169.12 98.3599 2169.16L96.3739 2170.47C96.2736 2170.54 96.1361 2170.51 96.0693 2170.41Z" fill="#EAF9FF"/>
  <path d="M94.0448 2182.15L95.3948 2182.85C95.2786 2182.86 95.1913 2182.96 95.1987 2183.08L95.2093 2183.25L93.7328 2182.49C93.6629 2182.46 93.6164 2182.38 93.6116 2182.3L93.5019 2180.51C93.497 2180.43 93.5344 2180.35 93.5994 2180.31L95.0796 2179.34C95.1445 2179.29 95.2302 2179.29 95.3002 2179.32L96.8899 2180.14C96.9088 2180.15 96.9241 2180.16 96.9396 2180.18L96.6812 2180.35C96.5792 2180.41 96.5511 2180.55 96.6196 2180.66C96.6863 2180.76 96.8234 2180.79 96.9254 2180.72L97.0308 2180.65L97.1208 2182.12C97.1256 2182.2 97.0882 2182.28 97.0232 2182.32L95.6485 2183.23L95.6379 2183.05C95.6306 2182.93 95.5318 2182.84 95.4147 2182.84L96.6716 2182.01L96.5777 2180.48L95.2164 2179.78L93.9489 2180.61L94.0429 2182.15L94.0448 2182.15Z" fill="#EAF9FF"/>
  <path d="M106.92 2173.13C106.942 2173.16 106.953 2173.2 106.956 2173.24C106.96 2173.32 106.925 2173.4 106.858 2173.44L104.872 2174.75C104.77 2174.82 104.632 2174.79 104.565 2174.68C104.499 2174.58 104.525 2174.44 104.627 2174.37L106.613 2173.06C106.713 2173 106.851 2173.03 106.92 2173.13Z" fill="#EAF9FF"/>
  <path d="M102.62 2173.7C102.5 2173.71 102.398 2173.62 102.391 2173.49L102.247 2171.1C102.24 2170.98 102.33 2170.87 102.45 2170.87C102.569 2170.86 102.671 2170.96 102.679 2171.08L102.823 2173.47C102.83 2173.59 102.74 2173.7 102.62 2173.7Z" fill="#EAF9FF"/>
  <path d="M104.578 2175.48L101.995 2174.15L101.983 2174.15L101.942 2174.13L101.881 2174.09C101.857 2174.08 101.837 2174.06 101.82 2174.04C101.816 2174.04 101.812 2174.04 101.808 2174.03C101.796 2174.01 101.786 2174 101.777 2173.98C101.771 2173.96 101.77 2173.95 101.765 2173.93C101.763 2173.93 101.761 2173.92 101.761 2173.91C101.758 2173.91 101.754 2173.84 101.754 2173.84L101.75 2173.78L101.745 2173.7L101.573 2170.88L101.572 2170.86L101.564 2170.74C101.56 2170.66 101.597 2170.58 101.662 2170.54L101.732 2170.49L101.757 2170.47L103.922 2169.05C103.934 2168.89 104.026 2168.75 104.16 2168.68C104.217 2168.65 104.28 2168.63 104.347 2168.63C104.44 2168.62 104.528 2168.64 104.603 2168.69C104.704 2168.75 104.781 2168.85 104.814 2168.96L107.311 2170.25C107.381 2170.28 107.429 2170.36 107.434 2170.44L107.628 2173.61C107.633 2173.69 107.595 2173.76 107.528 2173.81L105.016 2175.46L104.909 2175.53C104.903 2175.54 104.896 2175.53 104.891 2175.54C104.868 2175.55 104.843 2175.56 104.817 2175.56C104.808 2175.56 104.799 2175.57 104.788 2175.57C104.753 2175.57 104.718 2175.56 104.686 2175.54L104.578 2175.48ZM107.183 2173.5L107.004 2170.59L104.713 2169.41C104.636 2169.49 104.53 2169.54 104.408 2169.55C104.298 2169.56 104.196 2169.52 104.113 2169.46L102.015 2170.84L102.193 2173.76L103.486 2174.42L104.779 2175.09L107.183 2173.5Z" fill="#EAF9FF"/>
  <path d="M95.9178 2194.03L95.1 2193.61C95.03 2193.57 94.9836 2193.5 94.9787 2193.42L94.9224 2192.5C94.9175 2192.42 94.9549 2192.34 95.0199 2192.3L95.6759 2191.86L95.7814 2191.79C95.8464 2191.75 95.9321 2191.75 96.0021 2191.78L96.1173 2191.84L96.8217 2192.2C96.8917 2192.24 96.94 2192.31 96.9448 2192.39L97.0012 2193.31C97.006 2193.39 96.9686 2193.47 96.9018 2193.51L96.1403 2194.01C96.0715 2194.06 95.9877 2194.06 95.9178 2194.03ZM96.5483 2193.21L96.5077 2192.54L95.926 2192.24C95.9114 2192.24 95.3698 2192.6 95.3698 2192.6L95.4103 2193.27L95.9996 2193.57L96.5483 2193.21Z" fill="#EAF9FF"/>
  <path d="M99.0069 2178.83C98.9957 2178.65 99.0814 2178.49 99.2172 2178.41C99.2243 2178.4 99.2312 2178.4 99.2401 2178.39C99.2986 2178.36 99.3633 2178.34 99.4345 2178.34C99.5148 2178.33 99.591 2178.35 99.6589 2178.38C99.6665 2178.39 99.6758 2178.39 99.6834 2178.39C99.8162 2178.47 99.9108 2178.61 99.9209 2178.77C99.9366 2179.03 99.7448 2179.25 99.4911 2179.26C99.4053 2179.27 99.3234 2179.24 99.2514 2179.2C99.1169 2179.13 99.0206 2178.99 99.0069 2178.83Z" fill="#EAF9FF"/>
  <path d="M96.9248 2174.19C96.9318 2174.36 96.851 2174.51 96.7263 2174.6C96.6595 2174.64 96.5808 2174.67 96.495 2174.68C96.4092 2174.68 96.3273 2174.66 96.2553 2174.62C96.1209 2174.55 96.0228 2174.41 96.0109 2174.25C95.9979 2174.06 96.0854 2173.91 96.2211 2173.82C96.2846 2173.78 96.3581 2173.75 96.4384 2173.75C96.5187 2173.75 96.5949 2173.76 96.6628 2173.8C96.8082 2173.87 96.9141 2174.01 96.9248 2174.19Z" fill="#EAF9FF"/>
  <path d="M104.495 2178.48C104.484 2178.3 104.57 2178.14 104.705 2178.06C104.769 2178.02 104.842 2177.99 104.923 2177.99C105.003 2177.98 105.079 2178 105.147 2178.03C105.293 2178.11 105.398 2178.25 105.409 2178.43C105.416 2178.6 105.335 2178.75 105.211 2178.83C105.144 2178.88 105.065 2178.91 104.979 2178.91C104.894 2178.92 104.812 2178.89 104.74 2178.86C104.605 2178.78 104.509 2178.64 104.495 2178.48Z" fill="#EAF9FF"/>
  <path d="M118.115 2166.87C118.232 2166.93 118.309 2167.04 118.317 2167.17L118.453 2169.39C118.461 2169.52 118.398 2169.64 118.289 2169.71L116.95 2170.56C116.928 2170.3 116.767 2170.07 116.542 2169.96L117.703 2169.22L117.593 2167.42L115.941 2166.6L114.399 2167.58L114.509 2169.38L115.753 2170C115.543 2170.14 115.407 2170.37 115.421 2170.64L113.987 2169.93C113.87 2169.87 113.792 2169.75 113.784 2169.63L113.649 2167.41C113.641 2167.28 113.704 2167.16 113.813 2167.09L115.712 2165.88C115.822 2165.81 115.965 2165.8 116.083 2165.86L118.115 2166.87Z" fill="#EAF9FF"/>
  <path d="M130.28 2182.38L130.018 2178.1C130.132 2178.16 130.259 2178.18 130.394 2178.18C130.529 2178.17 130.652 2178.13 130.759 2178.06L131.021 2182.35L131.034 2182.56C131.042 2182.68 130.978 2182.81 130.869 2182.88L130.692 2182.99L126.64 2185.57L126.463 2185.69C126.353 2185.76 126.209 2185.77 126.092 2185.71L125.902 2185.61L121.542 2183.45L121.583 2183.43L121.702 2183.35C121.811 2183.28 121.874 2183.16 121.866 2183.03L121.854 2182.83L121.852 2182.8L126.231 2184.97C126.231 2184.96 130.28 2182.38 130.28 2182.38Z" fill="#EAF9FF"/>
  <path d="M130.777 2176.77L134.161 2174.62L134.04 2172.65C134.032 2172.52 134.096 2172.39 134.205 2172.32L136.107 2171.11C136.216 2171.04 136.36 2171.03 136.478 2171.09L138.516 2172.1C138.633 2172.16 138.711 2172.28 138.719 2172.41L138.854 2174.63C138.862 2174.75 138.799 2174.88 138.69 2174.95L136.788 2176.16C136.678 2176.23 136.534 2176.24 136.417 2176.18L134.538 2175.25L131.186 2177.38C131.167 2177.11 131.005 2176.89 130.777 2176.77ZM136.559 2175.44L138.103 2174.45L137.993 2172.65L136.339 2171.83L134.795 2172.82L134.884 2174.27C134.986 2174.29 135.078 2174.34 135.139 2174.43C135.207 2174.53 135.211 2174.65 135.171 2174.75L136.559 2175.44Z" fill="#EAF9FF"/>
  <path d="M125.75 2169.36L129.42 2167.02L129.598 2166.9C129.77 2166.8 130 2166.84 130.112 2167.01C130.223 2167.18 130.176 2167.4 130.007 2167.51L129.572 2167.79L126.156 2169.96C126.14 2169.7 125.978 2169.48 125.75 2169.36Z" fill="#EAF9FF"/>
  <path d="M125.395 2170.75C125.514 2170.74 125.622 2170.71 125.721 2170.66C125.733 2170.65 125.747 2170.64 125.759 2170.64L126.021 2174.92L129.949 2176.86C129.739 2177 129.603 2177.24 129.617 2177.51L127.858 2176.63L125.689 2175.56L121.639 2178.14C121.638 2178.19 121.626 2178.23 121.607 2178.27L121.599 2178.14L121.593 2178.04L121.586 2177.93C121.581 2177.86 121.553 2177.79 121.506 2177.73C121.499 2177.72 121.493 2177.72 121.486 2177.71C121.457 2177.68 121.424 2177.65 121.383 2177.63L121.282 2177.58L121.212 2177.54L121.193 2177.53L125.24 2174.95L124.977 2170.65C124.99 2170.66 125.005 2170.66 125.018 2170.67C125.132 2170.72 125.26 2170.76 125.395 2170.75Z" fill="#EAF9FF"/>
  <path d="M120.822 2178.19L118.648 2177.11L120.822 2178.19Z" fill="#EAF9FF"/>
  <path d="M116.818 2175.43L116.632 2175.33C116.579 2175.31 116.521 2175.3 116.464 2175.3C116.449 2175.3 116.434 2175.3 116.416 2175.3C116.374 2175.31 116.333 2175.32 116.295 2175.34C116.286 2175.35 116.274 2175.35 116.265 2175.35L116.089 2175.47L115.836 2171.27C115.948 2171.33 116.073 2171.36 116.205 2171.35C116.337 2171.34 116.458 2171.3 116.562 2171.23L116.815 2175.43L116.818 2175.43Z" fill="#EAF9FF"/>
  <path d="M131.724 2148.83L132.003 2153.42L133.827 2154.33C133.943 2154.39 134.02 2154.51 134.028 2154.63L134.162 2156.84C134.17 2156.97 134.107 2157.09 133.999 2157.16L132.297 2158.25L132.575 2162.82L132.592 2163.1C132.603 2163.3 132.458 2163.46 132.265 2163.48C132.259 2163.48 132.253 2163.48 132.247 2163.48C132.241 2163.48 132.235 2163.48 132.229 2163.48C132.034 2163.48 131.87 2163.33 131.859 2163.14L131.842 2162.86L131.564 2158.29L129.74 2157.38C129.624 2157.32 129.548 2157.21 129.54 2157.08L129.406 2154.87C129.398 2154.74 129.46 2154.62 129.568 2154.55L131.27 2153.46L130.991 2148.87L131.182 2148.96C131.299 2149.02 131.441 2149.02 131.549 2148.95L131.724 2148.83ZM130.148 2155.04L130.257 2156.83L131.877 2157.64C131.901 2157.64 133.416 2156.67 133.416 2156.67L133.307 2154.88L131.672 2154.07L130.148 2155.04Z" fill="#EAF9FF"/>
  <path d="M117.401 2186.38L117.652 2190.48L119.485 2191.39C119.601 2191.45 119.679 2191.57 119.687 2191.7L119.821 2193.91C119.829 2194.04 119.767 2194.16 119.658 2194.23L117.768 2195.44C117.659 2195.51 117.516 2195.51 117.399 2195.45L115.374 2194.45C115.257 2194.39 115.18 2194.27 115.172 2194.15L115.037 2191.94C115.029 2191.81 115.092 2191.68 115.201 2191.61L116.912 2190.52L116.658 2186.36C116.784 2186.43 116.93 2186.47 117.086 2186.46C117.201 2186.46 117.306 2186.43 117.401 2186.38ZM115.787 2192.1L115.896 2193.9L117.54 2194.71L119.075 2193.73L118.965 2191.94L117.337 2191.13C117.307 2191.14 115.787 2192.1 115.787 2192.1Z" fill="#EAF9FF"/>
  <path d="M126.083 2185.65C126.2 2185.71 126.343 2185.7 126.453 2185.63L126.63 2185.52L126.918 2190.24L131.249 2192.38L135.291 2189.81L135.002 2185.09L130.672 2182.94L130.849 2182.83C130.958 2182.76 131.021 2182.64 131.013 2182.51L131 2182.3L135.524 2184.54C135.641 2184.6 135.718 2184.71 135.726 2184.84L136.04 2189.98C136.048 2190.11 135.985 2190.23 135.876 2190.3L131.477 2193.1C131.368 2193.17 131.224 2193.18 131.107 2193.12L126.394 2190.79C126.277 2190.73 126.199 2190.61 126.191 2190.48L125.89 2185.56L126.083 2185.65Z" fill="#EAF9FF"/>
  <path d="M130.277 2182.36L126.223 2184.95C126.223 2184.95 130.277 2182.36 130.277 2182.36Z" fill="#EAF9FF"/>
  <path d="M134.731 2189.71L131.395 2191.84C131.223 2191.95 130.993 2191.9 130.881 2191.73C130.844 2191.68 130.825 2191.61 130.821 2191.55C130.813 2191.43 130.873 2191.3 130.986 2191.23L134.322 2189.1C134.494 2189 134.724 2189.04 134.836 2189.21C134.951 2189.38 134.903 2189.6 134.731 2189.71Z" fill="#EAF9FF"/>
  <path d="M131.043 2183.6C131.155 2183.77 131.11 2183.99 130.938 2184.1L127.602 2186.23C127.43 2186.34 127.2 2186.29 127.088 2186.12C127.051 2186.07 127.032 2186 127.028 2185.94C127.02 2185.82 127.08 2185.69 127.196 2185.62L130.532 2183.49C130.701 2183.38 130.931 2183.43 131.043 2183.6Z" fill="#EAF9FF"/>
  <path d="M134.476 2164.58L132.214 2163.46C132.409 2163.44 132.556 2163.27 132.544 2163.08L132.527 2162.8L135.001 2164.02C135.118 2164.08 135.195 2164.2 135.203 2164.33L135.381 2167.23C135.389 2167.36 135.326 2167.48 135.217 2167.56L132.73 2169.14C132.621 2169.21 132.478 2169.22 132.36 2169.16L129.697 2167.84C129.665 2167.82 129.639 2167.81 129.614 2167.78L130.048 2167.51C130.219 2167.4 130.267 2167.17 130.152 2167.01C130.04 2166.84 129.811 2166.79 129.639 2166.9L129.462 2167.02L129.317 2164.63C129.309 2164.5 129.372 2164.38 129.481 2164.31L131.79 2162.84L131.807 2163.12C131.819 2163.32 131.984 2163.46 132.181 2163.46L130.07 2164.81L130.222 2167.29L132.503 2168.42L134.632 2167.07L134.479 2164.58L134.476 2164.58Z" fill="#EAF9FF"/>
  <path d="M112.862 2179.22C112.824 2179.17 112.805 2179.11 112.801 2179.05C112.794 2178.92 112.854 2178.79 112.966 2178.72L116.302 2176.6C116.474 2176.49 116.704 2176.53 116.816 2176.7C116.928 2176.87 116.883 2177.1 116.711 2177.2L113.375 2179.33C113.207 2179.44 112.976 2179.39 112.862 2179.22Z" fill="#EAF9FF"/>
  <path d="M120.07 2178.28C120.27 2178.27 120.442 2178.42 120.454 2178.62L120.686 2182.49C120.698 2182.69 120.546 2182.86 120.346 2182.87C120.145 2182.88 119.974 2182.73 119.962 2182.53L119.729 2178.66C119.717 2178.46 119.869 2178.29 120.07 2178.28Z" fill="#EAF9FF"/>
  <path d="M116.782 2175.41L121.111 2177.55L121.131 2177.56L121.2 2177.6L121.301 2177.65C121.343 2177.67 121.375 2177.7 121.404 2177.73C121.411 2177.74 121.418 2177.74 121.424 2177.75C121.444 2177.78 121.461 2177.81 121.476 2177.84C121.486 2177.86 121.487 2177.88 121.495 2177.91C121.499 2177.92 121.502 2177.93 121.503 2177.94C121.507 2177.95 121.514 2178.06 121.514 2178.06L121.52 2178.16L121.528 2178.29L121.807 2182.85L121.809 2182.88L121.821 2183.08C121.829 2183.21 121.766 2183.34 121.657 2183.41L121.539 2183.48L121.497 2183.51L117.861 2185.83C117.84 2186.08 117.685 2186.31 117.459 2186.42C117.364 2186.47 117.258 2186.5 117.145 2186.51C116.989 2186.52 116.843 2186.48 116.716 2186.41C116.547 2186.31 116.418 2186.15 116.363 2185.97L112.179 2183.89C112.062 2183.83 111.981 2183.72 111.973 2183.59L111.659 2178.45C111.652 2178.32 111.715 2178.2 111.827 2178.13L116.048 2175.44L116.228 2175.33C116.237 2175.32 116.249 2175.32 116.258 2175.32C116.297 2175.3 116.339 2175.28 116.381 2175.28C116.397 2175.28 116.412 2175.27 116.43 2175.27C116.488 2175.27 116.547 2175.28 116.601 2175.31L116.782 2175.41ZM112.406 2178.62L112.694 2183.34L116.534 2185.24C116.664 2185.11 116.842 2185.02 117.047 2185.01C117.231 2185 117.403 2185.06 117.541 2185.16L121.065 2182.91L120.777 2178.19L118.61 2177.12L116.444 2176.05L112.406 2178.62Z" fill="#EAF9FF"/>
  <path d="M131.375 2145.36L132.745 2146.04C132.862 2146.1 132.94 2146.21 132.948 2146.34L133.039 2147.84C133.047 2147.96 132.984 2148.09 132.875 2148.16L131.773 2148.86L131.596 2148.97C131.487 2149.04 131.343 2149.05 131.226 2148.99L131.033 2148.9L129.853 2148.31C129.736 2148.25 129.655 2148.14 129.647 2148.01L129.556 2146.52C129.548 2146.39 129.611 2146.26 129.723 2146.19L131.002 2145.38C131.117 2145.31 131.258 2145.3 131.375 2145.36ZM130.315 2146.69L130.381 2147.76L131.355 2148.24C131.38 2148.24 132.289 2147.66 132.289 2147.66L132.223 2146.59L131.236 2146.1L130.315 2146.69Z" fill="#EAF9FF"/>
  <path d="M126.145 2169.98C126.163 2170.27 126.019 2170.52 125.791 2170.66C125.779 2170.67 125.767 2170.68 125.753 2170.68C125.654 2170.74 125.546 2170.77 125.426 2170.78C125.292 2170.78 125.164 2170.75 125.05 2170.7C125.038 2170.69 125.022 2170.69 125.009 2170.68C124.787 2170.56 124.629 2170.33 124.612 2170.07C124.587 2169.65 124.909 2169.3 125.335 2169.28C125.479 2169.27 125.616 2169.3 125.736 2169.37C125.962 2169.49 126.123 2169.71 126.145 2169.98Z" fill="#EAF9FF"/>
  <path d="M129.624 2177.48C129.613 2177.2 129.749 2176.96 129.958 2176.82C130.071 2176.75 130.203 2176.7 130.347 2176.69C130.49 2176.68 130.628 2176.72 130.748 2176.78C130.973 2176.9 131.137 2177.12 131.157 2177.38C131.178 2177.68 131.031 2177.93 130.803 2178.07C130.696 2178.14 130.573 2178.18 130.438 2178.19C130.304 2178.2 130.176 2178.17 130.062 2178.11C129.818 2178 129.641 2177.76 129.624 2177.48Z" fill="#EAF9FF"/>
  <path d="M116.938 2170.56C116.956 2170.85 116.812 2171.11 116.584 2171.24C116.477 2171.31 116.354 2171.35 116.219 2171.36C116.085 2171.36 115.957 2171.33 115.843 2171.28C115.6 2171.16 115.423 2170.93 115.405 2170.65C115.394 2170.37 115.53 2170.13 115.74 2169.99C115.852 2169.91 115.984 2169.87 116.128 2169.86C116.272 2169.85 116.409 2169.89 116.529 2169.95C116.755 2170.07 116.916 2170.29 116.938 2170.56Z" fill="#EAF9FF"/>
  <path d="M277.485 1955.93C277.357 1955.87 277.272 1955.74 277.263 1955.59L277.11 1953.09C277.101 1952.94 277.17 1952.8 277.289 1952.72L278.745 1951.77C278.77 1952.07 278.946 1952.32 279.192 1952.45L277.928 1953.28L278.052 1955.31L279.855 1956.24L281.534 1955.14L281.409 1953.11L280.052 1952.41C280.28 1952.25 280.427 1951.98 280.412 1951.68L281.977 1952.48C282.105 1952.55 282.19 1952.68 282.198 1952.83L282.352 1955.33C282.36 1955.48 282.292 1955.61 282.173 1955.69L280.106 1957.06C279.987 1957.14 279.83 1957.14 279.702 1957.08L277.485 1955.93Z" fill="#EAF9FF"/>
  <path d="M264.191 1938.38L264.487 1943.22C264.362 1943.16 264.223 1943.13 264.076 1943.13C263.929 1943.14 263.795 1943.19 263.679 1943.26L263.383 1938.43L263.368 1938.19C263.36 1938.04 263.428 1937.9 263.547 1937.82L263.74 1937.7L268.15 1934.79L268.343 1934.66C268.462 1934.58 268.619 1934.57 268.747 1934.64L268.955 1934.75L273.712 1937.2L273.667 1937.23L273.538 1937.31C273.419 1937.39 273.351 1937.53 273.36 1937.67L273.374 1937.9L273.376 1937.93L268.597 1935.48C268.598 1935.48 264.191 1938.38 264.191 1938.38Z" fill="#EAF9FF"/>
  <path d="M263.653 1944.72L259.969 1947.15L260.106 1949.38C260.115 1949.52 260.046 1949.66 259.927 1949.74L257.857 1951.1C257.738 1951.18 257.581 1951.19 257.453 1951.12L255.229 1949.98C255.101 1949.91 255.016 1949.78 255.007 1949.64L254.854 1947.13C254.845 1946.98 254.913 1946.85 255.032 1946.76L257.103 1945.4C257.222 1945.32 257.379 1945.31 257.507 1945.38L259.557 1946.43L263.205 1944.03C263.227 1944.34 263.404 1944.59 263.653 1944.72ZM257.354 1946.22L255.673 1947.32L255.797 1949.36L257.602 1950.29L259.283 1949.18L259.183 1947.54C259.071 1947.52 258.97 1947.46 258.904 1947.36C258.83 1947.24 258.825 1947.11 258.868 1947L257.354 1946.22Z" fill="#EAF9FF"/>
  <path d="M269.15 1953.1L265.155 1955.74L264.962 1955.87C264.775 1955.99 264.523 1955.94 264.401 1955.74C264.279 1955.55 264.33 1955.3 264.514 1955.18L264.988 1954.87L268.706 1952.42C268.724 1952.72 268.901 1952.97 269.15 1953.1Z" fill="#EAF9FF"/>
  <path d="M269.539 1951.54C269.408 1951.54 269.29 1951.58 269.183 1951.64C269.17 1951.65 269.154 1951.66 269.141 1951.66L268.846 1946.83L264.56 1944.62C264.788 1944.47 264.936 1944.2 264.921 1943.9L266.839 1944.89L269.206 1946.1L273.615 1943.2C273.615 1943.15 273.628 1943.09 273.649 1943.05L273.658 1943.2L273.665 1943.31L273.673 1943.43C273.678 1943.52 273.709 1943.59 273.76 1943.66C273.767 1943.67 273.775 1943.68 273.782 1943.69C273.814 1943.72 273.85 1943.75 273.894 1943.77L274.005 1943.83L274.081 1943.87L274.102 1943.89L269.697 1946.79L269.994 1951.65C269.98 1951.64 269.963 1951.63 269.949 1951.63C269.825 1951.56 269.685 1951.53 269.539 1951.54Z" fill="#EAF9FF"/>
  <path d="M274.507 1943.14L276.879 1944.36L274.507 1943.14Z" fill="#EAF9FF"/>
  <path d="M278.881 1946.27L279.085 1946.38C279.142 1946.41 279.205 1946.42 279.267 1946.42C279.284 1946.42 279.3 1946.41 279.32 1946.41C279.365 1946.41 279.41 1946.39 279.451 1946.37C279.461 1946.37 279.474 1946.37 279.483 1946.36L279.676 1946.23L279.961 1950.97C279.839 1950.91 279.703 1950.87 279.559 1950.88C279.415 1950.89 279.283 1950.94 279.17 1951.01L278.885 1946.27L278.881 1946.27Z" fill="#EAF9FF"/>
  <path d="M262.688 1976.28L262.373 1971.09L260.384 1970.06C260.258 1969.99 260.173 1969.86 260.165 1969.72L260.013 1967.22C260.004 1967.08 260.072 1966.94 260.19 1966.86L262.042 1965.63L261.728 1960.47L261.709 1960.16C261.696 1959.94 261.854 1959.76 262.064 1959.73C262.071 1959.73 262.077 1959.73 262.084 1959.73C262.09 1959.73 262.097 1959.73 262.104 1959.73C262.316 1959.73 262.494 1959.9 262.508 1960.12L262.527 1960.43L262.84 1965.59L264.83 1966.62C264.956 1966.69 265.04 1966.82 265.049 1966.96L265.201 1969.46C265.209 1969.6 265.142 1969.74 265.024 1969.82L263.172 1971.05L263.487 1976.23L263.278 1976.13C263.152 1976.06 262.997 1976.07 262.879 1976.15L262.688 1976.28ZM264.391 1969.26L264.268 1967.24L262.501 1966.32C262.474 1966.33 260.826 1967.42 260.826 1967.42L260.949 1969.44L262.733 1970.37L264.391 1969.26Z" fill="#EAF9FF"/>
  <path d="M278.22 1933.9L277.937 1929.26L275.937 1928.23C275.81 1928.16 275.725 1928.03 275.717 1927.89L275.564 1925.39C275.556 1925.25 275.624 1925.11 275.742 1925.03L277.799 1923.67C277.917 1923.59 278.073 1923.58 278.201 1923.65L280.41 1924.79C280.537 1924.86 280.622 1924.99 280.631 1925.13L280.783 1927.63C280.792 1927.77 280.724 1927.91 280.606 1927.99L278.744 1929.22L279.03 1933.92C278.892 1933.84 278.733 1933.79 278.564 1933.8C278.438 1933.81 278.323 1933.84 278.22 1933.9ZM279.966 1927.44L279.842 1925.41L278.049 1924.49L276.379 1925.59L276.502 1927.61L278.279 1928.53C278.312 1928.53 279.966 1927.44 279.966 1927.44Z" fill="#EAF9FF"/>
  <path d="M268.755 1934.71C268.627 1934.64 268.471 1934.65 268.352 1934.73L268.159 1934.86L267.833 1929.53L263.108 1927.09L258.709 1929.99L259.035 1935.32L263.76 1937.75L263.567 1937.88C263.448 1937.96 263.38 1938.1 263.389 1938.24L263.403 1938.48L258.468 1935.94C258.34 1935.88 258.255 1935.74 258.246 1935.6L257.891 1929.8C257.882 1929.65 257.951 1929.51 258.07 1929.43L262.858 1926.28C262.977 1926.2 263.133 1926.19 263.261 1926.26L268.404 1928.9C268.532 1928.97 268.617 1929.1 268.625 1929.25L268.966 1934.81L268.755 1934.71Z" fill="#EAF9FF"/>
  <path d="M264.185 1938.41L268.598 1935.5C268.598 1935.5 264.185 1938.41 264.185 1938.41Z" fill="#EAF9FF"/>
  <path d="M259.321 1930.11L262.952 1927.71C263.139 1927.59 263.391 1927.64 263.513 1927.83C263.553 1927.89 263.575 1927.96 263.579 1928.03C263.587 1928.17 263.522 1928.32 263.4 1928.4L259.769 1930.79C259.582 1930.91 259.33 1930.86 259.208 1930.67C259.083 1930.48 259.134 1930.23 259.321 1930.11Z" fill="#EAF9FF"/>
  <path d="M263.349 1937.01C263.227 1936.82 263.275 1936.57 263.462 1936.45L267.093 1934.05C267.28 1933.93 267.531 1933.98 267.653 1934.17C267.694 1934.24 267.715 1934.31 267.719 1934.37C267.728 1934.52 267.663 1934.66 267.537 1934.74L263.906 1937.13C263.722 1937.26 263.471 1937.2 263.349 1937.01Z" fill="#EAF9FF"/>
  <path d="M259.656 1958.49L262.124 1959.76C261.912 1959.78 261.752 1959.97 261.766 1960.18L261.785 1960.5L259.086 1959.11C258.958 1959.05 258.873 1958.92 258.864 1958.77L258.664 1955.49C258.655 1955.34 258.723 1955.21 258.842 1955.13L261.548 1953.34C261.667 1953.26 261.823 1953.25 261.951 1953.32L264.858 1954.82C264.892 1954.84 264.92 1954.85 264.948 1954.88L264.476 1955.19C264.29 1955.31 264.238 1955.57 264.363 1955.76C264.485 1955.95 264.736 1956 264.922 1955.88L265.115 1955.75L265.28 1958.44C265.289 1958.58 265.22 1958.72 265.101 1958.8L262.588 1960.46L262.569 1960.14C262.555 1959.92 262.375 1959.76 262.161 1959.75L264.459 1958.24L264.287 1955.43L261.798 1954.15L259.481 1955.68L259.653 1958.49L259.656 1958.49Z" fill="#EAF9FF"/>
  <path d="M283.181 1942C283.221 1942.06 283.243 1942.13 283.247 1942.2C283.255 1942.34 283.19 1942.48 283.068 1942.56L279.437 1944.96C279.25 1945.08 278.998 1945.03 278.876 1944.83C278.754 1944.64 278.802 1944.39 278.989 1944.27L282.62 1941.87C282.804 1941.75 283.055 1941.8 283.181 1942Z" fill="#EAF9FF"/>
  <path d="M275.328 1943.05C275.109 1943.06 274.922 1942.89 274.909 1942.66L274.646 1938.29C274.632 1938.06 274.798 1937.87 275.016 1937.86C275.235 1937.85 275.422 1938.02 275.435 1938.25L275.698 1942.62C275.712 1942.84 275.546 1943.04 275.328 1943.05Z" fill="#EAF9FF"/>
  <path d="M278.918 1946.3L274.193 1943.87L274.173 1943.85L274.097 1943.81L273.986 1943.76C273.941 1943.73 273.906 1943.7 273.874 1943.67C273.866 1943.66 273.859 1943.65 273.852 1943.64C273.83 1943.61 273.811 1943.58 273.796 1943.54C273.784 1943.52 273.783 1943.49 273.774 1943.47C273.77 1943.45 273.766 1943.44 273.766 1943.43C273.761 1943.42 273.754 1943.29 273.754 1943.29L273.747 1943.18L273.738 1943.03L273.423 1937.88L273.421 1937.84L273.407 1937.62C273.398 1937.47 273.466 1937.33 273.585 1937.25L273.714 1937.17L273.759 1937.14L277.717 1934.53C277.739 1934.24 277.907 1933.99 278.153 1933.86C278.257 1933.8 278.372 1933.77 278.495 1933.76C278.665 1933.75 278.825 1933.79 278.963 1933.87C279.147 1933.98 279.288 1934.16 279.348 1934.38L283.914 1936.73C284.042 1936.79 284.13 1936.92 284.139 1937.07L284.493 1942.87C284.502 1943.01 284.434 1943.15 284.312 1943.23L279.717 1946.26L279.521 1946.39C279.512 1946.39 279.498 1946.39 279.489 1946.4C279.446 1946.42 279.401 1946.44 279.354 1946.44C279.338 1946.44 279.321 1946.45 279.301 1946.45C279.238 1946.45 279.173 1946.44 279.115 1946.41L278.918 1946.3ZM283.679 1942.67L283.353 1937.35L279.164 1935.19C279.023 1935.34 278.828 1935.44 278.605 1935.45C278.405 1935.46 278.218 1935.4 278.067 1935.28L274.231 1937.81L274.557 1943.14L276.92 1944.36L279.284 1945.57L283.679 1942.67Z" fill="#EAF9FF"/>
  <path d="M263.08 1980.2L261.586 1979.43C261.458 1979.36 261.373 1979.23 261.364 1979.09L261.261 1977.4C261.252 1977.26 261.32 1977.12 261.439 1977.04L262.638 1976.25L262.831 1976.12C262.95 1976.04 263.106 1976.03 263.234 1976.1L263.445 1976.21L264.732 1976.87C264.86 1976.94 264.948 1977.07 264.957 1977.21L265.06 1978.9C265.069 1979.04 265.001 1979.18 264.879 1979.26L263.487 1980.18C263.361 1980.26 263.208 1980.27 263.08 1980.2ZM264.233 1978.7L264.158 1977.49L263.095 1976.94C263.068 1976.94 262.078 1977.6 262.078 1977.6L262.153 1978.81L263.23 1979.36L264.233 1978.7Z" fill="#EAF9FF"/>
  <path d="M268.719 1952.41C268.698 1952.08 268.855 1951.8 269.103 1951.64C269.116 1951.63 269.129 1951.62 269.145 1951.61C269.252 1951.55 269.37 1951.52 269.5 1951.51C269.647 1951.5 269.786 1951.54 269.911 1951.6C269.924 1951.61 269.942 1951.61 269.956 1951.62C270.198 1951.76 270.371 1952.01 270.39 1952.32C270.418 1952.78 270.068 1953.18 269.604 1953.2C269.447 1953.21 269.297 1953.17 269.166 1953.1C268.92 1952.97 268.744 1952.71 268.719 1952.41Z" fill="#EAF9FF"/>
  <path d="M264.913 1943.93C264.926 1944.25 264.778 1944.52 264.55 1944.67C264.428 1944.76 264.284 1944.81 264.127 1944.82C263.97 1944.83 263.821 1944.79 263.689 1944.72C263.443 1944.59 263.264 1944.33 263.242 1944.03C263.219 1943.7 263.379 1943.42 263.627 1943.26C263.743 1943.18 263.877 1943.14 264.024 1943.13C264.171 1943.12 264.31 1943.15 264.434 1943.22C264.7 1943.35 264.893 1943.61 264.913 1943.93Z" fill="#EAF9FF"/>
  <path d="M278.762 1951.78C278.741 1951.44 278.898 1951.16 279.146 1951C279.262 1950.93 279.397 1950.88 279.543 1950.87C279.69 1950.87 279.829 1950.9 279.954 1950.96C280.219 1951.09 280.413 1951.36 280.433 1951.68C280.445 1952 280.298 1952.26 280.07 1952.42C279.948 1952.5 279.804 1952.56 279.647 1952.57C279.49 1952.58 279.34 1952.54 279.209 1952.46C278.963 1952.33 278.787 1952.08 278.762 1951.78Z" fill="#EAF9FF"/>
  <path d="M284.747 1977L284.414 1972.48L284.525 1972.53C284.615 1972.58 284.724 1972.58 284.808 1972.52L284.977 1972.41L285.315 1977.02L288.822 1978.82L292.705 1976.22L292.714 1976.36C292.72 1976.47 292.779 1976.56 292.87 1976.61L293.035 1976.69L289.118 1979.31L289.355 1983.19L293.528 1985.3L295.063 1984.29C295.147 1984.24 295.256 1984.23 295.347 1984.28L297.128 1985.19C297.218 1985.24 297.278 1985.33 297.284 1985.43L297.407 1987.44C297.413 1987.54 297.365 1987.64 297.281 1987.7L295.623 1988.79C295.539 1988.84 295.429 1988.85 295.339 1988.8L293.558 1987.89C293.467 1987.84 293.408 1987.75 293.402 1987.65L293.29 1985.82L289.184 1983.74L285.912 1985.9L286.126 1989.39L285.897 1989.28C285.807 1989.23 285.698 1989.24 285.614 1989.29L285.553 1989.33L285.351 1986.04L281.723 1984.17L279.279 1985.75L279.345 1986.82C279.351 1986.92 279.303 1987.02 279.219 1987.07L278.143 1987.78L278.219 1989.02L279.048 1989.44C279.138 1989.49 279.198 1989.58 279.204 1989.68L279.271 1990.79C279.278 1990.89 279.23 1990.99 279.146 1991.04L278.236 1991.64C278.152 1991.7 278.042 1991.7 277.952 1991.65L276.975 1991.15C276.884 1991.11 276.825 1991.01 276.819 1990.91L276.751 1989.81C276.745 1989.71 276.793 1989.61 276.877 1989.55L277.649 1989.04L277.573 1987.81L276.623 1987.32L275.313 1988.21L275.374 1989.22C275.381 1989.32 275.333 1989.42 275.249 1989.47L274.341 1990.07C274.257 1990.13 274.148 1990.13 274.057 1990.09L273.08 1989.58C272.99 1989.54 272.931 1989.45 272.924 1989.34L272.857 1988.24C272.851 1988.14 272.898 1988.04 272.982 1987.99L273.892 1987.39C273.977 1987.33 274.086 1987.33 274.176 1987.37L274.943 1987.77L276.256 1986.88L276.181 1985.66L274.733 1984.87L274.064 1985.31C273.98 1985.36 273.871 1985.37 273.781 1985.32L272.803 1984.82C272.713 1984.77 272.654 1984.68 272.647 1984.58L272.58 1983.48C272.574 1983.38 272.621 1983.28 272.706 1983.22L273.615 1982.63C273.7 1982.57 273.809 1982.56 273.899 1982.61L274.874 1983.11C274.965 1983.16 275.024 1983.25 275.03 1983.35L275.095 1984.42L276.437 1985.16L277.506 1984.45C277.591 1984.4 277.7 1984.39 277.79 1984.44L279.092 1985.11C279.112 1985.12 279.123 1985.14 279.141 1985.15L281.4 1983.69L281.171 1979.97L277.058 1978.16L276.181 1978.74C276.097 1978.8 275.988 1978.8 275.897 1978.75L274.596 1978.08C274.505 1978.04 274.446 1977.95 274.44 1977.84L274.35 1976.38C274.344 1976.27 274.391 1976.18 274.475 1976.12L275.687 1975.32C275.771 1975.27 275.88 1975.26 275.971 1975.31L277.272 1975.98C277.363 1976.02 277.422 1976.11 277.428 1976.22L277.518 1977.69C277.519 1977.7 277.51 1977.72 277.507 1977.74L281.202 1979.36C281.222 1979.33 281.24 1979.3 281.271 1979.28L284.747 1977ZM293.962 1987.45L295.449 1988.22L296.834 1987.31L296.731 1985.63L295.244 1984.86L294.121 1985.6L293.859 1985.77L293.88 1986.11L293.962 1987.45ZM273.489 1989.15L274.172 1989.5L274.809 1989.08L274.778 1988.58L274.761 1988.31L274.412 1988.13L274.078 1987.96L273.442 1988.38L273.489 1989.15ZM274.485 1983.55L273.801 1983.19L273.165 1983.61L273.17 1983.69L273.187 1983.97L273.212 1984.38L273.896 1984.74L274.172 1984.55L274.529 1984.32L274.516 1984.09L274.482 1983.55L274.485 1983.55ZM276.754 1985.64L276.775 1985.98L276.807 1986.51L276.816 1986.65L276.824 1986.78L277.168 1986.95L277.301 1987.02L277.54 1987.15L277.834 1987.3L278.107 1987.12L278.774 1986.68L278.739 1986.1L278.705 1985.54L278.617 1985.5L277.697 1985.03L277.021 1985.47L276.754 1985.64ZM277.97 1989.52L277.696 1989.7L277.334 1989.94L277.381 1990.71L277.846 1990.95L278.004 1991.04L278.065 1991.07L278.121 1991.03L278.268 1990.93L278.701 1990.65L278.653 1989.87L278.264 1989.67L277.97 1989.52ZM276.949 1977.49L276.883 1976.41L275.875 1975.89L274.937 1976.51L275.007 1977.65L276.015 1978.17L276.443 1977.89L276.955 1977.55L276.951 1977.49L276.949 1977.49ZM281.73 1979.67L281.764 1980.22L281.954 1983.34L281.974 1983.66L282.278 1983.81L285.313 1985.38L285.506 1985.47L285.871 1985.23L288.594 1983.44L288.795 1983.31L288.77 1982.89L288.573 1979.68L288.551 1979.32L288.28 1979.18L285.36 1977.68L285.016 1977.5L284.789 1977.65L281.807 1979.62L281.73 1979.67Z" fill="#67CDF5" fill-opacity="0.5"/>
  <path d="M285.403 1978.12L287.931 1979.42L288.051 1979.49C288.141 1979.53 288.2 1979.62 288.207 1979.73L288.219 1979.92L288.389 1982.7L288.404 1982.95C288.41 1983.05 288.362 1983.14 288.278 1983.2L288.211 1983.25L285.853 1984.8L285.624 1984.95C285.54 1985 285.431 1985.01 285.341 1984.96L285.293 1984.94L282.651 1983.58L282.49 1983.5C282.4 1983.45 282.341 1983.36 282.335 1983.26L282.326 1983.11L282.159 1980.39L282.138 1980.04C282.132 1979.95 282.176 1979.87 282.243 1979.81C282.249 1979.8 282.254 1979.79 282.263 1979.79L284.833 1978.09L284.917 1978.04C285.001 1977.98 285.11 1977.97 285.2 1978.02L285.403 1978.12ZM282.712 1980.17L282.741 1980.64L282.87 1982.75L282.888 1983.06L283.202 1983.22L285.253 1984.27L285.446 1984.37L285.81 1984.13L287.619 1982.94L287.827 1982.8L287.802 1982.4L287.672 1980.28L287.65 1979.92L287.387 1979.78L285.449 1978.79L285.093 1978.6L284.88 1978.75L282.859 1980.08L282.712 1980.17Z" fill="#67CDF5" fill-opacity="0.5"/>
  <path d="M294.045 1975.93C294.093 1976.05 294.13 1976.18 294.138 1976.32C294.176 1976.97 293.68 1977.53 293.034 1977.56C292.385 1977.59 291.829 1977.09 291.791 1976.44C291.783 1976.3 291.802 1976.18 291.839 1976.05C291.879 1975.91 291.947 1975.77 292.037 1975.66C292.239 1975.39 292.543 1975.21 292.897 1975.19C293.252 1975.18 293.575 1975.32 293.806 1975.56C293.905 1975.67 293.988 1975.79 294.045 1975.93Z" fill="#67CDF5" fill-opacity="0.5"/>
  <path d="M285.853 1972.04C285.902 1972.16 285.938 1972.28 285.946 1972.42C285.985 1973.07 285.488 1973.63 284.842 1973.66C284.193 1973.7 283.638 1973.2 283.599 1972.54C283.591 1972.41 283.611 1972.28 283.647 1972.15C283.687 1972.01 283.755 1971.88 283.846 1971.76C284.047 1971.5 284.351 1971.32 284.706 1971.3C285.061 1971.28 285.383 1971.42 285.614 1971.66C285.711 1971.77 285.794 1971.9 285.853 1972.04Z" fill="#67CDF5" fill-opacity="0.5"/>
  <path d="M286.79 1989.54C286.817 1989.61 286.836 1989.69 286.841 1989.78C286.866 1990.21 286.593 1990.58 286.203 1990.7C286.133 1990.72 286.061 1990.74 285.983 1990.74C285.908 1990.75 285.832 1990.74 285.76 1990.73C285.358 1990.65 285.043 1990.31 285.018 1989.88C284.988 1989.37 285.373 1988.94 285.873 1988.91C286.131 1988.9 286.371 1989 286.546 1989.16C286.66 1989.26 286.74 1989.39 286.79 1989.54Z" fill="#67CDF5" fill-opacity="0.5"/>
  <path d="M95.4208 2128.68L91.9339 2127.08L91.6844 2128.19L95.2007 2130.33L95.4208 2128.68Z" fill="#142E8F"/>
  <path d="M193.986 2161.79L189.459 2158.92L188.579 2159.91L192.449 2162.19L193.986 2161.79Z" fill="#0E2187"/>
  <defs>
    <filter id="filter0_f" x="173.16" y="1944.54" width="205.203" height="150.832" filterUnits="userSpaceOnUse" color-interpolation-filters="sRGB">
      <feFlood flood-opacity="0" result="BackgroundImageFix"/>
      <feBlend mode="normal" in="SourceGraphic" in2="BackgroundImageFix" result="shape"/>
      <feGaussianBlur stdDeviation="22" result="effect1_foregroundBlur"/>
    </filter>
    <filter id="filter1_f" x="7.39844" y="2139.86" width="205.203" height="150.832" filterUnits="userSpaceOnUse" color-interpolation-filters="sRGB">
      <feFlood flood-opacity="0" result="BackgroundImageFix"/>
      <feBlend mode="normal" in="SourceGraphic" in2="BackgroundImageFix" result="shape"/>
      <feGaussianBlur stdDeviation="22" result="effect1_foregroundBlur"/>
    </filter>
    <filter id="filter2_f" x="-27.8594" y="1913.74" width="255.226" height="241.995" filterUnits="userSpaceOnUse" color-interpolation-filters="sRGB">
      <feFlood flood-opacity="0" result="BackgroundImageFix"/>
      <feBlend mode="normal" in="SourceGraphic" in2="BackgroundImageFix" result="shape"/>
      <feGaussianBlur stdDeviation="22" result="effect1_foregroundBlur"/>
    </filter>
    <filter id="filter3_f" x="-14.6875" y="1894.46" width="404.159" height="379.144" filterUnits="userSpaceOnUse" color-interpolation-filters="sRGB">
      <feFlood flood-opacity="0" result="BackgroundImageFix"/>
      <feBlend mode="normal" in="SourceGraphic" in2="BackgroundImageFix" result="shape"/>
      <feGaussianBlur stdDeviation="22" result="effect1_foregroundBlur"/>
    </filter>
    <linearGradient id="paint0_linear" x1="592.561" y1="248.136" x2="561.963" y2="3493.61" gradientUnits="userSpaceOnUse">
      <stop stop-color="#070F4B"/>
      <stop offset="0.338897" stop-color="#161660"/>
      <stop offset="0.620267" stop-color="#322387"/>
      <stop offset="1" stop-color="#5B37C0"/>
    </linearGradient>
    <linearGradient id="paint1_linear" x1="235.095" y1="2025.78" x2="235.069" y2="2050.65" gradientUnits="userSpaceOnUse">
      <stop stop-color="#DEF8F9"/>
      <stop offset="1" stop-color="#F6FDFD"/>
    </linearGradient>
    <linearGradient id="paint2_linear" x1="309.431" y1="2026.27" x2="324.109" y2="2088.64" gradientUnits="userSpaceOnUse">
      <stop stop-color="#DEF8F9"/>
      <stop offset="1" stop-color="white"/>
    </linearGradient>
    <linearGradient id="paint3_linear" x1="167.891" y1="2002.78" x2="145.438" y2="1963.72" gradientUnits="userSpaceOnUse">
      <stop stop-color="#C0BFF6"/>
      <stop offset="0.29" stop-color="#C5C4F7"/>
      <stop offset="0.64" stop-color="#D3D2F9"/>
      <stop offset="1" stop-color="#E9E9FD"/>
    </linearGradient>
    <linearGradient id="paint4_linear" x1="153.216" y1="2042.55" x2="153.104" y2="2149.96" gradientUnits="userSpaceOnUse">
      <stop stop-color="#DEF8F9"/>
      <stop offset="1" stop-color="#F6FDFD"/>
    </linearGradient>
    <linearGradient id="paint5_linear" x1="29866.2" y1="17002.7" x2="51243.4" y2="16974.2" gradientUnits="userSpaceOnUse">
      <stop stop-color="#C0BFF6"/>
      <stop offset="0.29" stop-color="#C5C4F7"/>
      <stop offset="0.64" stop-color="#D3D2F9"/>
      <stop offset="1" stop-color="#E9E9FD"/>
    </linearGradient>
    <linearGradient id="paint6_linear" x1="36.1639" y1="2043.12" x2="60.6466" y2="2043.09" gradientUnits="userSpaceOnUse">
      <stop stop-color="#5761D7"/>
      <stop offset="0.18" stop-color="#5C66D9"/>
      <stop offset="0.39" stop-color="#6A73DF"/>
      <stop offset="0.61" stop-color="#8289E8"/>
      <stop offset="0.85" stop-color="#A3A7F5"/>
      <stop offset="1" stop-color="#BCBEFF"/>
    </linearGradient>
    <linearGradient id="paint7_linear" x1="-45883.6" y1="21356.1" x2="-88520.9" y2="21412.1" gradientUnits="userSpaceOnUse">
      <stop stop-color="#5031B0"/>
      <stop offset="0.18" stop-color="#5C66D9"/>
      <stop offset="0.39" stop-color="#6A73DF"/>
      <stop offset="0.61" stop-color="#8289E8"/>
      <stop offset="0.85" stop-color="#A3A7F5"/>
      <stop offset="1" stop-color="#BCBEFF"/>
    </linearGradient>
    <linearGradient id="paint8_linear" x1="155.523" y1="2062.79" x2="155.451" y2="2135.58" gradientUnits="userSpaceOnUse">
      <stop stop-color="#DEF8F9"/>
      <stop offset="1" stop-color="#F6FDFD"/>
    </linearGradient>
    <linearGradient id="paint9_linear" x1="17339.8" y1="7324.66" x2="20136.8" y2="7320.98" gradientUnits="userSpaceOnUse">
      <stop stop-color="#463E90"/>
      <stop offset="0.29" stop-color="#C5C4F7"/>
      <stop offset="0.64" stop-color="#D3D2F9"/>
      <stop offset="1" stop-color="#E9E9FD"/>
    </linearGradient>
    <linearGradient id="paint10_linear" x1="44239.7" y1="15582.7" x2="86913.3" y2="15537.6" gradientUnits="userSpaceOnUse">
      <stop stop-color="#C0BFF6"/>
      <stop offset="0.29" stop-color="#C5C4F7"/>
      <stop offset="0.64" stop-color="#D3D2F9"/>
      <stop offset="1" stop-color="#E9E9FD"/>
    </linearGradient>
    <linearGradient id="paint11_linear" x1="10710.6" y1="5024.25" x2="13505.6" y2="5021.29" gradientUnits="userSpaceOnUse">
      <stop stop-color="#C0BFF6"/>
      <stop offset="0.29" stop-color="#C5C4F7"/>
      <stop offset="0.64" stop-color="#D3D2F9"/>
      <stop offset="1" stop-color="#E9E9FD"/>
    </linearGradient>
    <linearGradient id="paint12_linear" x1="23236.9" y1="-11721.4" x2="33607" y2="-11735.2" gradientUnits="userSpaceOnUse">
      <stop stop-color="#5761D7"/>
      <stop offset="0.18" stop-color="#5C66D9"/>
      <stop offset="0.39" stop-color="#6A73DF"/>
      <stop offset="0.61" stop-color="#8289E8"/>
      <stop offset="0.85" stop-color="#A3A7F5"/>
      <stop offset="1" stop-color="#BCBEFF"/>
    </linearGradient>
    <radialGradient id="paint13_radial" cx="0" cy="0" r="1" gradientUnits="userSpaceOnUse" gradientTransform="translate(201.954 2092.77) rotate(0.0606524) scale(47.1362 47.2048)">
      <stop stop-color="#2B237C"/>
      <stop offset="1" stop-color="#180D5B"/>
    </radialGradient>
    <linearGradient id="paint14_linear" x1="273.125" y1="2064.23" x2="199.902" y2="2166.93" gradientUnits="userSpaceOnUse">
      <stop stop-color="#070F4B"/>
      <stop offset="1" stop-color="#422B9D"/>
    </linearGradient>
    <linearGradient id="paint15_linear" x1="25243.2" y1="-10935.7" x2="35619.1" y2="-10949.5" gradientUnits="userSpaceOnUse">
      <stop stop-color="#5031B0"/>
      <stop offset="0.29" stop-color="#7159C6"/>
      <stop offset="0.64" stop-color="#9E89E9"/>
      <stop offset="1" stop-color="#D0D0FF"/>
    </linearGradient>
    <linearGradient id="paint16_linear" x1="283.263" y1="2073.75" x2="283.254" y2="2082.19" gradientUnits="userSpaceOnUse">
      <stop stop-color="#DEF8F9"/>
      <stop offset="1" stop-color="#F6FDFD"/>
    </linearGradient>
    <linearGradient id="paint17_linear" x1="63.1212" y1="2128.39" x2="63.0575" y2="2188.56" gradientUnits="userSpaceOnUse">
      <stop stop-color="#DEF8F9"/>
      <stop offset="1" stop-color="#F6FDFD"/>
    </linearGradient>
    <linearGradient id="paint18_linear" x1="-25903.6" y1="10264.4" x2="-33323.2" y2="4940.09" gradientUnits="userSpaceOnUse">
      <stop stop-color="#5031B0"/>
      <stop offset="0.18" stop-color="#5C66D9"/>
      <stop offset="0.39" stop-color="#6A73DF"/>
      <stop offset="0.61" stop-color="#8289E8"/>
      <stop offset="0.85" stop-color="#A3A7F5"/>
      <stop offset="1" stop-color="#BCBEFF"/>
    </linearGradient>
    <linearGradient id="paint19_linear" x1="7764.03" y1="3028.9" x2="7898.1" y2="2853.57" gradientUnits="userSpaceOnUse">
      <stop stop-color="#C0BFF6"/>
      <stop offset="0.29" stop-color="#C5C4F7"/>
      <stop offset="0.64" stop-color="#D3D2F9"/>
      <stop offset="1" stop-color="#E9E9FD"/>
    </linearGradient>
    <linearGradient id="paint20_linear" x1="165.621" y1="1930.29" x2="165.52" y2="2026.61" gradientUnits="userSpaceOnUse">
      <stop stop-color="#DEF8F9"/>
      <stop offset="1" stop-color="#F6FDFD"/>
    </linearGradient>
    <linearGradient id="paint21_linear" x1="166.215" y1="1944.37" x2="166.164" y2="1992.29" gradientUnits="userSpaceOnUse">
      <stop stop-color="#DEF8F9"/>
      <stop offset="1" stop-color="#F6FDFD"/>
    </linearGradient>
    <linearGradient id="paint22_linear" x1="166.215" y1="1964.71" x2="166.164" y2="2012.62" gradientUnits="userSpaceOnUse">
      <stop stop-color="#DEF8F9"/>
      <stop offset="1" stop-color="#F6FDFD"/>
    </linearGradient>
    <linearGradient id="paint23_linear" x1="152.056" y1="1972.9" x2="152.048" y2="1980.12" gradientUnits="userSpaceOnUse">
      <stop stop-color="#DEF8F9"/>
      <stop offset="1" stop-color="#F6FDFD"/>
    </linearGradient>
    <linearGradient id="paint24_linear" x1="159.166" y1="1968.78" x2="159.158" y2="1976" gradientUnits="userSpaceOnUse">
      <stop stop-color="#DEF8F9"/>
      <stop offset="1" stop-color="#F6FDFD"/>
    </linearGradient>
    <linearGradient id="paint25_linear" x1="166.227" y1="1964.67" x2="166.22" y2="1971.89" gradientUnits="userSpaceOnUse">
      <stop stop-color="#DEF8F9"/>
      <stop offset="1" stop-color="#F6FDFD"/>
    </linearGradient>
    <linearGradient id="paint26_linear" x1="173.329" y1="1960.55" x2="173.321" y2="1967.74" gradientUnits="userSpaceOnUse">
      <stop stop-color="#DEF8F9"/>
      <stop offset="1" stop-color="#F6FDFD"/>
    </linearGradient>
    <linearGradient id="paint27_linear" x1="180.446" y1="1956.44" x2="180.439" y2="1963.63" gradientUnits="userSpaceOnUse">
      <stop stop-color="#DEF8F9"/>
      <stop offset="1" stop-color="#F6FDFD"/>
    </linearGradient>
    <linearGradient id="paint28_linear" x1="152.052" y1="1993.23" x2="152.044" y2="2000.46" gradientUnits="userSpaceOnUse">
      <stop stop-color="#DEF8F9"/>
      <stop offset="1" stop-color="#F6FDFD"/>
    </linearGradient>
    <linearGradient id="paint29_linear" x1="159.161" y1="1989.12" x2="159.153" y2="1996.3" gradientUnits="userSpaceOnUse">
      <stop stop-color="#DEF8F9"/>
      <stop offset="1" stop-color="#F6FDFD"/>
    </linearGradient>
    <linearGradient id="paint30_linear" x1="166.255" y1="1985.03" x2="166.247" y2="1992.23" gradientUnits="userSpaceOnUse">
      <stop stop-color="#DEF8F9"/>
      <stop offset="1" stop-color="#F6FDFD"/>
    </linearGradient>
    <linearGradient id="paint31_linear" x1="173.329" y1="1980.89" x2="173.321" y2="1988.13" gradientUnits="userSpaceOnUse">
      <stop stop-color="#DEF8F9"/>
      <stop offset="1" stop-color="#F6FDFD"/>
    </linearGradient>
    <linearGradient id="paint32_linear" x1="180.442" y1="1976.78" x2="180.435" y2="1983.97" gradientUnits="userSpaceOnUse">
      <stop stop-color="#DEF8F9"/>
      <stop offset="1" stop-color="#F6FDFD"/>
    </linearGradient>
    <linearGradient id="paint33_linear" x1="311.08" y1="2011.87" x2="260.428" y2="2013.25" gradientUnits="userSpaceOnUse">
      <stop offset="0.25" stop-color="#5761D7"/>
      <stop offset="0.44" stop-color="#6C74DF"/>
      <stop offset="0.82" stop-color="#A2A6F5"/>
      <stop offset="1" stop-color="#BCBEFF"/>
    </linearGradient>
    <linearGradient id="paint34_linear" x1="-3199.45" y1="5393.61" x2="-8549.32" y2="5539.33" gradientUnits="userSpaceOnUse">
      <stop stop-color="#C0BFF6"/>
      <stop offset="0.29" stop-color="#C5C4F7"/>
      <stop offset="0.64" stop-color="#D3D2F9"/>
      <stop offset="1" stop-color="#E9E9FD"/>
    </linearGradient>
    <linearGradient id="paint35_linear" x1="275.258" y1="1998.6" x2="275.238" y2="2019.42" gradientUnits="userSpaceOnUse">
      <stop stop-color="#DEF8F9"/>
      <stop offset="1" stop-color="#F6FDFD"/>
    </linearGradient>
    <linearGradient id="paint36_linear" x1="275.252" y1="1986.15" x2="275.226" y2="2011.56" gradientUnits="userSpaceOnUse">
      <stop stop-color="#DEF8F9"/>
      <stop offset="1" stop-color="#F6FDFD"/>
    </linearGradient>
    <linearGradient id="paint37_linear" x1="290.856" y1="1999.28" x2="302.852" y2="1974.94" gradientUnits="userSpaceOnUse">
      <stop stop-color="#71E2FB" stop-opacity="0.65"/>
      <stop offset="0.243575" stop-color="#71E2FB" stop-opacity="0.467969"/>
      <stop offset="0.477954" stop-color="#71E2FB" stop-opacity="0.314343"/>
      <stop offset="0.712333" stop-color="#71E2FB" stop-opacity="0.149743"/>
      <stop offset="1" stop-color="#71E2FB" stop-opacity="0"/>
    </linearGradient>
    <linearGradient id="paint38_linear" x1="142.964" y1="2174.57" x2="79.9416" y2="2214.95" gradientUnits="userSpaceOnUse">
      <stop stop-color="#BCBEFF"/>
      <stop offset="0.23" stop-color="#AAADF8"/>
      <stop offset="0.68" stop-color="#7C83E5"/>
      <stop offset="1" stop-color="#5761D7"/>
    </linearGradient>
    <linearGradient id="paint39_linear" x1="151.777" y1="2188.54" x2="70.4703" y2="2192.74" gradientUnits="userSpaceOnUse">
      <stop stop-color="#E9E9FD"/>
      <stop offset="0.36" stop-color="#D3D2F9"/>
      <stop offset="0.71" stop-color="#C5C4F7"/>
      <stop offset="1" stop-color="#C0BFF6"/>
    </linearGradient>
    <linearGradient id="paint40_linear" x1="111.165" y1="2191.3" x2="112.412" y2="2215.42" gradientUnits="userSpaceOnUse">
      <stop stop-color="#DEF8F9"/>
      <stop offset="1" stop-color="#F6FDFD"/>
    </linearGradient>
    <linearGradient id="paint41_linear" x1="-18675.1" y1="13879.3" x2="-22605.6" y2="14082.2" gradientUnits="userSpaceOnUse">
      <stop stop-color="#E9E9FD"/>
      <stop offset="0.36" stop-color="#D3D2F9"/>
      <stop offset="0.71" stop-color="#C5C4F7"/>
      <stop offset="1" stop-color="#C0BFF6"/>
    </linearGradient>
    <linearGradient id="paint42_linear" x1="134.822" y1="2191.05" x2="152.861" y2="2151.01" gradientUnits="userSpaceOnUse">
      <stop stop-color="#71E2FB" stop-opacity="0.65"/>
      <stop offset="0.243575" stop-color="#71E2FB" stop-opacity="0.467969"/>
      <stop offset="0.477954" stop-color="#71E2FB" stop-opacity="0.314343"/>
      <stop offset="0.712333" stop-color="#71E2FB" stop-opacity="0.149743"/>
      <stop offset="1" stop-color="#71E2FB" stop-opacity="0"/>
    </linearGradient>
  </defs>
</svg>
