<svg width="48" height="48" viewBox="0 0 48 48" fill="none" xmlns="http://www.w3.org/2000/svg">
  <g clip-path="url(#clip0)">
    <path d="M0 32.7207C0 33.8632 1.2945 34.5279 2.22291 33.8655L9.95456 28.35C10.603 27.8874 11.3669 27.6429 12.1636 27.6429H29.1682C32.1614 27.6429 34.5965 25.2078 34.5965 22.2146V4.37109C34.5965 3.59447 33.9668 2.96484 33.1902 2.96484H5.42831C2.43516 2.96484 0 5.39991 0 8.39316L0 32.7207ZM2.8125 8.39316C2.8125 6.95072 3.98597 5.77734 5.42831 5.77734H31.7839V22.2146C31.7839 23.6571 30.6104 24.8304 29.1681 24.8304H12.1635C10.7779 24.8304 9.44925 25.2558 8.32125 26.0604L2.8125 29.9902V8.39316Z" fill="white" fill-opacity="0.62"/>
    <path d="M48.0028 19.3006C48.0028 16.307 45.5678 13.8716 42.5747 13.8716H38.8181C38.0415 13.8716 37.4119 14.5012 37.4119 15.2778C37.4119 16.0545 38.0415 16.6841 38.8181 16.6841H42.5747C44.017 16.6841 45.1903 17.8579 45.1903 19.3006V40.8973L39.6817 36.9677C38.5538 36.1631 37.2252 35.7378 35.8397 35.7378H18.8344C17.392 35.7378 16.2188 34.564 16.2188 33.1213V31.8614C16.2188 31.0847 15.5891 30.4551 14.8125 30.4551C14.0359 30.4551 13.4062 31.0847 13.4062 31.8614V33.1213C13.4062 36.1149 15.8413 38.5503 18.8344 38.5503H35.8397C36.6363 38.5503 37.4001 38.7947 38.0484 39.2573L45.78 44.7726C46.7037 45.4318 48.0029 44.774 48.0029 43.6278V19.3006H48.0028Z" fill="white" fill-opacity="0.62"/>
    <path d="M10.1133 13.438H26.3605C27.1372 13.438 27.7668 12.8084 27.7668 12.0317C27.7668 11.2551 27.1372 10.6255 26.3605 10.6255H10.1133C9.33666 10.6255 8.70703 11.2551 8.70703 12.0317C8.70703 12.8084 9.33666 13.438 10.1133 13.438Z" fill="white" fill-opacity="0.62"/>
    <path d="M10.1133 20.0005H26.3605C27.1372 20.0005 27.7668 19.3709 27.7668 18.5942C27.7668 17.8176 27.1372 17.188 26.3605 17.188H10.1133C9.33666 17.188 8.70703 17.8176 8.70703 18.5942C8.70703 19.3709 9.33666 20.0005 10.1133 20.0005Z" fill="white" fill-opacity="0.62"/>
  </g>
  <defs>
    <clipPath id="clip0">
      <rect width="48" height="48" fill="white"/>
    </clipPath>
  </defs>
</svg>
