<svg width="32" height="32" viewBox="0 0 32 32" fill="none" xmlns="http://www.w3.org/2000/svg">
  <path d="M16 31C11.9934 31 8.22648 29.4398 5.39336 26.6066C2.56023 23.7735 1 20.0066 1 16C1 11.9934 2.56029 8.22654 5.39336 5.39336C8.22643 2.56018 11.9934 1 16 1C20.0066 1 23.7735 2.56023 26.6066 5.39336C29.4398 8.22648 31 11.9934 31 16C31 20.0066 29.4397 23.7735 26.6066 26.6066C23.7736 29.4398 20.0066 31 16 31ZM16 2.875C8.76285 2.875 2.875 8.76285 2.875 16C2.875 23.2371 8.76285 29.125 16 29.125C23.2371 29.125 29.125 23.2371 29.125 16C29.125 8.76285 23.2371 2.875 16 2.875Z" fill="#C2C1D6"/>
  <path d="M16 15.0625C14.7077 15.0625 13.6562 14.0111 13.6562 12.7188C13.6562 11.4264 14.7077 10.375 16 10.375C17.2923 10.375 18.3438 11.4264 18.3438 12.7188C18.3438 13.2365 18.7635 13.6562 19.2812 13.6562C19.799 13.6562 20.2188 13.2365 20.2188 12.7188C20.2188 10.7148 18.8138 9.03391 16.9375 8.60629V7.5625C16.9375 7.04477 16.5178 6.625 16 6.625C15.4822 6.625 15.0625 7.04477 15.0625 7.5625V8.60629C13.1862 9.03391 11.7812 10.7148 11.7812 12.7188C11.7812 15.045 13.6738 16.9375 16 16.9375C17.2923 16.9375 18.3438 17.9889 18.3438 19.2812C18.3438 20.5736 17.2923 21.625 16 21.625C14.7077 21.625 13.6562 20.5736 13.6562 19.2812C13.6562 18.7635 13.2365 18.3438 12.7188 18.3438C12.201 18.3438 11.7812 18.7635 11.7812 19.2812C11.7812 21.2852 13.1862 22.9661 15.0625 23.3937V24.4375C15.0625 24.9552 15.4822 25.375 16 25.375C16.5178 25.375 16.9375 24.9552 16.9375 24.4375V23.3937C18.8138 22.9661 20.2188 21.2852 20.2188 19.2812C20.2188 16.955 18.3262 15.0625 16 15.0625Z" fill="#C2C1D6"/>
</svg>
