<?xml version="1.0" encoding="utf-8"?>
<!-- Generator: Adobe Illustrator 15.1.0, SVG Export Plug-In . SVG Version: 6.00 Build 0)  -->
<!DOCTYPE svg PUBLIC "-//W3C//DTD SVG 1.1//EN" "http://www.w3.org/Graphics/SVG/1.1/DTD/svg11.dtd">
<svg version="1.1" id="Layer_1" xmlns="http://www.w3.org/2000/svg" xmlns:xlink="http://www.w3.org/1999/xlink" x="0px" y="0px"
	 width="90px" height="146px" viewBox="0 0 90 146" enable-background="new 0 0 90 146" xml:space="preserve">
<g>
	<path fill="none" stroke="#666666" stroke-width="2" stroke-linecap="round" stroke-linejoin="round" stroke-miterlimit="10" d="
		M89,128.175C89,137.468,81.457,145,72.154,145H17.846C8.542,145,1,137.468,1,128.175V34.224c0-9.291,7.542-16.824,16.846-16.824
		h54.309C81.457,17.399,89,24.933,89,34.224V128.175z"/>
	<path fill="none" stroke="#666666" stroke-width="2" stroke-linecap="round" stroke-linejoin="round" stroke-miterlimit="10" d="
		M27.735,17.019V6.403C27.735,3.42,30.157,1,33.144,1h23.712c2.986,0,5.41,2.42,5.41,5.403v10.615"/>
	
		<polygon fill="none" stroke="#666666" stroke-width="2" stroke-linecap="round" stroke-linejoin="round" stroke-miterlimit="10" points="
		49.562,35.66 21.485,85.681 44.648,85.681 40.437,122.835 68.514,72.36 45.351,72.36 	"/>
</g>
</svg>
