<?xml version="1.0" encoding="utf-8"?>
<!-- Generator: Adobe Illustrator 15.1.0, SVG Export Plug-In . SVG Version: 6.00 Build 0)  -->
<!DOCTYPE svg PUBLIC "-//W3C//DTD SVG 1.1//EN" "http://www.w3.org/Graphics/SVG/1.1/DTD/svg11.dtd">
<svg version="1.1" id="Layer_1" xmlns="http://www.w3.org/2000/svg" xmlns:xlink="http://www.w3.org/1999/xlink" x="0px" y="0px"
	 width="114px" height="146px" viewBox="0 0 114 146" enable-background="new 0 0 114 146" xml:space="preserve">
<g>
	<path fill="none" stroke="#666666" stroke-width="2" stroke-linecap="round" stroke-miterlimit="10" d="M1.098,1
		c0,0-2.137,26.953,13.585,44.311S57,73.002,57,73.002s26.595,10.332,42.32,27.691C115.043,118.049,112.902,145,112.902,145"/>
	<path fill="none" stroke="#666666" stroke-width="2" stroke-linecap="round" stroke-miterlimit="10" d="M112.902,1
		c0,0,2.141,26.953-13.582,44.311C83.596,62.668,57,73.002,57,73.002s-26.596,10.332-42.317,27.691
		C-1.039,118.049,1.098,145,1.098,145"/>
	<g>
		
			<line fill="none" stroke="#666666" stroke-width="2" stroke-linecap="round" stroke-miterlimit="10" x1="11.827" y1="41.002" x2="102.756" y2="41.002"/>
		
			<line fill="none" stroke="#666666" stroke-width="2" stroke-linecap="round" stroke-miterlimit="10" x1="28.978" y1="57.219" x2="85.711" y2="57.219"/>
		
			<line fill="none" stroke="#666666" stroke-width="2" stroke-linecap="round" stroke-miterlimit="10" x1="3.624" y1="24.785" x2="110.381" y2="24.785"/>
		
			<line fill="none" stroke="#666666" stroke-width="2" stroke-linecap="round" stroke-miterlimit="10" x1="2.212" y1="8.566" x2="112.949" y2="8.566"/>
	</g>
	<g>
		
			<line fill="none" stroke="#666666" stroke-width="2" stroke-linecap="round" stroke-miterlimit="10" x1="102.754" y1="106.287" x2="11.825" y2="106.287"/>
		
			<line fill="none" stroke="#666666" stroke-width="2" stroke-linecap="round" stroke-miterlimit="10" x1="85.6" y1="90.068" x2="28.87" y2="90.068"/>
		
			<line fill="none" stroke="#666666" stroke-width="2" stroke-linecap="round" stroke-miterlimit="10" x1="110.955" y1="122.504" x2="4.201" y2="122.504"/>
		
			<line fill="none" stroke="#666666" stroke-width="2" stroke-linecap="round" stroke-miterlimit="10" x1="112.369" y1="138.719" x2="1.632" y2="138.719"/>
	</g>
</g>
</svg>
