<?xml version="1.0" encoding="utf-8"?>
<!-- Generator: Adobe Illustrator 15.1.0, SVG Export Plug-In . SVG Version: 6.00 Build 0)  -->
<!DOCTYPE svg PUBLIC "-//W3C//DTD SVG 1.1//EN" "http://www.w3.org/Graphics/SVG/1.1/DTD/svg11.dtd">
<svg version="1.1" id="Layer_1" xmlns="http://www.w3.org/2000/svg" xmlns:xlink="http://www.w3.org/1999/xlink" x="0px" y="0px"
	 width="168px" height="146px" viewBox="0 0 168 146" enable-background="new 0 0 168 146" xml:space="preserve">
<g>
	<path fill="none" stroke="#666666" stroke-width="2" stroke-linecap="round" stroke-miterlimit="10" d="M160.296,32.928V1h-31.863"
		/>
	
		<polyline fill="none" stroke="#666666" stroke-width="2" stroke-linecap="round" stroke-linejoin="round" stroke-miterlimit="10" points="
		1,85.08 64.707,28.641 105.343,66.705 158.823,1.867 	"/>
	<g>
		<path fill="none" stroke="#666666" stroke-width="2" stroke-miterlimit="10" d="M167,143c0,1.1-0.9,2-2,2h-28.741
			c-1.1,0-2-0.9-2-2V57.854c0-1.1,0.9-2,2-2H165c1.1,0,2,0.9,2,2V143z"/>
	</g>
	<g>
		<path fill="none" stroke="#666666" stroke-width="2" stroke-miterlimit="10" d="M124.771,143c0,1.1-0.9,2-2,2H94.029
			c-1.1,0-2-0.9-2-2V91.105c0-1.1,0.9-2,2-2h28.741c1.1,0,2,0.9,2,2V143z"/>
	</g>
	<g>
		<path fill="none" stroke="#666666" stroke-width="2" stroke-miterlimit="10" d="M82.54,143c0,1.1-0.9,2-2,2H51.799
			c-1.1,0-2-0.9-2-2V74.48c0-1.1,0.9-2,2-2H80.54c1.1,0,2,0.9,2,2V143z"/>
	</g>
	<g>
		<path fill="none" stroke="#666666" stroke-width="2" stroke-miterlimit="10" d="M40.309,143c0,1.1-0.9,2-2,2H9.569
			c-1.1,0-2-0.9-2-2v-42.395c0-1.1,0.9-2,2-2h28.739c1.1,0,2,0.9,2,2V143z"/>
	</g>
</g>
</svg>
