<?xml version="1.0" encoding="utf-8"?>
<!-- Generator: Adobe Illustrator 15.1.0, SVG Export Plug-In . SVG Version: 6.00 Build 0)  -->
<!DOCTYPE svg PUBLIC "-//W3C//DTD SVG 1.1//EN" "http://www.w3.org/Graphics/SVG/1.1/DTD/svg11.dtd">
<svg version="1.1" id="Layer_1" xmlns="http://www.w3.org/2000/svg" xmlns:xlink="http://www.w3.org/1999/xlink" x="0px" y="0px"
	 width="154px" height="146px" viewBox="0 0 154 146" enable-background="new 0 0 154 146" xml:space="preserve">
<g>
	<path fill="none" stroke="#CC4B4B" stroke-width="2" stroke-linecap="round" stroke-linejoin="round" stroke-miterlimit="10" d="
		M63.328,68.983V8.567h1.031c1.844,0,3.34-1.61,3.34-3.597c0-1.987-1.496-3.598-3.34-3.598H29.679c-1.846,0-3.342,1.61-3.342,3.598
		c0,1.986,1.496,3.597,3.342,3.597h1.029v60.416C13.67,74.314,1.302,90.223,1.302,109.02c0,15.186,8.072,28.484,20.154,35.848H72.58
		c12.084-7.363,20.156-20.662,20.156-35.848C92.736,90.223,80.371,74.314,63.328,68.983z"/>
	
		<line fill="none" stroke="#CC4B4B" stroke-width="2" stroke-linecap="round" stroke-linejoin="round" stroke-miterlimit="10" x1="4.033" y1="94.107" x2="90.008" y2="94.107"/>
</g>
<g>
	<path fill="none" stroke="#466EAA" stroke-width="2" stroke-linecap="round" stroke-linejoin="round" stroke-miterlimit="10" d="
		M149.02,0.867h-34.467c-2.033,0-3.684,1.644-3.684,3.682c0,2.031,1.65,3.675,3.684,3.675h1.143v71.653v48.9
		c0,8.887,7.205,16.09,16.092,16.09s16.092-7.203,16.092-16.09v-48.9V8.224h1.141c2.025,0,3.68-1.644,3.68-3.675
		C152.699,2.511,151.045,0.867,149.02,0.867z"/>
	
		<line fill="none" stroke="#466EAA" stroke-width="2" stroke-linecap="round" stroke-linejoin="round" stroke-miterlimit="10" x1="115.695" y1="47.829" x2="147.879" y2="47.829"/>
</g>
</svg>
