<?xml version="1.0" encoding="utf-8"?>
<!-- Generator: Adobe Illustrator 15.1.0, SVG Export Plug-In . SVG Version: 6.00 Build 0)  -->
<!DOCTYPE svg PUBLIC "-//W3C//DTD SVG 1.1//EN" "http://www.w3.org/Graphics/SVG/1.1/DTD/svg11.dtd">
<svg version="1.1" id="Layer_1" xmlns="http://www.w3.org/2000/svg" xmlns:xlink="http://www.w3.org/1999/xlink" x="0px" y="0px"
	 width="150px" height="146px" viewBox="0 0 150 146" enable-background="new 0 0 150 146" xml:space="preserve">
<g>
	<g>
		<path fill="none" stroke="#8755B9" stroke-width="2" stroke-linecap="round" stroke-linejoin="bevel" stroke-miterlimit="10" d="
			M10.918,136.223c-5.789-5.791-8.977-13.49-8.977-21.682l-0.01-82.688c0-16.901,13.756-30.655,30.658-30.658
			c8.189,0.002,15.885,3.188,21.678,8.98c5.787,5.787,8.979,13.49,8.98,21.68l0.006,82.691c-0.002,8.188-3.189,15.89-8.975,21.677
			c-5.793,5.793-13.494,8.979-21.686,8.973C24.408,145.203,16.713,142.02,10.918,136.223z"/>
	</g>
	<g>
		
			<line fill="none" stroke="#8755B9" stroke-width="2" stroke-linecap="round" stroke-linejoin="bevel" stroke-miterlimit="10" x1="1.932" y1="73.196" x2="63.251" y2="73.203"/>
		<path fill="none" stroke="#8755B9" stroke-miterlimit="10" d="M32.598,142.768"/>
	</g>
</g>
<g>
	
		<circle fill="none" stroke="#8755B9" stroke-width="2" stroke-linecap="round" stroke-linejoin="bevel" stroke-miterlimit="10" cx="113.858" cy="107.818" r="34.949"/>
	
		<line fill="none" stroke="#8755B9" stroke-width="2" stroke-linecap="round" stroke-linejoin="bevel" stroke-miterlimit="10" x1="118.83" y1="74.527" x2="118.83" y2="141.107"/>
	
		<line fill="none" stroke="#8755B9" stroke-width="2" stroke-linecap="round" stroke-linejoin="bevel" stroke-miterlimit="10" x1="108.881" y1="74.527" x2="108.881" y2="141.107"/>
</g>
</svg>
