<?xml version="1.0" encoding="utf-8"?>
<!-- Generator: Adobe Illustrator 15.1.0, SVG Export Plug-In . SVG Version: 6.00 Build 0)  -->
<!DOCTYPE svg PUBLIC "-//W3C//DTD SVG 1.1//EN" "http://www.w3.org/Graphics/SVG/1.1/DTD/svg11.dtd">
<svg version="1.1" id="Layer_1" xmlns="http://www.w3.org/2000/svg" xmlns:xlink="http://www.w3.org/1999/xlink" x="0px" y="0px"
	 width="202px" height="146px" viewBox="0 0 202 146" enable-background="new 0 0 202 146" xml:space="preserve">
<g>
	<path fill="none" stroke="#666666" stroke-width="2" stroke-linecap="round" stroke-linejoin="round" stroke-miterlimit="10" d="
		M16.369,124.953c10.168,0,74.111,0,74.111,0c6.341,0,14.72,0,21.059,0c0,0,62.071,0,74.403,0c10.602,0,10.619-11.572,10.619-11.572
		l0.367-34.176c0.068-6.361-2.751-15.908-6.259-21.211l-6.987-10.547l13.528-2.783c1.96-0.324,3.559-2.047,3.658-4.08l0.136-2.678
		c0.111-2.229-1.599-4.268-3.802-4.543l-11.537-1.42c-2.203-0.275-4.096,1.324-4.209,3.549l-0.245,4.893l-0.033-0.01l-1.541,0.965
		l-16.172-30.043C159.952,5.996,150.71,1,142.769,1c-7.942,0-75.978,0-83.518,0c-7.537,0-17.186,4.996-20.695,10.297L22.382,41.34
		l-1.537-0.965l-0.037,0.01l-0.243-4.893c-0.113-2.225-2.008-3.824-4.209-3.549L4.82,33.363c-2.205,0.275-3.917,2.314-3.806,4.543
		l0.134,2.678c0.104,2.033,1.7,3.756,3.662,4.08l13.526,2.783l-6.983,10.547c-3.512,5.303-6.327,14.85-6.261,21.211l0.367,34.176
		C5.46,113.381,6.199,124.953,16.369,124.953z M56.181,85.51H22.747c-3.171,0-7.143-0.869-8.823-1.934
		c-1.683-1.061-2.482-4.469-1.78-7.572l0.502-2.213c0.704-3.105,1.967-6.078,2.808-6.609s4.105-0.664,7.255-0.295l18.142,2.131
		c3.149,0.369,7.537,2.533,9.751,4.812l7.322,7.535C60.135,83.645,59.353,85.51,56.181,85.51z M186.57,67.182
		c0.837,0.531,2.102,3.504,2.806,6.609l0.5,2.213c0.702,3.104-0.098,6.512-1.778,7.572c-1.683,1.064-5.654,1.934-8.821,1.934
		h-33.438c-3.168,0-3.954-1.865-1.74-4.145l7.322-7.535c2.214-2.279,6.602-4.443,9.751-4.812l18.142-2.131
		C182.465,66.518,185.726,66.65,186.57,67.182z"/>
	
		<line fill="none" stroke="#666666" stroke-width="2" stroke-linecap="round" stroke-linejoin="round" stroke-miterlimit="10" x1="27.45" y1="33.686" x2="174.097" y2="33.686"/>
	<path fill="none" stroke="#666666" stroke-width="2" stroke-linecap="round" stroke-linejoin="round" stroke-miterlimit="10" d="
		M158.938,126.076v11.674c0,3.988,3.251,7.25,7.221,7.25h12.035c3.969,0,7.221-3.262,7.221-7.25v-11.959"/>
	<path fill="none" stroke="#666666" stroke-width="2" stroke-linecap="round" stroke-linejoin="round" stroke-miterlimit="10" d="
		M17.192,126.076v11.674c0,3.988,3.253,7.25,7.221,7.25h12.035c3.97,0,7.221-3.262,7.221-7.25v-11.959"/>
</g>
</svg>
