<?xml version="1.0" encoding="utf-8"?>
<!-- Generator: Adobe Illustrator 15.1.0, SVG Export Plug-In . SVG Version: 6.00 Build 0)  -->
<!DOCTYPE svg PUBLIC "-//W3C//DTD SVG 1.1//EN" "http://www.w3.org/Graphics/SVG/1.1/DTD/svg11.dtd">
<svg version="1.1" id="Layer_1" xmlns="http://www.w3.org/2000/svg" xmlns:xlink="http://www.w3.org/1999/xlink" x="0px" y="0px"
	 width="100px" height="100px" viewBox="0 0 100 100" enable-background="new 0 0 100 100" xml:space="preserve">
<path fill="none" stroke="#466EAA" stroke-width="2" stroke-linecap="round" stroke-linejoin="round" stroke-miterlimit="10" d="
	M99,86.237C99,93.286,93.304,99,86.278,99H13.72C6.695,99,1,93.286,1,86.237V47.738c0-7.047,5.695-14.722,12.72-14.722h72.559
	C93.304,33.016,99,38.731,99,45.778V86.237z"/>
<path fill="none" stroke="#466EAA" stroke-width="2" stroke-linecap="round" stroke-linejoin="round" stroke-miterlimit="10" d="
	M17.958,31.969v-20.55C17.958,5.665,22.607,1,28.342,1h43.315c5.736,0,10.385,4.665,10.385,10.418v20.55"/>
<path fill="none" stroke="#466EAA" stroke-width="2" stroke-linecap="round" stroke-linejoin="round" stroke-miterlimit="10" d="
	M30.324,31.969V15.711c0-2.263,1.829-4.099,4.085-4.099h31.182c2.256,0,4.085,1.836,4.085,4.099v16.257"/>
<path fill="none" stroke="#466EAA" stroke-width="2" stroke-linecap="round" stroke-linejoin="round" stroke-miterlimit="10" d="
	M56.737,58.582c0-3.721-3.017-6.737-6.737-6.737s-6.737,3.017-6.737,6.737c0,2.467,1.329,4.618,3.307,5.792v14.91h6.86v-14.91
	C55.408,63.2,56.737,61.049,56.737,58.582z"/>
</svg>
