<?xml version="1.0" encoding="utf-8"?>
<!-- Generator: Adobe Illustrator 15.1.0, SVG Export Plug-In . SVG Version: 6.00 Build 0)  -->
<!DOCTYPE svg PUBLIC "-//W3C//DTD SVG 1.1//EN" "http://www.w3.org/Graphics/SVG/1.1/DTD/svg11.dtd">
<svg version="1.1" id="Layer_1" xmlns="http://www.w3.org/2000/svg" xmlns:xlink="http://www.w3.org/1999/xlink" x="0px" y="0px"
	 width="104px" height="100px" viewBox="0 0 104 100" enable-background="new 0 0 104 100" xml:space="preserve">
<g>
	<path fill="none" stroke="#466EAA" stroke-width="2" stroke-linecap="round" stroke-linejoin="bevel" stroke-miterlimit="10" d="
		M49.723,72.841v19.217c0,3.834-3.1,6.942-6.921,6.942H7.989c-3.822,0-6.922-3.108-6.922-6.942V57.144
		c0-3.834,3.1-6.941,6.922-6.941h23.325"/>
	<path fill="none" stroke="#466EAA" stroke-width="2" stroke-linecap="round" stroke-linejoin="bevel" stroke-miterlimit="10" d="
		M38.194,43.424V10.255c0-5.111,4.131-9.255,9.23-9.255h46.413c5.099,0,9.23,4.144,9.23,9.255v46.551
		c0,5.112-4.132,9.256-9.23,9.256H56.48"/>
	
		<line fill="none" stroke="#466EAA" stroke-width="2" stroke-linecap="round" stroke-linejoin="bevel" stroke-miterlimit="10" x1="89.551" y1="14.554" x2="13.386" y2="87.317"/>
	
		<polyline fill="none" stroke="#466EAA" stroke-width="2" stroke-linecap="round" stroke-linejoin="bevel" stroke-miterlimit="10" points="
		69.279,14.554 89.551,14.554 89.551,34.887 	"/>
</g>
</svg>
