<?xml version="1.0" encoding="utf-8"?>
<!-- Generator: Adobe Illustrator 15.1.0, SVG Export Plug-In . SVG Version: 6.00 Build 0)  -->
<!DOCTYPE svg PUBLIC "-//W3C//DTD SVG 1.1//EN" "http://www.w3.org/Graphics/SVG/1.1/DTD/svg11.dtd">
<svg version="1.1" id="Layer_1" xmlns="http://www.w3.org/2000/svg" xmlns:xlink="http://www.w3.org/1999/xlink" x="0px" y="0px"
	 width="120px" height="100px" viewBox="0 0 120 100" enable-background="new 0 0 120 100" xml:space="preserve">
<g>
	<path fill="none" stroke="#466EAA" stroke-width="2" stroke-linecap="round" stroke-linejoin="round" stroke-miterlimit="10" d="
		M47.028,74.971c0.029,0.945,0.259,11.23-1.44,13.236l-6.943,8.451c-0.288,0.344-0.402,0.602-0.374,0.803h-0.028
		c0.172,1.834,1.584,1.518,3.255,1.518h18.408h0.404h18.436c1.584,0,2.939,0.287,3.198-1.316c0.144-0.229,0.059-0.545-0.316-1.004
		l-6.942-8.451c-1.699-2.006-1.471-12.291-1.44-13.236"/>
	<path fill="none" stroke="#466EAA" stroke-width="2" stroke-linecap="round" stroke-linejoin="round" stroke-miterlimit="10" d="
		M115.622,1H4.652c-1.93,0-3.515,1.633-3.515,3.667v0.115v65.033v0.973c0,2.035,1.584,3.668,3.515,3.668h110.97
		c1.93,0,3.515-1.633,3.515-3.668v-0.973V4.782V4.667C119.137,2.633,117.552,1,115.622,1z M113.172,64.256H6.986V6.042h106.186
		V64.256z"/>
</g>
</svg>
