<svg width="24" height="24" viewBox="0 0 24 24" fill="none" xmlns="http://www.w3.org/2000/svg">
<path d="M13.6616 4.91815H16.3109L12.2559 0.652344V3.50696C12.2559 4.28021 12.883 4.91815 13.6616 4.91815Z" fill="white"/>
<path d="M9.26569 15.6791H4.5672C4.32935 15.6791 4.1347 15.4847 4.1347 15.2466C4.1347 15.0088 4.32935 14.8141 4.5672 14.8141H9.55225C9.82782 14.1114 10.1955 13.5165 10.6498 12.9218H4.5672C4.32935 12.9218 4.1347 12.7273 4.1347 12.4893C4.1347 12.2514 4.32935 12.0568 4.5672 12.0568H11.4716C12.769 10.9213 14.4884 10.197 16.3645 10.197C16.5428 10.197 16.689 10.2131 16.9052 10.2294V5.78503H13.6611C12.4069 5.78503 11.3904 4.75781 11.3904 3.50885V0H3.09668C2.02606 0 1.17188 0.875793 1.17188 1.95172V18.4528C1.17188 19.5287 2.02606 20.3829 3.09668 20.3829H9.61157C9.23859 19.5179 9.03314 18.5447 9.03314 17.5283C9.02765 16.8904 9.11426 16.2739 9.26569 15.6791ZM4.5672 9.35339H10.0443C10.2821 9.35339 10.4767 9.54803 10.4767 9.78607C10.4767 10.0239 10.2821 10.2186 10.0443 10.2186H4.5672C4.32935 10.2186 4.1347 10.0239 4.1347 9.78607C4.1347 9.54803 4.32935 9.35339 4.5672 9.35339Z" fill="white"/>
<path d="M16.3593 11.0776C12.7964 11.0776 9.89844 13.9755 9.89844 17.5385C9.89844 21.1014 12.7964 23.9994 16.3593 23.9994C19.9224 23.9994 22.8204 21.1014 22.8204 17.5385C22.8204 13.9755 19.9224 11.0776 16.3593 11.0776ZM16.3487 17.0736C17.6517 17.0736 18.7058 18.1332 18.7058 19.4307C18.7058 20.5986 17.8571 21.5665 16.7433 21.7556V22.3828C16.7433 22.6208 16.5486 22.8154 16.3108 22.8154C16.0729 22.8154 15.8783 22.6208 15.8783 22.3828V21.7395C14.8024 21.5178 13.9914 20.5662 13.9914 19.4307C13.9914 19.1929 14.186 18.9982 14.4239 18.9982C14.6617 18.9982 14.8564 19.1929 14.8564 19.4307C14.8564 20.2527 15.5269 20.923 16.3487 20.923C17.1705 20.923 17.8408 20.2525 17.8408 19.4307C17.8408 18.6089 17.1705 17.9386 16.3487 17.9386C15.0457 17.9386 13.9914 16.8788 13.9914 15.5813C13.9914 14.4404 14.8024 13.489 15.8783 13.2727V12.8131C15.8783 12.5751 16.0729 12.3804 16.3108 12.3804C16.5486 12.3804 16.7433 12.5751 16.7433 12.8131V13.2509C17.8571 13.4402 18.7058 14.408 18.7058 15.5758C18.7058 15.8137 18.5114 16.0083 18.2733 16.0083C18.0355 16.0083 17.8408 15.8137 17.8408 15.5758C17.8408 14.7864 17.2245 14.1377 16.4459 14.0837C16.4027 14.0998 16.354 14.1053 16.3053 14.1053C16.2621 14.1053 16.2242 14.0998 16.181 14.089C15.4348 14.1701 14.8511 14.8027 14.8511 15.5758C14.8564 16.4031 15.5267 17.0736 16.3487 17.0736Z" fill="white"/>
</svg>
