<svg preserveAspectRatio="xMinYMin slice" viewBox="0 0 1440 1314" fill="none" xmlns="http://www.w3.org/2000/svg">
<path d="M305.348 1207.75C305.558 1208.11 305.938 1208.33 306.358 1208.33H316.747C317.167 1208.33 317.547 1208.11 317.757 1207.75L322.957 1198.75C323.167 1198.39 323.167 1197.94 322.957 1197.58L318.147 1189.24L317.767 1188.58C317.557 1188.22 317.177 1188 316.757 1188H316.178H306.367C305.947 1188 305.568 1188.22 305.358 1188.58L300.157 1197.58C299.948 1197.94 299.948 1198.39 300.157 1198.75L305.348 1207.75ZM314.807 1190.33H316.087L316.798 1191.56L320.608 1198.17L316.087 1206H307.038L302.517 1198.17L307.038 1190.34H314.807V1190.33Z" fill="#67CDF5" fill-opacity="0.5"/>
<path d="M513.41 956.29C512.91 956.12 512.39 956 511.83 956C509.16 956 507 958.17 507 960.83C507 963.49 509.17 965.66 511.83 965.66C512.39 965.66 512.91 965.55 513.41 965.37C513.99 965.17 514.52 964.86 514.98 964.46C516 963.57 516.67 962.28 516.67 960.82C516.67 959.36 516.01 958.07 514.98 957.18C514.52 956.8 513.99 956.49 513.41 956.29Z" fill="#67CDF5" fill-opacity="0.5"/>
<path d="M273.096 1247.03H283.826C283.706 1246.65 283.616 1246.25 283.616 1245.82C283.616 1245.39 283.696 1244.99 283.826 1244.61H273.096C273.216 1244.99 273.306 1245.4 273.306 1245.82C273.306 1246.24 273.216 1246.64 273.096 1247.03Z" fill="#67CDF5" fill-opacity="0.5"/>
<path d="M268.495 1241.94L261.605 1230.01L268.495 1218.08C268.085 1217.99 267.715 1217.83 267.355 1217.63C266.995 1217.42 266.675 1217.17 266.405 1216.86L259.165 1229.41C258.945 1229.78 258.945 1230.24 259.165 1230.62L266.405 1243.17C266.685 1242.87 267.005 1242.61 267.355 1242.4C267.705 1242.19 268.085 1242.03 268.495 1241.94Z" fill="#67CDF5" fill-opacity="0.5"/>
<path d="M273.096 1215.41H283.826C283.706 1215.03 283.616 1214.62 283.616 1214.2C283.616 1213.78 283.696 1213.37 283.826 1212.99H273.096C273.216 1213.37 273.306 1213.77 273.306 1214.2C273.306 1214.63 273.216 1215.03 273.096 1215.41Z" fill="#67CDF5" fill-opacity="0.5"/>
<path d="M294.824 1201.77C294.464 1201.56 294.144 1201.31 293.874 1201L288.484 1210.34C288.894 1210.43 289.264 1210.59 289.614 1210.8C289.974 1211.01 290.284 1211.28 290.554 1211.58L295.964 1202.21C295.554 1202.13 295.174 1201.97 294.824 1201.77Z" fill="#67CDF5" fill-opacity="0.5"/>
<path d="M289.656 1217.58C289.626 1217.6 289.596 1217.61 289.566 1217.63C289.246 1217.82 288.896 1217.96 288.526 1218.05C288.496 1218.06 288.456 1218.07 288.426 1218.08L293.776 1227.35C293.796 1227.32 293.816 1227.29 293.846 1227.27C294.106 1227 294.406 1226.78 294.726 1226.59C294.756 1226.57 294.786 1226.56 294.816 1226.54C295.146 1226.36 295.486 1226.22 295.866 1226.14C295.906 1226.13 295.936 1226.13 295.976 1226.12L290.586 1216.78C290.566 1216.81 290.546 1216.84 290.516 1216.86C290.266 1217.14 289.976 1217.38 289.656 1217.58Z" fill="#67CDF5" fill-opacity="0.5"/>
<path d="M288.506 1249.67L293.876 1258.97C294.156 1258.67 294.476 1258.41 294.826 1258.2C295.176 1258 295.556 1257.84 295.966 1257.75L290.576 1248.41C290.306 1248.72 289.996 1248.99 289.636 1249.2C289.286 1249.41 288.906 1249.57 288.506 1249.67Z" fill="#67CDF5" fill-opacity="0.5"/>
<path d="M295.876 1233.89C295.496 1233.81 295.136 1233.66 294.806 1233.47C294.786 1233.46 294.756 1233.45 294.736 1233.43C294.406 1233.24 294.096 1233 293.836 1232.73C293.816 1232.71 293.806 1232.69 293.786 1232.67L288.436 1241.94C288.466 1241.95 288.486 1241.96 288.516 1241.96C288.896 1242.05 289.246 1242.2 289.576 1242.39C289.596 1242.4 289.626 1242.41 289.646 1242.43C289.976 1242.63 290.276 1242.87 290.536 1243.16C290.556 1243.18 290.566 1243.2 290.586 1243.22L295.966 1233.9C295.926 1233.9 295.896 1233.89 295.876 1233.89Z" fill="#67CDF5" fill-opacity="0.5"/>
<path d="M283.825 1244.61C283.705 1244.99 283.615 1245.4 283.615 1245.82C283.615 1246.24 283.695 1246.65 283.825 1247.03C284.335 1248.63 285.815 1249.79 287.585 1249.79C287.905 1249.79 288.205 1249.74 288.505 1249.67C288.905 1249.57 289.285 1249.41 289.635 1249.2C289.985 1248.99 290.305 1248.72 290.575 1248.41C291.185 1247.71 291.565 1246.81 291.565 1245.82C291.565 1244.82 291.185 1243.92 290.575 1243.23C290.555 1243.21 290.545 1243.19 290.525 1243.17C290.265 1242.88 289.965 1242.64 289.635 1242.44C289.615 1242.43 289.585 1242.42 289.565 1242.4C289.235 1242.21 288.885 1242.06 288.505 1241.97C288.475 1241.96 288.455 1241.95 288.425 1241.95C288.155 1241.89 287.875 1241.86 287.585 1241.86C285.815 1241.85 284.335 1243.01 283.825 1244.61Z" fill="#67CDF5" fill-opacity="0.5"/>
<path d="M273.095 1215.41C273.215 1215.03 273.305 1214.62 273.305 1214.2C273.305 1213.78 273.225 1213.37 273.095 1212.99C272.585 1211.39 271.105 1210.23 269.335 1210.23C267.145 1210.23 265.365 1212.01 265.365 1214.2C265.365 1215.23 265.765 1216.15 266.405 1216.86C266.685 1217.16 267.005 1217.42 267.355 1217.63C267.705 1217.83 268.085 1217.99 268.495 1218.08C268.765 1218.14 269.045 1218.17 269.335 1218.17C271.105 1218.17 272.585 1217.01 273.095 1215.41Z" fill="#67CDF5" fill-opacity="0.5"/>
<path d="M283.825 1212.99C283.705 1213.37 283.615 1213.77 283.615 1214.2C283.615 1214.62 283.695 1215.03 283.825 1215.41C284.335 1217.01 285.815 1218.17 287.585 1218.17C287.875 1218.17 288.155 1218.14 288.425 1218.08C288.455 1218.07 288.495 1218.06 288.525 1218.05C288.895 1217.96 289.235 1217.81 289.565 1217.63C289.595 1217.61 289.625 1217.6 289.655 1217.58C289.975 1217.38 290.265 1217.14 290.515 1216.86C290.535 1216.83 290.565 1216.8 290.585 1216.78C291.185 1216.09 291.555 1215.19 291.555 1214.21C291.555 1213.2 291.165 1212.3 290.555 1211.6C290.285 1211.29 289.965 1211.03 289.615 1210.82C289.265 1210.61 288.895 1210.45 288.485 1210.36C288.195 1210.29 287.905 1210.25 287.595 1210.25C285.815 1210.23 284.335 1211.4 283.825 1212.99Z" fill="#67CDF5" fill-opacity="0.5"/>
<path d="M267.355 1242.39C266.995 1242.6 266.675 1242.85 266.405 1243.16C265.765 1243.86 265.365 1244.79 265.365 1245.82C265.365 1248.01 267.145 1249.79 269.335 1249.79C271.105 1249.79 272.585 1248.63 273.095 1247.03C273.215 1246.65 273.305 1246.25 273.305 1245.82C273.305 1245.39 273.225 1244.99 273.095 1244.61C272.585 1243.01 271.105 1241.85 269.335 1241.85C269.045 1241.85 268.765 1241.88 268.495 1241.94C268.085 1242.03 267.705 1242.19 267.355 1242.39Z" fill="#67CDF5" fill-opacity="0.5"/>
<path d="M332.488 1264.21L328.658 1257.58C328.448 1257.22 328.067 1257 327.647 1257H319.998C319.578 1257 319.198 1257.22 318.988 1257.58L315.577 1263.49L315.157 1264.21C314.948 1264.57 314.948 1265.02 315.157 1265.38L315.418 1265.82L318.988 1272C319.198 1272.36 319.578 1272.58 319.998 1272.58H327.647C328.067 1272.58 328.448 1272.36 328.658 1272L332.488 1265.37C332.698 1265.02 332.698 1264.57 332.488 1264.21ZM320.678 1270.25L318.137 1265.85L317.527 1264.79L318.257 1263.52L320.678 1259.33H326.988L330.137 1264.79L326.988 1270.25H320.678Z" fill="#67CDF5" fill-opacity="0.5"/>
<path d="M425.139 996.667C436.788 1006.1 476.171 1027.18 476.171 1027.18C476.171 1027.18 513.89 1008.32 526.647 998.331V774.041C526.647 695.32 423 695.32 423 774.041L425.139 996.667Z" fill="url(#paint0_linear)"/>
<path d="M604.961 1080.99C615.638 1090.2 651.735 1110.77 651.735 1110.77C651.735 1110.77 686.307 1092.36 698 1082.62V928.637C698 851.788 603 851.788 603 928.637L604.961 1080.99Z" fill="url(#paint1_linear)"/>
<path d="M627.175 1092.77L594.436 1110.28C592.38 1111.38 589.9 1111.34 587.887 1110.16L554.893 1090.85C552.919 1089.7 550.493 1089.63 548.456 1090.67L514 1108.28" stroke="url(#paint2_linear)" stroke-width="2.51426"/>
<path d="M339.174 1199.82L306.19 1219.17C302.932 1221.08 303.066 1224.17 306.486 1225.98L335.158 1241.2C338.538 1242.99 338.715 1246.03 335.552 1247.95L306.098 1265.84" stroke="url(#paint3_linear)" stroke-width="2.51426"/>
<path d="M477.711 1002L444.727 1021.35C441.469 1023.26 441.603 1026.35 445.023 1028.17L473.695 1043.38C477.075 1045.17 477.252 1048.22 474.089 1050.14L444.635 1068.02" stroke="url(#paint4_linear)" stroke-width="2.51426"/>
<path d="M219.112 1128.71C216.006 1126.91 214.928 1118.29 218.034 1116.49L371.831 1034.01C374.937 1032.22 379.971 1032.22 383.077 1034.01L541.368 1119.09C544.474 1120.88 543.621 1129.64 540.515 1131.43L387.796 1219.63C384.691 1221.42 379.656 1221.42 376.55 1219.63L219.112 1128.71Z" fill="#00074D"/>
<rect x="0.725802" width="188.507" height="193.956" rx="7.24252" transform="matrix(0.866024 -0.500002 0.866024 0.500002 213.658 1119.56)" fill="url(#paint5_linear)" stroke="#0D1253" stroke-width="0.838085"/>
<path d="M429.457 1003.81C428.533 1003.28 428.019 999.495 428.942 998.962L474.868 975.655C475.791 975.121 477.288 975.121 478.212 975.655L525.252 999.401C526.175 999.935 525.95 1004.09 525.026 1004.62L479.615 1030.85C478.692 1031.38 477.195 1031.38 476.271 1030.85L429.457 1003.81Z" fill="#1D6F81"/>
<rect x="0.725749" width="55.4638" height="57.0843" rx="1.25713" transform="matrix(0.86596 -0.500113 0.86596 0.500113 427.882 999.519)" fill="url(#paint6_linear)" stroke="#378A9C" stroke-width="0.838085"/>
<path d="M251.521 1153.3C250.961 1152.67 251.291 1151.32 251.521 1151.18L259.344 1147.6C259.573 1147.47 259.945 1147.47 260.174 1147.6L271.555 1154.27C271.784 1154.4 271.728 1156.27 271.499 1156.4L263.954 1160.21C263.725 1160.35 263.354 1160.35 263.125 1160.21L251.521 1153.3Z" fill="#00074D"/>
<path d="M252.051 1151.66C251.65 1151.43 251.674 1151.05 252.102 1150.84L258.782 1147.5C259.169 1147.31 259.748 1147.32 260.11 1147.53L271.103 1153.88C271.503 1154.11 271.479 1154.49 271.051 1154.7L264.371 1158.04C263.985 1158.23 263.405 1158.22 263.044 1158.01L252.051 1151.66Z" fill="#182A8D" stroke="url(#paint7_linear)" stroke-width="0.0838085"/>
<path d="M332.007 1196.89C331.448 1196.26 331.778 1194.91 332.007 1194.78L339.83 1191.19C340.06 1191.06 340.431 1191.06 340.66 1191.19L352.041 1197.86C352.27 1197.99 352.214 1199.86 351.985 1200L344.441 1203.81C344.212 1203.94 343.84 1203.94 343.611 1203.81L332.007 1196.89Z" fill="#00074D"/>
<path d="M332.535 1195.26C332.135 1195.03 332.158 1194.65 332.587 1194.43L339.267 1191.1C339.653 1190.9 340.232 1190.92 340.594 1191.12L351.587 1197.47C351.987 1197.7 351.964 1198.08 351.536 1198.3L344.856 1201.63C344.469 1201.83 343.89 1201.82 343.528 1201.61L332.535 1195.26Z" fill="#182A8D" stroke="url(#paint8_linear)" stroke-width="0.0838085"/>
<path d="M257.89 1156.02L225.151 1173.53C223.095 1174.63 220.615 1174.58 218.602 1173.4L185.608 1154.1C183.634 1152.94 181.208 1152.87 179.171 1153.91L144.715 1171.52" stroke="url(#paint9_linear)" stroke-width="2.51426"/>
<path d="M87.2477 1194.69C86.3008 1194.14 85.7734 1190.26 86.7203 1189.71L133.814 1165.81C134.761 1165.27 136.296 1165.27 137.243 1165.81L185.48 1190.16C186.427 1190.71 186.196 1194.97 185.249 1195.52L138.682 1222.41C137.735 1222.96 136.2 1222.96 135.253 1222.41L87.2477 1194.69Z" fill="#1D6F81"/>
<rect x="0.725749" width="56.8962" height="58.5579" rx="1.25713" transform="matrix(0.86596 -0.500113 0.86596 0.500113 85.6305 1190.28)" fill="url(#paint10_linear)" stroke="#378A9C" stroke-width="0.838085"/>
<path d="M605.401 1084.41C604.489 1083.88 603.981 1080.14 604.893 1079.61L650.248 1056.6C651.16 1056.07 652.638 1056.07 653.55 1056.6L700.005 1080.05C700.917 1080.58 700.695 1084.68 699.783 1085.21L654.936 1111.11C654.024 1111.63 652.546 1111.63 651.634 1111.11L605.401 1084.41Z" fill="#1D6F81"/>
<rect x="0.725749" width="54.7638" height="56.3642" rx="1.25713" transform="matrix(0.86596 -0.500113 0.86596 0.500113 603.847 1080.17)" fill="url(#paint11_linear)" stroke="#378A9C" stroke-width="0.838085"/>
<line x1="2.49526" y1="-2.49526" x2="106.205" y2="-2.49526" transform="matrix(0.878194 -0.478305 0.4783 0.878196 330.629 1151.57)" stroke="#00074D" stroke-width="4.99052" stroke-linecap="round"/>
<path d="M327.732 1138.3L330.058 1139.08C330.316 1136.5 330.833 1127.41 330.833 1123.69C330.833 1119.97 327.732 1119.56 326.182 1119.82C327.422 1120.44 327.732 1122.66 327.732 1123.69V1138.3Z" fill="#A9C9DE"/>
<path d="M402.158 1098.17L404.484 1098.94C404.742 1096.36 405.259 1090.26 405.259 1086.54C405.259 1082.82 402.158 1082.41 400.607 1082.66C401.848 1083.28 402.158 1085.51 402.158 1086.54V1098.17Z" fill="#A9C9DE"/>
<path d="M323.08 1119.82L325.406 1120.59L326.181 1115.16H323.08V1119.82Z" fill="#A9C9DE"/>
<path d="M325.404 1120.59V1115.94L426.189 1067.1V1070.97C421.847 1072.21 421.279 1075.63 421.537 1077.18V1090.36L404.481 1098.88V1088.03C404.481 1086.48 403.706 1083.53 400.605 1084.15C396.264 1085.39 395.178 1088.81 395.178 1090.36V1103.54L330.056 1139.08V1125.24C330.056 1120.9 326.955 1120.33 325.404 1120.59Z" fill="#E3F0F9"/>
<path d="M320.524 1121.57V982.936L428.746 930.744V1066.76L320.524 1121.57Z" fill="url(#paint12_linear)" stroke="#2F2282" stroke-width="1.09017"/>
<path d="M421.537 926L429.29 929.876L319.977 982.595L313 978.718L421.537 926Z" fill="#273678"/>
<path d="M313 1118.63V978.718L319.977 982.594V1122.5L313 1118.63Z" fill="#0E2187"/>
<path d="M246.412 1286.03C245.49 1285.5 244.976 1281.72 245.899 1281.18L291.772 1257.9C292.694 1257.37 294.19 1257.37 295.112 1257.9L342.098 1281.62C343.021 1282.16 342.796 1286.3 341.873 1286.84L296.514 1313.03C295.591 1313.57 294.096 1313.57 293.174 1313.03L246.412 1286.03Z" fill="#1D6F81"/>
<rect x="0.725749" width="55.3997" height="57.0183" rx="1.25713" transform="matrix(0.86596 -0.500113 0.86596 0.500113 244.839 1281.74)" fill="url(#paint13_linear)" stroke="#378A9C" stroke-width="0.838085"/>
<path d="M467 38L877.882 392.962C881.366 395.971 880.85 401.516 876.87 403.831L620.773 552.791C616.34 555.37 616.325 561.768 620.745 564.367L784.079 660.393C788.497 662.99 788.485 669.384 784.057 671.965L597.088 780.953C595.027 782.154 593.76 784.36 593.76 786.745V1013.15C593.76 1015.42 592.615 1017.53 590.716 1018.77L482.598 1089.22" stroke="url(#paint14_linear)" stroke-width="2.51426"/>
<path d="M85.1394 1187.67C96.7879 1197.1 136.171 1218.18 136.171 1218.18C136.171 1218.18 173.89 1199.32 186.647 1189.33V965.041C186.647 886.32 83 886.32 83 965.041L85.1394 1187.67Z" fill="url(#paint15_linear)"/>
<path d="M243.139 1278.67C254.788 1288.1 294.171 1309.18 294.171 1309.18C294.171 1309.18 331.89 1290.32 344.647 1280.33V1056.04C344.647 977.32 241 977.32 241 1056.04L243.139 1278.67Z" fill="url(#paint16_linear)"/>
<path d="M498.611 861.5V864.163C498.706 864.133 498.805 864.111 498.912 864.111C499.016 864.111 499.118 864.131 499.212 864.163V861.5C499.118 861.53 499.016 861.552 498.912 861.552C498.805 861.552 498.706 861.53 498.611 861.5Z" fill="#67CDF5" fill-opacity="0.5"/>
<path d="M499.871 860.359L502.832 858.649L505.792 860.359C505.815 860.257 505.854 860.165 505.904 860.076C505.956 859.987 506.018 859.907 506.095 859.84L502.983 858.041C502.889 857.986 502.775 857.986 502.683 858.041L499.568 859.838C499.643 859.907 499.707 859.987 499.759 860.073C499.809 860.163 499.851 860.257 499.871 860.359Z" fill="#67CDF5" fill-opacity="0.5"/>
<path d="M506.455 861.5V864.163C506.549 864.133 506.651 864.111 506.755 864.111C506.86 864.111 506.961 864.131 507.056 864.163V861.5C506.961 861.53 506.86 861.552 506.755 861.552C506.651 861.552 506.552 861.53 506.455 861.5Z" fill="#67CDF5" fill-opacity="0.5"/>
<path d="M510.691 868.371C510.587 868.371 510.485 868.351 510.391 868.319V871.741L507.428 873.451C507.502 873.52 507.567 873.6 507.619 873.687C507.668 873.774 507.708 873.868 507.731 873.97L510.843 872.173C510.934 872.118 510.991 872.019 510.991 871.912V868.316C510.897 868.349 510.795 868.371 510.691 868.371Z" fill="#67CDF5" fill-opacity="0.5"/>
<path d="M509.843 866.894C509.895 866.804 509.957 866.725 510.034 866.658L507.716 865.32C507.694 865.422 507.654 865.514 507.602 865.601C507.55 865.69 507.483 865.767 507.408 865.834L509.734 867.177C509.751 867.075 509.791 866.981 509.843 866.894Z" fill="#67CDF5" fill-opacity="0.5"/>
<path d="M503.695 872.404C503.643 872.493 503.581 872.573 503.504 872.64L505.804 873.967C505.827 873.866 505.866 873.771 505.916 873.685C505.968 873.595 506.03 873.516 506.107 873.449L503.807 872.121C503.784 872.223 503.745 872.315 503.695 872.404Z" fill="#67CDF5" fill-opacity="0.5"/>
<path d="M505.919 865.61C505.914 865.602 505.911 865.595 505.906 865.588C505.859 865.508 505.824 865.421 505.802 865.33C505.8 865.322 505.797 865.312 505.795 865.305L503.494 866.632C503.502 866.637 503.509 866.642 503.514 866.65C503.581 866.714 503.636 866.789 503.683 866.868C503.688 866.876 503.69 866.883 503.695 866.89C503.74 866.972 503.775 867.057 503.794 867.151C503.797 867.161 503.797 867.168 503.799 867.178L506.117 865.841C506.11 865.836 506.102 865.831 506.097 865.823C506.028 865.761 505.968 865.689 505.919 865.61Z" fill="#67CDF5" fill-opacity="0.5"/>
<path d="M497.952 865.324L495.645 866.657C495.719 866.726 495.784 866.806 495.836 866.893C495.885 866.979 495.925 867.074 495.947 867.176L498.265 865.838C498.188 865.771 498.121 865.694 498.069 865.605C498.017 865.518 497.977 865.423 497.952 865.324Z" fill="#67CDF5" fill-opacity="0.5"/>
<path d="M502.848 868.344C502.843 868.344 502.84 868.346 502.835 868.346C502.734 868.346 502.639 868.326 502.548 868.299C502.543 868.297 502.54 868.297 502.535 868.294V870.982C502.54 870.979 502.543 870.979 502.548 870.977C502.639 870.947 502.734 870.927 502.835 870.927C502.84 870.927 502.843 870.925 502.848 870.925C502.95 870.925 503.044 870.944 503.136 870.972C503.141 870.974 503.143 870.974 503.148 870.977V868.289C503.143 868.292 503.141 868.292 503.136 868.294C503.044 868.324 502.947 868.344 502.848 868.344Z" fill="#67CDF5" fill-opacity="0.5"/>
<path d="M501.881 872.117L499.568 873.452C499.643 873.522 499.707 873.601 499.759 873.688C499.809 873.775 499.849 873.869 499.871 873.971L502.179 872.638C502.105 872.569 502.043 872.489 501.99 872.4C501.943 872.313 501.904 872.219 501.881 872.117Z" fill="#67CDF5" fill-opacity="0.5"/>
<path d="M495.288 868.316C495.194 868.346 495.092 868.369 494.988 868.369C494.884 868.369 494.782 868.349 494.688 868.316V871.912C494.688 872.019 494.745 872.118 494.836 872.173L497.948 873.97C497.971 873.868 498.01 873.774 498.06 873.687C498.112 873.597 498.174 873.518 498.251 873.451L495.288 871.741V868.316Z" fill="#67CDF5" fill-opacity="0.5"/>
<path d="M501.872 867.155C501.892 867.061 501.929 866.971 501.976 866.889C501.979 866.884 501.981 866.877 501.986 866.872C502.033 866.79 502.093 866.713 502.16 866.649C502.165 866.644 502.17 866.641 502.175 866.636L499.874 865.309C499.872 865.316 499.869 865.321 499.869 865.328C499.847 865.423 499.81 865.51 499.763 865.592C499.76 865.596 499.758 865.604 499.753 865.609C499.703 865.691 499.643 865.765 499.572 865.83C499.567 865.835 499.562 865.837 499.557 865.842L501.87 867.177C501.87 867.167 501.87 867.16 501.872 867.155Z" fill="#67CDF5" fill-opacity="0.5"/>
<path d="M499.211 864.158C499.117 864.128 499.015 864.105 498.911 864.105C498.807 864.105 498.705 864.125 498.611 864.158C498.214 864.284 497.926 864.651 497.926 865.091C497.926 865.17 497.938 865.245 497.956 865.319C497.98 865.418 498.02 865.513 498.072 865.599C498.124 865.686 498.191 865.766 498.268 865.833C498.442 865.984 498.665 866.078 498.911 866.078C499.159 866.078 499.383 865.984 499.554 865.833C499.559 865.828 499.564 865.825 499.569 865.82C499.641 865.756 499.7 865.681 499.75 865.599C499.752 865.594 499.755 865.587 499.76 865.582C499.807 865.5 499.844 865.413 499.866 865.319C499.869 865.312 499.871 865.307 499.871 865.299C499.886 865.232 499.894 865.163 499.894 865.091C499.896 864.651 499.606 864.284 499.211 864.158Z" fill="#67CDF5" fill-opacity="0.5"/>
<path d="M506.454 861.496C506.549 861.526 506.651 861.549 506.755 861.549C506.859 861.549 506.961 861.529 507.055 861.496C507.452 861.37 507.74 861.003 507.74 860.563C507.74 860.02 507.298 859.578 506.755 859.578C506.499 859.578 506.271 859.677 506.095 859.836C506.02 859.906 505.956 859.985 505.904 860.072C505.854 860.159 505.814 860.253 505.792 860.355C505.777 860.422 505.77 860.491 505.77 860.563C505.77 861.003 506.06 861.37 506.454 861.496Z" fill="#67CDF5" fill-opacity="0.5"/>
<path d="M503.147 870.974C503.142 870.972 503.139 870.972 503.134 870.969C503.043 870.942 502.948 870.922 502.847 870.922C502.842 870.922 502.839 870.924 502.834 870.924C502.732 870.927 502.638 870.944 502.546 870.974C502.541 870.976 502.539 870.976 502.534 870.979C502.144 871.11 501.861 871.475 501.861 871.91C501.861 871.979 501.869 872.046 501.884 872.113C501.906 872.215 501.946 872.309 501.995 872.396C502.045 872.485 502.11 872.565 502.184 872.634C502.36 872.796 502.591 872.897 502.849 872.897C503.105 872.897 503.333 872.798 503.509 872.639C503.584 872.57 503.648 872.49 503.7 872.403C503.75 872.317 503.79 872.222 503.812 872.121C503.827 872.054 503.834 871.984 503.834 871.912C503.832 871.468 503.541 871.101 503.147 870.974Z" fill="#67CDF5" fill-opacity="0.5"/>
<path d="M507.055 864.158C506.961 864.128 506.859 864.105 506.755 864.105C506.651 864.105 506.549 864.125 506.454 864.158C506.057 864.284 505.77 864.651 505.77 865.091C505.77 865.163 505.777 865.232 505.792 865.299C505.794 865.307 505.797 865.317 505.799 865.324C505.822 865.416 505.859 865.5 505.904 865.582C505.909 865.59 505.911 865.597 505.916 865.604C505.966 865.684 506.025 865.756 506.095 865.818C506.102 865.823 506.11 865.83 506.114 865.835C506.286 865.984 506.509 866.076 506.752 866.076C507.003 866.076 507.226 865.979 507.4 865.828C507.477 865.761 507.541 865.681 507.594 865.594C507.646 865.508 507.685 865.416 507.708 865.314C507.725 865.242 507.735 865.17 507.735 865.093C507.74 864.651 507.452 864.284 507.055 864.158Z" fill="#67CDF5" fill-opacity="0.5"/>
<path d="M499.76 860.072C499.708 859.983 499.646 859.903 499.569 859.836C499.395 859.677 499.165 859.578 498.909 859.578C498.366 859.578 497.924 860.02 497.924 860.563C497.924 861.003 498.212 861.37 498.609 861.496C498.703 861.526 498.802 861.549 498.909 861.549C499.013 861.549 499.115 861.529 499.209 861.496C499.606 861.37 499.894 861.003 499.894 860.563C499.894 860.491 499.887 860.422 499.872 860.355C499.852 860.253 499.81 860.159 499.76 860.072Z" fill="#67CDF5" fill-opacity="0.5"/>
<path d="M499.76 873.685C499.708 873.596 499.646 873.517 499.569 873.449C499.395 873.291 499.165 873.191 498.909 873.191C498.653 873.191 498.425 873.291 498.249 873.449C498.174 873.519 498.11 873.598 498.058 873.685C498.008 873.772 497.969 873.866 497.946 873.968C497.931 874.035 497.924 874.105 497.924 874.177C497.924 874.72 498.366 875.162 498.909 875.162C499.453 875.162 499.894 874.72 499.894 874.177C499.894 874.105 499.887 874.035 499.872 873.968C499.852 873.866 499.81 873.772 499.76 873.685Z" fill="#67CDF5" fill-opacity="0.5"/>
<path d="M507.62 873.685C507.568 873.596 507.505 873.517 507.429 873.449C507.255 873.291 507.024 873.191 506.768 873.191C506.513 873.191 506.285 873.291 506.108 873.449C506.034 873.519 505.969 873.598 505.917 873.685C505.868 873.772 505.828 873.866 505.806 873.968C505.791 874.035 505.783 874.105 505.783 874.177C505.783 874.72 506.225 875.162 506.768 875.162C507.312 875.162 507.754 874.72 507.754 874.177C507.754 874.105 507.746 874.035 507.731 873.968C507.709 873.866 507.669 873.772 507.62 873.685Z" fill="#67CDF5" fill-opacity="0.5"/>
<path d="M510.692 866.396C510.437 866.396 510.208 866.495 510.032 866.654C509.958 866.723 509.893 866.803 509.841 866.889C509.791 866.976 509.752 867.071 509.729 867.172C509.714 867.239 509.707 867.309 509.707 867.381C509.707 867.82 509.995 868.187 510.392 868.314C510.486 868.344 510.586 868.366 510.692 868.366C510.799 868.366 510.898 868.346 510.993 868.314C511.39 868.187 511.677 867.82 511.677 867.381C511.677 866.835 511.236 866.396 510.692 866.396Z" fill="#67CDF5" fill-opacity="0.5"/>
<path d="M495.836 866.889C495.784 866.8 495.722 866.721 495.645 866.654C495.472 866.495 495.241 866.396 494.985 866.396C494.442 866.396 494 866.837 494 867.381C494 867.82 494.288 868.187 494.685 868.314C494.779 868.344 494.881 868.366 494.985 868.366C495.089 868.366 495.191 868.346 495.286 868.314C495.683 868.187 495.97 867.82 495.97 867.381C495.97 867.309 495.963 867.239 495.948 867.172C495.928 867.071 495.889 866.976 495.836 866.889Z" fill="#67CDF5" fill-opacity="0.5"/>
<path d="M503.796 867.148C503.776 867.056 503.739 866.969 503.697 866.887C503.692 866.88 503.689 866.872 503.684 866.865C503.637 866.783 503.582 866.709 503.515 866.647C503.508 866.639 503.5 866.634 503.495 866.629C503.322 866.47 503.091 866.371 502.835 866.371C502.58 866.371 502.351 866.47 502.175 866.629C502.17 866.634 502.165 866.637 502.16 866.642C502.091 866.706 502.034 866.783 501.987 866.865C501.984 866.87 501.982 866.877 501.977 866.882C501.932 866.964 501.895 867.054 501.872 867.148C501.87 867.155 501.87 867.16 501.868 867.168C501.855 867.23 501.848 867.292 501.848 867.356C501.848 867.796 502.136 868.163 502.533 868.289C502.538 868.292 502.54 868.292 502.545 868.294C502.637 868.322 502.731 868.342 502.833 868.342C502.838 868.342 502.84 868.339 502.845 868.339C502.947 868.337 503.041 868.319 503.133 868.289C503.138 868.287 503.141 868.287 503.146 868.284C503.535 868.153 503.818 867.788 503.818 867.354C503.818 867.292 503.811 867.23 503.801 867.173C503.798 867.165 503.798 867.155 503.796 867.148Z" fill="#67CDF5" fill-opacity="0.5"/>
<path d="M469.386 927.453L479.628 927.58L479.484 927.336C479.367 927.136 479.367 926.886 479.484 926.686L479.717 926.286L469.275 926.158L464.796 918.4L470.214 909.169H469.892C469.658 909.169 469.447 909.047 469.331 908.847L469.119 908.48L463.651 917.794H454.871L449.625 908.558L451.731 904.913C451.848 904.713 451.848 904.462 451.731 904.262L449.458 900.322C449.341 900.122 449.13 900 448.897 900H444.351C444.117 900 443.906 900.122 443.79 900.322L441.517 904.262C441.4 904.462 441.4 904.713 441.517 904.913L443.79 908.853C443.906 909.053 444.117 909.175 444.351 909.175H448.485L453.648 918.261L449.158 926.036H441.244L441.533 926.541C441.65 926.741 441.65 926.991 441.533 927.191L441.45 927.336H448.902L453.537 935.361L450.258 941.162H447.841C447.607 941.162 447.396 941.285 447.279 941.485L445.807 944.041H443.012L441.95 942.207C441.833 942.007 441.622 941.885 441.389 941.885H438.894C438.66 941.885 438.449 942.007 438.332 942.207L437.088 944.369C436.971 944.569 436.971 944.819 437.088 945.019L438.332 947.181C438.449 947.381 438.66 947.503 438.894 947.503H441.389C441.622 947.503 441.833 947.381 441.95 947.181L443.012 945.347H445.807L447.018 947.448L445.168 950.565H442.884C442.65 950.565 442.439 950.687 442.322 950.887L441.078 953.044C440.961 953.244 440.961 953.494 441.078 953.694L442.322 955.856C442.439 956.056 442.65 956.178 442.884 956.178H445.379C445.612 956.178 445.823 956.056 445.94 955.856L447.185 953.694C447.302 953.494 447.302 953.244 447.185 953.044L446.207 951.349L448.063 948.226H450.814L452.776 951.421L451.859 953.01C451.742 953.21 451.742 953.46 451.859 953.661L453.103 955.822C453.22 956.022 453.431 956.145 453.665 956.145H456.16C456.393 956.145 456.605 956.022 456.721 955.822L457.966 953.661C458.083 953.46 458.083 953.21 457.966 953.01L456.721 950.854C456.605 950.654 456.393 950.532 456.16 950.532H453.748L451.925 947.57L453.392 945.03C453.509 944.83 453.509 944.58 453.392 944.38L451.731 941.501C451.703 941.457 451.659 941.435 451.625 941.396L454.654 936.033H463.095L467.641 945.175L466.441 947.259C466.324 947.459 466.324 947.709 466.441 947.909L468.102 950.787C468.219 950.988 468.43 951.11 468.664 951.11H471.987C472.22 951.11 472.431 950.988 472.548 950.787L474.21 947.909C474.326 947.709 474.326 947.459 474.21 947.259L472.548 944.38C472.431 944.18 472.22 944.058 471.987 944.058H468.664C468.625 944.058 468.586 944.08 468.547 944.091L464.462 935.877C464.524 935.827 464.585 935.783 464.629 935.711L469.386 927.453ZM444.723 907.869L442.823 904.579L444.723 901.289H448.524L450.425 904.579L448.886 907.247L448.524 907.869H447.752H444.723ZM443.262 954.861L442.389 953.349L443.262 951.838H444.401H445.007L445.451 952.61L445.879 953.349L445.007 954.861H443.262ZM455.788 951.804L456.66 953.316L455.788 954.828H455.615H454.976H454.043L453.17 953.316L453.548 952.66L454.043 951.81H454.548H455.788V951.804ZM450.797 946.914H450.019H448.836H448.502H448.224L447.785 946.153L447.613 945.858L447.307 945.33L446.935 944.68L447.307 944.03L448.219 942.446H449.53H450.792L450.903 942.641L452.075 944.675L451.147 946.281L450.797 946.914ZM441.895 944.68L441.522 945.33L441.022 946.192H439.277L438.682 945.164L438.477 944.813L438.399 944.68L438.477 944.547L438.682 944.197L439.277 943.168H441.022L441.522 944.03L441.895 944.68ZM469.18 945.33H471.615L472.904 947.559L471.615 949.787H469.036L467.747 947.559L468.33 946.542L469.03 945.325H469.18V945.33ZM463.696 934.716H462.456H455.393H454.676L454.287 934.044L450.408 927.33L450.164 926.903L450.664 926.036L454.398 919.567L454.676 919.089H455.615H462.895H463.701L464.046 919.689L467.775 926.147L468.214 926.908L467.902 927.447L463.812 934.533L463.696 934.716Z" fill="#67CDF5" fill-opacity="0.5"/>
<path d="M466.78 926.124L463.546 920.523L463.39 920.256C463.274 920.056 463.062 919.934 462.829 919.934H462.39H456.088H455.527C455.293 919.934 455.082 920.056 454.965 920.256L454.871 920.417L451.631 926.03L451.32 926.574C451.203 926.775 451.203 927.025 451.32 927.225L451.381 927.33L454.76 933.188L454.965 933.543C455.082 933.743 455.293 933.866 455.527 933.866H455.86H462.023H462.823C463.029 933.866 463.212 933.754 463.335 933.593C463.351 933.577 463.374 933.565 463.385 933.543L466.919 927.425L467.036 927.225C467.152 927.025 467.152 926.775 467.036 926.574L466.78 926.124ZM462.457 932.571H461.39H456.605H455.91L455.51 931.876L452.887 927.33L452.643 926.902L453.143 926.035L455.627 921.729L455.916 921.234H456.838H461.64H462.462L462.796 921.818L465.274 926.113L465.73 926.902L465.435 927.408L462.657 932.221L462.457 932.571Z" fill="#67CDF5" fill-opacity="0.5"/>
<path d="M470.691 906.228C470.413 906.133 470.124 906.066 469.813 906.066C468.329 906.066 467.129 907.272 467.129 908.751C467.129 910.234 468.335 911.435 469.813 911.435C470.124 911.435 470.413 911.374 470.691 911.274C471.013 911.162 471.308 910.99 471.564 910.768C472.13 910.273 472.503 909.556 472.503 908.745C472.503 907.934 472.136 907.217 471.564 906.722C471.308 906.511 471.013 906.339 470.691 906.228Z" fill="#67CDF5" fill-opacity="0.5"/>
<path d="M480.595 924.368C480.318 924.274 480.029 924.207 479.717 924.207C478.234 924.207 477.033 925.413 477.033 926.891C477.033 928.375 478.239 929.575 479.717 929.575C480.029 929.575 480.318 929.514 480.595 929.414C480.918 929.303 481.212 929.131 481.468 928.908C482.035 928.414 482.407 927.697 482.407 926.886C482.407 926.074 482.04 925.357 481.468 924.863C481.212 924.657 480.918 924.485 480.595 924.368Z" fill="#67CDF5" fill-opacity="0.5"/>
<path d="M440.704 924.466C440.527 924.416 440.343 924.383 440.149 924.383C439.176 924.383 438.365 925.055 438.137 925.961C438.098 926.122 438.07 926.289 438.07 926.467C438.07 926.639 438.098 926.811 438.137 926.972C438.365 927.878 439.176 928.551 440.149 928.551C441.299 928.551 442.233 927.617 442.233 926.472C442.233 925.883 441.983 925.35 441.582 924.972C441.338 924.727 441.038 924.561 440.704 924.466Z" fill="#67CDF5" fill-opacity="0.5"/>
<path d="M651.368 991.864C651.63 991.708 651.793 991.425 651.793 991.121V985.871C651.793 985.567 651.63 985.284 651.368 985.128L648.163 983.282C648.149 983.911 647.81 984.456 647.307 984.76L650.088 986.366V990.626L646.394 992.755L642.701 990.626V986.366L645.482 984.76C644.979 984.456 644.633 983.911 644.626 983.282L641.421 985.128C641.159 985.284 640.996 985.567 640.996 985.871V991.121C640.996 991.425 641.159 991.708 641.421 991.864L645.97 994.489C646.232 994.644 646.564 994.644 646.826 994.489L651.368 991.864Z" fill="#EAF9FF"/>
<path d="M677.253 953.458V963.59C677.508 963.448 677.798 963.363 678.109 963.363C678.42 963.363 678.71 963.448 678.965 963.59V953.458V952.963C678.965 952.659 678.802 952.376 678.541 952.22L678.116 951.972L668.423 946.376L667.998 946.128C667.737 945.973 667.404 945.973 667.142 946.128L666.718 946.376L656.982 951.994L657.081 952.05L657.364 952.213C657.626 952.369 657.789 952.652 657.789 952.956V953.43V953.501L667.567 947.855C667.567 947.862 677.253 953.458 677.253 953.458Z" fill="#EAF9FF"/>
<path d="M679.023 966.657L687.117 971.326V975.996C687.117 976.3 687.28 976.583 687.542 976.739L692.091 979.364C692.353 979.519 692.686 979.519 692.947 979.364L697.497 976.739C697.759 976.583 697.921 976.3 697.921 975.996V970.746C697.921 970.442 697.759 970.159 697.497 970.003L692.947 967.378C692.686 967.223 692.353 967.223 692.091 967.378L687.896 969.798L679.88 965.171C679.872 965.808 679.533 966.352 679.023 966.657ZM692.523 969.112L696.216 971.241V975.501L692.523 977.63L688.83 975.501V972.055C689.063 972.006 689.268 971.871 689.396 971.652C689.537 971.411 689.53 971.128 689.424 970.895L692.523 969.112Z" fill="#EAF9FF"/>
<path d="M668.48 984.917L677.254 989.982L677.678 990.23C678.089 990.463 678.612 990.329 678.846 989.919C679.079 989.508 678.938 988.985 678.534 988.751L677.494 988.15L669.329 983.438C669.329 984.068 668.99 984.612 668.48 984.917Z" fill="#EAF9FF"/>
<path d="M667.568 981.628C667.844 981.628 668.098 981.698 668.332 981.804C668.36 981.819 668.395 981.84 668.424 981.854V971.722L677.197 966.656C676.695 966.352 676.348 965.808 676.341 965.178L672.414 967.449L667.568 970.244L657.875 964.647C657.868 964.534 657.832 964.428 657.783 964.336V964.647V964.881V965.142C657.783 965.319 657.726 965.482 657.627 965.624C657.613 965.645 657.599 965.659 657.585 965.68C657.521 965.758 657.45 965.829 657.358 965.878L657.132 966.013L656.976 966.105L656.934 966.133L666.62 971.729V981.911C666.648 981.889 666.683 981.875 666.712 981.861C666.966 981.72 667.256 981.628 667.568 981.628Z" fill="#EAF9FF"/>
<path d="M656.079 964.648L651.232 967.442L656.079 964.648Z" fill="#EAF9FF"/>
<path d="M647.249 971.723L646.824 971.971C646.704 972.042 646.569 972.07 646.435 972.077C646.4 972.077 646.364 972.07 646.322 972.07C646.223 972.063 646.124 972.035 646.032 971.992C646.01 971.985 645.982 971.985 645.961 971.971L645.529 971.723V981.699C645.784 981.558 646.074 981.473 646.385 981.473C646.697 981.473 646.987 981.558 647.242 981.699V971.723H647.249Z" fill="#EAF9FF"/>
<path d="M684.93 1032.83V1021.92L689.048 1019.54C689.31 1019.39 689.473 1019.11 689.473 1018.8V1013.55C689.473 1013.25 689.31 1012.96 689.048 1012.81L684.93 1010.43V999.572V998.907C684.93 998.447 684.569 998.086 684.117 998.057C684.102 998.057 684.088 998.05 684.074 998.05C684.06 998.05 684.046 998.057 684.032 998.057C683.579 998.086 683.218 998.447 683.218 998.907V999.572V1010.43L679.1 1012.81C678.839 1012.96 678.676 1013.25 678.676 1013.55V1018.8C678.676 1019.11 678.839 1019.39 679.1 1019.54L683.218 1021.92V1032.83L683.65 1032.58C683.911 1032.43 684.244 1032.43 684.506 1032.58L684.93 1032.83ZM680.381 1018.31V1014.05L684.039 1011.93C684.095 1011.93 687.76 1014.05 687.76 1014.05V1018.31L684.067 1020.44L680.381 1018.31Z" fill="#EAF9FF"/>
<path d="M647.248 945.6V935.857L651.366 933.48C651.627 933.324 651.79 933.041 651.79 932.737V927.487C651.79 927.183 651.627 926.9 651.366 926.745L646.816 924.12C646.554 923.964 646.222 923.964 645.96 924.12L641.411 926.745C641.149 926.9 640.986 927.183 640.986 927.487V932.737C640.986 933.041 641.149 933.324 641.411 933.48L645.529 935.857V945.734C645.812 945.55 646.144 945.444 646.505 945.444C646.774 945.437 647.021 945.501 647.248 945.6ZM642.699 932.249V927.99L646.392 925.86L650.085 927.99V932.249L646.427 934.365C646.356 934.357 642.699 932.249 642.699 932.249Z" fill="#EAF9FF"/>
<path d="M667.143 946.138C667.404 945.982 667.737 945.982 667.999 946.138L668.423 946.386V935.2L678.109 929.603L687.795 935.2V946.386L678.109 951.975L678.534 952.223C678.795 952.378 678.958 952.661 678.958 952.966V953.461L689.076 947.624C689.337 947.468 689.5 947.185 689.5 946.881V934.705C689.5 934.4 689.337 934.117 689.076 933.962L678.534 927.877C678.272 927.721 677.939 927.721 677.677 927.877L667.135 933.962C666.874 934.117 666.711 934.4 666.711 934.705V946.386L667.143 946.138Z" fill="#EAF9FF"/>
<path d="M677.254 953.461L667.568 947.864C667.568 947.872 677.254 953.461 677.254 953.461Z" fill="#EAF9FF"/>
<path d="M686.514 935.446L678.54 930.84C678.13 930.607 677.606 930.741 677.373 931.151C677.295 931.286 677.26 931.434 677.26 931.576C677.26 931.873 677.415 932.163 677.684 932.319L685.658 936.925C686.068 937.158 686.592 937.024 686.825 936.613C687.066 936.203 686.924 935.68 686.514 935.446Z" fill="#EAF9FF"/>
<path d="M678.853 950.431C679.086 950.02 678.952 949.497 678.541 949.263L670.568 944.657C670.157 944.424 669.634 944.558 669.4 944.969C669.322 945.103 669.287 945.252 669.287 945.393C669.287 945.69 669.443 945.98 669.719 946.136L677.692 950.742C678.096 950.983 678.619 950.841 678.853 950.431Z" fill="#EAF9FF"/>
<path d="M689.173 995.139L684.114 998.061C684.567 998.089 684.928 998.45 684.928 998.91V999.575L690.461 996.384C690.723 996.229 690.885 995.946 690.885 995.641V988.757C690.885 988.453 690.723 988.17 690.461 988.014L684.504 984.576C684.242 984.42 683.909 984.42 683.647 984.576L677.69 988.014C677.619 988.057 677.563 988.099 677.506 988.156L678.546 988.757C678.957 988.991 679.098 989.514 678.858 989.925C678.624 990.335 678.101 990.476 677.69 990.236L677.266 989.988V995.634C677.266 995.939 677.428 996.222 677.69 996.377L683.223 999.568V998.903C683.223 998.443 683.584 998.082 684.037 998.054L678.978 995.132V989.238L684.079 986.295L689.18 989.238V995.139H689.173Z" fill="#EAF9FF"/>
<path d="M637.666 963.229C637.588 963.363 637.553 963.512 637.553 963.653C637.553 963.95 637.708 964.24 637.977 964.396L645.951 969.002C646.361 969.235 646.885 969.101 647.118 968.691C647.352 968.28 647.217 967.757 646.807 967.523L638.833 962.917C638.43 962.677 637.906 962.818 637.666 963.229Z" fill="#EAF9FF"/>
<path d="M654.366 964.511C654.84 964.511 655.222 964.129 655.222 963.655V954.443C655.222 953.969 654.84 953.587 654.366 953.587C653.892 953.587 653.51 953.969 653.51 954.443V963.655C653.51 964.129 653.892 964.511 654.366 964.511Z" fill="#EAF9FF"/>
<path d="M647.247 971.724L656.933 966.128L656.976 966.1L657.131 966.008L657.358 965.873C657.45 965.824 657.52 965.753 657.584 965.675C657.598 965.654 657.612 965.64 657.626 965.618C657.669 965.555 657.704 965.484 657.733 965.406C657.754 965.357 657.754 965.3 657.768 965.243C657.775 965.215 657.782 965.194 657.782 965.166C657.789 965.137 657.789 964.876 657.789 964.876V964.642V964.331V953.513V953.442V952.968C657.789 952.664 657.626 952.381 657.365 952.225L657.082 952.062L656.983 952.006L648.266 946.968C648.181 946.36 647.792 945.85 647.254 945.603C647.028 945.497 646.78 945.44 646.518 945.44C646.158 945.44 645.825 945.546 645.542 945.73C645.167 945.978 644.891 946.367 644.792 946.82L635.432 952.225C635.17 952.381 635 952.664 635 952.968V965.144C635 965.449 635.163 965.732 635.432 965.887L645.549 971.724L645.981 971.972C646.002 971.986 646.03 971.979 646.051 971.993C646.143 972.036 646.242 972.064 646.342 972.071C646.377 972.071 646.412 972.078 646.455 972.078C646.589 972.071 646.724 972.043 646.844 971.972L647.247 971.724ZM636.698 964.649V953.463L645.287 948.504C645.606 948.808 646.03 948.992 646.504 948.992C646.929 948.992 647.318 948.836 647.622 948.581L656.07 953.463V964.649L651.223 967.444L646.377 970.239L636.698 964.649Z" fill="#EAF9FF"/>
<path d="M684.499 1041.14L687.562 1039.37C687.824 1039.22 687.987 1038.94 687.987 1038.63V1035.09C687.987 1034.79 687.824 1034.51 687.562 1034.35L684.923 1032.83L684.499 1032.58C684.237 1032.43 683.905 1032.43 683.643 1032.58L683.211 1032.83L680.572 1034.35C680.31 1034.51 680.141 1034.79 680.141 1035.09V1038.63C680.141 1038.94 680.303 1039.22 680.572 1039.37L683.636 1041.14C683.912 1041.29 684.237 1041.29 684.499 1041.14ZM681.867 1038.14V1035.59L684.046 1034.33C684.103 1034.33 686.282 1035.59 686.282 1035.59V1038.14L684.074 1039.41L681.867 1038.14Z" fill="#EAF9FF"/>
<path d="M669.344 983.437C669.344 982.736 668.976 982.156 668.431 981.859C668.402 981.845 668.374 981.823 668.339 981.809C668.105 981.696 667.851 981.632 667.575 981.632C667.263 981.632 666.973 981.717 666.719 981.859C666.69 981.873 666.655 981.887 666.627 981.908C666.131 982.22 665.799 982.771 665.799 983.408C665.799 984.392 666.591 985.184 667.575 985.184C667.907 985.184 668.219 985.085 668.487 984.922C668.99 984.611 669.329 984.066 669.344 983.437Z" fill="#EAF9FF"/>
<path d="M676.334 965.143C676.348 965.808 676.695 966.353 677.197 966.657C677.466 966.82 677.777 966.919 678.11 966.919C678.442 966.919 678.754 966.82 679.023 966.657C679.525 966.353 679.872 965.808 679.879 965.178C679.886 964.478 679.511 963.898 678.966 963.594C678.711 963.452 678.421 963.367 678.11 963.367C677.799 963.367 677.508 963.452 677.254 963.594C676.709 963.898 676.334 964.471 676.334 965.143Z" fill="#EAF9FF"/>
<path d="M648.16 983.28C648.16 982.579 647.792 981.999 647.247 981.702C646.992 981.56 646.702 981.476 646.391 981.476C646.08 981.476 645.79 981.56 645.535 981.702C644.99 982.006 644.615 982.579 644.615 983.251C644.629 983.917 644.976 984.461 645.478 984.766C645.747 984.928 646.059 985.027 646.391 985.027C646.724 985.027 647.035 984.928 647.304 984.766C647.806 984.454 648.146 983.909 648.16 983.28Z" fill="#EAF9FF"/>
<path d="M158.611 1032.5V1035.16C158.706 1035.13 158.805 1035.11 158.912 1035.11C159.016 1035.11 159.118 1035.13 159.212 1035.16V1032.5C159.118 1032.53 159.016 1032.55 158.912 1032.55C158.805 1032.55 158.706 1032.53 158.611 1032.5Z" fill="#67CDF5" fill-opacity="0.5"/>
<path d="M159.871 1031.36L162.832 1029.65L165.792 1031.36C165.815 1031.26 165.854 1031.17 165.904 1031.08C165.956 1030.99 166.018 1030.91 166.095 1030.84L162.983 1029.04C162.889 1028.99 162.775 1028.99 162.683 1029.04L159.568 1030.84C159.643 1030.91 159.707 1030.99 159.759 1031.07C159.809 1031.16 159.851 1031.26 159.871 1031.36Z" fill="#67CDF5" fill-opacity="0.5"/>
<path d="M166.455 1032.5V1035.16C166.549 1035.13 166.651 1035.11 166.755 1035.11C166.86 1035.11 166.961 1035.13 167.056 1035.16V1032.5C166.961 1032.53 166.86 1032.55 166.755 1032.55C166.651 1032.55 166.552 1032.53 166.455 1032.5Z" fill="#67CDF5" fill-opacity="0.5"/>
<path d="M170.691 1039.37C170.587 1039.37 170.485 1039.35 170.391 1039.32V1042.74L167.428 1044.45C167.502 1044.52 167.567 1044.6 167.619 1044.69C167.668 1044.77 167.708 1044.87 167.731 1044.97L170.843 1043.17C170.934 1043.12 170.991 1043.02 170.991 1042.91V1039.32C170.897 1039.35 170.795 1039.37 170.691 1039.37Z" fill="#67CDF5" fill-opacity="0.5"/>
<path d="M169.843 1037.89C169.895 1037.8 169.957 1037.72 170.034 1037.66L167.716 1036.32C167.694 1036.42 167.654 1036.51 167.602 1036.6C167.55 1036.69 167.483 1036.77 167.408 1036.83L169.734 1038.18C169.751 1038.07 169.791 1037.98 169.843 1037.89Z" fill="#67CDF5" fill-opacity="0.5"/>
<path d="M163.695 1043.4C163.643 1043.49 163.581 1043.57 163.504 1043.64L165.804 1044.97C165.827 1044.87 165.866 1044.77 165.916 1044.69C165.968 1044.6 166.03 1044.52 166.107 1044.45L163.807 1043.12C163.784 1043.22 163.745 1043.32 163.695 1043.4Z" fill="#67CDF5" fill-opacity="0.5"/>
<path d="M165.919 1036.61C165.914 1036.6 165.911 1036.59 165.906 1036.59C165.859 1036.51 165.824 1036.42 165.802 1036.33C165.8 1036.32 165.797 1036.31 165.795 1036.3L163.494 1037.63C163.502 1037.64 163.509 1037.64 163.514 1037.65C163.581 1037.71 163.636 1037.79 163.683 1037.87C163.688 1037.88 163.69 1037.88 163.695 1037.89C163.74 1037.97 163.775 1038.06 163.794 1038.15C163.797 1038.16 163.797 1038.17 163.799 1038.18L166.117 1036.84C166.11 1036.84 166.102 1036.83 166.097 1036.82C166.028 1036.76 165.968 1036.69 165.919 1036.61Z" fill="#67CDF5" fill-opacity="0.5"/>
<path d="M157.952 1036.32L155.645 1037.66C155.719 1037.73 155.784 1037.81 155.836 1037.89C155.885 1037.98 155.925 1038.07 155.947 1038.18L158.265 1036.84C158.188 1036.77 158.121 1036.69 158.069 1036.61C158.017 1036.52 157.977 1036.42 157.952 1036.32Z" fill="#67CDF5" fill-opacity="0.5"/>
<path d="M162.848 1039.34C162.843 1039.34 162.84 1039.35 162.835 1039.35C162.734 1039.35 162.639 1039.33 162.548 1039.3C162.543 1039.3 162.54 1039.3 162.535 1039.29V1041.98C162.54 1041.98 162.543 1041.98 162.548 1041.98C162.639 1041.95 162.734 1041.93 162.835 1041.93C162.84 1041.93 162.843 1041.92 162.848 1041.92C162.95 1041.92 163.044 1041.94 163.136 1041.97C163.141 1041.97 163.143 1041.97 163.148 1041.98V1039.29C163.143 1039.29 163.141 1039.29 163.136 1039.29C163.044 1039.32 162.947 1039.34 162.848 1039.34Z" fill="#67CDF5" fill-opacity="0.5"/>
<path d="M161.881 1043.12L159.568 1044.45C159.643 1044.52 159.707 1044.6 159.759 1044.69C159.809 1044.77 159.849 1044.87 159.871 1044.97L162.179 1043.64C162.105 1043.57 162.043 1043.49 161.99 1043.4C161.943 1043.31 161.904 1043.22 161.881 1043.12Z" fill="#67CDF5" fill-opacity="0.5"/>
<path d="M155.288 1039.32C155.194 1039.35 155.092 1039.37 154.988 1039.37C154.884 1039.37 154.782 1039.35 154.688 1039.32V1042.91C154.688 1043.02 154.745 1043.12 154.836 1043.17L157.948 1044.97C157.971 1044.87 158.01 1044.77 158.06 1044.69C158.112 1044.6 158.174 1044.52 158.251 1044.45L155.288 1042.74V1039.32Z" fill="#67CDF5" fill-opacity="0.5"/>
<path d="M161.872 1038.15C161.892 1038.06 161.929 1037.97 161.976 1037.89C161.979 1037.88 161.981 1037.88 161.986 1037.87C162.033 1037.79 162.093 1037.71 162.16 1037.65C162.165 1037.64 162.17 1037.64 162.175 1037.64L159.874 1036.31C159.872 1036.32 159.869 1036.32 159.869 1036.33C159.847 1036.42 159.81 1036.51 159.763 1036.59C159.76 1036.6 159.758 1036.6 159.753 1036.61C159.703 1036.69 159.643 1036.77 159.572 1036.83C159.567 1036.83 159.562 1036.84 159.557 1036.84L161.87 1038.18C161.87 1038.17 161.87 1038.16 161.872 1038.15Z" fill="#67CDF5" fill-opacity="0.5"/>
<path d="M159.211 1035.16C159.117 1035.13 159.015 1035.11 158.911 1035.11C158.807 1035.11 158.705 1035.13 158.611 1035.16C158.214 1035.28 157.926 1035.65 157.926 1036.09C157.926 1036.17 157.938 1036.24 157.956 1036.32C157.98 1036.42 158.02 1036.51 158.072 1036.6C158.124 1036.69 158.191 1036.77 158.268 1036.83C158.442 1036.98 158.665 1037.08 158.911 1037.08C159.159 1037.08 159.383 1036.98 159.554 1036.83C159.559 1036.83 159.564 1036.83 159.569 1036.82C159.641 1036.76 159.7 1036.68 159.75 1036.6C159.752 1036.59 159.755 1036.59 159.76 1036.58C159.807 1036.5 159.844 1036.41 159.866 1036.32C159.869 1036.31 159.871 1036.31 159.871 1036.3C159.886 1036.23 159.894 1036.16 159.894 1036.09C159.896 1035.65 159.606 1035.28 159.211 1035.16Z" fill="#67CDF5" fill-opacity="0.5"/>
<path d="M166.454 1032.5C166.549 1032.53 166.651 1032.55 166.755 1032.55C166.859 1032.55 166.961 1032.53 167.055 1032.5C167.452 1032.37 167.74 1032 167.74 1031.56C167.74 1031.02 167.298 1030.58 166.755 1030.58C166.499 1030.58 166.271 1030.68 166.095 1030.84C166.02 1030.91 165.956 1030.99 165.904 1031.07C165.854 1031.16 165.814 1031.25 165.792 1031.35C165.777 1031.42 165.77 1031.49 165.77 1031.56C165.77 1032 166.06 1032.37 166.454 1032.5Z" fill="#67CDF5" fill-opacity="0.5"/>
<path d="M163.147 1041.97C163.142 1041.97 163.139 1041.97 163.134 1041.97C163.043 1041.94 162.948 1041.92 162.847 1041.92C162.842 1041.92 162.839 1041.92 162.834 1041.92C162.732 1041.93 162.638 1041.94 162.546 1041.97C162.541 1041.98 162.539 1041.98 162.534 1041.98C162.144 1042.11 161.861 1042.48 161.861 1042.91C161.861 1042.98 161.869 1043.05 161.884 1043.11C161.906 1043.21 161.946 1043.31 161.995 1043.4C162.045 1043.49 162.11 1043.56 162.184 1043.63C162.36 1043.8 162.591 1043.9 162.849 1043.9C163.105 1043.9 163.333 1043.8 163.509 1043.64C163.584 1043.57 163.648 1043.49 163.7 1043.4C163.75 1043.32 163.79 1043.22 163.812 1043.12C163.827 1043.05 163.834 1042.98 163.834 1042.91C163.832 1042.47 163.541 1042.1 163.147 1041.97Z" fill="#67CDF5" fill-opacity="0.5"/>
<path d="M167.055 1035.16C166.961 1035.13 166.859 1035.11 166.755 1035.11C166.651 1035.11 166.549 1035.13 166.454 1035.16C166.057 1035.28 165.77 1035.65 165.77 1036.09C165.77 1036.16 165.777 1036.23 165.792 1036.3C165.794 1036.31 165.797 1036.32 165.799 1036.32C165.822 1036.42 165.859 1036.5 165.904 1036.58C165.909 1036.59 165.911 1036.6 165.916 1036.6C165.966 1036.68 166.025 1036.76 166.095 1036.82C166.102 1036.82 166.11 1036.83 166.114 1036.84C166.286 1036.98 166.509 1037.08 166.752 1037.08C167.003 1037.08 167.226 1036.98 167.4 1036.83C167.477 1036.76 167.541 1036.68 167.594 1036.59C167.646 1036.51 167.685 1036.42 167.708 1036.31C167.725 1036.24 167.735 1036.17 167.735 1036.09C167.74 1035.65 167.452 1035.28 167.055 1035.16Z" fill="#67CDF5" fill-opacity="0.5"/>
<path d="M159.76 1031.07C159.708 1030.98 159.646 1030.9 159.569 1030.84C159.395 1030.68 159.165 1030.58 158.909 1030.58C158.366 1030.58 157.924 1031.02 157.924 1031.56C157.924 1032 158.212 1032.37 158.609 1032.5C158.703 1032.53 158.802 1032.55 158.909 1032.55C159.013 1032.55 159.115 1032.53 159.209 1032.5C159.606 1032.37 159.894 1032 159.894 1031.56C159.894 1031.49 159.887 1031.42 159.872 1031.35C159.852 1031.25 159.81 1031.16 159.76 1031.07Z" fill="#67CDF5" fill-opacity="0.5"/>
<path d="M159.76 1044.69C159.708 1044.6 159.646 1044.52 159.569 1044.45C159.395 1044.29 159.165 1044.19 158.909 1044.19C158.653 1044.19 158.425 1044.29 158.249 1044.45C158.174 1044.52 158.11 1044.6 158.058 1044.69C158.008 1044.77 157.969 1044.87 157.946 1044.97C157.931 1045.04 157.924 1045.1 157.924 1045.18C157.924 1045.72 158.366 1046.16 158.909 1046.16C159.453 1046.16 159.894 1045.72 159.894 1045.18C159.894 1045.1 159.887 1045.04 159.872 1044.97C159.852 1044.87 159.81 1044.77 159.76 1044.69Z" fill="#67CDF5" fill-opacity="0.5"/>
<path d="M167.62 1044.69C167.568 1044.6 167.505 1044.52 167.429 1044.45C167.255 1044.29 167.024 1044.19 166.768 1044.19C166.513 1044.19 166.285 1044.29 166.108 1044.45C166.034 1044.52 165.969 1044.6 165.917 1044.69C165.868 1044.77 165.828 1044.87 165.806 1044.97C165.791 1045.04 165.783 1045.1 165.783 1045.18C165.783 1045.72 166.225 1046.16 166.768 1046.16C167.312 1046.16 167.754 1045.72 167.754 1045.18C167.754 1045.1 167.746 1045.04 167.731 1044.97C167.709 1044.87 167.669 1044.77 167.62 1044.69Z" fill="#67CDF5" fill-opacity="0.5"/>
<path d="M170.692 1037.4C170.437 1037.4 170.208 1037.49 170.032 1037.65C169.958 1037.72 169.893 1037.8 169.841 1037.89C169.791 1037.98 169.752 1038.07 169.729 1038.17C169.714 1038.24 169.707 1038.31 169.707 1038.38C169.707 1038.82 169.995 1039.19 170.392 1039.31C170.486 1039.34 170.586 1039.37 170.692 1039.37C170.799 1039.37 170.898 1039.35 170.993 1039.31C171.39 1039.19 171.677 1038.82 171.677 1038.38C171.677 1037.83 171.236 1037.4 170.692 1037.4Z" fill="#67CDF5" fill-opacity="0.5"/>
<path d="M155.836 1037.89C155.784 1037.8 155.722 1037.72 155.645 1037.65C155.472 1037.49 155.241 1037.4 154.985 1037.4C154.442 1037.4 154 1037.84 154 1038.38C154 1038.82 154.288 1039.19 154.685 1039.31C154.779 1039.34 154.881 1039.37 154.985 1039.37C155.089 1039.37 155.191 1039.35 155.286 1039.31C155.683 1039.19 155.97 1038.82 155.97 1038.38C155.97 1038.31 155.963 1038.24 155.948 1038.17C155.928 1038.07 155.889 1037.98 155.836 1037.89Z" fill="#67CDF5" fill-opacity="0.5"/>
<path d="M163.796 1038.15C163.776 1038.06 163.739 1037.97 163.697 1037.89C163.692 1037.88 163.689 1037.87 163.684 1037.86C163.637 1037.78 163.582 1037.71 163.515 1037.65C163.508 1037.64 163.5 1037.63 163.495 1037.63C163.322 1037.47 163.091 1037.37 162.835 1037.37C162.58 1037.37 162.351 1037.47 162.175 1037.63C162.17 1037.63 162.165 1037.64 162.16 1037.64C162.091 1037.71 162.034 1037.78 161.987 1037.86C161.984 1037.87 161.982 1037.88 161.977 1037.88C161.932 1037.96 161.895 1038.05 161.872 1038.15C161.87 1038.16 161.87 1038.16 161.868 1038.17C161.855 1038.23 161.848 1038.29 161.848 1038.36C161.848 1038.8 162.136 1039.16 162.533 1039.29C162.538 1039.29 162.54 1039.29 162.545 1039.29C162.637 1039.32 162.731 1039.34 162.833 1039.34C162.838 1039.34 162.84 1039.34 162.845 1039.34C162.947 1039.34 163.041 1039.32 163.133 1039.29C163.138 1039.29 163.141 1039.29 163.146 1039.28C163.535 1039.15 163.818 1038.79 163.818 1038.35C163.818 1038.29 163.811 1038.23 163.801 1038.17C163.798 1038.17 163.798 1038.16 163.796 1038.15Z" fill="#67CDF5" fill-opacity="0.5"/>
<path d="M127.386 1094.45L137.628 1094.58L137.484 1094.34C137.367 1094.14 137.367 1093.89 137.484 1093.69L137.717 1093.29L127.275 1093.16L122.796 1085.4L128.214 1076.17H127.892C127.658 1076.17 127.447 1076.05 127.331 1075.85L127.119 1075.48L121.651 1084.79H112.871L107.625 1075.56L109.731 1071.91C109.848 1071.71 109.848 1071.46 109.731 1071.26L107.458 1067.32C107.341 1067.12 107.13 1067 106.897 1067H102.351C102.117 1067 101.906 1067.12 101.79 1067.32L99.5166 1071.26C99.3999 1071.46 99.3999 1071.71 99.5166 1071.91L101.79 1075.85C101.906 1076.05 102.117 1076.17 102.351 1076.17H106.485L111.648 1085.26L107.158 1093.04H99.2443L99.5333 1093.54C99.65 1093.74 99.65 1093.99 99.5333 1094.19L99.4499 1094.34H106.902L111.537 1102.36L108.258 1108.16H105.841C105.607 1108.16 105.396 1108.28 105.279 1108.48L103.807 1111.04H101.012L99.9501 1109.21C99.8334 1109.01 99.6222 1108.88 99.3888 1108.88H96.8936C96.6602 1108.88 96.4491 1109.01 96.3324 1109.21L95.0875 1111.37C94.9708 1111.57 94.9708 1111.82 95.0875 1112.02L96.3324 1114.18C96.4491 1114.38 96.6602 1114.5 96.8936 1114.5H99.3888C99.6222 1114.5 99.8334 1114.38 99.9501 1114.18L101.012 1112.35H103.807L105.018 1114.45L103.168 1117.57H100.884C100.65 1117.57 100.439 1117.69 100.322 1117.89L99.0776 1120.04C98.9609 1120.24 98.9609 1120.49 99.0776 1120.69L100.322 1122.86C100.439 1123.06 100.65 1123.18 100.884 1123.18H103.379C103.612 1123.18 103.823 1123.06 103.94 1122.86L105.185 1120.69C105.302 1120.49 105.302 1120.24 105.185 1120.04L104.207 1118.35L106.063 1115.23H108.814L110.776 1118.42L109.859 1120.01C109.742 1120.21 109.742 1120.46 109.859 1120.66L111.103 1122.82C111.22 1123.02 111.431 1123.14 111.665 1123.14H114.16C114.393 1123.14 114.605 1123.02 114.721 1122.82L115.966 1120.66C116.083 1120.46 116.083 1120.21 115.966 1120.01L114.721 1117.85C114.605 1117.65 114.393 1117.53 114.16 1117.53H111.748L109.925 1114.57L111.392 1112.03C111.509 1111.83 111.509 1111.58 111.392 1111.38L109.731 1108.5C109.703 1108.46 109.659 1108.43 109.625 1108.4L112.654 1103.03H121.095L125.641 1112.17L124.441 1114.26C124.324 1114.46 124.324 1114.71 124.441 1114.91L126.102 1117.79C126.219 1117.99 126.43 1118.11 126.664 1118.11H129.987C130.22 1118.11 130.431 1117.99 130.548 1117.79L132.21 1114.91C132.326 1114.71 132.326 1114.46 132.21 1114.26L130.548 1111.38C130.431 1111.18 130.22 1111.06 129.987 1111.06H126.664C126.625 1111.06 126.586 1111.08 126.547 1111.09L122.462 1102.88C122.524 1102.83 122.585 1102.78 122.629 1102.71L127.386 1094.45ZM102.723 1074.87L100.823 1071.58L102.723 1068.29H106.524L108.425 1071.58L106.886 1074.25L106.524 1074.87H105.752H102.723ZM101.262 1121.86L100.389 1120.35L101.262 1118.84H102.401H103.007L103.451 1119.61L103.879 1120.35L103.007 1121.86H101.262ZM113.788 1118.8L114.66 1120.32L113.788 1121.83H113.615H112.976H112.043L111.17 1120.32L111.548 1119.66L112.043 1118.81H112.548H113.788V1118.8ZM108.797 1113.91H108.019H106.836H106.502H106.224L105.785 1113.15L105.613 1112.86L105.307 1112.33L104.935 1111.68L105.307 1111.03L106.219 1109.45H107.53H108.792L108.903 1109.64L110.075 1111.67L109.147 1113.28L108.797 1113.91ZM99.8945 1111.68L99.5222 1112.33L99.022 1113.19H97.2771L96.6825 1112.16L96.4768 1111.81L96.399 1111.68L96.4768 1111.55L96.6825 1111.2L97.2771 1110.17H99.022L99.5222 1111.03L99.8945 1111.68ZM127.18 1112.33H129.615L130.904 1114.56L129.615 1116.79H127.036L125.747 1114.56L126.33 1113.54L127.03 1112.32H127.18V1112.33ZM121.696 1101.72H120.456H113.393H112.676L112.287 1101.04L108.408 1094.33L108.164 1093.9L108.664 1093.04L112.398 1086.57L112.676 1086.09H113.615H120.895H121.701L122.046 1086.69L125.775 1093.15L126.214 1093.91L125.902 1094.45L121.812 1101.53L121.696 1101.72Z" fill="#67CDF5" fill-opacity="0.5"/>
<path d="M124.78 1093.12L121.546 1087.52L121.39 1087.26C121.274 1087.06 121.062 1086.93 120.829 1086.93H120.39H114.088H113.527C113.293 1086.93 113.082 1087.06 112.965 1087.26L112.871 1087.42L109.631 1093.03L109.32 1093.57C109.203 1093.77 109.203 1094.02 109.32 1094.22L109.381 1094.33L112.76 1100.19L112.965 1100.54C113.082 1100.74 113.293 1100.87 113.527 1100.87H113.86H120.023H120.823C121.029 1100.87 121.212 1100.75 121.335 1100.59C121.351 1100.58 121.374 1100.57 121.385 1100.54L124.919 1094.42L125.036 1094.22C125.152 1094.02 125.152 1093.77 125.036 1093.57L124.78 1093.12ZM120.457 1099.57H119.39H114.605H113.91L113.51 1098.88L110.887 1094.33L110.643 1093.9L111.143 1093.04L113.627 1088.73L113.916 1088.23H114.838H119.64H120.462L120.796 1088.82L123.274 1093.11L123.73 1093.9L123.435 1094.41L120.657 1099.22L120.457 1099.57Z" fill="#67CDF5" fill-opacity="0.5"/>
<path d="M128.691 1073.23C128.413 1073.13 128.124 1073.07 127.813 1073.07C126.329 1073.07 125.129 1074.27 125.129 1075.75C125.129 1077.23 126.335 1078.43 127.813 1078.43C128.124 1078.43 128.413 1078.37 128.691 1078.27C129.013 1078.16 129.308 1077.99 129.564 1077.77C130.13 1077.27 130.503 1076.56 130.503 1075.74C130.503 1074.93 130.136 1074.22 129.564 1073.72C129.308 1073.51 129.013 1073.34 128.691 1073.23Z" fill="#67CDF5" fill-opacity="0.5"/>
<path d="M138.595 1091.37C138.318 1091.27 138.029 1091.21 137.717 1091.21C136.234 1091.21 135.033 1092.41 135.033 1093.89C135.033 1095.37 136.239 1096.58 137.717 1096.58C138.029 1096.58 138.318 1096.51 138.595 1096.41C138.918 1096.3 139.212 1096.13 139.468 1095.91C140.035 1095.41 140.407 1094.7 140.407 1093.89C140.407 1093.07 140.04 1092.36 139.468 1091.86C139.212 1091.66 138.918 1091.48 138.595 1091.37Z" fill="#67CDF5" fill-opacity="0.5"/>
<path d="M98.7044 1091.47C98.5266 1091.42 98.3432 1091.38 98.1487 1091.38C97.1762 1091.38 96.3648 1092.06 96.137 1092.96C96.0981 1093.12 96.0703 1093.29 96.0703 1093.47C96.0703 1093.64 96.0981 1093.81 96.137 1093.97C96.3648 1094.88 97.1762 1095.55 98.1487 1095.55C99.2991 1095.55 100.233 1094.62 100.233 1093.47C100.233 1092.88 99.9826 1092.35 99.5825 1091.97C99.338 1091.73 99.0379 1091.56 98.7044 1091.47Z" fill="#67CDF5" fill-opacity="0.5"/>
<g opacity="0.8">
<path d="M140.171 1142.74C140.382 1142.87 140.513 1143.1 140.513 1143.34V1147.57C140.513 1147.81 140.382 1148.04 140.171 1148.16L137.592 1149.65C137.581 1149.14 137.307 1148.71 136.903 1148.46L139.141 1147.17V1143.74L136.169 1142.03L133.196 1143.74V1147.17L135.434 1148.46C135.03 1148.71 134.751 1149.14 134.745 1149.65L132.166 1148.16C131.955 1148.04 131.824 1147.81 131.824 1147.57V1143.34C131.824 1143.1 131.955 1142.87 132.166 1142.74L135.827 1140.63C136.038 1140.51 136.305 1140.51 136.516 1140.63L140.171 1142.74Z" fill="#EAF9FF"/>
<path d="M161.002 1173.65V1165.5C161.207 1165.61 161.441 1165.68 161.691 1165.68C161.942 1165.68 162.175 1165.61 162.38 1165.5V1173.65V1174.05C162.38 1174.29 162.249 1174.52 162.038 1174.65L161.697 1174.84L153.896 1179.35L153.555 1179.55C153.344 1179.67 153.076 1179.67 152.866 1179.55L152.524 1179.35L144.689 1174.83L144.769 1174.78L144.997 1174.65C145.208 1174.53 145.339 1174.3 145.339 1174.05V1173.67V1173.61L153.207 1178.16C153.207 1178.15 161.002 1173.65 161.002 1173.65Z" fill="#EAF9FF"/>
<path d="M162.426 1163.03L168.939 1159.27V1155.52C168.939 1155.27 169.07 1155.04 169.281 1154.92L172.942 1152.81C173.153 1152.68 173.42 1152.68 173.631 1152.81L177.292 1154.92C177.503 1155.04 177.634 1155.27 177.634 1155.52V1159.74C177.634 1159.99 177.503 1160.21 177.292 1160.34L173.631 1162.45C173.42 1162.58 173.153 1162.58 172.942 1162.45L169.566 1160.5L163.115 1164.23C163.109 1163.72 162.836 1163.28 162.426 1163.03ZM173.29 1161.06L176.262 1159.34V1155.91L173.29 1154.2L170.317 1155.91V1158.69C170.505 1158.73 170.67 1158.84 170.773 1159.01C170.887 1159.21 170.881 1159.43 170.796 1159.62L173.29 1161.06Z" fill="#EAF9FF"/>
<path d="M153.943 1148.34L161.004 1144.26L161.345 1144.07C161.675 1143.88 162.097 1143.99 162.285 1144.32C162.473 1144.65 162.359 1145.07 162.034 1145.26L161.197 1145.74L154.627 1149.53C154.627 1149.02 154.353 1148.59 153.943 1148.34Z" fill="#EAF9FF"/>
<path d="M153.208 1150.98C153.43 1150.98 153.635 1150.92 153.823 1150.84C153.846 1150.83 153.874 1150.81 153.897 1150.8V1158.95L160.957 1163.03C160.553 1163.27 160.274 1163.71 160.268 1164.22L157.108 1162.39L153.208 1160.14L145.408 1164.65C145.402 1164.74 145.374 1164.82 145.334 1164.9V1164.65V1164.46V1164.25C145.334 1164.11 145.288 1163.97 145.208 1163.86C145.197 1163.84 145.186 1163.83 145.174 1163.81C145.123 1163.75 145.066 1163.7 144.992 1163.66L144.81 1163.55L144.685 1163.47L144.65 1163.45L152.445 1158.95V1150.75C152.468 1150.77 152.496 1150.78 152.519 1150.79C152.724 1150.91 152.958 1150.98 153.208 1150.98Z" fill="#EAF9FF"/>
<path d="M143.961 1164.65L140.061 1162.4L143.961 1164.65Z" fill="#EAF9FF"/>
<path d="M136.856 1158.95L136.515 1158.75C136.418 1158.7 136.31 1158.67 136.201 1158.67C136.173 1158.67 136.145 1158.67 136.11 1158.67C136.031 1158.68 135.951 1158.7 135.877 1158.74C135.86 1158.74 135.837 1158.74 135.82 1158.75L135.473 1158.95V1150.93C135.678 1151.04 135.911 1151.11 136.162 1151.11C136.412 1151.11 136.646 1151.04 136.851 1150.93V1158.95H136.856Z" fill="#EAF9FF"/>
<path d="M167.18 1109.78V1118.56L170.494 1120.47C170.704 1120.6 170.835 1120.82 170.835 1121.07V1125.29C170.835 1125.54 170.704 1125.77 170.494 1125.89L167.18 1127.8V1136.54V1137.08C167.18 1137.45 166.889 1137.74 166.525 1137.76C166.514 1137.76 166.502 1137.77 166.491 1137.77C166.479 1137.77 166.468 1137.76 166.457 1137.76C166.092 1137.74 165.802 1137.45 165.802 1137.08V1136.54V1127.8L162.488 1125.89C162.277 1125.77 162.146 1125.54 162.146 1125.29V1121.07C162.146 1120.82 162.277 1120.6 162.488 1120.47L165.802 1118.56V1109.78L166.149 1109.98C166.36 1110.1 166.627 1110.1 166.838 1109.98L167.18 1109.78ZM163.519 1121.47V1124.89L166.462 1126.6C166.508 1126.6 169.457 1124.89 169.457 1124.89V1121.47L166.485 1119.75L163.519 1121.47Z" fill="#EAF9FF"/>
<path d="M136.855 1179.98V1187.82L140.169 1189.73C140.38 1189.85 140.511 1190.08 140.511 1190.33V1194.55C140.511 1194.8 140.38 1195.02 140.169 1195.15L136.508 1197.26C136.297 1197.39 136.03 1197.39 135.819 1197.26L132.158 1195.15C131.947 1195.02 131.816 1194.8 131.816 1194.55V1190.33C131.816 1190.08 131.947 1189.85 132.158 1189.73L135.472 1187.82V1179.87C135.7 1180.02 135.967 1180.1 136.258 1180.1C136.474 1180.11 136.673 1180.06 136.855 1179.98ZM133.194 1190.72V1194.15L136.166 1195.86L139.139 1194.15V1190.72L136.195 1189.02C136.138 1189.02 133.194 1190.72 133.194 1190.72Z" fill="#EAF9FF"/>
<path d="M152.867 1179.55C153.078 1179.67 153.345 1179.67 153.556 1179.55L153.897 1179.35V1188.35L161.692 1192.85L169.487 1188.35V1179.35L161.692 1174.85L162.034 1174.65C162.244 1174.53 162.375 1174.3 162.375 1174.05V1173.66L170.518 1178.35C170.728 1178.48 170.859 1178.71 170.859 1178.95V1188.75C170.859 1188.99 170.728 1189.22 170.518 1189.35L162.034 1194.24C161.823 1194.37 161.556 1194.37 161.345 1194.24L152.861 1189.35C152.65 1189.22 152.52 1188.99 152.52 1188.75V1179.35L152.867 1179.55Z" fill="#EAF9FF"/>
<path d="M161.004 1173.66L153.209 1178.16C153.209 1178.15 161.004 1173.66 161.004 1173.66Z" fill="#EAF9FF"/>
<path d="M168.457 1188.15L162.04 1191.85C161.71 1192.04 161.289 1191.93 161.101 1191.6C161.038 1191.49 161.01 1191.37 161.01 1191.26C161.01 1191.02 161.135 1190.79 161.351 1190.66L167.768 1186.96C168.099 1186.77 168.52 1186.88 168.708 1187.21C168.901 1187.54 168.787 1187.96 168.457 1188.15Z" fill="#EAF9FF"/>
<path d="M162.29 1176.09C162.478 1176.42 162.369 1176.84 162.039 1177.03L155.622 1180.73C155.292 1180.92 154.871 1180.81 154.683 1180.48C154.62 1180.38 154.592 1180.26 154.592 1180.14C154.592 1179.9 154.717 1179.67 154.939 1179.54L161.356 1175.84C161.681 1175.64 162.102 1175.76 162.29 1176.09Z" fill="#EAF9FF"/>
<path d="M170.596 1140.11L166.525 1137.76C166.89 1137.74 167.18 1137.45 167.18 1137.08V1136.54L171.633 1139.11C171.843 1139.24 171.974 1139.46 171.974 1139.71V1145.25C171.974 1145.49 171.843 1145.72 171.633 1145.85L166.838 1148.61C166.628 1148.74 166.36 1148.74 166.149 1148.61L161.355 1145.85C161.298 1145.81 161.253 1145.78 161.207 1145.73L162.044 1145.25C162.374 1145.06 162.488 1144.64 162.295 1144.31C162.107 1143.98 161.686 1143.87 161.355 1144.06L161.014 1144.26V1139.71C161.014 1139.47 161.145 1139.24 161.355 1139.12L165.808 1136.55V1137.08C165.808 1137.45 166.098 1137.74 166.463 1137.77L162.392 1140.12V1144.86L166.497 1147.23L170.602 1144.86V1140.11H170.596Z" fill="#EAF9FF"/>
<path d="M129.146 1165.79C129.083 1165.68 129.055 1165.56 129.055 1165.45C129.055 1165.21 129.18 1164.98 129.396 1164.85L135.813 1161.15C136.143 1160.96 136.565 1161.07 136.753 1161.4C136.941 1161.73 136.832 1162.15 136.502 1162.34L130.085 1166.04C129.761 1166.24 129.339 1166.12 129.146 1165.79Z" fill="#EAF9FF"/>
<path d="M142.583 1164.76C142.965 1164.76 143.272 1165.07 143.272 1165.45V1172.86C143.272 1173.25 142.965 1173.55 142.583 1173.55C142.202 1173.55 141.895 1173.25 141.895 1172.86V1165.45C141.895 1165.07 142.202 1164.76 142.583 1164.76Z" fill="#EAF9FF"/>
<path d="M136.856 1158.95L144.651 1163.45L144.685 1163.48L144.81 1163.55L144.992 1163.66C145.066 1163.7 145.123 1163.75 145.175 1163.82C145.186 1163.83 145.197 1163.85 145.209 1163.86C145.243 1163.91 145.271 1163.97 145.294 1164.03C145.311 1164.07 145.311 1164.12 145.323 1164.16C145.328 1164.19 145.334 1164.2 145.334 1164.23C145.34 1164.25 145.34 1164.46 145.34 1164.46V1164.65V1164.9V1173.6V1173.66V1174.04C145.34 1174.29 145.209 1174.52 144.998 1174.64L144.77 1174.77L144.691 1174.82L137.676 1178.87C137.607 1179.36 137.294 1179.77 136.862 1179.97C136.679 1180.06 136.48 1180.1 136.269 1180.1C135.979 1180.1 135.711 1180.02 135.484 1179.87C135.182 1179.67 134.96 1179.36 134.88 1178.99L127.347 1174.64C127.137 1174.52 127 1174.29 127 1174.04V1164.24C127 1164 127.131 1163.77 127.347 1163.65L135.489 1158.95L135.837 1158.75C135.854 1158.74 135.877 1158.74 135.894 1158.73C135.968 1158.7 136.047 1158.68 136.127 1158.67C136.156 1158.67 136.184 1158.66 136.218 1158.66C136.326 1158.67 136.435 1158.69 136.531 1158.75L136.856 1158.95ZM128.367 1164.64V1173.64L135.279 1177.64C135.535 1177.39 135.877 1177.24 136.258 1177.24C136.6 1177.24 136.913 1177.37 137.158 1177.57L143.956 1173.64V1164.64L140.056 1162.39L136.156 1160.14L128.367 1164.64Z" fill="#EAF9FF"/>
<path d="M166.834 1103.09L169.299 1104.51C169.51 1104.64 169.641 1104.87 169.641 1105.11V1107.96C169.641 1108.2 169.51 1108.43 169.299 1108.56L167.175 1109.78L166.834 1109.98C166.623 1110.1 166.355 1110.1 166.145 1109.98L165.797 1109.78L163.673 1108.56C163.463 1108.43 163.326 1108.2 163.326 1107.96V1105.11C163.326 1104.87 163.457 1104.64 163.673 1104.51L166.139 1103.09C166.361 1102.97 166.623 1102.97 166.834 1103.09ZM164.715 1105.51V1107.56L166.469 1108.57C166.515 1108.57 168.268 1107.56 168.268 1107.56V1105.51L166.492 1104.48L164.715 1105.51Z" fill="#EAF9FF"/>
<path d="M154.638 1149.53C154.638 1150.09 154.342 1150.56 153.903 1150.8C153.88 1150.81 153.858 1150.83 153.829 1150.84C153.641 1150.93 153.436 1150.98 153.214 1150.98C152.964 1150.98 152.73 1150.91 152.525 1150.8C152.503 1150.79 152.474 1150.77 152.451 1150.76C152.053 1150.51 151.785 1150.06 151.785 1149.55C151.785 1148.76 152.423 1148.12 153.214 1148.12C153.482 1148.12 153.732 1148.2 153.949 1148.33C154.353 1148.58 154.626 1149.02 154.638 1149.53Z" fill="#EAF9FF"/>
<path d="M160.264 1164.25C160.275 1163.71 160.554 1163.28 160.958 1163.03C161.175 1162.9 161.425 1162.82 161.693 1162.82C161.96 1162.82 162.211 1162.9 162.427 1163.03C162.832 1163.28 163.111 1163.71 163.116 1164.22C163.122 1164.79 162.82 1165.25 162.382 1165.5C162.177 1165.61 161.943 1165.68 161.693 1165.68C161.442 1165.68 161.209 1165.61 161.004 1165.5C160.565 1165.25 160.264 1164.79 160.264 1164.25Z" fill="#EAF9FF"/>
<path d="M137.591 1149.66C137.591 1150.22 137.295 1150.69 136.856 1150.93C136.651 1151.04 136.418 1151.11 136.167 1151.11C135.917 1151.11 135.683 1151.04 135.478 1150.93C135.04 1150.68 134.738 1150.22 134.738 1149.68C134.75 1149.14 135.029 1148.71 135.433 1148.46C135.649 1148.33 135.9 1148.25 136.167 1148.25C136.435 1148.25 136.686 1148.33 136.902 1148.46C137.306 1148.71 137.579 1149.15 137.591 1149.66Z" fill="#EAF9FF"/>
</g>
<path d="M638.393 1037.04L638.511 1027.57L638.285 1027.7C638.1 1027.81 637.869 1027.81 637.684 1027.7L637.314 1027.49L637.195 1037.15L630.02 1041.29L621.481 1036.28V1036.58C621.481 1036.79 621.368 1036.99 621.183 1037.1L620.844 1037.29L629.459 1042.35V1050.47L620.916 1055.32L617.544 1053.37C617.359 1053.27 617.128 1053.27 616.943 1053.37L613.298 1055.48C613.113 1055.58 613 1055.78 613 1056V1060.2C613 1060.42 613.113 1060.61 613.298 1060.72L616.943 1062.82C617.128 1062.93 617.359 1062.93 617.544 1062.82L621.188 1060.72C621.374 1060.61 621.487 1060.42 621.487 1060.2V1056.38L629.891 1051.6L637.082 1055.75V1063.07L637.55 1062.81C637.735 1062.7 637.966 1062.7 638.151 1062.81L638.285 1062.88V1055.99L645.708 1051.7L651.074 1054.74V1056.97C651.074 1057.19 651.187 1057.38 651.372 1057.49L653.737 1058.85V1061.44L652.041 1062.42C651.856 1062.53 651.742 1062.72 651.742 1062.94V1065.25C651.742 1065.46 651.856 1065.66 652.041 1065.77L654.04 1066.92C654.225 1067.03 654.457 1067.03 654.642 1066.92L656.641 1065.77C656.826 1065.66 656.939 1065.46 656.939 1065.25V1062.94C656.939 1062.72 656.826 1062.53 656.641 1062.42L654.945 1061.44V1058.85L656.888 1057.73L659.772 1059.45V1061.56C659.772 1061.77 659.885 1061.97 660.07 1062.08L662.064 1063.23C662.249 1063.34 662.481 1063.34 662.666 1063.23L664.665 1062.08C664.85 1061.97 664.963 1061.77 664.963 1061.56V1059.25C664.963 1059.03 664.85 1058.84 664.665 1058.73L662.666 1057.58C662.481 1057.47 662.249 1057.47 662.064 1057.58L660.496 1058.48L657.608 1056.77V1054.22L660.563 1052.41L662.033 1053.26C662.218 1053.36 662.45 1053.36 662.635 1053.26L664.634 1052.1C664.819 1052 664.932 1051.8 664.932 1051.59V1049.28C664.932 1049.06 664.819 1048.87 664.634 1048.76L662.635 1047.61C662.45 1047.5 662.218 1047.5 662.033 1047.61L660.039 1048.76C659.854 1048.87 659.741 1049.06 659.741 1049.28V1051.51L657.001 1053.19L654.652 1051.84C654.467 1051.73 654.236 1051.73 654.05 1051.84L651.388 1053.37C651.347 1053.4 651.326 1053.44 651.29 1053.47L646.33 1050.67V1042.86L654.786 1038.66L656.713 1039.77C656.898 1039.88 657.129 1039.88 657.315 1039.77L659.977 1038.23C660.162 1038.12 660.275 1037.93 660.275 1037.71V1034.64C660.275 1034.42 660.162 1034.23 659.977 1034.12L657.315 1032.58C657.129 1032.47 656.898 1032.47 656.713 1032.58L654.05 1034.12C653.865 1034.23 653.752 1034.42 653.752 1034.64V1037.71C653.752 1037.75 653.773 1037.78 653.783 1037.82L646.186 1041.6C646.14 1041.54 646.098 1041.48 646.032 1041.44L638.393 1037.04ZM620.279 1059.86L617.236 1061.61L614.193 1059.86V1056.34L617.236 1054.58L619.703 1056.01L620.279 1056.34V1057.05V1059.86ZM663.745 1061.21L662.347 1062.02L660.949 1061.21V1060.15V1059.59L661.663 1059.18L662.347 1058.79L663.745 1059.59V1061.21ZM660.918 1049.62L662.316 1048.81L663.714 1049.62V1049.78V1050.37V1051.24L662.316 1052.04L661.709 1051.69L660.923 1051.24V1050.77V1049.62H660.918ZM656.394 1054.24V1054.96V1056.05V1056.36V1056.62L655.69 1057.02L655.418 1057.18L654.929 1057.47L654.328 1057.81L653.727 1057.47L652.262 1056.62V1055.41V1054.24L652.442 1054.14L654.323 1053.06L655.808 1053.91L656.394 1054.24ZM654.328 1062.47L654.929 1062.82L655.726 1063.28V1064.89L654.775 1065.44L654.451 1065.63L654.328 1065.71L654.205 1065.63L653.881 1065.44L652.93 1064.89V1063.28L653.727 1062.82L654.328 1062.47ZM654.929 1037.23V1034.98L656.991 1033.79L659.052 1034.98V1037.37L656.991 1038.56L656.05 1038.02L654.924 1037.37V1037.23H654.929ZM645.111 1042.31V1043.45V1049.99V1050.65L644.489 1051.01L638.28 1054.6L637.884 1054.82L637.082 1054.36L631.099 1050.91L630.657 1050.65V1049.78V1043.05V1042.3L631.212 1041.98L637.185 1038.53L637.889 1038.13L638.388 1038.42L644.942 1042.2L645.111 1042.31Z" fill="#67CDF5" fill-opacity="0.5"/>
<path d="M637.166 1039.45L631.984 1042.45L631.738 1042.59C631.553 1042.7 631.439 1042.89 631.439 1043.11V1043.52V1049.34V1049.86C631.439 1050.08 631.553 1050.27 631.738 1050.38L631.887 1050.47L637.078 1053.47L637.582 1053.75C637.767 1053.86 637.998 1053.86 638.184 1053.75L638.281 1053.7L643.699 1050.57L644.028 1050.38C644.213 1050.27 644.326 1050.08 644.326 1049.86V1049.56V1043.85V1043.11C644.326 1042.92 644.223 1042.75 644.074 1042.64C644.059 1042.63 644.049 1042.61 644.028 1042.6L638.369 1039.33L638.184 1039.22C637.998 1039.11 637.767 1039.11 637.582 1039.22L637.166 1039.45ZM643.129 1043.45V1044.44V1048.87V1049.51L642.486 1049.88L638.281 1052.31L637.885 1052.53L637.084 1052.07L633.1 1049.77L632.642 1049.5V1048.65V1044.21V1043.45L633.182 1043.14L637.155 1040.85L637.885 1040.43L638.353 1040.7L642.805 1043.27L643.129 1043.45Z" fill="#67CDF5" fill-opacity="0.5"/>
<path d="M618.764 1035.83C618.677 1036.09 618.615 1036.36 618.615 1036.65C618.615 1038.02 619.731 1039.13 621.098 1039.13C622.47 1039.13 623.581 1038.01 623.581 1036.65C623.581 1036.36 623.524 1036.09 623.432 1035.83C623.329 1035.54 623.17 1035.26 622.964 1035.03C622.506 1034.5 621.843 1034.16 621.093 1034.16C620.342 1034.16 619.679 1034.5 619.222 1035.03C619.026 1035.26 618.867 1035.54 618.764 1035.83Z" fill="#67CDF5" fill-opacity="0.5"/>
<path d="M635.54 1026.68C635.452 1026.93 635.391 1027.2 635.391 1027.49C635.391 1028.86 636.506 1029.97 637.873 1029.97C639.246 1029.97 640.356 1028.86 640.356 1027.49C640.356 1027.2 640.3 1026.93 640.207 1026.68C640.104 1026.38 639.945 1026.11 639.739 1025.87C639.282 1025.35 638.619 1025 637.868 1025C637.118 1025 636.455 1025.34 635.997 1025.87C635.807 1026.11 635.648 1026.38 635.54 1026.68Z" fill="#67CDF5" fill-opacity="0.5"/>
<path d="M635.632 1063.57C635.586 1063.74 635.555 1063.91 635.555 1064.09C635.555 1064.98 636.177 1065.74 637.015 1065.95C637.164 1065.98 637.318 1066.01 637.482 1066.01C637.642 1066.01 637.801 1065.98 637.95 1065.95C638.788 1065.74 639.41 1064.98 639.41 1064.09C639.41 1063.02 638.546 1062.16 637.487 1062.16C636.943 1062.16 636.449 1062.39 636.1 1062.76C635.873 1062.99 635.719 1063.26 635.632 1063.57Z" fill="#67CDF5" fill-opacity="0.5"/>
<path d="M362.111 1018.52C362.297 1018.65 362.541 1018.68 362.752 1018.59L366.393 1017.03C366.604 1016.94 366.752 1016.74 366.782 1016.52L367.11 1013.74C366.669 1013.92 366.19 1013.85 365.83 1013.59L365.542 1016L362.589 1017.26L360.014 1015.33L360.393 1012.14L363.347 1010.87L365.287 1012.32C365.349 1011.89 365.624 1011.48 366.058 1011.29L363.825 1009.62C363.639 1009.48 363.395 1009.45 363.184 1009.54L359.543 1011.1C359.332 1011.2 359.184 1011.39 359.154 1011.62L358.686 1015.55C358.656 1015.78 358.755 1016.01 358.941 1016.15L362.111 1018.52Z" fill="#44FAED"/>
<path d="M396.435 1025.05L389.41 1028.06C389.583 1028.2 389.728 1028.37 389.821 1028.59C389.914 1028.81 389.941 1029.03 389.918 1029.25L396.944 1026.24L397.288 1026.09C397.499 1026 397.646 1025.81 397.677 1025.58L397.722 1025.21L398.722 1016.82L398.767 1016.46C398.798 1016.23 398.699 1016 398.513 1015.86L398.215 1015.64L391.426 1010.56L391.416 1010.65L391.387 1010.89C391.357 1011.12 391.209 1011.32 390.999 1011.41L390.67 1011.55L390.621 1011.57L397.442 1016.67C397.437 1016.67 396.435 1025.05 396.435 1025.05Z" fill="#44FAED"/>
<path d="M387.812 1030.2L386.98 1037.2L383.742 1038.59C383.531 1038.68 383.383 1038.88 383.353 1039.1L382.885 1043.04C382.855 1043.27 382.954 1043.5 383.139 1043.63L386.312 1046.01C386.497 1046.14 386.742 1046.17 386.953 1046.08L390.593 1044.52C390.804 1044.43 390.952 1044.23 390.982 1044L391.45 1040.07C391.481 1039.84 391.382 1039.61 391.196 1039.48L388.271 1037.29L389.097 1030.35C388.653 1030.54 388.175 1030.46 387.812 1030.2ZM390.122 1040.29L389.743 1043.48L386.79 1044.75L384.215 1042.82L384.594 1039.63L386.984 1038.6C387.087 1038.75 387.242 1038.85 387.431 1038.88C387.64 1038.9 387.834 1038.81 387.967 1038.68L390.122 1040.29Z" fill="#44FAED"/>
<path d="M372.016 1028.32L371.11 1035.91L371.065 1036.28C371.025 1036.63 371.274 1036.95 371.628 1036.99C371.982 1037.03 372.303 1036.78 372.345 1036.43L372.453 1035.53L373.293 1028.47C372.857 1028.66 372.378 1028.58 372.016 1028.32Z" fill="#44FAED"/>
<path d="M374.025 1026.71C374.107 1026.9 374.134 1027.1 374.129 1027.29C374.128 1027.31 374.124 1027.34 374.122 1027.37L381.148 1024.36L387.268 1028.94C387.33 1028.5 387.605 1028.09 388.039 1027.9L385.297 1025.85L381.919 1023.32L382.919 1014.94C382.995 1014.9 383.058 1014.84 383.107 1014.78L382.891 1014.88L382.73 1014.95L382.548 1015.02C382.425 1015.08 382.296 1015.08 382.168 1015.06C382.149 1015.05 382.135 1015.05 382.116 1015.05C382.043 1015.02 381.973 1015 381.912 1014.95L381.751 1014.83L381.641 1014.75L381.609 1014.73L380.607 1023.11L373.547 1026.13C373.57 1026.15 373.59 1026.17 373.609 1026.18C373.787 1026.32 373.932 1026.49 374.025 1026.71Z" fill="#44FAED"/>
<path d="M382.386 1013.69L379.008 1011.16L382.386 1013.69Z" fill="#44FAED"/>
<path d="M374.854 1009.68L374.556 1009.45C374.472 1009.39 374.412 1009.31 374.367 1009.22C374.357 1009.19 374.351 1009.17 374.338 1009.14C374.314 1009.06 374.304 1008.99 374.306 1008.91C374.305 1008.89 374.296 1008.87 374.3 1008.86L374.345 1008.49L367.428 1011.45C367.602 1011.59 367.747 1011.76 367.839 1011.98C367.932 1012.2 367.959 1012.42 367.937 1012.64L374.854 1009.68Z" fill="#44FAED"/>
<path d="M343.684 1053.97L351.25 1050.73L354.122 1052.87C354.308 1053.01 354.552 1053.04 354.763 1052.95L358.404 1051.39C358.615 1051.3 358.762 1051.1 358.793 1050.87L359.217 1047.31L366.748 1044.08L367.209 1043.88C367.528 1043.75 367.671 1043.39 367.556 1043.07C367.552 1043.06 367.553 1043.05 367.549 1043.04C367.544 1043.03 367.535 1043.02 367.531 1043.01C367.377 1042.7 367.019 1042.56 366.701 1042.7L366.239 1042.89L358.703 1046.12L355.831 1043.98C355.645 1043.84 355.401 1043.81 355.19 1043.9L351.549 1045.46C351.338 1045.55 351.19 1045.75 351.16 1045.98L350.736 1049.54L343.17 1052.78L343.47 1053.01C343.656 1053.14 343.755 1053.37 343.725 1053.6L343.684 1053.97ZM352.4 1046.5L355.353 1045.23L357.907 1047.14C357.924 1047.18 357.546 1050.35 357.546 1050.35L354.593 1051.62L352.018 1049.69L352.4 1046.5Z" fill="#44FAED"/>
<path d="M392.969 1001.91L399.725 999.014L402.597 1001.16C402.783 1001.3 403.027 1001.33 403.238 1001.24L406.879 999.676C407.09 999.586 407.238 999.389 407.268 999.161L407.736 995.226C407.766 994.998 407.667 994.768 407.481 994.632L404.309 992.258C404.123 992.123 403.879 992.094 403.668 992.184L400.027 993.745C399.816 993.835 399.668 994.032 399.638 994.26L399.214 997.822L392.37 1000.76C392.581 1000.9 392.759 1001.09 392.866 1001.34C392.941 1001.53 392.975 1001.72 392.969 1001.91ZM400.88 994.785L403.833 993.519L406.408 995.447L406.029 998.641L403.075 999.907L400.521 997.999C400.5 997.95 400.88 994.785 400.88 994.785Z" fill="#44FAED"/>
<path d="M398.515 1015.87C398.701 1016 398.799 1016.24 398.769 1016.46L398.724 1016.83L406.48 1013.51L413.24 1018.56L412.238 1026.94L404.481 1030.26L397.727 1025.21L397.681 1025.58C397.651 1025.8 397.503 1026 397.292 1026.09L396.949 1026.24L404.003 1031.52C404.189 1031.66 404.434 1031.68 404.645 1031.59L413.088 1027.97C413.299 1027.88 413.447 1027.69 413.477 1027.46L414.563 1018.34C414.593 1018.11 414.495 1017.88 414.309 1017.75L406.956 1012.25C406.771 1012.11 406.526 1012.08 406.315 1012.17L398.215 1015.64L398.515 1015.87Z" fill="#44FAED"/>
<path d="M396.435 1025.05L397.437 1016.67L396.435 1025.05Z" fill="#44FAED"/>
<path d="M411.679 1026.12L412.503 1019.23C412.543 1018.87 412.295 1018.55 411.941 1018.51C411.824 1018.49 411.711 1018.51 411.613 1018.56C411.406 1018.64 411.252 1018.84 411.224 1019.07L410.4 1025.97C410.36 1026.32 410.608 1026.65 410.962 1026.69C411.318 1026.73 411.639 1026.48 411.679 1026.12Z" fill="#44FAED"/>
<path d="M399.017 1025.26C399.371 1025.3 399.694 1025.05 399.734 1024.7L400.558 1017.8C400.598 1017.44 400.349 1017.12 399.995 1017.08C399.879 1017.07 399.766 1017.09 399.667 1017.13C399.461 1017.22 399.307 1017.41 399.281 1017.65L398.457 1024.55C398.41 1024.9 398.663 1025.22 399.017 1025.26Z" fill="#44FAED"/>
<path d="M371.082 1045.71L367.552 1043.07C367.667 1043.39 367.524 1043.75 367.205 1043.88L366.744 1044.08L370.601 1046.97C370.787 1047.1 371.032 1047.13 371.243 1047.04L376.016 1045C376.227 1044.91 376.375 1044.71 376.405 1044.48L377.019 1039.33C377.049 1039.1 376.95 1038.87 376.765 1038.73L372.61 1035.62C372.559 1035.59 372.513 1035.56 372.457 1035.54L372.349 1036.44C372.309 1036.79 371.988 1037.05 371.632 1037C371.278 1036.96 371.024 1036.64 371.069 1036.29L371.115 1035.92L367.2 1037.6C366.989 1037.69 366.841 1037.88 366.811 1038.11L366.242 1042.9L366.704 1042.7C367.022 1042.56 367.38 1042.7 367.534 1043.01L368.057 1038.63L372.144 1036.88L375.701 1039.54L375.176 1043.96L371.084 1045.71L371.082 1045.71Z" fill="#44FAED"/>
<path d="M377.896 1000.51C377.779 1000.49 377.666 1000.51 377.568 1000.56C377.362 1000.64 377.207 1000.84 377.179 1001.07L376.355 1007.97C376.315 1008.32 376.564 1008.65 376.918 1008.69C377.271 1008.73 377.595 1008.48 377.634 1008.12L378.458 1001.23C378.505 1000.87 378.252 1000.55 377.896 1000.51Z" fill="#44FAED"/>
<path d="M381.969 1012.47C382.11 1012.8 382.489 1012.95 382.817 1012.81L389.205 1010.07C389.534 1009.93 389.685 1009.55 389.544 1009.22C389.404 1008.89 389.025 1008.74 388.696 1008.88L382.309 1011.62C381.98 1011.76 381.828 1012.14 381.969 1012.47Z" fill="#44FAED"/>
<path d="M374.855 1009.67L381.615 1014.73L381.647 1014.75L381.757 1014.83L381.918 1014.95C381.979 1015 382.049 1015.02 382.122 1015.04C382.141 1015.05 382.155 1015.05 382.174 1015.06C382.231 1015.07 382.29 1015.07 382.353 1015.07C382.394 1015.07 382.433 1015.05 382.476 1015.04C382.498 1015.04 382.515 1015.04 382.534 1015.03C382.556 1015.03 382.738 1014.95 382.738 1014.95L382.9 1014.88L383.115 1014.79L390.617 1011.57L390.666 1011.55L390.995 1011.41C391.206 1011.32 391.354 1011.12 391.384 1010.89L391.412 1010.65L391.422 1010.56L392.325 1003.02C392.721 1002.78 392.959 1002.36 392.971 1001.92C392.977 1001.73 392.943 1001.54 392.865 1001.36C392.758 1001.11 392.585 1000.91 392.369 1000.77C392.086 1000.58 391.734 1000.51 391.39 1000.57L384.86 995.688C384.674 995.552 384.427 995.519 384.216 995.609L375.773 999.228C375.562 999.319 375.414 999.516 375.386 999.748L374.346 1008.5L374.3 1008.87C374.297 1008.89 374.31 1008.9 374.306 1008.92C374.304 1009 374.314 1009.08 374.339 1009.15C374.349 1009.17 374.355 1009.2 374.367 1009.23C374.412 1009.32 374.472 1009.4 374.557 1009.47L374.855 1009.67ZM376.626 1000.26L384.383 996.932L390.375 1001.41C390.258 1001.72 390.257 1002.07 390.398 1002.4C390.524 1002.7 390.748 1002.92 391.015 1003.06L390.14 1010.36L382.384 1013.69L379.005 1011.16L375.627 1008.63L376.626 1000.26Z" fill="#44FAED"/>
<path d="M337.792 1056.14L339.929 1057.73C340.115 1057.87 340.36 1057.9 340.571 1057.81L343.024 1056.76C343.235 1056.67 343.383 1056.47 343.413 1056.24L343.683 1053.96L343.729 1053.59C343.759 1053.36 343.66 1053.13 343.474 1053L343.174 1052.77L341.335 1051.39C341.149 1051.26 340.905 1051.23 340.694 1051.32L338.241 1052.37C338.03 1052.46 337.882 1052.66 337.852 1052.89L337.536 1055.54C337.51 1055.77 337.606 1056 337.792 1056.14ZM339.09 1053.42L340.856 1052.66L342.377 1053.8C342.394 1053.84 342.169 1055.72 342.169 1055.72L340.402 1056.48L338.863 1055.33L339.09 1053.42Z" fill="#44FAED"/>
<path d="M373.299 1028.48C373.786 1028.28 374.077 1027.85 374.121 1027.38C374.123 1027.36 374.129 1027.33 374.128 1027.3C374.138 1027.11 374.106 1026.91 374.024 1026.72C373.931 1026.5 373.786 1026.33 373.612 1026.19C373.594 1026.18 373.574 1026.16 373.551 1026.14C373.188 1025.89 372.706 1025.83 372.265 1026.02C371.583 1026.31 371.269 1027.09 371.561 1027.77C371.66 1028.01 371.821 1028.19 372.014 1028.33C372.379 1028.59 372.858 1028.66 373.299 1028.48Z" fill="#44FAED"/>
<path d="M388.063 1027.89C387.607 1028.1 387.33 1028.5 387.27 1028.94C387.237 1029.17 387.261 1029.42 387.36 1029.65C387.459 1029.88 387.62 1030.07 387.813 1030.21C388.173 1030.46 388.654 1030.54 389.092 1030.36C389.578 1030.15 389.871 1029.72 389.918 1029.25C389.941 1029.03 389.913 1028.81 389.821 1028.59C389.728 1028.37 389.583 1028.2 389.409 1028.06C389.038 1027.78 388.53 1027.69 388.063 1027.89Z" fill="#44FAED"/>
<path d="M367.109 1013.74C367.595 1013.54 367.888 1013.11 367.932 1012.64C367.954 1012.42 367.927 1012.2 367.834 1011.98C367.742 1011.77 367.597 1011.59 367.423 1011.45C367.05 1011.17 366.541 1011.08 366.075 1011.28C365.618 1011.48 365.344 1011.89 365.282 1012.33C365.249 1012.56 365.273 1012.81 365.372 1013.04C365.47 1013.27 365.632 1013.45 365.824 1013.59C366.19 1013.85 366.668 1013.92 367.109 1013.74Z" fill="#44FAED"/>
<path d="M-5.99985 0.000305176L-5.99985 658.499L1145.13 827.756C1196.37 835.29 1248.53 822.653 1290.64 792.505L1445 682L1445 0.000436778L-5.99985 0.000305176Z" fill="url(#paint17_linear)"/>
<defs>
<linearGradient id="paint0_linear" x1="600.5" y1="1146.43" x2="703.852" y2="995.126" gradientUnits="userSpaceOnUse">
<stop stop-color="#41FEEC"/>
<stop offset="1" stop-color="#41FEEC" stop-opacity="0"/>
</linearGradient>
<linearGradient id="paint1_linear" x1="765.691" y1="1202.37" x2="839.173" y2="1074" gradientUnits="userSpaceOnUse">
<stop stop-color="#41FEEC"/>
<stop offset="1" stop-color="#41FEEC" stop-opacity="0"/>
</linearGradient>
<linearGradient id="paint2_linear" x1="491.074" y1="1132.42" x2="491.95" y2="1136.34" gradientUnits="userSpaceOnUse">
<stop stop-color="#0E2187"/>
<stop offset="1" stop-color="#AFB7E2"/>
</linearGradient>
<linearGradient id="paint3_linear" x1="327.056" y1="1295.18" x2="333.917" y2="1296.33" gradientUnits="userSpaceOnUse">
<stop stop-color="#0E2187"/>
<stop offset="1" stop-color="#AFB7E2"/>
</linearGradient>
<linearGradient id="paint4_linear" x1="465.594" y1="1097.36" x2="472.454" y2="1098.51" gradientUnits="userSpaceOnUse">
<stop stop-color="#0E2187"/>
<stop offset="1" stop-color="#AFB7E2"/>
</linearGradient>
<linearGradient id="paint5_linear" x1="94.6723" y1="2.72703e-06" x2="164.948" y2="258.11" gradientUnits="userSpaceOnUse">
<stop stop-color="#0D1253"/>
<stop offset="1" stop-color="#3F2A98"/>
</linearGradient>
<linearGradient id="paint6_linear" x1="28.151" y1="8.10888e-07" x2="49.0476" y2="76.7494" gradientUnits="userSpaceOnUse">
<stop stop-color="#41FEEC"/>
<stop offset="1" stop-color="#9A9AF0"/>
</linearGradient>
<linearGradient id="paint7_linear" x1="254.415" y1="1149.06" x2="266.517" y2="1164.11" gradientUnits="userSpaceOnUse">
<stop stop-color="#0E2187"/>
<stop offset="1" stop-color="#939CCE"/>
</linearGradient>
<linearGradient id="paint8_linear" x1="334.9" y1="1192.65" x2="347.001" y2="1207.71" gradientUnits="userSpaceOnUse">
<stop stop-color="#0E2187"/>
<stop offset="1" stop-color="#939CCE"/>
</linearGradient>
<linearGradient id="paint9_linear" x1="121.789" y1="1195.66" x2="122.664" y2="1199.58" gradientUnits="userSpaceOnUse">
<stop stop-color="#0E2187"/>
<stop offset="1" stop-color="#AFB7E2"/>
</linearGradient>
<linearGradient id="paint10_linear" x1="28.8671" y1="8.31517e-07" x2="50.2954" y2="78.7019" gradientUnits="userSpaceOnUse">
<stop stop-color="#41FEEC"/>
<stop offset="1" stop-color="#9A9AF0"/>
</linearGradient>
<linearGradient id="paint11_linear" x1="27.8009" y1="8.00806e-07" x2="48.4377" y2="75.7951" gradientUnits="userSpaceOnUse">
<stop stop-color="#41FEEC"/>
<stop offset="1" stop-color="#9A9AF0"/>
</linearGradient>
<linearGradient id="paint12_linear" x1="223.771" y1="908.949" x2="463.593" y2="1037.71" gradientUnits="userSpaceOnUse">
<stop stop-color="white"/>
<stop offset="0.681272" stop-color="#43368F"/>
<stop offset="1" stop-color="#312384"/>
</linearGradient>
<linearGradient id="paint13_linear" x1="28.1189" y1="8.09964e-07" x2="48.9917" y2="76.6619" gradientUnits="userSpaceOnUse">
<stop stop-color="#41FEEC"/>
<stop offset="1" stop-color="#9A9AF0"/>
</linearGradient>
<linearGradient id="paint14_linear" x1="411.966" y1="1715.55" x2="464.195" y2="1740.45" gradientUnits="userSpaceOnUse">
<stop stop-color="#0E2187"/>
<stop offset="1" stop-color="#AFB7E2"/>
</linearGradient>
<linearGradient id="paint15_linear" x1="260.5" y1="1337.43" x2="363.852" y2="1186.13" gradientUnits="userSpaceOnUse">
<stop stop-color="#41FEEC"/>
<stop offset="1" stop-color="#41FEEC" stop-opacity="0"/>
</linearGradient>
<linearGradient id="paint16_linear" x1="418.5" y1="1428.43" x2="521.852" y2="1277.13" gradientUnits="userSpaceOnUse">
<stop stop-color="#41FEEC"/>
<stop offset="1" stop-color="#41FEEC" stop-opacity="0"/>
</linearGradient>
<linearGradient id="paint17_linear" x1="693" y1="-891.498" x2="688" y2="1031.5" gradientUnits="userSpaceOnUse">
<stop offset="0.343458" stop-color="#070F4A"/>
<stop offset="0.649295" stop-color="#15165E"/>
<stop offset="1" stop-color="#5B37C0"/>
</linearGradient>
</defs>
</svg>
