<svg preserveAspectRatio="xMinYMin slice" viewBox="0 0 375 1217" fill="none" xmlns="http://www.w3.org/2000/svg">
<path d="M253.211 1162.71C253.103 1162.89 252.909 1163 252.695 1163H247.385C247.17 1163 246.976 1162.89 246.869 1162.71L244.212 1158.11C244.104 1157.93 244.104 1157.7 244.212 1157.51L246.67 1153.25L246.864 1152.91C246.971 1152.73 247.165 1152.62 247.38 1152.62H247.676H252.689C252.904 1152.62 253.098 1152.73 253.206 1152.91L255.863 1157.51C255.97 1157.7 255.97 1157.93 255.863 1158.11L253.211 1162.71ZM248.376 1153.81H247.722L247.359 1154.44L245.412 1157.81L247.722 1161.81H252.347L254.657 1157.81L252.347 1153.81H248.376V1153.81Z" fill="#67CDF5" fill-opacity="0.5"/>
<path d="M146.886 1034.22C147.142 1034.13 147.408 1034.07 147.694 1034.07C149.058 1034.07 150.162 1035.18 150.162 1036.54C150.162 1037.9 149.053 1039.01 147.694 1039.01C147.408 1039.01 147.142 1038.95 146.886 1038.86C146.59 1038.76 146.319 1038.6 146.084 1038.39C145.563 1037.94 145.221 1037.28 145.221 1036.53C145.221 1035.79 145.558 1035.13 146.084 1034.67C146.319 1034.48 146.59 1034.32 146.886 1034.22Z" fill="#67CDF5" fill-opacity="0.5"/>
<path d="M269.691 1182.78H264.208C264.269 1182.58 264.315 1182.38 264.315 1182.16C264.315 1181.94 264.275 1181.73 264.208 1181.54H269.691C269.63 1181.73 269.584 1181.94 269.584 1182.16C269.584 1182.37 269.63 1182.58 269.691 1182.78Z" fill="#67CDF5" fill-opacity="0.5"/>
<path d="M272.042 1180.18L275.563 1174.09L272.042 1167.99C272.252 1167.94 272.441 1167.86 272.625 1167.76C272.809 1167.65 272.972 1167.52 273.11 1167.37L276.81 1173.78C276.923 1173.97 276.923 1174.2 276.81 1174.4L273.11 1180.81C272.967 1180.66 272.804 1180.52 272.625 1180.42C272.446 1180.31 272.252 1180.23 272.042 1180.18Z" fill="#67CDF5" fill-opacity="0.5"/>
<path d="M269.691 1166.63H264.208C264.269 1166.43 264.315 1166.22 264.315 1166.01C264.315 1165.79 264.275 1165.58 264.208 1165.39H269.691C269.63 1165.58 269.584 1165.79 269.584 1166.01C269.584 1166.23 269.63 1166.43 269.691 1166.63Z" fill="#67CDF5" fill-opacity="0.5"/>
<path d="M258.588 1159.66C258.772 1159.55 258.936 1159.42 259.074 1159.26L261.828 1164.03C261.619 1164.08 261.43 1164.16 261.251 1164.27C261.067 1164.38 260.908 1164.52 260.77 1164.67L258.006 1159.88C258.215 1159.84 258.409 1159.76 258.588 1159.66Z" fill="#67CDF5" fill-opacity="0.5"/>
<path d="M261.229 1167.74C261.244 1167.75 261.26 1167.75 261.275 1167.76C261.438 1167.86 261.617 1167.93 261.806 1167.98C261.822 1167.98 261.842 1167.99 261.857 1167.99L259.123 1172.73C259.113 1172.71 259.103 1172.7 259.088 1172.69C258.955 1172.55 258.802 1172.44 258.638 1172.34C258.623 1172.33 258.607 1172.33 258.592 1172.31C258.423 1172.22 258.25 1172.15 258.055 1172.11C258.035 1172.11 258.02 1172.11 257.999 1172.1L260.754 1167.33C260.764 1167.34 260.774 1167.36 260.789 1167.37C260.917 1167.51 261.065 1167.63 261.229 1167.74Z" fill="#67CDF5" fill-opacity="0.5"/>
<path d="M261.816 1184.13L259.072 1188.88C258.929 1188.73 258.766 1188.59 258.587 1188.49C258.408 1188.39 258.214 1188.3 258.004 1188.26L260.759 1183.48C260.897 1183.64 261.055 1183.78 261.239 1183.89C261.418 1184 261.612 1184.08 261.816 1184.13Z" fill="#67CDF5" fill-opacity="0.5"/>
<path d="M258.052 1176.07C258.246 1176.03 258.43 1175.95 258.598 1175.85C258.609 1175.85 258.624 1175.84 258.634 1175.83C258.803 1175.74 258.961 1175.61 259.094 1175.48C259.104 1175.47 259.109 1175.46 259.12 1175.45L261.854 1180.18C261.838 1180.19 261.828 1180.19 261.813 1180.19C261.618 1180.24 261.44 1180.32 261.271 1180.41C261.261 1180.42 261.245 1180.42 261.235 1180.43C261.067 1180.54 260.913 1180.66 260.78 1180.81C260.77 1180.82 260.765 1180.83 260.755 1180.84L258.006 1176.07C258.026 1176.07 258.041 1176.07 258.052 1176.07Z" fill="#67CDF5" fill-opacity="0.5"/>
<path d="M264.207 1181.54C264.268 1181.74 264.314 1181.95 264.314 1182.16C264.314 1182.37 264.274 1182.58 264.207 1182.78C263.947 1183.6 263.19 1184.19 262.286 1184.19C262.122 1184.19 261.969 1184.16 261.816 1184.13C261.611 1184.08 261.417 1183.99 261.238 1183.89C261.059 1183.78 260.896 1183.64 260.758 1183.48C260.446 1183.13 260.252 1182.67 260.252 1182.16C260.252 1181.65 260.446 1181.19 260.758 1180.84C260.768 1180.83 260.773 1180.82 260.783 1180.81C260.916 1180.66 261.069 1180.53 261.238 1180.43C261.248 1180.43 261.264 1180.42 261.274 1180.41C261.443 1180.31 261.621 1180.24 261.816 1180.19C261.831 1180.19 261.841 1180.18 261.856 1180.18C261.994 1180.15 262.137 1180.14 262.286 1180.14C263.19 1180.13 263.947 1180.72 264.207 1181.54Z" fill="#67CDF5" fill-opacity="0.5"/>
<path d="M269.69 1166.62C269.629 1166.43 269.583 1166.22 269.583 1166C269.583 1165.79 269.624 1165.58 269.69 1165.39C269.951 1164.57 270.707 1163.98 271.612 1163.98C272.731 1163.98 273.641 1164.89 273.641 1166C273.641 1166.53 273.436 1167 273.109 1167.36C272.966 1167.52 272.803 1167.65 272.624 1167.76C272.445 1167.86 272.251 1167.94 272.041 1167.99C271.903 1168.02 271.76 1168.03 271.612 1168.03C270.707 1168.03 269.951 1167.44 269.69 1166.62Z" fill="#67CDF5" fill-opacity="0.5"/>
<path d="M264.207 1165.39C264.268 1165.58 264.314 1165.79 264.314 1166.01C264.314 1166.22 264.274 1166.43 264.207 1166.62C263.947 1167.44 263.19 1168.03 262.286 1168.03C262.137 1168.03 261.994 1168.02 261.856 1167.99C261.841 1167.98 261.821 1167.98 261.805 1167.97C261.616 1167.93 261.443 1167.85 261.274 1167.76C261.259 1167.75 261.243 1167.74 261.228 1167.73C261.064 1167.63 260.916 1167.51 260.788 1167.37C260.778 1167.35 260.763 1167.33 260.753 1167.32C260.446 1166.97 260.257 1166.51 260.257 1166.01C260.257 1165.5 260.456 1165.04 260.768 1164.68C260.906 1164.52 261.069 1164.39 261.248 1164.28C261.427 1164.17 261.616 1164.09 261.826 1164.04C261.974 1164.01 262.122 1163.99 262.281 1163.99C263.19 1163.98 263.947 1164.58 264.207 1165.39Z" fill="#67CDF5" fill-opacity="0.5"/>
<path d="M272.626 1180.41C272.81 1180.52 272.973 1180.64 273.111 1180.8C273.438 1181.16 273.643 1181.63 273.643 1182.16C273.643 1183.28 272.733 1184.19 271.614 1184.19C270.709 1184.19 269.953 1183.6 269.692 1182.78C269.631 1182.58 269.585 1182.38 269.585 1182.16C269.585 1181.94 269.626 1181.74 269.692 1181.54C269.953 1180.72 270.709 1180.13 271.614 1180.13C271.762 1180.13 271.905 1180.15 272.043 1180.18C272.253 1180.22 272.447 1180.31 272.626 1180.41Z" fill="#67CDF5" fill-opacity="0.5"/>
<path d="M239.341 1191.56L241.298 1188.17C241.405 1187.99 241.6 1187.87 241.814 1187.87H245.724C245.938 1187.87 246.132 1187.99 246.24 1188.17L247.982 1191.19L248.197 1191.56C248.304 1191.74 248.304 1191.97 248.197 1192.16L248.064 1192.38L246.24 1195.54C246.132 1195.72 245.938 1195.84 245.724 1195.84H241.814C241.6 1195.84 241.405 1195.72 241.298 1195.54L239.341 1192.15C239.234 1191.97 239.234 1191.74 239.341 1191.56ZM245.376 1194.65L246.674 1192.4L246.986 1191.86L246.613 1191.21L245.376 1189.07H242.151L240.542 1191.86L242.151 1194.65H245.376Z" fill="#67CDF5" fill-opacity="0.5"/>
<path d="M191.995 1054.85C186.042 1059.67 165.917 1070.44 165.917 1070.44C165.917 1070.44 146.641 1060.8 140.122 1055.7V941.094C140.122 900.87 193.088 900.87 193.088 941.094L191.995 1054.85Z" fill="url(#paint0_linear)"/>
<path d="M100.103 1097.94C94.6474 1102.64 76.201 1113.15 76.201 1113.15C76.201 1113.15 58.5341 1103.75 52.5585 1098.77V1020.09C52.5585 980.82 101.105 980.82 101.105 1020.09L100.103 1097.94Z" fill="url(#paint1_linear)"/>
<path d="M88.7513 1103.96L105.482 1112.91C106.532 1113.47 107.799 1113.45 108.828 1112.84L125.689 1102.98C126.697 1102.39 127.937 1102.35 128.978 1102.89L146.586 1111.88" stroke="url(#paint2_linear)" stroke-width="1.28484"/>
<path d="M235.926 1158.65L252.781 1168.54C254.446 1169.51 254.378 1171.09 252.63 1172.02L237.978 1179.79C236.251 1180.71 236.16 1182.26 237.777 1183.25L252.828 1192.38" stroke="url(#paint3_linear)" stroke-width="1.28484"/>
<path d="M165.129 1057.57L181.984 1067.46C183.649 1068.43 183.581 1070.01 181.833 1070.94L167.181 1078.71C165.454 1079.63 165.364 1081.19 166.98 1082.17L182.031 1091.3" stroke="url(#paint4_linear)" stroke-width="1.28484"/>
<path d="M297.279 1122.32C298.866 1121.41 299.416 1117 297.83 1116.08L219.236 1073.94C217.649 1073.02 215.076 1073.02 213.489 1073.94L132.599 1117.41C131.012 1118.33 131.448 1122.8 133.035 1123.72L211.078 1168.78C212.664 1169.7 215.237 1169.7 216.824 1168.78L297.279 1122.32Z" fill="#00074D"/>
<rect x="-0.370909" width="96.3283" height="99.1132" rx="3.70108" transform="matrix(-0.866046 -0.499965 -0.866046 0.499965 299.423 1117.28)" fill="url(#paint5_linear)" stroke="#0D1253" stroke-width="0.428279"/>
<path d="M189.789 1058.49C190.261 1058.22 190.524 1056.29 190.052 1056.02L166.582 1044.11C166.11 1043.83 165.345 1043.83 164.873 1044.11L140.834 1056.24C140.363 1056.51 140.478 1058.64 140.95 1058.91L164.156 1072.31C164.628 1072.58 165.393 1072.58 165.865 1072.31L189.789 1058.49Z" fill="#1D6F81"/>
<rect x="-0.370873" width="28.3432" height="29.1713" rx="0.642419" transform="matrix(-0.86596 -0.500113 -0.86596 0.500113 189.951 1055.94)" fill="url(#paint6_linear)" stroke="#378A9C" stroke-width="0.428279"/>
<path d="M280.717 1134.89C281.002 1134.57 280.834 1133.88 280.717 1133.81L276.718 1131.98C276.601 1131.91 276.411 1131.91 276.294 1131.98L270.478 1135.38C270.361 1135.45 270.39 1136.41 270.507 1136.47L274.362 1138.42C274.479 1138.49 274.669 1138.49 274.786 1138.42L280.717 1134.89Z" fill="#00074D"/>
<path d="M280.446 1134.05C280.651 1133.93 280.639 1133.74 280.42 1133.63L277.006 1131.92C276.809 1131.83 276.513 1131.83 276.328 1131.94L270.71 1135.18C270.506 1135.3 270.518 1135.5 270.736 1135.6L274.15 1137.31C274.348 1137.41 274.644 1137.4 274.828 1137.3L280.446 1134.05Z" fill="#182A8D" stroke="url(#paint7_linear)" stroke-width="0.0428279"/>
<path d="M239.588 1157.16C239.873 1156.84 239.705 1156.15 239.588 1156.08L235.59 1154.25C235.473 1154.18 235.283 1154.18 235.166 1154.25L229.35 1157.66C229.233 1157.73 229.261 1158.68 229.378 1158.75L233.234 1160.7C233.351 1160.76 233.541 1160.76 233.658 1160.7L239.588 1157.16Z" fill="#00074D"/>
<path d="M239.317 1156.32C239.522 1156.21 239.51 1156.01 239.291 1155.9L235.877 1154.2C235.68 1154.1 235.384 1154.11 235.199 1154.21L229.581 1157.46C229.376 1157.57 229.388 1157.77 229.607 1157.88L233.021 1159.58C233.219 1159.68 233.515 1159.68 233.699 1159.57L239.317 1156.32Z" fill="#182A8D" stroke="url(#paint8_linear)" stroke-width="0.0428279"/>
<path d="M277.462 1136.27L294.193 1145.22C295.243 1145.78 296.51 1145.76 297.539 1145.16L314.4 1135.29C315.408 1134.7 316.648 1134.67 317.689 1135.2L335.297 1144.2" stroke="url(#paint9_linear)" stroke-width="1.28484"/>
<path d="M364.665 1156.03C365.148 1155.75 365.418 1153.77 364.934 1153.49L340.867 1141.28C340.384 1141 339.599 1141 339.115 1141.28L314.465 1153.72C313.981 1154 314.099 1156.18 314.583 1156.46L338.38 1170.2C338.864 1170.48 339.648 1170.48 340.132 1170.2L364.665 1156.03Z" fill="#1D6F81"/>
<rect x="-0.370882" width="29.0751" height="29.9243" rx="0.642419" transform="matrix(-0.865982 -0.500075 -0.865982 0.500075 364.849 1153.41)" fill="url(#paint10_linear)" stroke="#378A9C" stroke-width="0.428279"/>
<path d="M99.8778 1099.68C100.344 1099.41 100.603 1097.5 100.137 1097.23L76.9596 1085.47C76.4936 1085.2 75.738 1085.2 75.272 1085.47L51.532 1097.46C51.066 1097.73 51.1796 1099.82 51.6456 1100.09L74.5638 1113.33C75.0298 1113.59 75.7854 1113.59 76.2514 1113.33L99.8778 1099.68Z" fill="#1D6F81"/>
<rect x="-0.370882" width="27.9854" height="28.8033" rx="0.642419" transform="matrix(-0.865982 -0.500075 -0.865982 0.500075 100.031 1097.15)" fill="url(#paint11_linear)" stroke="#378A9C" stroke-width="0.428279"/>
<line x1="1.27513" y1="-1.27513" x2="54.2717" y2="-1.27513" transform="matrix(-0.878214 -0.478267 -0.478337 0.878176 240.291 1134)" stroke="#00074D" stroke-width="2.55026" stroke-linecap="round"/>
<path d="M241.774 1127.21L240.586 1127.61C240.453 1126.29 240.189 1121.65 240.189 1119.75C240.189 1117.84 241.774 1117.63 242.566 1117.77C241.933 1118.08 241.774 1119.22 241.774 1119.75V1127.21Z" fill="#A9C9DE"/>
<path d="M203.739 1106.71L202.55 1107.1C202.418 1105.78 202.154 1102.67 202.154 1100.77C202.154 1098.86 203.739 1098.65 204.531 1098.78C203.897 1099.1 203.739 1100.24 203.739 1100.77V1106.71Z" fill="#A9C9DE"/>
<path d="M244.15 1117.77L242.962 1118.16L242.566 1115.39H244.15V1117.77Z" fill="#A9C9DE"/>
<path d="M242.963 1118.17V1115.79L191.46 1090.83V1092.81C193.678 1093.45 193.969 1095.19 193.837 1095.98V1102.72L202.553 1107.07V1101.53C202.553 1100.74 202.949 1099.23 204.534 1099.55C206.752 1100.18 207.307 1101.92 207.307 1102.72V1109.45L240.586 1127.61V1120.54C240.586 1118.32 242.171 1118.03 242.963 1118.17Z" fill="#E3F0F9"/>
<path d="M245.456 1118.67V1047.83L190.152 1021.16V1090.66L245.456 1118.67Z" fill="url(#paint12_linear)" stroke="#2F2282" stroke-width="0.557102"/>
<path d="M193.836 1018.74L189.874 1020.72L245.735 1047.66L249.301 1045.68L193.836 1018.74Z" fill="#273678"/>
<path d="M249.301 1117.16V1045.68L245.735 1047.66V1119.14L249.301 1117.16Z" fill="#0E2187"/>
<path d="M283.329 1202.71C283.8 1202.44 284.063 1200.5 283.591 1200.23L260.148 1188.34C259.677 1188.06 258.913 1188.06 258.441 1188.34L234.43 1200.46C233.959 1200.73 234.074 1202.85 234.545 1203.12L257.725 1216.51C258.197 1216.78 258.961 1216.78 259.432 1216.51L283.329 1202.71Z" fill="#1D6F81"/>
<rect x="-0.370882" width="28.3104" height="29.1375" rx="0.642419" transform="matrix(-0.865982 -0.500075 -0.865982 0.500075 283.49 1200.15)" fill="url(#paint13_linear)" stroke="#378A9C" stroke-width="0.428279"/>
<path d="M170.604 565L-39.3652 746.374C-41.1457 747.912 -40.8819 750.746 -38.8481 751.929L92.0219 828.042C94.2874 829.36 94.295 832.629 92.0357 833.958L8.57028 883.023C6.31222 884.351 6.31831 887.618 8.58129 888.937L104.126 944.626C105.179 945.24 105.827 946.367 105.827 947.586V1063.27C105.827 1064.43 106.412 1065.51 107.382 1066.14L162.633 1102.14" stroke="url(#paint14_linear)" stroke-width="1.28484"/>
<path d="M365.743 1152.44C359.79 1157.26 339.665 1168.03 339.665 1168.03C339.665 1168.03 320.389 1158.39 313.87 1153.29V1038.68C313.87 998.46 366.836 998.46 366.836 1038.68L365.743 1152.44Z" fill="url(#paint15_linear)"/>
<path d="M285 1198.94C279.048 1203.76 258.922 1214.53 258.922 1214.53C258.922 1214.53 239.647 1204.89 233.128 1199.79V1085.19C233.128 1044.96 286.094 1044.96 286.094 1085.19L285 1198.94Z" fill="url(#paint16_linear)"/>
<path d="M154.449 985.779V987.139C154.401 987.124 154.35 987.113 154.296 987.113C154.243 987.113 154.191 987.123 154.142 987.139V985.779C154.191 985.794 154.243 985.805 154.296 985.805C154.35 985.805 154.401 985.794 154.449 985.779Z" fill="#67CDF5" fill-opacity="0.5"/>
<path d="M153.806 985.194L152.293 984.321L150.78 985.194C150.769 985.142 150.749 985.096 150.723 985.05C150.697 985.004 150.665 984.964 150.626 984.929L152.216 984.01C152.264 983.982 152.322 983.982 152.369 984.01L153.961 984.928C153.923 984.964 153.89 985.004 153.863 985.049C153.838 985.094 153.816 985.142 153.806 985.194Z" fill="#67CDF5" fill-opacity="0.5"/>
<path d="M150.441 985.779V987.139C150.393 987.124 150.341 987.113 150.288 987.113C150.235 987.113 150.183 987.123 150.135 987.139V985.779C150.183 985.794 150.235 985.805 150.288 985.805C150.341 985.805 150.392 985.794 150.441 985.779Z" fill="#67CDF5" fill-opacity="0.5"/>
<path d="M148.278 989.286C148.331 989.286 148.383 989.276 148.431 989.259V991.008L149.945 991.882C149.907 991.917 149.874 991.958 149.848 992.002C149.822 992.047 149.802 992.095 149.791 992.147L148.2 991.229C148.153 991.201 148.124 991.15 148.124 991.096V989.258C148.172 989.274 148.224 989.286 148.278 989.286Z" fill="#67CDF5" fill-opacity="0.5"/>
<path d="M148.711 988.536C148.684 988.49 148.653 988.45 148.613 988.415L149.798 987.732C149.809 987.784 149.83 987.831 149.856 987.875C149.883 987.921 149.917 987.96 149.955 987.994L148.767 988.68C148.758 988.628 148.738 988.58 148.711 988.536Z" fill="#67CDF5" fill-opacity="0.5"/>
<path d="M151.852 991.345C151.878 991.39 151.91 991.431 151.949 991.465L150.774 992.143C150.762 992.091 150.742 992.043 150.717 991.999C150.69 991.953 150.658 991.913 150.619 991.878L151.794 991.2C151.806 991.252 151.826 991.299 151.852 991.345Z" fill="#67CDF5" fill-opacity="0.5"/>
<path d="M150.716 987.876C150.719 987.872 150.72 987.869 150.722 987.865C150.746 987.824 150.764 987.78 150.776 987.733C150.777 987.729 150.778 987.724 150.779 987.72L151.955 988.399C151.951 988.401 151.947 988.404 151.945 988.408C151.911 988.441 151.883 988.479 151.859 988.519C151.856 988.523 151.855 988.527 151.852 988.531C151.83 988.572 151.812 988.616 151.802 988.664C151.8 988.669 151.8 988.673 151.799 988.678L150.615 987.994C150.618 987.992 150.622 987.989 150.625 987.985C150.66 987.954 150.691 987.917 150.716 987.876Z" fill="#67CDF5" fill-opacity="0.5"/>
<path d="M154.785 987.732L155.965 988.413C155.927 988.448 155.894 988.489 155.867 988.533C155.842 988.578 155.822 988.626 155.81 988.678L154.626 987.994C154.665 987.96 154.699 987.921 154.726 987.875C154.752 987.831 154.773 987.783 154.785 987.732Z" fill="#67CDF5" fill-opacity="0.5"/>
<path d="M152.286 989.274C152.288 989.274 152.289 989.276 152.292 989.276C152.344 989.276 152.392 989.265 152.439 989.251C152.442 989.25 152.443 989.25 152.445 989.249V990.622C152.443 990.621 152.442 990.621 152.439 990.62C152.392 990.605 152.344 990.594 152.292 990.594C152.289 990.594 152.288 990.593 152.286 990.593C152.234 990.593 152.185 990.603 152.138 990.617C152.136 990.619 152.135 990.619 152.132 990.62V989.246C152.135 989.248 152.136 989.248 152.138 989.249C152.185 989.264 152.235 989.274 152.286 989.274Z" fill="#67CDF5" fill-opacity="0.5"/>
<path d="M152.779 991.2L153.961 991.882C153.923 991.918 153.89 991.958 153.863 992.003C153.838 992.047 153.818 992.095 153.806 992.147L152.627 991.466C152.665 991.431 152.697 991.39 152.723 991.345C152.747 991.3 152.768 991.252 152.779 991.2Z" fill="#67CDF5" fill-opacity="0.5"/>
<path d="M156.148 989.258C156.196 989.273 156.248 989.285 156.302 989.285C156.355 989.285 156.407 989.274 156.455 989.258V991.096C156.455 991.15 156.426 991.201 156.379 991.229L154.789 992.147C154.777 992.095 154.757 992.047 154.732 992.002C154.705 991.957 154.673 991.916 154.634 991.882L156.148 991.008V989.258Z" fill="#67CDF5" fill-opacity="0.5"/>
<path d="M152.784 988.664C152.773 988.616 152.754 988.57 152.73 988.528C152.729 988.526 152.728 988.522 152.725 988.519C152.701 988.477 152.671 988.438 152.636 988.405C152.634 988.403 152.631 988.401 152.629 988.399L153.804 987.72C153.806 987.724 153.807 987.727 153.807 987.73C153.818 987.779 153.837 987.823 153.862 987.865C153.863 987.867 153.864 987.871 153.867 987.874C153.892 987.916 153.922 987.954 153.959 987.987C153.962 987.989 153.964 987.99 153.967 987.993L152.785 988.675C152.785 988.67 152.785 988.666 152.784 988.664Z" fill="#67CDF5" fill-opacity="0.5"/>
<path d="M154.144 987.145C154.192 987.13 154.244 987.118 154.297 987.118C154.351 987.118 154.403 987.128 154.451 987.145C154.654 987.209 154.801 987.397 154.801 987.622C154.801 987.662 154.794 987.7 154.786 987.738C154.773 987.789 154.753 987.837 154.726 987.882C154.699 987.926 154.665 987.967 154.626 988.001C154.537 988.078 154.423 988.126 154.297 988.126C154.17 988.126 154.056 988.078 153.969 988.001C153.966 987.998 153.964 987.997 153.961 987.994C153.924 987.962 153.894 987.923 153.869 987.882C153.867 987.879 153.866 987.875 153.864 987.873C153.839 987.831 153.82 987.786 153.809 987.738C153.808 987.735 153.807 987.732 153.807 987.728C153.799 987.694 153.795 987.658 153.795 987.622C153.794 987.397 153.942 987.209 154.144 987.145Z" fill="#67CDF5" fill-opacity="0.5"/>
<path d="M150.441 985.782C150.393 985.797 150.341 985.808 150.288 985.808C150.234 985.808 150.182 985.798 150.134 985.782C149.931 985.717 149.784 985.529 149.784 985.305C149.784 985.027 150.01 984.801 150.288 984.801C150.418 984.801 150.535 984.852 150.625 984.933C150.663 984.969 150.696 985.009 150.723 985.054C150.748 985.098 150.768 985.146 150.78 985.198C150.787 985.232 150.791 985.268 150.791 985.305C150.791 985.529 150.643 985.717 150.441 985.782Z" fill="#67CDF5" fill-opacity="0.5"/>
<path d="M152.132 990.625C152.135 990.624 152.136 990.624 152.138 990.622C152.185 990.608 152.234 990.598 152.286 990.598C152.288 990.598 152.289 990.6 152.292 990.6C152.344 990.601 152.392 990.61 152.439 990.625C152.442 990.626 152.443 990.626 152.445 990.627C152.644 990.695 152.789 990.881 152.789 991.103C152.789 991.139 152.785 991.173 152.778 991.207C152.766 991.259 152.746 991.307 152.721 991.352C152.695 991.397 152.662 991.438 152.624 991.473C152.534 991.556 152.416 991.608 152.284 991.608C152.154 991.608 152.037 991.557 151.947 991.476C151.909 991.44 151.876 991.4 151.849 991.355C151.824 991.311 151.804 991.263 151.792 991.211C151.785 991.177 151.781 991.141 151.781 991.104C151.782 990.877 151.931 990.69 152.132 990.625Z" fill="#67CDF5" fill-opacity="0.5"/>
<path d="M150.136 987.145C150.184 987.13 150.236 987.118 150.289 987.118C150.343 987.118 150.395 987.128 150.443 987.145C150.646 987.209 150.793 987.397 150.793 987.622C150.793 987.658 150.789 987.694 150.782 987.728C150.78 987.732 150.779 987.737 150.778 987.741C150.766 987.788 150.747 987.831 150.724 987.873C150.722 987.877 150.721 987.88 150.718 987.884C150.693 987.925 150.662 987.962 150.627 987.993C150.623 987.996 150.619 988 150.617 988.002C150.529 988.078 150.415 988.125 150.291 988.125C150.163 988.125 150.049 988.076 149.96 987.998C149.92 987.964 149.887 987.923 149.861 987.879C149.834 987.835 149.814 987.788 149.803 987.736C149.794 987.699 149.789 987.662 149.789 987.623C149.786 987.397 149.933 987.209 150.136 987.145Z" fill="#67CDF5" fill-opacity="0.5"/>
<path d="M153.864 985.054C153.891 985.008 153.923 984.967 153.962 984.933C154.051 984.852 154.169 984.801 154.299 984.801C154.577 984.801 154.803 985.027 154.803 985.305C154.803 985.529 154.656 985.717 154.453 985.782C154.405 985.797 154.354 985.808 154.299 985.808C154.246 985.808 154.194 985.798 154.146 985.782C153.943 985.717 153.796 985.529 153.796 985.305C153.796 985.268 153.8 985.232 153.807 985.198C153.817 985.146 153.839 985.098 153.864 985.054Z" fill="#67CDF5" fill-opacity="0.5"/>
<path d="M153.864 992.011C153.891 991.966 153.923 991.925 153.962 991.891C154.051 991.81 154.169 991.759 154.299 991.759C154.43 991.759 154.547 991.81 154.637 991.891C154.675 991.926 154.708 991.967 154.734 992.011C154.76 992.056 154.78 992.104 154.791 992.156C154.799 992.19 154.803 992.225 154.803 992.262C154.803 992.54 154.577 992.766 154.299 992.766C154.022 992.766 153.796 992.54 153.796 992.262C153.796 992.225 153.8 992.19 153.807 992.156C153.817 992.104 153.839 992.056 153.864 992.011Z" fill="#67CDF5" fill-opacity="0.5"/>
<path d="M149.847 992.011C149.873 991.966 149.905 991.925 149.944 991.891C150.033 991.81 150.151 991.759 150.282 991.759C150.412 991.759 150.529 991.81 150.619 991.891C150.657 991.926 150.69 991.967 150.717 992.011C150.742 992.056 150.762 992.104 150.774 992.156C150.781 992.19 150.785 992.225 150.785 992.262C150.785 992.54 150.559 992.766 150.282 992.766C150.004 992.766 149.778 992.54 149.778 992.262C149.778 992.225 149.782 992.19 149.79 992.156C149.801 992.104 149.821 992.056 149.847 992.011Z" fill="#67CDF5" fill-opacity="0.5"/>
<path d="M148.276 988.282C148.406 988.282 148.523 988.332 148.613 988.414C148.651 988.449 148.684 988.49 148.711 988.534C148.736 988.578 148.756 988.627 148.768 988.679C148.775 988.713 148.779 988.748 148.779 988.785C148.779 989.01 148.632 989.197 148.429 989.262C148.381 989.277 148.33 989.289 148.276 989.289C148.221 989.289 148.171 989.279 148.122 989.262C147.919 989.197 147.772 989.01 147.772 988.785C147.772 988.506 147.998 988.282 148.276 988.282Z" fill="#67CDF5" fill-opacity="0.5"/>
<path d="M155.868 988.534C155.895 988.488 155.927 988.448 155.966 988.414C156.055 988.332 156.173 988.282 156.303 988.282C156.581 988.282 156.807 988.507 156.807 988.785C156.807 989.01 156.66 989.197 156.457 989.262C156.408 989.277 156.356 989.289 156.303 989.289C156.25 989.289 156.198 989.279 156.15 989.262C155.947 989.197 155.8 989.01 155.8 988.785C155.8 988.748 155.803 988.713 155.811 988.679C155.821 988.627 155.842 988.578 155.868 988.534Z" fill="#67CDF5" fill-opacity="0.5"/>
<path d="M151.801 988.667C151.811 988.62 151.831 988.576 151.852 988.534C151.855 988.53 151.856 988.526 151.858 988.522C151.883 988.481 151.91 988.442 151.945 988.411C151.948 988.407 151.952 988.404 151.955 988.402C152.044 988.321 152.162 988.27 152.292 988.27C152.423 988.27 152.539 988.321 152.629 988.402C152.632 988.404 152.635 988.406 152.637 988.408C152.673 988.441 152.702 988.481 152.726 988.522C152.727 988.525 152.728 988.529 152.731 988.531C152.754 988.573 152.773 988.619 152.784 988.667C152.785 988.671 152.785 988.673 152.787 988.677C152.793 988.709 152.797 988.741 152.797 988.773C152.797 988.998 152.65 989.186 152.447 989.25C152.444 989.252 152.443 989.252 152.441 989.253C152.394 989.267 152.345 989.277 152.293 989.277C152.291 989.277 152.29 989.276 152.287 989.276C152.235 989.274 152.187 989.266 152.14 989.25C152.137 989.249 152.136 989.249 152.134 989.248C151.935 989.181 151.79 988.994 151.79 988.772C151.79 988.741 151.794 988.709 151.799 988.68C151.8 988.676 151.8 988.671 151.801 988.667Z" fill="#67CDF5" fill-opacity="0.5"/>
<path d="M169.384 1019.48L164.15 1019.54L164.224 1019.42C164.283 1019.31 164.283 1019.19 164.224 1019.08L164.104 1018.88L169.44 1018.81L171.729 1014.85L168.96 1010.13H169.125C169.244 1010.13 169.352 1010.07 169.412 1009.97L169.52 1009.78L172.314 1014.54H176.801L179.482 1009.82L178.406 1007.96C178.346 1007.86 178.346 1007.73 178.406 1007.63L179.567 1005.61C179.627 1005.51 179.735 1005.45 179.854 1005.45H182.177C182.296 1005.45 182.404 1005.51 182.464 1005.61L183.626 1007.63C183.685 1007.73 183.685 1007.86 183.626 1007.96L182.464 1009.97C182.404 1010.07 182.296 1010.14 182.177 1010.14H180.064L177.426 1014.78L179.721 1018.75H183.765L183.617 1019.01C183.557 1019.11 183.557 1019.24 183.617 1019.34L183.66 1019.42H179.851L177.483 1023.52L179.158 1026.48H180.394C180.513 1026.48 180.621 1026.54 180.681 1026.65L181.433 1027.95H182.862L183.404 1027.02C183.464 1026.91 183.572 1026.85 183.691 1026.85H184.966C185.085 1026.85 185.193 1026.91 185.253 1027.02L185.889 1028.12C185.949 1028.22 185.949 1028.35 185.889 1028.45L185.253 1029.56C185.193 1029.66 185.085 1029.72 184.966 1029.72H183.691C183.572 1029.72 183.464 1029.66 183.404 1029.56L182.862 1028.62H181.433L180.814 1029.69L181.76 1031.29H182.927C183.046 1031.29 183.154 1031.35 183.214 1031.45L183.85 1032.55C183.909 1032.65 183.909 1032.78 183.85 1032.88L183.214 1033.99C183.154 1034.09 183.046 1034.15 182.927 1034.15H181.652C181.533 1034.15 181.425 1034.09 181.365 1033.99L180.729 1032.88C180.669 1032.78 180.669 1032.65 180.729 1032.55L181.229 1031.69L180.28 1030.09H178.874L177.872 1031.72L178.341 1032.54C178.4 1032.64 178.4 1032.77 178.341 1032.87L177.704 1033.97C177.645 1034.07 177.537 1034.14 177.418 1034.14H176.142C176.023 1034.14 175.915 1034.07 175.856 1033.97L175.22 1032.87C175.16 1032.77 175.16 1032.64 175.22 1032.54L175.856 1031.43C175.915 1031.33 176.023 1031.27 176.142 1031.27H177.375L178.306 1029.76L177.557 1028.46C177.497 1028.36 177.497 1028.23 177.557 1028.13L178.406 1026.65C178.42 1026.63 178.443 1026.62 178.46 1026.6L176.912 1023.86H172.598L170.275 1028.53L170.889 1029.6C170.948 1029.7 170.948 1029.83 170.889 1029.93L170.04 1031.4C169.98 1031.5 169.872 1031.56 169.753 1031.56H168.055C167.935 1031.56 167.827 1031.5 167.768 1031.4L166.919 1029.93C166.859 1029.83 166.859 1029.7 166.919 1029.6L167.768 1028.13C167.827 1028.02 167.935 1027.96 168.055 1027.96H169.753C169.773 1027.96 169.793 1027.97 169.812 1027.98L171.9 1023.78C171.868 1023.76 171.837 1023.73 171.815 1023.7L169.384 1019.48ZM181.987 1009.47L182.958 1007.79L181.987 1006.11H180.044L179.073 1007.79L179.86 1009.15L180.044 1009.47H180.439H181.987ZM182.734 1033.48L183.18 1032.71L182.734 1031.94H182.152H181.842L181.615 1032.33L181.396 1032.71L181.842 1033.48H182.734ZM176.333 1031.92L175.887 1032.69L176.333 1033.46H176.421H176.747H177.224L177.67 1032.69L177.477 1032.36L177.224 1031.92H176.966H176.333V1031.92ZM178.883 1029.42H179.281H179.885H180.056H180.198L180.422 1029.03L180.51 1028.88L180.666 1028.61L180.857 1028.28L180.666 1027.95L180.201 1027.14H179.53H178.886L178.829 1027.24L178.23 1028.28L178.704 1029.1L178.883 1029.42ZM183.432 1028.28L183.623 1028.61L183.878 1029.05H184.77L185.074 1028.53L185.179 1028.35L185.219 1028.28L185.179 1028.21L185.074 1028.03L184.77 1027.51H183.878L183.623 1027.95L183.432 1028.28ZM169.489 1028.61H168.245L167.586 1029.75L168.245 1030.89H169.563L170.221 1029.75L169.923 1029.23L169.565 1028.61H169.489V1028.61ZM172.292 1023.19H172.925H176.534H176.901L177.1 1022.84L179.082 1019.41L179.207 1019.2L178.951 1018.75L177.043 1015.45L176.901 1015.2H176.421H172.701H172.289L172.113 1015.51L170.207 1018.81L169.983 1019.2L170.142 1019.47L172.232 1023.09L172.292 1023.19Z" fill="#67CDF5" fill-opacity="0.5"/>
<path d="M170.715 1018.8L172.368 1015.93L172.447 1015.8C172.507 1015.7 172.615 1015.63 172.734 1015.63H172.958H176.179H176.466C176.585 1015.63 176.693 1015.7 176.752 1015.8L176.801 1015.88L178.456 1018.75L178.615 1019.03C178.675 1019.13 178.675 1019.26 178.615 1019.36L178.584 1019.41L176.858 1022.41L176.752 1022.59C176.693 1022.69 176.585 1022.75 176.466 1022.75H176.295H173.146H172.737C172.632 1022.75 172.538 1022.7 172.476 1022.61C172.467 1022.6 172.456 1022.6 172.45 1022.59L170.644 1019.46L170.584 1019.36C170.525 1019.26 170.525 1019.13 170.584 1019.03L170.715 1018.8ZM172.924 1022.09H173.47H175.915H176.27L176.474 1021.74L177.815 1019.41L177.94 1019.19L177.684 1018.75L176.415 1016.55L176.267 1016.3H175.795H173.342H172.922L172.751 1016.6L171.485 1018.79L171.252 1019.19L171.402 1019.45L172.822 1021.91L172.924 1022.09Z" fill="#67CDF5" fill-opacity="0.5"/>
<path d="M168.715 1008.63C168.857 1008.58 169.004 1008.55 169.164 1008.55C169.922 1008.55 170.535 1009.17 170.535 1009.92C170.535 1010.68 169.919 1011.29 169.164 1011.29C169.004 1011.29 168.857 1011.26 168.715 1011.21C168.55 1011.15 168.4 1011.07 168.269 1010.95C167.979 1010.7 167.789 1010.33 167.789 1009.92C167.789 1009.5 167.976 1009.14 168.269 1008.89C168.4 1008.78 168.55 1008.69 168.715 1008.63Z" fill="#67CDF5" fill-opacity="0.5"/>
<path d="M163.656 1017.9C163.798 1017.85 163.946 1017.82 164.105 1017.82C164.863 1017.82 165.477 1018.44 165.477 1019.19C165.477 1019.95 164.86 1020.56 164.105 1020.56C163.946 1020.56 163.798 1020.53 163.656 1020.48C163.491 1020.42 163.341 1020.34 163.21 1020.22C162.921 1019.97 162.73 1019.6 162.73 1019.19C162.73 1018.77 162.918 1018.41 163.21 1018.16C163.341 1018.05 163.491 1017.96 163.656 1017.9Z" fill="#67CDF5" fill-opacity="0.5"/>
<path d="M184.041 1017.95C184.132 1017.92 184.225 1017.91 184.325 1017.91C184.822 1017.91 185.236 1018.25 185.353 1018.71C185.373 1018.8 185.387 1018.88 185.387 1018.97C185.387 1019.06 185.373 1019.15 185.353 1019.23C185.236 1019.69 184.822 1020.04 184.325 1020.04C183.737 1020.04 183.26 1019.56 183.26 1018.97C183.26 1018.67 183.387 1018.4 183.592 1018.21C183.717 1018.08 183.87 1018 184.041 1017.95Z" fill="#67CDF5" fill-opacity="0.5"/>
<path d="M76.3871 1052.39C76.2533 1052.31 76.1701 1052.17 76.1701 1052.01V1049.33C76.1701 1049.17 76.2533 1049.03 76.3871 1048.95L78.0249 1048.01C78.0322 1048.33 78.2057 1048.61 78.4624 1048.76L77.0415 1049.58V1051.76L78.9288 1052.85L80.8161 1051.76V1049.58L79.3952 1048.76C79.6519 1048.61 79.8291 1048.33 79.8327 1048.01L81.4706 1048.95C81.6043 1049.03 81.6875 1049.17 81.6875 1049.33V1052.01C81.6875 1052.17 81.6043 1052.31 81.4706 1052.39L79.1458 1053.73C79.012 1053.81 78.842 1053.81 78.7083 1053.73L76.3871 1052.39Z" fill="#EAF9FF"/>
<path d="M63.1609 1032.77V1037.95C63.0308 1037.87 62.8825 1037.83 62.7234 1037.83C62.5644 1037.83 62.4161 1037.87 62.286 1037.95V1032.77V1032.52C62.286 1032.36 62.3691 1032.22 62.5029 1032.14L62.7198 1032.01L67.6732 1029.15L67.8901 1029.02C68.0239 1028.94 68.1938 1028.94 68.3276 1029.02L68.5445 1029.15L73.5195 1032.02L73.4689 1032.05L73.3243 1032.13C73.1905 1032.21 73.1074 1032.36 73.1074 1032.51V1032.76V1032.79L68.1106 1029.91C68.1106 1029.91 63.1609 1032.77 63.1609 1032.77Z" fill="#EAF9FF"/>
<path d="M62.2559 1039.52L58.1196 1041.9V1044.29C58.1196 1044.44 58.0365 1044.59 57.9027 1044.67L55.5779 1046.01C55.4441 1046.09 55.2742 1046.09 55.1404 1046.01L52.8156 1044.67C52.6818 1044.59 52.5987 1044.44 52.5987 1044.29V1041.61C52.5987 1041.45 52.6818 1041.31 52.8156 1041.23L55.1404 1039.88C55.2742 1039.81 55.4441 1039.81 55.5779 1039.88L57.7219 1041.12L61.8184 1038.76C61.822 1039.08 61.9955 1039.36 62.2559 1039.52ZM55.3573 1040.77L53.47 1041.86V1044.04L55.3573 1045.12L57.2447 1044.04V1042.27C57.1254 1042.25 57.0205 1042.18 56.9554 1042.07C56.8831 1041.95 56.8867 1041.8 56.941 1041.68L55.3573 1040.77Z" fill="#EAF9FF"/>
<path d="M67.6445 1048.85L63.1612 1051.44L62.9443 1051.57C62.7346 1051.68 62.467 1051.62 62.3477 1051.41C62.2284 1051.2 62.3007 1050.93 62.5068 1050.81L63.0383 1050.5L67.2107 1048.09C67.2107 1048.42 67.3842 1048.69 67.6445 1048.85Z" fill="#EAF9FF"/>
<path d="M68.1088 1047.16C67.9678 1047.16 67.8376 1047.19 67.7183 1047.25C67.7038 1047.26 67.6857 1047.27 67.6713 1047.27V1042.1L63.188 1039.51C63.4447 1039.35 63.6218 1039.07 63.6255 1038.75L65.6321 1039.91L68.1088 1041.34L73.0621 1038.48C73.0657 1038.42 73.0838 1038.37 73.1091 1038.32V1038.48V1038.6V1038.73C73.1091 1038.82 73.138 1038.91 73.1886 1038.98C73.1959 1038.99 73.2031 1039 73.2103 1039.01C73.2429 1039.05 73.279 1039.09 73.326 1039.11L73.4417 1039.18L73.5213 1039.23L73.543 1039.24L68.5933 1042.1V1047.3C68.5788 1047.29 68.5607 1047.29 68.5463 1047.28C68.4161 1047.21 68.2679 1047.16 68.1088 1047.16Z" fill="#EAF9FF"/>
<path d="M73.9804 1038.49L76.457 1039.92L73.9804 1038.49Z" fill="#EAF9FF"/>
<path d="M78.4925 1042.11L78.7094 1042.23C78.7709 1042.27 78.8396 1042.29 78.9083 1042.29C78.9264 1042.29 78.9445 1042.29 78.9662 1042.29C79.0168 1042.28 79.0674 1042.27 79.1144 1042.25C79.1252 1042.24 79.1397 1042.24 79.1505 1042.23L79.3711 1042.11V1047.21C79.2409 1047.13 79.0927 1047.09 78.9336 1047.09C78.7745 1047.09 78.6263 1047.13 78.4961 1047.21V1042.11H78.4925Z" fill="#EAF9FF"/>
<path d="M59.2374 1073.33V1067.76L57.1332 1066.54C56.9994 1066.46 56.9162 1066.32 56.9162 1066.16V1063.48C56.9162 1063.32 56.9994 1063.18 57.1332 1063.1L59.2374 1061.89V1056.34V1056C59.2374 1055.76 59.4218 1055.58 59.6532 1055.56C59.6605 1055.56 59.6677 1055.56 59.6749 1055.56C59.6821 1055.56 59.6894 1055.56 59.6966 1055.56C59.928 1055.58 60.1124 1055.76 60.1124 1056V1056.34V1061.89L62.2167 1063.1C62.3504 1063.18 62.4336 1063.32 62.4336 1063.48V1066.16C62.4336 1066.32 62.3504 1066.46 62.2167 1066.54L60.1124 1067.76V1073.33L59.8918 1073.2C59.7581 1073.12 59.5881 1073.12 59.4544 1073.2L59.2374 1073.33ZM61.5622 1065.91V1063.73L59.693 1062.65C59.6641 1062.65 57.7912 1063.73 57.7912 1063.73V1065.91L59.6785 1067L61.5622 1065.91Z" fill="#EAF9FF"/>
<path d="M78.4936 1028.76V1023.78L76.3893 1022.57C76.2556 1022.49 76.1724 1022.34 76.1724 1022.19V1019.5C76.1724 1019.35 76.2556 1019.2 76.3893 1019.12L78.7141 1017.78C78.8479 1017.7 79.0178 1017.7 79.1516 1017.78L81.4764 1019.12C81.6102 1019.2 81.6934 1019.35 81.6934 1019.5V1022.19C81.6934 1022.34 81.6102 1022.49 81.4764 1022.57L79.3722 1023.78V1028.83C79.2275 1028.73 79.0576 1028.68 78.8732 1028.68C78.7358 1028.68 78.6093 1028.71 78.4936 1028.76ZM80.8184 1021.94V1019.76L78.9311 1018.67L77.0437 1019.76V1021.94L78.913 1023.02C78.9491 1023.01 80.8184 1021.94 80.8184 1021.94Z" fill="#EAF9FF"/>
<path d="M68.3263 1029.03C68.1925 1028.95 68.0226 1028.95 67.8888 1029.03L67.6719 1029.15V1023.44L62.7222 1020.58L57.7725 1023.44V1029.15L62.7222 1032.01L62.5053 1032.14C62.3715 1032.22 62.2883 1032.36 62.2883 1032.52V1032.77L57.1181 1029.79C56.9843 1029.71 56.9011 1029.56 56.9011 1029.41V1023.18C56.9011 1023.03 56.9843 1022.88 57.1181 1022.8L62.5053 1019.7C62.639 1019.62 62.809 1019.62 62.9427 1019.7L68.3299 1022.8C68.4637 1022.88 68.5469 1023.03 68.5469 1023.18V1029.15L68.3263 1029.03Z" fill="#EAF9FF"/>
<path d="M63.1597 1032.77L68.1094 1029.91C68.1094 1029.91 63.1597 1032.77 63.1597 1032.77Z" fill="#EAF9FF"/>
<path d="M58.4271 1023.56L62.5018 1021.21C62.7115 1021.09 62.9791 1021.16 63.0984 1021.37C63.1382 1021.44 63.1562 1021.51 63.1562 1021.59C63.1562 1021.74 63.0767 1021.89 62.9393 1021.97L58.8646 1024.32C58.6549 1024.44 58.3873 1024.37 58.268 1024.16C58.1451 1023.95 58.2174 1023.68 58.4271 1023.56Z" fill="#EAF9FF"/>
<path d="M62.3422 1031.22C62.2229 1031.01 62.2916 1030.74 62.5013 1030.62L66.5761 1028.27C66.7858 1028.15 67.0533 1028.22 67.1726 1028.43C67.2124 1028.5 67.2305 1028.57 67.2305 1028.65C67.2305 1028.8 67.1509 1028.95 67.0099 1029.03L62.9352 1031.38C62.7291 1031.5 62.4615 1031.43 62.3422 1031.22Z" fill="#EAF9FF"/>
<path d="M57.0693 1054.07L59.6544 1055.56C59.423 1055.58 59.2386 1055.76 59.2386 1056V1056.34L56.4113 1054.71C56.2775 1054.63 56.1943 1054.48 56.1943 1054.33V1050.81C56.1943 1050.65 56.2775 1050.51 56.4113 1050.43L59.4556 1048.67C59.5894 1048.59 59.7593 1048.59 59.8931 1048.67L62.9374 1050.43C62.9735 1050.45 63.0024 1050.47 63.0314 1050.5L62.4999 1050.81C62.2902 1050.93 62.2179 1051.19 62.3408 1051.4C62.4601 1051.61 62.7277 1051.69 62.9374 1051.56L63.1543 1051.44V1054.32C63.1543 1054.48 63.0711 1054.62 62.9374 1054.7L60.11 1056.33V1055.99C60.11 1055.76 59.9256 1055.57 59.6942 1055.56L62.2793 1054.07V1051.05L59.6725 1049.55L57.0657 1051.05V1054.07H57.0693Z" fill="#EAF9FF"/>
<path d="M83.3894 1037.76C83.4292 1037.83 83.4473 1037.91 83.4473 1037.98C83.4473 1038.13 83.3677 1038.28 83.2303 1038.36L79.1556 1040.71C78.9459 1040.83 78.6783 1040.76 78.559 1040.56C78.4397 1040.35 78.5084 1040.08 78.7181 1039.96L82.7928 1037.6C82.9989 1037.48 83.2665 1037.55 83.3894 1037.76Z" fill="#EAF9FF"/>
<path d="M74.8555 1038.42C74.6132 1038.42 74.418 1038.22 74.418 1037.98V1033.28C74.418 1033.03 74.6132 1032.84 74.8555 1032.84C75.0977 1032.84 75.293 1033.03 75.293 1033.28V1037.98C75.293 1038.22 75.0977 1038.42 74.8555 1038.42Z" fill="#EAF9FF"/>
<path d="M78.4934 1042.1L73.5437 1039.24L73.522 1039.23L73.4425 1039.18L73.3268 1039.11C73.2798 1039.09 73.2436 1039.05 73.2111 1039.01C73.2038 1039 73.1966 1038.99 73.1894 1038.98C73.1677 1038.95 73.1496 1038.91 73.1351 1038.88C73.1243 1038.85 73.1243 1038.82 73.117 1038.79C73.1134 1038.78 73.1098 1038.77 73.1098 1038.75C73.1062 1038.74 73.1062 1038.6 73.1062 1038.6V1038.48V1038.33V1032.8V1032.76V1032.52C73.1062 1032.36 73.1894 1032.22 73.3231 1032.14L73.4678 1032.06L73.5184 1032.03L77.9728 1029.45C78.0162 1029.14 78.215 1028.88 78.4898 1028.76C78.6055 1028.7 78.732 1028.67 78.8658 1028.67C79.0502 1028.67 79.2201 1028.73 79.3647 1028.82C79.5564 1028.95 79.6974 1029.15 79.748 1029.38L84.5314 1032.14C84.6652 1032.22 84.752 1032.36 84.752 1032.52V1038.74C84.752 1038.9 84.6688 1039.04 84.5314 1039.12L79.3611 1042.1L79.1406 1042.23C79.1297 1042.24 79.1153 1042.23 79.1044 1042.24C79.0574 1042.26 79.0068 1042.28 78.9562 1042.28C78.9381 1042.28 78.92 1042.28 78.8983 1042.28C78.8297 1042.28 78.761 1042.27 78.6995 1042.23L78.4934 1042.1ZM83.8842 1038.49V1032.77L79.4949 1030.24C79.3322 1030.39 79.1153 1030.49 78.873 1030.49C78.6561 1030.49 78.4572 1030.41 78.3018 1030.28L73.9848 1032.77V1038.49L76.4614 1039.92L78.9381 1041.34L83.8842 1038.49Z" fill="#EAF9FF"/>
<path d="M59.4564 1077.58L57.8909 1076.67C57.7571 1076.59 57.6739 1076.45 57.6739 1076.29V1074.48C57.6739 1074.33 57.7571 1074.18 57.8909 1074.1L59.2395 1073.33L59.4564 1073.2C59.5902 1073.12 59.7601 1073.12 59.8939 1073.2L60.1144 1073.33L61.463 1074.1C61.5968 1074.18 61.6836 1074.33 61.6836 1074.48V1076.29C61.6836 1076.45 61.6004 1076.59 61.463 1076.67L59.8975 1077.58C59.7565 1077.65 59.5902 1077.65 59.4564 1077.58ZM60.8014 1076.04V1074.74L59.6878 1074.09C59.6589 1074.09 58.5453 1074.74 58.5453 1074.74V1076.04L59.6733 1076.69L60.8014 1076.04Z" fill="#EAF9FF"/>
<path d="M67.2023 1048.09C67.2023 1047.73 67.3903 1047.44 67.6687 1047.28C67.6831 1047.28 67.6976 1047.27 67.7157 1047.26C67.835 1047.2 67.9652 1047.17 68.1062 1047.17C68.2652 1047.17 68.4135 1047.21 68.5436 1047.28C68.5581 1047.29 68.5762 1047.3 68.5906 1047.31C68.8437 1047.47 69.0137 1047.75 69.0137 1048.08C69.0137 1048.58 68.6087 1048.98 68.1062 1048.98C67.9362 1048.98 67.7771 1048.93 67.6397 1048.85C67.383 1048.69 67.2095 1048.41 67.2023 1048.09Z" fill="#EAF9FF"/>
<path d="M63.6289 1038.74C63.6217 1039.08 63.4445 1039.35 63.1878 1039.51C63.0504 1039.59 62.8913 1039.64 62.7214 1039.64C62.5515 1039.64 62.3924 1039.59 62.255 1039.51C61.9983 1039.35 61.8211 1039.08 61.8175 1038.75C61.8139 1038.4 62.0055 1038.1 62.2839 1037.94C62.4141 1037.87 62.5623 1037.83 62.7214 1037.83C62.8805 1037.83 63.0287 1037.87 63.1589 1037.94C63.4373 1038.1 63.6289 1038.39 63.6289 1038.74Z" fill="#EAF9FF"/>
<path d="M78.0265 1048.01C78.0265 1047.65 78.2145 1047.36 78.4929 1047.21C78.6231 1047.13 78.7713 1047.09 78.9304 1047.09C79.0895 1047.09 79.2377 1047.13 79.3679 1047.21C79.6463 1047.36 79.8379 1047.65 79.8379 1048C79.8307 1048.34 79.6535 1048.62 79.3968 1048.77C79.2594 1048.85 79.1003 1048.91 78.9304 1048.91C78.7605 1048.91 78.6014 1048.85 78.464 1048.77C78.2073 1048.61 78.0337 1048.33 78.0265 1048.01Z" fill="#EAF9FF"/>
<path d="M83.0177 1075.47L82.9573 1070.63L83.0729 1070.7C83.1675 1070.76 83.2857 1070.76 83.3802 1070.7L83.5694 1070.59L83.6298 1075.53L87.2968 1077.64L91.6599 1075.08V1075.24C91.6599 1075.35 91.7177 1075.45 91.8123 1075.5L91.9856 1075.6L87.5831 1078.19V1082.33L91.9489 1084.81L93.672 1083.82C93.7666 1083.76 93.8848 1083.76 93.9794 1083.82L95.8418 1084.89C95.9363 1084.95 95.9941 1085.05 95.9941 1085.16V1087.31C95.9941 1087.42 95.9363 1087.52 95.8418 1087.57L93.9794 1088.65C93.8848 1088.7 93.7666 1088.7 93.672 1088.65L91.8096 1087.57C91.7151 1087.52 91.6573 1087.42 91.6573 1087.31V1085.35L87.3625 1082.91L83.6876 1085.04V1088.78L83.4485 1088.64C83.354 1088.58 83.2358 1088.58 83.1412 1088.64L83.0729 1088.68V1085.16L79.2798 1082.97L76.5374 1084.51V1085.66C76.5374 1085.77 76.4796 1085.87 76.3851 1085.92L75.1767 1086.62V1087.94L76.0436 1088.44C76.1382 1088.5 76.1959 1088.6 76.1959 1088.71V1089.89C76.1959 1090 76.1382 1090.1 76.0436 1090.15L75.0218 1090.74C74.9272 1090.8 74.809 1090.8 74.7144 1090.74L73.6926 1090.15C73.598 1090.1 73.5402 1090 73.5402 1089.89V1088.71C73.5402 1088.6 73.598 1088.5 73.6926 1088.44L74.5594 1087.94V1086.62L73.5665 1086.05L72.0929 1086.92V1088C72.0929 1088.11 72.0351 1088.21 71.9405 1088.27L70.9213 1088.85C70.8268 1088.91 70.7086 1088.91 70.614 1088.85L69.5922 1088.27C69.4976 1088.21 69.4398 1088.11 69.4398 1088V1086.82C69.4398 1086.71 69.4976 1086.61 69.5922 1086.56L70.614 1085.97C70.7086 1085.91 70.8268 1085.91 70.9213 1085.97L71.7225 1086.43L73.1988 1085.55V1084.25L71.6884 1083.33L70.9371 1083.76C70.8425 1083.81 70.7243 1083.81 70.6298 1083.76L69.6079 1083.17C69.5134 1083.12 69.4556 1083.02 69.4556 1082.9V1081.73C69.4556 1081.62 69.5134 1081.52 69.6079 1081.46L70.6298 1080.87C70.7243 1080.82 70.8425 1080.82 70.9371 1080.87L71.9563 1081.46C72.0509 1081.52 72.1086 1081.62 72.1086 1081.73V1082.87L73.5087 1083.73L74.7092 1083.03C74.8037 1082.98 74.9219 1082.98 75.0165 1083.03L76.3772 1083.82C76.3982 1083.83 76.4087 1083.85 76.4271 1083.87L78.962 1082.44V1078.45L74.6409 1076.3L73.6558 1076.87C73.5613 1076.92 73.4431 1076.92 73.3485 1076.87L71.9878 1076.08C71.8932 1076.03 71.8355 1075.93 71.8355 1075.82V1074.25C71.8355 1074.13 71.8932 1074.04 71.9878 1073.98L73.3485 1073.19C73.4431 1073.14 73.5613 1073.14 73.6558 1073.19L75.0165 1073.98C75.1111 1074.04 75.1689 1074.13 75.1689 1074.25V1075.82C75.1689 1075.83 75.1584 1075.85 75.1531 1075.87L79.0355 1077.8C79.0592 1077.77 79.0802 1077.74 79.1143 1077.72L83.0177 1075.47ZM92.2746 1087.13L93.8297 1088.03L95.3847 1087.13V1085.33L93.8297 1084.44L92.5688 1085.16L92.2746 1085.33V1085.7V1087.13ZM70.0624 1087.82L70.7769 1088.23L71.4913 1087.82V1087.28V1087L71.1262 1086.79L70.7769 1086.58L70.0624 1087V1087.82ZM71.5071 1081.9L70.7926 1081.49L70.0781 1081.9V1081.98V1082.29V1082.73L70.7926 1083.14L71.1026 1082.96L71.5045 1082.73V1082.49V1081.9H71.5071ZM73.8187 1084.26V1084.63V1085.19V1085.34V1085.48L74.1786 1085.68L74.3178 1085.77L74.5673 1085.91L74.8747 1086.09L75.182 1085.91L75.9306 1085.48V1084.86V1084.26L75.8387 1084.21L74.8773 1083.66L74.1181 1084.09L73.8187 1084.26ZM74.8747 1088.47L74.5673 1088.64L74.1602 1088.88V1089.71L74.6461 1089.99L74.8116 1090.08L74.8747 1090.12L74.9377 1090.08L75.1032 1089.99L75.5892 1089.71V1088.88L75.182 1088.64L74.8747 1088.47ZM74.5673 1075.57V1074.42L73.514 1073.81L72.4606 1074.42V1075.64L73.514 1076.25L73.9947 1075.97L74.57 1075.64V1075.57H74.5673ZM79.5845 1078.16V1078.75V1082.09V1082.43L79.9024 1082.61L83.0755 1084.44L83.2778 1084.56L83.6876 1084.32L86.7452 1082.56L86.9711 1082.43V1081.98V1078.54V1078.16L86.6874 1078L83.635 1076.24L83.2752 1076.03L83.0204 1076.18L79.6712 1078.11L79.5845 1078.16Z" fill="#67CDF5" fill-opacity="0.5"/>
<path d="M83.6441 1076.71L86.2919 1078.24L86.418 1078.31C86.5125 1078.36 86.5703 1078.46 86.5703 1078.57V1078.78V1081.76V1082.03C86.5703 1082.14 86.5125 1082.24 86.418 1082.29L86.3418 1082.34L83.6887 1083.87L83.4313 1084.01C83.3367 1084.07 83.2185 1084.07 83.124 1084.01L83.074 1083.99L80.3054 1082.39L80.1373 1082.29C80.0427 1082.24 79.9849 1082.14 79.9849 1082.03V1081.87V1078.95V1078.58C79.9849 1078.48 80.0375 1078.39 80.1136 1078.33C80.1215 1078.33 80.1268 1078.32 80.1373 1078.31L83.0294 1076.64L83.124 1076.59C83.2185 1076.53 83.3367 1076.53 83.4313 1076.59L83.6441 1076.71ZM80.597 1078.75V1079.25V1081.52V1081.84L80.9253 1082.03L83.074 1083.27L83.2763 1083.39L83.6861 1083.15L85.7219 1081.98L85.9556 1081.84V1081.41V1079.14V1078.75L85.6798 1078.59L83.6493 1077.42L83.2763 1077.2L83.0373 1077.34L80.7625 1078.66L80.597 1078.75Z" fill="#67CDF5" fill-opacity="0.5"/>
<path d="M93.0488 1074.86C93.0935 1074.99 93.125 1075.13 93.125 1075.27C93.125 1075.98 92.555 1076.54 91.8563 1076.54C91.1549 1076.54 90.5875 1075.97 90.5875 1075.27C90.5875 1075.13 90.6164 1074.99 90.6637 1074.86C90.7162 1074.71 90.7977 1074.57 90.9027 1074.45C91.1365 1074.18 91.4754 1074 91.8589 1074C92.2424 1074 92.5813 1074.18 92.815 1074.45C92.9149 1074.57 92.9963 1074.71 93.0488 1074.86Z" fill="#67CDF5" fill-opacity="0.5"/>
<path d="M84.4746 1070.18C84.5193 1070.31 84.5508 1070.44 84.5508 1070.59C84.5508 1071.29 83.9808 1071.86 83.282 1071.86C82.5807 1071.86 82.0133 1071.29 82.0133 1070.59C82.0133 1070.44 82.0422 1070.31 82.0895 1070.18C82.142 1070.02 82.2234 1069.88 82.3285 1069.76C82.5623 1069.5 82.9011 1069.32 83.2847 1069.32C83.6682 1069.32 84.007 1069.49 84.2408 1069.76C84.338 1069.88 84.4194 1070.02 84.4746 1070.18Z" fill="#67CDF5" fill-opacity="0.5"/>
<path d="M84.4293 1089.03C84.453 1089.12 84.4688 1089.2 84.4688 1089.29C84.4688 1089.75 84.1509 1090.14 83.7227 1090.25C83.6466 1090.26 83.5678 1090.28 83.4837 1090.28C83.4023 1090.28 83.3208 1090.26 83.2447 1090.25C82.8165 1090.14 82.4986 1089.75 82.4986 1089.29C82.4986 1088.75 82.9399 1088.31 83.4811 1088.31C83.7595 1088.31 84.0117 1088.43 84.1903 1088.62C84.3059 1088.73 84.3847 1088.87 84.4293 1089.03Z" fill="#67CDF5" fill-opacity="0.5"/>
<path d="M224.203 1066.02C224.108 1066.09 223.983 1066.1 223.875 1066.05L222.015 1065.26C221.907 1065.21 221.831 1065.11 221.816 1064.99L221.649 1063.58C221.874 1063.67 222.118 1063.63 222.303 1063.5L222.449 1064.73L223.959 1065.38L225.274 1064.39L225.081 1062.76L223.571 1062.11L222.58 1062.85C222.548 1062.63 222.408 1062.42 222.186 1062.32L223.327 1061.47C223.422 1061.4 223.547 1061.39 223.655 1061.43L225.515 1062.23C225.623 1062.28 225.699 1062.38 225.714 1062.49L225.953 1064.5C225.969 1064.62 225.918 1064.74 225.823 1064.81L224.203 1066.02Z" fill="#44FAED"/>
<path d="M206.663 1069.36L210.253 1070.9C210.164 1070.97 210.09 1071.06 210.043 1071.17C209.995 1071.28 209.981 1071.4 209.993 1071.51L206.403 1069.97L206.227 1069.89C206.119 1069.85 206.044 1069.75 206.028 1069.63L206.005 1069.44L205.494 1065.16L205.471 1064.97C205.456 1064.85 205.506 1064.74 205.601 1064.67L205.753 1064.55L209.223 1061.96L209.228 1062L209.242 1062.13C209.258 1062.24 209.333 1062.34 209.441 1062.39L209.609 1062.46L209.634 1062.47L206.148 1065.08C206.151 1065.08 206.663 1069.36 206.663 1069.36Z" fill="#44FAED"/>
<path d="M211.071 1071.99L211.496 1075.57L213.151 1076.28C213.259 1076.32 213.334 1076.42 213.35 1076.54L213.589 1078.55C213.604 1078.67 213.554 1078.79 213.459 1078.85L211.838 1080.07C211.743 1080.14 211.618 1080.15 211.51 1080.11L209.65 1079.31C209.542 1079.26 209.466 1079.16 209.451 1079.04L209.212 1077.03C209.196 1076.92 209.247 1076.8 209.342 1076.73L210.836 1075.61L210.414 1072.07C210.641 1072.16 210.886 1072.12 211.071 1071.99ZM209.89 1077.15L210.084 1078.78L211.593 1079.43L212.909 1078.44L212.715 1076.81L211.494 1076.29C211.441 1076.36 211.363 1076.41 211.265 1076.42C211.159 1076.44 211.06 1076.39 210.992 1076.32L209.89 1077.15Z" fill="#44FAED"/>
<path d="M219.143 1071.03L219.606 1074.91L219.629 1075.09C219.649 1075.27 219.522 1075.44 219.341 1075.46C219.16 1075.48 218.996 1075.35 218.975 1075.17L218.92 1074.71L218.49 1071.1C218.713 1071.2 218.958 1071.16 219.143 1071.03Z" fill="#44FAED"/>
<path d="M218.115 1070.21C218.073 1070.3 218.059 1070.4 218.061 1070.5C218.062 1070.52 218.064 1070.53 218.065 1070.54L214.474 1069.01L211.347 1071.34C211.315 1071.12 211.175 1070.91 210.953 1070.82L212.354 1069.77L214.08 1068.48L213.57 1064.19C213.531 1064.17 213.498 1064.14 213.473 1064.11L213.584 1064.16L213.666 1064.2L213.759 1064.24C213.822 1064.26 213.888 1064.27 213.953 1064.25C213.963 1064.25 213.97 1064.25 213.98 1064.25C214.017 1064.24 214.053 1064.22 214.084 1064.2L214.166 1064.14L214.223 1064.1L214.239 1064.08L214.751 1068.37L218.359 1069.91C218.347 1069.92 218.337 1069.93 218.327 1069.94C218.236 1070.01 218.162 1070.1 218.115 1070.21Z" fill="#44FAED"/>
<path d="M213.842 1063.56L215.568 1062.26L213.842 1063.56Z" fill="#44FAED"/>
<path d="M217.691 1061.5L217.843 1061.39C217.887 1061.36 217.917 1061.31 217.94 1061.27C217.945 1061.26 217.948 1061.24 217.955 1061.23C217.967 1061.19 217.972 1061.15 217.971 1061.11C217.972 1061.1 217.976 1061.09 217.974 1061.08L217.951 1060.9L221.486 1062.41C221.397 1062.48 221.323 1062.57 221.276 1062.68C221.229 1062.79 221.215 1062.91 221.226 1063.02L217.691 1061.5Z" fill="#44FAED"/>
<path d="M233.62 1084.14L229.754 1082.48L228.286 1083.58C228.191 1083.65 228.066 1083.66 227.958 1083.62L226.098 1082.82C225.99 1082.77 225.914 1082.67 225.899 1082.56L225.682 1080.74L221.833 1079.09L221.598 1078.99C221.435 1078.92 221.362 1078.73 221.42 1078.57C221.423 1078.56 221.422 1078.56 221.424 1078.55C221.426 1078.55 221.431 1078.54 221.433 1078.54C221.512 1078.38 221.695 1078.31 221.858 1078.38L222.093 1078.48L225.944 1080.13L227.412 1079.03C227.507 1078.96 227.632 1078.95 227.74 1078.99L229.6 1079.79C229.708 1079.84 229.784 1079.94 229.799 1080.05L230.016 1081.88L233.882 1083.53L233.729 1083.65C233.634 1083.72 233.584 1083.83 233.599 1083.95L233.62 1084.14ZM229.166 1080.32L227.657 1079.67L226.351 1080.65C226.343 1080.67 226.536 1082.29 226.536 1082.29L228.045 1082.94L229.361 1081.95L229.166 1080.32Z" fill="#44FAED"/>
<path d="M208.433 1057.53L204.981 1056.05L203.513 1057.15C203.418 1057.22 203.293 1057.23 203.185 1057.19L201.325 1056.39C201.217 1056.34 201.142 1056.24 201.126 1056.13L200.887 1054.12C200.872 1054 200.922 1053.88 201.017 1053.81L202.638 1052.6C202.733 1052.53 202.858 1052.52 202.966 1052.56L204.826 1053.36C204.934 1053.41 205.01 1053.51 205.025 1053.62L205.242 1055.44L208.74 1056.94C208.632 1057.01 208.541 1057.12 208.486 1057.24C208.448 1057.34 208.43 1057.44 208.433 1057.53ZM204.391 1053.89L202.882 1053.24L201.566 1054.23L201.76 1055.86L203.269 1056.51L204.574 1055.53C204.585 1055.51 204.391 1053.89 204.391 1053.89Z" fill="#44FAED"/>
<path d="M205.601 1064.67C205.506 1064.74 205.456 1064.85 205.471 1064.97L205.494 1065.16L201.531 1063.46L198.076 1066.04L198.588 1070.32L202.552 1072.02L206.004 1069.44L206.027 1069.63C206.043 1069.74 206.118 1069.84 206.226 1069.89L206.401 1069.97L202.796 1072.66C202.701 1072.73 202.576 1072.75 202.468 1072.7L198.153 1070.85C198.046 1070.81 197.97 1070.71 197.955 1070.59L197.4 1065.93C197.384 1065.81 197.435 1065.7 197.53 1065.63L201.287 1062.81C201.382 1062.75 201.507 1062.73 201.615 1062.78L205.755 1064.55L205.601 1064.67Z" fill="#44FAED"/>
<path d="M206.663 1069.36L206.152 1065.08L206.663 1069.36Z" fill="#44FAED"/>
<path d="M198.874 1069.91L198.453 1066.38C198.432 1066.2 198.559 1066.04 198.74 1066.02C198.8 1066.01 198.858 1066.02 198.908 1066.04C199.013 1066.09 199.092 1066.19 199.107 1066.31L199.528 1069.83C199.548 1070.01 199.421 1070.18 199.24 1070.2C199.058 1070.22 198.894 1070.09 198.874 1069.91Z" fill="#44FAED"/>
<path d="M205.344 1069.47C205.163 1069.49 204.998 1069.36 204.978 1069.18L204.557 1065.65C204.536 1065.47 204.664 1065.31 204.845 1065.29C204.904 1065.28 204.962 1065.29 205.012 1065.31C205.117 1065.36 205.197 1065.46 205.21 1065.58L205.631 1069.1C205.655 1069.28 205.525 1069.45 205.344 1069.47Z" fill="#44FAED"/>
<path d="M219.621 1079.91L221.425 1078.56C221.366 1078.73 221.439 1078.91 221.602 1078.98L221.838 1079.08L219.867 1080.56C219.772 1080.63 219.647 1080.64 219.539 1080.6L217.1 1079.55C216.992 1079.5 216.916 1079.4 216.901 1079.29L216.587 1076.65C216.572 1076.54 216.622 1076.42 216.717 1076.35L218.841 1074.76C218.866 1074.74 218.89 1074.73 218.919 1074.72L218.974 1075.18C218.994 1075.36 219.158 1075.49 219.34 1075.47C219.521 1075.44 219.651 1075.28 219.628 1075.1L219.605 1074.91L221.605 1075.77C221.713 1075.81 221.789 1075.92 221.804 1076.03L222.095 1078.48L221.859 1078.38C221.696 1078.31 221.513 1078.38 221.434 1078.54L221.167 1076.3L219.079 1075.4L217.261 1076.76L217.529 1079.02L219.62 1079.91L219.621 1079.91Z" fill="#44FAED"/>
<path d="M216.139 1056.82C216.198 1056.81 216.256 1056.82 216.306 1056.85C216.412 1056.89 216.491 1056.99 216.505 1057.11L216.926 1060.63C216.946 1060.82 216.819 1060.98 216.638 1061C216.457 1061.02 216.292 1060.89 216.272 1060.71L215.851 1057.19C215.827 1057.01 215.957 1056.84 216.139 1056.82Z" fill="#44FAED"/>
<path d="M214.056 1062.93C213.984 1063.1 213.79 1063.17 213.622 1063.1L210.358 1061.7C210.19 1061.63 210.112 1061.44 210.184 1061.27C210.256 1061.1 210.45 1061.02 210.618 1061.1L213.882 1062.5C214.05 1062.57 214.128 1062.76 214.056 1062.93Z" fill="#44FAED"/>
<path d="M217.692 1061.51L214.237 1064.09L214.221 1064.1L214.164 1064.14L214.082 1064.2C214.051 1064.23 214.015 1064.24 213.978 1064.25C213.968 1064.25 213.961 1064.26 213.951 1064.26C213.922 1064.26 213.892 1064.27 213.86 1064.26C213.839 1064.26 213.819 1064.26 213.797 1064.25C213.786 1064.25 213.777 1064.25 213.767 1064.25C213.756 1064.24 213.663 1064.2 213.663 1064.2L213.58 1064.17L213.47 1064.12L209.637 1062.48L209.612 1062.47L209.444 1062.4C209.336 1062.35 209.26 1062.25 209.245 1062.13L209.23 1062.01L209.225 1061.96L208.764 1058.11C208.561 1057.99 208.44 1057.77 208.434 1057.54C208.431 1057.45 208.448 1057.35 208.488 1057.26C208.543 1057.13 208.631 1057.03 208.742 1056.96C208.886 1056.86 209.066 1056.82 209.242 1056.86L212.579 1054.36C212.674 1054.29 212.8 1054.27 212.908 1054.32L217.223 1056.17C217.33 1056.22 217.406 1056.32 217.42 1056.44L217.952 1060.91L217.975 1061.1C217.977 1061.11 217.97 1061.11 217.972 1061.12C217.973 1061.16 217.968 1061.2 217.956 1061.24C217.95 1061.25 217.947 1061.26 217.941 1061.28C217.918 1061.33 217.887 1061.37 217.844 1061.4L217.692 1061.51ZM216.787 1056.7L212.823 1055L209.761 1057.29C209.82 1057.45 209.821 1057.62 209.749 1057.79C209.684 1057.94 209.57 1058.06 209.433 1058.13L209.88 1061.86L213.844 1063.56L215.571 1062.27L217.297 1060.97L216.787 1056.7Z" fill="#44FAED"/>
<path d="M236.632 1085.24L235.54 1086.06C235.445 1086.13 235.32 1086.14 235.212 1086.1L233.958 1085.56C233.85 1085.51 233.775 1085.41 233.759 1085.3L233.621 1084.13L233.598 1083.94C233.583 1083.83 233.633 1083.71 233.728 1083.64L233.881 1083.52L234.821 1082.82C234.916 1082.75 235.041 1082.74 235.149 1082.78L236.403 1083.32C236.51 1083.37 236.586 1083.47 236.601 1083.58L236.763 1084.94C236.776 1085.06 236.727 1085.17 236.632 1085.24ZM235.968 1083.85L235.066 1083.47L234.289 1084.05C234.28 1084.07 234.395 1085.03 234.395 1085.03L235.298 1085.42L236.084 1084.83L235.968 1083.85Z" fill="#44FAED"/>
<path d="M218.487 1071.12C218.238 1071.02 218.089 1070.79 218.066 1070.56C218.066 1070.54 218.062 1070.53 218.063 1070.52C218.058 1070.42 218.074 1070.32 218.116 1070.22C218.163 1070.11 218.238 1070.02 218.326 1069.95C218.336 1069.94 218.346 1069.93 218.358 1069.92C218.543 1069.8 218.79 1069.76 219.015 1069.86C219.364 1070.01 219.524 1070.41 219.375 1070.76C219.324 1070.88 219.242 1070.97 219.143 1071.04C218.957 1071.17 218.712 1071.21 218.487 1071.12Z" fill="#44FAED"/>
<path d="M210.943 1070.82C211.176 1070.92 211.318 1071.13 211.348 1071.35C211.365 1071.47 211.353 1071.6 211.303 1071.72C211.252 1071.83 211.17 1071.93 211.071 1072C210.887 1072.13 210.641 1072.17 210.417 1072.08C210.169 1071.97 210.019 1071.75 209.995 1071.51C209.984 1071.4 209.998 1071.28 210.045 1071.17C210.092 1071.06 210.166 1070.97 210.255 1070.9C210.445 1070.76 210.705 1070.71 210.943 1070.82Z" fill="#44FAED"/>
<path d="M221.651 1063.59C221.403 1063.48 221.253 1063.26 221.23 1063.02C221.219 1062.91 221.233 1062.79 221.28 1062.68C221.328 1062.57 221.402 1062.48 221.49 1062.42C221.681 1062.27 221.941 1062.22 222.179 1062.32C222.413 1062.43 222.553 1062.64 222.585 1062.86C222.602 1062.98 222.589 1063.11 222.539 1063.22C222.488 1063.34 222.406 1063.44 222.307 1063.51C222.121 1063.64 221.876 1063.68 221.651 1063.59Z" fill="#44FAED"/>
<path d="M342.054 1097.67C341.98 1097.45 341.928 1097.22 341.928 1096.98C341.928 1095.82 342.87 1094.88 344.025 1094.88C345.18 1094.88 346.123 1095.83 346.123 1096.98C346.123 1097.22 346.075 1097.45 345.997 1097.67C345.91 1097.92 345.775 1098.15 345.602 1098.35C345.215 1098.79 344.655 1099.08 344.021 1099.08C343.387 1099.08 342.827 1098.8 342.44 1098.35C342.275 1098.15 342.141 1097.92 342.054 1097.67Z" fill="#EAF9FF"/>
<path d="M335.688 1132.22C335.64 1132.06 335.605 1131.89 335.605 1131.71C335.605 1130.89 336.183 1130.2 336.952 1130.02C337.078 1129.99 337.208 1129.97 337.347 1129.97C337.482 1129.97 337.612 1129.99 337.742 1130.02C338.515 1130.2 339.088 1130.89 339.088 1131.71C339.088 1131.89 339.054 1132.06 339.006 1132.22C338.928 1132.48 338.793 1132.71 338.615 1132.9C338.298 1133.24 337.846 1133.46 337.347 1133.46C336.843 1133.46 336.396 1133.24 336.079 1132.9C335.901 1132.71 335.766 1132.47 335.688 1132.22Z" fill="#EAF9FF"/>
<path d="M330.272 1137.3C329.482 1137.12 328.887 1136.41 328.887 1135.57C328.887 1134.58 329.686 1133.79 330.667 1133.79C331.184 1133.79 331.644 1134.01 331.966 1134.36C332.144 1134.55 332.278 1134.78 332.357 1135.04C332.409 1135.21 332.443 1135.38 332.443 1135.56C332.443 1136.41 331.848 1137.11 331.058 1137.29C330.932 1137.32 330.802 1137.34 330.663 1137.34C330.528 1137.35 330.398 1137.33 330.272 1137.3Z" fill="#EAF9FF"/>
<path d="M362.286 1108.99C362.247 1108.85 362.221 1108.71 362.221 1108.55C362.221 1107.79 362.746 1107.16 363.454 1106.98C363.58 1106.95 363.71 1106.93 363.849 1106.93C363.984 1106.93 364.118 1106.95 364.244 1106.98C364.952 1107.16 365.478 1107.79 365.478 1108.55C365.478 1109.45 364.748 1110.18 363.854 1110.18C363.393 1110.18 362.976 1109.98 362.681 1109.67C362.49 1109.49 362.36 1109.25 362.286 1108.99Z" fill="#EAF9FF"/>
<path d="M335.917 1108.72C335.887 1108.61 335.865 1108.49 335.865 1108.36C335.865 1107.68 336.326 1107.11 336.951 1106.94C337.077 1106.9 337.207 1106.87 337.346 1106.87C337.485 1106.87 337.615 1106.9 337.741 1106.94C338.367 1107.11 338.827 1107.68 338.827 1108.36C338.827 1108.49 338.805 1108.61 338.775 1108.72C338.705 1108.99 338.571 1109.22 338.384 1109.41C338.119 1109.67 337.75 1109.84 337.346 1109.84C336.942 1109.84 336.577 1109.67 336.308 1109.41C336.121 1109.22 335.987 1108.99 335.917 1108.72Z" fill="#EAF9FF"/>
<path d="M362.561 1123.67C362.561 1123.6 362.569 1123.53 362.582 1123.47C362.626 1123.19 362.747 1122.95 362.934 1122.76C363.173 1122.51 363.507 1122.36 363.881 1122.36C364.606 1122.36 365.197 1122.95 365.197 1123.67C365.197 1124.18 364.901 1124.62 364.48 1124.84C364.302 1124.93 364.098 1124.99 363.885 1124.99C363.82 1124.99 363.755 1124.98 363.694 1124.97C363.047 1124.87 362.561 1124.33 362.561 1123.67Z" fill="#EAF9FF"/>
<path d="M343.144 1144.31C342.931 1144.14 342.775 1143.92 342.692 1143.66C342.653 1143.53 342.627 1143.41 342.627 1143.27C342.627 1142.65 343.057 1142.13 343.634 1141.99C343.739 1141.96 343.843 1141.94 343.951 1141.94C344.116 1141.94 344.273 1141.98 344.42 1142.03C344.92 1142.22 345.276 1142.7 345.276 1143.27C345.276 1144 344.681 1144.59 343.951 1144.59C343.647 1144.59 343.37 1144.48 343.144 1144.31Z" fill="#EAF9FF"/>
<path d="M341.988 1098.62L338.475 1100.64C338.488 1100.71 338.497 1100.77 338.497 1100.84C338.497 1101.34 338.18 1101.76 337.741 1101.92L337.741 1106.41C337.615 1106.38 337.481 1106.37 337.346 1106.37C337.212 1106.37 337.081 1106.38 336.951 1106.41L336.951 1101.92C336.512 1101.76 336.195 1101.34 336.195 1100.84C336.195 1100.21 336.712 1099.69 337.346 1099.69C337.628 1099.69 337.88 1099.8 338.08 1099.97L341.589 1097.94C341.689 1098.19 341.823 1098.41 341.988 1098.62Z" fill="#EAF9FF"/>
<path d="M337.346 1129.97C337.211 1129.97 337.081 1129.99 336.951 1130.02L336.951 1124.5C336.703 1124.36 336.529 1124.1 336.529 1123.8C336.529 1123.35 336.894 1122.99 337.341 1122.99C337.493 1122.99 337.628 1123.04 337.745 1123.11L342.435 1120.4C342.487 1120.67 342.605 1120.91 342.761 1121.12L338.149 1123.79C338.153 1124.1 337.98 1124.35 337.732 1124.5L337.732 1130.02C337.615 1129.99 337.48 1129.97 337.346 1129.97Z" fill="#EAF9FF"/>
<path d="M331.058 1142.03C331.596 1142.2 331.987 1142.69 331.987 1143.29C331.987 1143.39 331.974 1143.49 331.948 1143.59L336.807 1146.45C336.981 1146.29 337.216 1146.18 337.472 1146.18C337.685 1146.18 337.876 1146.25 338.036 1146.37L342.692 1143.68C342.774 1143.94 342.931 1144.17 343.143 1144.33L338.432 1147.05C338.436 1147.08 338.44 1147.11 338.44 1147.15C338.44 1147.68 338.01 1148.11 337.476 1148.11C336.959 1148.11 336.538 1147.7 336.516 1147.19L331.548 1144.27C331.314 1144.48 331.005 1144.61 330.662 1144.61C329.933 1144.61 329.338 1144.02 329.338 1143.29C329.338 1142.69 329.729 1142.2 330.267 1142.03L330.267 1137.84C330.398 1137.86 330.528 1137.87 330.662 1137.87C330.797 1137.87 330.927 1137.86 331.058 1137.84L331.058 1142.03Z" fill="#EAF9FF"/>
<path d="M332.821 1134.78C332.73 1134.53 332.591 1134.3 332.426 1134.1L335.691 1132.21C335.77 1132.47 335.904 1132.7 336.082 1132.9L332.821 1134.78Z" fill="#EAF9FF"/>
<path d="M335.847 1109.69L331.565 1112.16C331.565 1112.18 331.574 1112.2 331.574 1112.23C331.574 1112.59 331.361 1112.89 331.057 1113.04L331.057 1118.56C331.661 1118.73 332.108 1119.28 332.108 1119.94C332.108 1120.74 331.461 1121.38 330.666 1121.38C329.867 1121.38 329.225 1120.74 329.225 1119.94C329.225 1119.28 329.672 1118.73 330.276 1118.56L330.276 1113.04C329.972 1112.89 329.759 1112.59 329.759 1112.23C329.759 1111.72 330.167 1111.32 330.666 1111.32C330.857 1111.32 331.031 1111.37 331.179 1111.47L335.461 1109C335.539 1109.26 335.674 1109.49 335.847 1109.69Z" fill="#EAF9FF"/>
<path d="M343.635 1118.91C343.813 1118.82 344.008 1118.77 344.217 1118.77C344.286 1118.77 344.356 1118.77 344.421 1118.79C345.033 1118.89 345.502 1119.41 345.502 1120.05C345.502 1120.76 344.925 1121.34 344.217 1121.34C343.817 1121.34 343.461 1121.15 343.227 1120.86C343.057 1120.65 342.953 1120.4 342.94 1120.12C342.94 1120.09 342.936 1120.07 342.936 1120.05C342.936 1119.56 343.222 1119.13 343.635 1118.91Z" fill="#EAF9FF"/>
<path d="M357.397 1120.82C356.907 1120.82 356.511 1120.43 356.511 1119.94C356.511 1119.59 356.711 1119.29 357.002 1119.15L357.002 1113.01C356.711 1112.87 356.511 1112.57 356.511 1112.22C356.511 1112.21 356.516 1112.2 356.516 1112.19L351.578 1109.48C351.352 1109.69 351.048 1109.82 350.714 1109.82C350.38 1109.82 350.076 1109.69 349.85 1109.48L344.916 1112.19C344.912 1112.54 344.717 1112.85 344.426 1113.02L344.426 1118.26C344.356 1118.25 344.291 1118.24 344.222 1118.24C344.017 1118.24 343.822 1118.28 343.64 1118.34L343.64 1113.09C343.266 1112.95 342.997 1112.6 342.997 1112.18C342.997 1112.15 343.001 1112.12 343.006 1112.09L338.85 1109.69C339.023 1109.49 339.158 1109.26 339.245 1109L343.401 1111.4C343.557 1111.29 343.753 1111.22 343.961 1111.22C344.209 1111.22 344.43 1111.31 344.599 1111.47L349.476 1108.79C349.463 1108.72 349.455 1108.64 349.455 1108.56C349.455 1108 349.824 1107.52 350.327 1107.36L350.327 1101.95C349.871 1101.78 349.541 1101.35 349.541 1100.84C349.541 1100.77 349.55 1100.7 349.563 1100.63L346.08 1098.62C346.245 1098.41 346.384 1098.19 346.48 1097.94L349.963 1099.95C350.167 1099.78 350.432 1099.66 350.727 1099.66C351.014 1099.66 351.27 1099.77 351.474 1099.94L356.329 1097.03C356.329 1097.01 356.32 1097 356.32 1096.98C356.32 1096.51 356.702 1096.13 357.176 1096.13C357.649 1096.13 358.031 1096.51 358.031 1096.98C358.031 1097 358.023 1097.01 358.023 1097.02L363.043 1099.92C363.26 1099.73 363.542 1099.61 363.855 1099.61C364.537 1099.61 365.088 1100.16 365.088 1100.84C365.088 1101.38 364.737 1101.84 364.25 1102L364.25 1106.45C364.12 1106.42 363.99 1106.41 363.855 1106.41C363.72 1106.41 363.59 1106.42 363.46 1106.45L363.46 1102C362.973 1101.84 362.622 1101.38 362.622 1100.84C362.622 1100.76 362.63 1100.68 362.648 1100.6L357.623 1097.7C357.493 1097.78 357.345 1097.84 357.176 1097.84C357.011 1097.84 356.868 1097.78 356.737 1097.7L351.882 1100.61C351.895 1100.68 351.904 1100.76 351.904 1100.84C351.904 1101.35 351.574 1101.79 351.118 1101.95L351.118 1107.36C351.626 1107.52 351.991 1108 351.991 1108.56C351.991 1108.63 351.982 1108.71 351.969 1108.79L356.902 1111.5C357.046 1111.4 357.219 1111.34 357.406 1111.34C357.588 1111.34 357.758 1111.4 357.901 1111.49L361.831 1109.26C361.918 1109.51 362.053 1109.74 362.222 1109.94L358.288 1112.18C358.288 1112.2 358.292 1112.21 358.292 1112.23C358.292 1112.57 358.092 1112.87 357.801 1113.02L357.801 1119.15C358.092 1119.29 358.292 1119.59 358.292 1119.94C358.292 1119.96 358.288 1119.99 358.288 1120.01L362.943 1122.77C362.761 1122.96 362.635 1123.21 362.591 1123.48L357.884 1120.69C357.736 1120.77 357.571 1120.82 357.397 1120.82Z" fill="#EAF9FF"/>
<path d="M362.612 1147.21C362.612 1147.12 362.625 1147.03 362.642 1146.95L358.278 1144.28C358.022 1144.54 357.67 1144.7 357.279 1144.7C356.919 1144.7 356.589 1144.56 356.341 1144.33L351.538 1147.06C351.542 1147.09 351.547 1147.11 351.547 1147.14C351.547 1147.67 351.121 1148.1 350.596 1148.1C350.07 1148.1 349.645 1147.67 349.645 1147.14C349.645 1146.62 350.07 1146.19 350.596 1146.19C350.804 1146.19 350.995 1146.26 351.151 1146.38L355.924 1143.66C355.889 1143.54 355.863 1143.41 355.863 1143.28C355.863 1142.59 356.354 1142.02 357.001 1141.89L357.001 1136.66C356.502 1136.49 356.141 1136.03 356.141 1135.48C356.141 1134.79 356.701 1134.23 357.392 1134.23C357.709 1134.23 358 1134.35 358.221 1134.55L363.176 1131.69C363.176 1131.66 363.168 1131.64 363.168 1131.62C363.168 1131.26 363.376 1130.95 363.68 1130.81L363.68 1124.98C363.745 1124.99 363.806 1125 363.871 1125C364.088 1125 364.288 1124.94 364.466 1124.85L364.466 1130.81C364.77 1130.96 364.979 1131.27 364.979 1131.62C364.979 1132.12 364.57 1132.53 364.071 1132.53C363.88 1132.53 363.706 1132.47 363.559 1132.37L358.612 1135.23C358.63 1135.31 358.638 1135.39 358.638 1135.48C358.638 1136.03 358.278 1136.49 357.778 1136.66L357.778 1141.96C358.308 1142.16 358.686 1142.68 358.686 1143.28C358.686 1143.38 358.673 1143.48 358.651 1143.58L363.05 1146.27C363.263 1146.09 363.537 1145.98 363.841 1145.98C364.523 1145.98 365.074 1146.53 365.074 1147.21C365.074 1147.89 364.523 1148.44 363.841 1148.44C363.163 1148.45 362.612 1147.9 362.612 1147.21Z" fill="#EAF9FF"/>
<path d="M344.219 1133.83C345.075 1133.83 345.765 1134.53 345.765 1135.38C345.765 1136.16 345.179 1136.8 344.423 1136.91L344.423 1142.05C344.276 1142 344.119 1141.96 343.954 1141.96C343.846 1141.96 343.737 1141.98 343.637 1142L343.637 1136.81C343.073 1136.58 342.673 1136.03 342.673 1135.38C342.673 1135.33 342.682 1135.29 342.686 1135.25L338.617 1132.9C338.795 1132.71 338.93 1132.47 339.008 1132.21L342.956 1134.49C343.233 1134.1 343.694 1133.83 344.219 1133.83Z" fill="#EAF9FF"/>
<path d="M332.382 1118.11C332.382 1118.33 332.204 1118.5 331.987 1118.5C331.77 1118.5 331.592 1118.33 331.592 1118.11L331.592 1113.57C331.592 1113.35 331.77 1113.18 331.987 1113.18C332.204 1113.18 332.382 1113.35 332.382 1113.57L332.382 1118.11Z" fill="#EAF9FF"/>
<path d="M338.97 1129.6C338.97 1129.82 338.792 1130 338.575 1130C338.358 1130 338.18 1129.82 338.18 1129.6L338.18 1125.06C338.18 1124.85 338.358 1124.67 338.575 1124.67C338.792 1124.67 338.97 1124.85 338.97 1125.06L338.97 1129.6Z" fill="#EAF9FF"/>
<path d="M351.498 1107.01L351.498 1102.47C351.498 1102.26 351.676 1102.08 351.893 1102.08C352.11 1102.08 352.288 1102.26 352.288 1102.47L352.288 1107.01C352.288 1107.23 352.11 1107.41 351.893 1107.41C351.676 1107.4 351.498 1107.23 351.498 1107.01Z" fill="#EAF9FF"/>
<path d="M358.252 1118.4L358.252 1113.86C358.252 1113.64 358.43 1113.46 358.647 1113.46C358.864 1113.46 359.042 1113.64 359.042 1113.86L359.042 1118.4C359.042 1118.62 358.864 1118.79 358.647 1118.79C358.43 1118.79 358.252 1118.62 358.252 1118.4Z" fill="#EAF9FF"/>
<path d="M335.535 1147.53C335.666 1147.6 335.744 1147.74 335.744 1147.88C335.744 1147.94 335.726 1148.01 335.696 1148.07C335.592 1148.26 335.353 1148.33 335.162 1148.23L331.171 1146.07C330.98 1145.96 330.906 1145.73 331.01 1145.53C331.115 1145.34 331.353 1145.27 331.544 1145.37L335.535 1147.53Z" fill="#EAF9FF"/>
<path d="M357.378 1122.28C357.187 1122.17 357.113 1121.93 357.217 1121.74C357.322 1121.55 357.56 1121.48 357.751 1121.58L361.742 1123.74C361.873 1123.81 361.951 1123.95 361.951 1124.09C361.951 1124.15 361.934 1124.21 361.903 1124.27C361.799 1124.46 361.56 1124.53 361.369 1124.43L357.378 1122.28Z" fill="#EAF9FF"/>
<path d="M337.906 1110.76C338.01 1110.57 338.249 1110.5 338.44 1110.6L342.431 1112.76C342.561 1112.83 342.639 1112.97 342.639 1113.11C342.639 1113.17 342.622 1113.24 342.591 1113.3C342.487 1113.49 342.248 1113.56 342.057 1113.46L338.066 1111.3C337.871 1111.19 337.801 1110.96 337.906 1110.76Z" fill="#EAF9FF"/>
<path d="M357.045 1098.57C357.149 1098.38 357.383 1098.31 357.579 1098.41L361.496 1100.49C361.631 1100.56 361.704 1100.7 361.704 1100.84C361.704 1100.9 361.687 1100.97 361.657 1101.03C361.552 1101.22 361.314 1101.29 361.122 1101.19L357.205 1099.11C357.019 1099 356.945 1098.76 357.045 1098.57Z" fill="#EAF9FF"/>
<path d="M338.867 1136.31L338.867 1131.65C339.032 1131.71 339.206 1131.75 339.393 1131.75C339.575 1131.75 339.753 1131.71 339.918 1131.65L339.918 1136.31C339.753 1136.26 339.575 1136.22 339.393 1136.22C339.21 1136.23 339.037 1136.26 338.867 1136.31Z" fill="#67CDF5"/>
<path d="M341.077 1138.32L346.258 1141.31L351.439 1138.32C351.478 1138.49 351.547 1138.65 351.634 1138.81C351.725 1138.97 351.834 1139.11 351.969 1139.22L346.519 1142.37C346.358 1142.46 346.158 1142.46 345.993 1142.37L340.543 1139.22C340.673 1139.1 340.786 1138.96 340.877 1138.81C340.969 1138.65 341.038 1138.49 341.077 1138.32Z" fill="#67CDF5"/>
<path d="M352.6 1136.31L352.6 1131.65C352.765 1131.71 352.943 1131.75 353.125 1131.75C353.307 1131.75 353.486 1131.71 353.651 1131.65L353.651 1136.31C353.486 1136.26 353.307 1136.22 353.125 1136.22C352.938 1136.23 352.765 1136.26 352.6 1136.31Z" fill="#67CDF5"/>
<path d="M360.011 1124.29C359.829 1124.29 359.651 1124.33 359.486 1124.39L359.486 1118.4L354.301 1115.41C354.431 1115.28 354.544 1115.14 354.635 1114.99C354.722 1114.84 354.792 1114.68 354.831 1114.5L360.276 1117.64C360.437 1117.74 360.537 1117.91 360.537 1118.1L360.537 1124.39C360.368 1124.33 360.194 1124.29 360.011 1124.29Z" fill="#67CDF5"/>
<path d="M358.522 1126.88C358.613 1127.04 358.722 1127.18 358.856 1127.29L354.8 1129.63C354.761 1129.46 354.692 1129.29 354.6 1129.14C354.509 1128.99 354.392 1128.85 354.262 1128.73L358.331 1126.39C358.366 1126.57 358.435 1126.73 358.522 1126.88Z" fill="#67CDF5"/>
<path d="M347.766 1117.23C347.675 1117.08 347.566 1116.94 347.432 1116.82L351.457 1114.5C351.496 1114.68 351.566 1114.84 351.653 1114.99C351.744 1115.15 351.853 1115.29 351.987 1115.41L347.961 1117.73C347.927 1117.55 347.857 1117.39 347.766 1117.23Z" fill="#67CDF5"/>
<path d="M351.657 1129.13C351.648 1129.14 351.644 1129.16 351.635 1129.17C351.553 1129.31 351.492 1129.46 351.453 1129.62C351.448 1129.63 351.444 1129.65 351.44 1129.66L347.414 1127.34C347.427 1127.33 347.44 1127.32 347.449 1127.31C347.566 1127.2 347.662 1127.07 347.744 1126.93C347.753 1126.92 347.757 1126.9 347.766 1126.89C347.844 1126.75 347.905 1126.6 347.94 1126.43C347.944 1126.42 347.944 1126.4 347.948 1126.39L352.004 1128.73C351.991 1128.73 351.978 1128.75 351.97 1128.76C351.848 1128.86 351.744 1128.99 351.657 1129.13Z" fill="#67CDF5"/>
<path d="M337.72 1129.62L333.682 1127.29C333.812 1127.17 333.925 1127.03 334.016 1126.88C334.103 1126.73 334.172 1126.56 334.211 1126.39L338.268 1128.73C338.133 1128.84 338.016 1128.98 337.924 1129.13C337.833 1129.28 337.764 1129.45 337.72 1129.62Z" fill="#67CDF5"/>
<path d="M346.28 1124.34C346.271 1124.34 346.267 1124.33 346.258 1124.33C346.08 1124.33 345.915 1124.37 345.754 1124.42C345.745 1124.42 345.741 1124.42 345.732 1124.42L345.732 1119.72C345.741 1119.73 345.745 1119.73 345.754 1119.73C345.915 1119.78 346.08 1119.82 346.258 1119.82C346.267 1119.82 346.271 1119.82 346.28 1119.82C346.458 1119.82 346.623 1119.79 346.783 1119.74C346.792 1119.73 346.796 1119.73 346.805 1119.73L346.805 1124.43C346.796 1124.43 346.792 1124.43 346.783 1124.42C346.623 1124.38 346.458 1124.34 346.28 1124.34Z" fill="#67CDF5"/>
<path d="M344.594 1117.74L340.547 1115.4C340.677 1115.28 340.79 1115.14 340.881 1114.99C340.968 1114.84 341.038 1114.67 341.077 1114.49L345.115 1116.83C344.985 1116.95 344.877 1117.09 344.785 1117.24C344.699 1117.4 344.629 1117.56 344.594 1117.74Z" fill="#67CDF5"/>
<path d="M333.057 1124.39C332.892 1124.34 332.714 1124.3 332.531 1124.3C332.349 1124.3 332.171 1124.33 332.006 1124.39L332.006 1118.09C332.006 1117.91 332.106 1117.73 332.266 1117.64L337.712 1114.49C337.751 1114.67 337.821 1114.84 337.908 1114.99C337.999 1115.15 338.107 1115.28 338.242 1115.4L333.057 1118.39L333.057 1124.39Z" fill="#67CDF5"/>
<path d="M344.573 1126.42C344.608 1126.59 344.673 1126.75 344.756 1126.89C344.76 1126.9 344.764 1126.91 344.773 1126.92C344.856 1127.06 344.96 1127.2 345.077 1127.31C345.086 1127.32 345.094 1127.32 345.103 1127.33L341.077 1129.66C341.073 1129.64 341.069 1129.63 341.069 1129.62C341.03 1129.46 340.964 1129.3 340.882 1129.16C340.878 1129.15 340.873 1129.14 340.865 1129.13C340.778 1128.99 340.673 1128.86 340.548 1128.74C340.539 1128.73 340.53 1128.73 340.521 1128.72L344.569 1126.39C344.569 1126.4 344.573 1126.41 344.573 1126.42Z" fill="#67CDF5"/>
<path d="M339.919 1131.65C339.754 1131.7 339.576 1131.74 339.394 1131.74C339.212 1131.74 339.034 1131.71 338.869 1131.65C338.174 1131.43 337.67 1130.78 337.67 1130.02C337.67 1129.88 337.692 1129.75 337.722 1129.62C337.765 1129.44 337.835 1129.28 337.926 1129.13C338.017 1128.97 338.135 1128.84 338.269 1128.72C338.573 1128.45 338.964 1128.29 339.394 1128.29C339.828 1128.29 340.219 1128.45 340.519 1128.72C340.527 1128.73 340.536 1128.73 340.545 1128.74C340.671 1128.85 340.775 1128.98 340.862 1129.13C340.866 1129.13 340.871 1129.15 340.879 1129.16C340.962 1129.3 341.027 1129.45 341.066 1129.62C341.07 1129.63 341.075 1129.64 341.075 1129.65C341.101 1129.77 341.114 1129.89 341.114 1130.02C341.118 1130.78 340.614 1131.43 339.919 1131.65Z" fill="#67CDF5"/>
<path d="M352.599 1136.3C352.764 1136.25 352.942 1136.21 353.124 1136.21C353.307 1136.21 353.485 1136.25 353.65 1136.3C354.345 1136.53 354.849 1137.17 354.849 1137.94C354.849 1138.89 354.075 1139.66 353.124 1139.66C352.677 1139.66 352.278 1139.49 351.969 1139.21C351.839 1139.09 351.726 1138.95 351.635 1138.8C351.548 1138.65 351.479 1138.48 351.439 1138.3C351.413 1138.19 351.4 1138.06 351.4 1137.94C351.4 1137.17 351.904 1136.53 352.599 1136.3Z" fill="#67CDF5"/>
<path d="M346.808 1119.73C346.799 1119.73 346.795 1119.73 346.786 1119.74C346.626 1119.78 346.461 1119.82 346.283 1119.82C346.274 1119.82 346.27 1119.81 346.261 1119.81C346.083 1119.81 345.918 1119.78 345.757 1119.73C345.749 1119.72 345.744 1119.72 345.735 1119.72C345.054 1119.49 344.559 1118.85 344.559 1118.09C344.559 1117.97 344.572 1117.85 344.598 1117.73C344.637 1117.56 344.706 1117.39 344.793 1117.24C344.88 1117.08 344.993 1116.94 345.123 1116.82C345.431 1116.54 345.835 1116.36 346.287 1116.36C346.734 1116.36 347.134 1116.54 347.442 1116.81C347.572 1116.94 347.685 1117.07 347.777 1117.23C347.863 1117.38 347.933 1117.54 347.972 1117.72C347.998 1117.84 348.011 1117.96 348.011 1118.09C348.007 1118.86 347.503 1119.5 346.808 1119.73Z" fill="#67CDF5"/>
<path d="M353.65 1131.66C353.485 1131.71 353.307 1131.75 353.124 1131.75C352.942 1131.75 352.764 1131.71 352.599 1131.66C351.904 1131.43 351.4 1130.79 351.4 1130.02C351.4 1129.9 351.413 1129.78 351.439 1129.66C351.444 1129.65 351.448 1129.63 351.453 1129.62C351.492 1129.45 351.557 1129.31 351.635 1129.16C351.644 1129.15 351.648 1129.14 351.657 1129.12C351.743 1128.99 351.848 1128.86 351.969 1128.75C351.982 1128.74 351.995 1128.73 352.004 1128.72C352.304 1128.46 352.695 1128.3 353.12 1128.3C353.559 1128.3 353.95 1128.47 354.254 1128.73C354.388 1128.85 354.501 1128.99 354.592 1129.14C354.683 1129.29 354.753 1129.45 354.792 1129.63C354.822 1129.76 354.84 1129.88 354.84 1130.02C354.848 1130.79 354.34 1131.43 353.65 1131.66Z" fill="#67CDF5"/>
<path d="M340.884 1138.81C340.792 1138.96 340.684 1139.1 340.549 1139.22C340.245 1139.5 339.841 1139.67 339.394 1139.67C338.443 1139.67 337.67 1138.9 337.67 1137.95C337.67 1137.18 338.174 1136.53 338.869 1136.31C339.034 1136.26 339.207 1136.22 339.394 1136.22C339.576 1136.22 339.754 1136.26 339.919 1136.31C340.614 1136.53 341.118 1137.18 341.118 1137.95C341.118 1138.07 341.105 1138.19 341.079 1138.31C341.04 1138.49 340.97 1138.65 340.884 1138.81Z" fill="#67CDF5"/>
<path d="M340.882 1114.99C340.79 1115.15 340.682 1115.28 340.547 1115.4C340.243 1115.68 339.839 1115.85 339.392 1115.85C338.945 1115.85 338.545 1115.68 338.237 1115.4C338.107 1115.28 337.994 1115.14 337.902 1114.99C337.816 1114.84 337.746 1114.67 337.707 1114.49C337.681 1114.38 337.668 1114.26 337.668 1114.13C337.668 1113.18 338.441 1112.41 339.392 1112.41C340.343 1112.41 341.116 1113.18 341.116 1114.13C341.116 1114.26 341.103 1114.38 341.077 1114.49C341.038 1114.67 340.968 1114.83 340.882 1114.99Z" fill="#67CDF5"/>
<path d="M354.632 1114.99C354.54 1115.15 354.432 1115.28 354.297 1115.4C353.993 1115.68 353.589 1115.85 353.142 1115.85C352.695 1115.85 352.295 1115.68 351.987 1115.4C351.857 1115.28 351.744 1115.14 351.652 1114.99C351.566 1114.84 351.496 1114.67 351.457 1114.49C351.431 1114.38 351.418 1114.26 351.418 1114.13C351.418 1113.18 352.191 1112.41 353.142 1112.41C354.093 1112.41 354.866 1113.18 354.866 1114.13C354.866 1114.26 354.853 1114.38 354.827 1114.49C354.792 1114.67 354.718 1114.83 354.632 1114.99Z" fill="#67CDF5"/>
<path d="M360.013 1127.74C359.566 1127.74 359.166 1127.57 358.858 1127.29C358.728 1127.17 358.615 1127.03 358.524 1126.88C358.437 1126.73 358.367 1126.56 358.328 1126.38C358.302 1126.27 358.289 1126.15 358.289 1126.02C358.289 1125.25 358.793 1124.61 359.488 1124.39C359.653 1124.33 359.826 1124.3 360.013 1124.3C360.196 1124.3 360.374 1124.33 360.539 1124.39C361.233 1124.61 361.737 1125.25 361.737 1126.02C361.737 1126.97 360.964 1127.74 360.013 1127.74Z" fill="#67CDF5"/>
<path d="M334.016 1126.87C333.925 1127.03 333.817 1127.17 333.682 1127.29C333.378 1127.56 332.974 1127.74 332.527 1127.74C331.576 1127.74 330.803 1126.96 330.803 1126.01C330.803 1125.24 331.306 1124.6 332.001 1124.38C332.166 1124.33 332.344 1124.29 332.527 1124.29C332.709 1124.29 332.887 1124.32 333.052 1124.38C333.747 1124.6 334.251 1125.24 334.251 1126.01C334.251 1126.14 334.238 1126.26 334.212 1126.38C334.173 1126.56 334.103 1126.72 334.016 1126.87Z" fill="#67CDF5"/>
<path d="M347.942 1126.42C347.907 1126.58 347.842 1126.73 347.769 1126.88C347.76 1126.89 347.755 1126.9 347.747 1126.92C347.664 1127.06 347.569 1127.19 347.452 1127.3C347.438 1127.31 347.425 1127.32 347.417 1127.33C347.113 1127.61 346.709 1127.78 346.262 1127.78C345.814 1127.78 345.415 1127.61 345.106 1127.33C345.098 1127.32 345.089 1127.31 345.08 1127.31C344.959 1127.19 344.859 1127.06 344.776 1126.92C344.772 1126.91 344.768 1126.89 344.759 1126.89C344.681 1126.74 344.616 1126.59 344.577 1126.42C344.572 1126.41 344.572 1126.4 344.568 1126.39C344.546 1126.28 344.533 1126.17 344.533 1126.06C344.533 1125.29 345.037 1124.64 345.732 1124.42C345.74 1124.42 345.745 1124.42 345.754 1124.41C345.914 1124.37 346.079 1124.33 346.257 1124.33C346.266 1124.33 346.27 1124.34 346.279 1124.34C346.457 1124.34 346.622 1124.37 346.783 1124.42C346.791 1124.43 346.796 1124.43 346.804 1124.43C347.486 1124.66 347.981 1125.3 347.981 1126.06C347.981 1126.17 347.968 1126.28 347.951 1126.38C347.947 1126.39 347.942 1126.4 347.942 1126.42Z" fill="#67CDF5"/>
<path d="M-1.99983 0.000549316L-1.99983 758.999L201.029 868.103C274.214 907.431 364.129 861.391 375 779.022L375 0.000554191L-1.99983 0.000549316Z" fill="url(#paint17_linear)"/>
<defs>
<linearGradient id="paint0_linear" x1="102.382" y1="1131.38" x2="49.5739" y2="1054.06" gradientUnits="userSpaceOnUse">
<stop stop-color="#41FEEC"/>
<stop offset="1" stop-color="#41FEEC" stop-opacity="0"/>
</linearGradient>
<linearGradient id="paint1_linear" x1="17.9669" y1="1159.96" x2="-19.5783" y2="1094.36" gradientUnits="userSpaceOnUse">
<stop stop-color="#41FEEC"/>
<stop offset="1" stop-color="#41FEEC" stop-opacity="0"/>
</linearGradient>
<linearGradient id="paint2_linear" x1="158.301" y1="1124.22" x2="157.854" y2="1126.22" gradientUnits="userSpaceOnUse">
<stop stop-color="#0E2187"/>
<stop offset="1" stop-color="#AFB7E2"/>
</linearGradient>
<linearGradient id="paint3_linear" x1="242.118" y1="1207.38" x2="238.612" y2="1207.96" gradientUnits="userSpaceOnUse">
<stop stop-color="#0E2187"/>
<stop offset="1" stop-color="#AFB7E2"/>
</linearGradient>
<linearGradient id="paint4_linear" x1="171.321" y1="1106.3" x2="167.815" y2="1106.88" gradientUnits="userSpaceOnUse">
<stop stop-color="#0E2187"/>
<stop offset="1" stop-color="#AFB7E2"/>
</linearGradient>
<linearGradient id="paint5_linear" x1="48.3783" y1="1.39354e-06" x2="84.2898" y2="131.896" gradientUnits="userSpaceOnUse">
<stop stop-color="#0D1253"/>
<stop offset="1" stop-color="#3F2A98"/>
</linearGradient>
<linearGradient id="paint6_linear" x1="14.3857" y1="4.14381e-07" x2="25.0643" y2="39.2205" gradientUnits="userSpaceOnUse">
<stop stop-color="#41FEEC"/>
<stop offset="1" stop-color="#9A9AF0"/>
</linearGradient>
<linearGradient id="paint7_linear" x1="279.238" y1="1132.72" x2="273.054" y2="1140.41" gradientUnits="userSpaceOnUse">
<stop stop-color="#0E2187"/>
<stop offset="1" stop-color="#939CCE"/>
</linearGradient>
<linearGradient id="paint8_linear" x1="238.109" y1="1154.99" x2="231.925" y2="1162.69" gradientUnits="userSpaceOnUse">
<stop stop-color="#0E2187"/>
<stop offset="1" stop-color="#939CCE"/>
</linearGradient>
<linearGradient id="paint9_linear" x1="347.012" y1="1156.53" x2="346.565" y2="1158.53" gradientUnits="userSpaceOnUse">
<stop stop-color="#0E2187"/>
<stop offset="1" stop-color="#AFB7E2"/>
</linearGradient>
<linearGradient id="paint10_linear" x1="14.7517" y1="4.24923e-07" x2="25.702" y2="40.2183" gradientUnits="userSpaceOnUse">
<stop stop-color="#41FEEC"/>
<stop offset="1" stop-color="#9A9AF0"/>
</linearGradient>
<linearGradient id="paint11_linear" x1="14.2069" y1="4.09228e-07" x2="24.7527" y2="38.7329" gradientUnits="userSpaceOnUse">
<stop stop-color="#41FEEC"/>
<stop offset="1" stop-color="#9A9AF0"/>
</linearGradient>
<linearGradient id="paint12_linear" x1="294.899" y1="1010.03" x2="172.35" y2="1075.83" gradientUnits="userSpaceOnUse">
<stop stop-color="white"/>
<stop offset="0.681272" stop-color="#43368F"/>
<stop offset="1" stop-color="#312384"/>
</linearGradient>
<linearGradient id="paint13_linear" x1="14.3693" y1="4.13908e-07" x2="25.0358" y2="39.1758" gradientUnits="userSpaceOnUse">
<stop stop-color="#41FEEC"/>
<stop offset="1" stop-color="#9A9AF0"/>
</linearGradient>
<linearGradient id="paint14_linear" x1="198.727" y1="1422.18" x2="172.038" y2="1434.9" gradientUnits="userSpaceOnUse">
<stop stop-color="#0E2187"/>
<stop offset="1" stop-color="#AFB7E2"/>
</linearGradient>
<linearGradient id="paint15_linear" x1="276.13" y1="1228.97" x2="223.322" y2="1151.65" gradientUnits="userSpaceOnUse">
<stop stop-color="#41FEEC"/>
<stop offset="1" stop-color="#41FEEC" stop-opacity="0"/>
</linearGradient>
<linearGradient id="paint16_linear" x1="195.387" y1="1275.47" x2="142.58" y2="1198.15" gradientUnits="userSpaceOnUse">
<stop stop-color="#41FEEC"/>
<stop offset="1" stop-color="#41FEEC" stop-opacity="0"/>
</linearGradient>
<linearGradient id="paint17_linear" x1="181.778" y1="-1018.33" x2="156.392" y2="1177.96" gradientUnits="userSpaceOnUse">
<stop offset="0.343458" stop-color="#070F4A"/>
<stop offset="0.649295" stop-color="#15165E"/>
<stop offset="1" stop-color="#5B37C0"/>
</linearGradient>
</defs>
</svg>
