<svg preserveAspectRatio="xMinYMin slice" height="36" width="212" viewBox="0 0 212 36" fill="none" xmlns="http://www.w3.org/2000/svg">
  <path fill-rule="evenodd" clip-rule="evenodd"
        d="M71.0486 7.02493C71.5616 7.02493 71.9774 7.44004 71.9774 7.95211V28.1276C71.9774 28.6397 71.5616 29.0548 71.0486 29.0548H68.1956C67.6827 29.0548 67.2669 28.6397 67.2669 28.1276V17.5166L62.6883 25.0199C62.5197 25.2962 62.2191 25.4647 61.8951 25.4647H60.0822C59.7584 25.4647 59.4579 25.2963 59.2893 25.0202L54.6652 17.4484L54.7105 28.1237C54.7115 28.3702 54.6142 28.6071 54.4399 28.7818C54.2656 28.9565 54.0288 29.0548 53.7818 29.0548H50.9287C50.4158 29.0548 50 28.6397 50 28.1276V7.95211C50 7.44004 50.4158 7.02493 50.9287 7.02493H53.0091C53.3334 7.02493 53.6343 7.19387 53.8027 7.4706L60.9738 19.2512L68.1449 7.4706C68.3134 7.19387 68.6142 7.02493 68.9386 7.02493H71.0486ZM86.8037 23.8626L84.7877 28.4969C84.6404 28.8356 84.3058 29.0548 83.9359 29.0548H80.9045C80.5903 29.0548 80.2975 28.8962 80.1261 28.6333C79.9547 28.3704 79.9281 28.0388 80.0554 27.7521L89.0603 7.4579C89.2091 7.12251 89.542 6.90625 89.9095 6.90625H92.5842C92.9516 6.90625 93.2845 7.12251 93.4333 7.4579L102.438 27.7521C102.565 28.0388 102.539 28.3704 102.368 28.6333C102.196 28.8962 101.903 29.0548 101.589 29.0548H98.5577C98.1879 29.0548 97.8532 28.8356 97.7059 28.4969L95.6899 23.8626H86.8037ZM93.7577 19.3972L91.2468 13.5863L88.736 19.3972H93.7577ZM125.204 10.5631C125.204 11.0751 124.788 11.4902 124.275 11.4902H117.923V28.1276C117.923 28.6397 117.507 29.0548 116.994 29.0548H114.171C113.658 29.0548 113.242 28.6397 113.242 28.1276V11.4902H106.889C106.376 11.4902 105.961 11.0751 105.961 10.5631V7.95211C105.961 7.44004 106.376 7.02493 106.889 7.02493H124.275C124.788 7.02493 125.204 7.44004 125.204 7.95211V10.5631ZM177.614 21.2596C180.309 20.0815 182.052 17.7207 182.052 14.5388C182.052 12.2549 181.133 10.3443 179.545 9.02049C177.972 7.71002 175.807 7.02493 173.366 7.02493H165.461C164.948 7.02493 164.532 7.44004 164.532 7.95211V28.1276C164.532 28.6397 164.948 29.0548 165.461 29.0548H168.284C168.797 29.0548 169.213 28.6397 169.213 28.1276V22.0824H172.37L177.976 28.725C178.152 28.9341 178.412 29.0548 178.686 29.0548H182.163C182.524 29.0548 182.852 28.8462 183.005 28.5199C183.157 28.1935 183.107 27.8085 182.875 27.5323L177.614 21.2596ZM169.213 11.4902V17.6171H173.277C174.566 17.6171 175.616 17.2778 176.32 16.7399C177.002 16.2188 177.401 15.4855 177.401 14.5388C177.401 13.6107 177.005 12.8844 176.322 12.3652C175.617 11.8295 174.566 11.4902 173.277 11.4902H169.213ZM196.286 23.8626L194.27 28.4969C194.123 28.8356 193.788 29.0548 193.418 29.0548H190.387C190.073 29.0548 189.78 28.8962 189.608 28.6333C189.437 28.3704 189.41 28.0388 189.538 27.7521L198.542 7.4579C198.691 7.12251 199.024 6.90625 199.392 6.90625H202.066C202.434 6.90625 202.767 7.12251 202.915 7.4579L211.92 27.7521C212.048 28.0388 212.021 28.3704 211.85 28.6333C211.678 28.8962 211.385 29.0548 211.071 29.0548H208.04C207.67 29.0548 207.335 28.8356 207.188 28.4969L205.172 23.8626H196.286ZM203.24 19.3972L200.729 13.5863L198.218 19.3972H203.24Z"
        fill="white"/>
  <path
    d="M149.056 11.4557L140.617 11.4556L143.283 7.05825L151.232 7.08238C151.582 7.08345 151.899 7.28671 152.046 7.60368C152.193 7.92065 152.143 8.29398 151.918 8.56112L149.745 11.1359C149.574 11.3387 149.322 11.4557 149.056 11.4557Z"
    fill="white"/>
  <path
    d="M151.404 11.4557L142.965 11.4556L145.631 7.05825L153.579 7.08238C153.929 7.08345 154.247 7.28671 154.394 7.60368C154.541 7.92065 154.491 8.29398 154.266 8.56112L152.092 11.1359C151.921 11.3387 151.669 11.4557 151.404 11.4557Z"
    fill="white"/>
  <path
    d="M137.967 11.4557L146.406 11.4556L143.74 7.05825L135.792 7.08238C135.442 7.08345 135.124 7.28671 134.977 7.60368C134.83 7.92065 134.88 8.29398 135.106 8.56112L137.279 11.1359C137.45 11.3387 137.702 11.4557 137.967 11.4557Z"
    fill="white"/>
  <path
    d="M149.054 20.0495L140.615 20.0493L143.281 15.652L151.23 15.6761C151.58 15.6772 151.897 15.8805 152.044 16.1974C152.192 16.5144 152.141 16.8877 151.916 17.1549L149.743 19.7297C149.572 19.9325 149.32 20.0495 149.054 20.0495Z"
    fill="white"/>
  <path
    d="M151.402 20.0495L142.963 20.0493L145.629 15.652L153.577 15.6761C153.927 15.6772 154.245 15.8805 154.392 16.1974C154.539 16.5144 154.489 16.8877 154.264 17.1549L152.091 19.7297C151.919 19.9325 151.667 20.0495 151.402 20.0495Z"
    fill="white"/>
  <path
    d="M137.966 20.0495L146.404 20.0493L143.738 15.652L135.79 15.6761C135.44 15.6772 135.122 15.8805 134.975 16.1974C134.828 16.5144 134.878 16.8877 135.104 17.1549L137.277 19.7297C137.448 19.9325 137.7 20.0495 137.966 20.0495Z"
    fill="white"/>
  <path
    d="M149.052 28.6432L140.613 28.6431L143.279 24.2457L151.228 24.2699C151.578 24.2709 151.895 24.4742 152.043 24.7912C152.19 25.1082 152.139 25.4815 151.914 25.7486L149.741 28.3234C149.57 28.5262 149.318 28.6432 149.052 28.6432Z"
    fill="white"/>
  <path
    d="M151.4 28.6432L142.961 28.6431L145.627 24.2457L153.576 24.2699C153.925 24.2709 154.243 24.4742 154.39 24.7912C154.537 25.1082 154.487 25.4815 154.262 25.7486L152.089 28.3234C151.917 28.5262 151.665 28.6432 151.4 28.6432Z"
    fill="white"/>
  <path
    d="M137.964 28.6432L146.402 28.6431L143.736 24.2457L135.788 24.2699C135.438 24.2709 135.12 24.4742 134.973 24.7912C134.826 25.1082 134.876 25.4815 135.102 25.7486L137.275 28.3234C137.446 28.5262 137.698 28.6432 137.964 28.6432Z"
    fill="white"/>
  <path
    d="M27.534 5.13927C28.3763 4.17271 36.9839 9.42865 36.4591 10.5891C35.9343 11.7495 29.8369 15.013 27.3458 19.0927C24.8546 23.1725 24.6712 30.3956 23.9445 31.0843C23.2178 31.773 14.8029 26.5912 15.0194 25.6345C15.2358 24.6778 21.6416 21.2106 24.1327 17.1308C26.6239 13.0511 26.6917 6.10582 27.534 5.13927Z"
    fill="url(#paint0_linear)"/>
  <circle cx="32.2065" cy="7.54533" r="4.3878" transform="rotate(116.127 32.2065 7.54533)" fill="white"/>
  <path
    d="M12.0271 5.6397C11.2418 4.70183 2.65477 9.65587 3.12328 10.7765C3.59178 11.8971 9.41498 15.0997 11.692 19.0466C13.969 22.9935 13.8794 29.9346 14.5623 30.6043C15.2452 31.274 23.6416 26.389 23.4661 25.4675C23.2906 24.546 17.1744 21.1443 14.8974 17.1974C12.6204 13.2505 12.8123 6.57757 12.0271 5.6397Z"
    fill="url(#paint1_linear)"/>
  <circle r="4.3878" transform="matrix(0.44036 0.897821 0.897821 -0.44036 7.26034 7.5424)" fill="white"/>
  <circle r="6.23067" transform="matrix(0.44036 0.897821 0.897821 -0.44036 19.6207 29.5201)" fill="white"
          stroke="#11214A" stroke-width="0.175512"/>
  <path
    d="M7.77554 12.8099C6.50971 12.594 6.50972 2.46942 7.77554 2.31198C9.04136 2.15453 15.0135 5.67133 19.801 5.67133C24.5886 5.67133 30.8585 2.04964 31.8265 2.31198C32.7946 2.57432 32.7573 12.4949 31.8265 12.8099C30.8958 13.125 24.5886 9.4506 19.801 9.4506C15.0135 9.4506 9.04136 13.0259 7.77554 12.8099Z"
    fill="url(#paint2_linear)"/>
  <path
    d="M32.4508 13.5328C29.0097 13.5328 26.2202 10.7432 26.2202 7.3021C26.2202 3.86099 29.0097 1.07142 32.4508 1.07142C35.8919 1.07142 38.6815 3.86099 38.6815 7.3021C38.6815 10.7432 35.8919 13.5328 32.4508 13.5328Z"
    fill="white" stroke="#11214A" stroke-width="0.175512"/>
  <path
    d="M6.38638 13.7955C2.94527 13.7955 0.155706 11.0059 0.155706 7.56479C0.155707 4.12369 2.94527 1.33412 6.38638 1.33412C9.82749 1.33412 12.6171 4.12369 12.6171 7.56479C12.6171 11.0059 9.82748 13.7955 6.38638 13.7955Z"
    fill="white" stroke="#11214A" stroke-width="0.175512"/>
  <defs>
    <linearGradient id="paint0_linear" x1="22.1748" y1="23.9495" x2="39.2114" y2="11.0036"
                    gradientUnits="userSpaceOnUse">
      <stop stop-color="white" stop-opacity="0"/>
      <stop offset="1" stop-color="white"/>
    </linearGradient>
    <linearGradient id="paint1_linear" x1="10.1081" y1="12.0874" x2="25.9312" y2="25.2079"
                    gradientUnits="userSpaceOnUse">
      <stop stop-color="white" stop-opacity="0"/>
      <stop offset="1" stop-color="white"/>
    </linearGradient>
    <linearGradient id="paint2_linear" x1="26.6515" y1="7.56084" x2="6.60026" y2="-0.332784"
                    gradientUnits="userSpaceOnUse">
      <stop stop-color="white" stop-opacity="0"/>
      <stop offset="1" stop-color="white"/>
    </linearGradient>
  </defs>
</svg>
