<svg width="24" height="24" viewBox="0 0 24 24" fill="none" xmlns="http://www.w3.org/2000/svg">
<path d="M10.5938 9.75269V14.2461L14.189 11.9994L10.5938 9.75269Z" fill="white"/>
<path d="M3.51562 21.1394H20.4844C22.4228 21.1394 24 19.5622 24 17.6238V6.37378C24 4.43536 22.4228 2.85815 20.4844 2.85815H3.51562C1.5772 2.85815 0 4.43536 0 6.37378V17.6238C0 19.5622 1.5772 21.1394 3.51562 21.1394ZM9.1875 8.48315C9.1875 8.22773 9.3262 7.99219 9.55003 7.86792C9.77114 7.74431 10.0465 7.7505 10.2635 7.88714L15.8885 11.4028C16.0938 11.5312 16.2188 11.7564 16.2188 11.9988C16.2188 12.2412 16.0938 12.4664 15.8885 12.5948L10.2635 16.1104C10.1495 16.1818 10.0204 16.2175 9.89062 16.2175C9.7732 16.2175 9.65578 16.188 9.55003 16.1296C9.3262 16.0054 9.1875 15.7698 9.1875 15.5144V8.48315Z" fill="white"/>
</svg>
