<svg width="294" height="64" viewBox="0 0 294 64" fill="none" xmlns="http://www.w3.org/2000/svg">
<rect width="294" height="64" rx="10" fill="#EFF4F8"/>
<path d="M41.8281 22L41.2061 20.4106H39.2031L38.5879 22H38L39.9756 16.9824H40.4644L42.4297 22H41.8281ZM41.0249 19.8877L40.4438 18.3394C40.3687 18.1434 40.2912 17.903 40.2114 17.6182C40.1613 17.8369 40.0895 18.0773 39.9961 18.3394L39.4082 19.8877H41.0249ZM47.478 22H46.9038L45.8955 18.6538C45.8477 18.5057 45.7941 18.3188 45.7349 18.0933C45.6756 17.8677 45.6449 17.7321 45.6426 17.6865C45.5924 17.9873 45.5127 18.3166 45.4033 18.6743L44.4258 22H43.8516L42.522 17.0029H43.1372L43.9268 20.0894C44.0361 20.5223 44.1159 20.9142 44.166 21.2651C44.2275 20.8481 44.3187 20.4403 44.4395 20.0415L45.335 17.0029H45.9502L46.8901 20.0688C46.9995 20.422 47.0918 20.8208 47.167 21.2651C47.2103 20.9416 47.2923 20.5474 47.4131 20.0825L48.1992 17.0029H48.8145L47.478 22ZM52.417 20.6704C52.417 21.1102 52.2575 21.4531 51.9385 21.6992C51.6195 21.9453 51.1865 22.0684 50.6396 22.0684C50.0472 22.0684 49.5915 21.992 49.2725 21.8394V21.2788C49.4775 21.3654 49.7008 21.4338 49.9424 21.4839C50.1839 21.534 50.4232 21.5591 50.6602 21.5591C51.0475 21.5591 51.3392 21.4862 51.5352 21.3403C51.7311 21.1922 51.8291 20.9871 51.8291 20.7251C51.8291 20.5519 51.7938 20.4106 51.7231 20.3013C51.6548 20.1896 51.5386 20.0871 51.3745 19.9937C51.2127 19.9002 50.9655 19.7943 50.6328 19.6758C50.168 19.5094 49.8353 19.3123 49.6348 19.0845C49.4365 18.8566 49.3374 18.5592 49.3374 18.1924C49.3374 17.8073 49.4821 17.5008 49.7715 17.2729C50.0609 17.0451 50.4437 16.9312 50.9199 16.9312C51.4167 16.9312 51.8735 17.0223 52.2905 17.2046L52.1094 17.7104C51.6969 17.5373 51.2959 17.4507 50.9062 17.4507C50.5986 17.4507 50.3582 17.5168 50.1851 17.6489C50.0119 17.7811 49.9253 17.9645 49.9253 18.1992C49.9253 18.3724 49.9572 18.5148 50.021 18.6265C50.0848 18.7358 50.1919 18.8372 50.3423 18.9307C50.495 19.0218 50.7274 19.1232 51.0396 19.2349C51.5636 19.4217 51.9237 19.6222 52.1196 19.8364C52.3179 20.0506 52.417 20.3286 52.417 20.6704Z" fill="#091432"/>
<path d="M41.8281 35L41.2061 33.4106H39.2031L38.5879 35H38L39.9756 29.9824H40.4644L42.4297 35H41.8281ZM41.0249 32.8877L40.4438 31.3394C40.3687 31.1434 40.2912 30.903 40.2114 30.6182C40.1613 30.8369 40.0895 31.0773 39.9961 31.3394L39.4082 32.8877H41.0249ZM47.478 35H46.9038L45.8955 31.6538C45.8477 31.5057 45.7941 31.3188 45.7349 31.0933C45.6756 30.8677 45.6449 30.7321 45.6426 30.6865C45.5924 30.9873 45.5127 31.3166 45.4033 31.6743L44.4258 35H43.8516L42.522 30.0029H43.1372L43.9268 33.0894C44.0361 33.5223 44.1159 33.9142 44.166 34.2651C44.2275 33.8481 44.3187 33.4403 44.4395 33.0415L45.335 30.0029H45.9502L46.8901 33.0688C46.9995 33.422 47.0918 33.8208 47.167 34.2651C47.2103 33.9416 47.2923 33.5474 47.4131 33.0825L48.1992 30.0029H48.8145L47.478 35ZM52.417 33.6704C52.417 34.1102 52.2575 34.4531 51.9385 34.6992C51.6195 34.9453 51.1865 35.0684 50.6396 35.0684C50.0472 35.0684 49.5915 34.992 49.2725 34.8394V34.2788C49.4775 34.3654 49.7008 34.4338 49.9424 34.4839C50.1839 34.534 50.4232 34.5591 50.6602 34.5591C51.0475 34.5591 51.3392 34.4862 51.5352 34.3403C51.7311 34.1922 51.8291 33.9871 51.8291 33.7251C51.8291 33.5519 51.7938 33.4106 51.7231 33.3013C51.6548 33.1896 51.5386 33.0871 51.3745 32.9937C51.2127 32.9002 50.9655 32.7943 50.6328 32.6758C50.168 32.5094 49.8353 32.3123 49.6348 32.0845C49.4365 31.8566 49.3374 31.5592 49.3374 31.1924C49.3374 30.8073 49.4821 30.5008 49.7715 30.2729C50.0609 30.0451 50.4437 29.9312 50.9199 29.9312C51.4167 29.9312 51.8735 30.0223 52.2905 30.2046L52.1094 30.7104C51.6969 30.5373 51.2959 30.4507 50.9062 30.4507C50.5986 30.4507 50.3582 30.5168 50.1851 30.6489C50.0119 30.7811 49.9253 30.9645 49.9253 31.1992C49.9253 31.3724 49.9572 31.5148 50.021 31.6265C50.0848 31.7358 50.1919 31.8372 50.3423 31.9307C50.495 32.0218 50.7274 32.1232 51.0396 32.2349C51.5636 32.4217 51.9237 32.6222 52.1196 32.8364C52.3179 33.0506 52.417 33.3286 52.417 33.6704ZM53.0391 33.3833V32.8638H54.7173V33.3833H53.0391ZM59.5981 35H58.9351L56.2041 30.8062H56.1768C56.2132 31.2983 56.2314 31.7495 56.2314 32.1597V35H55.6948V30.0029H56.3511L59.0752 34.1797H59.1025C59.098 34.1182 59.0877 33.9211 59.0718 33.5884C59.0558 33.2534 59.0501 33.0142 59.0547 32.8706V30.0029H59.5981V35ZM64.7661 35H64.1851V32.6484H61.5532V35H60.9722V30.0029H61.5532V32.1289H64.1851V30.0029H64.7661V35ZM67.6782 35H67.0972V30.519H65.5146V30.0029H69.2607V30.519H67.6782V35Z" fill="#091432"/>
<path d="M41.8281 48L41.2061 46.4106H39.2031L38.5879 48H38L39.9756 42.9824H40.4644L42.4297 48H41.8281ZM41.0249 45.8877L40.4438 44.3394C40.3687 44.1434 40.2912 43.903 40.2114 43.6182C40.1613 43.8369 40.0895 44.0773 39.9961 44.3394L39.4082 45.8877H41.0249ZM47.478 48H46.9038L45.8955 44.6538C45.8477 44.5057 45.7941 44.3188 45.7349 44.0933C45.6756 43.8677 45.6449 43.7321 45.6426 43.6865C45.5924 43.9873 45.5127 44.3166 45.4033 44.6743L44.4258 48H43.8516L42.522 43.0029H43.1372L43.9268 46.0894C44.0361 46.5223 44.1159 46.9142 44.166 47.2651C44.2275 46.8481 44.3187 46.4403 44.4395 46.0415L45.335 43.0029H45.9502L46.8901 46.0688C46.9995 46.422 47.0918 46.8208 47.167 47.2651C47.2103 46.9416 47.2923 46.5474 47.4131 46.0825L48.1992 43.0029H48.8145L47.478 48ZM52.417 46.6704C52.417 47.1102 52.2575 47.4531 51.9385 47.6992C51.6195 47.9453 51.1865 48.0684 50.6396 48.0684C50.0472 48.0684 49.5915 47.992 49.2725 47.8394V47.2788C49.4775 47.3654 49.7008 47.4338 49.9424 47.4839C50.1839 47.534 50.4232 47.5591 50.6602 47.5591C51.0475 47.5591 51.3392 47.4862 51.5352 47.3403C51.7311 47.1922 51.8291 46.9871 51.8291 46.7251C51.8291 46.5519 51.7938 46.4106 51.7231 46.3013C51.6548 46.1896 51.5386 46.0871 51.3745 45.9937C51.2127 45.9002 50.9655 45.7943 50.6328 45.6758C50.168 45.5094 49.8353 45.3123 49.6348 45.0845C49.4365 44.8566 49.3374 44.5592 49.3374 44.1924C49.3374 43.8073 49.4821 43.5008 49.7715 43.2729C50.0609 43.0451 50.4437 42.9312 50.9199 42.9312C51.4167 42.9312 51.8735 43.0223 52.2905 43.2046L52.1094 43.7104C51.6969 43.5373 51.2959 43.4507 50.9062 43.4507C50.5986 43.4507 50.3582 43.5168 50.1851 43.6489C50.0119 43.7811 49.9253 43.9645 49.9253 44.1992C49.9253 44.3724 49.9572 44.5148 50.021 44.6265C50.0848 44.7358 50.1919 44.8372 50.3423 44.9307C50.495 45.0218 50.7274 45.1232 51.0396 45.2349C51.5636 45.4217 51.9237 45.6222 52.1196 45.8364C52.3179 46.0506 52.417 46.3286 52.417 46.6704ZM53.0391 46.3833V45.8638H54.7173V46.3833H53.0391ZM59.5981 48H58.9351L56.2041 43.8062H56.1768C56.2132 44.2983 56.2314 44.7495 56.2314 45.1597V48H55.6948V43.0029H56.3511L59.0752 47.1797H59.1025C59.098 47.1182 59.0877 46.9211 59.0718 46.5884C59.0558 46.2534 59.0501 46.0142 59.0547 45.8706V43.0029H59.5981V48ZM64.7661 48H64.1851V45.6484H61.5532V48H60.9722V43.0029H61.5532V45.1289H64.1851V43.0029H64.7661V48ZM67.6782 48H67.0972V43.519H65.5146V43.0029H69.2607V43.519H67.6782V48ZM69.6162 46.3833V45.8638H71.2944V46.3833H69.6162ZM75.4404 44.459C75.4404 44.9648 75.2673 45.3545 74.9209 45.6279C74.5768 45.8991 74.0835 46.0347 73.4409 46.0347H72.853V48H72.272V43.0029H73.5674C74.8161 43.0029 75.4404 43.4883 75.4404 44.459ZM72.853 45.5356H73.376C73.891 45.5356 74.2635 45.4525 74.4937 45.2861C74.7238 45.1198 74.8389 44.8532 74.8389 44.4863C74.8389 44.1559 74.7306 43.9098 74.5142 43.748C74.2977 43.5863 73.9604 43.5054 73.5024 43.5054H72.853V45.5356ZM78.6875 45.3818H80.3862V47.812C80.1219 47.8963 79.853 47.9601 79.5796 48.0034C79.3062 48.0467 78.9894 48.0684 78.6294 48.0684C77.8729 48.0684 77.2839 47.8439 76.8623 47.395C76.4408 46.9438 76.23 46.3127 76.23 45.5015C76.23 44.9819 76.3337 44.5273 76.541 44.1377C76.7507 43.7458 77.0514 43.4473 77.4434 43.2422C77.8353 43.0348 78.2944 42.9312 78.8208 42.9312C79.354 42.9312 79.8507 43.0291 80.311 43.2251L80.0854 43.7378C79.6343 43.5464 79.2002 43.4507 78.7832 43.4507C78.1748 43.4507 77.6997 43.6318 77.3579 43.9941C77.0161 44.3564 76.8452 44.8589 76.8452 45.5015C76.8452 46.1759 77.0093 46.6875 77.3374 47.0361C77.6678 47.3848 78.152 47.5591 78.79 47.5591C79.1364 47.5591 79.4748 47.5192 79.8052 47.4395V45.9014H78.6875V45.3818Z" fill="#091432"/>
<rect x="24" y="17" width="5" height="5" fill="#EA9A53"/>
<rect x="24" y="30" width="5" height="5" fill="#B1602E"/>
<rect x="24" y="43" width="5" height="5" fill="#76411E"/>
<circle cx="128.5" cy="19.5" r="3.5" fill="#70A8D7"/>
<circle cx="128.5" cy="31.5" r="3.5" fill="#4A76B8"/>
<circle cx="128.5" cy="44.5" r="3.5" fill="#269AC4"/>
<path d="M144.828 22L144.206 20.4106H142.203L141.588 22H141L142.976 16.9824H143.464L145.43 22H144.828ZM144.025 19.8877L143.444 18.3394C143.369 18.1434 143.291 17.903 143.211 17.6182C143.161 17.8369 143.09 18.0773 142.996 18.3394L142.408 19.8877H144.025ZM149.145 22H145.71V21.5454L148.362 17.5259H145.792V17.0029H149.07V17.4575L146.417 21.4736H149.145V22Z" fill="#091432"/>
<path d="M144.828 35L144.206 33.4106H142.203L141.588 35H141L142.976 29.9824H143.464L145.43 35H144.828ZM144.025 32.8877L143.444 31.3394C143.369 31.1434 143.291 30.903 143.211 30.6182C143.161 30.8369 143.09 31.0773 142.996 31.3394L142.408 32.8877H144.025ZM149.145 35H145.71V34.5454L148.362 30.5259H145.792V30.0029H149.07V30.4575L146.417 34.4736H149.145V35ZM149.716 33.3833V32.8638H151.394V33.3833H149.716ZM152.372 35V30.0029H152.953V35H152.372ZM154.327 30.0029H155.738C156.401 30.0029 156.881 30.1021 157.177 30.3003C157.473 30.4985 157.622 30.8118 157.622 31.2402C157.622 31.5365 157.538 31.7814 157.372 31.9751C157.208 32.1665 156.968 32.2907 156.651 32.3477V32.3818C157.41 32.5117 157.789 32.9105 157.789 33.5781C157.789 34.0247 157.638 34.3734 157.334 34.624C157.034 34.8747 156.612 35 156.07 35H154.327V30.0029ZM154.908 32.1426H155.865C156.275 32.1426 156.57 32.0788 156.75 31.9512C156.93 31.8213 157.02 31.6037 157.02 31.2983C157.02 31.0181 156.92 30.8164 156.719 30.6934C156.519 30.568 156.2 30.5054 155.762 30.5054H154.908V32.1426ZM154.908 32.6348V34.5044H155.95C156.354 34.5044 156.657 34.4269 156.859 34.272C157.064 34.1147 157.167 33.8698 157.167 33.5371C157.167 33.2272 157.062 32.9993 156.853 32.8535C156.645 32.7077 156.328 32.6348 155.902 32.6348H154.908ZM158.466 33.3833V32.8638H160.144V33.3833H158.466ZM164.263 35L163.641 33.4106H161.638L161.022 35H160.435L162.41 29.9824H162.899L164.864 35H164.263ZM163.459 32.8877L162.878 31.3394C162.803 31.1434 162.726 30.903 162.646 30.6182C162.596 30.8369 162.524 31.0773 162.431 31.3394L161.843 32.8877H163.459Z" fill="#091432"/>
<path d="M144.828 48L144.206 46.4106H142.203L141.588 48H141L142.976 42.9824H143.464L145.43 48H144.828ZM144.025 45.8877L143.444 44.3394C143.369 44.1434 143.291 43.903 143.211 43.6182C143.161 43.8369 143.09 44.0773 142.996 44.3394L142.408 45.8877H144.025ZM149.145 48H145.71V47.5454L148.362 43.5259H145.792V43.0029H149.07V43.4575L146.417 47.4736H149.145V48ZM149.716 46.3833V45.8638H151.394V46.3833H149.716ZM152.372 48V43.0029H152.953V48H152.372ZM154.327 43.0029H155.738C156.401 43.0029 156.881 43.1021 157.177 43.3003C157.473 43.4985 157.622 43.8118 157.622 44.2402C157.622 44.5365 157.538 44.7814 157.372 44.9751C157.208 45.1665 156.968 45.2907 156.651 45.3477V45.3818C157.41 45.5117 157.789 45.9105 157.789 46.5781C157.789 47.0247 157.638 47.3734 157.334 47.624C157.034 47.8747 156.612 48 156.07 48H154.327V43.0029ZM154.908 45.1426H155.865C156.275 45.1426 156.57 45.0788 156.75 44.9512C156.93 44.8213 157.02 44.6037 157.02 44.2983C157.02 44.0181 156.92 43.8164 156.719 43.6934C156.519 43.568 156.2 43.5054 155.762 43.5054H154.908V45.1426ZM154.908 45.6348V47.5044H155.95C156.354 47.5044 156.657 47.4269 156.859 47.272C157.064 47.1147 157.167 46.8698 157.167 46.5371C157.167 46.2272 157.062 45.9993 156.853 45.8535C156.645 45.7077 156.328 45.6348 155.902 45.6348H154.908ZM158.466 46.3833V45.8638H160.144V46.3833H158.466ZM164.916 48H164.334V45.6484H161.703V48H161.122V43.0029H161.703V45.1289H164.334V43.0029H164.916V48Z" fill="#091432"/>
<path d="M244.59 22H243.927L241.196 17.8062H241.169C241.205 18.2983 241.224 18.7495 241.224 19.1597V22H240.687V17.0029H241.343L244.067 21.1797H244.095C244.09 21.1182 244.08 20.9211 244.064 20.5884C244.048 20.2534 244.042 20.0142 244.047 19.8706V17.0029H244.59V22ZM248.75 22H245.964V17.0029H248.75V17.519H246.545V19.1289H248.617V19.6416H246.545V21.4805H248.75V22ZM250.442 19.9219V22H249.861V17.0029H251.231C251.844 17.0029 252.297 17.1203 252.588 17.355C252.882 17.5897 253.029 17.9429 253.029 18.4146C253.029 19.0754 252.694 19.522 252.024 19.7544L253.381 22H252.694L251.484 19.9219H250.442ZM250.442 19.4229H251.238C251.648 19.4229 251.949 19.342 252.141 19.1802C252.332 19.0161 252.428 18.7712 252.428 18.4453C252.428 18.1149 252.33 17.8768 252.134 17.731C251.94 17.5851 251.628 17.5122 251.197 17.5122H250.442V19.4229ZM257.008 20.6704C257.008 21.1102 256.848 21.4531 256.529 21.6992C256.21 21.9453 255.777 22.0684 255.23 22.0684C254.638 22.0684 254.182 21.992 253.863 21.8394V21.2788C254.068 21.3654 254.292 21.4338 254.533 21.4839C254.775 21.534 255.014 21.5591 255.251 21.5591C255.638 21.5591 255.93 21.4862 256.126 21.3403C256.322 21.1922 256.42 20.9871 256.42 20.7251C256.42 20.5519 256.385 20.4106 256.314 20.3013C256.246 20.1896 256.129 20.0871 255.965 19.9937C255.804 19.9002 255.556 19.7943 255.224 19.6758C254.759 19.5094 254.426 19.3123 254.226 19.0845C254.027 18.8566 253.928 18.5592 253.928 18.1924C253.928 17.8073 254.073 17.5008 254.362 17.2729C254.652 17.0451 255.035 16.9312 255.511 16.9312C256.007 16.9312 256.464 17.0223 256.881 17.2046L256.7 17.7104C256.288 17.5373 255.887 17.4507 255.497 17.4507C255.189 17.4507 254.949 17.5168 254.776 17.6489C254.603 17.7811 254.516 17.9645 254.516 18.1992C254.516 18.3724 254.548 18.5148 254.612 18.6265C254.676 18.7358 254.783 18.8372 254.933 18.9307C255.086 19.0218 255.318 19.1232 255.63 19.2349C256.154 19.4217 256.514 19.6222 256.71 19.8364C256.909 20.0506 257.008 20.3286 257.008 20.6704ZM260.169 17.4507C259.62 17.4507 259.186 17.6341 258.867 18.001C258.55 18.3656 258.392 18.8657 258.392 19.5015C258.392 20.1554 258.545 20.6613 258.85 21.019C259.158 21.3745 259.595 21.5522 260.163 21.5522C260.511 21.5522 260.909 21.4896 261.355 21.3643V21.8735C261.009 22.0034 260.582 22.0684 260.074 22.0684C259.338 22.0684 258.769 21.8451 258.368 21.3984C257.969 20.9518 257.77 20.3172 257.77 19.4946C257.77 18.9797 257.866 18.5285 258.057 18.1411C258.251 17.7537 258.529 17.4552 258.891 17.2456C259.256 17.036 259.684 16.9312 260.176 16.9312C260.7 16.9312 261.158 17.0269 261.55 17.2183L261.304 17.7173C260.926 17.5396 260.548 17.4507 260.169 17.4507ZM262.046 20.3833V19.8638H263.724V20.3833H262.046ZM267.487 22H264.702V17.0029H267.487V17.519H265.283V19.1289H267.354V19.6416H265.283V21.4805H267.487V22Z" fill="#091432"/>
<path d="M241.268 32.9219V35H240.687V30.0029H242.058C242.671 30.0029 243.123 30.1203 243.415 30.355C243.708 30.5897 243.855 30.9429 243.855 31.4146C243.855 32.0754 243.521 32.522 242.851 32.7544L244.208 35H243.521L242.311 32.9219H241.268ZM241.268 32.4229H242.064C242.475 32.4229 242.775 32.342 242.967 32.1802C243.158 32.0161 243.254 31.7712 243.254 31.4453C243.254 31.1149 243.156 30.8768 242.96 30.731C242.766 30.5851 242.454 30.5122 242.023 30.5122H241.268V32.4229ZM247.834 33.6704C247.834 34.1102 247.674 34.4531 247.355 34.6992C247.036 34.9453 246.604 35.0684 246.057 35.0684C245.464 35.0684 245.008 34.992 244.689 34.8394V34.2788C244.895 34.3654 245.118 34.4338 245.359 34.4839C245.601 34.534 245.84 34.5591 246.077 34.5591C246.465 34.5591 246.756 34.4862 246.952 34.3403C247.148 34.1922 247.246 33.9871 247.246 33.7251C247.246 33.5519 247.211 33.4106 247.14 33.3013C247.072 33.1896 246.956 33.0871 246.792 32.9937C246.63 32.9002 246.382 32.7943 246.05 32.6758C245.585 32.5094 245.252 32.3123 245.052 32.0845C244.854 31.8566 244.754 31.5592 244.754 31.1924C244.754 30.8073 244.899 30.5008 245.188 30.2729C245.478 30.0451 245.861 29.9312 246.337 29.9312C246.834 29.9312 247.291 30.0223 247.708 30.2046L247.526 30.7104C247.114 30.5373 246.713 30.4507 246.323 30.4507C246.016 30.4507 245.775 30.5168 245.602 30.6489C245.429 30.7811 245.342 30.9645 245.342 31.1992C245.342 31.3724 245.374 31.5148 245.438 31.6265C245.502 31.7358 245.609 31.8372 245.759 31.9307C245.912 32.0218 246.144 32.1232 246.457 32.2349C246.981 32.4217 247.341 32.6222 247.537 32.8364C247.735 33.0506 247.834 33.3286 247.834 33.6704Z" fill="#091432"/>
<path d="M243.507 46.6704C243.507 47.1102 243.347 47.4531 243.028 47.6992C242.709 47.9453 242.276 48.0684 241.729 48.0684C241.137 48.0684 240.681 47.992 240.362 47.8394V47.2788C240.567 47.3654 240.791 47.4338 241.032 47.4839C241.274 47.534 241.513 47.5591 241.75 47.5591C242.137 47.5591 242.429 47.4862 242.625 47.3403C242.821 47.1922 242.919 46.9871 242.919 46.7251C242.919 46.5519 242.884 46.4106 242.813 46.3013C242.745 46.1896 242.628 46.0871 242.464 45.9937C242.303 45.9002 242.055 45.7943 241.723 45.6758C241.258 45.5094 240.925 45.3123 240.725 45.0845C240.526 44.8566 240.427 44.5592 240.427 44.1924C240.427 43.8073 240.572 43.5008 240.861 43.2729C241.151 43.0451 241.534 42.9312 242.01 42.9312C242.507 42.9312 242.963 43.0223 243.38 43.2046L243.199 43.7104C242.787 43.5373 242.386 43.4507 241.996 43.4507C241.688 43.4507 241.448 43.5168 241.275 43.6489C241.102 43.7811 241.015 43.9645 241.015 44.1992C241.015 44.3724 241.047 44.5148 241.111 44.6265C241.175 44.7358 241.282 44.8372 241.432 44.9307C241.585 45.0218 241.817 45.1232 242.129 45.2349C242.653 45.4217 243.014 45.6222 243.209 45.8364C243.408 46.0506 243.507 46.3286 243.507 46.6704ZM244.529 48V43.0029H245.11V47.4736H247.314V48H244.529Z" fill="#091432"/>
<path d="M227.5 15L231.397 21.75H223.603L227.5 15Z" fill="#32753C"/>
<rect x="223" y="31.2759" width="6.04628" height="6.04628" transform="rotate(-45.0084 223 31.2759)" fill="#67519E"/>
<path d="M227.5 40L228.51 43.1094H231.78L229.135 45.0312L230.145 48.1406L227.5 46.2188L224.855 48.1406L225.865 45.0312L223.22 43.1094H226.49L227.5 40Z" fill="#DF6668"/>
</svg>
