<svg width="479" height="53" viewBox="0 0 479 53" fill="none" xmlns="http://www.w3.org/2000/svg">
<rect width="478.381" height="53" rx="10" fill="#EFF4F8"/>
<path d="M27.6484 27.7451C27.6484 28.8877 27.3587 29.7861 26.7793 30.4404C26.2031 31.0947 25.4007 31.4219 24.3721 31.4219C23.3206 31.4219 22.5085 31.1012 21.9355 30.46C21.3659 29.8154 21.0811 28.9072 21.0811 27.7354C21.0811 26.5732 21.3675 25.6732 21.9404 25.0352C22.5133 24.3939 23.3271 24.0732 24.3818 24.0732C25.4072 24.0732 26.208 24.3988 26.7842 25.0498C27.3604 25.7008 27.6484 26.5993 27.6484 27.7451ZM21.96 27.7451C21.96 28.7119 22.165 29.446 22.5752 29.9473C22.9886 30.4453 23.5876 30.6943 24.3721 30.6943C25.1631 30.6943 25.7604 30.4453 26.1641 29.9473C26.5677 29.4492 26.7695 28.7152 26.7695 27.7451C26.7695 26.7848 26.5677 26.0573 26.1641 25.5625C25.7637 25.0645 25.1696 24.8154 24.3818 24.8154C23.5908 24.8154 22.9886 25.0661 22.5752 25.5674C22.165 26.0654 21.96 26.7913 21.96 27.7451ZM33.7715 26.2656C33.7715 26.9883 33.5241 27.5449 33.0293 27.9355C32.5378 28.3229 31.833 28.5166 30.915 28.5166H30.0752V31.3242H29.2451V24.1855H31.0957C32.8796 24.1855 33.7715 24.8789 33.7715 26.2656ZM30.0752 27.8037H30.8223C31.5579 27.8037 32.0902 27.6849 32.4189 27.4473C32.7477 27.2096 32.9121 26.8288 32.9121 26.3047C32.9121 25.8327 32.7575 25.4811 32.4482 25.25C32.139 25.0189 31.6572 24.9033 31.0029 24.9033H30.0752V27.8037ZM39.25 31.3242H35.2705V24.1855H39.25V24.9229H36.1006V27.2227H39.0596V27.9551H36.1006V30.582H39.25V31.3242ZM46.4131 31.3242H45.4658L41.5645 25.333H41.5254C41.5775 26.0361 41.6035 26.6807 41.6035 27.2666V31.3242H40.8369V24.1855H41.7744L45.666 30.1523H45.7051C45.6986 30.0645 45.6839 29.7829 45.6611 29.3076C45.6383 28.8291 45.6302 28.4873 45.6367 28.2822V24.1855H46.4131V31.3242ZM47.8047 29.0146V28.2725H50.2021V29.0146H47.8047ZM55.627 29.4248C55.627 30.0531 55.3991 30.543 54.9434 30.8945C54.4876 31.2461 53.8691 31.4219 53.0879 31.4219C52.2415 31.4219 51.5905 31.3128 51.1348 31.0947V30.2939C51.4277 30.4176 51.7467 30.5153 52.0918 30.5869C52.4368 30.6585 52.7786 30.6943 53.1172 30.6943C53.6706 30.6943 54.0872 30.5902 54.3672 30.3818C54.6471 30.1702 54.7871 29.8773 54.7871 29.5029C54.7871 29.2555 54.7367 29.0537 54.6357 28.8975C54.5381 28.738 54.3721 28.5915 54.1377 28.458C53.9066 28.3245 53.5534 28.1732 53.0781 28.0039C52.4141 27.7663 51.9388 27.4847 51.6523 27.1592C51.3691 26.8337 51.2275 26.4089 51.2275 25.8848C51.2275 25.3346 51.4342 24.8968 51.8477 24.5713C52.2611 24.2458 52.8079 24.083 53.4883 24.083C54.1979 24.083 54.8506 24.2132 55.4463 24.4736L55.1875 25.1963C54.5983 24.9489 54.0254 24.8252 53.4688 24.8252C53.0293 24.8252 52.6859 24.9196 52.4385 25.1084C52.1911 25.2972 52.0674 25.5592 52.0674 25.8945C52.0674 26.1419 52.113 26.3454 52.2041 26.5049C52.2952 26.6611 52.4482 26.806 52.6631 26.9395C52.8812 27.0697 53.2132 27.2145 53.6592 27.374C54.4079 27.641 54.9222 27.9274 55.2021 28.2334C55.4854 28.5394 55.627 28.9365 55.627 29.4248ZM63.2832 27.7451C63.2832 28.8877 62.9935 29.7861 62.4141 30.4404C61.8379 31.0947 61.0355 31.4219 60.0068 31.4219C58.9554 31.4219 58.1432 31.1012 57.5703 30.46C57.0007 29.8154 56.7158 28.9072 56.7158 27.7354C56.7158 26.5732 57.0023 25.6732 57.5752 25.0352C58.1481 24.3939 58.9619 24.0732 60.0166 24.0732C61.042 24.0732 61.8428 24.3988 62.4189 25.0498C62.9951 25.7008 63.2832 26.5993 63.2832 27.7451ZM57.5947 27.7451C57.5947 28.7119 57.7998 29.446 58.21 29.9473C58.6234 30.4453 59.2223 30.6943 60.0068 30.6943C60.7979 30.6943 61.3952 30.4453 61.7988 29.9473C62.2025 29.4492 62.4043 28.7152 62.4043 27.7451C62.4043 26.7848 62.2025 26.0573 61.7988 25.5625C61.3984 25.0645 60.8044 24.8154 60.0166 24.8154C59.2256 24.8154 58.6234 25.0661 58.21 25.5674C57.7998 26.0654 57.5947 26.7913 57.5947 27.7451ZM70.2705 24.1855V28.8047C70.2705 29.6185 70.0247 30.2581 69.5332 30.7236C69.0417 31.1891 68.3662 31.4219 67.5068 31.4219C66.6475 31.4219 65.9818 31.1875 65.5098 30.7188C65.041 30.25 64.8066 29.6055 64.8066 28.7852V24.1855H65.6367V28.8438C65.6367 29.4395 65.7995 29.8968 66.125 30.2158C66.4505 30.5348 66.929 30.6943 67.5605 30.6943C68.1628 30.6943 68.6266 30.5348 68.9521 30.2158C69.2777 29.8936 69.4404 29.4329 69.4404 28.834V24.1855H70.2705ZM72.9951 28.3555V31.3242H72.165V24.1855H74.123C74.9987 24.1855 75.6449 24.3532 76.0615 24.6885C76.4814 25.0238 76.6914 25.5283 76.6914 26.2021C76.6914 27.1462 76.2129 27.7842 75.2559 28.1162L77.1943 31.3242H76.2129L74.4844 28.3555H72.9951ZM72.9951 27.6426H74.1328C74.7188 27.6426 75.1484 27.527 75.4219 27.2959C75.6953 27.0615 75.832 26.7116 75.832 26.2461C75.832 25.7741 75.6921 25.4339 75.4121 25.2256C75.1354 25.0173 74.6895 24.9131 74.0742 24.9131H72.9951V27.6426ZM81.4033 24.8252C80.6188 24.8252 79.9987 25.0872 79.543 25.6113C79.0905 26.1322 78.8643 26.8467 78.8643 27.7549C78.8643 28.6891 79.0824 29.4118 79.5186 29.9229C79.958 30.4307 80.583 30.6846 81.3936 30.6846C81.8916 30.6846 82.4596 30.5951 83.0977 30.416V31.1436C82.6029 31.3291 81.9925 31.4219 81.2666 31.4219C80.2152 31.4219 79.403 31.1029 78.8301 30.4648C78.2604 29.8268 77.9756 28.9202 77.9756 27.7451C77.9756 27.0094 78.1123 26.3649 78.3857 25.8115C78.6624 25.2581 79.0596 24.8317 79.5771 24.5322C80.098 24.2327 80.71 24.083 81.4131 24.083C82.1618 24.083 82.8161 24.2197 83.376 24.4932L83.0244 25.2061C82.484 24.9521 81.9437 24.8252 81.4033 24.8252ZM88.6348 31.3242H84.6553V24.1855H88.6348V24.9229H85.4854V27.2227H88.4443V27.9551H85.4854V30.582H88.6348V31.3242Z" fill="#091432"/>
<path d="M191.961 31.3242H187.981V24.1855H191.961V24.9229H188.812V27.2227H191.771V27.9551H188.812V30.582H191.961V31.3242ZM198.299 31.3242H197.356L195.438 28.1846L193.484 31.3242H192.605L194.979 27.5938L192.767 24.1855H193.685L195.457 27.0127L197.244 24.1855H198.128L195.916 27.5645L198.299 31.3242ZM203.807 31.3242L202.918 29.0537H200.057L199.178 31.3242H198.338L201.16 24.1562H201.858L204.666 31.3242H203.807ZM202.659 28.3066L201.829 26.0947C201.722 25.8148 201.611 25.4714 201.497 25.0645C201.425 25.377 201.323 25.7204 201.189 26.0947L200.35 28.3066H202.659ZM205.647 24.1855H207.664C208.611 24.1855 209.297 24.3271 209.72 24.6104C210.143 24.8936 210.354 25.3411 210.354 25.9531C210.354 26.3763 210.236 26.7262 209.998 27.0029C209.764 27.2764 209.42 27.4538 208.968 27.5352V27.584C210.052 27.7695 210.594 28.3392 210.594 29.293C210.594 29.931 210.377 30.429 209.944 30.7871C209.515 31.1452 208.912 31.3242 208.138 31.3242H205.647V24.1855ZM206.478 27.2422H207.845C208.431 27.2422 208.852 27.151 209.109 26.9688C209.367 26.7832 209.495 26.4723 209.495 26.0361C209.495 25.6357 209.352 25.3477 209.065 25.1719C208.779 24.9928 208.323 24.9033 207.698 24.9033H206.478V27.2422ZM206.478 27.9453V30.6162H207.967C208.543 30.6162 208.976 30.5055 209.266 30.2842C209.559 30.0596 209.705 29.7096 209.705 29.2344C209.705 28.7917 209.555 28.4661 209.256 28.2578C208.96 28.0495 208.507 27.9453 207.898 27.9453H206.478ZM213.948 27.7549L215.853 24.1855H216.751L214.368 28.5557V31.3242H213.528V28.5947L211.15 24.1855H212.059L213.948 27.7549ZM219.935 31.3242H219.104V24.9229H216.844V24.1855H222.195V24.9229H219.935V31.3242ZM227.254 31.3242H223.274V24.1855H227.254V24.9229H224.104V27.2227H227.063V27.9551H224.104V30.582H227.254V31.3242ZM235.965 26.2656C235.965 26.9883 235.717 27.5449 235.223 27.9355C234.731 28.3229 234.026 28.5166 233.108 28.5166H232.269V31.3242H231.438V24.1855H233.289C235.073 24.1855 235.965 24.8789 235.965 26.2656ZM232.269 27.8037H233.016C233.751 27.8037 234.284 27.6849 234.612 27.4473C234.941 27.2096 235.105 26.8288 235.105 26.3047C235.105 25.8327 234.951 25.4811 234.642 25.25C234.332 25.0189 233.851 24.9033 233.196 24.9033H232.269V27.8037ZM237.464 31.3242V24.1855H238.294V30.5723H241.443V31.3242H237.464ZM247.146 31.3242L246.258 29.0537H243.396L242.518 31.3242H241.678L244.5 24.1562H245.198L248.006 31.3242H247.146ZM245.999 28.3066L245.169 26.0947C245.062 25.8148 244.951 25.4714 244.837 25.0645C244.765 25.377 244.663 25.7204 244.529 26.0947L243.689 28.3066H245.999ZM251.185 31.3242H250.354V24.9229H248.094V24.1855H253.445V24.9229H251.185V31.3242ZM255.354 31.3242H254.524V24.1855H258.504V24.9229H255.354V27.5352H258.313V28.2725H255.354V31.3242ZM265.887 27.7451C265.887 28.8877 265.597 29.7861 265.018 30.4404C264.441 31.0947 263.639 31.4219 262.61 31.4219C261.559 31.4219 260.747 31.1012 260.174 30.46C259.604 29.8154 259.319 28.9072 259.319 27.7354C259.319 26.5732 259.606 25.6732 260.179 25.0352C260.752 24.3939 261.565 24.0732 262.62 24.0732C263.646 24.0732 264.446 24.3988 265.022 25.0498C265.599 25.7008 265.887 26.5993 265.887 27.7451ZM260.198 27.7451C260.198 28.7119 260.403 29.446 260.813 29.9473C261.227 30.4453 261.826 30.6943 262.61 30.6943C263.401 30.6943 263.999 30.4453 264.402 29.9473C264.806 29.4492 265.008 28.7152 265.008 27.7451C265.008 26.7848 264.806 26.0573 264.402 25.5625C264.002 25.0645 263.408 24.8154 262.62 24.8154C261.829 24.8154 261.227 25.0661 260.813 25.5674C260.403 26.0654 260.198 26.7913 260.198 27.7451ZM268.313 28.3555V31.3242H267.483V24.1855H269.441C270.317 24.1855 270.963 24.3532 271.38 24.6885C271.8 25.0238 272.01 25.5283 272.01 26.2021C272.01 27.1462 271.531 27.7842 270.574 28.1162L272.513 31.3242H271.531L269.803 28.3555H268.313ZM268.313 27.6426H269.451C270.037 27.6426 270.467 27.527 270.74 27.2959C271.014 27.0615 271.15 26.7116 271.15 26.2461C271.15 25.7741 271.01 25.4339 270.73 25.2256C270.454 25.0173 270.008 24.9131 269.393 24.9131H268.313V27.6426ZM276.824 31.3242L274.402 24.9961H274.363C274.409 25.4974 274.432 26.0931 274.432 26.7832V31.3242H273.665V24.1855H274.915L277.176 30.0742H277.215L279.495 24.1855H280.735V31.3242H279.905V26.7246C279.905 26.1973 279.928 25.6243 279.974 25.0059H279.935L277.493 31.3242H276.824Z" fill="#091432"/>
<path d="M356.961 31H352.981V23.8613H356.961V24.5986H353.812V26.8984H356.771V27.6309H353.812V30.2578H356.961V31ZM363.299 31H362.356L360.438 27.8604L358.484 31H357.605L359.979 27.2695L357.767 23.8613H358.685L360.457 26.6885L362.244 23.8613H363.128L360.916 27.2402L363.299 31ZM366.517 31H365.687V24.5986H363.426V23.8613H368.777V24.5986H366.517V31ZM373.836 31H369.856V23.8613H373.836V24.5986H370.687V26.8984H373.646V27.6309H370.687V30.2578H373.836V31ZM376.253 28.0312V31H375.423V23.8613H377.381C378.257 23.8613 378.903 24.029 379.319 24.3643C379.739 24.6995 379.949 25.2041 379.949 25.8779C379.949 26.8219 379.471 27.46 378.514 27.792L380.452 31H379.471L377.742 28.0312H376.253ZM376.253 27.3184H377.391C377.977 27.3184 378.406 27.2028 378.68 26.9717C378.953 26.7373 379.09 26.3874 379.09 25.9219C379.09 25.4499 378.95 25.1097 378.67 24.9014C378.393 24.693 377.947 24.5889 377.332 24.5889H376.253V27.3184ZM387.181 31H386.233L382.332 25.0088H382.293C382.345 25.7119 382.371 26.3564 382.371 26.9424V31H381.604V23.8613H382.542L386.434 29.8281H386.473C386.466 29.7402 386.451 29.4587 386.429 28.9834C386.406 28.5049 386.398 28.1631 386.404 27.958V23.8613H387.181V31ZM393.631 31L392.742 28.7295H389.881L389.002 31H388.162L390.984 23.832H391.683L394.49 31H393.631ZM392.483 27.9824L391.653 25.7705C391.546 25.4906 391.435 25.1471 391.321 24.7402C391.25 25.0527 391.147 25.3962 391.014 25.7705L390.174 27.9824H392.483ZM395.472 31V23.8613H396.302V30.248H399.451V31H395.472ZM407.244 31H403.265V23.8613H407.244V24.5986H404.095V26.8984H407.054V27.6309H404.095V30.2578H407.244V31ZM408.831 31V23.8613H409.661V30.248H412.811V31H408.831ZM418.006 31H414.026V23.8613H418.006V24.5986H414.856V26.8984H417.815V27.6309H414.856V30.2578H418.006V31ZM422.752 31L420.33 24.6719H420.291C420.337 25.1732 420.359 25.7689 420.359 26.459V31H419.593V23.8613H420.843L423.104 29.75H423.143L425.423 23.8613H426.663V31H425.833V26.4004C425.833 25.873 425.856 25.3001 425.901 24.6816H425.862L423.421 31H422.752ZM432.605 31H428.626V23.8613H432.605V24.5986H429.456V26.8984H432.415V27.6309H429.456V30.2578H432.605V31ZM439.769 31H438.821L434.92 25.0088H434.881C434.933 25.7119 434.959 26.3564 434.959 26.9424V31H434.192V23.8613H435.13L439.021 29.8281H439.061C439.054 29.7402 439.039 29.4587 439.017 28.9834C438.994 28.5049 438.986 28.1631 438.992 27.958V23.8613H439.769V31ZM443.929 31H443.099V24.5986H440.838V23.8613H446.189V24.5986H443.929V31ZM451.297 29.1006C451.297 29.7288 451.069 30.2188 450.613 30.5703C450.158 30.9219 449.539 31.0977 448.758 31.0977C447.911 31.0977 447.26 30.9886 446.805 30.7705V29.9697C447.098 30.0934 447.417 30.1911 447.762 30.2627C448.107 30.3343 448.449 30.3701 448.787 30.3701C449.34 30.3701 449.757 30.266 450.037 30.0576C450.317 29.846 450.457 29.5531 450.457 29.1787C450.457 28.9313 450.407 28.7295 450.306 28.5732C450.208 28.4137 450.042 28.2673 449.808 28.1338C449.576 28.0003 449.223 27.849 448.748 27.6797C448.084 27.4421 447.609 27.1605 447.322 26.835C447.039 26.5094 446.897 26.0846 446.897 25.5605C446.897 25.0104 447.104 24.5726 447.518 24.2471C447.931 23.9215 448.478 23.7588 449.158 23.7588C449.868 23.7588 450.521 23.889 451.116 24.1494L450.857 24.8721C450.268 24.6247 449.695 24.501 449.139 24.501C448.699 24.501 448.356 24.5954 448.108 24.7842C447.861 24.973 447.737 25.235 447.737 25.5703C447.737 25.8177 447.783 26.0212 447.874 26.1807C447.965 26.3369 448.118 26.4818 448.333 26.6152C448.551 26.7454 448.883 26.8903 449.329 27.0498C450.078 27.3167 450.592 27.6032 450.872 27.9092C451.155 28.2152 451.297 28.6123 451.297 29.1006Z" fill="#091432"/>
</svg>
