<svg width="27" height="27" viewBox="0 0 27 27" fill="none" xmlns="http://www.w3.org/2000/svg">
<path d="M13.5 4.67871C7.54474 4.67871 2.41208 8.1893 0.0543099 13.2553C-0.0181033 13.4088 -0.0181033 13.5884 0.0543099 13.7448C2.41208 18.8108 7.54476 22.3215 13.5 22.3215C19.4552 22.3215 24.5879 18.8109 26.9457 13.7448C27.0181 13.5913 27.0181 13.4117 26.9457 13.2553C24.5879 8.1893 19.4553 4.67871 13.5 4.67871ZM13.5 19.5872C10.1371 19.5872 7.41439 16.8615 7.41439 13.5015C7.41439 10.1387 10.14 7.41593 13.5 7.41593C16.8629 7.41593 19.5856 10.1416 19.5856 13.5015C19.5856 16.8615 16.86 19.5872 13.5 19.5872Z" fill="white"/>
<path d="M13.4993 17.3952C15.651 17.3952 17.3952 15.651 17.3952 13.4993C17.3952 11.3477 15.651 9.60352 13.4993 9.60352C11.3477 9.60352 9.60352 11.3477 9.60352 13.4993C9.60352 15.651 11.3477 17.3952 13.4993 17.3952Z" fill="white"/>
</svg>
