<svg width="270" height="361" viewBox="0 0 270 361" fill="none" xmlns="http://www.w3.org/2000/svg">
  <g clip-path="url(#clip0)">
    <g style="mix-blend-mode:lighten">
      <g style="mix-blend-mode:lighten">
        <path d="M119.577 270.406C120.239 270.406 120.775 269.869 120.775 269.206C120.775 268.543 120.239 268.006 119.577 268.006C118.915 268.006 118.379 268.543 118.379 269.206C118.379 269.869 118.915 270.406 119.577 270.406Z" fill="#8686F2"/>
      </g>
      <g style="mix-blend-mode:lighten">
        <path d="M80.6669 292.89C81.3287 292.89 81.8651 292.353 81.8651 291.69C81.8651 291.027 81.3287 290.49 80.6669 290.49C80.0052 290.49 79.4688 291.027 79.4688 291.69C79.4688 292.353 80.0052 292.89 80.6669 292.89Z" fill="#8686F2"/>
      </g>
      <g style="mix-blend-mode:lighten">
        <path d="M158.487 292.89C159.149 292.89 159.685 292.353 159.685 291.69C159.685 291.027 159.149 290.49 158.487 290.49C157.826 290.49 157.289 291.027 157.289 291.69C157.289 292.353 157.826 292.89 158.487 292.89Z" fill="#8686F2"/>
      </g>
      <g style="mix-blend-mode:lighten">
        <path d="M119.577 315.375C120.239 315.375 120.775 314.837 120.775 314.175C120.775 313.512 120.239 312.975 119.577 312.975C118.915 312.975 118.379 313.512 118.379 314.175C118.379 314.837 118.915 315.375 119.577 315.375Z" fill="#8686F2"/>
      </g>
    </g>
    <g style="mix-blend-mode:lighten">
      <g style="mix-blend-mode:lighten">
        <path d="M52.9286 231.433C53.5904 231.433 54.1268 230.896 54.1268 230.233C54.1268 229.57 53.5904 229.033 52.9286 229.033C52.2669 229.033 51.7305 229.57 51.7305 230.233C51.7305 230.896 52.2669 231.433 52.9286 231.433Z" fill="#8686F2"/>
      </g>
      <g style="mix-blend-mode:lighten">
        <path d="M14.0185 253.918C14.6802 253.918 15.2167 253.38 15.2167 252.718C15.2167 252.055 14.6802 251.518 14.0185 251.518C13.3568 251.518 12.8203 252.055 12.8203 252.718C12.8203 253.38 13.3568 253.918 14.0185 253.918Z" fill="#8686F2"/>
      </g>
      <g style="mix-blend-mode:lighten">
        <path d="M91.8388 253.918C92.5006 253.918 93.037 253.38 93.037 252.718C93.037 252.055 92.5006 251.518 91.8388 251.518C91.1771 251.518 90.6406 252.055 90.6406 252.718C90.6406 253.38 91.1771 253.918 91.8388 253.918Z" fill="#8686F2"/>
      </g>
      <g style="mix-blend-mode:lighten">
        <path d="M52.9286 276.402C53.5904 276.402 54.1268 275.865 54.1268 275.202C54.1268 274.539 53.5904 274.002 52.9286 274.002C52.2669 274.002 51.7305 274.539 51.7305 275.202C51.7305 275.865 52.2669 276.402 52.9286 276.402Z" fill="#8686F2"/>
      </g>
    </g>
    <g style="mix-blend-mode:lighten">
      <g style="mix-blend-mode:lighten">
        <path d="M185.808 308.29C186.469 308.29 187.006 307.752 187.006 307.09C187.006 306.427 186.469 305.89 185.808 305.89C185.146 305.89 184.609 306.427 184.609 307.09C184.609 307.752 185.146 308.29 185.808 308.29Z" fill="#8686F2"/>
      </g>
      <g style="mix-blend-mode:lighten">
        <path d="M146.897 330.774C147.559 330.774 148.096 330.237 148.096 329.574C148.096 328.911 147.559 328.374 146.897 328.374C146.236 328.374 145.699 328.911 145.699 329.574C145.699 330.237 146.236 330.774 146.897 330.774Z" fill="#8686F2"/>
      </g>
      <g style="mix-blend-mode:lighten">
        <path d="M224.718 330.774C225.379 330.774 225.916 330.237 225.916 329.574C225.916 328.911 225.379 328.374 224.718 328.374C224.056 328.374 223.52 328.911 223.52 329.574C223.52 330.237 224.056 330.774 224.718 330.774Z" fill="#8686F2"/>
      </g>
      <g style="mix-blend-mode:lighten">
        <path d="M185.808 353.258C186.469 353.258 187.006 352.721 187.006 352.058C187.006 351.396 186.469 350.858 185.808 350.858C185.146 350.858 184.609 351.396 184.609 352.058C184.609 352.721 185.146 353.258 185.808 353.258Z" fill="#8686F2"/>
      </g>
    </g>
    <g style="mix-blend-mode:lighten">
      <path d="M52.9196 283.206L0 252.627L52.9196 221.998L105.839 252.587L52.9196 283.206ZM1.49773 252.627L52.9196 282.346L104.352 252.627L52.9196 222.907L1.49773 252.627Z" fill="#8686F2"/>
    </g>
    <path d="M101.855 241.255V231.372L52.9296 258.383L4.00391 231.372V241.255L52.9296 269.516L101.855 241.255Z" fill="url(#paint0_linear)"/>
    <path d="M52.9296 259.642L4.00391 231.372L52.9296 203.102L101.855 231.372L52.9296 259.642Z" fill="url(#paint1_linear)"/>
    <path opacity="0.5" d="M52.9296 258.823L4.71283 230.962L4.00391 231.372L52.9296 259.642L101.855 231.372L101.146 230.962L52.9296 258.823Z" fill="white"/>
    <path d="M52.9316 248.849L22.6875 231.371L52.9316 213.894L83.1756 231.371L52.9316 248.849Z" fill="#0F054C"/>
    <path opacity="0.5" d="M52.9316 248.849L22.6875 231.371L52.9316 213.894L83.1756 231.371L52.9316 248.849Z" fill="url(#paint2_linear)"/>
    <path opacity="0.5" d="M52.9297 189.451L83.1738 206.919V231.372L52.9297 213.894V189.451Z" fill="url(#paint3_linear)"/>
    <path opacity="0.5" d="M52.9316 213.894L22.6875 231.372V206.919L52.9316 189.451V213.894Z" fill="url(#paint4_linear)"/>
    <path opacity="0.5" d="M52.9316 224.397L22.6875 206.919L52.9316 189.451L83.1756 206.919L52.9316 224.397Z" fill="url(#paint5_linear)"/>
    <path opacity="0.5" d="M52.9297 224.397V248.85L83.1738 231.372V206.919L52.9297 224.397Z" fill="url(#paint6_linear)"/>
    <path opacity="0.5" d="M22.6875 206.919V231.372L52.9316 248.85V224.397L22.6875 206.919Z" fill="url(#paint7_linear)"/>
    <g style="mix-blend-mode:lighten">
      <path d="M171.277 246.5L119.758 276.27L120.107 276.875L171.627 247.106L171.277 246.5Z" fill="#8686F2"/>
    </g>
    <g style="mix-blend-mode:lighten">
      <g style="mix-blend-mode:lighten">
        <path d="M198.956 207.799C199.618 207.799 200.154 207.262 200.154 206.599C200.154 205.937 199.618 205.399 198.956 205.399C198.294 205.399 197.758 205.937 197.758 206.599C197.758 207.262 198.294 207.799 198.956 207.799Z" fill="#8686F2"/>
      </g>
      <g style="mix-blend-mode:lighten">
        <path d="M160.046 230.284C160.708 230.284 161.244 229.747 161.244 229.084C161.244 228.421 160.708 227.884 160.046 227.884C159.384 227.884 158.848 228.421 158.848 229.084C158.848 229.747 159.384 230.284 160.046 230.284Z" fill="#8686F2"/>
      </g>
      <g style="mix-blend-mode:lighten">
        <path d="M237.866 230.284C238.528 230.284 239.064 229.747 239.064 229.084C239.064 228.421 238.528 227.884 237.866 227.884C237.204 227.884 236.668 228.421 236.668 229.084C236.668 229.747 237.204 230.284 237.866 230.284Z" fill="#8686F2"/>
      </g>
      <g style="mix-blend-mode:lighten">
        <path d="M198.956 252.768C199.618 252.768 200.154 252.231 200.154 251.568C200.154 250.905 199.618 250.368 198.956 250.368C198.294 250.368 197.758 250.905 197.758 251.568C197.758 252.231 198.294 252.768 198.956 252.768Z" fill="#8686F2"/>
      </g>
    </g>
    <g style="mix-blend-mode:lighten">
      <path d="M119.58 321.679L66.6602 291.1L119.58 260.512L172.499 291.1L119.58 321.679ZM68.1479 291.1L119.58 320.82L171.012 291.1L119.58 261.381L68.1479 291.1Z" fill="#8686F2"/>
    </g>
    <path d="M168.505 279.728V269.845L119.58 296.856L70.6641 269.845V279.728L119.58 307.988L168.505 279.728Z" fill="url(#paint8_linear)"/>
    <path d="M119.58 298.115L70.6641 269.845L119.58 241.574L168.505 269.845L119.58 298.115Z" fill="url(#paint9_linear)"/>
    <path opacity="0.5" d="M119.58 297.296L71.363 269.436L70.6641 269.845L119.58 298.116L168.505 269.845L167.797 269.436L119.58 297.296Z" fill="white"/>
    <path d="M119.58 287.323L89.3359 269.845L119.58 252.367L149.824 269.845L119.58 287.323Z" fill="#0F054C"/>
    <path opacity="0.5" d="M119.58 287.323L89.3359 269.845L119.58 252.367L149.824 269.845L119.58 287.323Z" fill="url(#paint10_linear)"/>
    <path opacity="0.5" d="M119.578 227.924L149.822 245.392V269.845L119.578 252.367V227.924Z" fill="url(#paint11_linear)"/>
    <path opacity="0.5" d="M119.58 252.367L89.3359 269.845V245.392L119.58 227.924V252.367Z" fill="url(#paint12_linear)"/>
    <path opacity="0.5" d="M119.58 262.87L89.3359 245.392L119.58 227.924L149.824 245.392L119.58 262.87Z" fill="url(#paint13_linear)"/>
    <path opacity="0.5" d="M119.578 262.869V287.322L149.822 269.845V245.392L119.578 262.869Z" fill="url(#paint14_linear)"/>
    <path opacity="0.5" d="M89.3359 245.392V269.845L119.58 287.322V262.869L89.3359 245.392Z" fill="url(#paint15_linear)"/>
    <g style="mix-blend-mode:lighten">
      <path d="M186.228 360.152L133.309 329.573L186.228 298.984L239.148 329.573L186.228 360.152ZM134.796 329.573L186.228 359.292L237.64 329.573L186.208 299.854L134.796 329.573Z" fill="#8686F2"/>
    </g>
    <path d="M235.152 318.201V308.318L186.226 335.33L137.301 308.318V318.201L186.226 346.462L235.152 318.201Z" fill="url(#paint16_linear)"/>
    <path d="M186.226 336.589L137.301 308.318L186.226 280.048L235.152 308.318L186.226 336.589Z" fill="url(#paint17_linear)"/>
    <path opacity="0.5" d="M186.226 335.769L138.01 307.908L137.301 308.318L186.226 336.588L235.152 308.318L234.443 307.908L186.226 335.769Z" fill="white"/>
    <path d="M186.228 325.796L155.984 308.319L186.228 290.841L216.473 308.319L186.228 325.796Z" fill="#0F054C"/>
    <path opacity="0.5" d="M186.228 325.796L155.984 308.319L186.228 290.841L216.473 308.319L186.228 325.796Z" fill="url(#paint18_linear)"/>
    <path opacity="0.5" d="M186.227 266.397L216.471 283.865V308.318L186.227 290.841V266.397Z" fill="url(#paint19_linear)"/>
    <path opacity="0.5" d="M186.228 290.841L155.984 308.318V283.865L186.228 266.397V290.841Z" fill="url(#paint20_linear)"/>
    <path opacity="0.5" d="M186.228 301.343L155.984 283.865L186.228 266.397L216.473 283.865L186.228 301.343Z" fill="url(#paint21_linear)"/>
    <path opacity="0.5" d="M186.227 301.343V325.796L216.471 308.318V283.865L186.227 301.343Z" fill="url(#paint22_linear)"/>
    <path opacity="0.5" d="M155.984 283.865V308.318L186.228 325.796V301.343L155.984 283.865Z" fill="url(#paint23_linear)"/>
    <g style="mix-blend-mode:lighten">
      <path d="M198.946 262.32C198.13 262.341 197.322 262.152 196.6 261.77L142.881 230.732C142.591 230.585 142.346 230.362 142.17 230.088C141.995 229.814 141.896 229.498 141.883 229.173C141.925 228.755 142.077 228.356 142.322 228.016C142.567 227.676 142.898 227.406 143.281 227.234L196.27 196.606C197.085 196.151 197.995 195.895 198.927 195.861C199.859 195.826 200.786 196.013 201.632 196.406L255.351 227.444C255.641 227.592 255.886 227.814 256.061 228.088C256.237 228.362 256.336 228.678 256.349 229.003C256.305 229.42 256.153 229.818 255.907 230.158C255.662 230.498 255.333 230.768 254.951 230.942L201.952 261.561C201.031 262.066 199.996 262.327 198.946 262.32ZM199.246 196.546C198.315 196.541 197.398 196.771 196.58 197.215L143.59 227.834C142.921 228.224 142.532 228.713 142.532 229.173C142.554 229.379 142.63 229.576 142.753 229.742C142.876 229.909 143.041 230.04 143.231 230.122L196.949 261.161C197.686 261.495 198.491 261.651 199.299 261.616C200.108 261.581 200.896 261.357 201.602 260.961L254.612 230.332C254.877 230.211 255.108 230.025 255.282 229.791C255.457 229.557 255.569 229.282 255.61 228.993C255.597 228.78 255.525 228.574 255.404 228.398C255.283 228.222 255.116 228.082 254.921 227.994L201.243 197.015C200.629 196.687 199.941 196.526 199.246 196.546Z" fill="#8686F2"/>
    </g>
    <path d="M198.956 82.2553L127.914 41.2038L198.956 0.152344L269.998 41.2038L198.956 82.2553Z" fill="#BCBEFF"/>
    <path d="M198.956 239.826L127.914 198.774L198.956 157.723L269.998 198.774L198.956 239.826Z" fill="white"/>
    <path d="M269.999 41.2041V198.775L198.957 239.826V82.2556L269.999 41.2041Z" fill="url(#paint24_linear)"/>
    <path d="M127.914 41.2041V198.775L198.956 239.826V82.2556L127.914 41.2041Z" fill="#24126A"/>
    <g opacity="0.51">
      <path opacity="0.51" d="M132.727 51.6562V193.288L194.143 228.783V87.1416L132.727 51.6562Z" fill="#453C9E"/>
    </g>
    <path d="M259.348 79.2773V83.4345L209.613 112.174V108.007L259.348 79.2773Z" fill="#453C9E"/>
    <path d="M259.348 96.8848V101.052L209.613 129.782V125.625L259.348 96.8848Z" fill="#453C9E"/>
    <path d="M259.348 114.493V118.66L209.613 147.39V143.233L259.348 114.493Z" fill="#453C9E"/>
    <path d="M259.348 132.101V136.268L209.613 165.008V160.841L259.348 132.101Z" fill="#453C9E"/>
    <path d="M259.348 149.719V153.886L209.613 182.616V178.449L259.348 149.719Z" fill="#453C9E"/>
    <path d="M259.348 167.326V171.493L209.613 200.223V196.056L259.348 167.326Z" fill="#453C9E"/>
    <path d="M198.956 80.9161L129.062 40.5342L127.914 41.2037L198.956 82.2552L269.998 41.2037L268.84 40.5342L198.956 80.9161Z" fill="white"/>
    <path opacity="0.78" d="M198.956 71.4625H180.285L127.914 41.2035L184.908 8.27637H198.956V71.4625Z" fill="url(#paint25_linear)"/>
    <path d="M198.958 67.845L147.406 38.0557L198.958 8.27637L250.5 38.0557L198.958 67.845Z" fill="url(#paint26_linear)"/>
    <path d="M198.958 66.5065L148.564 37.3867L147.406 38.0563L198.958 67.8456L250.5 38.0563L249.351 37.3967L198.958 66.5065Z" fill="white"/>
    <path d="M250.499 38.0557V41.6831L198.957 71.4625V67.845L250.499 38.0557Z" fill="url(#paint27_linear)"/>
    <path d="M147.406 38.0557V41.6831L198.958 71.4625V67.845L147.406 38.0557Z" fill="url(#paint28_linear)"/>
    <path d="M178.97 38.5354L176.684 37.2163L176.873 36.1471L198.051 23.8057L200.987 25.2147L200.438 26.1241L178.97 38.5354Z" fill="#3F21D3"/>
    <path d="M198.16 24.8053L200.437 26.1243L201.914 25.2749L198.16 23.1064L175.215 36.3672L176.683 37.2166L198.16 24.8053Z" fill="url(#paint29_linear)"/>
    <path d="M185.896 42.5225L183.609 41.2034L183.799 40.1342L204.977 27.8027L207.912 29.2018L207.373 30.1211L185.896 42.5225Z" fill="#3F21D3"/>
    <path d="M205.09 28.8023L207.376 30.1214L208.844 29.272L205.09 27.1035L182.145 40.3543L183.612 41.2137L205.09 28.8023Z" fill="url(#paint30_linear)"/>
    <path d="M192.826 46.5198L190.539 45.2007L190.729 44.1315L211.907 31.79L214.842 33.1991L214.303 34.1084L192.826 46.5198Z" fill="#3F21D3"/>
    <path d="M212.019 32.7896L214.306 34.1087L215.774 33.2593L212.019 31.0908L189.074 44.3516L190.542 45.201L212.019 32.7896Z" fill="url(#paint31_linear)"/>
    <path d="M199.755 50.5069L197.469 49.1878L197.658 48.1185L218.836 35.7871L221.772 37.1861L221.223 38.1055L199.755 50.5069Z" fill="#3F21D3"/>
    <path d="M218.949 36.7867L221.226 38.1058L222.703 37.2464L218.949 35.0879L196.004 48.3387L197.482 49.1881L218.949 36.7867Z" fill="url(#paint32_linear)"/>
    <g opacity="0.51">
      <path opacity="0.51" d="M127.914 173.872L198.956 130.942V82.2556L127.914 41.2041V173.872Z" fill="#453C9E"/>
    </g>
    <path d="M196.144 89.3402C196.091 88.3591 195.807 87.4044 195.316 86.5535C194.825 85.7027 194.141 84.9798 193.318 84.4436C193.033 84.2369 192.697 84.1095 192.347 84.0744C191.996 84.0393 191.642 84.0977 191.321 84.2437L189.324 85.4229H190.562C190.521 85.6235 190.501 85.8278 190.502 86.0325C190.555 87.0136 190.839 87.9684 191.33 88.8192C191.821 89.67 192.505 90.3929 193.328 90.9291C193.522 91.0409 193.726 91.1346 193.937 91.2089L193.358 92.2882L195.355 91.139C195.63 90.9325 195.847 90.6584 195.986 90.3433C196.124 90.0281 196.178 89.6826 196.144 89.3402Z" fill="url(#paint33_linear)"/>
    <path d="M194.124 90.5195C194.124 92.3183 192.866 93.0578 191.298 92.1484C190.476 91.6122 189.791 90.8893 189.3 90.0385C188.809 89.1877 188.526 88.2329 188.473 87.2518C188.473 85.453 189.741 84.7136 191.298 85.6229C192.123 86.1574 192.809 86.8798 193.3 87.731C193.791 88.5822 194.073 89.5379 194.124 90.5195Z" fill="url(#paint34_linear)"/>
    <path d="M192.926 89.8305C192.926 90.8298 192.197 91.2795 191.299 90.7699C190.832 90.4547 190.446 90.0349 190.17 89.5439C189.895 89.053 189.737 88.5044 189.711 87.9418C189.711 86.9425 190.44 86.4929 191.338 87.0025C191.805 87.3177 192.191 87.7375 192.467 88.2284C192.742 88.7194 192.9 89.268 192.926 89.8305Z" fill="#3F21D3"/>
    <path d="M136.562 52.6954C136.508 51.7145 136.224 50.7601 135.733 49.9094C135.242 49.0587 134.558 48.3356 133.736 47.7988C133.45 47.5937 133.114 47.4681 132.763 47.4347C132.412 47.4014 132.059 47.4615 131.739 47.609L129.742 48.7782H130.98C130.964 48.9843 130.964 49.1915 130.98 49.3977C131.032 50.379 131.316 51.3341 131.807 52.185C132.298 53.036 132.983 53.7587 133.806 54.2943C133.996 54.4053 134.196 54.4957 134.405 54.5641L133.796 55.6834L135.793 54.5342C136.071 54.3218 136.288 54.0402 136.423 53.7176C136.558 53.3949 136.606 53.0425 136.562 52.6954Z" fill="url(#paint35_linear)"/>
    <path d="M134.546 53.8752C134.546 55.684 133.278 56.4135 131.72 55.5141C130.898 54.9773 130.214 54.2543 129.723 53.4036C129.232 52.5529 128.948 51.5984 128.895 50.6175C128.895 48.8088 130.163 48.0793 131.72 48.9786C132.542 49.5154 133.227 50.2385 133.717 51.0892C134.208 51.9399 134.492 52.8943 134.546 53.8752Z" fill="url(#paint36_linear)"/>
    <path d="M133.349 53.1852C133.349 54.1846 132.62 54.6442 131.721 54.1246C131.248 53.816 130.854 53.4 130.571 52.9103C130.288 52.4207 130.125 51.8712 130.094 51.3066C130.094 50.3072 130.823 49.8476 131.721 50.3672C132.195 50.6758 132.589 51.0918 132.872 51.5815C133.154 52.0711 133.318 52.6206 133.349 53.1852Z" fill="#3F21D3"/>
    <path d="M196.144 230.462C196.09 229.48 195.806 228.524 195.315 227.672C194.825 226.82 194.14 226.095 193.318 225.556C193.032 225.351 192.696 225.225 192.345 225.192C191.994 225.158 191.641 225.218 191.321 225.366L189.324 226.535L190.562 226.585C190.521 226.785 190.501 226.99 190.502 227.195C190.556 228.175 190.84 229.13 191.331 229.981C191.822 230.831 192.506 231.554 193.328 232.091C193.52 232.204 193.725 232.295 193.937 232.361L193.358 233.44L195.355 232.301C195.636 232.091 195.857 231.81 195.996 231.488C196.134 231.165 196.185 230.811 196.144 230.462Z" fill="url(#paint37_linear)"/>
    <path d="M194.124 231.642C194.124 233.441 192.866 234.17 191.298 233.271C190.476 232.734 189.792 232.011 189.301 231.16C188.81 230.31 188.526 229.355 188.473 228.374C188.473 226.566 189.741 225.836 191.298 226.735C192.122 227.273 192.807 227.998 193.298 228.85C193.789 229.703 194.072 230.659 194.124 231.642Z" fill="url(#paint38_linear)"/>
    <path d="M192.927 230.992C192.927 231.991 192.198 232.451 191.299 231.931C190.826 231.623 190.432 231.207 190.149 230.717C189.866 230.227 189.703 229.678 189.672 229.113C189.672 228.114 190.401 227.654 191.299 228.174C191.773 228.482 192.167 228.898 192.45 229.388C192.733 229.878 192.896 230.427 192.927 230.992Z" fill="#3F21D3"/>
    <path d="M136.562 193.818C136.508 192.837 136.224 191.882 135.733 191.031C135.242 190.181 134.558 189.458 133.736 188.921C133.45 188.716 133.114 188.59 132.763 188.557C132.412 188.523 132.059 188.584 131.739 188.731L129.742 189.9H130.98C130.964 190.103 130.964 190.307 130.98 190.51C131.033 191.492 131.316 192.449 131.807 193.301C132.298 194.154 132.983 194.879 133.806 195.416C133.996 195.527 134.196 195.618 134.405 195.686L133.836 196.765L135.833 195.616C136.097 195.403 136.303 195.126 136.43 194.811C136.558 194.497 136.603 194.155 136.562 193.818Z" fill="url(#paint39_linear)"/>
    <path d="M134.546 195.017C134.546 196.826 133.278 197.555 131.72 196.656C130.898 196.117 130.214 195.392 129.723 194.54C129.232 193.687 128.948 192.732 128.895 191.749C128.895 189.951 130.163 189.221 131.72 190.12C132.542 190.657 133.227 191.38 133.717 192.231C134.208 193.082 134.492 194.036 134.546 195.017Z" fill="url(#paint40_linear)"/>
    <path d="M133.349 194.307C133.349 195.307 132.62 195.766 131.721 195.247C131.248 194.938 130.854 194.522 130.571 194.032C130.288 193.543 130.125 192.993 130.094 192.429C130.094 191.429 130.823 190.97 131.721 191.489C132.195 191.798 132.589 192.214 132.872 192.704C133.154 193.193 133.318 193.743 133.349 194.307Z" fill="#3F21D3"/>
    <path d="M158.428 119.289L150.68 114.812V113.104L158.428 117.58V119.289Z" fill="#42E8E0"/>
    <path opacity="0.3" d="M162.395 121.578L159.609 119.969V118.271L162.395 119.879V121.578Z" fill="#42E8E0"/>
    <path d="M165.479 123.359L163.582 122.269V120.559L165.479 121.659V123.359Z" fill="#42E8E0"/>
    <path d="M154.903 121.138L150.68 118.7V117.001L154.903 119.439V121.138Z" fill="#42E8E0"/>
    <path d="M161.254 124.816L156.082 121.818V120.119L161.254 123.107V124.816Z" fill="#42E8E0"/>
    <path d="M164.329 126.597L162.441 125.497V123.797L164.329 124.887V126.597Z" fill="#42E8E0"/>
    <path d="M167.264 128.285L165.367 127.185V125.485L167.264 126.585V128.285Z" fill="#42E8E0"/>
    <path d="M153.735 124.356L150.68 122.587V120.889L153.735 122.647V124.356Z" fill="#42E8E0"/>
    <path d="M155.962 125.637L154.914 125.037V123.337L155.962 123.937V125.637Z" fill="#42E8E0"/>
    <path d="M159.038 127.416L157.141 126.326V124.626L159.038 125.716V127.416Z" fill="#42E8E0"/>
    <path opacity="0.3" d="M161.953 132.99L150.68 126.474V124.775L161.953 131.291V132.99Z" fill="#42E8E0"/>
    <path d="M165.919 135.288L163.133 133.67V131.971L165.919 133.58V135.288Z" fill="#42E8E0"/>
    <path d="M153.735 132.131L150.68 130.362V128.663L153.735 130.432V132.131Z" fill="#42E8E0"/>
    <path d="M160.895 136.268L154.914 132.81V131.111L160.895 134.569V136.268Z" fill="#42E8E0"/>
    <path d="M163.979 138.047L162.082 136.957V135.248L163.979 136.348V138.047Z" fill="#42E8E0"/>
    <path opacity="0.3" d="M156.93 137.867L150.68 134.25V132.551L156.93 136.158V137.867Z" fill="#42E8E0"/>
    <path opacity="0.3" d="M162.633 141.155L158.109 138.546V136.848L162.633 139.456V141.155Z" fill="#42E8E0"/>
    <path d="M166.868 143.603L163.812 141.844V140.146L166.868 141.904V143.603Z" fill="#42E8E0"/>
    <path d="M152.786 139.366L150.68 138.147V136.438L152.786 137.657V139.366Z" fill="#42E8E0"/>
    <path d="M156.762 141.654L153.977 140.046V138.347L156.762 139.956V141.654Z" fill="#42E8E0"/>
    <path d="M162.442 144.932L157.949 142.344V140.635L162.442 143.233V144.932Z" fill="#42E8E0"/>
    <path d="M157.14 145.771L150.68 142.034V140.325L157.14 144.063V145.771Z" fill="#42E8E0"/>
    <path opacity="0.3" d="M164.379 149.948L158.328 146.451V144.752L164.379 148.25V149.948Z" fill="#42E8E0"/>
    <path d="M167.467 151.729L165.57 150.639V148.929L167.467 150.029V151.729Z" fill="#42E8E0"/>
    <path d="M170.411 153.437L168.523 152.337V150.638L170.411 151.737V153.437Z" fill="#42E8E0"/>
    <path d="M154.554 148.159L150.68 145.921V144.212L154.554 146.46V148.159Z" fill="#42E8E0"/>
    <path d="M170.75 126.405L176.122 129.513V127.804L170.75 124.706V126.405Z" fill="#42E8E0"/>
    <path opacity="0.3" d="M171.898 130.962L176.122 133.4V131.701L171.898 129.263V130.962Z" fill="#42E8E0"/>
    <path d="M173.066 135.528L176.122 137.287V135.588L173.066 133.819V135.528Z" fill="#42E8E0"/>
    <path d="M171.68 138.606L176.123 141.174V139.475L171.68 136.907V138.606Z" fill="#42E8E0"/>
    <path d="M173.066 143.303L176.122 145.061V143.363L173.066 141.594V143.303Z" fill="#42E8E0"/>
    <path d="M172.25 146.711L176.124 148.949V147.25L172.25 145.012V146.711Z" fill="#42E8E0"/>
    <path d="M174.004 151.617L176.121 152.837V151.138L174.004 149.918V151.617Z" fill="#42E8E0"/>
    <path d="M172.027 154.365L176.121 156.733V155.024L172.027 152.666V154.365Z" fill="#42E8E0"/>
    <path d="M172.25 158.383L176.124 160.621V158.912L172.25 156.674V158.383Z" fill="#42E8E0"/>
    <path d="M157.382 149.791L155.734 148.841V147.141L157.382 148.091V149.791Z" fill="#42E8E0"/>
    <path opacity="0.3" d="M162.275 152.617L158.57 150.478V148.77L162.275 150.918V152.617Z" fill="#42E8E0"/>
    <path d="M165.34 165.697L159.09 162.08V160.381L165.34 163.998V165.697Z" fill="#42E8E0"/>
    <path d="M169.623 168.176L167.156 166.747V165.048L169.623 166.477V168.176Z" fill="#42E8E0"/>
    <path d="M185.47 187.812C185.183 187.806 184.904 187.724 184.661 187.573L141.456 162.59C140.981 162.258 140.59 161.817 140.318 161.305C140.045 160.792 139.898 160.222 139.889 159.642V97.0854C139.863 96.7848 139.919 96.4829 140.048 96.2107C140.178 95.9385 140.378 95.7058 140.628 95.5365C140.849 95.4159 141.098 95.3578 141.35 95.3684C141.601 95.379 141.845 95.4578 142.056 95.5965L185.26 120.579C185.746 120.914 186.143 121.361 186.418 121.884C186.692 122.406 186.837 122.987 186.838 123.577V186.134C186.862 186.434 186.806 186.736 186.676 187.008C186.547 187.28 186.347 187.513 186.099 187.683C185.904 187.779 185.687 187.824 185.47 187.812ZM185.26 186.533C185.293 186.56 185.331 186.581 185.373 186.593C185.414 186.605 185.457 186.608 185.5 186.603C185.5 186.603 185.639 186.443 185.639 186.094V123.537C185.629 123.164 185.534 122.798 185.361 122.467C185.188 122.136 184.942 121.849 184.641 121.628L141.436 96.6457C141.37 96.597 141.288 96.5755 141.207 96.5858C141.207 96.5858 141.067 96.7457 141.067 97.0954V159.652C141.08 160.025 141.176 160.39 141.349 160.72C141.522 161.05 141.767 161.338 142.066 161.561L185.26 186.533Z" fill="#42E8E0"/>
    <path opacity="0.8" d="M52.9316 223.557L23.4064 206.499L22.6875 206.919L52.9316 224.387L83.1756 206.919L82.4567 206.499L52.9316 223.557Z" fill="#42E8E0"/>
    <path opacity="0.8" d="M119.58 262.031L90.0548 244.973L89.3359 245.392L119.58 262.86L149.824 245.392L149.105 244.973L119.58 262.031Z" fill="#42E8E0"/>
    <path opacity="0.8" d="M186.228 300.503L156.703 283.445L155.984 283.865L186.228 301.333L216.473 283.865L215.754 283.445L186.228 300.503Z" fill="#42E8E0"/>
  </g>
  <defs>
    <linearGradient id="paint0_linear" x1="4.00391" y1="250.449" x2="73.728" y2="250.449" gradientUnits="userSpaceOnUse">
      <stop offset="0.25" stop-color="#5761D7"/>
      <stop offset="0.44" stop-color="#6C74DF"/>
      <stop offset="0.82" stop-color="#A2A6F5"/>
      <stop offset="1" stop-color="#BCBEFF"/>
    </linearGradient>
    <linearGradient id="paint1_linear" x1="4.00391" y1="231.372" x2="101.855" y2="231.372" gradientUnits="userSpaceOnUse">
      <stop stop-color="#C0BFF6"/>
      <stop offset="0.29" stop-color="#C5C4F7"/>
      <stop offset="0.64" stop-color="#D3D2F9"/>
      <stop offset="1" stop-color="#E9E9FD"/>
    </linearGradient>
    <linearGradient id="paint2_linear" x1="22.6875" y1="231.371" x2="83.1756" y2="231.371" gradientUnits="userSpaceOnUse">
      <stop stop-color="#42E8E0"/>
      <stop offset="0.15" stop-color="#43E3E0"/>
      <stop offset="0.33" stop-color="#45D5DF"/>
      <stop offset="0.52" stop-color="#49BDDD"/>
      <stop offset="0.72" stop-color="#4E9CDB"/>
      <stop offset="0.93" stop-color="#5472D8"/>
      <stop offset="1" stop-color="#5761D7"/>
    </linearGradient>
    <linearGradient id="paint3_linear" x1="1656.17" y1="9009.61" x2="2572.26" y2="9009.61" gradientUnits="userSpaceOnUse">
      <stop stop-color="#42E8E0"/>
      <stop offset="0.15" stop-color="#43E3E0"/>
      <stop offset="0.33" stop-color="#45D5DF"/>
      <stop offset="0.52" stop-color="#49BDDD"/>
      <stop offset="0.72" stop-color="#4E9CDB"/>
      <stop offset="0.93" stop-color="#5472D8"/>
      <stop offset="1" stop-color="#5761D7"/>
    </linearGradient>
    <linearGradient id="paint4_linear" x1="709.833" y1="9009.61" x2="1625.93" y2="9009.61" gradientUnits="userSpaceOnUse">
      <stop stop-color="#42E8E0"/>
      <stop offset="0.15" stop-color="#43E3E0"/>
      <stop offset="0.33" stop-color="#45D5DF"/>
      <stop offset="0.52" stop-color="#49BDDD"/>
      <stop offset="0.72" stop-color="#4E9CDB"/>
      <stop offset="0.93" stop-color="#5472D8"/>
      <stop offset="1" stop-color="#5761D7"/>
    </linearGradient>
    <linearGradient id="paint5_linear" x1="1396.98" y1="7420.07" x2="5061.35" y2="7420.07" gradientUnits="userSpaceOnUse">
      <stop stop-color="#42E8E0"/>
      <stop offset="0.15" stop-color="#43E3E0"/>
      <stop offset="0.33" stop-color="#45D5DF"/>
      <stop offset="0.52" stop-color="#49BDDD"/>
      <stop offset="0.72" stop-color="#4E9CDB"/>
      <stop offset="0.93" stop-color="#5472D8"/>
      <stop offset="1" stop-color="#5761D7"/>
    </linearGradient>
    <linearGradient id="paint6_linear" x1="1656.17" y1="9762.54" x2="2572.26" y2="9762.54" gradientUnits="userSpaceOnUse">
      <stop stop-color="#42E8E0"/>
      <stop offset="0.15" stop-color="#43E3E0"/>
      <stop offset="0.33" stop-color="#45D5DF"/>
      <stop offset="0.52" stop-color="#49BDDD"/>
      <stop offset="0.72" stop-color="#4E9CDB"/>
      <stop offset="0.93" stop-color="#5472D8"/>
      <stop offset="1" stop-color="#5761D7"/>
    </linearGradient>
    <linearGradient id="paint7_linear" x1="709.833" y1="9762.54" x2="1625.93" y2="9762.54" gradientUnits="userSpaceOnUse">
      <stop stop-color="#42E8E0"/>
      <stop offset="0.15" stop-color="#43E3E0"/>
      <stop offset="0.33" stop-color="#45D5DF"/>
      <stop offset="0.52" stop-color="#49BDDD"/>
      <stop offset="0.72" stop-color="#4E9CDB"/>
      <stop offset="0.93" stop-color="#5472D8"/>
      <stop offset="1" stop-color="#5761D7"/>
    </linearGradient>
    <linearGradient id="paint8_linear" x1="6993.92" y1="11292.2" x2="13826.2" y2="11292.2" gradientUnits="userSpaceOnUse">
      <stop offset="0.25" stop-color="#5761D7"/>
      <stop offset="0.44" stop-color="#6C74DF"/>
      <stop offset="0.82" stop-color="#A2A6F5"/>
      <stop offset="1" stop-color="#BCBEFF"/>
    </linearGradient>
    <linearGradient id="paint9_linear" x1="6993.92" y1="15500.8" x2="16582.4" y2="15500.8" gradientUnits="userSpaceOnUse">
      <stop stop-color="#C0BFF6"/>
      <stop offset="0.29" stop-color="#C5C4F7"/>
      <stop offset="0.64" stop-color="#D3D2F9"/>
      <stop offset="1" stop-color="#E9E9FD"/>
    </linearGradient>
    <linearGradient id="paint10_linear" x1="5501.21" y1="9686.22" x2="9165.58" y2="9686.22" gradientUnits="userSpaceOnUse">
      <stop stop-color="#42E8E0"/>
      <stop offset="0.15" stop-color="#43E3E0"/>
      <stop offset="0.33" stop-color="#45D5DF"/>
      <stop offset="0.52" stop-color="#49BDDD"/>
      <stop offset="0.72" stop-color="#4E9CDB"/>
      <stop offset="0.93" stop-color="#5472D8"/>
      <stop offset="1" stop-color="#5761D7"/>
    </linearGradient>
    <linearGradient id="paint11_linear" x1="3741.61" y1="10662" x2="4657.7" y2="10662" gradientUnits="userSpaceOnUse">
      <stop stop-color="#42E8E0"/>
      <stop offset="0.15" stop-color="#43E3E0"/>
      <stop offset="0.33" stop-color="#45D5DF"/>
      <stop offset="0.52" stop-color="#49BDDD"/>
      <stop offset="0.72" stop-color="#4E9CDB"/>
      <stop offset="0.93" stop-color="#5472D8"/>
      <stop offset="1" stop-color="#5761D7"/>
    </linearGradient>
    <linearGradient id="paint12_linear" x1="2795.27" y1="10662" x2="3711.37" y2="10662" gradientUnits="userSpaceOnUse">
      <stop stop-color="#42E8E0"/>
      <stop offset="0.15" stop-color="#43E3E0"/>
      <stop offset="0.33" stop-color="#45D5DF"/>
      <stop offset="0.52" stop-color="#49BDDD"/>
      <stop offset="0.72" stop-color="#4E9CDB"/>
      <stop offset="0.93" stop-color="#5472D8"/>
      <stop offset="1" stop-color="#5761D7"/>
    </linearGradient>
    <linearGradient id="paint13_linear" x1="5501.21" y1="8803.96" x2="9165.58" y2="8803.96" gradientUnits="userSpaceOnUse">
      <stop stop-color="#42E8E0"/>
      <stop offset="0.15" stop-color="#43E3E0"/>
      <stop offset="0.33" stop-color="#45D5DF"/>
      <stop offset="0.52" stop-color="#49BDDD"/>
      <stop offset="0.72" stop-color="#4E9CDB"/>
      <stop offset="0.93" stop-color="#5472D8"/>
      <stop offset="1" stop-color="#5761D7"/>
    </linearGradient>
    <linearGradient id="paint14_linear" x1="3741.61" y1="11415.4" x2="4657.7" y2="11415.4" gradientUnits="userSpaceOnUse">
      <stop stop-color="#42E8E0"/>
      <stop offset="0.15" stop-color="#43E3E0"/>
      <stop offset="0.33" stop-color="#45D5DF"/>
      <stop offset="0.52" stop-color="#49BDDD"/>
      <stop offset="0.72" stop-color="#4E9CDB"/>
      <stop offset="0.93" stop-color="#5472D8"/>
      <stop offset="1" stop-color="#5761D7"/>
    </linearGradient>
    <linearGradient id="paint15_linear" x1="2795.27" y1="11415.4" x2="3711.37" y2="11415.4" gradientUnits="userSpaceOnUse">
      <stop stop-color="#42E8E0"/>
      <stop offset="0.15" stop-color="#43E3E0"/>
      <stop offset="0.33" stop-color="#45D5DF"/>
      <stop offset="0.52" stop-color="#49BDDD"/>
      <stop offset="0.72" stop-color="#4E9CDB"/>
      <stop offset="0.93" stop-color="#5472D8"/>
      <stop offset="1" stop-color="#5761D7"/>
    </linearGradient>
    <linearGradient id="paint16_linear" x1="13592.8" y1="12799.2" x2="20425.8" y2="12799.2" gradientUnits="userSpaceOnUse">
      <stop offset="0.25" stop-color="#5761D7"/>
      <stop offset="0.44" stop-color="#6C74DF"/>
      <stop offset="0.82" stop-color="#A2A6F5"/>
      <stop offset="1" stop-color="#BCBEFF"/>
    </linearGradient>
    <linearGradient id="paint17_linear" x1="13592.8" y1="17716.1" x2="23182.3" y2="17716.1" gradientUnits="userSpaceOnUse">
      <stop stop-color="#C0BFF6"/>
      <stop offset="0.29" stop-color="#C5C4F7"/>
      <stop offset="0.64" stop-color="#D3D2F9"/>
      <stop offset="1" stop-color="#E9E9FD"/>
    </linearGradient>
    <linearGradient id="paint18_linear" x1="9605.44" y1="11070.5" x2="13269.8" y2="11070.5" gradientUnits="userSpaceOnUse">
      <stop stop-color="#42E8E0"/>
      <stop offset="0.15" stop-color="#43E3E0"/>
      <stop offset="0.33" stop-color="#45D5DF"/>
      <stop offset="0.52" stop-color="#49BDDD"/>
      <stop offset="0.72" stop-color="#4E9CDB"/>
      <stop offset="0.93" stop-color="#5472D8"/>
      <stop offset="1" stop-color="#5761D7"/>
    </linearGradient>
    <linearGradient id="paint19_linear" x1="5827.05" y1="12314.5" x2="6743.14" y2="12314.5" gradientUnits="userSpaceOnUse">
      <stop stop-color="#42E8E0"/>
      <stop offset="0.15" stop-color="#43E3E0"/>
      <stop offset="0.33" stop-color="#45D5DF"/>
      <stop offset="0.52" stop-color="#49BDDD"/>
      <stop offset="0.72" stop-color="#4E9CDB"/>
      <stop offset="0.93" stop-color="#5472D8"/>
      <stop offset="1" stop-color="#5761D7"/>
    </linearGradient>
    <linearGradient id="paint20_linear" x1="4880.71" y1="12314.5" x2="5796.8" y2="12314.5" gradientUnits="userSpaceOnUse">
      <stop stop-color="#42E8E0"/>
      <stop offset="0.15" stop-color="#43E3E0"/>
      <stop offset="0.33" stop-color="#45D5DF"/>
      <stop offset="0.52" stop-color="#49BDDD"/>
      <stop offset="0.72" stop-color="#4E9CDB"/>
      <stop offset="0.93" stop-color="#5472D8"/>
      <stop offset="1" stop-color="#5761D7"/>
    </linearGradient>
    <linearGradient id="paint21_linear" x1="9605.44" y1="10187.8" x2="13269.8" y2="10187.8" gradientUnits="userSpaceOnUse">
      <stop stop-color="#42E8E0"/>
      <stop offset="0.15" stop-color="#43E3E0"/>
      <stop offset="0.33" stop-color="#45D5DF"/>
      <stop offset="0.52" stop-color="#49BDDD"/>
      <stop offset="0.72" stop-color="#4E9CDB"/>
      <stop offset="0.93" stop-color="#5472D8"/>
      <stop offset="1" stop-color="#5761D7"/>
    </linearGradient>
    <linearGradient id="paint22_linear" x1="5827.05" y1="13068.2" x2="6743.14" y2="13068.2" gradientUnits="userSpaceOnUse">
      <stop stop-color="#42E8E0"/>
      <stop offset="0.15" stop-color="#43E3E0"/>
      <stop offset="0.33" stop-color="#45D5DF"/>
      <stop offset="0.52" stop-color="#49BDDD"/>
      <stop offset="0.72" stop-color="#4E9CDB"/>
      <stop offset="0.93" stop-color="#5472D8"/>
      <stop offset="1" stop-color="#5761D7"/>
    </linearGradient>
    <linearGradient id="paint23_linear" x1="4880.71" y1="13068.2" x2="5796.8" y2="13068.2" gradientUnits="userSpaceOnUse">
      <stop stop-color="#42E8E0"/>
      <stop offset="0.15" stop-color="#43E3E0"/>
      <stop offset="0.33" stop-color="#45D5DF"/>
      <stop offset="0.52" stop-color="#49BDDD"/>
      <stop offset="0.72" stop-color="#4E9CDB"/>
      <stop offset="0.93" stop-color="#5472D8"/>
      <stop offset="1" stop-color="#5761D7"/>
    </linearGradient>
    <linearGradient id="paint24_linear" x1="16882.5" y1="38861.9" x2="16882.5" y2="9038.78" gradientUnits="userSpaceOnUse">
      <stop stop-color="#C0BFF6"/>
      <stop offset="0.29" stop-color="#C5C4F7"/>
      <stop offset="0.64" stop-color="#D3D2F9"/>
      <stop offset="1" stop-color="#E9E9FD"/>
    </linearGradient>
    <linearGradient id="paint25_linear" x1="127.914" y1="39.8644" x2="198.956" y2="39.8644" gradientUnits="userSpaceOnUse">
      <stop stop-color="#E9E9FD"/>
      <stop offset="0.04" stop-color="#D3D5F7"/>
      <stop offset="0.11" stop-color="#B2B6EF"/>
      <stop offset="0.18" stop-color="#969BE7"/>
      <stop offset="0.27" stop-color="#7F86E1"/>
      <stop offset="0.36" stop-color="#6D75DD"/>
      <stop offset="0.48" stop-color="#606AD9"/>
      <stop offset="0.64" stop-color="#5963D8"/>
      <stop offset="1" stop-color="#5761D7"/>
    </linearGradient>
    <linearGradient id="paint26_linear" x1="15367.1" y1="2267.71" x2="26012.5" y2="2267.71" gradientUnits="userSpaceOnUse">
      <stop stop-color="#C0BFF6"/>
      <stop offset="0.29" stop-color="#C5C4F7"/>
      <stop offset="0.64" stop-color="#D3D2F9"/>
      <stop offset="1" stop-color="#E9E9FD"/>
    </linearGradient>
    <linearGradient id="paint27_linear" x1="12143.2" y1="2252.26" x2="11825.7" y2="1397.75" gradientUnits="userSpaceOnUse">
      <stop stop-color="#C0BFF6"/>
      <stop offset="0.29" stop-color="#C5C4F7"/>
      <stop offset="0.64" stop-color="#D3D2F9"/>
      <stop offset="1" stop-color="#E9E9FD"/>
    </linearGradient>
    <linearGradient id="paint28_linear" x1="173.187" y1="55.9932" x2="173.187" y2="22.5864" gradientUnits="userSpaceOnUse">
      <stop stop-color="#5761D7"/>
      <stop offset="0.18" stop-color="#5C66D9"/>
      <stop offset="0.39" stop-color="#6A73DF"/>
      <stop offset="0.61" stop-color="#8289E8"/>
      <stop offset="0.85" stop-color="#A3A7F5"/>
      <stop offset="1" stop-color="#BCBEFF"/>
    </linearGradient>
    <linearGradient id="paint29_linear" x1="4860.44" y1="446.836" x2="5574.38" y2="446.836" gradientUnits="userSpaceOnUse">
      <stop stop-color="#5761D7"/>
      <stop offset="0.18" stop-color="#5C66D9"/>
      <stop offset="0.39" stop-color="#6A73DF"/>
      <stop offset="0.61" stop-color="#8289E8"/>
      <stop offset="0.85" stop-color="#A3A7F5"/>
      <stop offset="1" stop-color="#BCBEFF"/>
    </linearGradient>
    <linearGradient id="paint30_linear" x1="5052.66" y1="507.274" x2="5766.6" y2="507.274" gradientUnits="userSpaceOnUse">
      <stop stop-color="#5761D7"/>
      <stop offset="0.18" stop-color="#5C66D9"/>
      <stop offset="0.39" stop-color="#6A73DF"/>
      <stop offset="0.61" stop-color="#8289E8"/>
      <stop offset="0.85" stop-color="#A3A7F5"/>
      <stop offset="1" stop-color="#BCBEFF"/>
    </linearGradient>
    <linearGradient id="paint31_linear" x1="5244.88" y1="567.561" x2="5958.83" y2="567.561" gradientUnits="userSpaceOnUse">
      <stop stop-color="#5761D7"/>
      <stop offset="0.18" stop-color="#5C66D9"/>
      <stop offset="0.39" stop-color="#6A73DF"/>
      <stop offset="0.61" stop-color="#8289E8"/>
      <stop offset="0.85" stop-color="#A3A7F5"/>
      <stop offset="1" stop-color="#BCBEFF"/>
    </linearGradient>
    <linearGradient id="paint32_linear" x1="5437.11" y1="627.438" x2="6151.05" y2="627.438" gradientUnits="userSpaceOnUse">
      <stop stop-color="#5761D7"/>
      <stop offset="0.18" stop-color="#5C66D9"/>
      <stop offset="0.39" stop-color="#6A73DF"/>
      <stop offset="0.61" stop-color="#8289E8"/>
      <stop offset="0.85" stop-color="#A3A7F5"/>
      <stop offset="1" stop-color="#BCBEFF"/>
    </linearGradient>
    <linearGradient id="paint33_linear" x1="1484.23" y1="808.573" x2="1530.94" y2="808.573" gradientUnits="userSpaceOnUse">
      <stop stop-color="#C0BFF6"/>
      <stop offset="0.29" stop-color="#C5C4F7"/>
      <stop offset="0.64" stop-color="#D3D2F9"/>
      <stop offset="1" stop-color="#E9E9FD"/>
    </linearGradient>
    <linearGradient id="paint34_linear" x1="1255.23" y1="733.875" x2="1287.22" y2="733.875" gradientUnits="userSpaceOnUse">
      <stop stop-color="#5761D7"/>
      <stop offset="0.18" stop-color="#5C66D9"/>
      <stop offset="0.39" stop-color="#6A73DF"/>
      <stop offset="0.61" stop-color="#8289E8"/>
      <stop offset="0.85" stop-color="#A3A7F5"/>
      <stop offset="1" stop-color="#BCBEFF"/>
    </linearGradient>
    <linearGradient id="paint35_linear" x1="1017.8" y1="472.113" x2="1064.62" y2="472.113" gradientUnits="userSpaceOnUse">
      <stop stop-color="#C0BFF6"/>
      <stop offset="0.29" stop-color="#C5C4F7"/>
      <stop offset="0.64" stop-color="#D3D2F9"/>
      <stop offset="1" stop-color="#E9E9FD"/>
    </linearGradient>
    <linearGradient id="paint36_linear" x1="858.435" y1="429.417" x2="890.422" y2="429.417" gradientUnits="userSpaceOnUse">
      <stop stop-color="#5761D7"/>
      <stop offset="0.18" stop-color="#5C66D9"/>
      <stop offset="0.39" stop-color="#6A73DF"/>
      <stop offset="0.61" stop-color="#8289E8"/>
      <stop offset="0.85" stop-color="#A3A7F5"/>
      <stop offset="1" stop-color="#BCBEFF"/>
    </linearGradient>
    <linearGradient id="paint37_linear" x1="1485" y1="2118.81" x2="1531.74" y2="2118.81" gradientUnits="userSpaceOnUse">
      <stop stop-color="#C0BFF6"/>
      <stop offset="0.29" stop-color="#C5C4F7"/>
      <stop offset="0.64" stop-color="#D3D2F9"/>
      <stop offset="1" stop-color="#E9E9FD"/>
    </linearGradient>
    <linearGradient id="paint38_linear" x1="1255.23" y1="1906.68" x2="1287.22" y2="1906.68" gradientUnits="userSpaceOnUse">
      <stop stop-color="#5761D7"/>
      <stop offset="0.18" stop-color="#5C66D9"/>
      <stop offset="0.39" stop-color="#6A73DF"/>
      <stop offset="0.61" stop-color="#8289E8"/>
      <stop offset="0.85" stop-color="#A3A7F5"/>
      <stop offset="1" stop-color="#BCBEFF"/>
    </linearGradient>
    <linearGradient id="paint39_linear" x1="1017.67" y1="1771.67" x2="1064.49" y2="1771.67" gradientUnits="userSpaceOnUse">
      <stop stop-color="#C0BFF6"/>
      <stop offset="0.29" stop-color="#C5C4F7"/>
      <stop offset="0.64" stop-color="#D3D2F9"/>
      <stop offset="1" stop-color="#E9E9FD"/>
    </linearGradient>
    <linearGradient id="paint40_linear" x1="858.435" y1="1602.25" x2="890.422" y2="1602.25" gradientUnits="userSpaceOnUse">
      <stop stop-color="#5761D7"/>
      <stop offset="0.18" stop-color="#5C66D9"/>
      <stop offset="0.39" stop-color="#6A73DF"/>
      <stop offset="0.61" stop-color="#8289E8"/>
      <stop offset="0.85" stop-color="#A3A7F5"/>
      <stop offset="1" stop-color="#BCBEFF"/>
    </linearGradient>
    <clipPath id="clip0">
      <rect width="270" height="360" fill="white" transform="translate(0 0.152344)"/>
    </clipPath>
  </defs>
</svg>
