<svg width="52" height="52" viewBox="0 0 52 52" fill="none" xmlns="http://www.w3.org/2000/svg">
  <path d="M8.17199 24.3657C9.37062 24.3657 10.4555 23.8728 11.2572 23.0812L15.6551 25.3349C15.6331 25.5186 15.6006 25.699 15.6006 25.8886C15.6006 28.4076 17.6001 30.4571 20.0577 30.4571C22.5153 30.4571 24.5148 28.4076 24.5148 25.8886C24.5148 25.1854 24.3462 24.5271 24.068 23.9315L30.034 17.8162C30.6152 18.1014 31.2574 18.2743 31.9434 18.2743C34.401 18.2743 36.4006 16.2248 36.4006 13.7057C36.4006 13.2314 36.3096 12.7829 36.1781 12.3526L41.3618 8.36858C42.0691 8.8528 42.9168 9.13714 43.8291 9.13714C46.2867 9.13714 48.2863 7.08763 48.2863 4.56857C48.2863 2.04951 46.2867 0 43.8291 0C41.3715 0 39.372 2.04951 39.372 4.56857C39.372 5.04288 39.4629 5.49141 39.5945 5.92169L34.4107 9.90571C33.7034 9.42149 32.8557 9.13714 31.9434 9.13714C29.4858 9.13714 27.4863 11.1867 27.4863 13.7057C27.4863 14.4088 27.655 15.0672 27.9331 15.6628L21.9671 21.778C21.3859 21.4929 20.7437 21.32 20.0577 21.32C18.8591 21.32 17.7742 21.8129 16.9725 22.6045L12.5746 20.3508C12.5966 20.1672 12.6291 19.9867 12.6291 19.7971C12.6291 17.2781 10.6296 15.2286 8.17199 15.2286C5.71437 15.2286 3.71484 17.2781 3.71484 19.7971C3.71484 22.3162 5.71437 24.3657 8.17199 24.3657Z" fill="#5B37C0"/>
  <path d="M50.4766 48.9202H48.8516V16.3945C48.8516 15.544 48.17 14.8555 47.3281 14.8555H41.2344C40.3925 14.8555 39.7109 15.544 39.7109 16.3945V48.9202H36.6641V25.6289C36.6641 24.7785 35.9825 24.0899 35.1406 24.0899H29.0469C28.205 24.0899 27.5234 24.7785 27.5234 25.6289V48.9202H24.4766V37.9415C24.4766 37.091 23.795 36.4024 22.9531 36.4024H16.8594C16.0175 36.4024 15.3359 37.091 15.3359 37.9415V48.9202H12.2891V31.7852C12.2891 30.9347 11.6075 30.2462 10.7656 30.2462H4.67188C3.83002 30.2462 3.14844 30.9347 3.14844 31.7852V48.9202H1.52344C0.68158 48.9202 0 49.6088 0 50.4593C0 51.3098 0.68158 51.9983 1.52344 51.9983H50.4766C51.3184 51.9983 52 51.3098 52 50.4593C52 49.6088 51.3184 48.9202 50.4766 48.9202Z" fill="#030A46"/>
</svg>
