<svg width="44" height="44" viewBox="0 0 44 44" fill="none" xmlns="http://www.w3.org/2000/svg">
  <path d="M34.8906 31.1094C33.1225 31.1094 31.5203 31.8264 30.3551 32.9829L19.8073 25.8642C20.3699 24.6882 20.7109 23.3881 20.7109 22C20.7109 20.6119 20.3699 19.3118 19.8073 18.1358L30.3551 11.0171C31.5203 12.1736 33.1225 12.8906 34.8906 12.8906C38.4456 12.8906 41.3359 9.99896 41.3359 6.44531C41.3359 2.89166 38.4456 0 34.8906 0C31.3356 0 28.4453 2.89166 28.4453 6.44531C28.4453 7.30402 28.6212 8.12076 28.9274 8.87036L18.3718 15.9944C16.7189 14.1562 14.3482 12.9766 11.6875 12.9766C6.71252 12.9766 2.66406 17.025 2.66406 22C2.66406 26.975 6.71252 31.0234 11.6875 31.0234C14.3482 31.0234 16.7189 29.8438 18.3718 28.0056L28.9274 35.1296C28.6212 35.8792 28.4453 36.696 28.4453 37.5547C28.4453 41.1083 31.3356 44 34.8906 44C38.4456 44 41.3359 41.1083 41.3359 37.5547C41.3359 34.001 38.4456 31.1094 34.8906 31.1094Z" fill="#030A46"/>
  <ellipse cx="34.6931" cy="6.76923" rx="6.76923" ry="6.76923" fill="#5B37C0"/>
</svg>
