<svg width="611" height="579" viewBox="0 0 611 579" fill="none" xmlns="http://www.w3.org/2000/svg">
<g opacity="0.2" filter="url(#filter0_f)">
<ellipse rx="94.0323" ry="50.509" transform="matrix(-0.998439 0.0558548 0.0558548 0.998439 142.635 181.128)" fill="#52D8E0"/>
</g>
<g opacity="0.2" filter="url(#filter1_f)">
<ellipse rx="94.0323" ry="50.509" transform="matrix(-0.998439 0.0558548 0.0558548 0.998439 425.891 479.143)" fill="#52D8E0"/>
</g>
<g opacity="0.1" filter="url(#filter2_f)">
<ellipse rx="134.112" ry="123.695" transform="matrix(-0.998439 0.0558548 0.0558548 0.998439 426.13 189.02)" fill="#52D8E0"/>
</g>
<path d="M242.587 224.892C242.344 224.902 242.101 224.853 241.88 224.749L175.645 191.179C175.341 190.996 175.117 190.704 175.018 190.362C174.919 190.02 174.952 189.653 175.11 189.334C175.269 189.016 175.541 188.769 175.874 188.643C176.206 188.517 176.573 188.522 176.902 188.656L243.152 222.224C243.483 222.396 243.733 222.692 243.85 223.047C243.966 223.402 243.939 223.789 243.775 224.124C243.662 224.346 243.492 224.533 243.284 224.668C243.075 224.803 242.835 224.88 242.587 224.892Z" fill="#0E2187" stroke="url(#paint0_linear)"/>
<path d="M129.819 316.024C129.552 316.036 129.286 315.977 129.049 315.854L14.3607 257.23C14.1221 257.109 13.9195 256.927 13.7735 256.702C13.6276 256.478 13.5434 256.218 13.5295 255.95C13.5191 255.682 13.5797 255.416 13.7052 255.179C13.8307 254.941 14.0166 254.742 14.2439 254.6L112.937 193.502C113.277 193.281 113.691 193.205 114.088 193.29C114.484 193.375 114.831 193.614 115.052 193.955C115.272 194.297 115.348 194.712 115.264 195.11C115.179 195.507 114.941 195.855 114.6 196.076L18.0765 255.757L130.387 313.158C130.682 313.312 130.919 313.558 131.06 313.86C131.202 314.162 131.241 314.502 131.171 314.827C131.101 315.153 130.926 315.447 130.674 315.664C130.421 315.88 130.105 316.008 129.773 316.027L129.819 316.024Z" fill="#0E2187" stroke="url(#paint1_linear)"/>
<path d="M254.68 115.189L378.943 178.2C382.336 179.915 384.888 177.746 384.64 173.31L380.855 105.647C380.609 101.242 377.657 96.2863 374.264 94.5561L250.004 31.591C246.611 29.8759 244.058 32.0455 244.307 36.4814L248.09 104.114C248.366 108.502 251.288 113.474 254.68 115.189Z" fill="url(#paint2_linear)"/>
<path d="M378.437 374.804L201.74 284.027C201.116 283.703 200.586 283.219 200.203 282.623C199.819 282.027 199.597 281.339 199.557 280.629C199.517 279.918 199.662 279.21 199.976 278.575C200.29 277.94 200.763 277.4 201.348 277.009L304.169 208.718L304.976 208.18L490.046 303.262C490.671 303.583 491.202 304.066 491.585 304.661C491.969 305.256 492.191 305.943 492.231 306.652C492.271 307.362 492.126 308.069 491.811 308.703C491.497 309.338 491.023 309.876 490.438 310.265L394.653 373.897C392.267 375.476 389.514 376.392 386.668 376.551C383.823 376.71 380.984 376.108 378.437 374.804ZM203.107 279.849C203.014 279.915 202.938 280.005 202.889 280.11C202.839 280.214 202.817 280.33 202.823 280.446C202.83 280.562 202.865 280.675 202.926 280.773C202.987 280.871 203.071 280.952 203.172 281.008L380.015 371.778C382.037 372.815 384.292 373.294 386.552 373.168C388.813 373.041 391 372.314 392.894 371.057L488.679 307.425C488.773 307.36 488.848 307.272 488.898 307.168C488.948 307.065 488.971 306.95 488.965 306.835C488.958 306.72 488.923 306.608 488.861 306.511C488.8 306.414 488.715 306.335 488.615 306.28L305.27 212.131L203.107 279.849Z" fill="#0E2187" stroke="url(#paint3_linear)"/>
<path d="M298.632 165.119L315.031 16.9477L313 16.2232L315.933 14.3371C316.281 14.1257 316.681 14.0172 317.087 14.0241C317.493 14.0311 317.89 14.1532 318.23 14.3763L521.72 117.529C522.578 118.02 523.291 118.728 523.79 119.583C524.288 120.437 524.554 121.409 524.56 122.399L507.969 271.755C507.959 272.078 507.865 272.394 507.696 272.671C507.528 272.947 507.291 273.175 507.009 273.332L504.18 275.182L503.527 272.475L503.694 272.466L301.409 169.947C300.564 169.458 299.862 168.754 299.375 167.907C298.887 167.059 298.631 166.098 298.632 165.119Z" fill="url(#paint4_linear)"/>
<path d="M520.838 121.602L523.998 119.978C524.405 120.717 524.599 121.556 524.559 122.4L507.968 271.755C507.958 272.079 507.864 272.395 507.696 272.672C507.527 272.948 507.29 273.176 507.008 273.333L504.179 275.183L503.526 272.476L503.693 272.467L493.451 267.28L520.838 121.602Z" fill="url(#paint5_linear)"/>
<path d="M298.426 172.033L501.96 275.153C503.525 275.964 504.798 275.375 504.922 273.783L521.499 124.444C521.502 123.449 521.24 122.473 520.741 121.614C520.241 120.755 519.522 120.045 518.658 119.558L315.195 16.3434C313.631 15.547 312.357 16.1364 312.234 17.7282L295.581 167.072C295.568 168.079 295.826 169.071 296.326 169.943C296.827 170.816 297.552 171.538 298.426 172.033Z" fill="#101357"/>
<g opacity="0.51">
<path opacity="0.51" d="M318.295 25.6463L514.481 125.062L498.71 265.717L302.664 166.369L318.295 25.6463Z" fill="#453C9E"/>
</g>
<path d="M178.418 248.945L189.502 253.979L293.873 185.462C294.959 184.893 296.164 184.588 297.389 184.569C298.615 184.551 299.828 184.821 300.931 185.357L493.021 282.701C494.752 281.598 502.652 277.24 502.652 277.24L499.289 287.745C499.107 288.285 498.739 288.742 498.253 289.037L388.342 361.186C387.256 361.754 386.051 362.06 384.826 362.078C383.6 362.097 382.387 361.827 381.284 361.291L184.676 261.67C183.971 261.331 183.403 260.76 183.066 260.053L178.418 248.945Z" fill="url(#paint6_linear)"/>
<path d="M180.183 250.611L381.639 352.703C382.769 353.251 384.01 353.528 385.264 353.51C386.519 353.493 387.752 353.183 388.865 352.604L501.546 278.655C503.334 277.473 503.002 275.617 500.798 274.506L299.342 172.413C298.209 171.865 296.966 171.589 295.709 171.606C294.452 171.623 293.217 171.934 292.1 172.513L179.434 246.462C177.647 247.644 177.979 249.5 180.183 250.611Z" fill="#8874D5"/>
<path d="M180.12 249.484L381.576 351.576C382.706 352.127 383.948 352.403 385.203 352.383C386.458 352.363 387.691 352.048 388.802 351.462L501.483 277.512C501.986 277.219 502.361 276.747 502.533 276.189C502.706 276.649 502.7 277.157 502.518 277.613C502.335 278.069 501.989 278.44 501.546 278.652L388.865 352.601C387.752 353.18 386.519 353.49 385.264 353.508C384.01 353.525 382.769 353.249 381.639 352.701L180.183 250.608C178.623 249.872 178.09 248.774 178.369 247.783C178.728 248.544 179.35 249.149 180.12 249.484Z" fill="url(#paint7_linear)"/>
<path d="M439.13 324.966L439.009 322.809C438.998 322.612 438.872 322.527 438.726 322.627L431.397 327.411C431.316 327.477 431.25 327.56 431.206 327.655C431.161 327.75 431.138 327.853 431.139 327.958L431.259 330.1C431.271 330.313 431.412 330.397 431.558 330.297L438.887 325.513C438.966 325.447 439.029 325.363 439.071 325.268C439.114 325.173 439.134 325.07 439.13 324.966Z" fill="#2842A2"/>
<path d="M428.209 332.135L428.089 329.993C428.077 329.78 427.951 329.696 427.804 329.796L420.476 334.594C420.395 334.656 420.331 334.737 420.288 334.83C420.246 334.922 420.227 335.024 420.233 335.126L420.353 337.283C420.364 337.481 420.491 337.565 420.637 337.465L427.966 332.682C428.045 332.615 428.108 332.531 428.15 332.436C428.192 332.342 428.212 332.239 428.209 332.135Z" fill="#2842A2"/>
<path d="M470.827 274.031L303.427 189.203C302.88 188.919 302.267 188.787 301.651 188.821C301.036 188.856 300.441 189.055 299.929 189.399L244.069 226.141C243.886 226.261 243.739 226.427 243.64 226.622C243.542 226.818 243.497 227.036 243.509 227.254C243.521 227.473 243.59 227.684 243.71 227.868C243.829 228.051 243.995 228.199 244.19 228.298L411.496 313.085C412.044 313.369 412.657 313.501 413.273 313.467C413.888 313.433 414.483 313.233 414.995 312.889L470.936 276.234C471.13 276.118 471.29 275.952 471.397 275.752C471.504 275.552 471.555 275.327 471.544 275.1C471.532 274.873 471.46 274.654 471.334 274.465C471.208 274.277 471.033 274.127 470.827 274.031Z" fill="#101357" fill-opacity="0.55"/>
<path d="M470.95 276.197L470.394 276.579L303.587 192.038C303.038 191.761 302.426 191.634 301.812 191.668C301.198 191.702 300.604 191.897 300.089 192.234L244.786 228.609L244.192 228.307C243.997 228.209 243.831 228.06 243.712 227.877C243.592 227.694 243.523 227.482 243.511 227.264C243.498 227.045 243.544 226.827 243.642 226.632C243.74 226.436 243.888 226.27 244.071 226.15L299.991 189.405C300.504 189.063 301.099 188.864 301.714 188.83C302.329 188.795 302.942 188.926 303.49 189.209L470.89 274.036C471.082 274.141 471.243 274.294 471.358 274.48C471.472 274.667 471.536 274.881 471.542 275.1C471.548 275.319 471.497 275.535 471.393 275.728C471.289 275.921 471.136 276.082 470.95 276.197Z" fill="#9198DB"/>
<path d="M296.056 198.116L441.472 271.814L447.524 267.833L302.109 194.15L296.056 198.116Z" fill="#101357"/>
<path d="M281.195 207.885L417.589 276.998L423.641 273.017L287.247 203.904L281.195 207.885Z" fill="#101357"/>
<path d="M271.508 214.228L432.106 295.611L438.173 291.63L277.575 210.247L271.508 214.228Z" fill="#101357"/>
<path d="M261.836 220.572L422.434 301.955L428.486 297.974L267.903 216.591L261.836 220.572Z" fill="#101357"/>
<path d="M252.165 226.92L412.749 308.304L418.816 304.322L258.218 222.955L252.165 226.92Z" fill="#101357"/>
<path d="M450.243 276.26L456.717 279.54L462.784 275.559L456.311 272.294L450.243 276.26Z" fill="#101357"/>
<path d="M428.441 282.498L441.857 289.291L447.924 285.309L434.493 278.517L428.441 282.498Z" fill="#101357"/>
<path d="M303.714 306.178L258.573 283.3C258.195 283.191 257.86 282.966 257.615 282.658C257.37 282.349 257.226 281.972 257.204 281.578C257.182 281.184 257.283 280.794 257.492 280.46C257.701 280.126 258.009 279.865 258.372 279.715L287.271 260.741C288.199 260.193 289.244 259.876 290.319 259.816C291.394 259.756 292.468 259.954 293.451 260.395L338.667 283.254C339.045 283.363 339.38 283.587 339.625 283.896C339.87 284.204 340.014 284.582 340.036 284.975C340.058 285.369 339.957 285.76 339.748 286.094C339.539 286.428 339.231 286.688 338.868 286.839L309.939 305.83C309.004 306.378 307.951 306.696 306.869 306.756C305.787 306.817 304.706 306.619 303.714 306.178Z" fill="url(#paint8_linear)"/>
<path d="M338.748 284.727L293.561 261.852C292.577 261.418 291.504 261.224 290.43 261.284C289.357 261.344 288.312 261.657 287.382 262.198L258.454 281.188C258.016 281.452 257.663 281.837 257.437 282.297C256.934 281.456 257.228 280.465 258.371 279.715L287.27 260.741C288.198 260.193 289.243 259.876 290.318 259.816C291.393 259.756 292.467 259.954 293.45 260.395L338.666 283.254C339.886 283.871 340.273 284.825 339.882 285.716C339.607 285.284 339.213 284.94 338.748 284.727Z" fill="#9198DB"/>
<mask id="mask0" mask-type="alpha" maskUnits="userSpaceOnUse" x="294" y="15" width="229" height="262">
<path opacity="0.51" d="M318.295 25.6463L514.481 125.062L498.71 265.717L302.664 166.369L318.295 25.6463Z" fill="#13155B"/>
</mask>
<g mask="url(#mask0)">
<path opacity="0.11" d="M299.133 172.182L500.588 274.26C501.715 274.816 502.958 275.097 504.213 275.079C505.469 275.062 506.703 274.747 507.814 274.16L620.495 200.211C622.284 199.044 621.937 197.189 619.732 196.063L418.292 93.9841C417.162 93.4279 415.917 93.1471 414.659 93.1646C413.4 93.182 412.164 93.4971 411.05 94.0844L298.384 168.033C296.596 169.2 296.928 171.056 299.133 172.182Z" fill="url(#paint9_linear)"/>
<path opacity="0.11" d="M495.977 181.482L450.836 158.619C450.458 158.51 450.124 158.285 449.878 157.977C449.633 157.668 449.49 157.291 449.467 156.897C449.445 156.503 449.546 156.112 449.755 155.778C449.965 155.445 450.272 155.184 450.636 155.034L479.561 135.982C480.494 135.441 481.54 135.128 482.616 135.068C483.692 135.007 484.768 135.202 485.755 135.636L530.897 158.514C531.275 158.623 531.609 158.847 531.855 159.156C532.1 159.464 532.244 159.841 532.266 160.235C532.288 160.629 532.187 161.02 531.978 161.354C531.768 161.688 531.461 161.948 531.097 162.099L502.168 181.074C501.243 181.631 500.199 181.959 499.122 182.03C498.045 182.101 496.967 181.913 495.977 181.482Z" fill="url(#paint10_linear)"/>
<path opacity="0.11" d="M530.98 160.033L485.838 137.155C484.853 136.714 483.776 136.516 482.699 136.576C481.622 136.636 480.574 136.954 479.644 137.502L450.716 156.492C450.283 156.769 449.933 157.157 449.7 157.616C449.212 156.775 449.491 155.784 450.634 155.034L479.559 135.982C480.492 135.441 481.539 135.128 482.615 135.068C483.691 135.008 484.766 135.202 485.753 135.636L530.895 158.514C532.115 159.132 532.502 160.085 532.111 160.976C531.829 160.562 531.437 160.236 530.98 160.033Z" fill="#9198DB"/>
<path opacity="0.11" d="M553.498 217.959L386.083 133.133C385.536 132.856 384.927 132.728 384.315 132.762C383.704 132.796 383.112 132.991 382.6 133.328L326.725 170.071C326.542 170.191 326.394 170.357 326.296 170.552C326.198 170.747 326.152 170.965 326.164 171.184C326.177 171.403 326.246 171.614 326.366 171.797C326.485 171.981 326.651 172.129 326.845 172.228L494.153 257.03C494.7 257.307 495.309 257.435 495.921 257.401C496.532 257.366 497.124 257.171 497.636 256.835L553.592 220.179C553.787 220.063 553.947 219.895 554.055 219.695C554.162 219.495 554.214 219.269 554.205 219.041C554.195 218.814 554.124 218.593 554 218.403C553.876 218.212 553.702 218.059 553.498 217.959Z" fill="#ADB1F2"/>
<path opacity="0.11" d="M553.62 220.132L553.063 220.498L386.241 135.958C385.695 135.678 385.085 135.549 384.473 135.583C383.861 135.617 383.269 135.814 382.758 136.153L327.455 172.529L326.845 172.228C326.651 172.129 326.485 171.981 326.366 171.797C326.246 171.614 326.177 171.403 326.164 171.184C326.152 170.965 326.198 170.747 326.296 170.552C326.394 170.357 326.542 170.191 326.725 170.071L382.6 133.328C383.112 132.991 383.704 132.796 384.315 132.762C384.927 132.728 385.536 132.856 386.083 133.133L553.498 217.959C553.693 218.06 553.858 218.21 553.977 218.395C554.096 218.579 554.165 218.792 554.178 219.011C554.19 219.23 554.145 219.449 554.047 219.646C553.949 219.842 553.802 220.01 553.62 220.132Z" fill="#9198DB"/>
<path opacity="0.11" d="M341.715 166.94L487.553 240.844L482.146 244.407L336.293 170.505L341.715 166.94Z" fill="#070F4B"/>
<path opacity="0.11" d="M356.119 157.491L494.733 227.73L489.327 231.294L350.697 161.04L356.119 157.491Z" fill="#070F4B"/>
<path opacity="0.11" d="M505.087 232.988L518.033 239.548L512.626 243.096L499.679 236.536L505.087 232.988Z" fill="#070F4B"/>
<path opacity="0.11" d="M494.619 244.422L503.626 248.993L498.219 252.541L489.197 247.971L494.619 244.422Z" fill="#070F4B"/>
<path opacity="0.11" d="M365.145 151.554L527.057 233.61L521.634 237.16L359.723 155.119L365.145 151.554Z" fill="#070F4B"/>
<path opacity="0.11" d="M374.157 145.645L536.084 227.685L530.662 231.25L368.749 149.194L374.157 145.645Z" fill="#070F4B"/>
<path opacity="0.11" d="M383.186 139.714L545.099 221.77L539.691 225.319L377.78 143.278L383.186 139.714Z" fill="#070F4B"/>
</g>
<path d="M497.374 134.276L501.265 136.481L501.548 133.662L497.673 131.471L497.374 134.276Z" fill="#2EFFEC"/>
<path d="M495.356 153.316L499.247 155.521L500.984 139.042L497.109 136.851L495.356 153.316Z" fill="#2EFFEC"/>
<path d="M494.391 162.425L498.282 164.63L498.965 158.085L495.089 155.894L494.391 162.425Z" fill="#2EFFEC"/>
<path d="M493.4 171.873L497.275 174.064L497.973 167.534L494.082 165.328L493.4 171.873Z" fill="#2EFFEC"/>
<path d="M490.622 140.116L494.498 142.322L495.195 135.776L491.32 133.585L490.622 140.116Z" fill="#2EFFEC"/>
<path d="M489.302 152.627L493.178 154.818L494.206 145.22L490.314 143.015L489.302 152.627Z" fill="#2EFFEC"/>
<path d="M488.076 164.138L491.967 166.328L492.827 158.081L488.952 155.89L488.076 164.138Z" fill="#2EFFEC"/>
<path d="M492.394 181.315L496.284 183.505L496.967 176.96L493.091 174.769L492.394 181.315Z" fill="#2EFFEC"/>
<path d="M491.585 131.011L495.476 133.216L495.774 130.395L491.884 128.205L491.585 131.011Z" fill="#2EFFEC"/>
<path d="M488.528 188.829L495.306 192.656L495.594 189.927L488.816 186.1L488.528 188.829Z" fill="#2EFFEC"/>
<path d="M268.958 410.623L111.644 330.916C111.069 330.66 110.574 330.251 110.214 329.735C109.853 329.218 109.639 328.612 109.596 327.983C109.606 327.248 109.811 326.529 110.189 325.9C110.568 325.27 111.107 324.754 111.751 324.403L142.338 304.375C143.527 303.615 144.881 303.152 146.285 303.026C147.69 302.899 149.105 303.113 150.41 303.649L307.799 383.337C308.376 383.592 308.873 384 309.236 384.516C309.599 385.033 309.816 385.639 309.862 386.269C309.847 387.005 309.638 387.723 309.257 388.352C308.876 388.98 308.336 389.497 307.693 389.85L277.031 409.897C275.682 410.742 274.139 411.222 272.551 411.291C271.316 411.378 270.08 411.149 268.958 410.623ZM143.997 306.872L113.399 326.978C112.696 327.444 112.564 327.817 112.569 327.893C112.573 327.969 112.671 328.085 112.984 328.25L270.298 407.958C271.136 408.255 272.03 408.359 272.914 408.262C273.797 408.165 274.648 407.87 275.402 407.398L306.045 387.29C306.733 386.825 306.864 386.452 306.86 386.376C306.856 386.3 306.758 386.184 306.445 386.018L149.131 306.311C148.462 306.011 147.728 305.889 146.999 305.958C145.937 305.999 144.903 306.314 143.997 306.872Z" fill="#0E2187" stroke="white"/>
<path d="M169.349 251.642C173.694 253.934 177.641 256.914 181.04 260.467C184.876 245.12 198.897 239.657 216.331 248.48C230.778 255.795 243.789 271.098 251.211 287.537C253.71 287.547 256.168 288.179 258.363 289.377C267.746 294.14 275.886 306.577 276.476 317.135C276.489 317.363 276.5 317.561 276.513 317.788C279.545 317.917 282.509 318.73 285.184 320.168C297.225 326.276 307.594 342.169 308.35 355.674C309.105 369.18 299.96 375.177 287.917 369.009L172.679 310.614C158.111 303.321 145.602 284.21 144.686 267.834C143.769 251.458 154.808 244.287 169.349 251.642Z" fill="url(#paint11_linear)"/>
<path d="M169.35 251.641C171.821 252.923 174.156 254.451 176.321 256.204L188.41 248.258C195 243.028 204.948 242.685 216.346 248.463C230.779 255.793 243.79 271.097 251.212 287.536C253.711 287.546 256.169 288.178 258.364 289.376C267.747 294.139 275.887 306.576 276.477 317.134C276.49 317.362 276.501 317.559 276.514 317.787C279.546 317.915 282.51 318.729 285.186 320.167C297.226 326.275 307.595 342.168 308.351 355.673C308.725 362.373 306.656 367.213 303.057 369.685L302.951 369.69L273.369 389.205L264.887 357.358L172.715 310.702C158.112 303.32 145.603 284.209 144.687 267.833C143.77 251.457 154.81 244.286 169.35 251.641Z" fill="url(#paint12_radial)"/>
<path d="M121.115 270.741L151.093 250.96C155.573 247.936 162.014 247.926 169.363 251.645C171.833 252.927 174.168 254.455 176.333 256.207L188.423 248.262C195.012 243.032 204.96 242.689 216.359 248.467C230.776 255.798 243.787 271.102 251.209 287.541C253.708 287.55 256.166 288.183 258.361 289.381C267.744 294.144 275.884 306.581 276.474 317.139C276.487 317.367 276.498 317.564 276.511 317.792C279.543 317.92 282.507 318.734 285.183 320.172C297.223 326.28 307.592 342.173 308.348 355.678C308.722 362.377 306.654 367.217 303.054 369.689L302.948 369.695L273.366 389.21L264.884 357.363L172.712 310.707C160.86 304.695 150.415 290.985 146.384 277.313L121.115 270.741Z" fill="url(#paint13_linear)"/>
<path d="M139.678 271.228C144.025 273.509 147.973 276.484 151.368 280.037C155.205 264.705 169.225 259.227 186.66 268.066C201.076 275.367 214.143 290.606 221.539 307.108C224.037 307.125 226.493 307.756 228.691 308.948C238.074 313.726 246.213 326.147 246.804 336.706C246.817 336.933 246.829 337.146 246.842 337.374C249.869 337.485 252.831 338.295 255.497 339.739C267.552 345.846 277.998 361.735 278.753 375.241C279.509 388.746 270.365 394.759 258.229 388.58L142.98 330.262C128.44 322.907 115.926 303.72 115.013 287.404C114.1 271.089 125.136 263.858 139.678 271.228Z" fill="url(#paint14_linear)"/>
<path d="M150.374 280.709C146.981 277.149 143.032 274.168 138.683 271.885C131.584 268.289 125.319 268.182 120.868 270.915C125.342 267.511 132.017 267.335 139.679 271.219C143.777 273.355 147.52 276.117 150.772 279.407C150.614 279.842 150.485 280.261 150.374 280.709Z" fill="url(#paint15_linear)"/>
<path d="M277.65 375.874C276.894 362.369 266.524 346.461 254.485 340.368C251.815 338.93 248.856 338.116 245.828 337.987C245.816 337.76 245.805 337.562 245.792 337.334C245.201 326.776 237.091 314.338 227.679 309.576C225.477 308.379 223.015 307.748 220.511 307.737C213.131 291.235 200.063 275.995 185.631 268.68C175.093 263.342 165.804 263.237 159.245 267.383C165.842 262.564 175.541 262.387 186.627 268.015C201.043 275.316 214.111 290.555 221.506 307.057C224.004 307.074 226.46 307.705 228.659 308.897C238.042 313.675 246.181 326.097 246.772 336.655C246.784 336.882 246.796 337.095 246.809 337.323C249.841 337.438 252.807 338.246 255.48 339.688C267.52 345.795 277.889 361.689 278.645 375.194C279.033 382.136 276.804 387.092 272.909 389.443C276.187 386.928 278.006 382.24 277.65 375.874Z" fill="#BCBEFF"/>
<path d="M367.945 441.14L370.553 439.15L291.657 397.328L290.271 399.981L367.945 441.14Z" fill="#0E2187" stroke="white"/>
<path d="M480.301 433.228C479.968 433.242 479.64 433.146 479.366 432.954C479.093 432.763 478.891 432.486 478.79 432.168C478.689 431.849 478.696 431.506 478.809 431.191C478.922 430.877 479.135 430.608 479.415 430.428L542.411 391.427L445.209 341.761C444.867 341.569 442.819 340.187 442.705 339.812C442.591 339.437 443.623 339.613 443.8 339.263C443.976 338.913 444.84 338.521 445.209 338.391C445.578 338.261 446.22 338.886 446.576 339.048L546.187 389.951C546.425 390.075 546.626 390.261 546.77 390.488C546.914 390.716 546.994 390.977 547.004 391.246C547.014 391.515 546.954 391.781 546.828 392.018C546.703 392.256 546.517 392.455 546.29 392.597L481.003 433.006C480.791 433.136 480.55 433.213 480.301 433.228Z" fill="#0E2187" stroke="url(#paint16_linear)"/>
<path d="M313.762 66.5176L386.786 103.578C390.179 105.293 393.131 110.263 393.377 114.654L397.162 182.316C397.408 186.722 394.856 188.891 391.464 187.207L305.211 143.419L313.762 66.5176Z" fill="#101357"/>
<path d="M245.921 31.6207L249.236 28.9513C249.842 28.4961 250.574 28.2395 251.331 28.2162C252.088 28.1929 252.834 28.4042 253.467 28.8213L377.712 91.7872C381.105 93.5022 384.072 98.4718 384.318 102.862L388.103 170.525C388.243 171.404 388.167 172.304 387.88 173.146C387.594 173.988 387.106 174.747 386.459 175.356L383.028 178.123L382.684 175.506L382.374 175.386L258.144 112.42C254.735 110.69 251.784 105.735 251.538 101.33L247.752 33.6669C247.721 33.0698 247.748 32.471 247.835 31.8794L245.921 31.6207Z" fill="url(#paint17_linear)"/>
<path d="M383.847 100.202L353.071 120.378L344.819 116.268L379.691 93.2569C381.67 95.1582 383.105 97.5563 383.847 100.202Z" fill="url(#paint18_linear)"/>
<path d="M254.68 115.189L378.943 178.2C382.336 179.915 384.888 177.746 384.64 173.31L380.855 105.647C380.609 101.242 377.657 96.2863 374.264 94.5561L250.004 31.591C246.611 29.8759 244.058 32.0455 244.307 36.4814L248.09 104.114C248.366 108.502 251.288 113.474 254.68 115.189Z" fill="#8E7ADB"/>
<path d="M384.007 173.696L380.221 106.018C379.976 101.628 377.024 96.6573 373.631 94.9422L249.371 31.9772C248.843 31.6787 248.256 31.5017 247.652 31.459C247.048 31.4164 246.442 31.5092 245.878 31.7306C246.484 31.3136 247.198 31.0852 247.933 31.0739C248.667 31.0626 249.389 31.2691 250.007 31.6673L374.267 94.6324C377.661 96.3626 380.612 101.318 380.858 105.723L384.639 173.31C384.788 175.969 383.904 177.816 382.437 178.477C383.057 177.862 383.524 177.108 383.797 176.277C384.07 175.445 384.142 174.561 384.007 173.696Z" fill="url(#paint19_linear)"/>
<path d="M263.441 71.8926L364.839 123.229C365.621 123.627 366.286 123.834 366.687 123.126C366.681 123.02 366.671 122.852 366.664 122.716L365.831 107.828C365.798 107.238 365.629 106.665 365.336 106.152C365.044 105.639 364.636 105.202 364.146 104.875L261.98 53.1085C261.905 53.1127 261.822 52.9954 261.747 53.0149C261.012 53.1779 261.02 53.8632 261.079 54.9266L261.638 69.2657C261.704 69.8174 261.902 70.3448 262.216 70.8025C262.531 71.2601 262.951 71.6343 263.441 71.8926Z" fill="#5031B0"/>
<path d="M265.052 104.458L366.68 155.843C367.462 156.241 368.472 156.642 368.558 155.738C368.565 155.6 368.557 155.463 368.535 155.327L367.7 140.409C367.67 139.819 367.501 139.245 367.209 138.732C366.916 138.219 366.507 137.782 366.016 137.456L263.804 85.6924L263.571 85.5987C262.783 85.3533 262.64 86.3366 262.7 87.4L263.492 101.558C263.508 102.13 263.658 102.69 263.929 103.194C264.2 103.697 264.584 104.13 265.052 104.458Z" fill="#5031B0"/>
<path d="M261.685 53.0202C261.685 53.1572 261.693 53.2942 261.708 53.4304L262.544 68.3787C262.577 68.9683 262.747 69.5422 263.039 70.0548C263.331 70.5675 263.739 71.0049 264.229 71.3323L366.427 123.127L366.66 123.221C366.572 124.094 365.956 124.479 365.189 124.08L263.051 72.2668C262.558 71.942 262.149 71.5053 261.856 70.9921C261.563 70.4789 261.395 69.9037 261.366 69.3133L260.531 54.3953C260.366 53.3378 260.912 52.7739 261.685 53.0202Z" fill="url(#paint20_linear)"/>
<path d="M263.507 85.5984C263.506 85.7355 263.514 85.8725 263.53 86.0086L264.367 100.957C264.4 101.547 264.569 102.12 264.861 102.633C265.154 103.146 265.561 103.583 266.051 103.911L368.249 155.705C368.321 155.745 368.4 155.771 368.481 155.784C368.394 156.672 367.778 157.057 367.011 156.658L264.873 104.845C264.382 104.518 263.974 104.081 263.681 103.568C263.389 103.056 263.22 102.481 263.188 101.892L262.353 86.9583C262.188 85.916 262.734 85.3521 263.507 85.5984Z" fill="url(#paint21_linear)"/>
<path d="M337.18 102.492L336.096 104.854L333.632 102.081L335.288 100.175L332.518 97.6477L333.242 95.3823L335.768 98.1668L335.256 94.721L338.257 96.2294L338.125 99.2846L340.479 99.0005L341.536 102.142L338.927 101.952L340.888 105.774L338.645 106.144L337.18 102.492Z" fill="url(#paint22_linear)"/>
<path d="M325.437 96.5341L324.355 98.9109L321.89 96.1382L323.531 94.2329L320.761 91.7058L321.485 89.4404L324.01 92.2098L323.498 88.764L326.485 90.2732L326.352 93.3284L328.706 93.0443L329.764 96.2006L327.169 95.9952L329.112 99.7573L326.902 100.186L325.437 96.5341Z" fill="url(#paint23_linear)"/>
<path d="M313.696 90.5961L312.612 92.9578L310.148 90.185L311.789 88.2798L309.019 85.7527L309.758 83.4864L312.283 86.2558L311.771 82.81L314.757 84.3192L314.625 87.3744L317.06 87.1773L318.116 90.3183L315.523 90.1282L317.433 93.8615L315.175 94.2317L313.696 90.5961Z" fill="url(#paint24_linear)"/>
<path d="M301.951 84.633L300.867 86.9947L298.403 84.2219L300.074 82.315L297.304 79.7878L298.043 77.5216L300.569 80.3062L300.056 76.8451L303.043 78.3696L302.911 81.4248L305.266 81.1559L306.322 84.297L303.714 84.1076L305.671 87.8536L303.412 88.2238L301.951 84.633Z" fill="url(#paint25_linear)"/>
<path d="M290.195 78.6833L289.112 81.045L286.648 78.2874L288.303 76.3662L285.534 73.8391L286.258 71.5889L288.783 74.3582L288.272 70.9124L291.273 72.4208L291.14 75.476L293.494 75.1919L294.551 78.333L291.943 78.1437L293.885 81.9057L291.642 82.275L290.195 78.6833Z" fill="url(#paint26_linear)"/>
<path d="M339.003 135.077L337.92 137.439L335.455 134.666L337.111 132.76L334.341 130.233L335.065 127.968L337.591 130.752L337.078 127.291L340.081 128.815L339.948 131.87L342.303 131.601L343.36 134.742L340.754 134.614L342.711 138.36L340.468 138.729L339.003 135.077Z" fill="url(#paint27_linear)"/>
<path d="M327.26 129.127L326.178 131.504L323.713 128.731L325.354 126.826L322.583 124.284L323.308 122.034L325.847 124.787L325.336 121.341L328.322 122.85L328.189 125.906L330.543 125.622L331.6 128.763L329.007 128.572L330.949 132.335L328.706 132.704L327.26 129.127Z" fill="url(#paint28_linear)"/>
<path d="M315.518 123.183L314.435 125.545L311.97 122.772L313.613 120.897L310.843 118.37L311.582 116.104L314.107 118.873L313.595 115.427L316.582 116.936L316.449 119.992L318.804 119.723L319.861 122.864L317.267 122.674L319.256 126.448L316.998 126.818L315.518 123.183Z" fill="url(#paint29_linear)"/>
<path d="M303.775 117.227L302.691 119.588L300.227 116.816L301.898 114.909L299.128 112.382L299.867 110.115L302.393 112.9L301.881 109.439L304.868 110.963L304.735 114.019L307.09 113.75L308.147 116.891L305.512 116.779L307.469 120.525L305.211 120.895L303.775 117.227Z" fill="url(#paint30_linear)"/>
<path d="M292.018 111.269L290.935 113.631L288.471 110.858L290.126 108.952L287.357 106.425L288.081 104.159L290.607 106.944L290.094 103.483L293.096 105.006L292.963 108.062L295.317 107.777L296.374 110.918L293.766 110.729L295.708 114.491L293.465 114.861L292.018 111.269Z" fill="url(#paint31_linear)"/>
<g style="mix-blend-mode:lighten" opacity="0.1">
<path d="M352.668 373.627L338.145 383.157L322.65 375.307L337.173 365.778L352.668 373.627Z" fill="#4846A5"/>
</g>
<g style="mix-blend-mode:lighten" opacity="0.1">
<path d="M273.059 146.608L258.536 156.137L243.041 148.287L257.564 138.758L273.059 146.608Z" fill="#4846A5"/>
</g>
<g style="mix-blend-mode:lighten" opacity="0.1">
<path d="M93.0736 247.729L78.5506 257.258L63.0553 249.408L77.5775 239.863L93.0736 247.729Z" fill="#4846A5"/>
</g>
<path d="M145.115 211.454C144.636 211.485 144.158 211.385 143.731 211.166L78.4351 178.078C78.0029 177.86 77.6356 177.533 77.3701 177.127C77.1047 176.722 76.9506 176.254 76.9234 175.77C76.901 175.286 77.004 174.805 77.2221 174.374C77.4403 173.942 77.7663 173.575 78.1682 173.307L139.352 133.144C139.759 132.882 140.226 132.73 140.709 132.703C141.192 132.676 141.674 132.775 142.108 132.989L207.389 166.079C207.821 166.296 208.188 166.624 208.454 167.029C208.719 167.434 208.873 167.903 208.9 168.387C208.927 168.871 208.826 169.353 208.608 169.785C208.389 170.218 208.061 170.584 207.656 170.849L146.473 211.013C146.067 211.277 145.598 211.429 145.115 211.454ZM80.2032 175.464L144.936 208.264L205.608 168.449L140.874 135.649L80.2032 175.464Z" fill="#0E2187" stroke="#DFF8F9"/>
<path d="M199.065 157.094L198.718 145.55L142.625 178.836L84.6367 148.977L84.9834 160.52L143.016 191.839L199.065 157.094Z" fill="url(#paint32_linear)"/>
<path d="M142.669 180.297L84.6366 148.978L140.685 114.232L198.718 145.552L142.669 180.297Z" fill="url(#paint33_linear)"/>
<path opacity="0.5" d="M143.322 179.33L85.3432 149.946L84.5517 150.463L143.375 180.271L198.506 144.088L197.662 143.663L143.322 179.33Z" fill="url(#paint34_linear)"/>
<path d="M142.667 167.671L106.312 149.238L140.385 126.882L176.754 145.298L142.667 167.671Z" fill="#0F054C"/>
<path d="M142.668 167.67L106.299 149.238L140.387 126.881L176.755 145.297L142.668 167.67Z" fill="url(#paint35_linear)"/>
<path d="M176.827 144.235L172.182 61.1913L101.338 64.41L105.994 147.63C105.998 148.057 106.123 148.474 106.355 148.836C106.587 149.197 106.918 149.49 107.31 149.68L137.591 165.087C138.951 165.746 141.625 167.549 142.648 167.987C144.085 166.915 146.035 165.35 147.314 164.543L175.728 146.544C176.115 146.298 176.424 145.95 176.618 145.542C176.813 145.133 176.885 144.68 176.827 144.235Z" fill="url(#paint36_linear)"/>
<path opacity="0.4" d="M487.416 466.349L487.343 449.207L484.183 447.474C483.316 452.82 477.002 456.392 471.718 457.149L435.789 478.294L420.078 484.008L369.79 458.42L370.931 457.757C366.652 455.775 364.32 451.227 361.988 447.059L358.616 449.074L356.611 449.665L356.685 467.085C356.821 468.403 357.301 469.663 358.077 470.739C358.853 471.815 359.899 472.67 361.109 473.22L411.512 501.921C414.828 503.579 418.489 504.436 422.199 504.42C425.909 504.404 429.563 503.516 432.864 501.83L483.02 472.698C484.213 472.153 485.245 471.31 486.016 470.251C486.786 469.192 487.269 467.953 487.417 466.653L487.416 466.349Z" fill="#2EFFEC"/>
<path d="M487.349 450.838L487.3 439.313L484.14 437.551C483.274 443.009 476.96 446.612 471.676 447.381L435.748 468.862L420.038 474.667L369.748 448.665L370.889 447.992C366.61 445.977 364.277 441.356 361.946 437.121L358.573 439.168L356.568 439.768L356.618 451.577C356.755 452.916 357.235 454.196 358.011 455.29C358.787 456.383 359.832 457.252 361.043 457.81L411.448 486.975C414.763 488.661 418.425 489.531 422.135 489.515C425.845 489.499 429.499 488.598 432.8 486.884L482.954 457.289C484.147 456.735 485.179 455.878 485.949 454.802C486.719 453.726 487.202 452.467 487.35 451.147L487.349 450.838Z" fill="url(#paint37_linear)"/>
<path opacity="0.3" d="M471.679 447.295L435.759 468.826L422.082 473.888L422.149 489.515C425.866 489.582 429.538 488.678 432.812 486.89L482.955 457.227C484.148 456.671 485.18 455.813 485.95 454.734C486.72 453.656 487.203 452.394 487.351 451.07L487.35 450.761L487.3 439.208L484.422 437.596L484.117 437.597C483.148 442.965 476.912 446.525 471.679 447.295Z" fill="#0F054C"/>
<path d="M411.401 475.104L360.999 446.181C355.113 442.83 355.09 437.297 360.947 433.87L411.1 404.67C414.404 402.991 418.057 402.108 421.764 402.092C425.472 402.076 429.132 402.928 432.451 404.578L482.852 433.375C488.763 436.725 488.787 442.258 482.904 445.685L432.752 475.012C429.447 476.692 425.795 477.574 422.087 477.59C418.379 477.606 414.72 476.754 411.401 475.104ZM425.226 409.051C424.162 408.524 422.991 408.253 421.804 408.258C420.616 408.263 419.447 408.544 418.388 409.08L368.235 438.281C367.829 438.431 367.479 438.701 367.232 439.057C366.985 439.412 366.853 439.834 366.855 440.267C366.857 440.699 366.992 441.121 367.242 441.474C367.492 441.827 367.845 442.095 368.252 442.241L418.653 471.012C419.716 471.538 420.888 471.81 422.075 471.805C423.262 471.8 424.432 471.518 425.49 470.982L475.643 441.782C476.05 441.632 476.4 441.361 476.647 441.006C476.894 440.651 477.025 440.228 477.024 439.796C477.022 439.363 476.887 438.942 476.637 438.589C476.387 438.236 476.034 437.968 475.627 437.822L425.226 409.051Z" fill="url(#paint38_linear)"/>
<path d="M482.901 446.084L432.732 475.68C429.426 477.374 425.772 478.265 422.063 478.281C418.354 478.297 414.693 477.437 411.373 475.771L360.952 446.58C359.858 446.066 358.895 445.307 358.137 444.36C357.379 443.413 356.847 442.303 356.58 441.117C356.517 442.581 356.904 444.029 357.687 445.263C358.47 446.497 359.613 447.458 360.958 448.015L411.378 477.052C414.695 478.73 418.357 479.596 422.069 479.58C425.78 479.565 429.435 478.667 432.737 476.961L482.907 447.493C486.179 445.584 487.618 443.042 487.251 440.559C486.992 441.753 486.466 442.872 485.712 443.829C484.958 444.787 483.997 445.558 482.901 446.084Z" fill="url(#paint39_linear)"/>
<path d="M412.711 474.396L362.387 445.452C357.288 442.512 357.268 437.813 362.341 434.728L412.416 405.354C415.283 403.881 418.455 403.107 421.676 403.093C424.896 403.079 428.075 403.826 430.955 405.275L481.482 434.218C486.581 437.159 486.601 441.857 481.528 444.942L431.352 474.317C428.471 475.806 425.281 476.59 422.041 476.604C418.801 476.618 415.604 475.861 412.711 474.396ZM426.541 407.949C425.038 407.187 423.376 406.793 421.692 406.8C420.008 406.807 418.349 407.215 416.852 407.991L366.777 437.262C366.191 437.462 365.683 437.841 365.324 438.347C364.965 438.852 364.773 439.458 364.776 440.079C364.778 440.7 364.975 441.305 365.339 441.807C365.702 442.31 366.214 442.685 366.801 442.879L417.227 471.824C418.73 472.586 420.392 472.98 422.076 472.973C423.761 472.965 425.419 472.557 426.916 471.782L477.092 442.408C477.678 442.208 478.186 441.829 478.545 441.323C478.905 440.818 479.096 440.212 479.094 439.591C479.091 438.97 478.894 438.365 478.531 437.863C478.167 437.36 477.656 436.985 477.068 436.791L426.541 407.949Z" fill="url(#paint40_linear)"/>
<path d="M478.376 439.795L477.789 302.518L366.879 302.992L367.467 440.561C367.439 441.265 367.603 441.964 367.942 442.58C368.281 443.196 368.782 443.706 369.389 444.053L416.059 470.808C418.165 472.01 420.546 472.637 422.966 472.627C425.386 472.616 427.761 471.969 429.858 470.749L476.441 443.508C477.076 443.135 477.595 442.589 477.937 441.932C478.279 441.276 478.431 440.535 478.376 439.795Z" fill="url(#paint41_linear)"/>
<path d="M177.78 189.283L181.612 192.021L181.481 193.413L176.138 190.927L177.78 189.283Z" fill="#0E2187"/>
<path d="M109.361 196.408L112.645 194.219L114.835 195.313L109.361 198.598L109.361 196.408Z" fill="#0E2187"/>
<path d="M432.824 423.294C432.933 423.229 433.001 423.111 433.001 422.984L433.001 420.796C433.001 420.669 432.933 420.551 432.824 420.486L431.488 419.716C431.482 419.979 431.34 420.206 431.131 420.333L432.29 421.002L432.29 422.778L430.75 423.665L429.211 422.778L429.211 421.002L430.37 420.333C430.161 420.206 430.016 419.979 430.013 419.716L428.677 420.486C428.568 420.551 428.5 420.669 428.5 420.796L428.5 422.984C428.5 423.111 428.568 423.229 428.677 423.294L430.574 424.388C430.683 424.453 430.821 424.453 430.93 424.388L432.824 423.294Z" fill="#EAF9FF"/>
<path d="M443.614 407.283L443.614 411.507C443.721 411.448 443.842 411.413 443.971 411.413C444.101 411.413 444.222 411.448 444.328 411.507L444.328 407.283L444.328 407.077C444.328 406.95 444.26 406.832 444.151 406.767L443.974 406.664L439.933 404.331L439.756 404.228C439.647 404.163 439.509 404.163 439.4 404.228L439.223 404.331L435.164 406.673L435.205 406.696L435.323 406.764C435.432 406.829 435.5 406.947 435.5 407.074L435.5 407.272L435.5 407.301L439.577 404.947C439.577 404.95 443.614 407.283 443.614 407.283Z" fill="#EAF9FF"/>
<path d="M444.354 412.782L447.728 414.729L447.728 416.676C447.728 416.803 447.796 416.921 447.905 416.985L449.801 418.08C449.91 418.145 450.049 418.145 450.158 418.08L452.055 416.985C452.164 416.921 452.232 416.803 452.232 416.676L452.232 414.487C452.232 414.36 452.164 414.242 452.055 414.178L450.158 413.083C450.049 413.018 449.91 413.018 449.801 413.083L448.052 414.092L444.71 412.163C444.707 412.428 444.566 412.656 444.354 412.782ZM449.981 413.806L451.521 414.694L451.521 416.469L449.981 417.357L448.442 416.469L448.442 415.033C448.539 415.012 448.624 414.956 448.677 414.865C448.736 414.765 448.734 414.647 448.689 414.549L449.981 413.806Z" fill="#EAF9FF"/>
<path d="M439.957 420.397L443.614 422.509L443.791 422.612C443.962 422.709 444.181 422.653 444.278 422.482C444.375 422.311 444.316 422.093 444.148 421.995L443.715 421.745L440.311 419.78C440.311 420.043 440.169 420.27 439.957 420.397Z" fill="#EAF9FF"/>
<path d="M439.578 419.022C439.693 419.022 439.799 419.051 439.896 419.096C439.908 419.102 439.923 419.11 439.935 419.116L439.935 414.893L443.592 412.781C443.383 412.654 443.238 412.427 443.235 412.164L441.598 413.111L439.578 414.276L435.537 411.943C435.534 411.896 435.519 411.852 435.498 411.813L435.498 411.943L435.498 412.04L435.498 412.15C435.498 412.223 435.475 412.291 435.434 412.35C435.428 412.359 435.422 412.365 435.416 412.374C435.389 412.406 435.36 412.436 435.322 412.456L435.227 412.512L435.162 412.551L435.145 412.562L439.182 414.896L439.182 419.14C439.194 419.131 439.209 419.125 439.221 419.119C439.327 419.06 439.448 419.022 439.578 419.022Z" fill="#EAF9FF"/>
<path d="M434.788 411.944L432.768 413.109L434.788 411.944Z" fill="#EAF9FF"/>
<path d="M431.107 414.895L430.93 414.998C430.88 415.027 430.824 415.039 430.768 415.042C430.753 415.042 430.739 415.039 430.721 415.039C430.68 415.036 430.638 415.024 430.6 415.007C430.591 415.004 430.579 415.004 430.571 414.998L430.391 414.895L430.391 419.053C430.497 418.994 430.618 418.959 430.748 418.959C430.877 418.959 430.998 418.994 431.104 419.053L431.104 414.895L431.107 414.895Z" fill="#EAF9FF"/>
<path d="M446.816 440.37L446.816 435.822L448.533 434.831C448.642 434.766 448.71 434.648 448.71 434.521L448.71 432.333C448.71 432.206 448.642 432.088 448.533 432.023L446.816 431.032L446.816 426.505L446.816 426.227C446.816 426.036 446.666 425.885 446.477 425.874C446.471 425.874 446.465 425.871 446.459 425.871C446.454 425.871 446.448 425.874 446.442 425.874C446.253 425.885 446.103 426.036 446.103 426.227L446.103 426.505L446.103 431.032L444.386 432.023C444.277 432.088 444.209 432.206 444.209 432.333L444.209 434.521C444.209 434.648 444.277 434.766 444.386 434.831L446.103 435.822L446.103 440.37L446.282 440.267C446.392 440.202 446.53 440.202 446.639 440.267L446.816 440.37ZM444.92 434.315L444.92 432.539L446.445 431.658C446.468 431.658 447.996 432.539 447.996 432.539L447.996 434.315L446.457 435.203L444.92 434.315Z" fill="#EAF9FF"/>
<path d="M431.106 404.006L431.106 399.944L432.823 398.953C432.932 398.888 433 398.77 433 398.644L433 396.455C433 396.328 432.932 396.21 432.823 396.145L430.926 395.051C430.817 394.986 430.679 394.986 430.57 395.051L428.673 396.145C428.564 396.21 428.496 396.328 428.496 396.455L428.496 398.644C428.496 398.77 428.564 398.888 428.673 398.953L430.39 399.944L430.39 404.062C430.508 403.985 430.646 403.941 430.797 403.941C430.909 403.938 431.012 403.964 431.106 404.006ZM429.21 398.44L429.21 396.664L430.75 395.777L432.289 396.664L432.289 398.44L430.764 399.322C430.735 399.319 429.21 398.44 429.21 398.44Z" fill="#EAF9FF"/>
<path d="M439.399 404.228C439.508 404.163 439.646 404.163 439.756 404.228L439.933 404.331L439.933 399.668L443.97 397.335L448.008 399.668L448.008 404.331L443.97 406.661L444.147 406.764C444.257 406.829 444.324 406.947 444.324 407.074L444.324 407.281L448.542 404.847C448.651 404.782 448.719 404.664 448.719 404.537L448.719 399.461C448.719 399.335 448.651 399.217 448.542 399.152L444.147 396.615C444.038 396.55 443.9 396.55 443.79 396.615L439.396 399.152C439.287 399.217 439.219 399.335 439.219 399.461L439.219 404.331L439.399 404.228Z" fill="#EAF9FF"/>
<path d="M443.614 407.281L439.576 404.947C439.576 404.95 443.614 407.281 443.614 407.281Z" fill="#EAF9FF"/>
<path d="M447.475 399.769L444.151 397.849C443.98 397.752 443.762 397.808 443.664 397.979C443.632 398.035 443.617 398.097 443.617 398.156C443.617 398.28 443.682 398.401 443.794 398.466L447.118 400.386C447.289 400.483 447.508 400.427 447.605 400.256C447.705 400.085 447.646 399.867 447.475 399.769Z" fill="#EAF9FF"/>
<path d="M444.281 406.016C444.378 405.845 444.322 405.627 444.151 405.53L440.827 403.61C440.656 403.512 440.437 403.568 440.34 403.739C440.308 403.795 440.293 403.857 440.293 403.916C440.293 404.04 440.358 404.161 440.473 404.226L443.797 406.146C443.965 406.246 444.183 406.187 444.281 406.016Z" fill="#EAF9FF"/>
<path d="M448.583 424.654L446.474 425.872C446.663 425.884 446.813 426.035 446.813 426.226L446.813 426.504L449.12 425.173C449.229 425.109 449.297 424.991 449.297 424.864L449.297 421.994C449.297 421.867 449.229 421.749 449.12 421.684L446.636 420.251C446.527 420.186 446.389 420.186 446.28 420.251L443.796 421.684C443.767 421.702 443.743 421.72 443.719 421.743L444.153 421.994C444.324 422.091 444.383 422.309 444.283 422.481C444.185 422.652 443.967 422.711 443.796 422.61L443.619 422.507L443.619 424.861C443.619 424.988 443.687 425.106 443.796 425.17L446.103 426.501L446.103 426.223C446.103 426.032 446.253 425.881 446.442 425.87L444.333 424.651L444.333 422.194L446.46 420.967L448.586 422.194L448.586 424.654L448.583 424.654Z" fill="#EAF9FF"/>
<path d="M427.112 411.354C427.079 411.41 427.064 411.472 427.064 411.531C427.064 411.655 427.129 411.776 427.241 411.841L430.566 413.761C430.737 413.858 430.955 413.802 431.052 413.631C431.15 413.46 431.093 413.242 430.922 413.145L427.598 411.224C427.43 411.124 427.212 411.183 427.112 411.354Z" fill="#EAF9FF"/>
<path d="M434.074 411.886C434.271 411.886 434.431 411.727 434.431 411.53L434.431 407.689C434.431 407.492 434.271 407.332 434.074 407.332C433.876 407.332 433.717 407.492 433.717 407.689L433.717 411.53C433.717 411.727 433.876 411.886 434.074 411.886Z" fill="#EAF9FF"/>
<path d="M431.106 414.892L435.143 412.559L435.161 412.547L435.226 412.509L435.32 412.453C435.359 412.432 435.388 412.403 435.415 412.37C435.421 412.362 435.427 412.356 435.433 412.347C435.45 412.32 435.465 412.291 435.477 412.258C435.486 412.238 435.486 412.214 435.492 412.191C435.494 412.179 435.497 412.17 435.497 412.158C435.5 412.146 435.5 412.037 435.5 412.037L435.5 411.94L435.5 411.81L435.5 407.3L435.5 407.271L435.5 407.073C435.5 406.946 435.433 406.828 435.323 406.763L435.205 406.696L435.164 406.672L431.53 404.572C431.495 404.318 431.333 404.106 431.109 404.003C431.014 403.958 430.911 403.935 430.802 403.935C430.651 403.935 430.513 403.979 430.395 404.056C430.238 404.159 430.123 404.321 430.082 404.51L426.18 406.763C426.071 406.828 426 406.946 426 407.073L426 412.149C426 412.276 426.068 412.394 426.18 412.459L430.398 414.892L430.578 414.996C430.586 415.001 430.598 414.999 430.607 415.004C430.645 415.022 430.687 415.034 430.728 415.037C430.743 415.037 430.758 415.04 430.775 415.04C430.831 415.037 430.887 415.025 430.937 414.996L431.106 414.892ZM426.708 411.943L426.708 407.28L430.289 405.212C430.421 405.339 430.598 405.416 430.796 405.416C430.973 405.416 431.135 405.351 431.262 405.244L434.784 407.28L434.784 411.943L432.763 413.108L430.743 414.273L426.708 411.943Z" fill="#EAF9FF"/>
<path d="M446.635 443.832L447.912 443.095C448.022 443.03 448.089 442.912 448.089 442.785L448.089 441.311C448.089 441.184 448.022 441.066 447.912 441.001L446.812 440.367L446.635 440.264C446.526 440.199 446.387 440.199 446.278 440.264L446.098 440.367L444.998 441.001C444.889 441.066 444.818 441.184 444.818 441.311L444.818 442.785C444.818 442.912 444.886 443.03 444.998 443.095L446.275 443.832C446.39 443.894 446.526 443.894 446.635 443.832ZM445.538 442.579L445.538 441.517L446.446 440.992C446.47 440.992 447.379 441.517 447.379 441.517L447.379 442.579L446.458 443.11L445.538 442.579Z" fill="#EAF9FF"/>
<path d="M440.318 419.776C440.318 419.484 440.164 419.242 439.937 419.118C439.925 419.112 439.913 419.104 439.899 419.098C439.801 419.051 439.695 419.024 439.58 419.024C439.45 419.024 439.329 419.059 439.223 419.118C439.211 419.124 439.197 419.13 439.185 419.139C438.978 419.269 438.84 419.499 438.84 419.764C438.84 420.174 439.17 420.505 439.58 420.505C439.719 420.505 439.849 420.463 439.961 420.396C440.17 420.266 440.312 420.039 440.318 419.776Z" fill="#EAF9FF"/>
<path d="M443.232 412.15C443.238 412.428 443.383 412.655 443.592 412.781C443.704 412.849 443.834 412.891 443.973 412.891C444.111 412.891 444.241 412.849 444.353 412.781C444.563 412.655 444.707 412.428 444.71 412.165C444.713 411.873 444.557 411.631 444.33 411.504C444.223 411.445 444.103 411.41 443.973 411.41C443.843 411.41 443.722 411.445 443.616 411.504C443.389 411.631 443.232 411.87 443.232 412.15Z" fill="#EAF9FF"/>
<path d="M431.486 419.71C431.486 419.418 431.332 419.176 431.105 419.052C430.999 418.993 430.878 418.958 430.748 418.958C430.618 418.958 430.497 418.993 430.391 419.052C430.164 419.179 430.008 419.418 430.008 419.698C430.014 419.975 430.158 420.203 430.368 420.329C430.48 420.397 430.61 420.438 430.748 420.438C430.887 420.438 431.017 420.397 431.129 420.329C431.338 420.2 431.48 419.972 431.486 419.71Z" fill="#EAF9FF"/>
<path d="M408.555 402.318C408.372 402.423 408.259 402.614 408.259 402.82L408.259 406.362C408.259 406.568 408.372 406.759 408.555 406.864L410.797 408.11C410.807 407.685 411.044 407.317 411.395 407.112L409.451 406.028L409.451 403.154L412.034 401.717L414.616 403.154L414.616 406.028L412.672 407.112C413.023 407.317 413.266 407.685 413.27 408.11L415.512 406.864C415.695 406.759 415.809 406.568 415.809 406.362L415.809 402.82C415.809 402.614 415.695 402.423 415.512 402.318L412.33 400.547C412.147 400.442 411.915 400.442 411.732 400.547L408.555 402.318Z" fill="#EAF9FF"/>
<path d="M390.454 428.235L390.454 421.398C390.276 421.494 390.073 421.551 389.855 421.551C389.638 421.551 389.435 421.494 389.257 421.398L389.257 428.235L389.257 428.57C389.257 428.775 389.371 428.966 389.554 429.071L389.85 429.238L396.629 433.015L396.926 433.182C397.109 433.287 397.341 433.287 397.524 433.182L397.821 433.015L404.629 429.224L404.56 429.185L404.362 429.076C404.179 428.971 404.065 428.78 404.065 428.574L404.065 428.254L404.065 428.207L397.227 432.017C397.227 432.012 390.454 428.235 390.454 428.235Z" fill="#EAF9FF"/>
<path d="M389.215 419.334L383.555 416.183L383.555 413.032C383.555 412.827 383.441 412.636 383.258 412.531L380.077 410.759C379.894 410.654 379.661 410.654 379.478 410.759L376.297 412.531C376.114 412.636 376 412.827 376 413.032L376 416.575C376 416.78 376.114 416.971 376.297 417.076L379.478 418.847C379.661 418.952 379.894 418.952 380.077 418.847L383.011 417.214L388.616 420.337C388.621 419.907 388.859 419.54 389.215 419.334ZM379.775 417.677L377.192 416.24L377.192 413.366L379.775 411.929L382.357 413.366L382.357 415.691C382.194 415.725 382.051 415.815 381.962 415.963C381.863 416.126 381.868 416.317 381.942 416.474L379.775 417.677Z" fill="#EAF9FF"/>
<path d="M396.588 407.006L390.453 403.588L390.156 403.421C389.869 403.263 389.503 403.354 389.34 403.631C389.176 403.908 389.275 404.261 389.557 404.419L390.285 404.825L395.994 408.004C395.994 407.579 396.232 407.212 396.588 407.006Z" fill="#EAF9FF"/>
<path d="M397.226 409.233C397.033 409.233 396.855 409.186 396.692 409.114C396.672 409.105 396.647 409.09 396.627 409.081L396.627 415.918L390.492 419.336C390.844 419.542 391.086 419.909 391.091 420.334L393.837 418.802L397.226 416.916L404.004 420.692C404.009 420.769 404.034 420.84 404.068 420.902L404.068 420.692L404.068 420.535L404.068 420.358C404.068 420.239 404.108 420.129 404.177 420.033C404.187 420.019 404.197 420.01 404.207 419.995C404.251 419.943 404.301 419.895 404.365 419.862L404.524 419.771L404.632 419.709L404.662 419.69L397.889 415.913L397.889 409.042C397.869 409.057 397.844 409.066 397.825 409.076C397.646 409.171 397.444 409.233 397.226 409.233Z" fill="#EAF9FF"/>
<path d="M405.261 420.692L408.65 418.806L405.261 420.692Z" fill="#EAF9FF"/>
<path d="M411.434 415.916L411.731 415.749C411.815 415.701 411.909 415.682 412.003 415.677C412.028 415.677 412.053 415.682 412.083 415.682C412.152 415.686 412.221 415.706 412.285 415.734C412.3 415.739 412.32 415.739 412.335 415.749L412.637 415.916L412.637 409.184C412.459 409.279 412.256 409.336 412.038 409.336C411.82 409.336 411.618 409.279 411.439 409.184L411.439 415.916L411.434 415.916Z" fill="#EAF9FF"/>
<path d="M385.085 374.676L385.085 382.038L382.206 383.642C382.023 383.747 381.909 383.938 381.909 384.144L381.909 387.686C381.909 387.892 382.023 388.083 382.206 388.188L385.085 389.792L385.085 397.121L385.085 397.57C385.085 397.88 385.338 398.123 385.654 398.143C385.664 398.143 385.674 398.147 385.684 398.147C385.694 398.147 385.704 398.143 385.714 398.143C386.03 398.123 386.283 397.88 386.283 397.57L386.283 397.121L386.283 389.792L389.162 388.188C389.345 388.083 389.459 387.892 389.459 387.686L389.459 384.144C389.459 383.938 389.345 383.747 389.162 383.642L386.283 382.038L386.283 374.676L385.981 374.843C385.798 374.948 385.565 374.948 385.382 374.843L385.085 374.676ZM388.267 384.478L388.267 387.352L385.709 388.78C385.669 388.78 383.106 387.352 383.106 387.352L383.106 384.478L385.689 383.041L388.267 384.478Z" fill="#EAF9FF"/>
<path d="M411.436 433.54L411.436 440.114L408.556 441.719C408.373 441.824 408.26 442.015 408.26 442.22L408.26 445.763C408.26 445.968 408.373 446.159 408.556 446.264L411.738 448.035C411.921 448.14 412.153 448.14 412.336 448.035L415.518 446.264C415.701 446.159 415.814 445.968 415.814 445.763L415.814 442.22C415.814 442.015 415.701 441.824 415.518 441.719L412.638 440.114L412.638 433.449C412.44 433.573 412.208 433.645 411.955 433.645C411.767 433.65 411.594 433.607 411.436 433.54ZM414.617 442.549L414.617 445.424L412.035 446.861L409.452 445.424L409.452 442.549L412.01 441.122C412.059 441.127 414.617 442.549 414.617 442.549Z" fill="#EAF9FF"/>
<path d="M397.522 433.184C397.339 433.289 397.107 433.289 396.924 433.184L396.627 433.017L396.627 440.565L389.854 444.342L383.08 440.565L383.08 433.017L389.854 429.245L389.557 429.078C389.374 428.973 389.26 428.782 389.26 428.577L389.26 428.242L382.185 432.181C382.002 432.286 381.888 432.477 381.888 432.683L381.888 440.9C381.888 441.105 382.002 441.296 382.185 441.401L389.557 445.507C389.74 445.612 389.972 445.612 390.155 445.507L397.527 441.401C397.71 441.296 397.824 441.105 397.824 440.9L397.824 433.017L397.522 433.184Z" fill="#EAF9FF"/>
<path d="M390.451 428.242L397.225 432.019C397.225 432.014 390.451 428.242 390.451 428.242Z" fill="#EAF9FF"/>
<path d="M383.976 440.403L389.552 443.511C389.839 443.669 390.205 443.578 390.368 443.301C390.423 443.211 390.447 443.11 390.447 443.015C390.447 442.814 390.338 442.618 390.15 442.513L384.574 439.405C384.288 439.248 383.921 439.338 383.758 439.615C383.59 439.892 383.689 440.246 383.976 440.403Z" fill="#EAF9FF"/>
<path d="M389.334 430.29C389.171 430.566 389.265 430.92 389.552 431.077L395.128 434.186C395.415 434.343 395.781 434.252 395.944 433.975C395.999 433.885 396.023 433.784 396.023 433.689C396.023 433.488 395.915 433.293 395.722 433.188L390.146 430.079C389.864 429.917 389.498 430.013 389.334 430.29Z" fill="#EAF9FF"/>
<path d="M382.119 400.119L385.656 398.147C385.339 398.128 385.087 397.885 385.087 397.575L385.087 397.126L381.218 399.279C381.035 399.384 380.921 399.575 380.921 399.78L380.921 404.426C380.921 404.631 381.035 404.822 381.218 404.927L385.384 407.248C385.567 407.353 385.8 407.353 385.983 407.248L390.148 404.927C390.198 404.899 390.238 404.87 390.277 404.832L389.55 404.426C389.263 404.268 389.164 403.915 389.332 403.638C389.495 403.361 389.861 403.266 390.148 403.428L390.445 403.595L390.445 399.785C390.445 399.58 390.332 399.389 390.148 399.284L386.279 397.131L386.279 397.579C386.279 397.89 386.027 398.133 385.71 398.152L389.248 400.124L389.248 404.101L385.681 406.088L382.114 404.101L382.114 400.119L382.119 400.119Z" fill="#EAF9FF"/>
<path d="M418.136 421.649C418.19 421.559 418.215 421.458 418.215 421.363C418.215 421.162 418.106 420.967 417.918 420.862L412.342 417.753C412.055 417.596 411.689 417.687 411.526 417.963C411.362 418.24 411.456 418.594 411.743 418.751L417.319 421.859C417.601 422.022 417.967 421.926 418.136 421.649Z" fill="#EAF9FF"/>
<path d="M406.458 420.789C406.126 420.789 405.859 421.047 405.859 421.367L405.859 427.583C405.859 427.903 406.126 428.161 406.458 428.161C406.789 428.161 407.057 427.903 407.057 427.583L407.057 421.367C407.057 421.047 406.789 420.789 406.458 420.789Z" fill="#EAF9FF"/>
<path d="M411.436 415.923L404.663 419.7L404.633 419.719L404.524 419.781L404.366 419.872C404.301 419.905 404.252 419.953 404.207 420.006C404.197 420.02 404.188 420.029 404.178 420.044C404.148 420.087 404.123 420.134 404.103 420.187C404.089 420.22 404.089 420.259 404.079 420.297C404.074 420.316 404.069 420.33 404.069 420.349C404.064 420.368 404.064 420.545 404.064 420.545L404.064 420.703L404.064 420.913L404.064 428.213L404.064 428.261L404.064 428.581C404.064 428.786 404.178 428.977 404.361 429.082L404.559 429.192L404.628 429.23L410.723 432.629C410.783 433.04 411.055 433.384 411.431 433.551C411.589 433.622 411.762 433.661 411.945 433.661C412.198 433.661 412.43 433.589 412.628 433.465C412.89 433.298 413.083 433.035 413.153 432.73L419.698 429.082C419.881 428.977 420 428.786 420 428.581L420 420.364C420 420.158 419.886 419.967 419.698 419.862L412.623 415.923L412.321 415.756C412.307 415.747 412.287 415.751 412.272 415.742C412.208 415.713 412.138 415.694 412.069 415.689C412.044 415.689 412.02 415.685 411.99 415.685C411.896 415.689 411.802 415.708 411.718 415.756L411.436 415.923ZM418.813 420.698L418.813 428.246L412.806 431.593C412.584 431.388 412.287 431.264 411.955 431.264C411.658 431.264 411.386 431.369 411.174 431.541L405.266 428.246L405.266 420.698L408.655 418.812L412.044 416.926L418.813 420.698Z" fill="#EAF9FF"/>
<path d="M385.386 369.075L383.244 370.269C383.061 370.374 382.947 370.565 382.947 370.77L382.947 373.157C382.947 373.363 383.061 373.554 383.244 373.659L385.089 374.685L385.386 374.852C385.569 374.957 385.801 374.957 385.985 374.852L386.286 374.685L388.132 373.659C388.315 373.554 388.434 373.363 388.434 373.157L388.434 370.77C388.434 370.565 388.32 370.374 388.132 370.269L385.989 369.075C385.797 368.975 385.569 368.975 385.386 369.075ZM387.226 371.104L387.226 372.823L385.703 373.673C385.663 373.673 384.139 372.823 384.139 372.823L384.139 371.104L385.683 370.245L387.226 371.104Z" fill="#EAF9FF"/>
<path d="M395.984 408.019C395.984 408.492 396.241 408.883 396.622 409.084C396.642 409.093 396.662 409.108 396.687 409.117C396.85 409.194 397.028 409.237 397.221 409.237C397.439 409.237 397.642 409.179 397.82 409.084C397.839 409.074 397.864 409.065 397.884 409.05C398.23 408.84 398.463 408.468 398.463 408.038C398.463 407.375 397.909 406.84 397.221 406.84C396.989 406.84 396.771 406.907 396.583 407.016C396.232 407.227 395.994 407.594 395.984 408.019Z" fill="#EAF9FF"/>
<path d="M391.096 420.362C391.086 419.914 390.843 419.546 390.492 419.341C390.304 419.231 390.086 419.164 389.854 419.164C389.621 419.164 389.404 419.231 389.216 419.341C388.864 419.546 388.622 419.914 388.617 420.339C388.612 420.811 388.874 421.203 389.255 421.408C389.433 421.504 389.636 421.561 389.854 421.561C390.072 421.561 390.274 421.504 390.453 421.408C390.833 421.203 391.096 420.816 391.096 420.362Z" fill="#EAF9FF"/>
<path d="M410.799 408.125C410.799 408.598 411.056 408.989 411.437 409.19C411.615 409.285 411.818 409.343 412.036 409.343C412.253 409.343 412.456 409.285 412.634 409.19C413.015 408.985 413.277 408.598 413.277 408.144C413.267 407.695 413.025 407.328 412.674 407.122C412.486 407.013 412.268 406.946 412.036 406.946C411.803 406.946 411.585 407.013 411.397 407.122C411.046 407.333 410.809 407.7 410.799 408.125Z" fill="#EAF9FF"/>
<path d="M134.246 78.7305C134.446 78.6119 134.57 78.3962 134.57 78.1643L134.57 74.1627C134.57 73.9308 134.446 73.7151 134.246 73.5964L131.803 72.1888C131.792 72.6688 131.533 73.0841 131.15 73.316L133.27 74.5402L133.27 77.7867L130.455 79.41L127.64 77.7867L127.64 74.5402L129.759 73.316C129.376 73.0841 129.112 72.6688 129.106 72.1888L126.663 73.5964C126.464 73.7151 126.34 73.9308 126.34 74.1627L126.34 78.1643C126.34 78.3962 126.464 78.6119 126.663 78.7305L130.131 80.7313C130.331 80.85 130.584 80.85 130.784 80.7313L134.246 78.7305Z" fill="#EAF9FF"/>
<path d="M153.976 49.4569L153.976 57.1797C154.17 57.0718 154.392 57.0071 154.629 57.0071C154.866 57.0071 155.087 57.0718 155.281 57.1797L155.281 49.4569L155.281 49.0794C155.281 48.8475 155.157 48.6318 154.958 48.5131L154.634 48.3244L147.246 44.0585L146.922 43.8698C146.723 43.7511 146.469 43.7511 146.27 43.8698L145.946 44.0585L138.525 48.3406L138.601 48.3837L138.817 48.5077C139.016 48.6264 139.14 48.8421 139.14 49.074L139.14 49.4354L139.14 49.4893L146.593 45.1857C146.593 45.1911 153.976 49.4569 153.976 49.4569Z" fill="#EAF9FF"/>
<path d="M155.326 59.5142L161.496 63.0736L161.496 66.633C161.496 66.8649 161.62 67.0806 161.819 67.1993L165.287 69.2001C165.487 69.3187 165.74 69.3187 165.94 69.2001L169.407 67.1993C169.607 67.0806 169.731 66.8649 169.731 66.633L169.731 62.6314C169.731 62.3995 169.607 62.1838 169.407 62.0652L165.94 60.0643C165.74 59.9457 165.487 59.9457 165.287 60.0643L162.089 61.9087L155.979 58.3817C155.973 58.8671 155.714 59.2823 155.326 59.5142ZM165.616 61.3856L168.431 63.0089L168.431 66.2555L165.616 67.8788L162.801 66.2555L162.801 63.6291C162.979 63.5914 163.135 63.4889 163.232 63.3217C163.34 63.1384 163.335 62.9226 163.254 62.7447L165.616 61.3856Z" fill="#EAF9FF"/>
<path d="M147.289 73.4336L153.976 77.295L154.3 77.4837C154.613 77.6617 155.012 77.5592 155.19 77.2464C155.368 76.9336 155.26 76.5346 154.953 76.3566L154.16 75.8982L147.936 72.3064C147.936 72.7864 147.677 73.2017 147.289 73.4336Z" fill="#EAF9FF"/>
<path d="M146.594 70.9249C146.804 70.9249 146.998 70.9788 147.176 71.0597C147.198 71.0705 147.225 71.0867 147.247 71.0975L147.247 63.3747L153.934 59.5133C153.551 59.2814 153.287 58.8662 153.281 58.3862L150.288 60.1173L146.594 62.2476L139.206 57.9817C139.2 57.8954 139.173 57.8145 139.135 57.7444L139.135 57.9817L139.135 58.1597L139.135 58.3592C139.135 58.494 139.092 58.6181 139.017 58.7259C139.006 58.7421 138.995 58.7529 138.984 58.7691C138.936 58.8284 138.882 58.8823 138.812 58.9201L138.639 59.0225L138.521 59.0927L138.488 59.1142L145.871 63.3801L145.871 71.1406C145.893 71.1244 145.92 71.1137 145.941 71.1029C146.136 70.995 146.357 70.9249 146.594 70.9249Z" fill="#EAF9FF"/>
<path d="M137.837 57.9833L134.143 60.1135L137.837 57.9833Z" fill="#EAF9FF"/>
<path d="M131.105 63.3764L130.782 63.5651C130.69 63.619 130.588 63.6406 130.485 63.646C130.458 63.646 130.431 63.6406 130.399 63.6406C130.323 63.6352 130.248 63.6137 130.178 63.5813C130.162 63.5759 130.14 63.5759 130.124 63.5651L129.795 63.3764L129.795 70.9805C129.989 70.8726 130.21 70.8079 130.447 70.8079C130.685 70.8079 130.906 70.8726 131.1 70.9805L131.1 63.3764L131.105 63.3764Z" fill="#EAF9FF"/>
<path d="M159.828 109.957L159.828 101.641L162.967 99.829C163.166 99.7103 163.29 99.4946 163.29 99.2627L163.29 95.2611C163.29 95.0292 163.166 94.8135 162.967 94.6949L159.828 92.8828L159.828 84.6046L159.828 84.0976C159.828 83.7471 159.553 83.472 159.208 83.4505C159.197 83.4505 159.186 83.4451 159.175 83.4451C159.165 83.4451 159.154 83.4505 159.143 83.4505C158.798 83.472 158.523 83.7471 158.523 84.0976L158.523 84.6046L158.523 92.8828L155.384 94.6949C155.185 94.8135 155.061 95.0292 155.061 95.2611L155.061 99.2627C155.061 99.4946 155.185 99.7103 155.384 99.829L158.523 101.641L158.523 109.957L158.852 109.768C159.051 109.65 159.305 109.65 159.504 109.768L159.828 109.957ZM156.36 98.8852L156.36 95.6386L159.148 94.0261C159.192 94.0261 161.985 95.6386 161.985 95.6386L161.985 98.8852L159.17 100.509L156.36 98.8852Z" fill="#EAF9FF"/>
<path d="M131.105 43.4639L131.105 36.0378L134.244 34.2257C134.443 34.1071 134.567 33.8914 134.567 33.6595L134.567 29.6579C134.567 29.426 134.443 29.2102 134.244 29.0916L130.776 27.0908C130.576 26.9721 130.323 26.9721 130.123 27.0908L126.656 29.0916C126.456 29.2102 126.332 29.426 126.332 29.6579L126.332 33.6595C126.332 33.8914 126.456 34.1071 126.656 34.2257L129.794 36.0378L129.794 43.5664C130.01 43.4262 130.264 43.3453 130.539 43.3453C130.743 43.3399 130.932 43.3884 131.105 43.4639ZM127.637 33.2874L127.637 30.0408L130.452 28.4175L133.267 30.0408L133.267 33.2874L130.479 34.8999C130.425 34.8945 127.637 33.2874 127.637 33.2874Z" fill="#EAF9FF"/>
<path d="M146.27 43.8753C146.47 43.7566 146.723 43.7566 146.923 43.8753L147.247 44.064L147.247 35.5377L154.63 31.2718L162.013 35.5377L162.013 44.064L154.63 48.3245L154.953 48.5133C155.153 48.6319 155.277 48.8476 155.277 49.0795L155.277 49.457L162.989 45.0078C163.188 44.8892 163.312 44.6735 163.312 44.4416L163.312 35.1602C163.312 34.9283 163.188 34.7126 162.989 34.5939L154.953 29.9559C154.754 29.8373 154.5 29.8373 154.301 29.9559L146.265 34.5939C146.065 34.7126 145.941 34.9283 145.941 35.1602L145.941 44.064L146.27 43.8753Z" fill="#EAF9FF"/>
<path d="M153.977 49.457L146.594 45.1912C146.594 45.1965 153.977 49.457 153.977 49.457Z" fill="#EAF9FF"/>
<path d="M161.036 35.724L154.959 32.2131C154.646 32.0352 154.247 32.1376 154.069 32.4504C154.009 32.5529 153.982 32.6662 153.982 32.774C153.982 33.0005 154.101 33.2217 154.306 33.3403L160.384 36.8511C160.697 37.0291 161.096 36.9266 161.274 36.6138C161.457 36.3011 161.349 35.902 161.036 35.724Z" fill="#EAF9FF"/>
<path d="M155.196 47.1459C155.374 46.8331 155.271 46.434 154.958 46.2561L148.88 42.7452C148.568 42.5672 148.169 42.6697 147.991 42.9825C147.931 43.085 147.904 43.1982 147.904 43.3061C147.904 43.5326 148.023 43.7537 148.233 43.8723L154.311 47.3832C154.619 47.5665 155.018 47.4587 155.196 47.1459Z" fill="#EAF9FF"/>
<path d="M163.063 81.2236L159.207 83.4509C159.552 83.4724 159.827 83.7475 159.827 84.098L159.827 84.605L164.044 82.1727C164.244 82.0541 164.368 81.8384 164.368 81.6065L164.368 76.3591C164.368 76.1272 164.244 75.9115 164.044 75.7928L159.503 73.1718C159.304 73.0532 159.05 73.0532 158.851 73.1718L154.31 75.7928C154.256 75.8252 154.213 75.8575 154.17 75.9007L154.962 76.3591C155.275 76.5371 155.383 76.9361 155.2 77.2489C155.022 77.5617 154.623 77.6696 154.31 77.4862L153.986 77.2975L153.986 81.6011C153.986 81.833 154.11 82.0487 154.31 82.1673L158.527 84.5996L158.527 84.0926C158.527 83.7421 158.802 83.467 159.147 83.4455L155.291 81.2182L155.291 76.7258L159.18 74.4823L163.068 76.7258L163.068 81.2236L163.063 81.2236Z" fill="#EAF9FF"/>
<path d="M123.801 56.9029C123.742 57.0053 123.715 57.1186 123.715 57.2264C123.715 57.4529 123.833 57.6741 124.038 57.7927L130.116 61.3035C130.429 61.4815 130.828 61.379 131.006 61.0662C131.184 60.7534 131.082 60.3544 130.769 60.1764L124.691 56.6656C124.384 56.4822 123.984 56.5901 123.801 56.9029Z" fill="#EAF9FF"/>
<path d="M136.53 57.8789C136.891 57.8789 137.182 57.5877 137.182 57.2263L137.182 50.2047C137.182 49.8434 136.891 49.5521 136.53 49.5521C136.168 49.5521 135.877 49.8434 135.877 50.2047L135.877 57.2263C135.877 57.5877 136.168 57.8789 136.53 57.8789Z" fill="#EAF9FF"/>
<path d="M131.105 63.3749L138.488 59.109L138.52 59.0874L138.639 59.0173L138.811 58.9149C138.882 58.8771 138.935 58.8232 138.984 58.7639C138.995 58.7477 139.006 58.7369 139.016 58.7207C139.049 58.6722 139.076 58.6183 139.097 58.5589C139.113 58.5212 139.113 58.478 139.124 58.4349C139.13 58.4133 139.135 58.3971 139.135 58.3756C139.14 58.354 139.14 58.1545 139.14 58.1545L139.14 57.9765L139.14 57.7392L139.14 49.4933L139.14 49.4394L139.14 49.078C139.14 48.8461 139.016 48.6304 138.817 48.5118L138.601 48.3878L138.526 48.3446L131.881 44.5048C131.817 44.041 131.52 43.6527 131.11 43.464C130.938 43.3831 130.749 43.3399 130.549 43.3399C130.274 43.3399 130.021 43.4208 129.805 43.561C129.519 43.7498 129.309 44.0464 129.233 44.3915L122.099 48.5118C121.899 48.6304 121.77 48.8461 121.77 49.078L121.77 58.3594C121.77 58.5913 121.894 58.807 122.099 58.9257L129.81 63.3749L130.139 63.5636C130.156 63.5744 130.177 63.569 130.193 63.5798C130.264 63.6122 130.339 63.6337 130.415 63.6391C130.441 63.6391 130.468 63.6445 130.501 63.6445C130.603 63.6391 130.706 63.6176 130.797 63.5636L131.105 63.3749ZM123.064 57.9819L123.064 49.4556L129.611 45.6751C129.854 45.907 130.177 46.0472 130.539 46.0472C130.862 46.0472 131.159 45.9285 131.391 45.7344L137.83 49.4556L137.83 57.9819L134.136 60.1121L130.441 62.2424L123.064 57.9819Z" fill="#EAF9FF"/>
<path d="M159.5 116.29L161.835 114.942C162.035 114.823 162.159 114.607 162.159 114.376L162.159 111.679C162.159 111.447 162.035 111.231 161.835 111.113L159.823 109.953L159.5 109.765C159.3 109.646 159.047 109.646 158.847 109.765L158.518 109.953L156.507 111.113C156.307 111.231 156.178 111.447 156.178 111.679L156.178 114.376C156.178 114.607 156.302 114.823 156.507 114.942L158.842 116.29C159.052 116.403 159.3 116.403 159.5 116.29ZM157.494 113.998L157.494 112.057L159.155 111.097C159.198 111.097 160.859 112.057 160.859 112.057L160.859 113.998L159.176 114.969L157.494 113.998Z" fill="#EAF9FF"/>
<path d="M147.948 72.3039C147.948 71.77 147.668 71.3278 147.252 71.1013C147.231 71.0905 147.209 71.0743 147.182 71.0636C147.004 70.9773 146.81 70.9287 146.6 70.9287C146.362 70.9287 146.141 70.9934 145.947 71.1013C145.926 71.1121 145.899 71.1229 145.877 71.1391C145.5 71.3764 145.246 71.797 145.246 72.2824C145.246 73.032 145.85 73.636 146.6 73.636C146.853 73.636 147.091 73.5605 147.295 73.4364C147.678 73.1992 147.937 72.7839 147.948 72.3039Z" fill="#EAF9FF"/>
<path d="M153.275 58.3612C153.286 58.8681 153.55 59.2834 153.933 59.5153C154.138 59.6393 154.376 59.7148 154.629 59.7148C154.883 59.7148 155.12 59.6393 155.325 59.5153C155.708 59.2834 155.972 58.8681 155.977 58.3882C155.983 57.8542 155.697 57.412 155.282 57.1801C155.087 57.0723 154.866 57.0075 154.629 57.0076C154.392 57.0076 154.171 57.0723 153.976 57.1801C153.561 57.412 153.275 57.8489 153.275 58.3612Z" fill="#EAF9FF"/>
<path d="M131.8 72.1835C131.8 71.6496 131.519 71.2074 131.104 70.9809C130.91 70.8731 130.689 70.8083 130.451 70.8083C130.214 70.8083 129.993 70.8731 129.799 70.9809C129.383 71.2128 129.098 71.6496 129.098 72.162C129.108 72.6689 129.373 73.0842 129.756 73.3161C129.961 73.4401 130.198 73.5156 130.451 73.5156C130.705 73.5156 130.942 73.4401 131.147 73.3161C131.53 73.0788 131.789 72.6635 131.8 72.1835Z" fill="#EAF9FF"/>
<path d="M124.356 113.166L124.446 105.945L124.273 106.047C124.132 106.129 123.956 106.129 123.815 106.047L123.533 105.882L123.443 113.244L117.973 116.402L111.465 112.582L111.465 112.809C111.465 112.974 111.379 113.123 111.238 113.205L110.979 113.354L117.546 117.21L117.546 123.4L111.034 127.099L108.464 125.614C108.323 125.532 108.146 125.532 108.005 125.614L105.227 127.216C105.086 127.299 105 127.448 105 127.612L105 130.817C105 130.982 105.086 131.131 105.227 131.213L108.005 132.816C108.146 132.898 108.323 132.898 108.464 132.816L111.242 131.213C111.383 131.131 111.469 130.982 111.469 130.817L111.469 127.902L117.875 124.262L123.357 127.428L123.357 133.008L123.713 132.804C123.854 132.721 124.03 132.721 124.171 132.804L124.273 132.863L124.273 127.608L129.931 124.341L134.022 126.652L134.022 128.357C134.022 128.521 134.108 128.67 134.249 128.752L136.051 129.791L136.051 131.762L134.758 132.51C134.617 132.592 134.531 132.741 134.531 132.906L134.531 134.665C134.531 134.829 134.617 134.978 134.758 135.061L136.282 135.938C136.424 136.021 136.6 136.021 136.741 135.938L138.265 135.061C138.406 134.978 138.492 134.829 138.492 134.665L138.492 132.906C138.492 132.741 138.406 132.592 138.265 132.51L136.972 131.762L136.972 129.791L138.453 128.937L140.651 130.241L140.651 131.852C140.651 132.016 140.737 132.165 140.878 132.247L142.399 133.125C142.54 133.207 142.716 133.207 142.857 133.125L144.381 132.247C144.522 132.165 144.609 132.016 144.609 131.852L144.609 130.092C144.609 129.928 144.522 129.779 144.381 129.697L142.857 128.819C142.716 128.737 142.54 128.737 142.399 128.819L141.204 129.509L139.002 128.2L139.002 126.26L141.255 124.877L142.375 125.524C142.516 125.606 142.693 125.606 142.834 125.524L144.358 124.646C144.499 124.564 144.585 124.415 144.585 124.25L144.585 122.491C144.585 122.327 144.499 122.178 144.358 122.095L142.834 121.218C142.693 121.136 142.516 121.136 142.375 121.218L140.855 122.095C140.714 122.178 140.628 122.327 140.628 122.491L140.628 124.192L138.539 125.477L136.749 124.442C136.608 124.36 136.431 124.36 136.29 124.442L134.261 125.614C134.229 125.634 134.214 125.665 134.186 125.688L130.405 123.553L130.405 117.601L136.851 114.396L138.32 115.243C138.461 115.325 138.637 115.325 138.778 115.243L140.808 114.071C140.949 113.989 141.035 113.84 141.035 113.675L141.035 111.332C141.035 111.168 140.949 111.019 140.808 110.937L138.778 109.765C138.637 109.683 138.461 109.683 138.32 109.765L136.29 110.937C136.149 111.019 136.063 111.168 136.063 111.332L136.063 113.675C136.063 113.703 136.079 113.73 136.087 113.758L130.296 116.637C130.26 116.594 130.229 116.551 130.178 116.52L124.356 113.166ZM110.548 130.555L108.229 131.895L105.909 130.555L105.909 127.875L108.229 126.535L110.109 127.62L110.548 127.875L110.548 128.419L110.548 130.555ZM143.68 131.585L142.614 132.2L141.548 131.585L141.548 130.782L141.548 130.355L142.093 130.041L142.614 129.74L143.68 130.355L143.68 131.585ZM141.525 122.754L142.591 122.139L143.656 122.754L143.656 122.875L143.656 123.326L143.656 123.984L142.591 124.599L142.128 124.333L141.529 123.984L141.529 123.627L141.529 122.754L141.525 122.754ZM138.077 126.272L138.077 126.821L138.077 127.655L138.077 127.89L138.077 128.086L137.54 128.396L137.333 128.517L136.96 128.733L136.502 128.995L136.043 128.733L134.927 128.09L134.927 127.166L134.927 126.276L135.064 126.198L136.498 125.371L137.63 126.025L138.077 126.272ZM136.502 132.549L136.96 132.812L137.568 133.164L137.568 134.395L136.843 134.814L136.596 134.959L136.502 135.014L136.408 134.959L136.161 134.814L135.436 134.395L135.436 133.164L136.043 132.812L136.502 132.549ZM136.96 113.311L136.96 111.595L138.531 110.686L140.103 111.595L140.103 113.413L138.531 114.322L137.814 113.91L136.956 113.417L136.956 113.311L136.96 113.311ZM129.477 117.178L129.477 118.052L129.477 123.032L129.477 123.537L129.003 123.812L124.269 126.546L123.968 126.719L123.357 126.366L118.796 123.733L118.459 123.537L118.459 122.875L118.459 117.742L118.459 117.174L118.882 116.931L123.435 114.302L123.972 113.993L124.352 114.212L129.347 117.096L129.477 117.178Z" fill="#67CDF5" fill-opacity="0.5"/>
<path d="M123.42 115.003L119.47 117.283L119.282 117.393C119.141 117.475 119.055 117.624 119.055 117.789L119.055 118.098L119.055 122.541L119.055 122.937C119.055 123.102 119.141 123.251 119.282 123.333L119.396 123.399L123.353 125.684L123.737 125.903C123.878 125.985 124.054 125.985 124.195 125.903L124.27 125.86L128.399 123.478L128.65 123.333C128.791 123.251 128.877 123.102 128.877 122.937L128.877 122.702L128.877 118.357L128.877 117.793C128.877 117.648 128.799 117.518 128.685 117.432C128.674 117.42 128.666 117.405 128.65 117.397L124.336 114.905L124.195 114.823C124.054 114.74 123.878 114.74 123.737 114.823L123.42 115.003ZM127.965 118.051L127.965 118.803L127.965 122.177L127.965 122.667L127.475 122.949L124.27 124.798L123.968 124.971L123.357 124.618L120.32 122.867L119.972 122.663L119.972 122.012L119.972 118.627L119.972 118.047L120.383 117.812L123.412 116.065L123.968 115.743L124.325 115.951L127.718 117.91L127.965 118.051Z" fill="#67CDF5" fill-opacity="0.5"/>
<path d="M109.393 112.242C109.326 112.438 109.279 112.642 109.279 112.861C109.279 113.908 110.13 114.754 111.172 114.754C112.218 114.754 113.064 113.904 113.064 112.861C113.064 112.642 113.021 112.438 112.951 112.242C112.872 112.015 112.751 111.807 112.594 111.627C112.245 111.228 111.74 110.965 111.168 110.965C110.596 110.965 110.09 111.224 109.742 111.627C109.593 111.807 109.471 112.015 109.393 112.242Z" fill="#67CDF5" fill-opacity="0.5"/>
<path d="M122.18 105.266C122.113 105.462 122.066 105.665 122.066 105.885C122.066 106.931 122.917 107.777 123.959 107.777C125.005 107.777 125.851 106.927 125.851 105.885C125.851 105.665 125.808 105.462 125.738 105.266C125.659 105.039 125.538 104.831 125.381 104.651C125.032 104.251 124.527 103.989 123.955 103.989C123.383 103.989 122.877 104.247 122.529 104.651C122.384 104.831 122.262 105.039 122.18 105.266Z" fill="#67CDF5" fill-opacity="0.5"/>
<path d="M122.25 133.385C122.215 133.51 122.191 133.64 122.191 133.777C122.191 134.462 122.666 135.035 123.304 135.195C123.418 135.223 123.535 135.242 123.661 135.242C123.782 135.242 123.904 135.223 124.017 135.195C124.656 135.035 125.13 134.462 125.13 133.777C125.13 132.966 124.472 132.308 123.665 132.308C123.249 132.308 122.873 132.484 122.607 132.766C122.434 132.938 122.317 133.15 122.25 133.385Z" fill="#67CDF5" fill-opacity="0.5"/>
<path d="M441.555 339.123L447 336.234L447.5 338L442.055 341.734L441.555 339.123Z" fill="#142E8F"/>
<path d="M286.5 401L293.5 396L295 397.5L289 401.5L286.5 401Z" fill="#0E2187"/>
<defs>
<filter id="filter0_f" x="1.92773" y="81.4453" width="281.413" height="199.365" filterUnits="userSpaceOnUse" color-interpolation-filters="sRGB">
<feFlood flood-opacity="0" result="BackgroundImageFix"/>
<feBlend mode="normal" in="SourceGraphic" in2="BackgroundImageFix" result="shape"/>
<feGaussianBlur stdDeviation="22" result="effect1_foregroundBlur"/>
</filter>
<filter id="filter1_f" x="285.184" y="379.461" width="281.413" height="199.365" filterUnits="userSpaceOnUse" color-interpolation-filters="sRGB">
<feFlood flood-opacity="0" result="BackgroundImageFix"/>
<feBlend mode="normal" in="SourceGraphic" in2="BackgroundImageFix" result="shape"/>
<feGaussianBlur stdDeviation="22" result="effect1_foregroundBlur"/>
</filter>
<filter id="filter2_f" x="241.318" y="14.0273" width="369.622" height="349.986" filterUnits="userSpaceOnUse" color-interpolation-filters="sRGB">
<feFlood flood-opacity="0" result="BackgroundImageFix"/>
<feBlend mode="normal" in="SourceGraphic" in2="BackgroundImageFix" result="shape"/>
<feGaussianBlur stdDeviation="22" result="effect1_foregroundBlur"/>
</filter>
<linearGradient id="paint0_linear" x1="208.324" y1="186.762" x2="210.558" y2="226.684" gradientUnits="userSpaceOnUse">
<stop stop-color="#DEF8F9"/>
<stop offset="1" stop-color="#F6FDFD"/>
</linearGradient>
<linearGradient id="paint1_linear" x1="89.1096" y1="194.211" x2="71.0467" y2="295.473" gradientUnits="userSpaceOnUse">
<stop stop-color="#DEF8F9"/>
<stop offset="1" stop-color="white"/>
</linearGradient>
<linearGradient id="paint2_linear" x1="314.083" y1="143.968" x2="346.613" y2="79.4574" gradientUnits="userSpaceOnUse">
<stop stop-color="#C0BFF6"/>
<stop offset="0.29" stop-color="#C5C4F7"/>
<stop offset="0.64" stop-color="#D3D2F9"/>
<stop offset="1" stop-color="#E9E9FD"/>
</linearGradient>
<linearGradient id="paint3_linear" x1="341.001" y1="206.165" x2="350.645" y2="378.566" gradientUnits="userSpaceOnUse">
<stop stop-color="#DEF8F9"/>
<stop offset="1" stop-color="#F6FDFD"/>
</linearGradient>
<linearGradient id="paint4_linear" x1="-45858.7" y1="26804.8" x2="-80083.9" y2="28719.5" gradientUnits="userSpaceOnUse">
<stop stop-color="#C0BFF6"/>
<stop offset="0.29" stop-color="#C5C4F7"/>
<stop offset="0.64" stop-color="#D3D2F9"/>
<stop offset="1" stop-color="#E9E9FD"/>
</linearGradient>
<linearGradient id="paint5_linear" x1="528.75" y1="196.76" x2="489.644" y2="198.948" gradientUnits="userSpaceOnUse">
<stop stop-color="#5761D7"/>
<stop offset="0.18" stop-color="#5C66D9"/>
<stop offset="0.39" stop-color="#6A73DF"/>
<stop offset="0.61" stop-color="#8289E8"/>
<stop offset="0.85" stop-color="#A3A7F5"/>
<stop offset="1" stop-color="#BCBEFF"/>
</linearGradient>
<linearGradient id="paint6_linear" x1="75873.9" y1="27154.8" x2="144181" y2="23333.5" gradientUnits="userSpaceOnUse">
<stop stop-color="#5031B0"/>
<stop offset="0.18" stop-color="#5C66D9"/>
<stop offset="0.39" stop-color="#6A73DF"/>
<stop offset="0.61" stop-color="#8289E8"/>
<stop offset="0.85" stop-color="#A3A7F5"/>
<stop offset="1" stop-color="#BCBEFF"/>
</linearGradient>
<linearGradient id="paint7_linear" x1="339.148" y1="238.789" x2="345.689" y2="355.729" gradientUnits="userSpaceOnUse">
<stop stop-color="#DEF8F9"/>
<stop offset="1" stop-color="#F6FDFD"/>
</linearGradient>
<linearGradient id="paint8_linear" x1="-26708.8" y1="10195.2" x2="-31189.7" y2="10445.8" gradientUnits="userSpaceOnUse">
<stop stop-color="#463E90"/>
<stop offset="0.29" stop-color="#C5C4F7"/>
<stop offset="0.64" stop-color="#D3D2F9"/>
<stop offset="1" stop-color="#E9E9FD"/>
</linearGradient>
<linearGradient id="paint9_linear" x1="-69064.5" y1="25823.8" x2="-137441" y2="29648.9" gradientUnits="userSpaceOnUse">
<stop stop-color="#C0BFF6"/>
<stop offset="0.29" stop-color="#C5C4F7"/>
<stop offset="0.64" stop-color="#D3D2F9"/>
<stop offset="1" stop-color="#E9E9FD"/>
</linearGradient>
<linearGradient id="paint10_linear" x1="-16303.2" y1="5922.55" x2="-20781.6" y2="6173.08" gradientUnits="userSpaceOnUse">
<stop stop-color="#C0BFF6"/>
<stop offset="0.29" stop-color="#C5C4F7"/>
<stop offset="0.64" stop-color="#D3D2F9"/>
<stop offset="1" stop-color="#E9E9FD"/>
</linearGradient>
<linearGradient id="paint11_linear" x1="-37896.3" y1="-19842.9" x2="-54504.9" y2="-18913.8" gradientUnits="userSpaceOnUse">
<stop stop-color="#5761D7"/>
<stop offset="0.18" stop-color="#5C66D9"/>
<stop offset="0.39" stop-color="#6A73DF"/>
<stop offset="0.61" stop-color="#8289E8"/>
<stop offset="0.85" stop-color="#A3A7F5"/>
<stop offset="1" stop-color="#BCBEFF"/>
</linearGradient>
<radialGradient id="paint12_radial" cx="0" cy="0" r="1" gradientUnits="userSpaceOnUse" gradientTransform="translate(267.413 291.171) rotate(176.798) scale(75.603 75.8325)">
<stop stop-color="#2B237C"/>
<stop offset="1" stop-color="#180D5B"/>
</radialGradient>
<linearGradient id="paint13_linear" x1="150.787" y1="251.65" x2="277.624" y2="409.865" gradientUnits="userSpaceOnUse">
<stop stop-color="#070F4B"/>
<stop offset="1" stop-color="#422B9D"/>
</linearGradient>
<linearGradient id="paint14_linear" x1="-41037.7" y1="-18406.2" x2="-57655.5" y2="-17476.6" gradientUnits="userSpaceOnUse">
<stop stop-color="#5031B0"/>
<stop offset="0.29" stop-color="#7159C6"/>
<stop offset="0.64" stop-color="#9E89E9"/>
<stop offset="1" stop-color="#D0D0FF"/>
</linearGradient>
<linearGradient id="paint15_linear" x1="135.416" y1="267.949" x2="136.175" y2="281.503" gradientUnits="userSpaceOnUse">
<stop stop-color="#DEF8F9"/>
<stop offset="1" stop-color="#F6FDFD"/>
</linearGradient>
<linearGradient id="paint16_linear" x1="493.183" y1="335.695" x2="498.582" y2="432.205" gradientUnits="userSpaceOnUse">
<stop stop-color="#DEF8F9"/>
<stop offset="1" stop-color="#F6FDFD"/>
</linearGradient>
<linearGradient id="paint17_linear" x1="42817.1" y1="11100.4" x2="54214.7" y2="1919.38" gradientUnits="userSpaceOnUse">
<stop stop-color="#5031B0"/>
<stop offset="0.18" stop-color="#5C66D9"/>
<stop offset="0.39" stop-color="#6A73DF"/>
<stop offset="0.61" stop-color="#8289E8"/>
<stop offset="0.85" stop-color="#A3A7F5"/>
<stop offset="1" stop-color="#BCBEFF"/>
</linearGradient>
<linearGradient id="paint18_linear" x1="-11760.8" y1="2458.49" x2="-11992" y2="2189.18" gradientUnits="userSpaceOnUse">
<stop stop-color="#C0BFF6"/>
<stop offset="0.29" stop-color="#C5C4F7"/>
<stop offset="0.64" stop-color="#D3D2F9"/>
<stop offset="1" stop-color="#E9E9FD"/>
</linearGradient>
<linearGradient id="paint19_linear" x1="311.064" y1="27.5392" x2="319.704" y2="181.987" gradientUnits="userSpaceOnUse">
<stop stop-color="#DEF8F9"/>
<stop offset="1" stop-color="#F6FDFD"/>
</linearGradient>
<linearGradient id="paint20_linear" x1="311.427" y1="50.1595" x2="315.728" y2="127.038" gradientUnits="userSpaceOnUse">
<stop stop-color="#DEF8F9"/>
<stop offset="1" stop-color="#F6FDFD"/>
</linearGradient>
<linearGradient id="paint21_linear" x1="313.25" y1="82.7376" x2="317.55" y2="159.616" gradientUnits="userSpaceOnUse">
<stop stop-color="#DEF8F9"/>
<stop offset="1" stop-color="#F6FDFD"/>
</linearGradient>
<linearGradient id="paint22_linear" x1="336.733" y1="94.6384" x2="337.38" y2="106.214" gradientUnits="userSpaceOnUse">
<stop stop-color="#DEF8F9"/>
<stop offset="1" stop-color="#F6FDFD"/>
</linearGradient>
<linearGradient id="paint23_linear" x1="324.967" y1="88.6818" x2="325.615" y2="100.258" gradientUnits="userSpaceOnUse">
<stop stop-color="#DEF8F9"/>
<stop offset="1" stop-color="#F6FDFD"/>
</linearGradient>
<linearGradient id="paint24_linear" x1="313.271" y1="82.7261" x2="313.918" y2="94.302" gradientUnits="userSpaceOnUse">
<stop stop-color="#DEF8F9"/>
<stop offset="1" stop-color="#F6FDFD"/>
</linearGradient>
<linearGradient id="paint25_linear" x1="301.518" y1="76.7634" x2="302.163" y2="88.2937" gradientUnits="userSpaceOnUse">
<stop stop-color="#DEF8F9"/>
<stop offset="1" stop-color="#F6FDFD"/>
</linearGradient>
<linearGradient id="paint26_linear" x1="289.748" y1="70.8298" x2="290.393" y2="82.3449" gradientUnits="userSpaceOnUse">
<stop stop-color="#DEF8F9"/>
<stop offset="1" stop-color="#F6FDFD"/>
</linearGradient>
<linearGradient id="paint27_linear" x1="338.555" y1="127.209" x2="339.203" y2="138.8" gradientUnits="userSpaceOnUse">
<stop stop-color="#DEF8F9"/>
<stop offset="1" stop-color="#F6FDFD"/>
</linearGradient>
<linearGradient id="paint28_linear" x1="326.797" y1="121.259" x2="327.441" y2="132.775" gradientUnits="userSpaceOnUse">
<stop stop-color="#DEF8F9"/>
<stop offset="1" stop-color="#F6FDFD"/>
</linearGradient>
<linearGradient id="paint29_linear" x1="315.057" y1="115.345" x2="315.703" y2="126.891" gradientUnits="userSpaceOnUse">
<stop stop-color="#DEF8F9"/>
<stop offset="1" stop-color="#F6FDFD"/>
</linearGradient>
<linearGradient id="paint30_linear" x1="303.342" y1="109.357" x2="303.991" y2="120.963" gradientUnits="userSpaceOnUse">
<stop stop-color="#DEF8F9"/>
<stop offset="1" stop-color="#F6FDFD"/>
</linearGradient>
<linearGradient id="paint31_linear" x1="291.571" y1="103.4" x2="292.216" y2="114.93" gradientUnits="userSpaceOnUse">
<stop stop-color="#DEF8F9"/>
<stop offset="1" stop-color="#F6FDFD"/>
</linearGradient>
<linearGradient id="paint32_linear" x1="85.3063" y1="171.272" x2="166.591" y2="168.831" gradientUnits="userSpaceOnUse">
<stop offset="0.25" stop-color="#5761D7"/>
<stop offset="0.44" stop-color="#6C74DF"/>
<stop offset="0.82" stop-color="#A2A6F5"/>
<stop offset="1" stop-color="#BCBEFF"/>
</linearGradient>
<linearGradient id="paint33_linear" x1="6020.27" y1="5293.08" x2="14603.7" y2="5035.3" gradientUnits="userSpaceOnUse">
<stop stop-color="#C0BFF6"/>
<stop offset="0.29" stop-color="#C5C4F7"/>
<stop offset="0.64" stop-color="#D3D2F9"/>
<stop offset="1" stop-color="#E9E9FD"/>
</linearGradient>
<linearGradient id="paint34_linear" x1="141.503" y1="146.805" x2="143.375" y2="180.271" gradientUnits="userSpaceOnUse">
<stop stop-color="#DEF8F9"/>
<stop offset="1" stop-color="#F6FDFD"/>
</linearGradient>
<linearGradient id="paint35_linear" x1="140.387" y1="126.881" x2="142.668" y2="167.67" gradientUnits="userSpaceOnUse">
<stop stop-color="#DEF8F9"/>
<stop offset="1" stop-color="#F6FDFD"/>
</linearGradient>
<linearGradient id="paint36_linear" x1="116.661" y1="149.353" x2="95.23" y2="111.392" gradientUnits="userSpaceOnUse">
<stop stop-color="#71E2FB" stop-opacity="0.65"/>
<stop offset="0.243575" stop-color="#71E2FB" stop-opacity="0.467969"/>
<stop offset="0.477954" stop-color="#71E2FB" stop-opacity="0.314343"/>
<stop offset="0.712333" stop-color="#71E2FB" stop-opacity="0.149743"/>
<stop offset="1" stop-color="#71E2FB" stop-opacity="0"/>
</linearGradient>
<linearGradient id="paint37_linear" x1="369.46" y1="416.893" x2="474.071" y2="475.998" gradientUnits="userSpaceOnUse">
<stop stop-color="#BCBEFF"/>
<stop offset="0.23" stop-color="#AAADF8"/>
<stop offset="0.68" stop-color="#7C83E5"/>
<stop offset="1" stop-color="#5761D7"/>
</linearGradient>
<linearGradient id="paint38_linear" x1="356.576" y1="440.057" x2="487.301" y2="439.498" gradientUnits="userSpaceOnUse">
<stop stop-color="#E9E9FD"/>
<stop offset="0.36" stop-color="#D3D2F9"/>
<stop offset="0.71" stop-color="#C5C4F7"/>
<stop offset="1" stop-color="#C0BFF6"/>
</linearGradient>
<linearGradient id="paint39_linear" x1="421.938" y1="440.838" x2="422.104" y2="479.58" gradientUnits="userSpaceOnUse">
<stop stop-color="#DEF8F9"/>
<stop offset="1" stop-color="#F6FDFD"/>
</linearGradient>
<linearGradient id="paint40_linear" x1="31587" y1="17479.2" x2="37906.4" y2="17452.2" gradientUnits="userSpaceOnUse">
<stop stop-color="#E9E9FD"/>
<stop offset="0.36" stop-color="#D3D2F9"/>
<stop offset="0.71" stop-color="#C5C4F7"/>
<stop offset="1" stop-color="#C0BFF6"/>
</linearGradient>
<linearGradient id="paint41_linear" x1="383.983" y1="442.553" x2="351.512" y2="380.016" gradientUnits="userSpaceOnUse">
<stop stop-color="#71E2FB" stop-opacity="0.65"/>
<stop offset="0.243575" stop-color="#71E2FB" stop-opacity="0.467969"/>
<stop offset="0.477954" stop-color="#71E2FB" stop-opacity="0.314343"/>
<stop offset="0.712333" stop-color="#71E2FB" stop-opacity="0.149743"/>
<stop offset="1" stop-color="#71E2FB" stop-opacity="0"/>
</linearGradient>
</defs>
</svg>
