<svg width="61" height="71" viewBox="0 0 61 71" fill="none" xmlns="http://www.w3.org/2000/svg">
  <path d="M58.9271 9.2998H2.07293C0.928105 9.2998 0 10.3801 0 11.7126V47.68C0 49.0125 0.928105 50.0928 2.07293 50.0928H58.9271C60.0719 50.0928 61 49.0125 61 47.68V11.7126C61 10.3801 60.0719 9.2998 58.9271 9.2998Z" fill="#030A46"/>
  <path d="M42.3444 57.5142H35.3069V54.2788H25.6913V57.5142H18.6537C17.6606 57.5142 16.8555 58.4512 16.8555 59.6071C16.8555 60.763 17.6605 61.7001 18.6537 61.7001H42.3444C43.3375 61.7001 44.1426 60.7631 44.1426 59.6071C44.1426 58.4513 43.3376 57.5142 42.3444 57.5142Z" fill="#5B37C0"/>
</svg>
