<svg width="58" height="58" viewBox="0 0 58 58" fill="none" xmlns="http://www.w3.org/2000/svg">
  <path d="M57.6986 23.9971C57.4964 23.7323 57.2325 23.5747 56.9057 23.5248L49.9952 22.4677C49.6177 21.2593 49.1017 20.0261 48.4472 18.7671C48.8998 18.1378 49.5793 17.2506 50.4854 16.1048C51.3915 14.9593 52.0332 14.1226 52.4112 13.5937C52.6126 13.3168 52.7126 13.0275 52.7126 12.7252C52.7126 12.373 52.6253 12.0963 52.4484 11.8946C51.5427 10.6106 49.4656 8.47101 46.2181 5.47518C45.9172 5.22349 45.6017 5.09771 45.2748 5.09771C44.897 5.09771 44.595 5.21079 44.3683 5.43722L39.0066 9.47764C37.9742 8.94874 36.8414 8.48305 35.6085 8.08031L34.5512 1.13281C34.5259 0.805598 34.3809 0.534861 34.1167 0.320864C33.852 0.106602 33.5443 0 33.1913 0H24.8086C24.0785 0 23.6253 0.352209 23.4492 1.05716C23.1219 2.31535 22.7567 4.65649 22.3541 8.08018C21.1708 8.45845 20.0254 8.9367 18.9179 9.5156L13.7069 5.47518C13.3797 5.22349 13.0525 5.09771 12.7253 5.09771C12.1715 5.09771 10.9822 5.99761 9.15705 7.79754C7.33185 9.59787 6.09271 10.9508 5.43762 11.8566C5.21093 12.1838 5.09798 12.4735 5.09798 12.7252C5.09798 13.0275 5.22362 13.3296 5.47531 13.6313C7.16177 15.6707 8.50884 17.4072 9.51587 18.8427C8.88644 20.0005 8.39562 21.1587 8.04355 22.3166L1.01986 23.3736C0.743039 23.4241 0.504044 23.588 0.302479 23.8649C0.100518 24.1416 0 24.4314 0 24.733V33.116C0 33.4437 0.100518 33.7388 0.302083 34.0032C0.503647 34.2675 0.767771 34.4258 1.09512 34.4756L8.00572 35.4954C8.35793 36.7287 8.87388 37.9743 9.55369 39.2327C9.10083 39.8623 8.42115 40.7494 7.5149 41.8949C6.60879 43.041 5.96626 43.8774 5.58906 44.406C5.38736 44.684 5.28684 44.9728 5.28684 45.275C5.28684 45.6018 5.37493 45.891 5.55097 46.1427C6.53274 47.5029 8.60949 49.6175 11.7816 52.4871C12.0587 52.7641 12.3735 52.9022 12.7256 52.9022C13.1034 52.9022 13.4181 52.7895 13.6696 52.5632L18.9943 48.5222C20.027 49.0509 21.1595 49.5167 22.393 49.92L23.4502 56.8675C23.4757 57.1943 23.6204 57.465 23.8844 57.6795C24.1485 57.8941 24.4572 58 24.8095 58H33.1922C33.9236 58 34.3762 57.6479 34.5527 56.9427C34.8796 55.6844 35.2443 53.3435 35.6471 49.92C36.8303 49.542 37.9758 49.0634 39.0833 48.4843L44.2947 52.5632C44.6469 52.7896 44.9746 52.9022 45.276 52.9022C45.8297 52.9022 47.0127 52.0091 48.825 50.2212C50.6381 48.4343 51.8841 47.0748 52.5632 46.1427C52.7895 45.8912 52.903 45.6018 52.903 45.275C52.903 44.9472 52.7777 44.6319 52.5251 44.3308C50.7134 42.1149 49.3663 40.3786 48.4851 39.1194C48.9884 38.1879 49.4795 37.0428 49.9579 35.6833L56.9435 34.6268C57.2449 34.5762 57.4975 34.4123 57.6984 34.1353C57.8999 33.8579 57.9999 33.5682 57.9999 33.2663V24.8841C58.0005 24.5569 57.9005 24.2616 57.6986 23.9971ZM35.8354 35.8345C33.9479 37.7228 31.6696 38.667 29.0007 38.667C26.3321 38.667 24.0541 37.7228 22.1658 35.8345C20.2782 33.947 19.334 31.6686 19.334 29.0002C19.334 26.3316 20.2776 24.0535 22.1658 22.1652C24.0541 20.2776 26.3325 19.3334 29.0007 19.3334C31.6696 19.3334 33.9481 20.2776 35.8354 22.1652C37.7233 24.0535 38.6675 26.3316 38.6675 29.0002C38.6675 31.6686 37.7234 33.9471 35.8354 35.8345Z" fill="#030A46"/>
</svg>
