<svg width="58" height="58" viewBox="0 0 58 58" fill="none" xmlns="http://www.w3.org/2000/svg">
  <path d="M47.8047 32.3984C47.8047 34.6108 49.2295 36.4793 51.2031 37.1831V49.3906C51.2031 52.2016 48.9164 54.6016 46.1055 54.6016C43.2945 54.6016 41.0078 52.2016 41.0078 49.3906V8.49609C41.0078 3.81157 37.1978 0 32.5117 0H18.8047C15.9937 0 13.707 2.2867 13.707 5.09766V6.79688H12.0078C11.0686 6.79688 10.3086 7.55688 10.3086 8.49609V10.1953H20.5039V8.49609C20.5039 7.55688 19.7439 6.79688 18.8047 6.79688H17.1055V5.09766C17.1055 4.16014 17.8688 3.39844 18.8047 3.39844H32.5117C35.3227 3.39844 37.6094 5.68513 37.6094 8.49609V49.3906C37.6094 54.0751 41.4194 58 46.1055 58C50.7916 58 54.6016 54.0751 54.6016 49.3906V37.1831C56.5751 36.4793 58 34.6108 58 32.3984V30.6992H47.8047V32.3984Z" fill="#5B37C0"/>
  <path d="M56.3008 20.5039L49.5039 20.3906C48.5647 20.3906 47.8047 21.2639 47.8047 22.2031V27.3008H58V22.2031C58 21.2639 57.24 20.5039 56.3008 20.5039Z" fill="#030A46"/>
  <path d="M15.4062 47.6914C16.3447 47.6914 17.1055 46.9306 17.1055 45.9922C17.1055 45.0537 16.3447 44.293 15.4062 44.293C14.4678 44.293 13.707 45.0537 13.707 45.9922C13.707 46.9306 14.4678 47.6914 15.4062 47.6914Z" fill="black"/>
  <path d="M1.69922 58H29.1133C30.0525 58 30.8125 57.24 30.8125 56.3008V15.293C30.8125 14.3538 30.0525 13.5938 29.1133 13.5938H1.69922C0.760004 13.5938 0 14.3538 0 15.293V56.3008C0 57.24 0.760004 58 1.69922 58ZM6.91016 25.6016C6.91016 24.6623 7.67016 23.9023 8.60938 23.9023C9.54859 23.9023 10.3086 24.6623 10.3086 25.6016V29C10.3086 29.9375 11.0719 30.6992 12.0078 30.6992H13.707V22.2031C13.707 21.2639 14.467 20.3906 15.4062 20.3906C16.3455 20.3906 17.1055 21.2639 17.1055 22.2031V34.0977H18.8047C19.7406 34.0977 20.5039 33.336 20.5039 32.3984V29C20.5039 28.0608 21.2639 27.3008 22.2031 27.3008C23.1423 27.3008 23.9023 28.0608 23.9023 29V32.3984C23.9023 35.2094 21.6156 37.4961 18.8047 37.4961H17.1055V41.2075C19.0791 41.9113 20.5039 43.7798 20.5039 45.9922C20.5039 48.8032 18.2172 51.2031 15.4062 51.2031C12.5953 51.2031 10.3086 48.8032 10.3086 45.9922C10.3086 43.7798 11.7334 41.9113 13.707 41.2075V34.0977H12.0078C9.19685 34.0977 6.91016 31.811 6.91016 29V25.6016Z" fill="#030A46"/>
  <rect x="4" y="19" width="25" height="33" fill="#030A46"/>
</svg>
