<svg width="138" height="121" viewBox="0 0 138 121" fill="none" xmlns="http://www.w3.org/2000/svg">
<g filter="url(#filter0_d)">
<circle cx="68.0442" cy="56.1399" r="26.1399" fill="#2EFFEC"/>
</g>
<path d="M77.1986 55.2504L64.7151 48.0435C64.398 47.8605 64.0083 47.8605 63.6915 48.0435C63.3747 48.226 63.1797 48.5639 63.1797 48.9298V63.3451C63.1797 63.7109 63.3747 64.0488 63.6915 64.2314C63.8499 64.3241 64.0266 64.3687 64.2033 64.3687C64.38 64.3687 64.5568 64.3227 64.7151 64.2314L77.1986 57.0245C77.5161 56.8415 77.7101 56.5037 77.7101 56.1378C77.7101 55.7719 77.5154 55.4337 77.1986 55.2504Z" fill="#1F1A6B"/>
<rect y="94" width="138" height="18" rx="9" fill="#030A46"/>
<path d="M18.0977 102.635C18.0977 104.049 17.7051 105.131 16.9199 105.881C16.1348 106.627 15.0039 107 13.5273 107H11.1309V98.4336H13.7793C15.1426 98.4336 16.2031 98.8008 16.9609 99.5352C17.7188 100.27 18.0977 101.303 18.0977 102.635ZM16.6211 102.682C16.6211 100.631 15.6621 99.6055 13.7441 99.6055H12.5312V105.822H13.5273C15.5898 105.822 16.6211 104.775 16.6211 102.682ZM24.3672 107L24.1738 106.15H24.1035C23.9121 106.451 23.6387 106.688 23.2832 106.859C22.9316 107.031 22.5293 107.117 22.0762 107.117C21.291 107.117 20.7051 106.922 20.3184 106.531C19.9316 106.141 19.7383 105.549 19.7383 104.756V100.52H21.127V104.516C21.127 105.012 21.2285 105.385 21.4316 105.635C21.6348 105.881 21.9531 106.004 22.3867 106.004C22.9648 106.004 23.3887 105.832 23.6582 105.488C23.9316 105.141 24.0684 104.561 24.0684 103.748V100.52H25.4512V107H24.3672ZM30.7012 100.402C30.9785 100.402 31.207 100.422 31.3867 100.461L31.252 101.744C31.0566 101.697 30.8535 101.674 30.6426 101.674C30.0918 101.674 29.6445 101.854 29.3008 102.213C28.9609 102.572 28.791 103.039 28.791 103.613V107H27.4141V100.52H28.4922L28.6738 101.662H28.7441C28.959 101.275 29.2383 100.969 29.582 100.742C29.9297 100.516 30.3027 100.402 30.7012 100.402ZM36.6484 107L36.373 106.098H36.3262C36.0137 106.492 35.6992 106.762 35.3828 106.906C35.0664 107.047 34.6602 107.117 34.1641 107.117C33.5273 107.117 33.0293 106.945 32.6699 106.602C32.3145 106.258 32.1367 105.771 32.1367 105.143C32.1367 104.475 32.3848 103.971 32.8809 103.631C33.377 103.291 34.1328 103.105 35.1484 103.074L36.2676 103.039V102.693C36.2676 102.279 36.1699 101.971 35.9746 101.768C35.7832 101.561 35.4844 101.457 35.0781 101.457C34.7461 101.457 34.4277 101.506 34.123 101.604C33.8184 101.701 33.5254 101.816 33.2441 101.949L32.7988 100.965C33.1504 100.781 33.5352 100.643 33.9531 100.549C34.3711 100.451 34.7656 100.402 35.1367 100.402C35.9609 100.402 36.582 100.582 37 100.941C37.4219 101.301 37.6328 101.865 37.6328 102.635V107H36.6484ZM34.5977 106.062C35.0977 106.062 35.498 105.924 35.7988 105.646C36.1035 105.365 36.2559 104.973 36.2559 104.469V103.906L35.4238 103.941C34.7754 103.965 34.3027 104.074 34.0059 104.27C33.7129 104.461 33.5664 104.756 33.5664 105.154C33.5664 105.443 33.6523 105.668 33.8242 105.828C33.9961 105.984 34.2539 106.062 34.5977 106.062ZM41.9688 106.004C42.3047 106.004 42.6406 105.951 42.9766 105.846V106.883C42.8242 106.949 42.627 107.004 42.3848 107.047C42.1465 107.094 41.8984 107.117 41.6406 107.117C40.3359 107.117 39.6836 106.43 39.6836 105.055V101.562H38.7988V100.953L39.748 100.449L40.2168 99.0781H41.0664V100.52H42.9121V101.562H41.0664V105.031C41.0664 105.363 41.1484 105.609 41.3125 105.77C41.4805 105.926 41.6992 106.004 41.9688 106.004ZM45.6543 107H44.2773V100.52H45.6543V107ZM44.1953 98.8027C44.1953 98.5566 44.2617 98.3672 44.3945 98.2344C44.5312 98.1016 44.7246 98.0352 44.9746 98.0352C45.2168 98.0352 45.4043 98.1016 45.5371 98.2344C45.6738 98.3672 45.7422 98.5566 45.7422 98.8027C45.7422 99.0371 45.6738 99.2227 45.5371 99.3594C45.4043 99.4922 45.2168 99.5586 44.9746 99.5586C44.7246 99.5586 44.5312 99.4922 44.3945 99.3594C44.2617 99.2227 44.1953 99.0371 44.1953 98.8027ZM53.377 103.748C53.377 104.807 53.1055 105.633 52.5625 106.227C52.0195 106.82 51.2637 107.117 50.2949 107.117C49.6895 107.117 49.1543 106.98 48.6895 106.707C48.2246 106.434 47.8672 106.041 47.6172 105.529C47.3672 105.018 47.2422 104.424 47.2422 103.748C47.2422 102.697 47.5117 101.877 48.0508 101.287C48.5898 100.697 49.3496 100.402 50.3301 100.402C51.2676 100.402 52.0098 100.705 52.5566 101.311C53.1035 101.912 53.377 102.725 53.377 103.748ZM48.6602 103.748C48.6602 105.244 49.2129 105.992 50.3184 105.992C51.4121 105.992 51.959 105.244 51.959 103.748C51.959 102.268 51.4082 101.527 50.3066 101.527C49.7285 101.527 49.3086 101.719 49.0469 102.102C48.7891 102.484 48.6602 103.033 48.6602 103.748ZM60.666 107H59.2832V103.016C59.2832 102.516 59.1816 102.143 58.9785 101.896C58.7793 101.65 58.4609 101.527 58.0234 101.527C57.4414 101.527 57.0156 101.699 56.7461 102.043C56.4766 102.387 56.3418 102.963 56.3418 103.771V107H54.9648V100.52H56.043L56.2363 101.369H56.3066C56.502 101.061 56.7793 100.822 57.1387 100.654C57.498 100.486 57.8965 100.402 58.334 100.402C59.8887 100.402 60.666 101.193 60.666 102.775V107ZM62.377 106.268C62.377 105.982 62.4512 105.764 62.5996 105.611C62.748 105.459 62.9629 105.383 63.2441 105.383C63.5293 105.383 63.7461 105.463 63.8945 105.623C64.043 105.779 64.1172 105.994 64.1172 106.268C64.1172 106.545 64.041 106.766 63.8887 106.93C63.7402 107.09 63.5254 107.17 63.2441 107.17C62.9629 107.17 62.748 107.09 62.5996 106.93C62.4512 106.77 62.377 106.549 62.377 106.268ZM62.377 101.264C62.377 100.674 62.666 100.379 63.2441 100.379C63.5371 100.379 63.7559 100.457 63.9004 100.613C64.0449 100.77 64.1172 100.986 64.1172 101.264C64.1172 101.541 64.041 101.762 63.8887 101.926C63.7402 102.086 63.5254 102.166 63.2441 102.166C62.9629 102.166 62.748 102.086 62.5996 101.926C62.4512 101.766 62.377 101.545 62.377 101.264ZM74.6582 105.131H73.5039V107H72.1621V105.131H68.248V104.07L72.1621 98.4102H73.5039V103.988H74.6582V105.131ZM72.1621 103.988V101.838C72.1621 101.072 72.1816 100.445 72.2207 99.957H72.1738C72.0645 100.215 71.8926 100.527 71.6582 100.895L69.5312 103.988H72.1621ZM84.4375 107H83.0547V103.004C83.0547 102.508 82.9609 102.139 82.7734 101.896C82.5859 101.65 82.293 101.527 81.8945 101.527C81.3633 101.527 80.9727 101.701 80.7227 102.049C80.4766 102.393 80.3535 102.967 80.3535 103.771V107H78.9766V100.52H80.0547L80.248 101.369H80.3184C80.498 101.061 80.7578 100.822 81.0977 100.654C81.4414 100.486 81.8184 100.402 82.2285 100.402C83.2246 100.402 83.8848 100.742 84.209 101.422H84.3027C84.4941 101.102 84.7637 100.852 85.1113 100.672C85.459 100.492 85.8574 100.402 86.3066 100.402C87.0801 100.402 87.6426 100.598 87.9941 100.988C88.3496 101.379 88.5273 101.975 88.5273 102.775V107H87.1504V103.004C87.1504 102.508 87.0547 102.139 86.8633 101.896C86.6758 101.65 86.3828 101.527 85.9844 101.527C85.4492 101.527 85.0566 101.695 84.8066 102.031C84.5605 102.363 84.4375 102.875 84.4375 103.566V107ZM91.8262 107H90.4492V100.52H91.8262V107ZM90.3672 98.8027C90.3672 98.5566 90.4336 98.3672 90.5664 98.2344C90.7031 98.1016 90.8965 98.0352 91.1465 98.0352C91.3887 98.0352 91.5762 98.1016 91.709 98.2344C91.8457 98.3672 91.9141 98.5566 91.9141 98.8027C91.9141 99.0371 91.8457 99.2227 91.709 99.3594C91.5762 99.4922 91.3887 99.5586 91.1465 99.5586C90.8965 99.5586 90.7031 99.4922 90.5664 99.3594C90.4336 99.2227 90.3672 99.0371 90.3672 98.8027ZM99.502 107H98.1191V103.016C98.1191 102.516 98.0176 102.143 97.8145 101.896C97.6152 101.65 97.2969 101.527 96.8594 101.527C96.2773 101.527 95.8516 101.699 95.582 102.043C95.3125 102.387 95.1777 102.963 95.1777 103.771V107H93.8008V100.52H94.8789L95.0723 101.369H95.1426C95.3379 101.061 95.6152 100.822 95.9746 100.654C96.334 100.486 96.7324 100.402 97.1699 100.402C98.7246 100.402 99.502 101.193 99.502 102.775V107ZM105.988 107L105.795 106.15H105.725C105.533 106.451 105.26 106.688 104.904 106.859C104.553 107.031 104.15 107.117 103.697 107.117C102.912 107.117 102.326 106.922 101.939 106.531C101.553 106.141 101.359 105.549 101.359 104.756V100.52H102.748V104.516C102.748 105.012 102.85 105.385 103.053 105.635C103.256 105.881 103.574 106.004 104.008 106.004C104.586 106.004 105.01 105.832 105.279 105.488C105.553 105.141 105.689 104.561 105.689 103.748V100.52H107.072V107H105.988ZM111.449 106.004C111.785 106.004 112.121 105.951 112.457 105.846V106.883C112.305 106.949 112.107 107.004 111.865 107.047C111.627 107.094 111.379 107.117 111.121 107.117C109.816 107.117 109.164 106.43 109.164 105.055V101.562H108.279V100.953L109.229 100.449L109.697 99.0781H110.547V100.52H112.393V101.562H110.547V105.031C110.547 105.363 110.629 105.609 110.793 105.77C110.961 105.926 111.18 106.004 111.449 106.004ZM116.588 107.117C115.58 107.117 114.791 106.824 114.221 106.238C113.654 105.648 113.371 104.838 113.371 103.807C113.371 102.748 113.635 101.916 114.162 101.311C114.689 100.705 115.414 100.402 116.336 100.402C117.191 100.402 117.867 100.662 118.363 101.182C118.859 101.701 119.107 102.416 119.107 103.326V104.07H114.789C114.809 104.699 114.979 105.184 115.299 105.523C115.619 105.859 116.07 106.027 116.652 106.027C117.035 106.027 117.391 105.992 117.719 105.922C118.051 105.848 118.406 105.727 118.785 105.559V106.678C118.449 106.838 118.109 106.951 117.766 107.018C117.422 107.084 117.029 107.117 116.588 107.117ZM116.336 101.445C115.898 101.445 115.547 101.584 115.281 101.861C115.02 102.139 114.863 102.543 114.812 103.074H117.754C117.746 102.539 117.617 102.135 117.367 101.861C117.117 101.584 116.773 101.445 116.336 101.445ZM125.025 105.154C125.025 105.787 124.795 106.273 124.334 106.613C123.873 106.949 123.213 107.117 122.354 107.117C121.49 107.117 120.797 106.986 120.273 106.725V105.535C121.035 105.887 121.744 106.062 122.4 106.062C123.248 106.062 123.672 105.807 123.672 105.295C123.672 105.131 123.625 104.994 123.531 104.885C123.438 104.775 123.283 104.662 123.068 104.545C122.854 104.428 122.555 104.295 122.172 104.146C121.426 103.857 120.92 103.568 120.654 103.279C120.393 102.99 120.262 102.615 120.262 102.154C120.262 101.6 120.484 101.17 120.93 100.865C121.379 100.557 121.988 100.402 122.758 100.402C123.52 100.402 124.24 100.557 124.92 100.865L124.475 101.902C123.775 101.613 123.188 101.469 122.711 101.469C121.984 101.469 121.621 101.676 121.621 102.09C121.621 102.293 121.715 102.465 121.902 102.605C122.094 102.746 122.508 102.939 123.145 103.186C123.68 103.393 124.068 103.582 124.311 103.754C124.553 103.926 124.732 104.125 124.85 104.352C124.967 104.574 125.025 104.842 125.025 105.154Z" fill="white"/>
<defs>
<filter id="filter0_d" x="7.9043" y="0" width="120.28" height="120.28" filterUnits="userSpaceOnUse" color-interpolation-filters="sRGB">
<feFlood flood-opacity="0" result="BackgroundImageFix"/>
<feColorMatrix in="SourceAlpha" type="matrix" values="0 0 0 0 0 0 0 0 0 0 0 0 0 0 0 0 0 0 127 0" result="hardAlpha"/>
<feOffset dy="4"/>
<feGaussianBlur stdDeviation="17"/>
<feColorMatrix type="matrix" values="0 0 0 0 0.122031 0 0 0 0 0.199049 0 0 0 0 0.4125 0 0 0 0.11 0"/>
<feBlend mode="normal" in2="BackgroundImageFix" result="effect1_dropShadow"/>
<feBlend mode="normal" in="SourceGraphic" in2="effect1_dropShadow" result="shape"/>
</filter>
</defs>
</svg>
